<svg width="520" height="520" viewBox="0 0 520 520" fill="none" xmlns="http://www.w3.org/2000/svg">
<rect width="520" height="520" fill="#6C77E9"/>
<path d="M307.856 203.996C333.05 207.283 354.423 229.928 354.423 260C354.423 292.561 329.366 316.415 301.532 316.415C273.698 316.415 248.64 292.561 248.64 260C248.64 252.404 250.004 245.282 252.449 238.826C245.602 225.535 232.602 217.151 219.06 216.538C212.668 229.588 209.064 244.357 209.064 260C209.064 313.019 250.463 356 301.532 356C352.601 356 394 313.019 394 260C394 206.981 352.601 164 301.532 164C292.049 164 282.899 165.482 274.286 168.235C287.985 177.322 299.489 189.591 307.856 203.996Z" fill="white"/>
<path d="M292.834 204.365C284.231 191.826 272.797 181.525 259.5 174.468C246.203 181.525 234.769 191.826 226.166 204.365C239.374 206.747 251.355 214.455 259.5 225.716C267.645 214.455 279.625 206.747 292.834 204.365Z" fill="white"/>
<path d="M226.166 315.635C234.769 328.174 246.203 338.475 259.5 345.532C272.797 338.475 284.231 328.174 292.834 315.635C279.626 313.253 267.645 305.545 259.5 294.284C251.355 305.545 239.375 313.253 226.166 315.635Z" fill="white"/>
<path d="M266.551 281.174C268.996 274.718 270.36 267.596 270.36 260C270.36 227.439 245.302 203.585 217.468 203.585C189.634 203.585 164.577 227.439 164.577 260C164.577 290.072 185.95 312.717 211.144 316.004C219.511 330.409 231.015 342.678 244.714 351.765C236.101 354.518 226.951 356 217.468 356C166.399 356 125 313.019 125 260C125 206.981 166.399 164 217.468 164C268.537 164 309.936 206.981 309.936 260C309.936 275.643 306.332 290.412 299.94 303.462C286.399 302.849 273.398 294.465 266.551 281.174Z" fill="white"/>
</svg>
