<svg xmlns="http://www.w3.org/2000/svg" viewBox="300 350 1400 1050" fill="rgb(9,228,240)">
<path transform="translate(0,0)" fill="rgb(9,228,240)" d="M 1027.71 383.708 C 1042.61 389.057 1234.74 557.531 1260.81 582.357 C 1261.83 592.799 1261.66 601.484 1261.4 611.973 C 1289.82 584.616 1324.7 547.248 1352.3 518.164 C 1343.13 509.393 1333.54 499.33 1324.9 490.048 C 1338.36 485.176 1359.18 480.023 1373.3 475.858 C 1386.66 471.918 1412.83 463.766 1425.93 462.564 C 1424.86 468.558 1423.03 475.507 1421.36 481.409 C 1413.86 508.079 1407.92 536.438 1399.14 562.696 C 1389.73 556.756 1377.84 544.225 1369.8 536.03 C 1346.18 561.592 1319.31 586.793 1294.92 611.938 C 1249.18 659.615 1203.08 706.956 1156.64 753.955 C 1156.37 766.215 1156.85 776.937 1156.2 789.536 C 1170.19 775.581 1183.2 760.429 1197.22 746.42 C 1226.44 717.236 1255.95 688.411 1284.68 658.747 C 1291.63 651.577 1299.54 643.717 1307.28 637.49 C 1315.84 643.387 1325.24 655.96 1332.03 664.325 C 1370.72 625.985 1409.02 587.247 1446.92 548.118 C 1466.66 527.823 1488.47 503.876 1509.3 485.074 C 1498.63 470.994 1475.21 453.116 1466.9 439.786 C 1486.35 432.368 1525.59 421.524 1546.39 415.638 C 1575.87 407.293 1620.46 392.488 1649.36 387.471 C 1642.95 405.675 1636.64 430.55 1631.31 449.524 C 1619.98 489.98 1608.87 530.498 1597.99 571.078 C 1587.19 562.529 1561.93 536.492 1552.08 526.487 C 1537.47 539.674 1521.85 557.086 1507.4 570.94 C 1461.84 614.585 1417.11 664.178 1371.11 706.963 C 1390.7 706.715 1410.29 706.651 1429.88 706.772 C 1424.33 714.884 1407.07 731.797 1399.69 739.396 C 1381.4 758.39 1362.97 777.251 1344.41 795.977 L 1251.29 891.126 C 1219.23 923.434 1187 954.403 1156.1 987.896 C 1155.49 1005.74 1156.03 1026.38 1156.03 1044.52 L 1156.26 1149.52 C 1176.49 1152.81 1215.66 1165.79 1236.33 1172 C 1235.66 1139.51 1236.73 1101.83 1236.74 1068.79 C 1236.4 1028.19 1236.5 987.59 1237.02 946.995 C 1241.38 940.53 1252.81 929.338 1258.69 923.303 L 1305.4 876.199 L 1404.64 773.642 C 1431.06 746.871 1457.8 721.947 1483.46 694.324 C 1474.78 685.332 1466.07 676.542 1458.71 666.446 C 1476.05 658.849 1538.96 641.086 1558.77 638.366 L 1532.22 740.899 C 1521.44 733.856 1510.97 720.881 1503.38 710.567 L 1356.74 859.493 L 1299.51 917.017 C 1288.04 928.465 1274.08 943.091 1261.92 953.389 C 1259.15 1031.4 1261.3 1116.16 1260.99 1194.96 C 1213.09 1231.07 1161.8 1264.26 1113.21 1299.48 C 1085.39 1319.64 1057.01 1339.48 1028.28 1358.32 C 1001.09 1336.22 974.472 1318.59 945.656 1298.86 L 879.562 1253.13 C 853.367 1235.31 819.659 1213.27 797.053 1191.73 C 795.081 1157.12 797.167 1119.92 796.047 1084.95 C 804.856 1084.81 813.279 1084.65 822.092 1084.13 C 821.839 1113.77 821.866 1143.42 822.172 1173.06 C 845.165 1165.64 879.448 1153.07 902.156 1148.2 L 901.987 634.755 C 875.654 626.924 848.013 613.66 821.492 606.689 C 822.468 619.342 821.898 638.096 821.848 651.287 C 821.856 675.488 821.648 699.688 821.222 723.884 L 796.322 723.986 C 796.287 677.031 796.496 630.077 796.95 583.124 C 809.81 569.23 825.443 556.66 839.943 544.316 C 861.298 526.252 882.559 508.076 903.724 489.789 L 982.745 420.274 C 993.778 410.656 1016.1 390.513 1027.71 383.708 z M 1063.94 1262.24 C 1082.11 1230.55 1101.95 1201.94 1120.77 1171.53 C 1057.95 1170.13 998.395 1170.57 935.864 1170.22 C 959.118 1202.54 978.994 1237.67 1000.01 1271.48 C 1008.78 1285.58 1020.21 1306.86 1030.27 1319.75 C 1037.65 1304.45 1054.85 1277.12 1063.94 1262.24 z M 1132.01 901.319 L 1132 862.461 C 1114.81 879.429 1097.78 896.558 1080.9 913.845 C 1070.08 924.796 1055.89 939.521 1044.14 949.057 C 1036.33 942.032 1027.87 935.852 1019.49 929.511 C 1047.37 899.04 1075.98 870 1105.34 840.96 C 1114.19 832.217 1123.58 823.107 1131.66 813.689 C 1130.12 801.19 1130.92 772.419 1131.01 758.634 C 1125.88 763.026 1120.89 767.354 1115.57 771.514 C 1122.76 786.959 1121.37 802.768 1104.05 810.213 C 1096.77 813.325 1088.54 813.349 1081.25 810.28 C 1048.36 796.761 1064.19 741.892 1107.69 761.055 C 1115 751.591 1121.05 746.571 1130.17 738.814 C 1130.46 706.458 1131.31 671.496 1130.81 639.268 L 926.901 639.162 L 926.824 985.118 C 926.855 1038.21 927.815 1092.79 927.085 1145.74 C 959.651 1143.75 1005.86 1145.63 1039.41 1145.18 C 1060.47 1144.9 1111.67 1144 1130.99 1145.99 L 1130.63 1066.07 C 1130.59 1049.57 1131.02 1030.77 1130.06 1014.45 C 1108.92 1035.11 1088.15 1056.14 1067.78 1077.55 C 1058.74 1086.96 1039.65 1107.77 1029.77 1115.56 C 1005.12 1098.15 961.297 1073 940.783 1055.67 C 940.449 1048.71 940.069 1041.88 940.074 1034.91 C 969.752 1047.39 996.546 1061.98 1024.41 1077.84 C 1031.45 1064.91 1090.97 1006.63 1105 992.447 L 1251.71 843.637 C 1280.09 814.873 1319.93 769.931 1349.09 744.71 C 1336.09 728.61 1315.97 702.972 1305.41 684.985 C 1256.14 735.683 1207.21 787.019 1156 835.859 C 1155.77 849.952 1155.77 864.048 1156.01 878.141 C 1164.13 869.613 1173.47 860.24 1181.25 851.549 C 1205.6 826.691 1229.82 801.707 1253.92 776.597 C 1267.42 762.553 1293.47 734.721 1308.54 723.59 C 1314.08 728.785 1316.8 733.837 1320.48 740.444 C 1242.35 821.83 1161.43 900.831 1084.12 983.06 C 1078.52 989.017 1062.25 1006.52 1055.88 1009.32 C 1050.94 1006.79 1047.47 1003.79 1043.07 1000.43 C 1024.74 986.445 1006.83 971.674 988.296 957.982 C 979.709 961.377 970.413 964.284 961.48 960.271 C 930.687 946.439 952.84 896.942 983.549 912.34 C 996.557 918.862 997.971 930.246 996.797 943.671 C 1016.01 957.718 1033.69 972.408 1052.6 986.673 C 1070.45 966.329 1089.76 947.936 1108.13 928.122 C 1115.09 920.615 1126.09 909.469 1132.01 901.319 z M 1235.05 607.124 C 1208.89 617.786 1182.28 627.326 1155.31 635.718 C 1155.15 663.917 1155.23 692.117 1155.55 720.315 C 1176.79 696.816 1212.43 657.647 1235.98 637.8 C 1236.08 632.965 1237.12 609.553 1235.05 607.124 z M 1066.43 446.663 C 1083.76 475.917 1100.42 512.67 1115.35 543.313 C 1126.37 565.943 1139.04 589.983 1149.46 612.537 C 1164.69 604.684 1185.49 598.534 1201.77 591.979 C 1209.96 589.005 1216.64 586.446 1224.59 582.924 L 1113.64 486.758 C 1103.56 478.007 1075.93 452.053 1066.43 446.663 z M 839.446 1193.15 C 875.065 1218.05 911.161 1244.36 946.709 1268.85 C 959.586 1278.04 977.788 1290.29 988.902 1300.73 C 980.204 1288.02 912.173 1173.6 909.498 1172.19 C 909.44 1172.16 909.368 1172.18 909.303 1172.17 C 891.317 1177.18 855.075 1189.99 839.446 1193.15 z M 834.848 583.478 C 842.285 585.505 850.307 589.023 857.528 591.965 C 875.07 598.643 892.904 604.088 910.595 610.804 C 914.906 602.441 988.777 446.966 988.844 447.877 C 974.032 462.883 957.755 476.45 941.819 490.278 C 920.399 509.069 898.842 527.703 877.151 546.181 C 863.611 557.757 847.262 571.104 834.848 583.478 z M 1071.5 1299.52 C 1083.45 1288.84 1103.53 1274.47 1117.42 1265.95 C 1151.76 1242.01 1184.4 1216.92 1219.3 1193.43 C 1205.25 1188.91 1191.12 1184.67 1176.92 1180.68 C 1168.96 1178.49 1154.94 1175.28 1147.67 1172.7 C 1138.5 1193.47 1118.65 1223.92 1106.42 1243.58 C 1095.72 1260.77 1082.71 1283.22 1071.5 1299.52 z M 1028.42 428.676 C 1008.42 470.092 987.067 511.101 966.834 552.471 C 956.45 573.704 945.874 592.876 936.149 614.861 C 960.623 613.139 1002.9 614.341 1028.5 614.375 C 1056.55 614.378 1096.85 613.101 1123.63 614.458 C 1099.11 564.321 1074.26 513.873 1048.55 464.343 C 1045.37 458.217 1031.84 432.454 1028.42 428.676 z M 975.501 949.071 C 980.175 947.951 983.877 944.39 985.179 939.764 C 986.48 935.137 985.178 930.169 981.773 926.776 C 978.369 923.383 973.396 922.097 968.774 923.414 C 961.834 925.392 957.748 932.555 959.578 939.536 C 961.408 946.516 968.483 950.753 975.501 949.071 z M 1095.47 800.605 C 1103.89 798.503 1109.09 790.041 1107.14 781.578 C 1105.19 773.115 1096.83 767.769 1088.33 769.557 C 1082.69 770.744 1078.14 774.883 1076.41 780.381 C 1074.69 785.879 1076.07 791.879 1080.02 796.073 C 1083.97 800.266 1089.88 801.999 1095.47 800.605 z"/>
<path transform="translate(0,0)" fill="rgb(9,228,240)" d="M 719.142 1018.85 C 735.487 1018.12 758.957 1018.88 775.814 1018.89 L 886.528 1019.07 L 886.83 1033.29 C 833.18 1032.94 779.529 1032.96 725.879 1033.35 C 707.902 1053.2 683.979 1074.36 665.164 1093.8 C 658.456 1100.73 636.89 1122.75 630.879 1127.05 C 614.618 1127.52 596.178 1127.04 579.75 1126.99 L 501.802 1127.07 C 498.579 1133 494.483 1139.29 488.607 1142.74 C 475.032 1150.71 459.453 1144.89 452.944 1131.32 C 449.882 1125.08 449.632 1117.83 452.257 1111.4 C 454.937 1104.97 460.094 1099.89 466.565 1097.3 C 482.102 1090.99 495.44 1097.65 501.048 1113.11 C 535.946 1112.98 591.84 1116.12 625.343 1112.89 C 635.567 1100.9 651.946 1085.97 663.567 1074.5 L 719.142 1018.85 z M 478.97 1132.8 C 483.507 1131.78 487.131 1128.38 488.435 1123.92 C 489.738 1119.45 488.514 1114.64 485.239 1111.34 C 481.964 1108.04 477.155 1106.78 472.683 1108.05 C 466.03 1109.94 462.088 1116.78 463.791 1123.48 C 465.494 1130.18 472.222 1134.31 478.97 1132.8 z"/>
<path transform="translate(0,0)" fill="rgb(9,228,240)" d="M 469.647 690.253 C 487.343 688.392 495.332 691.466 502.713 707.988 C 539.363 708.322 576.016 708.151 612.662 707.475 C 648.065 741.192 683.018 775.378 717.512 810.025 C 773.525 810.634 830.674 810.015 886.778 809.985 L 886.883 823.984 L 846.921 823.686 L 760.169 823.728 C 746.381 823.758 725.28 824.397 712.07 823.171 C 706.12 818.973 702.818 814.633 697.589 809.948 C 667.081 782.612 638.331 748.82 607.778 722.377 C 577.373 724.117 533.959 722.474 502.394 722.523 C 496.788 735.909 484.842 743.524 470.352 738.991 C 463.482 736.824 457.777 731.978 454.527 725.55 C 446.696 710.035 455.213 696.998 469.647 690.253 z M 479.493 727.686 C 486.437 726.717 491.279 720.301 490.308 713.357 C 489.337 706.414 482.92 701.573 475.976 702.546 C 469.036 703.519 464.198 709.933 465.168 716.874 C 466.139 723.814 472.552 728.655 479.493 727.686 z"/>
<path transform="translate(0,0)" fill="rgb(9,228,240)" d="M 473.262 846.222 C 487.956 845.863 494.846 851.158 500.895 864.221 C 546.574 864.81 594.625 863.344 639.694 864.606 C 644.955 868.573 651.85 874.694 657.116 879.038 C 708.478 880.141 761.257 878.467 812.71 879.152 C 836.619 879.47 862.311 878.359 886.022 880.049 L 885.796 894.102 C 873.577 894.57 859.843 894.306 847.5 894.303 L 675.263 893.799 C 651.202 893.782 652.106 895.522 635.592 878.992 L 500.076 878.93 C 492.902 893.627 479.276 903.136 463.32 894.363 C 456.601 890.613 451.773 884.207 450.02 876.715 C 446.225 860.095 457.597 848.869 473.262 846.222 z M 477.485 883.912 C 481.996 883.053 485.675 879.792 487.069 875.416 C 488.463 871.041 487.348 866.253 484.166 862.943 C 480.983 859.633 476.243 858.331 471.816 859.552 C 465.342 861.338 461.431 867.914 462.954 874.454 C 464.476 880.995 470.889 885.168 477.485 883.912 z"/>
<path transform="translate(0,0)" fill="rgb(9,228,240)" d="M 656.896 949.042 C 681.793 948.327 709.735 948.925 734.919 948.917 L 885.903 948.872 L 885.805 963.151 C 832.492 963.871 778.689 962.8 725.39 963.127 C 715.111 963.191 668.505 962.311 660.625 963.597 C 637.152 988.972 614.154 1009.65 590.556 1033.85 C 591.424 1038.5 592.348 1042.74 591.978 1047.53 C 590.776 1063.09 577.867 1073.19 562.436 1070.95 C 555.348 1069.92 549.26 1065.95 544.973 1060.07 C 540.904 1054.49 539.25 1047.4 540.779 1040.58 C 548.395 1011.28 576.103 1024.26 580.058 1021.68 C 600.69 1008.23 638.1 961.819 656.896 949.042 z M 570.429 1057.67 C 577.249 1055.43 580.964 1048.08 578.729 1041.26 C 576.493 1034.44 569.154 1030.71 562.328 1032.94 C 555.49 1035.17 551.76 1042.52 553.999 1049.36 C 556.238 1056.19 563.597 1059.92 570.429 1057.67 z"/>
<path transform="translate(0,0)" fill="rgb(9,228,240)" d="M 739.789 1054.17 C 758.771 1053.43 780.799 1053.89 799.935 1053.88 C 828.682 1053.73 857.429 1053.81 886.175 1054.15 L 886.237 1068.82 C 870.468 1069.23 852.35 1068.52 836.353 1068.46 L 746.58 1068.41 C 737.253 1079.26 721.353 1093.99 710.928 1104.1 L 662.869 1151.54 L 634.782 1179.77 C 636.644 1194.11 635.643 1207.26 620.979 1213.56 C 575.282 1233.19 568.439 1145.84 624.99 1168.03 C 657.639 1138.21 688.144 1103.74 720.217 1073.09 C 726.857 1066.74 732.794 1060.26 739.789 1054.17 z M 611.751 1202.52 C 616.251 1201.74 619.975 1198.58 621.492 1194.27 C 623.009 1189.96 622.082 1185.17 619.069 1181.74 C 616.056 1178.3 611.424 1176.76 606.955 1177.71 C 600.208 1179.13 595.85 1185.7 597.158 1192.47 C 598.467 1199.24 604.959 1203.72 611.751 1202.52 z"/>
<path transform="translate(0,0)" fill="rgb(9,228,240)" d="M 615.653 584.16 C 640.876 583.454 649.666 599.592 643.448 622.353 C 684.605 659.229 724.239 700.737 763.624 739.506 C 799.416 741.466 849.569 739.852 886.286 739.418 L 885.963 754.459 C 879.795 754.93 871.829 754.786 865.5 754.839 C 830.556 754.834 793.192 755.484 758.441 754.473 C 741.038 736.251 723.441 720.161 705.36 702.639 L 632.88 631.417 C 624.402 635.605 616.315 637.077 607.555 632.366 C 601.421 629.012 596.932 623.287 595.136 616.53 C 590.639 600.19 600.023 588.116 615.653 584.16 z M 623.621 621.717 C 630.313 619.634 634.055 612.525 631.983 605.828 C 629.911 599.132 622.808 595.379 616.108 597.44 C 609.393 599.506 605.63 606.629 607.706 613.34 C 609.783 620.052 616.912 623.804 623.621 621.717 z"/>
<path transform="translate(0,0)" fill="rgb(9,228,240)" d="M 609.071 764.344 C 635.466 762.622 640.808 778.33 638.867 801.113 C 653.849 813.568 667.908 830.942 684.054 844.258 C 704.623 845.593 734.379 844.715 755.805 844.696 L 886.145 844.85 L 886.187 858.936 L 864.171 859.085 L 680.776 858.83 C 666.194 849.15 643.737 823.982 630.884 810.23 C 589.507 831.901 571.823 773.256 609.071 764.344 z M 617.476 801.718 C 624.372 799.84 628.446 792.734 626.581 785.834 C 624.716 778.934 617.616 774.848 610.713 776.7 C 603.793 778.557 599.693 785.679 601.563 792.596 C 603.433 799.514 610.562 803.6 617.476 801.718 z"/>
<path transform="translate(0,0)" fill="rgb(9,228,240)" d="M 606.528 895.387 C 622.326 895.253 628.606 900.507 634.693 914.41 C 660.931 913.234 694.087 914.11 720.751 914.074 L 886.089 913.907 C 886.327 918.644 886.079 923.214 885.92 927.951 L 845.5 927.891 L 713.471 927.984 C 688.304 927.991 661.387 928.461 636.331 927.696 C 632.27 936.293 626.981 943.532 617.42 946.421 C 610.588 948.419 603.236 947.53 597.077 943.962 C 590.919 940.437 586.463 934.555 584.736 927.674 C 580.449 910.687 590.415 899.107 606.528 895.387 z M 612.16 933.664 C 618.989 932.277 623.445 925.671 622.172 918.82 C 620.898 911.969 614.367 907.405 607.495 908.565 C 602.949 909.332 599.169 912.492 597.608 916.831 C 596.047 921.17 596.947 926.013 599.963 929.502 C 602.979 932.99 607.641 934.581 612.16 933.664 z"/>
<path transform="translate(0,0)" fill="rgb(9,228,240)" d="M 697.172 984.127 C 713.498 983.064 742.484 984.072 760.277 984.081 L 886.775 984.292 L 886.237 998.276 C 865.506 999.293 841.75 998.744 820.84 998.707 C 784.477 998.562 748.113 998.606 711.75 998.839 C 710.157 998.795 708.563 998.791 706.97 998.829 C 700.699 999.012 681.267 1021.01 675.675 1026.34 C 655.855 1045.21 636.118 1064.27 617.208 1084.06 C 612.835 1081.03 610.227 1078.65 606.284 1075.16 C 614.863 1064.2 641.951 1038.55 652.743 1028.05 C 665.242 1015.89 684.669 994.985 697.172 984.127 z"/>
<path transform="translate(0,0)" fill="rgb(9,228,240)" d="M 645.296 683.655 C 651.398 685.336 729.902 764.078 740.459 774.943 L 886.206 774.969 C 886.409 779.041 887.042 783.63 885.754 787.385 C 883.252 789.617 883.738 788.876 879.409 789.056 C 831.741 789.127 783.505 789.389 735.874 788.83 C 722.356 777.248 702.569 757.077 689.055 744.295 C 674.444 730.472 648.944 706.688 636.323 691.82 L 645.296 683.655 z"/>
</svg>