<svg width="400" height="400" viewBox="0 0 400 400" fill="none" xmlns="http://www.w3.org/2000/svg">
<path d="M200 0C310.457 0 400 89.5431 400 200C400 310.457 310.457 400 200 400C176.865 400 154.648 396.07 133.979 388.845L149.893 372.931C165.799 377.532 182.611 380 200 380C299.411 380 380 299.411 380 200C380 100.589 299.411 20 200 20C100.589 20 20 100.589 20 200C20 223.672 24.5729 246.275 32.8779 266.979L17.6309 282.226C6.30454 257.144 0 229.308 0 200C0 89.5431 89.5431 0 200 0ZM85.1895 338.634C98.3627 349.556 113.118 358.634 129.061 365.478L113.949 380.589C98.4187 373.175 83.9933 363.82 70.9902 352.833L85.1895 338.634ZM41.9443 286.197C49.7137 300.413 59.3461 313.465 70.5117 325.026L56.3672 339.171C45.2068 327.655 35.42 314.801 27.2686 300.873L41.9443 286.197Z" fill="#171725"/>
<path d="M268.071 254.753L149.893 372.931C142.756 370.867 135.803 368.372 129.061 365.478L253.928 240.61L268.071 254.753ZM235.071 188.753L85.1895 338.634C80.0478 334.371 75.1479 329.827 70.5117 325.026L220.928 174.61L235.071 188.753ZM204.071 124.071L41.9443 286.197C38.5591 280.003 35.529 273.587 32.8779 266.979L189.928 109.929L204.071 124.071Z" fill="#171725"/>
</svg>
