<svg width="32" height="32" viewBox="0 0 32 32" fill="none" xmlns="http://www.w3.org/2000/svg">
<path fill-rule="evenodd" clip-rule="evenodd" d="M15.438 0C23.964 0 30.8758 6.91191 30.8758 15.438C30.8758 17.8245 30.3342 20.0846 29.3671 22.1018L31.6335 24.3683C32.122 24.8567 32.122 25.6486 31.6335 26.1372C31.1451 26.6255 30.3532 26.6255 29.8648 26.1372L28.0583 24.3306C27.7894 24.7112 27.5035 25.0791 27.2021 25.4333L29.418 27.6494C29.9064 28.1378 29.9064 28.9297 29.418 29.418C28.9295 29.9066 28.1376 29.9066 27.6492 29.418L25.4333 27.2022C25.0791 27.5035 24.7112 27.7894 24.3306 28.0584L26.1371 29.8649C26.6255 30.3532 26.6255 31.1453 26.1371 31.6335C25.6486 32.1222 24.8567 32.1222 24.3683 31.6335L22.1018 29.3671C20.0844 30.3342 17.8245 30.8758 15.438 30.8758C6.91191 30.8758 0 23.964 0 15.438C0 6.91191 6.91191 0 15.438 0Z" fill="white"/>
<path fill-rule="evenodd" clip-rule="evenodd" d="M15.4374 4.64091C21.4002 4.64091 26.2343 9.47475 26.2343 15.4377C26.2343 21.4005 21.4002 26.2344 15.4374 26.2344C9.47464 26.2344 4.64062 21.4005 4.64062 15.4377C4.64062 9.47475 9.47464 4.64091 15.4374 4.64091Z" fill="#090909"/>
<path fill-rule="evenodd" clip-rule="evenodd" d="M15.4383 8.32066C19.3695 8.32066 22.5563 11.5075 22.5563 15.4387C22.5563 19.3699 19.3695 22.5566 15.4383 22.5566C11.5071 22.5566 8.32031 19.3699 8.32031 15.4387C8.32031 11.5075 11.5071 8.32066 15.4383 8.32066Z" fill="#52B69A"/>
<path fill-rule="evenodd" clip-rule="evenodd" d="M11.3959 9.04086C12.6968 9.04086 13.7515 10.0954 13.7515 11.3965C13.7515 12.6974 12.6968 13.752 11.3959 13.752C10.095 13.752 9.04028 12.6974 9.04028 11.3965C9.04028 10.0954 10.095 9.04086 11.3959 9.04086Z" fill="white"/>
<path fill-rule="evenodd" clip-rule="evenodd" d="M15.4383 12.1041C17.2799 12.1041 18.773 13.597 18.773 15.4389C18.773 17.2805 17.2799 18.7734 15.4383 18.7734C13.5964 18.7734 12.1035 17.2805 12.1035 15.4389C12.1035 13.597 13.5964 12.1041 15.4383 12.1041Z" fill="black"/>
<path d="M133.188 21.0155H128.44V3.79725H133.188V21.0155ZM122.531 12.8704C122.531 12.2875 122.336 11.8306 121.947 11.5C121.559 11.1695 121.073 11.0042 120.494 11.0042C119.911 11.0042 119.435 11.1599 119.061 11.4757C118.691 11.7915 118.448 12.2581 118.337 12.8704H122.531ZM127.376 14.0562C127.376 14.4305 127.352 14.7998 127.303 15.1741H118.312C118.361 15.9176 118.565 16.4715 118.929 16.8312C119.294 17.1957 119.756 17.3804 120.324 17.3804C121.116 17.3804 121.68 17.0255 122.021 16.3112H127.084C126.875 17.2492 126.467 18.085 125.86 18.8188C125.257 19.5575 124.494 20.136 123.571 20.5538C122.647 20.9766 121.632 21.1855 120.519 21.1855C119.177 21.1855 117.982 20.9039 116.942 20.3352C115.897 19.7715 115.085 18.9647 114.492 17.9101C113.905 16.8605 113.608 15.6258 113.608 14.2021C113.608 12.7829 113.9 11.5485 114.483 10.5087C115.061 9.46379 115.878 8.66195 116.918 8.09807C117.957 7.52957 119.158 7.24754 120.519 7.24754C121.86 7.24754 123.046 7.52459 124.081 8.07389C125.116 8.62303 125.923 9.41029 126.501 10.4357C127.084 11.4611 127.376 12.6665 127.376 14.0562ZM107.528 7.29623C109.098 7.29623 110.342 7.81622 111.261 8.86117C112.184 9.90114 112.646 11.3104 112.646 13.0891V21.0155H107.893V13.7209C107.893 12.9434 107.689 12.336 107.285 11.8889C106.882 11.4465 106.343 11.223 105.662 11.223C104.953 11.223 104.394 11.4465 103.99 11.8889C103.587 12.336 103.383 12.9434 103.383 13.7209V21.0155H98.6349V7.41761H103.383V9.35681C103.806 8.74459 104.369 8.24397 105.079 7.8649C105.793 7.48584 106.61 7.29623 107.528 7.29623ZM96.7979 21.0155H92.0448V7.41778H96.7979V21.0155ZM94.4459 6.15905C93.605 6.15905 92.9295 5.92588 92.4191 5.46418C91.9138 5.00729 91.6562 4.42901 91.6562 3.73398C91.6562 3.02438 91.9138 2.43153 92.4191 1.96503C92.9295 1.49373 93.605 1.26039 94.4459 1.26039C95.2671 1.26039 95.9378 1.49373 96.4432 1.96503C96.9534 2.43153 97.2061 3.02438 97.2061 3.73398C97.2061 4.42901 96.9534 5.00729 96.4432 5.46418C95.9378 5.92588 95.2671 6.15905 94.4459 6.15905ZM90.7425 16.9674V21.0155H88.6821C85.2073 21.0155 83.4675 19.2952 83.4675 15.8543V11.3687H81.7958V7.41761H83.4675V3.79725H88.2446V7.41761H90.7182V11.3687H88.2446V15.9226C88.2446 16.2965 88.3273 16.5639 88.4973 16.7244C88.6676 16.8847 88.954 16.9674 89.3576 16.9674H90.7425ZM75.8618 7.29623C77.4315 7.29623 78.6757 7.81622 79.5943 8.86117C80.5175 9.90114 80.9792 11.3104 80.9792 13.0891V21.0155H76.2263V13.7209C76.2263 12.9434 76.0222 12.336 75.6188 11.8889C75.2154 11.4465 74.6759 11.223 73.9956 11.223C73.2862 11.223 72.7273 11.4465 72.3239 11.8889C71.9205 12.336 71.7164 12.9434 71.7164 13.7209V21.0155H66.9683V7.41761H71.7164V9.35681C72.139 8.74459 72.7029 8.24397 73.4172 7.8649C74.1268 7.48584 74.9434 7.29623 75.8618 7.29623ZM61.0588 12.8704C61.0588 12.2875 60.8644 11.8306 60.4756 11.5C60.0869 11.1695 59.6057 11.0042 59.0226 11.0042C58.4393 11.0042 57.9632 11.1599 57.5938 11.4757C57.2195 11.7915 56.9766 12.2581 56.865 12.8704H61.0588ZM65.9042 14.0562C65.9042 14.4305 65.8798 14.7998 65.8311 15.1741H56.8405C56.889 15.9176 57.0933 16.4715 57.4578 16.8312C57.8223 17.1957 58.2886 17.3804 58.8525 17.3804C59.6446 17.3804 60.2083 17.0255 60.5486 16.3112H65.6125C65.4035 17.2492 64.9953 18.085 64.3927 18.8188C63.7853 19.5575 63.0222 20.136 62.099 20.5538C61.1804 20.9766 60.1598 21.1855 59.0468 21.1855C57.7056 21.1855 56.5151 20.9039 55.4701 20.3352C54.43 19.7715 53.6136 18.9647 53.0209 17.9101C52.4327 16.8605 52.1362 15.6258 52.1362 14.2021C52.1362 12.7829 52.4279 11.5485 53.0111 10.5087C53.594 9.46379 54.4058 8.66195 55.4458 8.09807C56.4906 7.52957 57.691 7.24754 59.0468 7.24754C60.3881 7.24754 61.5738 7.52459 62.609 8.07389C63.6444 8.62303 64.451 9.41029 65.0343 10.4357C65.6125 11.4611 65.9042 12.6665 65.9042 14.0562ZM45.2111 21.1855C43.2234 21.1855 41.5904 20.7094 40.3123 19.7667C39.0392 18.8188 38.3491 17.4678 38.2517 15.7086H43.3206C43.3691 16.3063 43.544 16.739 43.8552 17.0159C44.1614 17.2881 44.5548 17.429 45.041 17.429C45.4784 17.429 45.8379 17.3173 46.1199 17.0985C46.4016 16.8799 46.5425 16.5785 46.5425 16.1897C46.5425 15.6891 46.3094 15.3004 45.8427 15.0282C45.3712 14.7513 44.6133 14.4451 43.5635 14.1049C42.4457 13.7356 41.5467 13.376 40.8614 13.026C40.1712 12.6809 39.5735 12.1705 39.0683 11.5C38.5579 10.8295 38.3004 9.95446 38.3004 8.87094C38.3004 7.77267 38.5775 6.82973 39.1266 6.04726C39.6757 5.26497 40.4338 4.67194 41.4059 4.26854C42.3729 3.86033 43.4711 3.66112 44.7007 3.66112C46.6884 3.66112 48.2776 4.12281 49.4634 5.05598C50.6541 5.98417 51.2859 7.28663 51.3683 8.96797H46.2024C46.1878 8.45279 46.0323 8.06412 45.7309 7.80644C45.4345 7.54413 45.0506 7.41761 44.5792 7.41761C44.2245 7.41761 43.933 7.52459 43.7093 7.73358C43.4809 7.94274 43.3691 8.239 43.3691 8.62783C43.3691 8.9534 43.4955 9.23063 43.7432 9.46379C43.9959 9.70193 44.3069 9.90114 44.6764 10.0712C45.0506 10.2413 45.5999 10.4551 46.3238 10.7126C47.4076 11.087 48.3017 11.4513 49.0016 11.816C49.7064 12.1805 50.314 12.6905 50.8192 13.3418C51.3294 13.998 51.5869 14.8243 51.5869 15.8302C51.5869 16.8458 51.3294 17.7594 50.8192 18.5662C50.314 19.3729 49.5752 20.0144 48.6177 20.4809C47.6556 20.9524 46.5184 21.1855 45.2111 21.1855Z" fill="white"/>
<path d="M38.7975 28.525C38.7975 27.9413 38.9278 27.42 39.1885 26.961C39.4548 26.4963 39.8147 26.1365 40.268 25.8815C40.727 25.6208 41.2398 25.4905 41.8065 25.4905C42.4695 25.4905 43.0503 25.6605 43.549 26.0005C44.0477 26.3405 44.3962 26.8108 44.5945 27.4115H43.226C43.09 27.1282 42.8973 26.9157 42.648 26.774C42.4043 26.6323 42.121 26.5615 41.798 26.5615C41.4523 26.5615 41.1435 26.6437 40.8715 26.808C40.6052 26.9667 40.3955 27.1933 40.2425 27.488C40.0952 27.7827 40.0215 28.1283 40.0215 28.525C40.0215 28.916 40.0952 29.2617 40.2425 29.562C40.3955 29.8567 40.6052 30.0862 40.8715 30.2505C41.1435 30.4092 41.4523 30.4885 41.798 30.4885C42.121 30.4885 42.4043 30.4177 42.648 30.276C42.8973 30.1287 43.09 29.9133 43.226 29.63H44.5945C44.3962 30.2363 44.0477 30.7095 43.549 31.0495C43.056 31.3838 42.4752 31.551 41.8065 31.551C41.2398 31.551 40.727 31.4235 40.268 31.1685C39.8147 30.9078 39.4548 30.548 39.1885 30.089C38.9278 29.63 38.7975 29.1087 38.7975 28.525ZM53.3799 31.5595C52.8246 31.5595 52.3146 31.4292 51.8499 31.1685C51.3852 30.9078 51.0169 30.548 50.7449 30.089C50.4729 29.6243 50.3369 29.1002 50.3369 28.5165C50.3369 27.9385 50.4729 27.42 50.7449 26.961C51.0169 26.4963 51.3852 26.1337 51.8499 25.873C52.3146 25.6123 52.8246 25.482 53.3799 25.482C53.9409 25.482 54.4509 25.6123 54.9099 25.873C55.3746 26.1337 55.7401 26.4963 56.0064 26.961C56.2784 27.42 56.4144 27.9385 56.4144 28.5165C56.4144 29.1002 56.2784 29.6243 56.0064 30.089C55.7401 30.548 55.3746 30.9078 54.9099 31.1685C54.4452 31.4292 53.9352 31.5595 53.3799 31.5595ZM53.3799 30.497C53.7369 30.497 54.0514 30.4177 54.3234 30.259C54.5954 30.0947 54.8079 29.8623 54.9609 29.562C55.1139 29.2617 55.1904 28.9132 55.1904 28.5165C55.1904 28.1198 55.1139 27.7742 54.9609 27.4795C54.8079 27.1792 54.5954 26.9497 54.3234 26.791C54.0514 26.6323 53.7369 26.553 53.3799 26.553C53.0229 26.553 52.7056 26.6323 52.4279 26.791C52.1559 26.9497 51.9434 27.1792 51.7904 27.4795C51.6374 27.7742 51.5609 28.1198 51.5609 28.5165C51.5609 28.9132 51.6374 29.2617 51.7904 29.562C51.9434 29.8623 52.1559 30.0947 52.4279 30.259C52.7056 30.4177 53.0229 30.497 53.3799 30.497ZM64.3887 25.567C65.0121 25.567 65.5589 25.6888 66.0292 25.9325C66.5052 26.1762 66.8707 26.5247 67.1257 26.978C67.3864 27.4257 67.5167 27.947 67.5167 28.542C67.5167 29.137 67.3864 29.6583 67.1257 30.106C66.8707 30.548 66.5052 30.8908 66.0292 31.1345C65.5589 31.3782 65.0121 31.5 64.3887 31.5H62.3147V25.567H64.3887ZM64.3462 30.4885C64.9696 30.4885 65.4512 30.3185 65.7912 29.9785C66.1312 29.6385 66.3012 29.1597 66.3012 28.542C66.3012 27.9243 66.1312 27.4427 65.7912 27.097C65.4512 26.7457 64.9696 26.57 64.3462 26.57H63.5047V30.4885H64.3462ZM74.6125 26.5275V28.015H76.61V28.9585H74.6125V30.531H76.865V31.5H73.4225V25.5585H76.865V26.5275H74.6125ZM85.0099 31.5595C84.5963 31.5595 84.2223 31.4887 83.8879 31.347C83.5593 31.2053 83.2986 31.0013 83.1059 30.735C82.9133 30.4687 82.8141 30.1542 82.8084 29.7915H84.0834C84.1004 30.0352 84.1854 30.2278 84.3384 30.3695C84.4971 30.5112 84.7124 30.582 84.9844 30.582C85.2621 30.582 85.4803 30.5168 85.6389 30.3865C85.7976 30.2505 85.8769 30.0748 85.8769 29.8595C85.8769 29.6838 85.8231 29.5393 85.7154 29.426C85.6078 29.3127 85.4718 29.2248 85.3074 29.1625C85.1488 29.0945 84.9278 29.0208 84.6444 28.9415C84.2591 28.8282 83.9446 28.7177 83.7009 28.61C83.4629 28.4967 83.2561 28.3295 83.0804 28.1085C82.9104 27.8818 82.8254 27.5815 82.8254 27.2075C82.8254 26.8562 82.9133 26.5502 83.0889 26.2895C83.2646 26.0288 83.5111 25.8305 83.8284 25.6945C84.1458 25.5528 84.5084 25.482 84.9164 25.482C85.5284 25.482 86.0243 25.6322 86.4039 25.9325C86.7893 26.2272 87.0018 26.6408 87.0414 27.1735H85.7324C85.7211 26.9695 85.6333 26.8023 85.4689 26.672C85.3103 26.536 85.0978 26.468 84.8314 26.468C84.5991 26.468 84.4121 26.5275 84.2704 26.6465C84.1344 26.7655 84.0664 26.9383 84.0664 27.165C84.0664 27.3237 84.1174 27.4568 84.2194 27.5645C84.3271 27.6665 84.4574 27.7515 84.6104 27.8195C84.7691 27.8818 84.9901 27.9555 85.2734 28.0405C85.6588 28.1538 85.9733 28.2672 86.2169 28.3805C86.4606 28.4938 86.6703 28.6638 86.8459 28.8905C87.0216 29.1172 87.1094 29.4147 87.1094 29.783C87.1094 30.1003 87.0273 30.395 86.8629 30.667C86.6986 30.939 86.4578 31.1572 86.1404 31.3215C85.8231 31.4802 85.4463 31.5595 85.0099 31.5595Z" fill="white"/>
</svg>
