<svg width="48" height="48" viewBox="0 0 48 48" fill="none" xmlns="http://www.w3.org/2000/svg">
<g clip-path="url(#clip0_4_1367)">
<rect width="48" height="48" rx="24" fill="#216C58"/>
<path fill-rule="evenodd" clip-rule="evenodd" d="M0 24C0 10.75 10.75 0 24 0C37.25 0 48 10.75 48 24C48 37.25 37.25 48 24 48C10.75 48 0 37.25 0 24ZM1.2 24C1.2 36.59 11.41 46.8 24 46.8C36.59 46.8 46.8 36.59 46.8 24C46.8 11.41 36.59 1.2 24 1.2C11.41 1.2 1.2 11.41 1.2 24ZM43.5196 25.7702C43.5496 25.4502 43.8096 25.2002 44.1296 25.2002C44.4796 25.2002 44.7496 25.5002 44.7196 25.8402C43.7896 36.4602 34.8696 44.8002 23.9996 44.8002C13.1296 44.8002 4.20962 36.4702 3.27962 25.8402C3.24962 25.4902 3.51962 25.2002 3.86962 25.2002C4.18962 25.2002 4.44962 25.4502 4.47962 25.7702C5.36962 35.7602 13.7696 43.6002 23.9996 43.6002C34.2296 43.6002 42.6296 35.7702 43.5196 25.7702ZM3.86962 22.8002C4.18962 22.8002 4.44962 22.5502 4.47962 22.2302C5.36962 12.2402 13.7696 4.4002 23.9996 4.4002C34.2296 4.4002 42.6296 12.2402 43.5196 22.2302C43.5496 22.5502 43.8096 22.8002 44.1296 22.8002C44.4796 22.8002 44.7496 22.5102 44.7196 22.1602C43.7896 11.5302 34.8696 3.2002 23.9996 3.2002C13.1296 3.2002 4.20962 11.5402 3.27962 22.1602C3.24962 22.5002 3.51962 22.8002 3.86962 22.8002ZM17.2004 9.2002H32.4004C32.8422 9.2002 33.2004 9.55837 33.2004 10.0002V10.4002C33.2004 10.842 32.8422 11.2002 32.4004 11.2002H17.2004C16.7586 11.2002 16.4004 10.842 16.4004 10.4002V10.0002C16.4004 9.55837 16.7586 9.2002 17.2004 9.2002ZM24 13.2V12H22V13.37C22.64 13.28 23.3 13.22 24 13.2ZM22 27.2861V32.38C22 32.38 22.03 32.39 22.05 32.4C22.62 32.59 23.27 32.71 24 32.73V27.7345L24.5596 27.86C24.7584 27.8998 24.9319 27.9459 25.1103 27.9932C25.1563 28.0054 25.2025 28.0177 25.2496 28.03V32.72C25.7196 32.67 26.1396 32.58 26.4996 32.45C26.7896 32.34 27.0396 32.23 27.2496 32.1V28.67C27.7496 28.89 28.1496 29.15 28.4296 29.44C28.7796 29.8 28.9396 30.23 28.9396 30.74C28.9396 31.29 28.7496 31.78 28.3696 32.21C27.9896 32.63 27.4596 32.96 26.7796 33.21C26.0996 33.45 25.2996 33.57 24.3796 33.57C23.4596 33.57 22.5996 33.45 21.8496 33.19C21.1196 32.93 20.5196 32.54 20.0796 32.03C19.7896 31.68 19.5896 31.29 19.4596 30.83C19.3496 30.42 19.0096 30.09 18.5996 30.09H14.8896C14.4396 30.09 14.0796 30.47 14.1296 30.9C14.2796 32.2 14.7096 33.31 15.4196 34.24C16.2896 35.35 17.4796 36.2 19.0196 36.76C20.0196 37.13 21.1496 37.37 22.3796 37.5C22.3396 37.496 22.2979 37.4952 22.2559 37.4944C22.1931 37.4932 22.1296 37.492 22.0696 37.48V39.22C22.0696 39.66 22.4296 40.02 22.8696 40.02H23.2696C23.7096 40.02 24.0696 39.66 24.0696 39.22V37.62C24.0146 37.62 23.9621 37.615 23.9096 37.61C23.8571 37.605 23.8046 37.6 23.7496 37.6C23.8696 37.6 23.9871 37.6075 24.1046 37.615C24.2221 37.6225 24.3396 37.63 24.4596 37.63C24.8021 37.63 25.1188 37.6129 25.4416 37.5945C25.4258 37.5961 25.4102 37.5981 25.3946 37.6C25.3546 37.605 25.3146 37.61 25.2696 37.61V39.22C25.2696 39.66 25.6296 40.02 26.0696 40.02H26.4696C26.9096 40.02 27.2696 39.66 27.2696 39.22V37.43C27.2528 37.43 27.2351 37.43 27.217 37.4305C28.174 37.2907 29.0565 37.0855 29.8296 36.78C31.3296 36.21 32.4697 35.42 33.2496 34.39L33.1896 34.37C33.9896 33.33 34.3897 32.12 34.3997 30.71C34.3997 29.75 34.1897 28.91 33.8097 28.17C33.4296 27.43 32.8896 26.78 32.2096 26.24C31.5196 25.7 30.7096 25.24 29.7696 24.86C28.8296 24.49 27.7996 24.19 26.6796 23.96L24.3696 23.47C23.8096 23.36 23.2896 23.22 22.7896 23.07C22.2996 22.9 21.8696 22.71 21.4896 22.5C21.1096 22.27 20.8096 22.01 20.5996 21.71V21.69C20.3996 21.39 20.2996 21.04 20.3196 20.64C20.3196 20.15 20.4796 19.69 20.7996 19.3C21.0896 18.95 21.5096 18.67 22.0396 18.46V21.88C22.3296 22.04 22.6696 22.18 23.0596 22.31C23.3696 22.41 23.6996 22.5 24.0396 22.58V18.09C24.1034 18.09 24.1696 18.0876 24.2371 18.0852C24.3071 18.0826 24.3784 18.08 24.4496 18.08C24.7296 18.08 24.9896 18.1 25.2396 18.12V22.84L26.8696 23.19C26.9296 23.205 26.9921 23.2175 27.0546 23.23C27.1171 23.2425 27.1796 23.255 27.2396 23.27V18.67C27.2798 18.6919 27.32 18.7112 27.3596 18.7302C27.4286 18.7632 27.4961 18.7956 27.5596 18.84C28.1196 19.2 28.4996 19.67 28.6996 20.25C28.8296 20.63 29.1596 20.94 29.5696 20.94H33.2696C33.7296 20.94 34.0896 20.57 34.0196 20.12C33.8797 19.08 33.4896 18.16 32.8496 17.32C32.0496 16.29 30.9296 15.47 29.4996 14.89C28.0696 14.3 26.3996 14.02 24.4896 14.02C22.5796 14.02 20.9296 14.31 19.4596 14.89C17.9796 15.47 16.8196 16.28 15.9696 17.32C15.1296 18.35 14.7196 19.57 14.7196 20.97C14.7196 22.67 15.3396 24.02 16.5996 25.02C17.8596 26.02 19.5696 26.76 21.7496 27.23L22 27.2861ZM27.1992 13.41V12H25.1992V13.21C25.8892 13.24 26.5592 13.3 27.1992 13.41Z" fill="white"/>
</g>
<defs>
<clipPath id="clip0_4_1367">
<rect width="48" height="48" rx="24" fill="white"/>
</clipPath>
</defs>
</svg>
