<?xml version="1.0" encoding="UTF-8"?>
<svg id="Layer_1" data-name="Layer 1" xmlns="http://www.w3.org/2000/svg" viewBox="0 0 428.99 122.47">
  <defs>
    <style>
      .cls-1 {
        fill: #000;
      }

      .cls-1, .cls-2 {
        stroke-width: 0px;
      }

      .cls-2 {
        fill: #f36f21;
      }
    </style>
  </defs>
  <path class="cls-2" d="M87.24,0c-18.26,0-34.05,10.73-41.41,26.22C38.48,10.73,22.67,0,4.41,0H0v29.87c0,23.77,18.21,43.38,41.42,45.61,1.46.14,2.92.21,4.41.21s2.96-.07,4.41-.21c23.21-2.23,41.41-21.84,41.41-45.61V0h-4.41ZM41.42,66.6c-18.33-2.18-32.6-17.83-32.6-36.73V9.08c18.33,2.2,32.6,17.84,32.6,36.74v20.78ZM82.83,29.87c0,18.91-14.26,34.55-32.59,36.73v-20.78c0-18.91,14.25-34.55,32.59-36.74v20.79Z"/>
  <path class="cls-2" d="M91.58,76.57c-11.32,1.89-22.19,7.48-29.64,16.11-7.17,8.16-11.23,18.68-11.23,29.5v.15h-9.75v-.57c-.11-23.01-18.45-41.75-40.88-45.18,18.84-3.33,37.46,8.1,45.81,24.81,5.51-11.08,15.3-20.03,27.27-23.55,6.06-1.84,12.43-2.32,18.42-1.26Z"/>
  <path class="cls-2" d="M139.24,54.62V11.97h-15.46V0h45.98v11.97h-15.38v42.65h-15.14Z"/>
  <path class="cls-2" d="M176.11,31.47V0h15.06v30.13c0,13.08,7.29,12.61,8.96,12.61s8.8.48,8.8-12.61V0h15.06v31.47c0,22.83-16.89,24.02-23.86,24.02s-24.02-1.19-24.02-24.02Z"/>
  <path class="cls-2" d="M249.76,39.32c0,1.74.48,3.33,2.85,3.33h18.95v11.97h-22.04c-10.23-.32-14.75-3.17-14.91-12.53V0h15.14v39.32Z"/>
  <path class="cls-2" d="M278.38,54.62V0h15.14v54.62h-15.14Z"/>
  <path class="cls-2" d="M320.16,35.28v19.34h-15.22V0h24.73c7.45,0,17.84,5.71,17.84,17.28,0,14.98-11.97,18-18.16,18h-9.2ZM326.9,23.23c2.85,0,5.63-2.22,5.63-5.71s-2.69-5.55-5.63-5.55h-6.74v11.26h6.74Z"/>
  <path class="cls-2" d="M384.7,54.62c-1.19-4.92-2.3-9.51-3.57-14.03h-15.93c-1.27,4.52-2.38,9.12-3.57,14.03h-15.22c5.39-18.08,10.47-34.01,20.22-54.62h13.08c9.75,20.61,14.83,36.55,20.22,54.62h-15.22ZM368.37,29.81h9.67c-1.43-4.6-3.01-9.35-4.84-14.67-1.82,5.31-3.41,10.07-4.84,14.67Z"/>
  <path class="cls-1" d="M132.55,66.18c7.37,0,15.06,1.03,19.19,2.22v11.5c-10.31-1.43-12.29-1.19-15.46-1.19-10.46,0-16.49,5.95-16.57,15.54.08,9.59,6.11,15.7,16.57,15.7,3.17,0,5.15.24,15.46-1.19v11.49c-4.12,1.19-11.81,2.22-19.19,2.22-13.79,0-28.07-10.07-28.07-28.07s14.27-28.22,28.07-28.22Z"/>
  <path class="cls-1" d="M194.15,122.47c-1.19-4.91-2.3-9.51-3.57-14.03h-15.94c-1.27,4.52-2.38,9.12-3.57,14.03h-15.22c5.39-18.08,10.46-34.01,20.22-54.62h13.08c9.75,20.61,14.83,36.55,20.22,54.62h-15.22ZM177.82,97.65h9.67c-1.43-4.6-3.01-9.36-4.84-14.67-1.82,5.31-3.41,10.07-4.84,14.67Z"/>
  <path class="cls-1" d="M230.94,103.12v19.34h-15.22v-54.62h24.74c7.45,0,17.84,5.71,17.84,17.28,0,14.98-11.97,18-18.16,18h-9.2ZM237.68,91.07c2.85,0,5.63-2.22,5.63-5.71s-2.69-5.55-5.63-5.55h-6.74v11.26h6.74Z"/>
  <path class="cls-1" d="M266.22,122.47v-54.62h15.14v54.62h-15.14Z"/>
  <path class="cls-1" d="M304.12,122.47v-42.65h-15.46v-11.97h45.98v11.97h-15.38v42.65h-15.14Z"/>
  <path class="cls-1" d="M371.12,122.47c-1.19-4.91-2.3-9.51-3.57-14.03h-15.93c-1.27,4.52-2.38,9.12-3.57,14.03h-15.22c5.39-18.08,10.47-34.01,20.22-54.62h13.08c9.75,20.61,14.83,36.55,20.22,54.62h-15.22ZM354.78,97.65h9.67c-1.43-4.6-3.01-9.36-4.84-14.67-1.82,5.31-3.41,10.07-4.84,14.67Z"/>
  <path class="cls-1" d="M407.19,107.17c0,1.74.48,3.33,2.85,3.33h18.95v11.97h-22.04c-10.23-.32-14.75-3.17-14.91-12.53v-42.1h15.14v39.32Z"/>
</svg>