<svg width="126" height="48" viewBox="0 0 126 48" fill="none" xmlns="http://www.w3.org/2000/svg">
<g clip-path="url(#clip0_64_414)">
<path d="M24 48C20.7607 48 17.6175 47.3652 14.6582 46.1133C11.7998 44.9044 9.2335 43.1746 7.03038 40.9706C4.82633 38.7665 3.0965 36.2002 1.88759 33.3427C0.634797 30.3825 0 27.2393 0 24C0 20.7607 0.634797 17.6175 1.88665 14.6582C3.09557 11.7998 4.82539 9.2335 7.02945 7.03038C9.2335 4.82633 11.7998 3.0965 14.6573 1.88759C17.6175 0.634797 20.7607 0 24 0C27.2393 0 30.3825 0.634797 33.3418 1.88665C36.2002 3.09557 38.7665 4.82539 40.9696 7.02945C43.1737 9.2335 44.9035 11.7998 46.1124 14.6573C47.3643 17.6166 47.9991 20.7597 47.9991 23.9991C47.9991 27.2384 47.3643 30.3816 46.1124 33.3409C44.9035 36.1993 43.1737 38.7656 40.9696 40.9687C38.7656 43.1727 36.1993 44.9026 33.3418 46.1115C30.3825 47.3633 27.2393 47.9981 24 47.9981V48ZM24 2.31328C12.0415 2.31328 2.31328 12.0415 2.31328 24C2.31328 35.9585 12.0415 45.6867 24 45.6867C35.9585 45.6867 45.6867 35.9585 45.6867 24C45.6867 12.0415 35.9575 2.31328 24 2.31328Z" fill="white"/>
<path d="M22.4793 25.6401V25.6382C22.5363 25.542 22.5699 25.43 22.5699 25.3105C22.5699 25.1985 22.5409 25.093 22.4905 25.0015L17.3272 15.2023C17.3272 15.2023 17.3272 15.2023 17.3272 15.2014C17.2189 15.0025 17.007 14.8672 16.7643 14.8672C16.7615 14.8672 16.7578 14.8672 16.755 14.8672H11.0016C11.0016 14.8672 11.0007 14.8672 10.9998 14.8672C10.646 14.8672 10.3594 15.1538 10.3594 15.5076C10.3594 15.6187 10.3874 15.7223 10.4369 15.8128L18.089 30.6363C18.1963 30.8407 18.4101 30.9808 18.6565 30.9808C18.8825 30.9808 19.0794 30.8641 19.1943 30.6876L22.4579 25.6727C22.4616 25.6681 22.4644 25.6625 22.4672 25.6578L22.4793 25.6391V25.6401Z" fill="white"/>
<path d="M25.5202 25.6401V25.6382C25.4633 25.542 25.4297 25.43 25.4297 25.3105C25.4297 25.1985 25.4586 25.093 25.509 25.0015L30.6724 15.2023C30.6724 15.2023 30.6724 15.2023 30.6724 15.2014C30.7807 15.0025 30.9926 14.8672 31.2353 14.8672C31.2381 14.8672 31.2418 14.8672 31.2446 14.8672H36.9979C36.9979 14.8672 36.9989 14.8672 36.9998 14.8672C37.3536 14.8672 37.6402 15.1538 37.6402 15.5076C37.6402 15.6187 37.6122 15.7223 37.5627 15.8128L29.9106 30.6363C29.8033 30.8407 29.5895 30.9808 29.343 30.9808C29.1171 30.9808 28.9201 30.8641 28.8053 30.6876L25.5417 25.6727C25.538 25.6681 25.5352 25.6625 25.5324 25.6578L25.5202 25.6391V25.6401Z" fill="white"/>
<path d="M27.5599 33.0796C27.405 32.3496 27.0446 31.741 26.6386 31.1174C26.3128 30.617 25.8955 29.9719 25.5071 29.3736C25.1533 28.8284 24.9339 28.4783 24.5288 27.8668C24.414 27.696 24.2189 27.584 23.9976 27.584C23.7764 27.584 23.5813 27.696 23.4664 27.8668C22.9857 28.6109 21.2932 31.1556 20.8078 31.9837C20.7667 32.0602 20.7284 32.1377 20.692 32.2152C20.4297 32.7221 20.2812 33.2962 20.2812 33.9067C20.2812 33.9236 20.2822 33.9394 20.2822 33.9562C20.2728 34.3688 20.355 34.7731 20.4988 35.1577C20.9338 36.3647 21.9803 37.2777 23.2648 37.526C23.487 37.5718 23.7138 37.5942 23.9463 37.5932C23.9537 37.5932 23.9603 37.5932 23.9677 37.5932C24.6165 37.5932 25.2261 37.4252 25.7564 37.1302C26.1662 36.9174 26.4939 36.6373 26.8169 36.2518C27.3984 35.5572 27.6645 34.7684 27.6552 33.918C27.6552 33.9142 27.6552 33.9105 27.6552 33.9067C27.6552 33.622 27.6216 33.3457 27.5609 33.0787L27.5599 33.0796Z" fill="white"/>
<path d="M71.5945 19.9899C71.8727 20.2597 72.0127 20.5948 72.0127 20.9953C72.0127 21.2044 71.9427 21.4658 71.8036 21.7785L66.9194 32.5393C66.7971 32.8352 66.6188 33.0704 66.3835 33.2441C66.1483 33.4186 65.8832 33.5139 65.5872 33.5316L65.352 33.5577C65.0561 33.5577 64.7816 33.4663 64.5295 33.2833C64.2766 33.1003 64.0815 32.852 63.9414 32.5393L59.0834 21.7785C58.9611 21.5003 58.9004 21.2212 58.9004 20.943C58.9004 20.5948 59.0479 20.2774 59.3447 19.9899C59.6407 19.7024 60.0066 19.5586 60.4416 19.5586C60.7721 19.5586 61.0774 19.6463 61.3556 19.82C61.6338 19.9946 61.8429 20.2382 61.982 20.5509L65.5863 28.8042L69.1645 20.5771C69.3036 20.2466 69.495 19.9936 69.7396 19.82C69.9832 19.6463 70.253 19.5679 70.5489 19.5847C70.9671 19.5847 71.3153 19.7201 71.5935 19.9899H71.5945Z" fill="white"/>
<path d="M73.4148 17.575C73.1711 17.3836 73.0488 17.0438 73.0488 16.5565V16.0599C73.0488 15.5726 73.1795 15.2328 73.4409 15.0414C73.7023 14.8501 74.1196 14.7539 74.6946 14.7539C75.3042 14.7539 75.7308 14.8501 75.9745 15.0414C76.2181 15.2328 76.3404 15.5726 76.3404 16.0599V16.5565C76.3404 17.0616 76.2135 17.4051 75.9614 17.5881C75.7084 17.7711 75.2781 17.8625 74.6685 17.8625C74.0589 17.8625 73.6584 17.7673 73.4148 17.575ZM75.8177 33.0771C75.5217 33.3824 75.1474 33.5346 74.6946 33.5346C74.2419 33.5346 73.8675 33.3824 73.5716 33.0771C73.2757 32.7728 73.1272 32.3938 73.1272 31.941V21.1542C73.1272 20.7014 73.2747 20.3224 73.5716 20.0181C73.8675 19.7137 74.2419 19.5606 74.6946 19.5606C75.1474 19.5606 75.5217 19.7128 75.8177 20.0181C76.1136 20.3233 76.262 20.7014 76.262 21.1542V31.941C76.262 32.3938 76.1136 32.7728 75.8177 33.0771Z" fill="white"/>
<path d="M87.2528 19.7412C87.6094 20.0372 87.7878 20.3854 87.7878 20.7858C87.7878 21.3254 87.6487 21.7306 87.3695 22.0004C87.0904 22.2702 86.7599 22.4055 86.3772 22.4055C86.1158 22.4055 85.8199 22.3448 85.4894 22.2225C85.4371 22.2057 85.3195 22.1703 85.1365 22.118C84.9536 22.0657 84.7575 22.0396 84.5494 22.0396C84.0966 22.0396 83.6616 22.1796 83.2434 22.4578C82.8251 22.7369 82.4816 23.1589 82.2118 23.7246C81.942 24.2903 81.8067 24.9652 81.8067 25.7485V31.9387C81.8067 32.3914 81.6582 32.7704 81.3623 33.0748C81.0664 33.38 80.692 33.5322 80.2393 33.5322C79.7865 33.5322 79.4122 33.38 79.1162 33.0748C78.8203 32.7704 78.6719 32.3914 78.6719 31.9387V21.1518C78.6719 20.699 78.8194 20.32 79.1162 20.0157C79.4122 19.7114 79.7865 19.5583 80.2393 19.5583C80.692 19.5583 81.0664 19.7104 81.3623 20.0157C81.6582 20.321 81.8067 20.699 81.8067 21.1518V21.4916C82.2071 20.7774 82.7813 20.2341 83.5309 19.8589C84.2796 19.4845 85.0805 19.2969 85.9338 19.2969C86.4565 19.2969 86.8953 19.4453 87.2528 19.7412Z" fill="white"/>
<path d="M97.0037 30.9338C97.2035 31.169 97.3043 31.478 97.3043 31.8608C97.3043 32.3313 97.0476 32.7271 96.5341 33.0491C96.0207 33.3712 95.441 33.5327 94.7968 33.5327C93.7167 33.5327 92.8075 33.3021 92.0672 32.841C91.3269 32.3798 90.9573 31.4005 90.9573 29.9022V22.6936H89.7558C89.3376 22.6936 88.9894 22.5545 88.7112 22.2753C88.4321 21.9971 88.293 21.648 88.293 21.2307C88.293 20.8134 88.4321 20.4951 88.7112 20.2253C88.9894 19.9555 89.3376 19.8202 89.7558 19.8202H90.9573V18.1482C90.9573 17.6955 91.1094 17.3164 91.4147 17.0121C91.719 16.7078 92.098 16.5547 92.5508 16.5547C93.0035 16.5547 93.3517 16.7069 93.6477 17.0121C93.9436 17.3174 94.092 17.6955 94.092 18.1482V19.8202H95.946C96.3642 19.8202 96.7124 19.9602 96.9906 20.2384C97.2688 20.5175 97.4088 20.8648 97.4088 21.283C97.4088 21.7012 97.2688 22.0186 96.9906 22.2884C96.7115 22.5582 96.3633 22.6936 95.946 22.6936H94.092V29.7715C94.092 30.1375 94.1872 30.4026 94.3796 30.5678C94.5709 30.7331 94.8323 30.8162 95.1628 30.8162C95.3019 30.8162 95.4933 30.7816 95.7378 30.7116C95.9469 30.6248 96.1467 30.5809 96.339 30.5809C96.5827 30.5809 96.8049 30.6985 97.0046 30.9338H97.0037Z" fill="white"/>
<path d="M110.289 20.016C110.584 20.3213 110.733 20.6994 110.733 21.1521V27.7867C110.733 29.6668 110.215 31.139 109.179 32.2004C108.142 33.2627 106.666 33.7939 104.752 33.7939C102.837 33.7939 101.365 33.2627 100.338 32.2004C99.3103 31.138 98.7969 29.6668 98.7969 27.7867V21.1521C98.7969 20.6994 98.9444 20.3203 99.2412 20.016C99.5372 19.7117 99.9115 19.5586 100.364 19.5586C100.817 19.5586 101.191 19.7108 101.487 20.016C101.783 20.3213 101.932 20.6994 101.932 21.1521V27.7867C101.932 28.849 102.167 29.6369 102.636 30.1504C103.107 30.6638 103.812 30.9205 104.752 30.9205C105.692 30.9205 106.424 30.6638 106.893 30.1504C107.364 29.6369 107.598 28.849 107.598 27.7867V21.1521C107.598 20.6994 107.746 20.3203 108.043 20.016C108.338 19.7117 108.713 19.5586 109.166 19.5586C109.618 19.5586 109.993 19.7108 110.289 20.016Z" fill="white"/>
<path d="M125.186 27.2374C124.873 27.4988 124.508 27.6295 124.089 27.6295H115.47C115.679 28.6573 116.158 29.462 116.907 30.0455C117.655 30.6289 118.5 30.9202 119.44 30.9202C120.154 30.9202 120.711 30.8549 121.112 30.7242C121.513 30.5935 121.83 30.4544 122.065 30.3059C122.301 30.1584 122.461 30.0576 122.549 30.0053C122.863 29.8485 123.159 29.7701 123.437 29.7701C123.803 29.7701 124.115 29.9008 124.377 30.1622C124.638 30.4236 124.769 30.7279 124.769 31.0761C124.769 31.5466 124.525 31.9732 124.038 32.356C123.551 32.7564 122.897 33.0962 122.079 33.3744C121.261 33.6526 120.434 33.7927 119.598 33.7927C118.135 33.7927 116.86 33.4883 115.772 32.8787C114.683 32.2691 113.843 31.429 113.251 30.3582C112.659 29.2875 112.363 28.0813 112.363 26.7408C112.363 25.2434 112.677 23.929 113.303 22.7967C113.93 21.6652 114.757 20.7989 115.785 20.1977C116.812 19.5975 117.908 19.2969 119.075 19.2969C120.242 19.2969 121.308 19.6105 122.327 20.2369C123.345 20.8633 124.159 21.7082 124.769 22.7705C125.378 23.8329 125.683 24.982 125.683 26.218C125.665 26.6362 125.5 26.9751 125.186 27.2365V27.2374ZM115.496 25.0175H122.339V24.8345C122.269 24.1036 121.912 23.4763 121.268 22.9535C120.624 22.4307 119.892 22.1703 119.074 22.1703C117.054 22.1703 115.862 23.1197 115.496 25.0175Z" fill="white"/>
</g>
<defs>
<clipPath id="clip0_64_414">
<rect width="125.684" height="48" fill="white"/>
</clipPath>
</defs>
</svg>
