<svg width="48" height="48" viewBox="0 0 48 48" fill="none" xmlns="http://www.w3.org/2000/svg">
<path d="M24 48C20.7607 48 17.6175 47.3652 14.6582 46.1133C11.7998 44.9044 9.2335 43.1746 7.03038 40.9706C4.82633 38.7665 3.0965 36.2002 1.88759 33.3427C0.634797 30.3825 0 27.2393 0 24C0 20.7607 0.634797 17.6175 1.88665 14.6582C3.09557 11.7998 4.82539 9.2335 7.02945 7.03038C9.2335 4.82633 11.7998 3.0965 14.6573 1.88759C17.6175 0.634797 20.7607 0 24 0C27.2393 0 30.3825 0.634797 33.3418 1.88665C36.2002 3.09557 38.7665 4.82539 40.9696 7.02945C43.1737 9.2335 44.9035 11.7998 46.1124 14.6573C47.3643 17.6166 47.9991 20.7597 47.9991 23.9991C47.9991 27.2384 47.3643 30.3816 46.1124 33.3409C44.9035 36.1993 43.1737 38.7656 40.9696 40.9687C38.7656 43.1727 36.1993 44.9026 33.3418 46.1115C30.3825 47.3633 27.2393 47.9981 24 47.9981V48ZM24 2.31328C12.0415 2.31328 2.31328 12.0415 2.31328 24C2.31328 35.9585 12.0415 45.6867 24 45.6867C35.9585 45.6867 45.6867 35.9585 45.6867 24C45.6867 12.0415 35.9575 2.31328 24 2.31328Z" fill="white"/>
<path d="M22.4793 25.6401V25.6382C22.5363 25.542 22.5699 25.43 22.5699 25.3105C22.5699 25.1985 22.5409 25.093 22.4905 25.0015L17.3272 15.2023C17.3272 15.2023 17.3272 15.2023 17.3272 15.2014C17.2189 15.0025 17.007 14.8672 16.7643 14.8672C16.7615 14.8672 16.7578 14.8672 16.755 14.8672H11.0016C11.0016 14.8672 11.0007 14.8672 10.9998 14.8672C10.646 14.8672 10.3594 15.1538 10.3594 15.5076C10.3594 15.6187 10.3874 15.7223 10.4369 15.8128L18.089 30.6363C18.1963 30.8407 18.4101 30.9808 18.6565 30.9808C18.8825 30.9808 19.0794 30.8641 19.1943 30.6876L22.4579 25.6727C22.4616 25.6681 22.4644 25.6625 22.4672 25.6578L22.4793 25.6391V25.6401Z" fill="white"/>
<path d="M25.5202 25.6401V25.6382C25.4633 25.542 25.4297 25.43 25.4297 25.3105C25.4297 25.1985 25.4586 25.093 25.509 25.0015L30.6724 15.2023C30.6724 15.2023 30.6724 15.2023 30.6724 15.2014C30.7807 15.0025 30.9926 14.8672 31.2353 14.8672C31.2381 14.8672 31.2418 14.8672 31.2446 14.8672H36.9979C36.9979 14.8672 36.9989 14.8672 36.9998 14.8672C37.3536 14.8672 37.6402 15.1538 37.6402 15.5076C37.6402 15.6187 37.6122 15.7223 37.5627 15.8128L29.9106 30.6363C29.8033 30.8407 29.5895 30.9808 29.343 30.9808C29.1171 30.9808 28.9201 30.8641 28.8053 30.6876L25.5417 25.6727C25.538 25.6681 25.5352 25.6625 25.5324 25.6578L25.5202 25.6391V25.6401Z" fill="white"/>
<path d="M27.5599 33.0796C27.405 32.3496 27.0446 31.741 26.6386 31.1174C26.3128 30.617 25.8955 29.9719 25.5071 29.3736C25.1533 28.8284 24.9339 28.4783 24.5288 27.8668C24.414 27.696 24.2189 27.584 23.9976 27.584C23.7764 27.584 23.5813 27.696 23.4664 27.8668C22.9857 28.6109 21.2932 31.1556 20.8078 31.9837C20.7667 32.0602 20.7284 32.1377 20.692 32.2152C20.4297 32.7221 20.2812 33.2962 20.2812 33.9067C20.2812 33.9236 20.2822 33.9394 20.2822 33.9562C20.2728 34.3688 20.355 34.7731 20.4988 35.1577C20.9338 36.3647 21.9803 37.2777 23.2648 37.526C23.487 37.5718 23.7138 37.5942 23.9463 37.5932C23.9537 37.5932 23.9603 37.5932 23.9677 37.5932C24.6165 37.5932 25.2261 37.4252 25.7564 37.1302C26.1662 36.9174 26.4939 36.6373 26.8169 36.2518C27.3984 35.5572 27.6645 34.7684 27.6552 33.918C27.6552 33.9142 27.6552 33.9105 27.6552 33.9067C27.6552 33.622 27.6216 33.3457 27.5609 33.0787L27.5599 33.0796Z" fill="white"/>
</svg>
