<svg width="48" height="48" viewBox="0 0 48 48" fill="none" xmlns="http://www.w3.org/2000/svg">
<rect width="48" height="48" rx="4" fill="#25E5C2"/>
<path d="M11.0283 20.2323C10.886 16.5979 12.637 13.1943 16.1276 10.8403C18.9695 8.92377 23.3902 8.63068 26.636 9.3813C29.8817 10.1319 32.7351 12.0539 34.674 15.0761C36.6129 18.0982 37.2611 22.1737 36.8713 25.8745C36.4815 29.5753 35.5053 32.769 32.6685 35.5108C30.1554 37.9398 26.6121 39.1143 23.3003 38.9912C19.9884 38.8682 16.3932 38.086 14.0282 35.4757C11.1827 31.7783 11.2154 28.2153 11.2407 25.4686C11.243 25.2187 11.2452 24.9756 11.2452 24.7397H12.2516C12.1599 28.1616 12.5469 32.1042 14.7281 34.5115C16.9092 36.9188 20.28 37.7216 23.3343 37.8351C26.3886 37.9486 29.5986 36.9293 31.9163 34.6892C34.234 32.4491 35.4904 29.1515 35.8499 25.7384C36.2095 22.3254 35.6329 18.6543 33.8447 15.8672C32.0566 13.0801 29.3374 11.2217 26.3441 10.5294C23.3507 9.83719 19.6825 9.92913 17.0617 11.6966C13.4909 14.1047 12.3329 16.5615 12.0409 20.2323L11.0283 20.2323Z" fill="#0F2830"/>
<path d="M11.0283 20.2323C10.886 16.5979 12.637 13.1943 16.1276 10.8403C18.9695 8.92377 23.3902 8.63068 26.636 9.3813C29.8817 10.1319 32.7351 12.0539 34.674 15.0761C36.6129 18.0982 37.2611 22.1737 36.8713 25.8745C36.4815 29.5753 35.5053 32.769 32.6685 35.5108C30.1554 37.9398 26.6121 39.1143 23.3003 38.9912C19.9884 38.8682 16.3932 38.086 14.0282 35.4757C11.1827 31.7783 11.2154 28.2153 11.2407 25.4686C11.243 25.2187 11.2452 24.9756 11.2452 24.7397H12.2516C12.1599 28.1616 12.5469 32.1042 14.7281 34.5115C16.9092 36.9188 20.28 37.7216 23.3343 37.8351C26.3886 37.9486 29.5986 36.9293 31.9163 34.6892C34.234 32.4491 35.4904 29.1515 35.8499 25.7384C36.2095 22.3254 35.6329 18.6543 33.8447 15.8672C32.0566 13.0801 29.3374 11.2217 26.3441 10.5294C23.3507 9.83719 19.6825 9.92913 17.0617 11.6966C13.4909 14.1047 12.3329 16.5615 12.0409 20.2323L11.0283 20.2323Z" stroke="#0F2830"/>
<path d="M24.4339 25.9427H11.2742L11.2549 24.7383H24.4339V25.9427Z" fill="#0F2830"/>
<path d="M24.4339 25.9427H11.2742L11.2549 24.7383H24.4339V25.9427Z" stroke="#0F2830"/>
<circle cx="23.2336" cy="25.34" r="2.63298" fill="#0F2830"/>
</svg>
