<svg width="189" height="28" viewBox="0 0 189 28" fill="none" xmlns="http://www.w3.org/2000/svg">
<path d="M165.391 14.7368H165.241V14.8862V16.8246C165.241 20.139 166.186 22.8329 168.023 24.6985C169.86 26.5645 172.569 27.5824 176.06 27.5824C179.744 27.5824 182.771 26.2457 184.875 23.8982C186.978 21.5524 188.149 18.2101 188.149 14.2165C188.149 10.2229 186.978 6.88046 184.862 4.53452C182.745 2.18694 179.693 0.850661 175.96 0.850661C172.228 0.850661 169.512 2.09718 167.716 3.9808C165.922 5.86222 165.058 8.36696 165.007 10.8653L165.004 11.0177H165.157H168.401H168.542L168.55 10.8769C168.649 9.15815 169.221 7.47652 170.401 6.22613C171.579 4.97856 173.377 4.14509 175.96 4.14509C178.595 4.14509 180.752 5.12884 182.251 6.87085C183.753 8.61516 184.606 11.1329 184.606 14.2165C184.606 17.3002 183.753 19.8179 182.251 21.5622C180.752 23.3042 178.595 24.288 175.96 24.288C173.396 24.288 171.633 23.561 170.501 22.4139C169.402 21.2987 168.881 19.7679 168.822 18.0665H177.465H177.614V17.9172V14.8862V14.7368H177.465H165.391ZM17.0095 1.01518H16.95L16.9068 1.05614L4.52346 12.7951V1.16452V1.01518H4.37412H1H0.850661V1.16452V26.5296V26.6789H1H4.37412H4.52346V26.5296V17.6288L7.78378 14.5955L17.2259 26.6218L17.2708 26.6789H17.3434H21.1041H21.2535V26.5296V25.825V25.7728L21.2209 25.7319L10.3939 12.1534L21.3114 1.97836L21.3589 1.93407V1.86911V1.16452V1.01518H21.2096H17.0095ZM31.4012 26.5296V26.6789H31.5505H47.7533H47.9026V26.5296V23.4999V23.3505H47.7533H35.074V14.9828H46.3474H46.4968V14.8335V11.8038V11.6544H46.3474H35.074V4.34358H47.5776H47.7269V4.19424V1.16452V1.01518H47.5776H31.5505H31.4012V1.16452V26.5296ZM57.9443 1.86911V1.90548L57.9611 1.93778L66.3255 18.0919L62.3196 25.7558L62.3026 25.7883V25.825V26.5296V26.6789H62.4519H65.8436H65.9344L65.9762 26.5983L78.7522 1.93781L78.7689 1.9055V1.86911V1.16452V1.01518H78.6196H75.14H75.0476L75.0064 1.09786L68.5042 14.1327C68.4748 14.1915 68.4557 14.2068 68.4466 14.2123C68.4371 14.218 68.4168 14.2262 68.3566 14.2262C68.2964 14.2262 68.2761 14.218 68.2666 14.2123C68.2575 14.2068 68.2384 14.1915 68.2091 14.1327L61.7069 1.09786L61.6656 1.01518H61.5733H58.0937H57.9443V1.16452V1.86911ZM100.477 15.8413C102.152 15.4756 103.55 14.704 104.539 13.5195C105.564 12.2914 106.138 10.6324 106.138 8.55437C106.138 6.05586 105.304 4.16443 103.861 2.89968C102.421 1.63751 100.393 1.01518 98.0332 1.01518H88.1402H87.9909V1.16452V4.19084V12.9179V26.5012V26.6505H88.1402H91.4997H91.649V26.5012V21.1608V16.0936H96.7935L101.303 26.5603L101.342 26.6505H101.44H104.813H104.962V26.5012V25.7974V25.7652L104.949 25.7359L100.477 15.8413ZM117.971 1.01518H117.822V1.16452V26.5296V26.6789H117.971H121.345H121.495V26.5296V1.16452V1.01518H121.345H117.971ZM134.819 26.5296V26.6789H134.969H138.343H138.492V26.5296V4.79314C138.492 4.72086 138.507 4.69085 138.516 4.6806C138.519 4.67632 138.532 4.66065 138.589 4.66065C138.671 4.66065 138.71 4.66982 138.733 4.68236C138.75 4.69164 138.775 4.71124 138.801 4.77638C138.801 4.77693 138.801 4.77748 138.802 4.77803L146.884 26.5815L146.92 26.6789H147.024H153.175H153.324V26.5296V1.16452V1.01518H153.175H149.801H149.652V1.16452V22.901C149.652 22.9732 149.636 23.0033 149.628 23.0135C149.625 23.0178 149.612 23.0335 149.555 23.0335C149.473 23.0335 149.434 23.0243 149.41 23.0118C149.393 23.0025 149.369 22.9829 149.343 22.9177C149.342 22.9172 149.342 22.9166 149.342 22.9161L141.26 1.11262L141.223 1.01518H141.119H134.969H134.819V1.16452V26.5296ZM97.6873 12.7686H91.649V4.34018H97.6873C99.2717 4.34018 100.476 4.65456 101.282 5.32611C102.083 5.99302 102.519 7.03508 102.519 8.55437C102.519 10.0737 102.083 11.1157 101.282 11.7826C100.476 12.4542 99.2717 12.7686 97.6873 12.7686Z" fill="currentColor" stroke="currentColor" stroke-width="0.298679"/>
</svg>
