<svg width="32" height="32" viewBox="0 0 32 32" fill="none" xmlns="http://www.w3.org/2000/svg">
<path d="M15.6713 23.0368L15.5776 22.9902L13.4458 25.1331L22.8865 29.3023V26.2744L15.6713 23.0368Z" fill="#14140F"/>
<path d="M6.1142 12.4622L6.13763 8.29297L0 14.8846L6.25476 17.6796V16.515L9.01903 13.6967L6.1142 12.4622Z" fill="#14140F"/>
<path d="M18.7174 5.26395L23.918 7.45338V0L18.7174 5.26395Z" fill="#14140F"/>
<path d="M22.7701 25.1315L32 15.279L23.8946 11.6455L23.8477 19.9374L15.7657 16.5368L12.1815 20.3799L22.7701 25.1315Z" fill="#14140F"/>
<path d="M22.864 18.4456L22.9343 8.10399L7.16856 1.46582L7.1217 11.8074L9.76885 12.9254L16.0939 6.49685V6.54344L16.1407 6.49685V15.604L22.864 18.4456Z" fill="#14140F"/>
<path d="M14.595 22.5476L10.4955 20.7075L15.1338 15.7464V8.92188L15.087 8.96846V8.92188L7.23926 16.911V30.001L14.595 22.5476Z" fill="#14140F"/>
</svg>
