<svg width="180" height="57" viewBox="0 0 180 57" fill="none" xmlns="http://www.w3.org/2000/svg">
<g clip-path="url(#clip0_8531_6685)">
<path d="M58.7753 17.293V24.2553C59.7943 23.0474 61.3266 22.2821 63.2307 22.2821C66.801 22.2821 69.7911 25.2756 69.7688 29.1394C69.7465 33.0032 66.7713 35.9442 63.2084 35.9442C61.3043 35.9442 59.7943 35.1564 58.7828 33.896V35.6816H55.3984V17.293H58.7828H58.7753ZM62.6283 33.2283C64.8448 33.2283 66.4812 31.2851 66.4812 29.1319C66.4812 26.9787 64.8374 25.0055 62.6283 25.0055C60.4191 25.0055 58.7976 26.9487 58.7976 29.1319C58.7679 31.3151 60.4117 33.2283 62.6283 33.2283Z" fill="#702963"/>
<path d="M74.5747 22.5449L78.3458 30.325L81.4772 22.5449H86.0368L71.5548 51.9997L77.1408 35.6518L70.2383 22.5449H74.5672H74.5747Z" fill="#702963"/>
<path d="M87.5469 35.6743V32.9434L94.8883 25.2758H87.5469V22.5449H99.2619V25.2758L91.9205 32.9434H99.2619V35.6743H87.5469Z" fill="#702963"/>
<path d="M99.9883 29.1317C99.9883 25.2679 102.956 22.2744 106.526 22.2744C108.431 22.2744 109.963 23.0397 110.982 24.2476V22.537H114.366V35.6664H110.982V33.9033C109.94 35.1412 108.431 35.929 106.578 35.929C103.008 35.929 99.9883 32.988 99.9883 29.1242V29.1317ZM103.298 29.1317C103.298 31.3149 104.912 33.2281 107.129 33.2281C109.345 33.2281 110.982 31.2849 110.982 29.1317C110.982 26.9785 109.338 25.0053 107.129 25.0053C104.92 25.0053 103.298 26.9485 103.298 29.1317Z" fill="#702963"/>
<path d="M117.434 35.6742V22.5449H120.818V24.2254C121.733 23.1 123.087 22.2598 125.013 22.2598C128.583 22.2598 130.844 24.5705 130.844 28.6144V35.6817H127.46V28.8545C127.46 26.6187 126.285 25.1782 124.306 25.1782C122.142 25.1782 120.818 26.9113 120.818 29.042V35.6892H117.434V35.6742Z" fill="#702963"/>
<path d="M132.332 25.2758V22.5449H134.206V19.2588H137.591V22.5449H140.767V25.2758H137.591V31.1878C137.591 32.6357 137.955 33.266 139.078 33.266C139.547 33.266 140.12 33.1609 140.692 33.0034L141.347 35.4717C140.41 35.8393 139.316 35.9444 138.431 35.9444C135.255 35.9444 134.214 34.1062 134.214 31.2178V25.2833H132.339L132.332 25.2758Z" fill="#702963"/>
<path d="M143.598 18.8912C143.598 17.9459 144.483 17.1807 145.628 17.1807C146.692 17.1807 147.637 17.9684 147.637 18.8912C147.637 19.814 146.722 20.5943 145.628 20.5943C144.483 20.5718 143.598 19.829 143.598 18.8912ZM143.932 35.6743V22.545H147.317V35.6743H143.932Z" fill="#702963"/>
<path d="M150.785 35.6742V22.5449H154.169V24.2254C155.084 23.1 156.438 22.2598 158.365 22.2598C161.935 22.2598 164.196 24.5705 164.196 28.6144V35.6817H160.812V28.8545C160.812 26.6187 159.636 25.1782 157.658 25.1782C155.493 25.1782 154.169 26.9113 154.169 29.042V35.6892H150.785V35.6742Z" fill="#702963"/>
<path d="M173.278 22.2526C177.756 22.2526 180.18 25.4862 179.995 29.7101H169.789C169.998 31.8633 171.56 33.3338 173.516 33.3338C175.048 33.3338 176.328 32.7036 177.161 31.3907L179.325 32.8086C178.306 34.5642 176.223 35.9597 173.285 35.9597C169.276 35.9597 166.383 32.9362 166.383 29.1024C166.383 25.2686 169.061 22.2451 173.285 22.2451L173.278 22.2526ZM176.848 27.6094C176.766 26.0039 175.338 24.7735 173.516 24.7735C171.694 24.7735 170.34 25.8238 169.923 27.6094H176.848Z" fill="#702963"/>
<path d="M19.4375 16.1112L28.1698 5L21.6466 21.0929L19.4375 16.1112Z" fill="#EDE1E8"/>
<path d="M27.409 15.7886L28.1677 5L21.6445 21.0929L27.409 15.7886Z" fill="#A07A9C"/>
<path d="M30.4438 20.7707L27.409 15.7891L21.6445 21.0933L30.4438 20.7707Z" fill="#CCB5C8"/>
<path d="M27.0892 23.3214L21.6445 21.0931L30.4438 20.7705L27.0892 23.3214Z" fill="#926A90"/>
<path d="M27.492 14.6406L32.6019 17.8967L35.8301 23.321L30.4449 20.7702L27.4102 15.7885L27.492 14.6406Z" fill="#926A90"/>
<path d="M32.7286 14.6406L31.8583 17.4241L27.4922 14.6406H32.7286Z" fill="#7A4477"/>
<path d="M27.7005 11.707L29.4633 12.7424L32.7286 14.6405H27.4922L27.7005 11.707Z" fill="#AE8DAA"/>
<path d="M32.0951 7.42285L27.6992 11.7068L29.462 12.7421L32.0951 7.42285Z" fill="#EDE1E8"/>
<path d="M30.9857 13.6274L32.094 7.42285L29.4609 12.7421L30.9857 13.6274Z" fill="#A07A9C"/>
<path d="M32.5993 17.8967L32.7257 14.6406L31.8555 17.4241L32.5993 17.8967Z" fill="#CCB5C8"/>
<path d="M35.8305 23.3214L32.7288 24.1541L30.4453 20.7705L35.8305 23.3214Z" fill="#865785"/>
<path d="M43.6085 32.6469L32.7266 24.1541L35.8282 23.3213L43.6085 32.6469Z" fill="#926A90"/>
<path d="M27.0898 23.3214L28.6147 24.4767L32.7279 24.1541L30.4444 20.7705L27.0898 23.3214Z" fill="#7A4477"/>
<path d="M43.6085 32.6471L36.1406 34.6278L28.6133 24.4769L32.7265 24.1543L43.6085 32.6471Z" fill="#CCB5C8"/>
<path d="M35.2578 37.5004L36.1429 34.627L40.5091 36.0599L35.2578 37.5004Z" fill="#CCB5C8"/>
<path d="M43.6085 32.6465L40.5068 36.0601L36.1406 34.6271L43.6085 32.6465Z" fill="#DECBD7"/>
<path d="M42.412 39.3462L44.9409 36.7353L43.6095 32.6465L40.5078 36.0601L42.412 39.3462Z" fill="#865785"/>
<path d="M35.2578 37.5011L36.7082 37.1035L39.1182 40.2471V41.455L35.2578 37.5011Z" fill="#7A4477"/>
<path d="M44.9391 36.7354L43.1019 41.1393L42.4102 39.3462L44.9391 36.7354Z" fill="#7A4477"/>
<path d="M36.707 37.1034L40.5079 36.0605L42.412 39.3466L39.117 40.2469L36.707 37.1034Z" fill="#926A90"/>
<path d="M43.104 41.1398L42.4123 39.3467L39.1172 40.247V41.4549L43.104 41.1398Z" fill="#865785"/>
<path d="M27.0877 23.3213L22.6992 26.8325L35.2547 37.501L36.1398 34.6276L28.6125 24.4767L27.0877 23.3213Z" fill="#926A90"/>
<path d="M21.6445 21.0928V26.6446L22.7007 26.8322L27.0892 23.321L21.6445 21.0928Z" fill="#DECBD7"/>
<path d="M35.2547 37.5006L23.1678 33.6668L22.6992 26.832L35.2547 37.5006Z" fill="#865785"/>
<path d="M21.6445 26.6445L23.1693 33.6669L22.7007 26.8321L21.6445 26.6445Z" fill="#CCB5C8"/>
<path d="M19.436 16.1113L18.8633 20.4478L21.6451 21.093L19.436 16.1113Z" fill="#CCB5C8"/>
<path d="M20.7819 14.3934L10.6289 14.8961L12.9422 12.8779L20.7819 14.3934Z" fill="#DECBD7"/>
<path d="M21.6453 26.6445L23.1701 33.6669L24.1147 44.6505L20.5742 47.2014L21.6453 26.6445Z" fill="#7A4477"/>
<path d="M21.6451 21.0928L14.0508 47.9067L20.574 47.2015L21.6451 26.6446V21.0928Z" fill="#865785"/>
<path d="M21.6435 21.0928L9.75 43.6303L14.0492 47.9067L21.6435 21.0928Z" fill="#AE8DAA"/>
<path d="M18.8642 20.4473L6.07812 43.3749L9.75254 43.63L21.646 21.0925L18.8642 20.4473Z" fill="#865785"/>
<path d="M18.8644 20.4473L3.67578 39.9238L6.07828 43.3749L18.8644 20.4473Z" fill="#DECBD7"/>
<path d="M0 37.501L3.67441 39.9243L18.863 20.4478L18.982 19.5625L0 37.501Z" fill="#865785"/>
<path d="M2.343 30.9207L0 37.5004L18.982 19.5619L19.1308 18.4365L2.343 30.9207Z" fill="#DECBD7"/>
<path d="M19.2214 17.7168L0.960938 28.5879L2.34442 30.9212L19.1322 18.437L19.2214 17.7168Z" fill="#865785"/>
<path d="M19.3552 16.7109L3.04352 24.476L2.43359 27.7171L19.2214 17.7163L19.3552 16.7109Z" fill="#DECBD7"/>
<path d="M0.960938 28.5879L3.0436 24.4766L2.43368 27.7176L0.960938 28.5879Z" fill="#DECBD7"/>
<path d="M19.4349 16.1113L4.87109 20.9054L5.00498 23.5388L19.3531 16.7115L19.4349 16.1113Z" fill="#865785"/>
<path d="M19.7621 15.6914L6.74549 17.8896L4.87109 20.9056L19.4349 16.1115L19.7621 15.6914Z" fill="#DECBD7"/>
<path d="M20.783 14.3936L10.6301 14.8962L9.56641 17.4096L19.764 15.6915L20.783 14.3936Z" fill="#926A90"/>
</g>
<defs>
<clipPath id="clip0_8531_6685">
<rect width="180" height="57" fill="white"/>
</clipPath>
</defs>
</svg>
