<svg width="1282" height="362" viewBox="0 0 1282 362" fill="none" xmlns="http://www.w3.org/2000/svg">
<path fill-rule="evenodd" clip-rule="evenodd" d="M3 0C1.34315 0 0 1.34315 0 3.00001V80H29.7677V177.155L126.923 80H167.145L81.623 162.971L168.844 278.276H130.605L59.9954 183.954L29.7677 213.28V278.276H0V359C0 360.657 1.34315 362 3.00001 362H359C360.657 362 362 360.657 362 359V3C362 1.34315 360.657 0 359 0H3ZM190.641 271.478C201.027 277.898 213.207 281.109 227.181 281.109C240.021 281.109 251.635 278.182 262.021 272.328C272.406 266.474 280.621 258.543 286.663 248.535C292.895 238.338 296.011 226.819 296.011 213.978C296.011 205.48 294.406 197.549 291.195 190.185C288.174 182.631 283.925 176.117 278.449 170.64C273.162 164.975 266.836 160.632 259.471 157.611C252.406 154.45 244.792 152.845 236.628 152.797L292.045 91.3301L286.38 80H193.156L163.158 108.325H243.288L190.075 166.958L198.572 189.335C203.293 187.447 207.636 185.936 211.602 184.803C215.567 183.481 219.25 182.537 222.649 181.971C226.236 181.215 229.635 180.838 232.846 180.838C239.832 180.838 245.875 182.254 250.974 185.086C256.072 187.73 259.943 191.696 262.587 196.983C265.231 202.081 266.553 208.313 266.553 215.677C266.553 223.042 264.853 229.651 261.454 235.505C258.055 241.359 253.523 245.985 247.858 249.384C242.193 252.595 236.056 254.2 229.447 254.2C223.97 254.2 218.777 253.161 213.868 251.084C208.958 249.007 204.143 245.797 199.422 241.453C194.89 236.921 190.263 231.162 185.543 224.175L161.75 239.187C170.814 254.294 180.444 265.058 190.641 271.478Z" fill="white"/>
<path d="M1259.91 247.706C1259.91 257.828 1264.56 263.572 1272.76 263.572H1281.52V275.335H1207.39V263.572H1216.14C1224.35 263.572 1229 257.828 1229 247.706V105.731C1229 87.403 1226.26 86.0353 1205.47 87.6766V75.9137C1228.18 73.7253 1236.11 71.2633 1245.14 65.2451H1259.91V247.706Z" fill="white"/>
<path d="M1130.67 134.181C1161.86 134.181 1182.92 149.773 1182.92 179.317V250.168C1182.92 258.648 1186.2 263.298 1191.95 263.298C1195.5 263.298 1198.79 262.751 1204.53 260.289L1206.99 272.326C1189.76 278.344 1183.47 279.165 1175.26 279.165C1160.49 279.165 1153.1 270.137 1152.01 256.186C1141.07 270.684 1125.47 279.438 1107.15 279.438C1082.8 279.438 1067.21 265.213 1067.21 239.773C1067.21 206.126 1107.15 189.439 1152.01 189.165V179.044C1152.01 158.801 1142.43 148.679 1126.02 148.679C1106.05 148.679 1095.38 159.895 1086.9 177.676H1075.14L1077.88 146.217C1094.84 138.01 1113.71 134.181 1130.67 134.181ZM1101.68 235.396C1101.68 249.894 1109.61 258.648 1121.1 258.648C1133.95 258.648 1144.62 250.715 1152.01 236.49V202.296C1121.37 202.569 1101.68 211.597 1101.68 235.396Z" fill="white"/>
<path d="M968.563 138.01C992.636 138.01 997.287 128.983 1005.22 100.807H1018.9V136.916H1055.83V150.32H1018.9V234.028C1018.9 256.186 1027.1 263.572 1041.6 263.572C1047.62 263.572 1055.55 261.93 1063.49 258.921L1065.95 270.958C1049.26 277.796 1038.59 279.164 1028.75 279.164C1001.94 279.164 987.986 262.751 987.986 238.131V150.32H968.563V138.01Z" fill="white"/>
<path d="M946.709 247.706C946.709 257.828 951.359 263.573 959.566 263.573H968.32V275.335H894.186V263.573H902.94C911.147 263.573 915.797 257.828 915.797 247.706V177.403C915.797 159.075 913.062 157.707 892.271 159.348V147.585C914.977 145.397 922.91 142.935 931.937 136.917H946.709V247.706ZM911.147 95.063V92.8746C911.147 81.9324 917.439 75.6406 928.654 75.6406H930.843C941.785 75.6406 948.077 81.9324 948.077 92.8746V95.063C948.077 106.279 941.785 112.57 930.843 112.57H928.654C917.439 112.57 911.147 106.279 911.147 95.063Z" fill="white"/>
<path d="M790.216 318.556C790.216 328.678 796.234 334.423 806.903 334.423H815.383V346.185H737.694V334.423H746.447C754.654 334.423 759.305 328.678 759.305 318.556V177.402C759.305 159.074 756.569 157.706 735.779 159.348V147.585C758.484 145.396 766.417 142.934 775.444 136.916H790.216V158.253C801.979 143.208 817.572 134.181 835.9 134.181C868.179 134.181 888.422 160.168 888.422 206.673C888.422 251.262 866.811 279.438 831.523 279.438C814.289 279.438 800.064 272.326 790.216 259.742V318.556ZM790.216 235.943C795.14 252.356 805.262 261.11 819.213 261.11C839.182 261.11 853.681 244.697 853.681 208.588C853.681 171.931 841.097 154.15 823.863 154.15C810.459 154.15 798.696 162.083 790.216 177.129V235.943Z" fill="white"/>
<path d="M660.981 134.181C692.166 134.181 713.23 149.773 713.23 179.317V250.168C713.23 258.648 716.513 263.298 722.257 263.298C725.814 263.298 729.096 262.751 734.841 260.289L737.303 272.326C720.069 278.344 713.777 279.165 705.571 279.165C690.799 279.165 683.413 270.137 682.318 256.186C671.376 270.684 655.784 279.438 637.456 279.438C613.109 279.438 597.517 265.213 597.517 239.773C597.517 206.126 637.456 189.439 682.318 189.165V179.044C682.318 158.801 672.744 148.679 656.331 148.679C636.361 148.679 625.693 159.895 617.213 177.676H605.45L608.185 146.217C625.146 138.01 644.021 134.181 660.981 134.181ZM631.984 235.396C631.984 249.894 639.918 258.648 651.407 258.648C664.264 258.648 674.933 250.715 682.318 236.49V202.296C651.68 202.569 631.984 211.597 631.984 235.396Z" fill="white"/>
<path d="M426 179.317C426 120.776 467.307 79.7432 525.3 79.7432C546.364 79.7432 568.522 85.4878 586.303 94.2415L592.048 142.934H578.096C574.54 135.001 571.805 126.795 567.975 119.135C559.495 101.901 544.176 97.2507 528.857 97.2507C488.097 97.2507 463.751 130.624 463.751 179.317C463.751 228.283 488.097 261.657 528.857 261.657C544.176 261.657 559.495 257.007 567.975 239.773C571.805 232.113 574.54 223.906 578.096 215.973H592.048L586.303 264.666C568.522 273.42 546.364 279.164 525.3 279.164C467.307 279.164 426 237.858 426 179.317Z" fill="white"/>
</svg>
