<?xml version="1.0" encoding="utf-8"?>
<svg xmlns="http://www.w3.org/2000/svg" fill="none" height="465" viewBox="0 0 465 465" width="465">
<path d="M332.5 365.02C351.554 365.02 367 380.466 367 399.52C367 418.573 351.554 434.02 332.5 434.02C313.446 434.02 298 418.573 298 399.52C298 380.466 313.446 365.02 332.5 365.02Z" fill="black"/>
<path d="M397.5 298.02C416.554 298.02 432 313.466 432 332.52C432 351.573 416.554 367.02 397.5 367.02C389.152 367.02 381.497 364.055 375.531 359.121C365.655 350.954 355.082 341.02 342.266 341.02H328.794C313.795 341.02 301.983 354.546 291.008 364.77C284.848 370.509 276.584 374.02 267.5 374.02C248.446 374.02 233 358.573 233 339.52C233 320.466 248.446 305.02 267.5 305.02C275.972 305.02 283.73 308.073 289.734 313.14C299.767 321.607 310.523 332.02 323.652 332.02H335.402C350.711 332.02 362.696 317.928 373.83 307.422C380.007 301.593 388.336 298.02 397.5 298.02Z" fill="black"/>
<path d="M166.507 381.69C176.034 398.191 170.38 419.291 153.879 428.818C137.378 438.345 116.278 432.691 106.751 416.19C97.224 399.689 102.878 378.589 119.379 369.062C135.88 359.535 156.98 365.189 166.507 381.69Z" fill="black"/>
<path d="M257.03 404.482C266.557 420.983 260.904 442.083 244.403 451.61C227.901 461.136 206.802 455.483 197.275 438.982C193.101 431.752 191.841 423.641 193.131 416.006C195.265 403.37 198.582 389.246 192.175 378.148L185.438 366.48C177.939 353.491 160.318 350.025 145.977 345.632C137.927 343.166 130.755 337.765 126.212 329.898C116.686 313.397 122.339 292.297 138.84 282.77C155.341 273.244 176.441 278.897 185.968 295.398C190.204 302.735 191.438 310.98 190.053 318.713C187.737 331.636 184.097 346.158 190.662 357.527L196.536 367.703C204.191 380.961 222.387 384.295 237.053 388.684C245.189 391.119 252.448 396.545 257.03 404.482Z" fill="black"/>
<path d="M66.4301 251.937C57.845 268.947 37.096 275.777 20.0858 267.192C3.0757 258.607 -3.75415 237.857 4.83094 220.847C13.416 203.837 34.165 197.007 51.1752 205.592C68.1853 214.178 75.0152 234.927 66.4301 251.937Z" fill="black"/>
<path d="M96.9566 340.153C88.3716 357.163 67.6225 363.993 50.6124 355.408C33.6023 346.823 26.7724 326.074 35.3575 309.064C39.1187 301.611 45.2147 296.113 52.308 293.01C64.0485 287.873 77.6813 282.91 83.4554 271.469L89.5259 259.441C96.2837 246.052 89.53 229.412 85.3481 215.008C83.0005 206.922 83.5894 197.963 87.6825 189.853C96.2676 172.843 117.017 166.013 134.027 174.599C151.037 183.184 157.867 203.933 149.282 220.943C145.464 228.506 139.243 234.056 132.014 237.133C119.935 242.275 105.793 247.186 99.8772 258.907L94.583 269.396C87.6853 283.063 94.865 300.111 99.2281 314.785C101.649 322.926 101.086 331.972 96.9566 340.153Z" fill="black"/>
<path d="M133.5 100.021C114.446 100.021 99 84.5753 99 65.5215C99 46.4677 114.446 31.0215 133.5 31.0215C152.554 31.0215 168 46.4677 168 65.5215C168 84.5753 152.554 100.021 133.5 100.021Z" fill="black"/>
<path d="M68.5 167.021C49.4462 167.021 34 151.575 34 132.521C34 113.468 49.4462 98.0215 68.5 98.0215C76.8477 98.0215 84.5025 100.986 90.4694 105.92C100.345 114.087 110.918 124.021 123.734 124.021H137.206C152.205 124.021 164.017 110.495 174.992 100.271C181.152 94.5324 189.416 91.0215 198.5 91.0215C217.554 91.0215 233 106.468 233 125.521C233 144.575 217.554 160.021 198.5 160.021C190.028 160.021 182.27 156.968 176.266 151.901C166.233 143.434 155.477 133.021 142.348 133.021H130.598C115.289 133.021 103.304 147.113 92.1702 157.619C85.9931 163.448 77.6642 167.021 68.5 167.021Z" fill="black"/>
<path d="M299.775 80.69C290.248 64.1889 295.901 43.089 312.403 33.5621C328.904 24.0352 350.003 29.6889 359.53 46.19C369.057 62.6911 363.404 83.791 346.903 93.3179C330.401 102.845 309.302 97.1911 299.775 80.69Z" fill="black"/>
<path d="M209.251 57.8983C199.724 41.3972 205.378 20.2974 221.879 10.7705C238.38 1.24355 259.48 6.89724 269.007 23.3983C273.181 30.6277 274.44 38.7394 273.151 46.3739C271.016 59.01 267.699 73.1338 274.107 84.232L280.843 95.8999C288.343 108.889 305.963 112.355 320.304 116.748C328.354 119.214 335.527 124.615 340.069 132.482C349.596 148.983 343.942 170.083 327.441 179.61C310.94 189.136 289.84 183.483 280.313 166.982C276.077 159.645 274.843 151.4 276.229 143.667C278.545 130.744 282.184 116.222 275.62 104.853L269.745 94.6769C262.09 81.4191 243.895 78.0854 229.229 73.6963C221.092 71.2612 213.833 65.8348 209.251 57.8983Z" fill="black"/>
<path d="M398.773 214.69C408.3 198.189 429.4 192.535 445.901 202.062C462.402 211.589 468.056 232.689 458.529 249.19C449.002 265.691 427.902 271.345 411.401 261.818C394.9 252.291 389.246 231.191 398.773 214.69Z" fill="black"/>
<path d="M373.249 124.898C382.776 108.397 403.876 102.744 420.377 112.27C436.878 121.797 442.532 142.897 433.005 159.398C428.831 166.628 422.436 171.775 415.18 174.475C403.169 178.944 389.279 183.134 382.872 194.232L376.135 205.9C368.636 218.889 374.444 235.882 377.811 250.498C379.7 258.703 378.609 267.615 374.067 275.482C364.54 291.983 343.44 297.636 326.939 288.11C310.438 278.583 304.785 257.483 314.311 240.982C318.547 233.645 325.071 228.453 332.461 225.787C344.81 221.331 359.206 217.222 365.77 205.853L371.645 195.677C379.299 182.419 373.089 164.994 369.557 150.098C367.597 141.834 368.667 132.835 373.249 124.898Z" fill="black"/>
</svg>