<svg xmlns="http://www.w3.org/2000/svg" viewBox="0 0 126 28" preserveAspectRatio="xMinYMin meet">
  <path fill="#476352" d="m13.6 0v11.1c0 0.5-0.6 0.7-0.9 0.4l-5.2-5.1 2.2-5.7c0.1-0.4 0.5-0.7 0.9-0.7zm0 15.1v6.3c0 0.4-0.5 0.6-0.8 0.3l-8.1-7.6 2.4-6.2 5.9 5.8c0.4 0.4 0.6 0.9 0.6 1.4zm0 10.1v2.8h-12.5c-0.7 0-1.2-0.7-1-1.4l4.2-11 8.8 8.3c0.3 0.3 0.5 0.8 0.5 1.3zm4.3-25.2c0.5 0 0.8 0.3 1 0.7l2.2 5.7-5.2 5.1c-0.4 0.3-0.9 0.1-0.9-0.4v-11.1zm-3 15.1c0-0.5 0.2-1 0.6-1.4l5.9-5.8 2.4 6.2-8.1 7.6c-0.3 0.3-0.8 0.1-0.8-0.3v-6.3zm0 10.1c0-0.5 0.2-1 0.6-1.3l8.7-8.3 4.2 11c0.3 0.7-0.2 1.4-0.9 1.4h-12.6v-2.8z"/>
  <path fill="#22211d" d="m125.9 22.8l-3.2-0.1-1.6-4.2h-7.8l-1.7 4.2h-3.1l6.9-17.4 3.7-0.1zm-8.7-14.3l-2.9 7.4h5.7zm-21 14.3h-3v-17.5h7.9c3.1 0 5.5 2 5.5 4.8 0 2.2-1.1 3.8-3 4.4 2 0 2.7 0.8 2.7 2.5v5.8h-3v-5.1c0-1.3-0.4-1.6-1.7-1.6h-5.4zm0-14.9v5.4h4.2c2.1 0 3.2-1.1 3.2-2.8 0-1.7-1.1-2.6-3.2-2.6zm-15 15.1c-4.9 0-8.4-3.4-8.4-9 0-5.6 3.5-9 8.4-9 4.9 0 8.5 3.4 8.5 9 0 5.6-3.6 9-8.5 9zm-0.1-2.7h0.3c3.1 0 5.2-2.3 5.2-6.3 0-4-2.1-6.3-5.2-6.3h-0.3c-3.2 0-5.3 2.3-5.3 6.3 0 4 2.1 6.3 5.3 6.3zm-18.8 2.7c-5.1 0-8.4-3.8-8.4-9 0-5.2 3.4-9 8.6-9 4.5 0 7.1 2.6 7.4 6.2h-3c-0.3-2.1-1.7-3.5-4.2-3.5h-0.3c-3.3 0-5.5 2.4-5.5 6.3 0 3.9 2.2 6.3 5.5 6.3h0.3c2.5 0 4.4-1.5 4.7-3.6v-0.3h-4.9v-2.7h5.4c1.4 0 2.1 0.8 2.1 2.2v6.9h-2.6v-1.9c-0.8 1-2.5 2.1-5.1 2.1zm-9.4-0.2h-3.2l-1.6-4.3h-7.8l-1.7 4.3h-3.1l6.9-17.5h3.7zm-8.8-14.4l-2.8 7.4h5.7z"/>
</svg>
