<svg width="189" height="19" viewBox="0 0 189 19" fill="none" xmlns="http://www.w3.org/2000/svg">
<path d="M29.249 16.4217C30.6075 16.4217 31.8323 16.0225 32.8182 15.2795L33.164 15.651C32.4457 16.5541 30.7938 18.6795 27.9697 18.6795C24.6135 18.6795 22.2422 16.1292 22.2422 12.5167C22.2422 9.16901 24.4797 6.19385 27.9429 6.19385C30.9533 6.19385 32.7915 8.37265 32.5249 11.5869H24.6659V11.746C24.6659 14.5354 26.291 16.4217 29.249 16.4217ZM30.1054 10.5237C30.1857 8.61176 29.386 7.25709 27.8144 7.25709C26.2953 7.25709 25.1241 8.5317 24.7773 10.5237H30.1054Z" fill="white"/>
<path d="M40.5441 6.19385C42.7024 6.19385 44.0877 7.01797 44.0877 8.42602C44.088 8.65279 44.0434 8.87737 43.9565 9.08693C43.8696 9.29648 43.7421 9.48688 43.5813 9.64723C43.4205 9.80758 43.2295 9.93472 43.0194 10.0214C42.8092 10.108 42.584 10.1525 42.3566 10.1522C41.2368 10.1522 40.6244 9.27577 40.6244 8.42602C40.6222 8.21946 40.6611 8.01451 40.7388 7.82303C40.8166 7.63155 40.9316 7.45734 41.0773 7.31046C40.8424 7.25033 40.6002 7.22409 40.3579 7.23254C38.1204 7.23254 36.6816 9.2779 36.6816 11.8229C36.6816 14.639 38.4405 16.4132 41.2635 16.4132C42.6221 16.4132 43.8479 16.0139 44.8339 15.2709L45.1797 15.6424C44.4602 16.5455 42.8094 18.671 39.9853 18.671C36.6291 18.671 34.2578 16.1207 34.2578 12.5082C34.2557 8.87758 36.8421 6.19385 40.5441 6.19385Z" fill="white"/>
<path d="M47.6071 14.6424V10.4182C47.6071 9.22261 46.9412 8.31949 45.7422 8.16043V7.62667C47.1512 7.30364 48.532 6.86848 49.8713 6.32538L50.0041 6.40437V14.0286C50.0041 15.8081 50.777 16.7913 52.1356 16.7913C53.3132 16.7913 54.267 16.0206 55.0657 14.7993V10.4161C55.0657 9.22047 54.3998 8.31737 53.2008 8.15831V7.62455C54.6099 7.30167 55.9907 6.8665 57.3299 6.32324L57.4637 6.40224V14.478C57.4637 15.6736 58.1296 16.5767 59.3287 16.7358V17.2695C57.9196 17.5924 56.5387 18.0276 55.1995 18.5708L55.0657 18.4918V16.2597H54.9329C54.054 18.0403 52.4814 18.6776 51.1228 18.6776C49.0449 18.6797 47.6071 17.0059 47.6071 14.6424Z" fill="white"/>
<path d="M60.6602 17.8821C61.8592 17.723 62.5251 16.8146 62.5251 15.6243V10.418C62.5251 9.22239 61.8592 8.31927 60.6602 8.16021V7.62646C62.0692 7.30342 63.45 6.86826 64.7893 6.32516L64.9221 6.40416V15.6221C64.9221 16.8178 65.589 17.7209 67.0535 17.8799V18.4137H60.6602V17.8821ZM66.12 7.92109C66.1196 7.69415 66.1641 7.46936 66.251 7.25962C66.3379 7.04987 66.4655 6.85929 66.6264 6.69882C66.7873 6.53835 66.9785 6.41112 67.1888 6.32447C67.3991 6.23782 67.6246 6.19344 67.8522 6.19386C68.08 6.19301 68.3057 6.2371 68.5164 6.32357C68.727 6.41005 68.9185 6.53721 69.0796 6.69774C69.2408 6.85827 69.3686 7.049 69.4556 7.25895C69.5426 7.4689 69.587 7.69393 69.5865 7.92109C69.587 8.14793 69.5427 8.37266 69.4559 8.58235C69.3691 8.79203 69.2416 8.98253 69.0807 9.14293C68.9199 9.30334 68.7288 9.43047 68.5185 9.51702C68.3082 9.60357 68.0829 9.64783 67.8554 9.64727C67.6277 9.64811 67.402 9.60407 67.1914 9.51766C66.9808 9.43125 66.7895 9.30418 66.6283 9.14377C66.4671 8.98335 66.3393 8.79275 66.2523 8.58292C66.1652 8.37309 66.1207 8.14816 66.1211 7.92109H66.12Z" fill="white"/>
<path d="M77.5224 16.4217C78.881 16.4217 80.1057 16.0225 81.0917 15.2795L81.4385 15.651C80.7191 16.5541 79.0672 18.6795 76.2431 18.6795C72.8869 18.6795 70.5156 16.1292 70.5156 12.5167C70.5156 9.16901 72.7542 6.19385 76.2163 6.19385C79.2268 6.19385 81.0649 8.37265 80.7983 11.5869H72.9404V11.746C72.9404 14.5354 74.5655 16.4217 77.5224 16.4217ZM78.3789 10.5237C78.4592 8.61176 77.6595 7.25709 76.0879 7.25709C74.5698 7.25709 73.3976 8.5317 73.0507 10.5237H78.3789Z" fill="white"/>
<path d="M82.7969 12.8906C82.7969 9.039 85.4872 6.19621 88.8166 6.19621C89.7872 6.18245 90.7408 6.45022 91.5615 6.96695V4.33765C91.5615 3.14203 90.8946 2.23892 89.6966 2.0788V1.54504C91.1056 1.22119 92.4863 0.785687 93.8258 0.242676L93.9585 0.322739V14.4812C93.9585 15.6768 94.6244 16.5799 95.8234 16.739V17.2727C94.4144 17.5958 93.0336 18.0309 91.6943 18.574L91.5615 18.495V16.2629H91.4245C90.6751 17.91 89.1335 18.6808 87.6155 18.6808C85.0343 18.6797 82.7969 16.3952 82.7969 12.8906ZM88.5511 16.7956C89.6163 16.7956 90.7351 16.2116 91.5615 14.8036V8.07824C90.9481 7.54448 89.9632 7.25517 89.11 7.25517C87.1658 7.25517 85.1671 8.90235 85.1671 12.249C85.1671 15.1462 86.6595 16.7934 88.5511 16.7934V16.7956Z" fill="white"/>
<path d="M104.082 15.0939V4.20521C104.082 2.87722 103.096 1.84068 101.684 1.68162V0.885254H115.27V6.19721H114.735C114.389 3.35548 113.323 1.94743 111.112 1.94743H106.745V9.27912L109.969 9.25244C111.78 9.25244 112.82 8.32263 112.952 6.59646H113.488V12.9717H112.952C112.82 11.2444 111.775 10.3146 109.969 10.3146L106.745 10.3413V14.8313C106.745 16.3984 107.731 17.5406 109.409 17.594V18.417H101.684V17.5876C103.094 17.4574 104.082 16.3952 104.082 15.0939Z" fill="white"/>
<path d="M118.412 15.6242V10.4179C118.412 9.22233 117.746 8.31921 116.547 8.16015V7.6264C117.956 7.30352 119.337 6.86836 120.676 6.3251L120.81 6.4041V15.6221C120.81 16.8177 121.476 17.7208 122.675 17.8799V18.4136H116.547V17.8799C117.746 17.723 118.412 16.8198 118.412 15.6242ZM119.451 0.881844C119.679 0.881141 119.904 0.925292 120.115 1.01177C120.325 1.09824 120.517 1.22533 120.678 1.38573C120.839 1.54614 120.966 1.73668 121.053 1.94644C121.14 2.1562 121.185 2.38102 121.185 2.60801C121.185 2.83486 121.14 3.05958 121.054 3.26926C120.967 3.47894 120.839 3.66946 120.679 3.82992C120.518 3.99037 120.327 4.11761 120.116 4.20433C119.906 4.29104 119.681 4.33555 119.453 4.33527C119.226 4.33569 119 4.29129 118.79 4.20464C118.58 4.11799 118.389 3.99078 118.228 3.83031C118.067 3.66983 117.939 3.47925 117.852 3.2695C117.765 3.05975 117.721 2.83495 117.721 2.60801C117.721 2.38129 117.765 2.15675 117.852 1.9472C117.939 1.73765 118.066 1.54721 118.227 1.38685C118.388 1.22649 118.579 1.09934 118.789 1.01268C118.999 0.926016 119.224 0.881563 119.451 0.881844Z" fill="white"/>
<path d="M133.2 15.6245V10.8431C133.2 9.0636 132.427 8.08041 131.068 8.08041C129.896 8.08041 128.937 8.85116 128.138 10.0724V15.6235C128.138 16.8191 128.804 17.7222 129.736 17.8813V18.415H123.875V17.8813C125.074 17.7222 125.74 16.8138 125.74 15.6235V10.4172C125.74 9.22159 125.074 8.31848 123.875 8.15942V7.62566C125.284 7.30263 126.665 6.86746 128.004 6.32436L128.138 6.40335V8.60884H128.271C129.15 6.82929 130.721 6.19092 132.081 6.19092C134.158 6.19092 135.597 7.86478 135.597 10.2293V15.6213C135.597 16.9493 136.076 17.5076 137.461 17.8791V18.4129H131.601V17.8791C132.749 17.5108 133.2 16.9525 133.2 15.6245Z" fill="white"/>
<path d="M138.711 15.5452C138.711 13.8179 139.937 12.7024 142.601 11.9049L145.424 11.0509V10.7851C145.424 8.9255 144.599 8.02238 142.947 8.02238C141.615 8.02238 140.549 8.58068 139.404 9.59055L139.058 9.21799C139.777 8.31487 141.508 6.18945 144.119 6.18945C146.357 6.18945 147.822 7.75764 147.822 10.2279V16.3639C147.822 16.9479 148.116 17.2404 148.488 17.2404C148.852 17.2272 149.204 17.1073 149.5 16.8956L149.821 17.2937C149.072 18.1478 148.276 18.6217 147.317 18.6217C146.385 18.6217 145.425 18.1435 145.425 16.5764V16.2561H145.293C144.543 17.8766 143.294 18.674 141.856 18.674C139.937 18.6794 138.711 17.298 138.711 15.5452ZM142.703 16.713C143.582 16.713 144.648 16.1024 145.42 14.8011V12.0362L143.503 12.6468C141.611 13.2585 141.105 14.1617 141.105 15.0381C141.109 16.0757 141.828 16.713 142.703 16.713Z" fill="white"/>
<path d="M160.211 15.6243V10.8429C160.211 9.06332 159.438 8.08014 158.08 8.08014C156.902 8.08014 155.948 8.85089 155.15 10.0721V15.6232C155.15 16.8188 155.816 17.7219 156.748 17.881V18.4148H150.887V17.881C152.086 17.7219 152.752 16.8135 152.752 15.6232V10.4169C152.752 9.22131 152.086 8.31821 150.887 8.15915V7.62539C152.296 7.30355 153.677 6.86946 155.016 6.32729L155.15 6.40628V8.61177H155.282C156.161 6.83222 157.734 6.19385 159.093 6.19385C161.171 6.19385 162.608 7.86771 162.608 10.2323V15.6243C162.608 16.9523 163.088 17.5106 164.473 17.8821V18.4158H158.613V17.8821C159.758 17.5106 160.211 16.9523 160.211 15.6243Z" fill="white"/>
<path d="M171.853 6.19385C174.011 6.19385 175.396 7.01797 175.396 8.42602C175.397 8.65288 175.352 8.87755 175.265 9.08717C175.178 9.2968 175.05 9.48725 174.889 9.64761C174.729 9.80797 174.538 9.93508 174.327 10.0217C174.117 10.1083 173.892 10.1526 173.664 10.1522C172.545 10.1522 171.933 9.27577 171.933 8.42602C171.931 8.21946 171.97 8.01451 172.047 7.82303C172.125 7.63155 172.24 7.45734 172.386 7.31046C172.151 7.24961 171.909 7.22265 171.666 7.2304C169.429 7.2304 167.99 9.27576 167.99 11.8207C167.99 14.6368 169.748 16.411 172.572 16.411C173.931 16.411 175.156 16.0118 176.142 15.2688L176.488 15.6403C175.769 16.5434 174.117 18.6688 171.294 18.6688C167.937 18.6688 165.566 16.1185 165.566 12.5061C165.566 8.87758 168.15 6.19385 171.853 6.19385Z" fill="white"/>
<path d="M184.428 16.4217C185.786 16.4217 187.012 16.0225 187.998 15.2795L188.344 15.651C187.624 16.5541 185.972 18.6795 183.149 18.6795C179.792 18.6795 177.422 16.1292 177.422 12.5167C177.422 9.16901 179.659 6.19385 183.123 6.19385C186.133 6.19385 187.971 8.37265 187.705 11.5869H179.846V11.746C179.846 14.5354 181.471 16.4217 184.428 16.4217ZM185.284 10.5237C185.364 8.61176 184.566 7.25709 182.993 7.25709C181.475 7.25709 180.303 8.5317 179.957 10.5237H185.284Z" fill="white"/>
<path d="M0.000408995 3.40525C-0.00624941 3.0022 0.0684516 2.60195 0.220072 2.22827C0.371691 1.8546 0.597133 1.51515 0.882983 1.23011C1.16883 0.945072 1.50926 0.720252 1.884 0.569064C2.25874 0.417875 2.66015 0.343396 3.06435 0.350035C3.46859 0.343247 3.87006 0.417641 4.24487 0.568777C4.61968 0.719913 4.96017 0.944703 5.24605 1.22977C5.53193 1.51484 5.75736 1.85435 5.90893 2.22809C6.0605 2.60183 6.13509 3.00216 6.12829 3.40525C6.13495 3.80825 6.06024 4.20848 5.90861 4.5821C5.75698 4.95572 5.53152 5.2951 5.24565 5.58005C4.95979 5.865 4.61936 6.08971 4.24462 6.24078C3.86988 6.39185 3.4685 6.4662 3.06435 6.45942C2.66024 6.46606 2.25892 6.39159 1.88425 6.24047C1.50958 6.08935 1.16921 5.86465 0.883372 5.57972C0.597536 5.2948 0.372077 4.95547 0.220392 4.58191C0.0687069 4.20836 -0.00610434 3.80821 0.000408995 3.40525Z" fill="#5162FF"/>
<path d="M8.6875 17.166V12.517H9.22278C9.83514 15.9437 11.5138 17.6176 14.3379 17.6176C16.5754 17.6176 18.0399 16.4743 18.0399 14.4556C18.0399 12.2779 16.3356 11.5071 13.7245 10.4983C11.3275 9.56851 8.82346 8.66539 8.82346 5.58774C8.82346 2.69264 11.0074 0.620605 14.6837 0.620605C16.9212 0.620605 18.2273 1.23122 19.9048 1.68278V6.19837H19.3695C18.8096 3.19759 17.131 1.68278 14.4674 1.68278C12.4965 1.68278 11.2708 2.66595 11.2708 4.44549C11.2708 6.01261 12.2032 6.78336 15.1333 7.89891C17.9307 8.98778 20.6478 9.97096 20.6478 13.3432C20.6478 16.6109 18.1705 18.6808 14.3615 18.6808C11.35 18.6797 9.96682 17.6699 8.6875 17.166Z" fill="white"/>
</svg>
