<svg width="73" height="40" viewBox="0 0 73 40" fill="none" xmlns="http://www.w3.org/2000/svg">
<g clip-path="url(#clip0_389_15365)">
<path d="M41.5334 0.60498H30.6721V4.8603H41.5334V0.60498Z" fill="#678DBD"/>
<path d="M42.1417 5.46422H30.0674V0H42.1417V5.46422ZM31.2804 4.25532H40.9238V1.2089H31.2804V4.25532Z" fill="#678DBD"/>
<path d="M35.5247 20.769V15.8487H45.9752L45.9776 11.2912V10.3845H30.0649V26.2332H49.8112V20.769H35.5247Z" fill="#162125"/>
<path d="M19.7632 0L12.4778 11.7432L5.19241 0H0V26.2331H5.45981V10.868L12.4754 21.4531L19.4958 11.2766V26.2331H24.9556V0H19.7632Z" fill="#162125"/>
<path d="M66.6119 0L60.012 17.6644L53.3975 0H46.9021L56.825 26.2331H63.2669L73.0003 0H66.6119Z" fill="#162125"/>
<path d="M8.19946 37.34C8.19946 35.7999 9.28365 34.6829 10.8321 34.6829C11.7559 34.6829 12.4924 35.0818 12.9422 35.7274L12.1084 36.3415C11.8604 35.9981 11.4034 35.7104 10.8321 35.7104C9.87679 35.7104 9.23503 36.3971 9.23503 37.3376C9.23503 38.2781 9.87679 38.9648 10.8321 38.9648C11.401 38.9648 11.858 38.6384 12.1084 38.3096L12.9422 38.9479C12.4924 39.5934 11.7559 39.9923 10.8321 39.9923C9.28365 39.9923 8.19946 38.8753 8.19946 37.3352V37.34Z" fill="#162125"/>
<path d="M18.837 34.748H19.6222L21.7322 39.9342H20.6335L20.2956 39.0807H18.1539L17.8161 39.9342H16.7173L18.8346 34.748H18.837ZM19.9285 38.1402L19.2308 36.3776L18.5332 38.1402H19.9285Z" fill="#162125"/>
<path d="M25.7424 34.748H28.1733C28.9512 34.748 29.7607 35.338 29.7607 36.455C29.7607 37.572 28.9512 38.162 28.1733 38.162H26.778V39.9342H25.7424V34.748ZM27.9886 37.1586C28.3824 37.1586 28.7276 36.8878 28.7276 36.4574C28.7276 36.0271 28.3897 35.7466 28.0056 35.7466H26.778V37.1586H27.9886Z" fill="#162125"/>
<path d="M33.9326 34.748H34.9682V39.9342H33.9326V34.748Z" fill="#162125"/>
<path d="M40.7056 35.6886H39.1401V34.748H43.3043V35.6886H41.7485V39.9342H40.7056V35.6886Z" fill="#162125"/>
<path d="M48.6857 34.748H49.4708L51.5809 39.9342H50.4821L50.1442 39.0807H48.0026L47.6647 39.9342H46.5659L48.6832 34.748H48.6857ZM49.7771 38.1402L49.0795 36.3776L48.3818 38.1402H49.7771Z" fill="#162125"/>
<path d="M55.5925 34.748H56.6281V38.9937H59.1076V39.9342H55.5925V34.748Z" fill="#162125"/>
</g>
<defs>
<clipPath id="clip0_389_15365">
<rect width="73" height="40" fill="white"/>
</clipPath>
</defs>
</svg>
