<?xml version="1.0" encoding="utf-8"?>
<!-- Generator: Adobe Illustrator 28.1.0, SVG Export Plug-In . SVG Version: 6.00 Build 0)  -->
<svg version="1.1" id="Layer_1" xmlns="http://www.w3.org/2000/svg" xmlns:xlink="http://www.w3.org/1999/xlink" x="0px" y="0px"
	 viewBox="0 0 5529.6 1137.4" style="enable-background:new 0 0 5529.6 1137.4;" xml:space="preserve">
<style type="text/css">
	.st0{fill:#FFFFFF;stroke:#000000;stroke-width:5;stroke-miterlimit:10;}
	.st1{fill:#FFFFFF;stroke:#FFFFFF;stroke-width:5;stroke-miterlimit:10;}
	.st2{fill:#FFFFFF;}
	.st3{font-family:'HelveticaNeue-Light';}
	.st4{font-size:800px;}
</style>
<path class="st0" d="M1279.1,106.6c-157.9,0-298.5,73.6-389.8,188.3l80,150.7c57.8-112.3,174.7-189.2,309.7-189.2
	c192.3,0,348.1,155.8,348.1,348.1S1471.3,952.6,1279,952.6v0.6c-123-0.2-238-66.4-300.5-173l-93.7-176.4l0.1-0.2l-36-67.4
	l-245-461.6L58.2,1102.4h168.6l114.4-215.3h111.6L531.5,738H420.3l183.6-345.5L716.2,604l-264.7,498.4h169.1L800.7,763l30,56.5
	c5.6,11.7,35.9,62.7,35.9,62.7c92,136.3,247.9,220.1,412.6,220.2l0,0c275,0,497.9-222.9,497.9-497.9S1554.1,106.6,1279.1,106.6
	L1279.1,106.6z"/>
<path class="st1" d="M640.1,1134.9H397.5L679.4,604l-75.5-142.2L474.4,705.6h111l-113.1,214H360.7l-114.4,215.3H4.2L603.9,5.3
	L877.7,521l45.1,84.5l-0.2,0.3l84.2,158.6c53.4,90.7,149.1,149.2,253.1,155.7h19.1c84.3,0,163.6-32.8,223.2-92.4
	c59.6-59.6,92.4-138.9,92.4-223.2s-32.8-163.6-92.4-223.2s-138.9-92.4-223.2-92.4c-59.1,0-116.7,16.5-166.6,47.6
	c-48.6,30.3-88,73.2-114.2,124l-28.4,55.3L850.7,291.3l13.3-16.7c48.6-61.1,111.2-111.6,180.9-146c73.2-36.2,152.1-54.5,234.3-54.5
	c71.6,0,141,14,206.5,41.7c63.2,26.7,119.9,64.9,168.6,113.6s87,105.4,113.7,168.6c27.7,65.4,41.7,134.9,41.7,206.4
	s-14,141-41.7,206.5c-26.7,63.2-65,119.9-113.7,168.6c-48.7,48.7-105.4,86.9-168.6,113.6c-65.4,27.7-134.9,41.7-206.5,41.7
	c-86-0.1-172-21.8-248.8-62.9c-76.6-40.9-142.5-100.3-190.6-171.6l-0.5-0.8l-0.5-0.8c-5.1-8.6-30.5-51.4-37-64.5l-1-1.9
	L640.1,1134.9L640.1,1134.9z M505.5,1069.9H601l199.6-376.3l58.9,111.1l0.3,0.6c3.4,7.1,21.8,38.7,34.1,59.4
	c42.2,62.3,99.9,114.1,166.9,149.9c67.4,36.1,142.9,55.2,218.2,55.2c62.8,0,123.8-12.3,181.1-36.6c55.4-23.4,105.2-57,148-99.8
	s76.3-92.5,99.8-148c24.3-57.4,36.6-118.3,36.6-181.2s-12.3-123.8-36.6-181.1c-23.4-55.4-57-105.2-99.8-147.9s-92.5-76.3-148-99.7
	c-57.4-24.3-118.3-36.6-181.2-36.6c-72.2,0-141.3,16.1-205.5,47.8c-54.9,27.1-104.8,65.6-145.4,112.1l43.3,81.5
	c28.7-39.4,64.9-73.1,106.5-99.1c60.2-37.6,129.7-57.4,201-57.4c51.4,0,101.2,10.1,148.2,29.9c45.3,19.2,86,46.6,121,81.5
	c34.9,34.9,62.4,75.6,81.5,121c19.9,46.9,29.9,96.8,29.9,148.2s-10.1,101.2-29.9,148.2c-19.2,45.3-46.6,86-81.5,121
	c-34.9,34.9-75.6,62.4-121,81.5c-37,15.6-75.8,25.2-115.7,28.6v2l-32.5-0.1c-134.4-0.2-260.2-72.7-328.4-189l-0.7-1.2L847.1,602
	l0.1-0.2l-26.9-50.3L603.9,143.8l-491.7,926.1h95.1l114.4-215.3h111.5l44.5-84.1H366.3l237.6-447.2L753,604L505.5,1069.9
	L505.5,1069.9z"/>
<text transform="matrix(1 0 0 1 2095.2615 858.4327)" class="st2 st3 st4">AlphaPing</text>
</svg>
