<?xml version="1.0" encoding="UTF-8"?>
<svg id="Layer_1" data-name="Layer 1" xmlns="http://www.w3.org/2000/svg" viewBox="0 0 5577.5681 1137.4314">
  <path d="M1279.0577,106.6314c-157.9,0-298.5,73.6-389.8,188.3l80,150.7c57.8-112.3,174.7-189.2,309.7-189.2,192.3,0,348.1,155.8,348.1,348.1s-155.7999,348.1-348.1,348.1v.6c-123-.2-238-66.4-300.5-173l-93.7-176.4.1-.2-36-67.4-244.9999-461.5999L58.1577,1102.4314h168.6l114.4-215.3h111.6l78.7-149.1h-111.2l183.6-345.5,112.3,211.5-264.7,498.4h169.1l180.1-339.4,30,56.5c5.6,11.7,35.9,62.7,35.9,62.7,92,136.3,247.9,220.1,412.6,220.2h0c275,0,497.9-222.9,497.9-497.9s-223.0001-497.9-498.0001-497.9h0Z" stroke="#000" stroke-miterlimit="10" stroke-width="5"/>
  <path d="M640.0577,1134.9314h-242.6l281.9-530.9-75.5-142.2-129.5,243.8h111l-113.1,214h-111.6l-114.4,215.3H4.1577L603.8577,5.3314l273.8,515.7,45.1,84.5-.2.3,84.2,158.6c53.4,90.7,149.1,149.2,253.1,155.7h19.1c84.3,0,163.6-32.8,223.2-92.4,59.6-59.6,92.4-138.9,92.4-223.2s-32.8-163.6-92.4-223.2-138.9-92.4-223.2-92.4c-59.1,0-116.7,16.5-166.6,47.6-48.6,30.3-88,73.2-114.2,124l-28.4,55.3-119.1-224.5,13.3-16.7c48.6-61.1,111.2-111.6,180.9-146,73.2-36.2,152.1-54.5,234.3-54.5,71.6,0,141,14,206.5,41.7,63.2,26.7,119.9,64.9,168.6,113.6,48.7,48.7,87,105.4,113.7,168.6,27.7,65.4,41.7,134.9,41.7,206.4s-14,141-41.7,206.5c-26.7,63.2-65,119.9-113.7,168.6-48.7,48.7-105.4,86.9-168.6,113.6-65.4,27.7-134.9,41.7-206.5,41.7-86-.1-172-21.8-248.8-62.9-76.6-40.9-142.5-100.3-190.6-171.6l-.5-.8-.5-.8c-5.1-8.6-30.5-51.4-37-64.5l-1-1.9-160.7001,302.6001h0ZM505.4577,1069.9314h95.5l199.6-376.3,58.9,111.1.3.6c3.4,7.1,21.8,38.7,34.1,59.4,42.2,62.3,99.9,114.1,166.9,149.9,67.4,36.1,142.9,55.2,218.2,55.2,62.8,0,123.8-12.3,181.1-36.6,55.4-23.4,105.2-57,148-99.8s76.3-92.5,99.8-148c24.3-57.4,36.6-118.3,36.6-181.2s-12.3-123.8-36.6-181.1c-23.4-55.4-57-105.2-99.8-147.9-42.8-42.7-92.5-76.3-148-99.7-57.4-24.3-118.3-36.6-181.2-36.6-72.2,0-141.3,16.1-205.5,47.8-54.9,27.1-104.8,65.6-145.4,112.1l43.3,81.5c28.7-39.4,64.9-73.1,106.4999-99.1,60.2-37.6,129.7-57.4,201-57.4,51.4,0,101.2,10.1,148.2,29.9,45.3,19.2,86,46.6,121,81.5,34.9,34.9,62.4,75.6,81.5,121,19.9,46.9,29.9,96.8,29.9,148.2s-10.1,101.2-29.9,148.2c-19.2,45.3-46.6,86-81.5,121-34.9,34.9-75.6,62.4-121,81.5-37,15.6-75.8,25.2-115.7,28.6v2l-32.5-.1c-134.4-.2-260.2-72.7-328.4-189l-.7-1.2-102.5998-193.4.1-.2-26.9-50.3-216.3999-407.7L112.1577,1069.9314h95.1l114.4-215.3h111.5l44.5-84.1h-111.4l237.6-447.2,149.1,280.7-247.5,465.9h0Z" stroke="#000" stroke-miterlimit="10" stroke-width="5"/>
  <g isolation="isolate">
    <path d="M2380.819,287.2638l224,571.2002h-58.3994l-69.6006-177.5996h-260l-68.7998,177.5996h-57.5996l229.5996-571.2002h60.7998ZM2458.4196,634.464l-110.4004-292.7998-114.4004,292.7998h224.8008Z" stroke-width="0"/>
    <path d="M2698.4118,287.2638v571.2002h-50.4004V287.2638h50.4004Z" stroke-width="0"/>
    <path d="M2841.6101,445.6642v78.3999h1.5996c11.7246-28.8003,30.7998-51.0625,57.2002-66.8003,26.3994-15.7246,56.3994-23.5996,90-23.5996,31.4619,0,58.7998,5.875,82,17.5996,23.2002,11.7378,42.5244,27.6001,58,47.6001,15.4619,20,26.9248,43.2002,34.3994,69.6001,7.4629,26.4004,11.2002,54.2754,11.2002,83.5996s-3.7373,57.2002-11.2002,83.6006c-7.4746,26.3994-18.9375,49.5996-34.3994,69.5996-15.4756,20-34.7998,35.7373-58,47.2002s-50.5381,17.2002-82,17.2002c-14.9375,0-29.875-1.875-44.7998-5.6006-14.9375-3.7373-28.8008-9.3242-41.6006-16.7998-12.7998-7.4619-24.1377-16.7998-34-28-9.875-11.2002-17.4746-24.2627-22.7998-39.2002h-1.5996v230.4004h-50.4004V445.6642h46.4004ZM3118.0095,588.464c-5.0752-21.0625-13.0752-39.8623-24-56.3999-10.9375-16.5249-24.9375-30-42-40.3999-17.0752-10.4004-37.5996-15.6001-61.5996-15.6001-27.7373,0-50.9375,4.7998-69.6006,14.3999-18.6748,9.6001-33.5996,22.3999-44.7998,38.3999s-19.0752,34.6753-23.5996,56.0005c-4.5381,21.3369-6.7998,43.7373-6.7998,67.1992,0,21.3379,2.5244,42.5381,7.5996,63.6006,5.0625,21.0752,13.3252,39.875,24.7998,56.3994,11.4629,16.5381,26.4004,30,44.7998,40.4004,18.4004,10.4004,40.9258,15.5996,67.6006,15.5996,24,0,44.5244-5.1992,61.5996-15.5996,17.0625-10.4004,31.0625-23.8623,42-40.4004,10.9248-16.5244,18.9248-35.3242,24-56.3994,5.0625-21.0625,7.6006-42.2627,7.6006-63.6006,0-21.3242-2.5381-42.5244-7.6006-63.5996Z" stroke-width="0"/>
    <path d="M3304.0007,287.2638v229.6001h1.6006c9.5996-25.0625,26.6621-45.1997,51.2002-60.3999,24.5244-15.2002,51.4619-22.7998,80.7998-22.7998,28.7998,0,52.9248,3.7373,72.3994,11.1997,19.4629,7.4751,35.0625,18,46.8008,31.6001,11.7246,13.6001,20,30.2749,24.7998,50,4.7998,19.7373,7.2002,41.875,7.2002,66.4004v265.5996h-50.4004v-257.5996c0-17.6006-1.5996-34.0005-4.7998-49.2002-3.2002-15.2002-8.7998-28.4004-16.7998-39.6001-8-11.2002-18.8008-20-32.4004-26.3999-13.5996-6.4004-30.5371-9.6001-50.7998-9.6001-20.2754,0-38.2754,3.6001-54,10.7998-15.7373,7.2002-29.0752,17.0752-40,29.6001-10.9375,12.5376-19.4756,27.4751-25.6006,44.7998-6.1367,17.3379-9.4746,36.1377-10,56.4004v240.7998h-50.3994V287.2638h50.3994Z" stroke-width="0"/>
    <path d="M3694.3913,509.6642c8.5244-17.6001,20.125-32,34.7998-43.2002,14.6621-11.2002,31.8623-19.4624,51.5996-24.7998,19.7256-5.3252,41.6006-8,65.6006-8,18.125,0,36.2617,1.7373,54.3994,5.1997,18.125,3.4751,34.4004,10,48.7998,19.6001,14.4004,9.6001,26.125,23.0752,35.2002,40.3999,9.0625,17.3374,13.6006,39.875,13.6006,67.6001v219.2002c0,20.2744,9.8623,30.3994,29.5996,30.3994,5.8623,0,11.2002-1.0625,16-3.1992v42.3994c-5.875,1.0752-11.0752,1.875-15.5996,2.4004-4.5381.5371-10.2754.7998-17.2002.7998-12.7998,0-23.0752-1.7246-30.7998-5.2002-7.7383-3.4619-13.7383-8.3994-18-14.7998-4.2754-6.4004-7.0752-14-8.4004-22.7998-1.3379-8.7998-2-18.5254-2-29.2002h-1.5996c-9.0752,13.3379-18.2754,25.2002-27.6006,35.5996-9.3369,10.4004-19.7373,19.0752-31.2002,26-11.4746,6.9375-24.5371,12.2627-39.1992,16-14.6758,3.7256-32.1377,5.6006-52.4004,5.6006-19.2002,0-37.2002-2.2754-54-6.7998-16.7998-4.5254-31.4746-11.7256-44-21.6006-12.5371-9.8623-22.4004-22.3994-29.5996-37.5996-7.2002-15.2002-10.8008-33.2002-10.8008-54,0-28.7998,6.4004-51.3252,19.2002-67.6006,12.7998-16.2617,29.7256-28.6621,50.7998-37.1992,21.0625-8.5254,44.8008-14.5254,71.2002-18,26.4004-3.4629,53.2002-6.8008,80.4004-10,10.6621-1.0625,20-2.4004,28-4,8-1.6006,14.6621-4.4004,20-8.4004,5.3252-4,9.4619-9.4619,12.3994-16.3994,2.9258-6.9258,4.4004-16,4.4004-27.2007,0-17.0625-2.7998-31.0625-8.4004-42-5.5996-10.9248-13.3369-19.6001-23.1992-26-9.875-6.3999-21.3379-10.7998-34.4004-13.1997-13.0752-2.4004-27.0752-3.6001-42-3.6001-32,0-58.1377,7.6001-78.4004,22.7998-20.2744,15.2002-30.9375,39.6001-32,73.2007h-50.3994c1.5996-24.0005,6.6621-44.8008,15.2002-62.4004ZM3946.3913,632.8644c-3.2002,5.875-9.3379,10.1367-18.4004,12.7998-9.0752,2.6748-17.0752,4.5371-24,5.5996-21.3379,3.7373-43.3379,7.0752-66,10-22.6748,2.9375-43.3379,7.3379-62,13.2002-18.6748,5.875-34,14.2754-46,25.2002-12,10.9375-18,26.5371-18,46.7998,0,12.7998,2.5254,24.1377,7.5996,34,5.0625,9.875,11.8633,18.4004,20.4004,25.5996,8.5254,7.2002,18.4004,12.6758,29.5996,16.4004,11.2002,3.7373,22.6631,5.5996,34.4004,5.5996,19.2002,0,37.5996-2.9248,55.2002-8.7998,17.5996-5.8623,32.9248-14.3994,46-25.5996,13.0625-11.2002,23.4619-24.7998,31.2002-40.7998,7.7246-16,11.5996-34.125,11.5996-54.4004v-65.5996h-1.5996Z" stroke-width="0"/>
    <path d="M4362.3884,287.2638c25.5996,0,48.7998,3.6001,69.5996,10.8003,20.7998,7.1997,38.6631,17.875,53.6006,32,14.9248,14.1372,26.3994,31.3374,34.3994,51.6001,8,20.2749,12,43.1997,12,68.7998s-4,48.5376-12,68.7998c-8,20.2754-19.4746,37.4751-34.3994,51.6006-14.9375,14.1377-32.8008,24.7998-53.6006,32-20.7998,7.1992-44,10.7998-69.5996,10.7998h-199.2002v244.7998h-54.4004V287.2638h253.6006ZM4350.3884,567.2638c37.8623,0,68.5244-9.5996,92-28.7998,23.4619-19.2002,35.2002-48.5249,35.2002-88s-11.7383-68.7998-35.2002-88c-23.4756-19.2002-54.1377-28.7998-92-28.7998h-187.2002v233.5996h187.2002Z" stroke-width="0"/>
    <path d="M4654.3806,287.2638v80.8003h-50.4004v-80.8003h50.4004ZM4654.3806,445.6642v412.7998h-50.4004v-412.7998h50.4004Z" stroke-width="0"/>
    <path d="M4800.778,445.6642v71.1997h1.6006c9.5996-25.0625,26.6621-45.1997,51.2002-60.3999,24.5244-15.2002,51.4619-22.7998,80.7998-22.7998,28.7998,0,52.9248,3.7373,72.3994,11.1997,19.4629,7.4751,35.0625,18,46.8008,31.6001,11.7246,13.6001,20,30.2749,24.7998,50,4.7998,19.7373,7.2002,41.875,7.2002,66.4004v265.5996h-50.4004v-257.5996c0-17.6006-1.5996-34.0005-4.7998-49.2002-3.2002-15.2002-8.7998-28.4004-16.7998-39.6001-8-11.2002-18.8008-20-32.4004-26.3999-13.5996-6.4004-30.5371-9.6001-50.7998-9.6001-20.2754,0-38.2754,3.6001-54,10.7998-15.7373,7.2002-29.0752,17.0752-40,29.6001-10.9375,12.5376-19.4756,27.4751-25.6006,44.7998-6.1367,17.3379-9.4746,36.1377-10,56.4004v240.7998h-50.3994v-412.7998h50.3994Z" stroke-width="0"/>
    <path d="M5519.5681,907.2638c-6.6748,24.5254-17.2002,45.3252-31.5996,62.4004-14.4004,17.0625-33.2002,30.125-56.4004,39.2002-23.2002,9.0625-51.5996,13.5996-85.2002,13.5996-20.7998,0-41.0742-2.4004-60.7998-7.2002-19.7373-4.7998-37.4746-12.2744-53.2002-22.3994-15.7373-10.1377-28.7998-23.0752-39.1992-38.8008-10.4004-15.7373-16.4004-34.5371-18-56.3994h50.3994c2.6631,15.4619,7.8623,28.3994,15.6006,38.7998,7.7246,10.4004,17.0625,18.7998,28,25.2002,10.9248,6.3994,23.0625,11.0625,36.3994,14,13.3252,2.9248,26.9248,4.3994,40.7998,4.3994,46.9258,0,80.8008-13.3369,101.6006-40,20.7998-26.6748,31.2002-65.0742,31.2002-115.1992v-56h-1.6006c-11.7373,25.5996-28.9375,46.1367-51.5996,61.5996-22.6748,15.4746-49.2002,23.2002-79.6006,23.2002-33.0742,0-61.3369-5.4629-84.7998-16.4004-23.4746-10.9248-42.7998-26-58-45.2002-15.2002-19.1992-26.2744-41.7246-33.2002-67.5996-6.9375-25.8623-10.3994-53.4629-10.3994-82.7998,0-28.2627,4.125-55.0625,12.3994-80.4004,8.2627-25.3247,20.2627-47.4624,36-66.3999,15.7256-18.9248,35.2002-33.8623,58.4004-44.7998,23.2002-10.9253,49.7246-16.3999,79.5996-16.3999,15.4629,0,30,2.1372,43.6006,6.3999,13.5996,4.2749,26,10.2749,37.2002,18,11.1992,7.7373,21.1992,16.6748,30,26.7998,8.7998,10.1377,15.5996,20.8003,20.3994,32h1.6006v-71.1997h50.3994v379.2002c0,30.3994-3.3369,57.8623-10,82.3994ZM5403.9685,797.2638c16.5244-9.3252,30.3994-21.5996,41.5996-36.7998s19.6006-32.6621,25.2002-52.4004c5.5996-19.7246,8.4004-40,8.4004-60.7998,0-20.2627-2.4004-40.5244-7.2002-60.7998-4.7998-20.2627-12.5381-38.6626-23.2002-55.2002-10.6748-16.5249-24.4004-29.8623-41.2002-40-16.7998-10.125-37.2002-15.1997-61.2002-15.1997s-44.5371,4.9375-61.5996,14.7998c-17.0752,9.875-31.2002,22.8003-42.4004,38.8003-11.1992,16-19.3369,34.2749-24.3994,54.7998-5.0752,20.5381-7.6006,41.4746-7.6006,62.7998,0,20.7998,2.6631,41.0752,8,60.7998,5.3252,19.7383,13.6006,37.2002,24.8008,52.4004,11.1992,15.2002,25.3242,27.4746,42.3994,36.7998,17.0625,9.3379,37.3252,14,60.7998,14,21.8633,0,41.0625-4.6621,57.6006-14Z" stroke-width="0"/>
  </g>
</svg>