<svg xmlns="http://www.w3.org/2000/svg" viewBox="0 0 500 500" fill="currentColor">
  <path d="M0,270.965v34.993077c0,.957789.776442,1.734231,1.734231,1.734231h150.377692c.957789,0,1.734231.776442,1.734231,1.734231v36.727308h36.727308c.957789,0,1.734231.776442,1.734231,1.734231v150.377692c0,.957789.776442,1.734231,1.734231,1.734231h34.993077c.957789,0,1.734231-.776442,1.734231-1.734231v-227.300769c0-.957789-.776442-1.734231-1.734231-1.734231H1.734231c-.957789,0-1.734231.776442-1.734231,1.734231Z"/>
  <path d="M38.461538,347.888062v34.993106c0,.957781.776435,1.734216,1.734216,1.734216h34.993106c.957781,0,1.734216.776435,1.734216,1.734216v36.727322h36.727322c.957781,0,1.734216.776435,1.734216,1.734216v34.993106c0,.957781.776435,1.734216,1.734216,1.734216h34.993106c.957781,0,1.734216-.776435,1.734216-1.734216v-113.650399H40.195754c-.957781,0-1.734216.776435-1.734216,1.734216Z"/>
  <path d="M40.195754,461.538462h34.993106c.957781,0,1.734216-.776435,1.734216-1.734216v-36.727322h-36.727322c-.957781,0-1.734216.776435-1.734216,1.734216v34.993106c0,.957781.776435,1.734216,1.734216,1.734216Z"/>
  <path d="M270.965,500h34.993077c.957789,0,1.734231-.776442,1.734231-1.734231v-150.377692c0-.957789.776442-1.734231,1.734231-1.734231h36.727308v-36.727308c0-.957789.776442-1.734231,1.734231-1.734231h150.377692c.957789,0,1.734231-.776442,1.734231-1.734231v-34.993077c0-.957789-.776442-1.734231-1.734231-1.734231h-227.300769c-.957789,0-1.734231.776442-1.734231,1.734231v227.300769c0,.957789.776442,1.734231,1.734231,1.734231Z"/>
  <path d="M347.888062,461.538462h34.993106c.957781,0,1.734216-.776435,1.734216-1.734216v-34.993106c0-.957781.776435-1.734216,1.734216-1.734216h36.727322v-36.727322c0-.957781.776435-1.734216,1.734216-1.734216h34.993106c.957781,0,1.734216-.776435,1.734216-1.734216v-34.993106c0-.957781-.776435-1.734216-1.734216-1.734216h-113.650399v113.650399c0,.957781.776435,1.734216,1.734216,1.734216Z"/>
  <path d="M461.538462,459.804246v-34.993106c0-.957781-.776435-1.734216-1.734216-1.734216h-36.727322v36.727322c0,.957781.776435,1.734216,1.734216,1.734216h34.993106c.957781,0,1.734216-.776435,1.734216-1.734216Z"/>
  <path d="M500,229.035v-34.993077c0-.957789-.776442-1.734231-1.734231-1.734231h-150.377692c-.957789,0-1.734231-.776442-1.734231-1.734231v-36.727308h-36.727308c-.957789,0-1.734231-.776442-1.734231-1.734231V1.734231C307.692308.776442,306.915866,0,305.958077,0h-34.993077C270.007211,0,269.230769.776442,269.230769,1.734231v227.300769c0,.957789.776442,1.734231,1.734231,1.734231h227.300769c.957789,0,1.734231-.776442,1.734231-1.734231Z"/>
  <path d="M461.538462,152.111938v-34.993106c0-.957781-.776435-1.734216-1.734216-1.734216h-34.993106c-.957781,0-1.734216-.776435-1.734216-1.734216v-36.727322h-36.727322c-.957781,0-1.734216-.776435-1.734216-1.734216v-34.993106c0-.957781-.776435-1.734216-1.734216-1.734216h-34.993106c-.957781,0-1.734216.776435-1.734216,1.734216v113.650399h113.650399c.957781,0,1.734216-.776435,1.734216-1.734216Z"/>
  <path d="M459.804246,38.461538h-34.993106c-.957781,0-1.734216.776435-1.734216,1.734216v36.727322h36.727322c.957781,0,1.734216-.776435,1.734216-1.734216v-34.993106c0-.957781-.776435-1.734216-1.734216-1.734216Z"/>
  <path d="M229.035,0h-34.993077C193.084134,0,192.307692.776442,192.307692,1.734231v150.377692c0,.957789-.776442,1.734231-1.734231,1.734231h-36.727308v36.727308c0,.957789-.776442,1.734231-1.734231,1.734231H1.734231c-.957789,0-1.734231.776442-1.734231,1.734231v34.993077c0,.957789.776442,1.734231,1.734231,1.734231h227.300769c.957789,0,1.734231-.776442,1.734231-1.734231V1.734231C230.769231.776442,229.992789,0,229.035,0Z"/>
  <path d="M152.111938,38.461538h-34.993106c-.957781,0-1.734216.776435-1.734216,1.734216v34.993106c0,.957781-.776435,1.734216-1.734216,1.734216h-36.727322v36.727322c0,.957781-.776435,1.734216-1.734216,1.734216h-34.993106c-.957781,0-1.734216.776435-1.734216,1.734216v34.993106c0,.957781.776435,1.734216,1.734216,1.734216h113.650399V40.195754c0-.957781-.776435-1.734216-1.734216-1.734216Z"/>
  <path d="M38.461538,40.195754v34.993106c0,.957781.776435,1.734216,1.734216,1.734216h36.727322v-36.727322c0-.957781-.776435-1.734216-1.734216-1.734216h-34.993106c-.957781,0-1.734216.776435-1.734216,1.734216Z"/>
</svg>
