<?xml version="1.0" encoding="UTF-8"?>
<svg id="Layer_1" data-name="Layer 1" xmlns="http://www.w3.org/2000/svg" width="198.75" height="198.75" viewBox="0 0 198.75 198.75">
  <defs>
    <style>
      .cls-1 {
        fill: #8429ff;
      }
    </style>
  </defs>
  <path id="Path_7238" data-name="Path 7238" class="cls-1" d="M198.75,99.37c0-20.6-21.02-38.09-52.5-46.87C137.46,21.02,119.97,0,99.37,0s-38.09,21.02-46.87,52.5C21.02,61.29,0,78.78,0,99.37s21.02,38.09,52.5,46.88c8.79,31.48,26.28,52.5,46.87,52.5s38.09-21.02,46.88-52.5c31.48-8.79,52.5-26.28,52.5-46.88M73.17,37.18c7.32-14.72,16.87-23.16,26.17-23.16s18.88,8.44,26.17,23.16c1.88,3.83,3.52,7.77,4.91,11.81-20.6-3.42-41.63-3.42-62.23,0,1.39-4.04,3.07-7.93,4.95-11.76l.03-.05ZM138.3,99.42c.01,9.02-.73,17.98-2.12,26.89l-63.75-63.79c8.91-1.39,17.92-2.08,26.94-2.06,11.86-.04,23.69,1.17,35.3,3.62,2.45,11.61,3.66,23.34,3.62,35.2M60.45,99.31c-.01-9.02.69-17.96,2.07-26.88l63.79,63.8c-8.91,1.39-17.92,2.08-26.94,2.06-11.86.04-23.69-1.18-35.3-3.62-2.45-11.61-3.66-23.44-3.62-35.3v-.06ZM37.19,125.54c-14.72-7.32-23.16-16.87-23.16-26.17s8.45-18.88,23.16-26.17c3.83-1.88,7.77-3.52,11.81-4.91-3.42,20.6-3.42,41.63,0,62.23-4.04-1.39-7.92-3.06-11.75-4.95l-.06-.03ZM125.6,161.6c-7.32,14.72-16.87,23.16-26.17,23.16s-18.88-8.45-26.17-23.16c-1.88-3.83-3.52-7.77-4.91-11.81,10.28,1.72,20.68,2.58,31.11,2.56,10.42.02,20.83-.84,31.11-2.56-1.39,4.04-3.05,7.93-4.93,11.76l-.03.05ZM161.61,125.58c-3.83,1.88-7.75,3.56-11.79,4.94,1.73-10.28,2.58-20.68,2.56-31.11.02-10.42-.84-20.83-2.56-31.11,4.04,1.38,7.98,3.02,11.81,4.91,14.72,7.32,23.16,16.87,23.16,26.17s-8.44,18.88-23.16,26.17h-.02Z"/>
</svg>