<svg width="616" height="619" viewBox="0 0 616 619" fill="none" xmlns="http://www.w3.org/2000/svg">
<path fill-rule="evenodd" clip-rule="evenodd" d="M252.934 17.5874C122.729 17.5874 16.9664 125.181 17.325 257.752L17.325 257.763V361.225C17.325 493.833 122.871 601.413 252.934 601.413H362.943C492.896 601.413 598.676 494.066 598.676 361.225V257.775C598.676 125.173 493.012 17.5874 362.943 17.5874H252.934ZM0.000818799 257.787C-0.376673 115.898 112.886 0.263184 252.934 0.263184H362.943C502.884 0.263184 616 115.912 616 257.775V361.225C616 503.344 502.752 618.737 362.943 618.737H252.934C112.987 618.737 0.000818799 503.082 0.000818799 361.225V257.787Z" fill="url(#paint0_linear_145_1024)"/>
<path d="M168.784 367.289V362.711C168.784 361.226 168.784 359.741 169.031 358.132L243.401 358.875C243.154 360.483 243.03 362.092 242.906 363.701V372.734C242.906 374.219 243.154 375.58 243.401 377.065L169.031 376.323C168.784 374.838 168.784 373.353 168.784 371.744V367.289ZM252.93 331.527C251.074 334.497 249.465 337.591 248.227 340.808C246.866 344.149 245.753 347.614 245.01 351.079L169.65 350.336C170.145 346.995 170.64 343.654 171.258 340.313C171.877 336.972 172.62 333.878 173.362 330.537L252.93 331.527ZM244.763 386.346C246.248 392.038 248.227 397.607 250.826 402.804L172.372 402.061C171.63 399.215 171.258 396.617 170.763 394.018C170.269 391.419 170.021 388.573 169.65 385.851L244.763 386.346ZM290.424 304.675C283.99 306.16 277.802 308.634 272.11 312.347C266.542 315.935 261.716 320.266 257.632 325.464L175.218 324.474C176.332 320.638 177.817 317.049 179.178 313.46C180.539 309.872 182.272 306.531 183.88 303.19L290.424 304.675ZM446.466 301.705L185.984 298.859C188.211 294.775 190.686 290.692 193.409 286.979C196.007 283.143 198.73 279.678 201.823 276.213L446.589 278.812L446.466 301.705ZM444.857 456.756L196.75 454.158L192.047 447.476C190.439 445.248 188.954 442.897 187.593 440.546L444.981 443.145L444.857 456.756ZM358.112 250.722C363.31 254.806 368.259 259.26 372.838 264.087L375.684 256.662C375.932 255.919 376.426 254.929 376.674 254.063C377.045 252.95 377.416 251.96 377.911 250.97L447.208 251.712L446.961 276.09L204.917 273.491C209.248 268.789 213.95 264.334 218.9 260.374C224.097 256.538 229.171 252.702 234.616 249.361L358.112 250.722ZM222.736 480.02C217.786 476.432 213.208 472.472 208.877 468.141L444.733 470.492L444.486 482.124L377.54 481.134L374.323 471.111C372.714 472.719 371.105 474.452 369.621 476.061C368.136 477.793 366.403 479.402 364.671 480.887L222.736 480.02ZM302.18 231.666C311.832 231.666 321.36 233.274 330.517 236.492C339.427 239.585 347.965 243.916 355.761 249.113L237.833 247.876C257.384 236.987 279.658 231.294 302.18 231.666ZM299.581 506.254C291.043 506.254 282.505 505.264 274.09 503.408C266.047 501.676 258.127 499.201 250.455 495.983L342.149 496.973C328.909 503.284 314.307 506.502 299.581 506.254ZM446.342 327.444L352.544 326.454C348.337 321.256 343.387 316.678 337.818 313.089C332.25 309.377 326.063 306.655 319.504 304.922L446.589 306.407L446.342 327.444ZM359.35 414.807C364.918 420.994 331.012 425.573 338.561 429.409L181.529 427.8C180.416 425.202 179.178 422.727 178.312 420.376C177.322 417.901 176.456 415.302 175.466 412.951L359.35 414.807ZM445.228 430.523L330.022 429.285C337.447 425.697 344.129 420.747 349.698 414.683L445.228 415.673V430.523ZM353.658 387.336C359.226 394.266 325.32 399.215 332.745 403.546L175.713 401.938C174.6 399.339 173.362 396.493 172.496 393.894C171.63 391.296 170.64 388.45 169.65 385.727L353.658 387.336ZM439.289 404.784L324.083 403.546C331.631 399.463 338.313 394.018 343.758 387.336L439.289 388.326V404.784ZM445.847 353.306L365.166 352.316C364.3 348.851 363.062 345.387 361.701 342.045C360.34 338.704 358.607 335.611 356.751 332.517L446.095 333.507L445.847 353.306ZM445.476 404.784L357.741 403.794C359.226 401.319 360.587 398.597 361.701 395.874C362.815 393.276 363.805 390.429 364.795 387.583L445.723 388.573L445.476 404.784ZM367.269 369.64C367.269 366.547 367.022 363.206 366.774 360.112L446.095 361.102L445.847 379.169L366.527 378.426C366.774 375.456 367.269 372.61 367.269 369.64ZM437.927 237.358C443.991 237.358 447.084 240.451 447.084 246.886V249.98L378.53 249.237C379.891 246.267 381.5 243.297 383.48 240.699C385.212 238.224 387.935 236.863 390.905 236.863L437.927 237.358ZM391.523 504.15C389.543 504.398 387.687 503.779 386.079 502.542C384.717 501.057 383.851 499.201 383.232 497.345L444.362 498.087C443.372 502.666 440.402 504.769 435.205 504.769L391.523 504.15ZM381.253 378.303L242.04 376.818L242.288 358.751L381.5 360.236L381.253 378.303ZM381.5 352.564L242.288 351.079L242.535 331.527L381.747 333.012L381.5 352.564ZM382.861 326.577L243.649 325.092L243.896 303.932L383.109 305.293L382.861 326.577Z" fill="url(#paint1_linear_145_1024)"/>
<path d="M357.869 169.421C359.725 171.154 360.963 173.505 361.086 176.104C361.086 178.826 359.849 181.425 357.869 183.281L340.05 200.853C336.956 204.565 331.512 205.06 327.799 201.966C327.428 201.595 327.057 201.224 326.686 200.853L298.596 172.268L271.001 201.347C267.907 205.06 262.462 205.679 258.626 202.585C258.131 202.337 257.884 201.842 257.512 201.347L239.198 183.528C237.095 181.796 235.857 179.197 235.981 176.351C236.228 173.753 237.342 171.401 239.198 169.669L292.037 115.84C292.903 114.974 293.77 114.232 294.883 113.737C296.121 112.994 297.606 112.747 299.091 112.747C300.452 112.747 301.813 112.994 303.05 113.489C304.164 114.108 305.154 114.974 306.02 115.84L357.869 169.421Z" fill="url(#paint2_linear_145_1024)"/>
<defs>
<linearGradient id="paint0_linear_145_1024" x1="308" y1="0.263184" x2="308" y2="618.737" gradientUnits="userSpaceOnUse">
<stop stop-color="#1AD5C7"/>
<stop offset="1" stop-color="#0E6F68"/>
</linearGradient>
<linearGradient id="paint1_linear_145_1024" x1="307.996" y1="231.648" x2="307.996" y2="506.267" gradientUnits="userSpaceOnUse">
<stop stop-color="#1AD5C7"/>
<stop offset="1" stop-color="#0E6F68"/>
</linearGradient>
<linearGradient id="paint2_linear_145_1024" x1="298.529" y1="112.747" x2="298.529" y2="204.566" gradientUnits="userSpaceOnUse">
<stop stop-color="#1AD5C7"/>
<stop offset="1" stop-color="#0E6F68"/>
</linearGradient>
</defs>
</svg>
