<svg width="156" height="48" viewBox="0 0 156 48" fill="none" xmlns="http://www.w3.org/2000/svg">
<path d="M65.349 10.587L55.905 37.413H61.092L63.309 30.798H73.395L75.618 37.413H80.805L71.349 10.587H65.349ZM64.62 26.895L68.244 16.089H68.454L72.084 26.895H64.62Z" fill="#F5F5F5"/>
<path d="M89.619 26.016H101.301V21.945H89.619V14.661H102.204V10.587H84.759V37.413H102.309V33.339H89.619V26.016Z" fill="#F5F5F5"/>
<path d="M122.376 26.562C123.792 25.878 124.863 24.903 125.592 23.64C126.321 22.377 126.687 20.886 126.687 19.167C126.687 17.448 126.327 15.957 125.607 14.667C124.887 13.38 123.825 12.378 122.424 11.661C121.023 10.944 119.292 10.587 117.231 10.587H107.172V37.413H112.032V27.588H116.976L122.247 37.413H127.671L121.866 26.787C122.04 26.715 122.214 26.64 122.379 26.559L122.376 26.562ZM112.029 14.649H116.481C117.693 14.649 118.686 14.826 119.454 15.18C120.222 15.534 120.795 16.05 121.17 16.725C121.545 17.403 121.734 18.216 121.734 19.167C121.734 20.118 121.548 20.919 121.176 21.57C120.804 22.221 120.234 22.713 119.466 23.049C118.698 23.385 117.711 23.553 116.505 23.553H112.026V14.646L112.029 14.649Z" fill="#F5F5F5"/>
<path d="M150.351 37.413H155.538L146.082 10.587H140.082L130.638 37.413H135.825L138.042 30.798H148.128L150.351 37.413ZM139.353 26.895L142.977 16.089H143.187L146.817 26.895H139.353Z" fill="#F5F5F5"/>
<path fill-rule="evenodd" clip-rule="evenodd" d="M0 24C0 10.749 10.749 0 24 0C37.251 0 48 10.749 48 24C48 37.251 37.251 48 24 48C10.749 48 0 37.251 0 24ZM37.677 13.749L39.654 17.172H39.66L25.983 25.068V33.234C30.297 32.319 33.546 28.506 33.546 23.925C33.546 23.844 33.54 23.76 33.537 23.679C33.534 23.622 33.531 23.565 33.528 23.505L37.395 22.281C37.461 22.824 37.5 23.373 37.5 23.928C37.5 30.696 32.49 36.315 25.986 37.272V40.863H22.035V25.068L14.949 20.976C14.643 21.909 14.472 22.899 14.472 23.928C14.472 27.603 16.563 30.795 19.614 32.385L18.738 36.348C13.914 34.29 10.518 29.499 10.518 23.928C10.518 22.176 10.86 20.505 11.469 18.972L8.349 17.172L10.326 13.749L24.003 21.645L31.08 17.559C29.337 15.615 26.814 14.388 24.003 14.388C22.116 14.388 20.361 14.946 18.879 15.894L15.888 13.161C18.144 11.451 20.961 10.437 24.003 10.437C28.278 10.437 32.088 12.441 34.56 15.552L37.68 13.752L37.677 13.749Z" fill="#E7FD7F"/>
</svg>
