<svg width="201" height="200" viewBox="0 0 201 200" fill="none" xmlns="http://www.w3.org/2000/svg">
<path fill-rule="evenodd" clip-rule="evenodd" d="M100.1 0.254639C44.9676 0.254639 0.245117 44.8731 0.245117 99.8773C0.245117 154.881 44.9676 199.5 100.1 199.5C155.232 199.5 199.955 154.881 199.955 99.8773C199.955 44.8731 155.257 0.254639 100.1 0.254639ZM139.78 99.566C139.78 98.9807 139.742 98.4078 139.705 97.8226L155.794 92.7418C156.069 94.9833 156.218 97.2497 156.218 99.566C156.218 127.709 135.411 150.996 108.301 154.956V169.875H91.8744V104.31L62.3548 87.3124C61.0942 91.1728 60.3952 95.2822 60.3952 99.566C60.3952 114.821 69.095 128.083 81.8016 134.695L78.1569 151.133C58.0486 142.615 43.9441 122.741 43.9441 99.566C43.9441 92.2935 45.3421 85.3573 47.8759 78.9814L34.9447 71.5346L43.1702 57.326L100.088 90.0894L129.432 73.1909C122.205 65.0965 111.795 59.966 100.075 59.966C92.2239 59.966 84.9096 62.2573 78.731 66.2048L66.2742 54.8478C75.673 47.7622 87.381 43.5656 100.063 43.5656C117.887 43.5656 133.751 51.8592 144.036 64.7728L156.98 57.3135L165.205 71.5222L108.288 104.298V138.294C126.237 134.509 139.755 118.581 139.755 99.5535L139.78 99.566Z" fill="#E7FD7F"/>
</svg>
