<svg width="201" height="200" viewBox="0 0 201 200" fill="none" xmlns="http://www.w3.org/2000/svg">
<path fill-rule="evenodd" clip-rule="evenodd" d="M100.328 0.254639C45.1952 0.254639 0.472656 44.8731 0.472656 99.8773C0.472656 154.881 45.1952 199.5 100.328 199.5C155.46 199.5 200.182 154.881 200.182 99.8773C200.182 44.8731 155.485 0.254639 100.328 0.254639ZM140.007 99.566C140.007 98.9807 139.97 98.4078 139.932 97.8226L156.022 92.7418C156.296 94.9833 156.446 97.2497 156.446 99.566C156.446 127.709 135.639 150.996 108.528 154.956V169.875H92.102V104.31L62.5824 87.3124C61.3217 91.1728 60.6227 95.2822 60.6227 99.566C60.6227 114.821 69.3226 128.083 82.0291 134.695L78.3844 151.133C58.2761 142.615 44.1716 122.741 44.1716 99.566C44.1716 92.2935 45.5696 85.3573 48.1034 78.9814L35.1722 71.5346L43.3978 57.326L100.315 90.0894L129.66 73.1909C122.433 65.0965 112.023 59.966 100.303 59.966C92.4515 59.966 85.1371 62.2573 78.9586 66.2048L66.5017 54.8478C75.9005 47.7622 87.6085 43.5656 100.29 43.5656C118.114 43.5656 133.979 51.8592 144.264 64.7728L157.207 57.3135L165.433 71.5222L108.516 104.298V138.294C126.465 134.509 139.982 118.581 139.982 99.5535L140.007 99.566Z" fill="#161F59"/>
</svg>
