<svg width="43" height="42" viewBox="0 0 43 42" fill="none" xmlns="http://www.w3.org/2000/svg">
<path d="M0.490234 15.7196C0.490234 10.1592 0.490234 7.37906 1.5895 5.26289C2.51583 3.47962 3.96985 2.0256 5.75313 1.09926C7.8693 0 10.6495 0 16.2098 0H26.7707C32.331 0 35.1112 0 37.2273 1.09926C39.0106 2.0256 40.4646 3.47962 41.391 5.26289C42.4902 7.37906 42.4902 10.1592 42.4902 15.7196V26.2804C42.4902 31.8408 42.4902 34.6209 41.391 36.7371C40.4646 38.5204 39.0106 39.9744 37.2273 40.9007C35.1112 42 32.331 42 26.7707 42H16.2098C10.6495 42 7.8693 42 5.75313 40.9007C3.96985 39.9744 2.51583 38.5204 1.5895 36.7371C0.490234 34.6209 0.490234 31.8408 0.490234 26.2804V15.7196Z" fill="black"/>
<path fill-rule="evenodd" clip-rule="evenodd" d="M14.6071 31.9552C12.8242 30.4537 11.9336 28.4402 11.9336 25.9153V9.84375H16.8174V25.5401C16.8174 28.0309 18.2794 29.6005 21.4523 29.6005C24.6252 29.6005 26.0865 28.0309 26.0865 25.5401V9.84375H31.0059V25.9153C31.0059 28.4402 30.1153 30.4537 28.3324 31.9552C26.5496 33.4566 24.2681 34.207 21.4523 34.207C18.6706 34.207 16.3891 33.4566 14.6071 31.9552Z" fill="#F5F5F5"/>
</svg>
