<svg version="1.1" xmlns="http://www.w3.org/2000/svg" width="1024" height="1024" viewBox="0 0 1024 1024">
  <title>SMARDEX</title>
  <path fill="#00e9b1"
        d="M961.665 278.447c-0.017-16.71-9.042-31.309-22.479-39.204l-0.213-0.116-404.385-233.094c-6.499-3.794-14.308-6.034-22.64-6.034s-16.14 2.241-22.857 6.151l0.216-0.116-404.071 233.408c-13.734 7.915-22.845 22.494-22.902 39.207v466.613c0.090 16.601 9.1 31.078 22.478 38.89l0.214 0.115 404.279 233.617c6.487 3.844 14.298 6.115 22.64 6.115s16.153-2.271 22.849-6.229l-0.209 0.114 404.385-233.617c13.592-7.929 22.602-22.405 22.693-38.993v-0.013zM835.132 672.164c-0.152 16.555-9.144 30.976-22.478 38.785l-0.214 0.116-277.851 160.729c-6.487 3.844-14.298 6.115-22.64 6.115s-16.153-2.271-22.849-6.229l0.209 0.114-277.746-160.729c-13.662-7.993-22.693-22.595-22.693-39.305 0-0.005 0-0.010 0-0.016v0.001-119.318l300.438 173.278c6.512 3.813 14.339 6.064 22.693 6.064s16.18-2.252 22.908-6.18l-0.215 0.116 110.534-63.79v-145.88l-103.109 59.92c-6.537 3.85-14.401 6.124-22.797 6.124s-16.26-2.274-23.010-6.241l0.213 0.116-307.445-177.774v-46.431c0.017-16.71 9.042-31.309 22.479-39.204l0.213-0.116 277.538-160.31c6.516-3.793 14.343-6.032 22.693-6.032s16.175 2.24 22.911 6.15l-0.219-0.117 277.538 160.101c13.651 8.010 22.675 22.61 22.693 39.317v119.948l-126.534-73.201-173.696-100.077c-6.439-3.813-14.192-6.066-22.47-6.066-0.078 0-0.156 0-0.234 0.001h0.012c-0.039 0-0.085 0-0.131 0-8.344 0-16.163 2.252-22.882 6.181l0.214-0.116-110.011 63.685h-0.732v146.402l103.005-59.816c6.514-3.871 14.362-6.16 22.745-6.16s16.23 2.289 22.953 6.274l-0.208-0.114 181.539 104.573v-0.836l126.638 73.201z"/>
</svg>
