<svg width="256" height="256" viewBox="0 0 256 256" fill="none" xmlns="http://www.w3.org/2000/svg">
<rect width="256" height="256" fill="#050908"/>
<path d="M136.967 148.744V228H119.033V157.519C119.033 156.654 118.689 155.825 118.078 155.213C116.804 153.94 114.739 153.94 113.466 155.213L63.5115 205.174L50.8262 192.489L100.785 142.531C102.058 141.259 102.058 139.195 100.785 137.922C100.174 137.311 99.3447 136.967 98.4802 136.967H28V119.033H107.256L136.967 148.744Z" fill="#E9F2F0"/>
<path d="M136.967 98.4802C136.967 99.3447 137.311 100.174 137.922 100.785C139.195 102.058 141.259 102.058 142.531 100.785L192.489 50.8262L205.174 63.5115L155.213 113.466C153.94 114.739 153.94 116.804 155.213 118.078C155.825 118.689 156.654 119.033 157.519 119.033H228V136.967H148.744L119.033 107.256V28H136.967V98.4802Z" fill="#E9F2F0"/>
</svg>
