<svg width="546" height="84" viewBox="0 0 546 84" fill="none" xmlns="http://www.w3.org/2000/svg">
<g clip-path="url(#clip0_101_287)">
<path d="M0 12.134L37.4967 0V84C10.713 72.799 0 51.3325 0 39.201V12.134Z" fill="#0500FF"/>
<path d="M74.9962 12.134L37.4995 0V84C64.2832 72.799 74.9962 51.3325 74.9962 39.201V12.134Z" fill="url(#paint0_linear_101_287)"/>
<path d="M140.844 19.8149H155.716V28.1085C160.588 20.6549 166.195 19.8149 174.403 19.8149V34.4714H170.665C160.83 34.4714 156.121 39.0795 156.121 48.2078V63.7869H140.844V19.8149Z" fill="#0500FF"/>
<path d="M224.022 63.7844H208.748V59.5925C205.413 63.4459 200.867 65.1206 195.263 65.1206C184.62 65.1206 178.603 58.8378 178.603 47.2827V19.8125H193.877V43.8531C193.877 49.2934 196.558 52.4749 201.106 52.4749C205.654 52.4749 208.746 49.3735 208.746 44.1012V19.8125H224.02V63.7844H224.022Z" fill="#0500FF"/>
<path d="M227.755 50.211H242.06C242.712 53.3924 244.905 54.7312 250.183 54.7312C254.492 54.7312 257.01 53.7284 257.01 51.8857C257.01 50.4591 255.79 49.5364 252.301 48.7843L240.763 46.187C233.043 44.4321 229.141 39.992 229.141 32.8693C229.141 23.4851 236.046 18.6289 249.453 18.6289C262.861 18.6289 269.441 23.361 270.583 33.4999H256.366C256.125 30.8224 253.357 29.1838 248.81 29.1838C245.155 29.1838 242.803 30.3546 242.803 32.1172C242.803 33.6239 244.342 34.7947 247.436 35.5545L259.541 38.4879C267.502 40.4107 271.326 44.4347 271.326 50.9656C271.326 60.0138 263.442 65.374 250.043 65.374C236.643 65.374 227.778 59.5951 227.778 50.211H227.763H227.755Z" fill="#0500FF"/>
<path d="M312 33.4894V19.8125H274.298V33.4972H285.549V63.7844H300.745V33.4894H312Z" fill="#0500FF"/>
<path d="M136.592 33.4894V19.8125H98.8931V33.4972H110.143V63.7844H125.342V33.4894H136.592Z" fill="#0500FF"/>
</g>
<path d="M334.99 63L323.257 20.0909H328.537L337.504 55.0384H337.923L347.058 20.0909H352.925L362.06 55.0384H362.479L371.446 20.0909H376.726L364.993 63H359.629L350.159 28.8068H349.824L340.354 63H334.99ZM379.848 63H374.401L390.156 20.0909H395.52L411.276 63H405.828L401.512 50.848H384.164L379.848 63ZM385.798 46.2386H399.878L393.006 26.8793H392.671L385.798 46.2386ZM416.189 63V20.0909H421.385V58.3906H441.331V63H416.189ZM447.607 63V20.0909H452.803V58.3906H472.749V63H447.607ZM479.024 63V20.0909H504.921V24.7003H484.22V39.1989H503.58V43.8082H484.22V58.3906H505.256V63H479.024ZM510.169 24.7003V20.0909H542.351V24.7003H528.858V63H523.662V24.7003H510.169Z" fill="#0500FF"/>
<defs>
<linearGradient id="paint0_linear_101_287" x1="65.036" y1="-5.88222" x2="36.938" y2="82.9237" gradientUnits="userSpaceOnUse">
<stop offset="0.02" stop-color="#0000FF"/>
<stop offset="0.08" stop-color="#0094FF"/>
<stop offset="0.16" stop-color="#48FF91"/>
<stop offset="0.42" stop-color="#0094FF"/>
<stop offset="0.68" stop-color="#0038FF"/>
<stop offset="0.9" stop-color="#0500FF"/>
</linearGradient>
<clipPath id="clip0_101_287">
<rect width="312" height="84" fill="white"/>
</clipPath>
</defs>
</svg>
