<svg width="152" height="48" viewBox="0 0 152 48" fill="none" xmlns="http://www.w3.org/2000/svg">
<path d="M118.957 48V0H125.507V28.7143H125.741L142.643 12.9351H150.655L134.572 27.4285L152 48H144.046L130.127 31.461L125.507 35.2013V48H118.957Z" fill="black"/>
<path d="M81.5814 48V20.347H78.2029V13.7194H85.1929V18.9758H87.6394C88.8432 17.0713 90.4936 15.6239 92.5906 14.6336C94.6876 13.6051 97.1535 13.0909 99.9883 13.0909C104.493 13.0909 108.046 14.3669 110.648 16.9189C113.25 19.4328 114.551 22.8038 114.551 27.0317V48H108.027V28.1173C108.027 25.032 107.172 22.6895 105.464 21.0897C103.794 19.49 101.328 18.6901 98.066 18.6901C94.8429 18.6901 92.377 19.49 90.6683 21.0897C88.9597 22.6895 88.1054 25.032 88.1054 28.1173V48H81.5814Z" fill="black"/>
<path d="M68.1085 48V13.0909H74.6878V48H68.1085ZM71.398 7.91272C70.3015 7.91272 69.3616 7.52484 68.5783 6.74908C67.7951 5.97333 67.4034 5.04242 67.4034 3.95636C67.4034 2.8703 67.7951 1.93939 68.5783 1.16363C69.3616 0.387878 70.3015 0 71.398 0C72.4946 0 73.4345 0.387878 74.2177 1.16363C75.001 1.93939 75.3926 2.8703 75.3926 3.95636C75.3926 5.04242 75.001 5.97333 74.2177 6.74908C73.4345 7.52484 72.4946 7.91272 71.398 7.91272Z" fill="black"/>
<path d="M45.2664 48V20.0727H41.8551V13.0909H48.9129V19.8419H51.3831C52.3634 17.7262 53.873 16.0721 55.9119 14.8797C57.9901 13.6872 60.4211 13.0909 63.205 13.0909H66.087V18.6302H62.8521C59.3232 18.6302 56.5981 19.6496 54.6768 21.6884C52.7555 23.7271 51.7948 26.4775 51.7948 29.9396V48H45.2664Z" fill="black"/>
<path d="M0 48V3.32919e-05H23.3633C26.1772 3.32919e-05 28.6146 0.49386 30.6754 1.48151C32.7363 2.46917 34.3414 3.89139 35.4908 5.74818C36.6797 7.56546 37.2742 9.7383 37.2742 12.2667C37.2742 14.9136 36.4618 17.1259 34.8368 18.9037C33.2119 20.642 31.3096 21.7679 29.1298 22.2815V22.5185C30.7547 22.7556 32.3796 23.3482 34.0046 24.2963C35.6295 25.2445 36.977 26.5679 38.0471 28.2667C39.1171 29.9259 39.6522 32 39.6522 34.4889C39.6522 37.2148 38.9982 39.5852 37.6904 41.6C36.4221 43.6148 34.6387 45.1951 32.34 46.3407C30.0413 47.4469 27.4058 48 24.4333 48H0ZM6.83658 42.1926H23.0066C26.0979 42.1926 28.5155 41.4815 30.2593 40.0593C32.0031 38.637 32.875 36.6025 32.875 33.9556C32.875 31.2691 32.0031 29.2543 30.2593 27.9111C28.5155 26.5679 26.1177 25.8963 23.066 25.8963H6.83658V42.1926ZM6.83658 20.3259H22.531C25.0278 20.3259 26.9698 19.6938 28.357 18.4296C29.7837 17.1655 30.4971 15.3877 30.4971 13.0963C30.4971 10.7259 29.7837 8.92842 28.357 7.70373C26.9698 6.43953 25.0278 5.80744 22.531 5.80744H6.83658V20.3259Z" fill="black"/>
</svg>
