<svg width="140" height="24" viewBox="0 0 140 24" fill="none" xmlns="http://www.w3.org/2000/svg">
<path d="M33.8398 6.21387C35.3877 6.21389 36.9116 6.59599 38.2764 7.32617C39.5577 8.05459 40.6069 9.1313 41.3008 10.4316C42.0117 11.7575 42.3671 13.2873 42.3672 15.0205C42.3672 16.7538 42.007 18.2843 41.2871 19.6113C40.5955 20.91 39.5507 21.9874 38.2734 22.7178C36.9088 23.4479 35.3846 23.83 33.8369 23.8301C32.289 23.8301 30.7642 23.448 29.3994 22.7178C28.1184 21.9894 27.0711 20.9117 26.3779 19.6113C25.658 18.282 25.2979 16.7516 25.2979 15.0205C25.2979 13.2895 25.658 11.7598 26.3779 10.4316C27.0714 9.13057 28.1208 8.05347 29.4033 7.32617C30.7681 6.596 32.292 6.21387 33.8398 6.21387ZM84.4736 23.627H82.0762L81.7041 20.8594C80.2643 22.8392 78.2956 23.829 75.7979 23.8291C74.3082 23.8561 72.8367 23.4959 71.5283 22.7832C70.2732 22.0804 69.2521 21.0241 68.5918 19.7461C67.883 18.4179 67.5283 16.8422 67.5283 15.0195C67.5283 13.2884 67.883 11.7589 68.5918 10.4307C69.2655 9.13658 70.2896 8.0578 71.5479 7.31934C72.8377 6.56832 74.3084 6.18343 75.8008 6.20605C77.1971 6.20607 78.39 6.45924 79.3789 6.96484C80.3278 7.43467 81.1327 8.15209 81.708 9.04102V0H84.4736V23.627ZM94.376 6.21191C95.831 6.18291 97.271 6.51885 98.5625 7.18945C99.7695 7.83946 100.763 8.82518 101.424 10.0264C102.12 11.264 102.491 12.715 102.538 14.3789C102.537 14.6267 102.514 15.0213 102.47 15.5615H89.1035V15.7939C89.1493 17.4815 89.6673 18.8314 90.6562 19.8438C91.6452 20.856 92.9397 21.3623 94.5391 21.3623C95.7755 21.3633 96.8272 21.0539 97.6943 20.4346C98.5643 19.8104 99.1816 18.8944 99.4326 17.8535H102.233C101.933 19.5449 101.035 21.0724 99.7021 22.1562C98.3527 23.2723 96.6988 23.8301 94.7412 23.8301C93.0302 23.8312 91.5334 23.4655 90.251 22.7334C88.9754 22.0096 87.9372 20.9307 87.2637 19.6279C86.5549 18.2897 86.2012 16.7538 86.2012 15.0205C86.2012 13.2672 86.5465 11.7258 87.2373 10.3965C87.8834 9.11185 88.8857 8.03951 90.124 7.30859C91.4151 6.56306 92.8853 6.18367 94.376 6.21191ZM110.604 6.1748C112.628 6.17484 114.276 6.64743 115.549 7.59277C116.821 8.53815 117.524 9.889 117.658 11.6436H114.891C114.837 11.2017 114.692 10.7748 114.466 10.3916C114.239 10.0085 113.935 9.67611 113.574 9.41602C112.81 8.83142 111.853 8.53912 110.705 8.53906C109.538 8.53906 108.594 8.78138 107.874 9.26562C107.154 9.75004 106.794 10.386 106.794 11.1729C106.794 11.7587 106.961 12.2077 107.296 12.5225C107.662 12.852 108.112 13.0742 108.596 13.165C109.125 13.2777 109.93 13.4013 111.01 13.5352C112.273 13.6662 113.521 13.9149 114.738 14.2783C115.653 14.5523 116.473 15.0787 117.103 15.7969C117.698 16.4933 117.996 17.4387 117.996 18.6328C118.011 19.6204 117.691 20.5842 117.086 21.3652C116.441 22.1813 115.59 22.8107 114.621 23.1885C113.527 23.6268 112.357 23.8451 111.179 23.8301C108.929 23.829 107.122 23.3117 105.761 22.2783C104.399 21.2448 103.707 19.8041 103.685 17.957H106.447C106.463 18.4561 106.595 18.9445 106.832 19.3838C107.069 19.8232 107.406 20.2016 107.815 20.4883C108.682 21.141 109.801 21.4678 111.174 21.4678C112.389 21.4655 113.374 21.2232 114.127 20.7412C114.88 20.259 115.257 19.6231 115.257 18.834C115.256 18.1601 115.076 17.6427 114.717 17.2822C114.33 16.9076 113.844 16.6499 113.316 16.54C112.743 16.4039 111.927 16.2687 110.869 16.1348C109.636 16.0045 108.416 15.7669 107.224 15.4248C106.346 15.175 105.553 14.6913 104.929 14.0254C104.344 13.3836 104.052 12.5001 104.052 11.375C104.038 10.4053 104.34 9.45763 104.912 8.6748C105.516 7.86367 106.325 7.22777 107.256 6.83301C108.313 6.38018 109.454 6.15569 110.604 6.1748ZM18.4199 2.57617H9.27344C7.86215 2.57633 6.71777 3.72477 6.71777 5.1416C6.71782 6.5584 7.86218 7.70687 9.27344 7.70703H18.4199V10.2793H8.31641C8.8832 10.3084 9.41638 10.4374 9.83008 10.7148C10.3216 11.0446 10.6182 11.5673 10.6182 12.2881V23.6309H7.80078V11.9463C7.80078 11.7362 7.62824 11.5625 7.41895 11.5625H0V8.99121H7.80078C6.77835 8.94689 5.84132 8.63766 5.13867 8.07031C4.37126 7.45063 3.90039 5.97926 3.90039 4.82031C3.90052 2.16114 6.04939 0.00391091 8.69824 0.00390625H18.4199V2.57617ZM126.954 14.3086C126.766 14.4989 126.66 14.7559 126.66 15.0234C126.66 15.291 126.765 15.5476 126.953 15.7383L134.614 23.6279H130.722L124.95 17.6807C124.254 16.9706 123.864 16.0158 123.864 15.0215C123.864 14.027 124.254 13.0715 124.95 12.3613L130.73 6.41309H134.624L126.954 14.3086ZM23.4766 23.627H20.709V0H23.4766V23.627ZM122.468 23.627H119.673V0H122.468V23.627ZM49.3252 20.2725L53.8086 6.38672H56.3516L60.6016 20.2725L65.0518 6.38672H67.8291L62.0693 23.6162H59.1504L55.0127 10.7695L50.6836 23.6162H47.7188L42.1973 6.38672H45.0762L49.3252 20.2725ZM33.8359 8.67578C32.7858 8.67578 31.7539 8.95481 30.8477 9.48535C29.9755 10.0318 29.2786 10.8176 28.8389 11.748C28.3542 12.77 28.1111 13.8896 28.1289 15.0205C28.1108 16.1521 28.3538 17.2733 28.8389 18.2959C29.2786 19.2262 29.9757 20.0112 30.8477 20.5576C31.7543 21.0872 32.786 21.3662 33.8359 21.3662C34.8857 21.3661 35.9168 21.0871 36.8232 20.5576C37.6953 20.0112 38.3932 19.2263 38.833 18.2959C39.3186 17.2735 39.5607 16.1522 39.542 15.0205C39.5607 13.8896 39.3185 12.7696 38.833 11.748C38.3932 10.8176 37.6953 10.0318 36.8232 9.48535C35.9171 8.95496 34.8859 8.67585 33.8359 8.67578ZM76.0752 8.67383C74.3666 8.67277 72.9885 9.26438 71.9404 10.4473C70.8923 11.6304 70.3689 13.1529 70.3711 15.0146C70.3711 16.883 70.8946 18.408 71.9404 19.5889C72.9862 20.7694 74.3644 21.3603 76.0752 21.3604C77.1143 21.3778 78.1383 21.1034 79.0293 20.5684C79.8997 20.0349 80.5973 19.2607 81.0381 18.3398L81.0332 18.3447C81.5208 17.3294 81.7655 16.2141 81.748 15.0879C81.7668 13.9402 81.524 12.8027 81.0381 11.7627C80.6023 10.8255 79.9046 10.0341 79.0293 9.48438C78.1419 8.9391 77.1166 8.65779 76.0752 8.67383ZM94.4033 8.63477C93.1366 8.61998 91.9093 9.07705 90.9609 9.91699C90.4722 10.3357 90.0709 10.8472 89.7812 11.4219C89.4916 11.9966 89.3193 12.6236 89.2734 13.2656L99.6689 13.2588C99.5339 11.7968 98.9876 10.6609 98.0312 9.85059C97.0748 9.04032 95.8654 8.63483 94.4033 8.63477ZM138.072 6.69629H137.608V7.81641H137.296V6.69629H136.832V6.41504H138.072V6.69629ZM139.119 7.43652L139.573 6.41504H140V7.81641H139.708V6.75879L139.239 7.81641H138.984L138.525 6.75879V7.81641H138.233V6.41504H138.661L139.119 7.43652Z" fill="#0F0F0F"/>
</svg>
