<svg width="121" height="21" viewBox="0 0 121 21" fill="none" xmlns="http://www.w3.org/2000/svg">
<path d="M81.5605 5.36816C82.8179 5.34308 84.0626 5.63443 85.1787 6.21387C86.2217 6.77558 87.0805 7.62709 87.6514 8.66504C88.2532 9.73469 88.5747 10.9887 88.6152 12.4268C88.6143 12.6409 88.5942 12.9815 88.5557 13.4482H77.0049V13.6494C77.0445 15.1077 77.4912 16.2746 78.3457 17.1494C79.2002 18.0242 80.3191 18.4618 81.7012 18.4619C82.7698 18.4629 83.6793 18.1953 84.4287 17.6602C85.1807 17.1206 85.7138 16.3284 85.9307 15.4287H88.3516C88.0922 16.8905 87.3158 18.2107 86.1641 19.1475C84.9979 20.1119 83.5678 20.5947 81.876 20.5947C80.3977 20.5956 79.1042 20.279 77.9961 19.6465C76.8939 19.0209 75.9961 18.0887 75.4141 16.9629C74.8016 15.8064 74.4951 14.4784 74.4951 12.9805C74.4952 11.4653 74.7946 10.1331 75.3916 8.98438C75.9499 7.87436 76.8157 6.94804 77.8857 6.31641C79.0015 5.67204 80.2723 5.34386 81.5605 5.36816ZM29.2441 5.37012C30.5818 5.37012 31.8997 5.70006 33.0791 6.33105C34.1864 6.96053 35.0927 7.89195 35.6924 9.01562C36.3067 10.1615 36.6133 11.4836 36.6133 12.9814C36.6133 14.4792 36.3027 15.8015 35.6807 16.9482C35.083 18.0705 34.1799 19.0017 33.0762 19.6328C31.8967 20.2638 30.5789 20.5938 29.2412 20.5938C27.9038 20.5936 26.5865 20.2638 25.4072 19.6328C24.3003 19.0033 23.3939 18.0719 22.7949 16.9482C22.173 15.7996 21.8623 14.4772 21.8623 12.9814C21.8623 11.4856 22.173 10.1634 22.7949 9.01562C23.3942 7.89121 24.3018 6.95965 25.4102 6.33105C26.5894 5.70013 27.9067 5.37023 29.2441 5.37012ZM73.0029 20.4189H70.9307L70.6094 18.0273C69.365 19.7381 67.6634 20.5937 65.5049 20.5938C64.2176 20.617 62.946 20.3053 61.8154 19.6895C60.7308 19.082 59.8479 18.1689 59.2773 17.0645C58.665 15.9167 58.3584 14.5554 58.3584 12.9805C58.3584 11.4846 58.665 10.1624 59.2773 9.01465C59.8595 7.89635 60.7457 6.96437 61.833 6.32617C62.9476 5.67725 64.2182 5.3438 65.5078 5.36328C66.7144 5.36329 67.745 5.58271 68.5996 6.01953C69.4197 6.42553 70.1151 7.04529 70.6123 7.81348V0H73.0029V20.4189ZM95.5859 5.33691C97.3345 5.33697 98.7588 5.74568 99.8584 6.5625C100.958 7.3795 101.566 8.54626 101.682 10.0625H99.29C99.2437 9.68061 99.1186 9.31166 98.9229 8.98047C98.7271 8.64943 98.4644 8.36243 98.1523 8.1377C97.4917 7.63252 96.6651 7.37996 95.6729 7.37988C94.6641 7.37994 93.8477 7.58924 93.2256 8.00781C92.6038 8.42635 92.2921 8.97553 92.292 9.65527C92.292 10.1616 92.4373 10.5503 92.7266 10.8223C93.0425 11.1069 93.4317 11.2984 93.8496 11.377C94.3068 11.4743 95.0023 11.5816 95.9355 11.6973C97.0272 11.8105 98.1066 12.0258 99.1582 12.3398C99.9488 12.5766 100.657 13.0318 101.201 13.6523C101.716 14.2541 101.974 15.0708 101.974 16.1025C101.987 16.9561 101.709 17.7889 101.187 18.4639C100.629 19.169 99.894 19.7136 99.0566 20.04C98.1114 20.4187 97.1002 20.6067 96.082 20.5938C94.1375 20.5927 92.5762 20.1461 91.3994 19.2529C90.2228 18.3598 89.6248 17.1147 89.6055 15.5186H91.9932C92.0067 15.9498 92.1201 16.3723 92.3252 16.752C92.5303 17.1315 92.8215 17.4583 93.1748 17.7061C93.9232 18.2702 94.891 18.5526 96.0771 18.5527C97.1274 18.5508 97.9788 18.3413 98.6299 17.9248C99.281 17.5081 99.6064 16.9583 99.6064 16.2764C99.6054 15.6941 99.45 15.2471 99.1396 14.9355C98.8052 14.6119 98.3853 14.3888 97.9297 14.2939C97.4339 14.1763 96.7285 14.06 95.8145 13.9443C94.7488 13.8317 93.6941 13.6266 92.6641 13.3311C91.9056 13.1152 91.2199 12.6965 90.6807 12.1211C90.1754 11.5665 89.9219 10.8031 89.9219 9.83105C89.9098 8.99314 90.1715 8.17359 90.666 7.49707C91.1878 6.79621 91.887 6.24647 92.6914 5.90527C93.605 5.51396 94.5922 5.32046 95.5859 5.33691ZM15.9189 2.22656H8.01465C6.79489 2.22656 5.80568 3.21884 5.80566 4.44336C5.80566 5.6679 6.79488 6.66113 8.01465 6.66113H15.9189V8.88281H7.1875C7.6774 8.908 8.13758 9.02086 8.49512 9.26074C8.9199 9.54575 9.17675 9.99621 9.17676 10.6191V20.4219H6.74219V10.3242C6.74219 10.1427 6.59292 9.99325 6.41211 9.99316H0V7.77051H6.74219C5.85866 7.73224 5.04865 7.4648 4.44141 6.97461C3.77818 6.43909 3.3711 5.16761 3.37109 4.16602C3.37109 1.86782 5.22832 0.00390625 7.51758 0.00390625H15.9189V2.22656ZM20.2881 20.4189H17.8965V0H20.2881V20.4189ZM105.838 20.4189H103.423V0H105.838V20.4189ZM109.716 12.3662C109.553 12.5306 109.461 12.7523 109.461 12.9834C109.461 13.2145 109.552 13.4368 109.714 13.6016L116.335 20.4189H112.972L107.983 15.2803C107.382 14.6666 107.045 13.8408 107.045 12.9814C107.045 12.1223 107.382 11.2972 107.983 10.6836L112.979 5.54199H116.344L109.716 12.3662ZM42.627 17.5195L46.502 5.51953H48.7002L52.3721 17.5195L56.2178 5.51953H58.6182L53.6406 20.4102H51.1182L47.542 9.30762L43.8008 20.4102H41.2383L36.4678 5.51953H38.9551L42.627 17.5195ZM29.2412 7.49805C28.3338 7.49812 27.4413 7.73978 26.6582 8.19824C25.9049 8.67048 25.3018 9.34852 24.9219 10.1523C24.503 11.0356 24.2932 12.004 24.3086 12.9814C24.293 13.9593 24.5028 14.9279 24.9219 15.8115C25.3019 16.6155 25.9047 17.2944 26.6582 17.7666C27.4416 18.2242 28.3339 18.4648 29.2412 18.4648C30.1483 18.4648 31.0399 18.2241 31.8232 17.7666C32.5769 17.2944 33.1795 16.6156 33.5596 15.8115C33.9792 14.928 34.189 13.9594 34.1729 12.9814C34.189 12.0039 33.9793 11.0354 33.5596 10.1523C33.1796 9.34847 32.5767 8.67045 31.8232 8.19824C31.0402 7.7399 30.1485 7.49813 29.2412 7.49805ZM65.7451 7.49609C64.2685 7.49523 63.0766 8.006 62.1709 9.02832C61.2653 10.0507 60.8135 11.3668 60.8154 12.9756C60.8154 14.5902 61.2672 15.9082 62.1709 16.9287C63.0747 17.9492 64.2665 18.4599 65.7451 18.46C66.643 18.4751 67.5279 18.2376 68.2979 17.7754C69.0501 17.3144 69.6533 16.6454 70.0342 15.8496L70.0293 15.8535C70.4507 14.9761 70.6626 14.0123 70.6475 13.0391C70.6637 12.0473 70.454 11.0647 70.0342 10.166C69.6575 9.35594 69.0544 8.67139 68.2979 8.19629C67.531 7.72517 66.645 7.48222 65.7451 7.49609ZM81.584 7.46191C80.4894 7.44928 79.4288 7.84455 78.6094 8.57031C78.1871 8.93213 77.8401 9.37453 77.5898 9.87109C77.3395 10.3678 77.19 10.9101 77.1504 11.4648L86.1348 11.459C86.018 10.1954 85.5464 9.21298 84.7197 8.5127C83.8931 7.81254 82.8475 7.46191 81.584 7.46191ZM119.324 5.78711H118.924V6.75586H118.653V5.78711H118.253V5.54395H119.324V5.78711ZM120.229 6.42676L120.621 5.54395H120.99V6.75586H120.738V5.84082L120.333 6.75586H120.112L119.716 5.84082V6.75586H119.464V5.54395H119.833L120.229 6.42676Z" fill="white"/>
</svg>
