<svg width="716" height="200" viewBox="0 0 716 200" fill="none" xmlns="http://www.w3.org/2000/svg">
<path d="M711.256 90.6742V111.171H631.757V90.6742H711.256ZM650.497 100.923L643.177 146.309L631.611 133.278H715.941V155.825H615.506L623.997 100.923L615.506 46.0201H715.209V68.5668H631.611L643.177 55.5366L650.497 100.923Z" fill="#111010"></path>
<path d="M609.681 110.439C608.608 119.907 605.338 128.252 599.872 135.475C594.406 142.6 587.183 148.163 578.204 152.165C569.224 156.167 558.976 158.168 547.459 158.168C534.868 158.168 523.789 155.776 514.224 150.994C504.757 146.211 497.388 139.525 492.117 130.936C486.846 122.347 484.211 112.342 484.211 100.923C484.211 89.503 486.846 79.4986 492.117 70.9094C497.388 62.3202 504.757 55.6343 514.224 50.8517C523.789 46.069 534.868 43.6777 547.459 43.6777C558.976 43.6777 569.224 45.6786 578.204 49.6804C587.183 53.6822 594.406 59.2456 599.872 66.3708C605.338 73.4959 608.608 81.8411 609.681 91.4063H581.864C580.888 86.4285 578.887 82.1827 575.861 78.6689C572.933 75.1552 569.029 72.471 564.149 70.6166C559.366 68.6645 553.803 67.6884 547.459 67.6884C540.138 67.6884 533.843 69.0549 528.572 71.7878C523.301 74.4231 519.251 78.2297 516.42 83.2075C513.59 88.1853 512.175 94.0904 512.175 100.923C512.175 107.755 513.59 113.66 516.42 118.638C519.251 123.616 523.301 127.471 528.572 130.204C533.843 132.839 540.138 134.157 547.459 134.157C553.803 134.157 559.366 133.23 564.149 131.375C569.029 129.521 572.933 126.837 575.861 123.323C578.887 119.809 580.888 115.515 581.864 110.439H609.681Z" fill="#111010"></path>
<path d="M446.006 46.0201H473.677V155.825H446.006V46.0201Z" fill="#111010"></path>
<path d="M394.809 46.0201C403.789 46.0201 411.5 47.5818 417.942 50.7052C424.481 53.7309 429.459 58.0255 432.875 63.5889C436.389 69.1524 438.146 75.6431 438.146 83.061C438.146 90.479 436.389 96.9697 432.875 102.533C429.459 108.097 424.481 112.44 417.942 115.563C411.5 118.589 403.789 120.102 394.809 120.102H346.788V97.7017H393.345C398.616 97.7017 402.764 96.4328 405.79 93.8951C408.816 91.2598 410.329 87.6484 410.329 83.061C410.329 78.4736 408.816 74.9111 405.79 72.3733C402.764 69.738 398.616 68.4204 393.345 68.4204H349.277L361.722 55.5366V155.825H334.051V46.0201H394.809Z" fill="#111010"></path>
<path d="M212.678 119.955H240.641C241.129 123.274 242.642 126.202 245.18 128.74C247.718 131.277 251.085 133.23 255.282 134.596C259.577 135.962 264.554 136.646 270.215 136.646C278.317 136.646 284.661 135.523 289.248 133.278C293.933 131.033 296.276 127.861 296.276 123.762C296.276 120.639 294.909 118.247 292.176 116.588C289.541 114.831 284.563 113.562 277.243 112.781L256.014 110.585C241.276 109.121 230.588 105.705 223.951 100.337C217.412 94.9686 214.142 87.6483 214.142 78.3759C214.142 71.0555 216.289 64.8088 220.584 59.6358C224.976 54.4628 231.076 50.5098 238.884 47.7769C246.79 45.044 256.014 43.6775 266.555 43.6775C276.999 43.6775 286.223 45.1904 294.226 48.2161C302.23 51.2418 308.623 55.4388 313.405 60.8071C318.188 66.1753 320.774 72.422 321.165 79.5471H293.201C292.811 76.619 291.444 74.1301 289.102 72.0804C286.857 69.9331 283.782 68.2738 279.878 67.1026C276.072 65.8337 271.436 65.1993 265.97 65.1993C258.649 65.1993 252.793 66.2729 248.401 68.4202C244.106 70.4699 241.959 73.4468 241.959 77.351C241.959 80.2791 243.228 82.5728 245.766 84.2321C248.401 85.8914 253.037 87.1115 259.674 87.8923L282.074 90.3812C292.323 91.4549 300.522 93.1629 306.671 95.5054C312.82 97.8479 317.261 101.069 319.994 105.168C322.727 109.268 324.093 114.441 324.093 120.687C324.093 128.203 321.799 134.791 317.212 140.452C312.722 146.016 306.378 150.359 298.179 153.482C290.078 156.606 280.61 158.167 269.776 158.167C258.552 158.167 248.694 156.557 240.202 153.336C231.808 150.115 225.171 145.674 220.291 140.013C215.508 134.254 212.971 127.568 212.678 119.955Z" fill="#111010"></path>
<path d="M29.8244 100C21.5886 91.7642 21.5886 78.4113 29.8244 70.1755L70.1753 29.8245C78.4111 21.5887 91.7641 21.5886 99.9999 29.8245L29.8244 100Z" fill="#111010"></path>
<path d="M99.9998 170.176C108.236 178.411 121.589 178.411 129.824 170.176L170.175 129.825C178.411 121.589 178.411 108.236 170.175 100L99.9998 170.176Z" fill="#111010"></path>
<path d="M99.9998 29.8244C108.236 21.5886 121.589 21.5886 129.824 29.8244L170.175 70.1754C178.411 78.4112 178.411 91.7642 170.175 100L99.9998 29.8244Z" fill="#111010"></path>
<path d="M29.8244 99.9999C21.5886 108.236 21.5886 121.589 29.8244 129.825L70.1753 170.176C78.4111 178.411 91.7641 178.411 99.9999 170.176L29.8244 99.9999Z" fill="#111010"></path>
<path d="M61.4033 100L99.9998 61.4034L138.596 100L99.9998 138.597L61.4033 100Z" fill="#111010"></path>
</svg>