<svg xmlns="http://www.w3.org/2000/svg" viewBox="0 0 200 200" fill="#111010"><path d="M29.8244 99.9998C21.5886 91.764 21.5886 78.4111 29.8244 70.1752L70.1753 29.8242C78.4111 21.5884 91.7641 21.5884 99.9999 29.8242L29.8244 99.9998Z"></path><path d="M99.9998 170.175C108.236 178.411 121.589 178.411 129.824 170.175L170.175 129.824C178.411 121.589 178.411 108.236 170.175 99.9997L99.9998 170.175Z"></path><path d="M99.9998 29.8242C108.236 21.5883 121.589 21.5883 129.824 29.8242L170.175 70.1752C178.411 78.411 178.411 91.7639 170.175 99.9998L99.9998 29.8242Z"></path><path d="M29.8244 99.9997C21.5886 108.236 21.5886 121.588 29.8244 129.824L70.1753 170.175C78.4111 178.411 91.7641 178.411 99.9999 170.175L29.8244 99.9997Z"></path><path d="M61.4033 99.9998L99.9998 61.4032L138.596 99.9998L99.9998 138.596L61.4033 99.9998Z"></path></svg>