<svg width="167" height="96" viewBox="0 0 167 96" fill="none" xmlns="http://www.w3.org/2000/svg">
<g clip-path="url(#clip0_110_427)">
<path d="M30.9421 79.3329H27.6341L26.3816 76.7491H20.5102L19.2577 79.3329H15.9692L23.4654 64.4575L30.9421 79.3329ZM21.6847 74.3611H25.2471L23.4663 70.6817L21.6856 74.3611H21.6847Z" fill="black" fill-opacity="0.88"/>
<path d="M28.4058 65.0454H31.8502L35.9799 73.7355L40.0511 65.0454H43.3786L35.9019 79.9208L28.4058 65.0454Z" fill="black" fill-opacity="0.88"/>
<path d="M55.8146 79.3329H52.5066L51.2542 76.749H45.3828L44.1303 79.3329H40.8418L48.338 64.4575L55.8146 79.3329ZM46.5563 74.3611H50.1187L48.338 70.6817L46.5572 74.3611H46.5563Z" fill="black" fill-opacity="0.88"/>
<path d="M66.9271 65.0453H69.9807V79.9012L60.1161 70.9566V79.3339H57.0625V64.478L66.9271 73.4421V65.0453Z" fill="black" fill-opacity="0.88"/>
<path d="M78.8316 67.6283V79.333H75.7V67.6283H71.4395V65.0444H83.0913V67.6283H78.8307H78.8316Z" fill="black" fill-opacity="0.88"/>
<path d="M112.403 79.3348H109.095L107.843 76.751H101.971L100.719 79.3348H97.4302L104.926 64.4595L112.403 79.3348ZM103.145 74.3631H106.707L104.926 70.6837L103.146 74.3631H103.145Z" fill="black" fill-opacity="0.88"/>
<path d="M116.77 79.3345H113.658V65.0469H118.003C121.252 65.0469 123.542 66.7496 123.542 69.6073C123.542 71.4475 122.564 72.7779 120.997 73.4826L125.147 79.3345H121.526L117.827 74.0499H116.77V79.3345ZM116.77 71.584H117.984C119.432 71.584 120.372 70.8403 120.372 69.6073C120.372 68.3744 119.432 67.5917 117.984 67.5917H116.77V71.584Z" fill="black" fill-opacity="0.88"/>
<path d="M131.639 65.0469C135.73 65.0469 138.999 68.12 138.999 72.1912C138.999 76.2624 135.73 79.3355 131.639 79.3355H126.654V65.0478H131.639V65.0469ZM129.766 67.6307V76.7516H131.404C134.085 76.7516 135.866 74.6766 135.866 72.1912C135.866 69.7058 134.085 67.6307 131.443 67.6307H129.766Z" fill="black" fill-opacity="0.88"/>
<path d="M140.854 65.0469H150.184V67.6307H143.908V70.7428H149.734V73.3266H143.908V76.7516H150.223V79.3355H140.854V65.0478V65.0469Z" fill="black" fill-opacity="0.88"/>
<path d="M91.3905 71.3593L90.0795 73.9413H93.4191L92.032 76.6932C91.7451 76.7405 91.4406 76.7619 91.1194 76.7619C88.6284 76.7619 86.6592 74.7323 86.6592 72.1903C86.6592 69.6482 88.6284 67.6948 91.0618 67.6948C92.369 67.6948 93.5054 68.302 94.2742 69.2722H97.7605C97.6026 68.8906 97.4699 68.5378 97.0799 67.9575C95.7736 66.0143 93.5983 64.812 91.0618 64.812C86.9108 64.812 83.5508 68.1312 83.5508 72.1912C83.5508 76.2512 86.9108 79.5704 91.0618 79.5704C92.2066 79.5704 93.2826 79.3438 94.2333 78.9028L98.0297 71.3602H91.3905V71.3593Z" fill="black" fill-opacity="0.88"/>
<path d="M59.1571 28.3228L41.2522 21.5555C39.0398 20.7199 36.4782 21.3327 34.8953 23.1858L15.9673 44.6466V60.9703L26.765 48.728L37.5626 52.8084L48.3603 40.5661L59.158 44.6466L69.9557 32.4042V16.0796L59.158 28.3219L59.1571 28.3228ZM48.3594 40.5652C36.4337 40.5652 26.765 36.8496 26.765 32.4033H48.3594V40.5652Z" fill="black" fill-opacity="0.88"/>
</g>
<defs>
<clipPath id="clip0_110_427">
<rect width="166.191" height="96" fill="white"/>
</clipPath>
</defs>
</svg>
