<svg width="159" height="48" viewBox="0 0 159 48" fill="none" xmlns="http://www.w3.org/2000/svg">
<g clip-path="url(#clip0_468_22811)">
<path d="M154.723 19.4433L147.965 16.8905C147.13 16.5747 146.162 16.8063 145.564 17.5063L138.422 25.6041V31.765L142.496 27.1437L146.57 28.6833L150.644 24.0619L154.718 25.6015L158.791 20.9802V14.8193L154.718 19.4406L154.723 19.4433ZM150.649 24.0646C146.149 24.0646 142.498 22.6619 142.498 20.9855H150.649V24.0646Z" fill="black"/>
<path d="M15.7821 31.194H12.4687L11.2134 28.6044H5.3315L4.07617 31.194H0.78125L8.29219 16.2905L15.7821 31.194ZM6.50788 26.2121H10.0765L8.29219 22.5251L6.50788 26.2121Z" fill="black"/>
<path d="M13.2422 16.8799H16.6924L20.8294 25.5856L24.9086 16.8799H28.243L20.7531 31.7833L13.2422 16.8799Z" fill="black"/>
<path d="M40.7039 31.194H37.3906L36.1353 28.6044H30.2534L28.998 31.194H25.7031L33.2141 16.2905L40.7039 31.194ZM31.4271 26.2121H34.9957L33.2114 22.5251L31.4271 26.2121Z" fill="black"/>
<path d="M51.8352 16.88H54.8933V31.765L45.0112 22.804V31.1966H41.9531V16.3115L51.8352 25.2936V16.88Z" fill="black"/>
<path d="M63.765 19.4671V31.194H60.628V19.4671H56.3594V16.8774H68.0337V19.4671H63.765Z" fill="black"/>
<path d="M97.3993 31.1964H94.0859L92.8306 28.6068H86.9487L85.6934 31.1964H82.3984L89.9094 16.293L97.3993 31.1964ZM88.1224 26.2146H91.6911L89.9067 22.5275L88.1224 26.2146Z" fill="black"/>
<path d="M101.775 31.1968H98.6562V16.8828H103.009C106.265 16.8828 108.559 18.5882 108.559 21.4515C108.559 23.2937 107.578 24.628 106.009 25.3333L110.167 31.1968H106.538L102.833 25.9017H101.775V31.1968ZM101.775 23.4305H102.991C104.441 23.4305 105.383 22.6858 105.383 21.4489C105.383 20.2119 104.441 19.4303 102.991 19.4303H101.775V23.4305Z" fill="black"/>
<path d="M116.675 16.8828C120.772 16.8828 124.049 19.9619 124.049 24.0411C124.049 28.1203 120.775 31.1994 116.675 31.1994H111.68V16.8854H116.675V16.8828ZM114.798 19.4724V28.6098H116.438C119.125 28.6098 120.909 26.5307 120.909 24.0411C120.909 21.5515 119.125 19.4724 116.477 19.4724H114.798Z" fill="black"/>
<path d="M125.901 16.8828H140.399L138.12 19.4724H128.959V22.7463H135.367L133.083 25.3359H128.959V28.6098H135.286V31.1994H125.898V16.8854L125.901 16.8828Z" fill="black"/>
<path d="M76.3479 23.2067L75.0346 25.7937H78.3796L76.99 28.5517C76.7032 28.5991 76.3979 28.6201 76.0768 28.6201C73.5819 28.6201 71.6081 26.5858 71.6081 24.0409C71.6081 21.4961 73.5819 19.5381 76.0189 19.5381C77.3295 19.5381 78.4664 20.146 79.2375 21.1197H82.7298C82.5719 20.7381 82.4377 20.3829 82.0482 19.8012C80.7402 17.8538 78.5612 16.6484 76.0189 16.6484C71.8608 16.6484 68.4922 19.9749 68.4922 24.0409C68.4922 28.107 71.8582 31.4335 76.0189 31.4335C77.1663 31.4335 78.2453 31.2071 79.1954 30.765L82.9982 23.2093H76.3452L76.3479 23.2067Z" fill="black"/>
</g>
<defs>
<clipPath id="clip0_468_22811">
<rect width="158" height="48" fill="white" transform="translate(0.78125)"/>
</clipPath>
</defs>
</svg>
