<svg width="158" height="48" viewBox="0 0 158 48" fill="none" xmlns="http://www.w3.org/2000/svg">
<g clip-path="url(#clip0_79_1934)">
<path d="M153.945 19.4433L147.187 16.8905C146.353 16.5747 145.384 16.8063 144.787 17.5063L137.645 25.6041V31.765L141.718 27.1437L145.792 28.6833L149.866 24.0619L153.94 25.6015L158.014 20.9802V14.8193L153.94 19.4406L153.945 19.4433ZM149.872 24.0646C145.371 24.0646 141.721 22.6619 141.721 20.9855H149.872V24.0646Z" fill="white"/>
<path d="M15.0008 31.194H11.6875L10.4321 28.6044H4.55025L3.29492 31.194H0L7.51094 16.2905L15.0008 31.194ZM5.72663 26.2121H9.29524L7.51094 22.5251L5.72663 26.2121Z" fill="white"/>
<path d="M12.4585 16.8799H15.9087L20.0458 25.5856L24.1249 16.8799H27.4593L19.9694 31.7833L12.4585 16.8799Z" fill="white"/>
<path d="M39.9207 31.194H36.6074L35.3521 28.6044H29.4702L28.2148 31.194H24.9199L32.4309 16.2905L39.9207 31.194ZM30.6439 26.2121H34.2125L32.4282 22.5251L30.6439 26.2121Z" fill="white"/>
<path d="M51.0555 16.88H54.1135V31.765L44.2314 22.804V31.1966H41.1733V16.3115L51.0555 25.2936V16.88Z" fill="white"/>
<path d="M62.9823 19.4671V31.194H59.8453V19.4671H55.5767V16.8774H67.251V19.4671H62.9823Z" fill="white"/>
<path d="M96.6161 31.1964H93.3027L92.0474 28.6068H86.1655L84.9101 31.1964H81.6152L89.1262 16.293L96.6161 31.1964ZM87.3392 26.2146H90.9078L89.1235 22.5275L87.3392 26.2146Z" fill="white"/>
<path d="M100.993 31.1968H97.874V16.8828H102.227C105.482 16.8828 107.777 18.5882 107.777 21.4515C107.777 23.2937 106.796 24.628 105.227 25.3333L109.385 31.1968H105.756L102.051 25.9017H100.993V31.1968ZM100.993 23.4305H102.208C103.659 23.4305 104.601 22.6858 104.601 21.4489C104.601 20.2119 103.659 19.4303 102.208 19.4303H100.993V23.4305Z" fill="white"/>
<path d="M115.891 16.8828C119.988 16.8828 123.265 19.9619 123.265 24.0411C123.265 28.1203 119.991 31.1994 115.891 31.1994H110.896V16.8854H115.891V16.8828ZM114.014 19.4724V28.6098H115.654C118.341 28.6098 120.125 26.5307 120.125 24.0411C120.125 21.5515 118.341 19.4724 115.693 19.4724H114.014Z" fill="white"/>
<path d="M125.123 16.8828H139.621L137.342 19.4724H128.181V22.7463H134.589L132.305 25.3359H128.181V28.6098H134.507V31.1994H125.12V16.8854L125.123 16.8828Z" fill="white"/>
<path d="M75.5647 23.2067L74.2514 25.7937H77.5964L76.2068 28.5517C75.92 28.5991 75.6147 28.6201 75.2936 28.6201C72.7987 28.6201 70.8249 26.5858 70.8249 24.0409C70.8249 21.4961 72.7987 19.5381 75.2357 19.5381C76.5463 19.5381 77.6832 20.146 78.4543 21.1197H81.9466C81.7887 20.7381 81.6545 20.3829 81.265 19.8012C79.957 17.8538 77.778 16.6484 75.2357 16.6484C71.0776 16.6484 67.709 19.9749 67.709 24.0409C67.709 28.107 71.075 31.4335 75.2357 31.4335C76.3831 31.4335 77.4621 31.2071 78.4122 30.765L82.215 23.2093H75.562L75.5647 23.2067Z" fill="white"/>
</g>
<defs>
<clipPath id="clip0_79_1934">
<rect width="158" height="48" fill="white"/>
</clipPath>
</defs>
</svg>
