<svg xmlns="http://www.w3.org/2000/svg" width="400" height="400" fill="none" viewBox="0 0 400 400"><path fill="#000" d="M0 0h400v400H0z"/><g filter="url(#a)"><path fill="#fff" d="M290.022 123.047c-7.961-.04-15.923-.03-23.887-.03h-46.341l-29.132.005h-9.173c-1.639-.005-3.858-.072-5.441.054-5.549.428-9.807 2.95-13.54 7.076-2.727 3.012-4.113 6.919-5.768 10.618l-3.883 8.56-16.936 37.057-3.193 6.991c-2.238 4.899 1.317 10.481 6.673 10.481H176.8a7.34 7.34 0 0 0 6.613-4.176c.594-1.24 1.196-2.484 1.728-3.703.635-1.459 1.415-2.907 2.068-4.354l13.361-29.013 4.394-9.757c4.49-10.168 6.897-18.296 19.774-18.995 2.143-.084 5.983-.408 7.639 1.099 2.284 2.08 1.642 5.537.579 8.077-1.072 2.569-2.444 5.055-3.586 7.611a1251 1251 0 0 1-12.665 27.348l-8.742 18.994c-4.433 9.49-6.324 16.65-18.487 17.284-.126 0-.245 0-.366-.002l-61.219.002a7.34 7.34 0 0 0-6.674 4.305l-11.565 25.323c-.504 1.119-1.089 2.178-1.602 3.284-.913 1.999-1.656 4.201-2.63 6.166a182 182 0 0 0-5.143 11.34c-1.058 2.554-2.472 4.56-2.278 7.429.17 2.49 2.148 4.303 4.449 4.945.376.105.761.164 1.15.202 2.018.194 4.379.103 6.435.101l11.709-.015 13.318.019c4.488.007 10.72.712 13.823-3.319 2.384-3.099 4.101-7.429 5.687-11.017l4.923-10.965c.591-1.289 1.257-2.512 1.827-3.811l3.702-8.271c1.92-4.238 2.974-6.854 6.521-10.145 2.401-2.248 3.911-2.993 6.96-4.044.508-.174 1.221-.376 1.526-.416 1.575-.209 3.405-.2 4.976-.205h40.559l9.764.005c3.21 0 7.096.198 10.17-.598 4.22-1.095 7.491-3.608 10.436-6.747 1.761-1.878 2.564-4.107 3.716-6.316 1.696-3.25 2.951-6.572 4.469-9.881l10.605-22.898c2.133-4.549 4.149-9.233 6.147-13.843 1.539-3.552 3.375-6.99 4.831-10.589 2.998-6.623 6.271-13.151 8.946-19.913.368-.922.908-1.897 1.255-2.823a6.7 6.7 0 0 0 .41-2.107c.15-3.735-2.618-6.4-6.28-6.417z"/></g><path stroke="#fff" stroke-opacity=".4" stroke-width="2.54" d="M181.486 124.291h9.176l29.132-.004h58.285q5.794.001 11.587.027l.011.007.349.002c2.994.014 5.138 2.13 5.018 5.096v.011a5.5 5.5 0 0 1-.33 1.702 18 18 0 0 1-.578 1.315c-.218.462-.465.977-.667 1.483l-.001.003c-2.661 6.725-5.896 13.17-8.923 19.856l-.011.023-.01.025c-.712 1.762-1.52 3.491-2.353 5.243-.828 1.742-1.685 3.515-2.466 5.316-2 4.617-4.007 9.282-6.131 13.81l-.002.005-10.605 22.898-.002.004c-1.572 3.427-2.758 6.598-4.441 9.824-1.251 2.397-1.914 4.325-3.516 6.034-2.769 2.951-5.739 5.229-9.466 6.288l-.362.098c-2.154.558-4.743.593-7.31.576l-2.542-.018-9.764-.004h-40.563c-1.348.004-2.989-.005-4.5.142l-.639.073c-.443.058-1.259.298-1.772.475h-.001c-1.543.531-2.772 1.01-3.935 1.668-1.17.661-2.228 1.478-3.474 2.645-3.758 3.486-4.902 6.33-6.815 10.552l-.002.006-3.702 8.27-.003.008c-.272.62-.57 1.228-.882 1.856-.307.622-.632 1.271-.937 1.936l-.005.01-4.923 10.966-.003.006c-1.523 3.448-3.061 7.297-5.113 10.19l-.418.565c-1.255 1.631-3.193 2.382-5.551 2.69-2.397.312-4.904.138-7.264.135l-13.318-.019h-.004l-11.709.015c-2.13.002-4.375.09-6.311-.096h.001a5.5 5.5 0 0 1-.931-.161h-.001c-1.883-.526-3.308-1.914-3.507-3.64l-.015-.168c-.08-1.188.165-2.213.584-3.284.213-.545.466-1.09.746-1.685.206-.437.427-.903.641-1.391l.212-.497a181 181 0 0 1 5.107-11.262c.511-1.031.957-2.113 1.379-3.159.426-1.059.826-2.072 1.266-3.037.246-.53.51-1.051.786-1.6.273-.542.557-1.11.822-1.698l11.562-25.316a6.07 6.07 0 0 1 5.519-3.563l61.197-.002q.202.002.388.002h.033l.033-.001c6.379-.332 10.245-2.408 13.052-5.775 1.368-1.642 2.451-3.551 3.46-5.602.992-2.019 1.981-4.33 3.059-6.638l.003-.006 8.735-18.978a1249 1249 0 0 0 12.677-27.376l.001-.001c.559-1.251 1.175-2.486 1.8-3.759.465-.947.934-1.912 1.372-2.893l.427-.987c.567-1.356 1.054-3.027 1.063-4.694.01-1.689-.478-3.463-1.959-4.812h-.001c-1.173-1.068-2.942-1.375-4.406-1.474-1.522-.103-3.117.006-4.137.046h-.019c-6.758.367-10.926 2.717-13.946 6.411-2.914 3.563-4.727 8.372-6.92 13.339l-4.386 9.739-13.361 29.014-.004.008c-.316.7-.664 1.403-1.024 2.135a54 54 0 0 0-1.051 2.234c-.52 1.193-1.111 2.413-1.709 3.662a6.07 6.07 0 0 1-5.467 3.455h-37.4c-4.418 0-7.377-4.615-5.518-8.685l3.193-6.991 16.936-37.057.002-.003 3.882-8.559.003-.006c1.716-3.836 2.999-7.467 5.55-10.285h.001c3.564-3.94 7.537-6.264 12.695-6.661l.003-.001c1.514-.121 3.632-.055 5.338-.051Z"/><defs><filter id="a" width="198.337" height="161.197" x="97.981" y="119.614" color-interpolation-filters="sRGB" filterUnits="userSpaceOnUse"><feFlood flood-opacity="0" result="BackgroundImageFix"/><feBlend in="SourceGraphic" in2="BackgroundImageFix" result="shape"/><feColorMatrix in="SourceAlpha" result="hardAlpha" values="0 0 0 0 0 0 0 0 0 0 0 0 0 0 0 0 0 0 127 0"/><feOffset dy="-3.386"/><feGaussianBlur stdDeviation="3.598"/><feComposite in2="hardAlpha" k2="-1" k3="1" operator="arithmetic"/><feColorMatrix values="0 0 0 0 1 0 0 0 0 1 0 0 0 0 1 0 0 0 1 0"/><feBlend in2="shape" result="effect1_innerShadow_1141_2008"/><feColorMatrix in="SourceAlpha" result="hardAlpha" values="0 0 0 0 0 0 0 0 0 0 0 0 0 0 0 0 0 0 127 0"/><feOffset dy="3.386"/><feGaussianBlur stdDeviation="1.693"/><feComposite in2="hardAlpha" k2="-1" k3="1" operator="arithmetic"/><feColorMatrix values="0 0 0 0 0.954364 0 0 0 0 0.954364 0 0 0 0 0.954364 0 0 0 1 0"/><feBlend in2="effect1_innerShadow_1141_2008" result="effect2_innerShadow_1141_2008"/></filter></defs></svg>
