<svg width="240" height="240" viewBox="0 0 240 240" fill="none" xmlns="http://www.w3.org/2000/svg">
<g clip-path="url(#clip0_18508_2563)">
<path d="M184.721 167.023C177.301 177.237 167.568 185.549 156.319 191.281C145.07 197.012 132.625 200 120 200C107.375 200 94.9295 197.012 83.6807 191.281C72.4319 185.549 62.6993 177.236 55.2786 167.023L81.8144 147.743C86.1926 153.77 91.9348 158.674 98.5716 162.056C105.208 165.437 112.551 167.2 120 167.2C127.449 167.2 134.792 165.437 141.428 162.056C148.065 158.674 153.807 153.77 158.186 147.743L184.721 167.023Z" fill="#181D27"/>
<path d="M40 120C40 109.494 42.0693 99.0914 46.0896 89.3853C50.11 79.6793 56.0028 70.8601 63.4315 63.4315C70.8602 56.0028 79.6793 50.11 89.3853 46.0896C99.0914 42.0693 109.494 40 120 40C130.506 40 140.909 42.0693 150.615 46.0896C160.321 50.11 169.14 56.0028 176.569 63.4315C183.997 70.8602 189.89 79.6793 193.91 89.3853C197.931 99.0914 200 109.494 200 120H167.2C167.2 113.802 165.979 107.664 163.607 101.937C161.235 96.2108 157.758 91.0075 153.375 86.6246C148.993 82.2416 143.789 78.7649 138.063 76.3929C132.336 74.0209 126.198 72.8 120 72.8C113.802 72.8 107.664 74.0209 101.937 76.3929C96.2108 78.7649 91.0075 82.2416 86.6246 86.6246C82.2416 91.0075 78.7649 96.2108 76.3929 101.937C74.0209 107.664 72.8 113.802 72.8 120H40Z" fill="#181D27"/>
</g>
<defs>
<clipPath id="clip0_18508_2563">
<rect width="240" height="240" fill="white"/>
</clipPath>
</defs>
</svg>
