<svg width="48" height="29" viewBox="0 0 48 29" fill="none" xmlns="http://www.w3.org/2000/svg">
    <style>
        path {
        fill: black;
        }
        @media (prefers-color-scheme: dark) {
        path {
        fill: #0F0D0E;
        }
        }
    </style>
    <path
        d="M10.5382 14.4998C10.5382 8.04883 15.0034 2.62642 21 1.16113C19.1854 0.416401 17.1919 -0.000242638 15.0979 -0.000242821C6.77225 -0.000243549 -5.68709e-07 6.50503 -1.26763e-06 14.4998C-1.96655e-06 22.4945 6.77024 28.9998 15.0979 28.9998C17.1919 28.9998 19.1854 28.5851 21 27.8384C15.0034 26.3731 10.5382 20.9507 10.5382 14.4998Z"
    />
    <path
        d="M32.9021 -0.000243625C30.8081 -0.000243808 28.8146 0.414387 27 1.16112C32.9966 2.62642 37.4618 8.04883 37.4618 14.4998C37.4618 20.9507 32.9966 26.3731 27 27.8384C28.8146 28.5831 30.8081 28.9998 32.9021 28.9998C41.2277 28.9998 48 22.4945 48 14.4998C48 6.50503 41.2278 -0.000242897 32.9021 -0.000243625Z"
    />
</svg>