<?xml version="1.0" encoding="UTF-8"?>
<!DOCTYPE svg PUBLIC "-//W3C//DTD SVG 1.0//EN" "http://www.w3.org/TR/2001/REC-SVG-20010904/DTD/svg10.dtd">
<!-- Creator: CorelDRAW -->
<svg xmlns="http://www.w3.org/2000/svg" xml:space="preserve" width="91.7317mm" height="17.8841mm" version="1.0" style="shape-rendering:geometricPrecision; text-rendering:geometricPrecision; image-rendering:optimizeQuality; fill-rule:evenodd; clip-rule:evenodd"
viewBox="-1500 -500 12015.27 2757.62"
 xmlns:xlink="http://www.w3.org/1999/xlink"
 xmlns:xodm="http://www.corel.com/coreldraw/odm/2003">
 <defs>
  <style type="text/css">
   <![CDATA[
    .fil1 {fill:#3A99F2}
    .fil0 {fill:white;fill-rule:nonzero}
   ]]>
  </style>
 </defs>
 <g id="Layer_x0020_1">
  <metadata id="CorelCorpID_0Corel-Layer"/>
  <rect x="-1500" y="-600" width="12015.27" height="4357.62" fill="#0C2340"/>
  <path class="fil0" d="M2150.26 889.23l0 441.5 -181.17 0 0 -821.41 181.17 0 0 123.11c22.29,-44.56 57.46,-79.15 105.53,-103.78 48.09,-24.61 96.76,-36.92 145.99,-36.92 99.68,0 176.77,31.08 231.31,93.22 54.52,62.15 81.79,151.26 81.79,267.35l0 478.44 -181.18 0 0 -457.33c0,-64.48 -15.54,-114.61 -46.6,-150.39 -31.08,-35.77 -73,-53.64 -125.78,-53.64 -59.79,0 -109.92,17.87 -150.39,53.64 -40.44,35.77 -60.68,91.18 -60.68,166.22zm6690.88 -691.25l0 311.34 174.14 0 0 149.5 -174.14 0 0 671.91 -181.16 0 0 -671.91 -147.75 0 0 -149.5 147.75 0 0 -311.34 181.16 0zm-963.38 691.25l0 441.5 -181.18 0 0 -821.41 181.18 0 0 123.11c22.28,-44.56 57.46,-79.15 105.53,-103.78 48.08,-24.61 96.75,-36.92 145.98,-36.92 99.68,0 176.78,31.08 231.31,93.22 54.52,62.15 81.79,151.26 81.79,267.35l0 478.44 -181.18 0 0 -457.33c0,-64.48 -15.54,-114.61 -46.59,-150.39 -31.09,-35.77 -73.01,-53.64 -125.78,-53.64 -59.8,0 -109.93,17.87 -150.4,53.64 -40.44,35.77 -60.67,91.18 -60.67,166.22zm-342.49 441.5l0 -821.41 -179.42 0 0 821.41 179.42 0zm-175.9 -1072.96c-23.45,-22.28 -35.18,-49.24 -35.18,-80.9 0,-31.67 12.03,-58.63 36.07,-80.92 24.04,-22.26 52.48,-33.4 85.32,-33.4 33.99,0 62.44,10.85 85.31,32.53 22.86,21.69 34.3,48.96 34.3,81.8 0,32.83 -11.44,60.09 -34.3,81.79 -22.87,21.69 -51.31,32.54 -85.31,32.54 -32.83,0 -61.57,-11.14 -86.2,-33.42zm-534.59 914.65c70.36,0 129.58,-23.46 177.64,-70.35 48.09,-46.91 72.13,-108.48 72.13,-184.7 0,-73.89 -24.04,-133.68 -72.13,-179.42 -48.06,-45.73 -107.28,-68.59 -177.64,-68.59 -69.19,0 -127.82,22.86 -175.89,68.59 -48.09,45.74 -72.13,105.53 -72.13,179.42 0,75.05 24.04,136.31 72.13,183.81 48.07,47.49 106.7,71.23 175.89,71.23zm304.3 56.29c-83.26,79.72 -184.7,119.61 -304.3,119.61 -119.61,0 -220.75,-40.17 -303.42,-120.49 -82.67,-80.33 -124.02,-183.81 -124.02,-310.45 0,-126.64 41.35,-229.25 124.02,-307.81 82.66,-78.57 183.8,-117.85 303.42,-117.85 120.78,0 222.8,39.27 306.04,117.85 83.27,78.55 124.9,181.17 124.9,307.81 0,126.64 -42.22,230.41 -126.64,311.34zm-1497.9 -719.4l0 121.35c24.63,-43.39 62.44,-77.39 113.45,-102.02 51.01,-24.61 104.65,-36.92 160.94,-36.92 113.74,0 210.2,39.85 289.34,119.61 79.16,79.72 118.72,182.93 118.72,309.57 0,127.81 -39.56,231 -118.72,309.58 -79.14,78.55 -175.6,117.85 -289.34,117.85 -58.64,0 -112.86,-11.73 -162.7,-35.18 -49.85,-23.46 -87.07,-56.86 -111.69,-100.25l0 517.11 -181.18 0 0 -1220.68 181.18 0zm1.76 415.1c0,76.22 24.92,136.9 74.75,182.05 49.84,45.14 108.19,67.71 175.01,67.71 70.37,0 128.98,-23.16 175.9,-69.47 46.91,-46.32 70.36,-106.43 70.36,-180.29 0,-75.06 -23.74,-136.61 -71.24,-184.7 -47.5,-48.08 -105.83,-72.11 -175.01,-72.11 -69.18,0 -128.11,23.44 -176.77,70.35 -48.66,46.92 -72.99,109.05 -72.99,186.45zm-914.38 -35.18l0 441.5 -181.18 0 0 -1268.19 181.18 0 0 571.65c21.11,-45.73 57.46,-80.91 109.05,-105.54 51.6,-24.61 102.01,-36.92 151.27,-36.92 104.35,0 185.86,32.54 244.49,97.61 58.63,65.09 87.95,156.25 87.95,273.51l0 467.88 -181.17 0 0 -457.33c0,-62.14 -17.3,-111.68 -51.9,-148.63 -34.57,-36.94 -78.26,-55.4 -131.03,-55.4 -60.97,0 -114.33,18.16 -160.07,54.52 -45.72,36.36 -68.59,91.48 -68.59,165.34zm-678.45 86.18c-85.61,-23.44 -146.29,-56.86 -182.05,-100.25 -35.77,-43.39 -50.72,-99.07 -44.86,-167.09 4.7,-60.97 35.77,-112.28 93.24,-153.91 57.45,-41.61 124.29,-62.43 200.51,-62.43 80.92,0 149.81,19.93 206.68,59.79 56.88,39.87 87.64,100.85 92.34,182.93l-172.36 0c-3.52,-29.32 -16.72,-51.3 -39.59,-65.94 -22.87,-14.66 -49.54,-21.99 -80.04,-21.99 -23.46,0 -46.6,4.11 -69.47,12.31 -22.86,8.22 -38.41,19.34 -46.61,33.41 -14.07,23.45 -16.41,48.08 -7.04,73.88 8.21,25.81 41.63,46.91 100.25,63.31l126.66 31.67c143.05,35.18 214.58,114.92 214.58,239.23 0,77.38 -30.5,138.07 -91.46,182.03 -60.99,43.98 -139.55,65.97 -235.71,65.97 -82.07,0 -154.79,-24.33 -218.1,-73.01 -63.33,-48.65 -95.57,-114.03 -96.74,-196.11l167.08 0c4.7,36.33 21.11,65.07 49.26,86.18 28.15,21.11 65.67,31.67 112.57,31.67 42.22,0 77.11,-8.8 104.67,-26.39 27.55,-17.59 41.33,-41.63 41.33,-72.11 0,-46.91 -38.1,-79.16 -114.33,-96.76l-110.81 -26.39zm-532.45 355.32l0 -117.85c-25.81,42.22 -64.8,75.33 -116.97,99.37 -52.19,24.04 -105.25,36.07 -159.18,36.07 -114.93,0 -213.13,-39.88 -294.62,-119.61 -81.5,-79.75 -122.26,-182.94 -122.26,-309.58 0,-126.64 40.76,-229.55 122.26,-308.69 81.49,-79.16 179.69,-118.72 294.62,-118.72 53.94,0 106.7,11.43 158.31,34.28 51.59,22.87 90.87,56 117.85,99.39l0 -116.08 179.41 0 0 821.41 -179.41 0zm-434.46 -592.77c-48.08,45.74 -72.13,105.53 -72.13,179.42 0,73.87 24.34,134.85 73.01,182.94 48.65,48.07 108.17,72.11 178.53,72.11 70.35,0 130.16,-23.16 179.4,-69.47 49.26,-46.32 73.89,-108.19 73.89,-185.57 0,-76.22 -25.51,-136.9 -76.52,-182.05 -51.01,-45.15 -109.93,-67.71 -176.76,-67.71 -70.37,0 -130.18,23.44 -179.42,70.35z"/>
  <path class="fil1" d="M292.98 791.64c45.19,-12.11 85.35,-37.3 115.47,-71.58 8.89,-10.11 23.52,-28.71 27.89,-40.71l-200.69 4.91c-64.59,1.58 -118.9,-50.12 -120.44,-114.72 -1.54,-64.57 50.15,-118.82 114.72,-120.4l200.9 -4.89c-53.34,-86.44 -157.49,-129.41 -258.29,-102.46 -59.87,16.02 -110.33,55.07 -141.29,108.71 -30.77,53.33 -39.32,116.92 -23.39,176.43 11.86,44.27 36.31,83.47 70,113.42 22.7,20.15 48.94,35.83 77.58,45.91 43.92,15.45 92.01,17.57 137.53,5.38zm1011.51 174.34c-45.18,12.11 -85.35,37.3 -115.47,71.58 -8.89,10.11 -23.51,28.71 -27.89,40.71l200.69 -4.91c64.59,-1.58 118.9,50.12 120.44,114.71 1.55,64.58 -50.14,118.83 -114.71,120.41l-200.91 4.89c53.34,86.43 157.49,129.41 258.29,102.46 59.87,-16.03 110.33,-55.07 141.29,-108.71 30.77,-53.33 39.33,-116.92 23.4,-176.43 -11.86,-44.27 -36.32,-83.47 -70.01,-113.42 -22.7,-20.16 -48.93,-35.83 -77.58,-45.91 -43.92,-15.45 -92.01,-17.57 -137.53,-5.38z"/>
  <path class="fil1" d="M470.37 1273.22c12.11,-45.18 10.38,-92.56 -4.26,-135.78 -4.3,-12.76 -13.1,-34.72 -21.31,-44.51l-96.09 176.27c-30.92,56.72 -102.86,77.91 -159.58,46.94 -56.69,-30.95 -77.83,-102.84 -46.91,-159.55l96.21 -176.44c-101.52,2.98 -190.82,71.68 -217.87,172.45 -16.06,59.87 -7.48,123.08 23.5,176.71 30.8,53.32 81.6,92.52 141.1,108.47 44.27,11.87 90.44,10.28 133.23,-3.91 28.81,-9.58 55.51,-24.46 78.55,-44.24 35.33,-30.31 61.22,-70.9 73.41,-116.42zm656.74 -788.82c-12.1,45.19 -10.37,92.56 4.26,135.78 4.3,12.76 13.1,34.72 21.31,44.51l96.09 -176.26c30.93,-56.73 102.86,-77.91 159.58,-46.95 56.69,30.95 77.83,102.84 46.91,159.56l-96.21 176.43c101.52,-2.98 190.83,-71.68 217.88,-172.45 16.05,-59.86 7.47,-123.08 -23.51,-176.71 -30.79,-53.32 -81.59,-92.52 -141.09,-108.47 -44.28,-11.87 -90.45,-10.28 -133.24,3.91 -28.81,9.58 -55.5,24.46 -78.54,44.24 -35.34,30.32 -61.23,70.9 -73.42,116.42z"/>
  <path class="fil1" d="M976.13 1360.39c-33.08,-33.07 -74.97,-55.26 -119.71,-64.21 -13.21,-2.65 -36.62,-6.01 -49.2,-3.8l104.6 171.35c33.67,55.14 16.04,128.03 -39.12,161.67 -55.14,33.62 -127.98,15.98 -161.63,-39.14l-104.7 -171.55c-48.19,89.4 -33.33,201.1 40.41,274.9 43.81,43.84 102.85,68.02 164.79,68.01 61.56,-0.01 120.91,-24.4 164.48,-67.95 32.41,-32.41 54.12,-73.19 63.22,-117.34 6.1,-29.74 6.57,-60.3 0.97,-90.14 -8.59,-45.76 -30.79,-88.47 -64.12,-121.8zm-354.78 -963.16c33.08,33.07 74.98,55.26 119.72,64.21 13.2,2.65 36.62,6.01 49.2,3.8l-104.61 -171.35c-33.66,-55.14 -16.04,-128.03 39.13,-161.67 55.14,-33.62 127.98,-15.98 161.63,39.15l104.7 171.54c48.18,-89.4 33.33,-201.1 -40.41,-274.9 -43.82,-43.84 -102.86,-68.02 -164.79,-68.01 -61.57,0.02 -120.92,24.4 -164.49,67.95 -32.41,32.42 -54.12,73.19 -63.22,117.34 -6.1,29.74 -6.57,60.3 -0.96,90.14 8.58,45.77 30.78,88.47 64.11,121.8z"/>
  <path class="fil1" d="M582.64 633.34c-138.34,97.27 -195.51,208.28 -278.1,349.19l-111.1 202.11c-15.79,28.75 -5.02,64.87 23.71,80.54 28.77,15.7 64.78,4.99 80.54,-23.69l102.68 -186.84c21.14,-38.47 42.2,-77 64.76,-114.67l11.2 -18.68 1.91 22.1c14.39,167.51 83.08,274.25 163.36,415.39l119.48 197.27c16.88,27.88 53.82,36.7 81.6,19.74 27.82,-16.97 36.61,-53.78 19.75,-81.6l-110.48 -182.34c-22.74,-37.54 -45.7,-74.98 -66.92,-113.38l-10.43 -18.89 19.91 9.2c153.38,70.93 278.17,65.17 441.44,66.26l230.59 -4.85c32.74,-0.69 58.67,-28.11 57.87,-60.79 -0.79,-32.79 -28.05,-58.59 -60.8,-57.92l-213.16 4.5c-43.87,0.92 -87.77,2.01 -131.66,1.25l-21.63 -0.38 18.01 -12.68c138.73,-97.64 195.31,-207.96 278.09,-349.16l111.09 -202.12c15.8,-28.73 5.04,-64.85 -23.69,-80.52 -28.77,-15.7 -64.79,-4.99 -80.54,23.69l-102.68 186.85c-21.14,38.46 -42.13,76.99 -64.72,114.6l-11.51 19.13 -1.6 -22.52c-14.72,-164.54 -84.02,-275.81 -163.37,-415.35l-119.46 -197.27c-16.88,-27.88 -53.83,-36.68 -81.6,-19.73 -27.81,16.96 -36.62,53.8 -19.76,81.61l110.48 182.35c22.73,37.54 45.62,75.01 66.89,113.39l10.54 19.01 -20.04 -9.38c-151.73,-71.02 -279.44,-65.14 -441.42,-66.23l-230.58 4.85c-32.73,0.68 -58.68,28.11 -57.89,60.8 0.8,32.77 28.08,58.57 60.8,57.9l213.17 -4.5c43.86,-0.92 87.73,-2.19 131.61,-1.26l21.19 0.44 -17.54 12.58zm1.09 245.47c0,-118.85 96.35,-215.2 215.2,-215.2 118.86,0 215.2,96.32 215.2,215.2 0,118.86 -96.34,215.2 -215.2,215.2 -118.85,0 -215.2,-96.35 -215.2,-215.2z"/>
 </g>
</svg>
