<svg width="165" height="22" viewBox="0 0 165 22" fill="none" xmlns="http://www.w3.org/2000/svg">
<path d="M10.1727 14.8678L0.0424761 0.5H0.015625V21.2852H3.81384V12.3462L10.0823 21.0142H10.136L16.6487 11.7555V21.2852H20.5836V0.5H20.5274L10.1727 14.8678Z" fill="#161616"/>
<path d="M45.7617 13.906C45.7617 14.5383 45.5762 15.1461 45.2051 15.7246C44.8341 16.3031 44.3312 16.7742 43.699 17.1355C43.0644 17.4968 42.3418 17.6774 41.5265 17.6774C40.7845 17.6774 40.1034 17.4968 39.4785 17.1355C38.8536 16.7742 38.3532 16.3031 37.9724 15.7246C37.5941 15.1461 37.4037 14.5407 37.4037 13.906V1.31531H33.4688V13.9866C33.4688 15.4512 33.83 16.7498 34.555 17.88C35.2775 19.0102 36.2515 19.8963 37.472 20.5383C38.6925 21.1802 40.0448 21.5 41.529 21.5C43.0302 21.5 44.3947 21.1802 45.625 20.5383C46.8552 19.8963 47.8316 19.0102 48.5542 17.88C49.2767 16.7498 49.6404 15.4512 49.6404 13.9866V1.31531H45.7592V13.906H45.7617Z" fill="#161616"/>
<path d="M61.1758 5.11352H65.843V21.2852H69.7755V5.11352H74.6331V1.31531H61.1758V5.11352Z" fill="#161616"/>
<path d="M98.4585 13.906C98.4585 14.5383 98.2729 15.1461 97.9019 15.7246C97.5309 16.3031 97.028 16.7742 96.3958 17.1355C95.7636 17.4968 95.0386 17.6774 94.2257 17.6774C93.4837 17.6774 92.8002 17.4968 92.1777 17.1355C91.5528 16.7742 91.0524 16.3031 90.6716 15.7246C90.2908 15.1461 90.1029 14.5407 90.1029 13.906V1.31531H86.168V13.9866C86.168 15.4512 86.5292 16.7498 87.2542 17.88C87.9768 19.0102 88.9507 19.8963 90.1712 20.5383C91.3917 21.1802 92.7441 21.5 94.2282 21.5C95.7294 21.5 97.0939 21.1802 98.3242 20.5383C99.552 19.8963 100.531 19.0102 101.253 17.88C101.976 16.7498 102.337 15.4512 102.337 13.9866V1.31531H98.4585V13.906Z" fill="#161616"/>
<path d="M127.111 13.906C127.111 14.5383 126.925 15.1461 126.554 15.7246C126.183 16.3031 125.68 16.7742 125.048 17.1355C124.416 17.4968 123.691 17.6774 122.878 17.6774C122.136 17.6774 121.453 17.4968 120.83 17.1355C120.205 16.7742 119.705 16.3031 119.324 15.7246C118.943 15.1461 118.755 14.5407 118.755 13.906V1.31531H114.82V13.9866C114.82 15.4512 115.182 16.7498 115.907 17.88C116.629 19.0102 117.603 19.8963 118.824 20.5383C120.044 21.1802 121.396 21.5 122.881 21.5C124.382 21.5 125.746 21.1802 126.977 20.5383C128.204 19.8963 129.183 19.0102 129.906 17.88C130.628 16.7498 130.99 15.4512 130.99 13.9866V1.31531H127.111V13.906Z" fill="#161616"/>
<path d="M164.389 0.5L154.034 14.8678L143.904 0.5H143.875V21.2852H147.676V12.3462L153.942 21.0142H153.998L160.51 11.7531V21.2852H164.443V0.5H164.389Z" fill="#161616"/>
</svg>
