<svg width="66" height="67" viewBox="0 0 66 67" fill="none" xmlns="http://www.w3.org/2000/svg">
<rect x="0.423675" y="0.423675" width="65.1526" height="66.1526" rx="13.9813" stroke="#DCDCDC" stroke-width="0.84735"/>
<path fill-rule="evenodd" clip-rule="evenodd" d="M33.002 15C42.8808 15 50.9582 23.2816 50.9959 33.4314V33.5L50.9887 33.5149C51.1244 36.3441 50.0321 38.7087 47.975 40.0737C46.3097 41.1108 44.2895 41.2168 42.692 40.2865C40.9215 39.2798 39.8964 37.2059 39.8964 34.621V31.1051C39.7532 31.25 39.6481 31.4639 39.5049 31.6774L35.2855 38.594C33.8312 40.9198 32.4897 41.0949 31.6006 40.8509C30.7114 40.6069 29.6486 39.7069 29.6486 36.9464V31.1745L21.9623 43.6494C24.6524 46.7302 28.5563 48.6679 32.9117 48.6679C36.6341 48.6678 40.2513 47.2034 42.9414 44.6183L42.9789 44.5805C43.6571 43.9704 44.682 44.0082 45.2848 44.6869C45.9252 45.3656 45.8875 46.4029 45.2169 47.051C41.8864 50.2461 37.5686 51.9999 32.9948 52C23.0783 52 15 43.7184 15 33.5C15 23.2816 23.1231 15 33.002 15ZM32.9948 18.3708C24.8869 18.3708 18.2632 25.1497 18.2631 33.5149C18.2631 35.9856 18.8658 38.4259 19.9961 40.6144L28.5332 26.7742C29.5579 25.1958 30.6205 25.089 31.3289 25.3024C32.3913 25.6227 32.9571 26.6672 32.9948 28.4209V36.0549L36.8227 29.8549C37.4257 28.8481 39.053 26.1568 41.2155 26.8049C42.4889 27.1634 43.2345 28.559 43.2345 30.4958V34.5445C43.2345 35.8714 43.6568 36.8403 44.3651 37.2673C44.9378 37.5876 45.6766 37.5188 46.3171 37.1223V37.1144C47.3116 36.4738 47.8015 35.1851 47.7337 33.5686V33.5C47.7337 25.15 41.1026 18.3711 32.9948 18.3708Z" fill="#436EF0"/>
</svg>
