<svg preserveAspectRatio="xMidYMid meet" width="100%" height="100%" overflow="visible" style="display: block;" viewBox="0 0 181.294 30.2263" fill="none" xmlns="http://www.w3.org/2000/svg">
<g id="Vector">
<path d="M31.696 7.50671C30.5771 7.50671 30.3906 7.56897 30.0799 7.25626C29.7691 6.94356 29.8314 6.75586 29.8314 5.63002C29.8314 4.69146 28.8989 3.75334 27.9669 3.75334C26.8482 3.75334 26.6617 3.81607 26.351 3.50336C26.0405 3.19021 26.1023 3.00296 26.1023 1.87667C26.1023 0.938559 25.1703 0 24.2381 0C23.3061 0 22.3737 0.938559 22.3737 1.87667C22.3737 3.00296 22.4354 3.19021 22.1247 3.50336C21.8142 3.81607 21.6277 3.75334 20.509 3.75334C19.577 3.75334 18.6445 4.69146 18.6445 5.63002C18.6445 6.75586 18.7068 6.94356 18.3961 7.25626C18.0853 7.56897 17.8988 7.50671 16.7804 7.50671C15.6617 7.50671 15.4748 7.56897 15.1641 7.25626C14.8534 6.94356 14.9157 6.75586 14.9157 5.63002C14.9157 4.69146 13.9832 3.75334 13.0511 3.75334C11.9326 3.75334 11.7461 3.81607 11.4354 3.50336C11.1247 3.19021 11.1866 3.00296 11.1866 1.87667C11.1866 0.938559 10.2545 0 9.32243 0C8.39037 0 7.45786 0.938559 7.45786 1.87667C7.45786 3.00296 7.51971 3.19021 7.20902 3.50336C6.89836 3.81607 6.71184 3.75334 5.59328 3.75334C4.66122 3.75334 3.72871 4.69146 3.72871 5.63002C3.72871 6.75586 3.79103 6.94356 3.48034 7.25626C3.16965 7.56897 2.98313 7.50671 1.86411 7.50671C0.932067 7.50671 0 8.4448 0 9.38292V13.1363C0 14.0744 0.932067 15.013 1.86411 15.013C2.98313 15.013 3.16965 14.9502 3.48034 15.2628C3.79103 15.5756 3.72871 15.7633 3.72871 16.8893C3.72871 17.8278 4.66122 18.7658 5.59328 18.7658C6.71184 18.7658 6.89836 18.7031 7.20902 19.0164C7.51971 19.3289 7.45786 19.5166 7.45786 20.6426C7.45786 21.5806 8.38992 22.5193 9.32243 22.5193C10.441 22.5193 10.6275 22.4564 10.9382 22.7692C11.2489 23.0819 11.1866 23.2696 11.1866 24.3953C11.1866 25.3341 12.1191 26.2721 13.0511 26.2721C14.1697 26.2721 14.3562 26.2095 14.6669 26.5225C14.9776 26.8352 14.9157 27.0229 14.9157 28.1486C14.9157 29.0869 15.8478 30.0254 16.7804 30.0254C17.7128 30.0254 18.6445 29.0869 18.6445 28.1486C18.6445 27.0229 18.5825 26.8352 18.8933 26.5225C19.204 26.2095 19.3905 26.2721 20.509 26.2721C21.4412 26.2721 22.3737 25.3341 22.3737 24.3953C22.3737 23.2696 22.3112 23.0819 22.6219 22.7692C22.9326 22.4564 23.1191 22.5193 24.2381 22.5193C25.1703 22.5193 26.1023 21.5806 26.1023 20.6426C26.1023 19.5166 26.0405 19.3289 26.351 19.0164C26.6617 18.7031 26.8482 18.7658 27.9669 18.7658C28.8989 18.7658 29.8314 17.8278 29.8314 16.8893C29.8314 15.7633 29.7691 15.5756 30.0799 15.2628C30.3906 14.9502 30.5771 15.013 31.696 15.013C32.628 15.013 33.5602 14.0744 33.5602 13.1363V9.38292C33.5602 8.4448 32.628 7.50671 31.696 7.50671ZM29.5826 14.7625C29.2719 15.0751 29.0854 15.013 27.9669 15.013C27.0347 15.013 26.1023 15.951 26.1023 16.8893C26.1023 18.0155 26.1645 18.2027 25.854 18.5159C25.5433 18.8287 25.3568 18.7658 24.2381 18.7658C23.3056 18.7658 22.3737 19.704 22.3737 20.6426C22.3737 21.7683 22.4354 21.956 22.1247 22.2687C21.8142 22.5815 21.6277 22.5193 20.509 22.5193C19.577 22.5193 18.6445 23.4573 18.6445 24.3953C18.6445 25.5218 18.7068 25.709 18.3961 26.022C18.0853 26.3348 17.8988 26.2721 16.7804 26.2721C15.6617 26.2721 15.4748 26.3348 15.1641 26.022C14.8534 25.709 14.9157 25.5218 14.9157 24.3953C14.9157 23.4573 13.9832 22.5193 13.0511 22.5193C11.9326 22.5193 11.7461 22.5815 11.4354 22.2687C11.1247 21.956 11.1866 21.7683 11.1866 20.6426C11.1866 19.704 10.2545 18.7658 9.32243 18.7658C8.20341 18.7658 8.01692 18.8287 7.70623 18.5159C7.39554 18.2027 7.45786 18.0155 7.45786 16.8893C7.45786 15.951 6.52535 15.013 5.59328 15.013C4.4747 15.013 4.28821 15.0751 3.97752 14.7625C3.66683 14.4498 3.72871 14.2621 3.72871 13.1363V9.38292C3.72871 8.2571 3.66683 8.06937 3.97752 7.75669C4.28821 7.44399 4.4747 7.50671 5.59328 7.50671C6.52535 7.50671 7.45786 6.56813 7.45786 5.63002C7.45786 4.5042 7.39554 4.3165 7.70623 4.0038C8.01692 3.69062 8.20341 3.75334 9.32243 3.75334C10.4415 3.75334 10.6275 3.69062 10.9382 4.0038C11.2489 4.3165 11.1866 4.5042 11.1866 5.63002C11.1866 6.56813 12.1191 7.50671 13.0511 7.50671C14.1697 7.50671 14.3562 7.44399 14.6669 7.75669C14.9776 8.06937 14.9157 8.2571 14.9157 9.38292V13.1363C14.9157 14.2621 14.9776 14.4498 14.6669 14.7625C14.2943 15.0751 14.1697 15.013 13.0511 15.013C11.9326 15.013 11.7461 15.0751 11.4354 14.7625C11.1247 14.4498 11.1866 14.2621 11.1866 13.1363V9.38292C11.1866 8.4448 10.2545 7.50671 9.32243 7.50671C8.39037 7.50671 7.45786 8.4448 7.45786 9.38292V13.1363C7.45786 14.0744 8.38992 15.013 9.32243 15.013C10.441 15.013 10.6275 14.9502 10.9382 15.2628C11.2489 15.5756 11.1866 15.7633 11.1866 16.8893C11.1866 17.8278 12.1191 18.7658 13.0511 18.7658C14.1697 18.7658 14.3562 18.7031 14.6669 19.0164C14.9776 19.3289 14.9157 19.5166 14.9157 20.6426C14.9157 21.5806 15.8478 22.5193 16.7804 22.5193C17.7128 22.5193 18.6445 21.5806 18.6445 20.6426C18.6445 19.5166 18.5825 19.3289 18.8933 19.0164C19.204 18.7031 19.3905 18.7658 20.509 18.7658C21.4412 18.7658 22.3737 17.8278 22.3737 16.8893C22.3737 15.7633 22.3112 15.5756 22.6219 15.2628C22.9326 14.9502 23.1191 15.013 24.2381 15.013C25.1703 15.013 26.1023 14.0744 26.1023 13.1363V9.38292C26.1023 8.4448 25.1703 7.50671 24.2381 7.50671C23.3061 7.50671 22.3737 8.4448 22.3737 9.38292V13.1363C22.3737 14.2621 22.4354 14.4498 22.1247 14.7625C21.8142 15.0751 21.6277 15.013 20.509 15.013C19.3905 15.013 19.2663 15.0751 18.8933 14.7625C18.5825 14.4498 18.6445 14.2621 18.6445 13.1363V9.38292C18.6445 8.2571 18.5825 8.06937 18.8933 7.75669C19.204 7.44399 19.3905 7.50671 20.509 7.50671C21.4412 7.50671 22.3737 6.56813 22.3737 5.63002C22.3737 4.5042 22.3112 4.3165 22.6219 4.0038C22.9326 3.69062 23.1191 3.75334 24.2381 3.75334C25.3573 3.75334 25.5433 3.69062 25.854 4.0038C26.1645 4.3165 26.1023 4.5042 26.1023 5.63002C26.1023 6.56813 27.0347 7.50671 27.9669 7.50671C29.0854 7.50671 29.2719 7.44399 29.5826 7.75669C29.8934 8.06937 29.8314 8.2571 29.8314 9.38292V13.1363C29.8314 14.2621 29.8934 14.4498 29.5826 14.7625Z" fill="white"/>
<path d="M179.758 24.3566C178.314 24.3566 177.198 23.9451 176.412 23.1223C175.644 22.2994 175.26 21.1383 175.26 19.6389V11.8491H172.572V9.408H173.121C173.779 9.408 174.3 9.20686 174.684 8.80457C175.068 8.40229 175.26 7.872 175.26 7.21371V6.00686H177.811V9.408H181.13V11.8491H177.811V19.5566C177.811 20.0503 177.884 20.48 178.03 20.8457C178.195 21.2114 178.46 21.504 178.826 21.7234C179.192 21.9246 179.676 22.0251 180.28 22.0251C180.408 22.0251 180.563 22.016 180.746 21.9977C180.947 21.9794 181.13 21.9611 181.294 21.9429V24.192C181.057 24.2469 180.792 24.2834 180.499 24.3017C180.206 24.3383 179.96 24.3566 179.758 24.3566Z" fill="white"/>
<path d="M162.576 24.5211C161.607 24.5211 160.748 24.3474 159.998 24C159.267 23.6343 158.691 23.1406 158.27 22.5189C157.85 21.8789 157.639 21.1474 157.639 20.3246C157.639 19.5383 157.804 18.8343 158.133 18.2126C158.48 17.5726 159.011 17.0331 159.724 16.5943C160.455 16.1554 161.37 15.8446 162.467 15.6617L167.952 14.7566V16.896L163.043 17.7189C162.092 17.8834 161.397 18.1851 160.958 18.624C160.538 19.0629 160.327 19.6023 160.327 20.2423C160.327 20.8457 160.565 21.3486 161.04 21.7509C161.534 22.1531 162.147 22.3543 162.878 22.3543C163.811 22.3543 164.615 22.1623 165.292 21.7783C165.987 21.376 166.526 20.8366 166.91 20.16C167.312 19.4834 167.514 18.7337 167.514 17.9109V14.1531C167.514 13.3486 167.212 12.6994 166.608 12.2057C166.023 11.6937 165.246 11.4377 164.277 11.4377C163.436 11.4377 162.686 11.6571 162.028 12.096C161.388 12.5166 160.912 13.0834 160.602 13.7966L158.38 12.6446C158.654 11.968 159.093 11.3646 159.696 10.8343C160.3 10.2857 161.004 9.856 161.808 9.54514C162.613 9.23429 163.454 9.07886 164.332 9.07886C165.466 9.07886 166.462 9.29829 167.322 9.73714C168.181 10.1577 168.848 10.752 169.324 11.52C169.818 12.2697 170.064 13.1474 170.064 14.1531V24.192H167.568V21.3943L168.035 21.5589C167.724 22.144 167.303 22.656 166.773 23.0949C166.243 23.5337 165.621 23.8811 164.908 24.1371C164.195 24.3931 163.418 24.5211 162.576 24.5211Z" fill="white"/>
<path d="M148.384 24.5211C146.958 24.5211 145.687 24.1829 144.572 23.5063C143.456 22.8297 142.579 21.9063 141.939 20.736C141.299 19.5474 140.979 18.2217 140.979 16.7589C140.979 15.2777 141.289 13.9611 141.911 12.8091C142.551 11.6571 143.411 10.752 144.489 10.0937C145.587 9.41714 146.812 9.07886 148.165 9.07886C149.262 9.07886 150.231 9.28 151.072 9.68229C151.932 10.0663 152.654 10.5966 153.239 11.2731C153.843 11.9314 154.3 12.6903 154.611 13.5497C154.94 14.3909 155.104 15.2686 155.104 16.1829C155.104 16.384 155.086 16.6126 155.049 16.8686C155.031 17.1063 155.004 17.3349 154.967 17.5543H142.844V15.36H153.486L152.279 16.3474C152.444 15.3966 152.352 14.5463 152.005 13.7966C151.657 13.0469 151.145 12.4526 150.469 12.0137C149.792 11.5749 149.024 11.3554 148.165 11.3554C147.305 11.3554 146.519 11.5749 145.806 12.0137C145.093 12.4526 144.535 13.0834 144.133 13.9063C143.749 14.7109 143.593 15.6709 143.667 16.7863C143.593 17.8651 143.758 18.816 144.16 19.6389C144.581 20.4434 145.166 21.0743 145.916 21.5314C146.684 21.9703 147.516 22.1897 148.412 22.1897C149.399 22.1897 150.231 21.9611 150.908 21.504C151.584 21.0469 152.133 20.4617 152.553 19.7486L154.693 20.8457C154.4 21.5223 153.943 22.144 153.321 22.7109C152.718 23.2594 151.996 23.6983 151.155 24.0274C150.332 24.3566 149.408 24.5211 148.384 24.5211Z" fill="white"/>
<path d="M130.886 24.5211C129.698 24.5211 128.61 24.256 127.622 23.7257C126.653 23.1954 125.903 22.4457 125.373 21.4766L125.73 21.0377V24.192H123.234V3.42857H125.785V12.5897L125.401 11.9589C125.949 11.0811 126.699 10.3863 127.65 9.87429C128.601 9.344 129.689 9.07886 130.914 9.07886C132.303 9.07886 133.547 9.41714 134.644 10.0937C135.759 10.7703 136.637 11.6937 137.277 12.864C137.917 14.016 138.237 15.3326 138.237 16.8137C138.237 18.2583 137.917 19.5657 137.277 20.736C136.637 21.9063 135.759 22.8297 134.644 23.5063C133.547 24.1829 132.294 24.5211 130.886 24.5211ZM130.694 22.0526C131.627 22.0526 132.459 21.824 133.19 21.3669C133.922 20.9097 134.489 20.288 134.891 19.5017C135.311 18.6971 135.522 17.8011 135.522 16.8137C135.522 15.7897 135.311 14.8937 134.891 14.1257C134.489 13.3394 133.922 12.7177 133.19 12.2606C132.459 11.7851 131.627 11.5474 130.694 11.5474C129.762 11.5474 128.921 11.776 128.171 12.2331C127.439 12.6903 126.854 13.3211 126.415 14.1257C125.995 14.912 125.785 15.808 125.785 16.8137C125.785 17.8011 125.995 18.6971 126.415 19.5017C126.854 20.288 127.439 20.9097 128.171 21.3669C128.921 21.824 129.762 22.0526 130.694 22.0526Z" fill="white"/>
<path d="M113.644 24.192V9.408H116.14V12.1234L115.866 11.7394C116.214 10.8983 116.744 10.2766 117.457 9.87429C118.17 9.45372 119.039 9.24343 120.063 9.24343H120.968V11.6571H119.679C118.636 11.6571 117.795 11.9863 117.155 12.6446C116.515 13.2846 116.195 14.1989 116.195 15.3874V24.192H113.644Z" fill="white"/>
<path d="M103.599 24.5211C102.172 24.5211 100.901 24.1829 99.786 23.5063C98.6706 22.8297 97.7928 21.9063 97.1528 20.736C96.5128 19.5474 96.1928 18.2217 96.1928 16.7589C96.1928 15.2777 96.5037 13.9611 97.1254 12.8091C97.7654 11.6571 98.6248 10.752 99.7037 10.0937C100.801 9.41714 102.026 9.07886 103.379 9.07886C104.476 9.07886 105.445 9.28 106.287 9.68229C107.146 10.0663 107.868 10.5966 108.453 11.2731C109.057 11.9314 109.514 12.6903 109.825 13.5497C110.154 14.3909 110.319 15.2686 110.319 16.1829C110.319 16.384 110.3 16.6126 110.264 16.8686C110.245 17.1063 110.218 17.3349 110.181 17.5543H98.058V15.36H108.7L107.493 16.3474C107.658 15.3966 107.567 14.5463 107.219 13.7966C106.872 13.0469 106.36 12.4526 105.683 12.0137C105.007 11.5749 104.239 11.3554 103.379 11.3554C102.52 11.3554 101.733 11.5749 101.02 12.0137C100.307 12.4526 99.7494 13.0834 99.3471 13.9063C98.9631 14.7109 98.8077 15.6709 98.8809 16.7863C98.8077 17.8651 98.9723 18.816 99.3746 19.6389C99.7951 20.4434 100.38 21.0743 101.13 21.5314C101.898 21.9703 102.73 22.1897 103.626 22.1897C104.613 22.1897 105.445 21.9611 106.122 21.504C106.799 21.0469 107.347 20.4617 107.768 19.7486L109.907 20.8457C109.615 21.5223 109.157 22.144 108.536 22.7109C107.932 23.2594 107.21 23.6983 106.369 24.0274C105.546 24.3566 104.623 24.5211 103.599 24.5211Z" fill="white"/>
<path d="M78.4481 29.6777V9.408H80.9441V12.5897L80.6149 11.9589C81.1635 11.0811 81.9132 10.3863 82.8641 9.87429C83.8149 9.344 84.9029 9.07886 86.1281 9.07886C87.5178 9.07886 88.7612 9.41714 89.8583 10.0937C90.9738 10.7703 91.8515 11.6937 92.4915 12.864C93.1315 14.016 93.4515 15.3326 93.4515 16.8137C93.4515 18.2583 93.1315 19.5657 92.4915 20.736C91.8515 21.9063 90.9738 22.8297 89.8583 23.5063C88.7612 24.1829 87.5086 24.5211 86.1006 24.5211C84.9121 24.5211 83.8241 24.256 82.8366 23.7257C81.8675 23.1954 81.1178 22.4457 80.5875 21.4766L80.9989 21.0377V29.6777H78.4481ZM85.9086 22.0526C86.8412 22.0526 87.6732 21.824 88.4046 21.3669C89.1361 20.9097 89.7029 20.288 90.1052 19.5017C90.5258 18.6971 90.7361 17.8011 90.7361 16.8137C90.7361 15.7897 90.5258 14.8937 90.1052 14.1257C89.7029 13.3394 89.1361 12.7177 88.4046 12.2606C87.6732 11.7851 86.8412 11.5474 85.9086 11.5474C84.9761 11.5474 84.1349 11.776 83.3852 12.2331C82.6538 12.6903 82.0686 13.3211 81.6298 14.1257C81.2092 14.912 80.9989 15.808 80.9989 16.8137C80.9989 17.8011 81.2092 18.6971 81.6298 19.5017C82.0686 20.288 82.6538 20.9097 83.3852 21.3669C84.1349 21.824 84.9761 22.0526 85.9086 22.0526Z" fill="white"/>
<path d="M64.0828 30.2263C63.7536 30.2263 63.4245 30.1989 63.0954 30.144C62.7662 30.0891 62.4554 29.9977 62.1628 29.8697V27.5931C62.3639 27.6297 62.6108 27.6663 62.9034 27.7029C63.2142 27.7577 63.5159 27.7851 63.8085 27.7851C64.6679 27.7851 65.3171 27.5931 65.7559 27.2091C66.2131 26.8434 66.6428 26.2034 67.0451 25.2891L67.9776 23.0674L67.9228 25.2891L61.6142 9.408H64.3845L69.2942 22.0251H68.4714L73.3536 9.408H76.1788L69.5136 25.9474C69.2028 26.7337 68.8005 27.4469 68.3068 28.0869C67.8314 28.7451 67.2462 29.2663 66.5514 29.6503C65.8565 30.0343 65.0336 30.2263 64.0828 30.2263Z" fill="white"/>
<path d="M43.4194 24.192V3.75771H46.1074V12.864H56.3383V3.75771H59.0537V24.192H56.3383V15.3326H46.1074V24.192H43.4194Z" fill="white"/>
</g>
</svg>
