<svg preserveAspectRatio="xMidYMid meet" width="100%" height="100%" overflow="visible" style="display: block;" viewBox="0 0 317.265 52.896" fill="none" xmlns="http://www.w3.org/2000/svg">
<g id="Vector">
<path d="M55.4681 13.1367C53.5099 13.1367 53.1835 13.2457 52.6397 12.6985C52.096 12.1512 52.2049 11.8227 52.2049 9.85253C52.2049 8.21005 50.5731 6.56835 48.9421 6.56835C46.9844 6.56835 46.658 6.67812 46.1142 6.13089C45.5709 5.58287 45.679 5.25518 45.679 3.28418C45.679 1.64248 44.048 0 42.4166 0C40.7857 0 39.1539 1.64248 39.1539 3.28418C39.1539 5.25518 39.262 5.58287 38.7182 6.13089C38.1748 6.67812 37.8484 6.56835 35.8907 6.56835C34.2598 6.56835 32.628 8.21005 32.628 9.85253C32.628 11.8227 32.7369 12.1512 32.1931 12.6985C31.6493 13.2457 31.3229 13.1367 29.3656 13.1367C27.408 13.1367 27.0809 13.2457 26.5372 12.6985C25.9934 12.1512 26.1025 11.8227 26.1025 9.85253C26.1025 8.21005 24.4706 6.56835 22.8395 6.56835C20.882 6.56835 20.5556 6.67812 20.0119 6.13089C19.4682 5.58287 19.5765 5.25518 19.5765 3.28418C19.5765 1.64248 17.9454 0 16.3143 0C14.6831 0 13.0513 1.64248 13.0513 3.28418C13.0513 5.25518 13.1595 5.58287 12.6158 6.13089C12.0721 6.67812 11.7457 6.56835 9.78825 6.56835C8.15713 6.56835 6.52524 8.21005 6.52524 9.85253C6.52524 11.8227 6.6343 12.1512 6.09059 12.6985C5.54689 13.2457 5.22048 13.1367 3.26219 13.1367C1.63112 13.1367 0 14.7784 0 16.4201V22.9885C0 24.6302 1.63112 26.2727 3.26219 26.2727C5.22048 26.2727 5.54689 26.1629 6.09059 26.71C6.6343 27.2573 6.52524 27.5858 6.52524 29.5562C6.52524 31.1986 8.15713 32.8401 9.78825 32.8401C11.7457 32.8401 12.0721 32.7305 12.6158 33.2787C13.1595 33.8255 13.0513 34.154 13.0513 36.1245C13.0513 37.766 14.6824 39.4088 16.3143 39.4088C18.2718 39.4088 18.5981 39.2987 19.1418 39.8461C19.6856 40.3934 19.5765 40.7219 19.5765 42.6919C19.5765 44.3347 21.2084 45.9762 22.8395 45.9762C24.797 45.9762 25.1234 45.8666 25.6671 46.4143C26.2108 46.9616 26.1025 47.2901 26.1025 49.2601C26.1025 50.9021 27.7336 52.5445 29.3656 52.5445C30.9974 52.5445 32.628 50.9021 32.628 49.2601C32.628 47.2901 32.5195 46.9616 33.0633 46.4143C33.607 45.8666 33.9334 45.9762 35.8907 45.9762C37.5221 45.9762 39.1539 44.3347 39.1539 42.6919C39.1539 40.7219 39.0445 40.3934 39.5883 39.8461C40.1321 39.2987 40.4585 39.4088 42.4166 39.4088C44.048 39.4088 45.679 37.766 45.679 36.1245C45.679 34.154 45.5709 33.8255 46.1142 33.2787C46.658 32.7305 46.9844 32.8401 48.9421 32.8401C50.5731 32.8401 52.2049 31.1986 52.2049 29.5562C52.2049 27.5858 52.096 27.2573 52.6397 26.71C53.1835 26.1629 53.5099 26.2727 55.4681 26.2727C57.099 26.2727 58.7304 24.6302 58.7304 22.9885V16.4201C58.7304 14.7784 57.099 13.1367 55.4681 13.1367ZM51.7696 25.8344C51.2258 26.3815 50.8994 26.2727 48.9421 26.2727C47.3108 26.2727 45.679 27.9142 45.679 29.5562C45.679 31.5271 45.7879 31.8547 45.2445 32.4029C44.7007 32.9502 44.3744 32.8401 42.4166 32.8401C40.7848 32.8401 39.1539 34.4821 39.1539 36.1245C39.1539 38.0945 39.262 38.4229 38.7182 38.9703C38.1748 39.5176 37.8484 39.4088 35.8907 39.4088C34.2598 39.4088 32.628 41.0503 32.628 42.6919C32.628 44.6632 32.7369 44.9908 32.1931 45.5385C31.6493 46.0859 31.3229 45.9762 29.3656 45.9762C27.408 45.9762 27.0809 46.0859 26.5372 45.5385C25.9934 44.9908 26.1025 44.6632 26.1025 42.6919C26.1025 41.0503 24.4706 39.4088 22.8395 39.4088C20.882 39.4088 20.5556 39.5176 20.0119 38.9703C19.4682 38.4229 19.5765 38.0945 19.5765 36.1245C19.5765 34.4821 17.9454 32.8401 16.3143 32.8401C14.356 32.8401 14.0296 32.9502 13.4859 32.4029C12.9422 31.8547 13.0513 31.5271 13.0513 29.5562C13.0513 27.9142 11.4194 26.2727 9.78825 26.2727C7.83073 26.2727 7.50437 26.3815 6.96066 25.8344C6.41696 25.2872 6.52524 24.9587 6.52524 22.9885V16.4201C6.52524 14.4499 6.41696 14.1214 6.96066 13.5742C7.50437 13.027 7.83073 13.1367 9.78825 13.1367C11.4194 13.1367 13.0513 11.4942 13.0513 9.85253C13.0513 7.88235 12.9422 7.55387 13.4859 7.00664C14.0296 6.45859 14.356 6.56835 16.3143 6.56835C18.2726 6.56835 18.5981 6.45859 19.1418 7.00664C19.6856 7.55387 19.5765 7.88235 19.5765 9.85253C19.5765 11.4942 21.2084 13.1367 22.8395 13.1367C24.797 13.1367 25.1234 13.027 25.6671 13.5742C26.2108 14.1214 26.1025 14.4499 26.1025 16.4201V22.9885C26.1025 24.9587 26.2108 25.2872 25.6671 25.8344C25.0151 26.3815 24.797 26.2727 22.8395 26.2727C20.882 26.2727 20.5556 26.3815 20.0119 25.8344C19.4682 25.2872 19.5765 24.9587 19.5765 22.9885V16.4201C19.5765 14.7784 17.9454 13.1367 16.3143 13.1367C14.6831 13.1367 13.0513 14.7784 13.0513 16.4201V22.9885C13.0513 24.6302 14.6824 26.2727 16.3143 26.2727C18.2718 26.2727 18.5981 26.1629 19.1418 26.71C19.6856 27.2573 19.5765 27.5858 19.5765 29.5562C19.5765 31.1986 21.2084 32.8401 22.8395 32.8401C24.797 32.8401 25.1234 32.7305 25.6671 33.2787C26.2108 33.8255 26.1025 34.154 26.1025 36.1245C26.1025 37.766 27.7336 39.4088 29.3656 39.4088C30.9974 39.4088 32.628 37.766 32.628 36.1245C32.628 34.154 32.5195 33.8255 33.0633 33.2787C33.607 32.7305 33.9334 32.8401 35.8907 32.8401C37.5221 32.8401 39.1539 31.1986 39.1539 29.5562C39.1539 27.5858 39.0445 27.2573 39.5883 26.71C40.1321 26.1629 40.4585 26.2727 42.4166 26.2727C44.048 26.2727 45.679 24.6302 45.679 22.9885V16.4201C45.679 14.7784 44.048 13.1367 42.4166 13.1367C40.7857 13.1367 39.1539 14.7784 39.1539 16.4201V22.9885C39.1539 24.9587 39.262 25.2872 38.7182 25.8344C38.1748 26.3815 37.8484 26.2727 35.8907 26.2727C33.9334 26.2727 33.716 26.3815 33.0633 25.8344C32.5195 25.2872 32.628 24.9587 32.628 22.9885V16.4201C32.628 14.4499 32.5195 14.1214 33.0633 13.5742C33.607 13.027 33.9334 13.1367 35.8907 13.1367C37.5221 13.1367 39.1539 11.4942 39.1539 9.85253C39.1539 7.88235 39.0445 7.55387 39.5883 7.00664C40.1321 6.45859 40.4585 6.56835 42.4166 6.56835C44.3752 6.56835 44.7007 6.45859 45.2445 7.00664C45.7879 7.55387 45.679 7.88235 45.679 9.85253C45.679 11.4942 47.3108 13.1367 48.9421 13.1367C50.8994 13.1367 51.2258 13.027 51.7696 13.5742C52.3134 14.1214 52.2049 14.4499 52.2049 16.4201V22.9885C52.2049 24.9587 52.3134 25.2872 51.7696 25.8344Z" fill="#09090B"/>
<path d="M314.577 42.624C312.049 42.624 310.097 41.904 308.721 40.464C307.377 39.024 306.705 36.992 306.705 34.368V20.736H302.001V16.464H302.961C304.113 16.464 305.025 16.112 305.697 15.408C306.369 14.704 306.705 13.776 306.705 12.624V10.512H311.169V16.464H316.977V20.736H311.169V34.224C311.169 35.088 311.297 35.84 311.553 36.48C311.841 37.12 312.305 37.632 312.945 38.016C313.585 38.368 314.433 38.544 315.489 38.544C315.713 38.544 315.985 38.528 316.305 38.496C316.657 38.464 316.977 38.432 317.265 38.4V42.336C316.849 42.432 316.385 42.496 315.873 42.528C315.361 42.592 314.929 42.624 314.577 42.624Z" fill="#09090B"/>
<path d="M284.509 42.912C282.813 42.912 281.309 42.608 279.997 42C278.717 41.36 277.709 40.496 276.973 39.408C276.237 38.288 275.869 37.008 275.869 35.568C275.869 34.192 276.157 32.96 276.733 31.872C277.341 30.752 278.269 29.808 279.517 29.04C280.797 28.272 282.397 27.728 284.317 27.408L293.917 25.824V29.568L285.325 31.008C283.661 31.296 282.445 31.824 281.677 32.592C280.941 33.36 280.573 34.304 280.573 35.424C280.573 36.48 280.989 37.36 281.821 38.064C282.685 38.768 283.757 39.12 285.037 39.12C286.669 39.12 288.077 38.784 289.261 38.112C290.477 37.408 291.421 36.464 292.093 35.28C292.797 34.096 293.149 32.784 293.149 31.344V24.768C293.149 23.36 292.621 22.224 291.565 21.36C290.541 20.464 289.181 20.016 287.485 20.016C286.013 20.016 284.701 20.4 283.549 21.168C282.429 21.904 281.597 22.896 281.053 24.144L277.165 22.128C277.645 20.944 278.413 19.888 279.469 18.96C280.525 18 281.757 17.248 283.165 16.704C284.573 16.16 286.045 15.888 287.581 15.888C289.565 15.888 291.309 16.272 292.813 17.04C294.317 17.776 295.485 18.816 296.317 20.16C297.181 21.472 297.613 23.008 297.613 24.768V42.336H293.245V37.44L294.061 37.728C293.517 38.752 292.781 39.648 291.853 40.416C290.925 41.184 289.837 41.792 288.589 42.24C287.341 42.688 285.981 42.912 284.509 42.912Z" fill="#09090B"/>
<path d="M259.672 42.912C257.176 42.912 254.952 42.32 253 41.136C251.048 39.952 249.512 38.336 248.392 36.288C247.272 34.208 246.712 31.888 246.712 29.328C246.712 26.736 247.256 24.432 248.344 22.416C249.464 20.4 250.969 18.816 252.857 17.664C254.777 16.48 256.92 15.888 259.288 15.888C261.208 15.888 262.904 16.24 264.376 16.944C265.88 17.616 267.144 18.544 268.168 19.728C269.224 20.88 270.024 22.208 270.568 23.712C271.144 25.184 271.432 26.72 271.432 28.32C271.432 28.672 271.4 29.072 271.336 29.52C271.304 29.936 271.257 30.336 271.193 30.72H249.977V26.88H268.6L266.488 28.608C266.776 26.944 266.616 25.456 266.008 24.144C265.4 22.832 264.504 21.792 263.32 21.024C262.136 20.256 260.792 19.872 259.288 19.872C257.784 19.872 256.408 20.256 255.16 21.024C253.912 21.792 252.936 22.896 252.232 24.336C251.56 25.744 251.289 27.424 251.417 29.376C251.289 31.264 251.576 32.928 252.28 34.368C253.016 35.776 254.04 36.88 255.352 37.68C256.696 38.448 258.152 38.832 259.72 38.832C261.448 38.832 262.905 38.432 264.089 37.632C265.273 36.832 266.233 35.808 266.969 34.56L270.712 36.48C270.2 37.664 269.401 38.752 268.312 39.744C267.257 40.704 265.993 41.472 264.521 42.048C263.081 42.624 261.464 42.912 259.672 42.912Z" fill="#09090B"/>
<path d="M229.051 42.912C226.971 42.912 225.067 42.448 223.339 41.52C221.643 40.592 220.331 39.28 219.403 37.584L220.027 36.816V42.336H215.659V6H220.123V22.032L219.451 20.928C220.411 19.392 221.723 18.176 223.387 17.28C225.051 16.352 226.955 15.888 229.099 15.888C231.531 15.888 233.707 16.48 235.627 17.664C237.579 18.848 239.115 20.464 240.235 22.512C241.355 24.528 241.915 26.832 241.915 29.424C241.915 31.952 241.355 34.24 240.235 36.288C239.115 38.336 237.579 39.952 235.627 41.136C233.707 42.32 231.515 42.912 229.051 42.912ZM228.715 38.592C230.347 38.592 231.803 38.192 233.083 37.392C234.363 36.592 235.355 35.504 236.059 34.128C236.795 32.72 237.163 31.152 237.163 29.424C237.163 27.632 236.795 26.064 236.059 24.72C235.355 23.344 234.363 22.256 233.083 21.456C231.803 20.624 230.347 20.208 228.715 20.208C227.083 20.208 225.611 20.608 224.299 21.408C223.019 22.208 221.995 23.312 221.227 24.72C220.491 26.096 220.123 27.664 220.123 29.424C220.123 31.152 220.491 32.72 221.227 34.128C221.995 35.504 223.019 36.592 224.299 37.392C225.611 38.192 227.083 38.592 228.715 38.592Z" fill="#09090B"/>
<path d="M198.878 42.336V16.464H203.246V21.216L202.766 20.544C203.374 19.072 204.302 17.984 205.55 17.28C206.798 16.544 208.318 16.176 210.11 16.176H211.694V20.4H209.438C207.614 20.4 206.142 20.976 205.022 22.128C203.902 23.248 203.342 24.848 203.342 26.928V42.336H198.878Z" fill="#09090B"/>
<path d="M181.297 42.912C178.801 42.912 176.577 42.32 174.625 41.136C172.673 39.952 171.137 38.336 170.017 36.288C168.897 34.208 168.337 31.888 168.337 29.328C168.337 26.736 168.881 24.432 169.969 22.416C171.089 20.4 172.593 18.816 174.481 17.664C176.401 16.48 178.545 15.888 180.913 15.888C182.833 15.888 184.529 16.24 186.001 16.944C187.505 17.616 188.769 18.544 189.793 19.728C190.849 20.88 191.649 22.208 192.193 23.712C192.769 25.184 193.057 26.72 193.057 28.32C193.057 28.672 193.025 29.072 192.961 29.52C192.929 29.936 192.881 30.336 192.817 30.72H171.602V26.88H190.225L188.113 28.608C188.401 26.944 188.241 25.456 187.633 24.144C187.025 22.832 186.129 21.792 184.945 21.024C183.761 20.256 182.417 19.872 180.913 19.872C179.409 19.872 178.033 20.256 176.785 21.024C175.537 21.792 174.561 22.896 173.857 24.336C173.185 25.744 172.914 27.424 173.042 29.376C172.914 31.264 173.201 32.928 173.905 34.368C174.641 35.776 175.665 36.88 176.977 37.68C178.321 38.448 179.777 38.832 181.345 38.832C183.073 38.832 184.53 38.432 185.714 37.632C186.898 36.832 187.857 35.808 188.593 34.56L192.337 36.48C191.825 37.664 191.026 38.752 189.938 39.744C188.882 40.704 187.617 41.472 186.145 42.048C184.705 42.624 183.089 42.912 181.297 42.912Z" fill="#09090B"/>
<path d="M137.284 51.936V16.464H141.652V22.032L141.076 20.928C142.036 19.392 143.348 18.176 145.012 17.28C146.676 16.352 148.58 15.888 150.724 15.888C153.156 15.888 155.332 16.48 157.252 17.664C159.204 18.848 160.74 20.464 161.86 22.512C162.98 24.528 163.54 26.832 163.54 29.424C163.54 31.952 162.98 34.24 161.86 36.288C160.74 38.336 159.204 39.952 157.252 41.136C155.332 42.32 153.14 42.912 150.676 42.912C148.596 42.912 146.692 42.448 144.964 41.52C143.268 40.592 141.956 39.28 141.028 37.584L141.748 36.816V51.936H137.284ZM150.34 38.592C151.972 38.592 153.428 38.192 154.708 37.392C155.988 36.592 156.98 35.504 157.684 34.128C158.42 32.72 158.788 31.152 158.788 29.424C158.788 27.632 158.42 26.064 157.684 24.72C156.98 23.344 155.988 22.256 154.708 21.456C153.428 20.624 151.972 20.208 150.34 20.208C148.708 20.208 147.236 20.608 145.924 21.408C144.644 22.208 143.62 23.312 142.852 24.72C142.116 26.096 141.748 27.664 141.748 29.424C141.748 31.152 142.116 32.72 142.852 34.128C143.62 35.504 144.644 36.592 145.924 37.392C147.236 38.192 148.708 38.592 150.34 38.592Z" fill="#09090B"/>
<path d="M112.145 52.896C111.569 52.896 110.993 52.848 110.417 52.752C109.841 52.656 109.297 52.496 108.785 52.272V48.288C109.137 48.352 109.569 48.416 110.081 48.48C110.625 48.576 111.153 48.624 111.665 48.624C113.169 48.624 114.305 48.288 115.073 47.616C115.873 46.976 116.625 45.856 117.329 44.256L118.961 40.368L118.865 44.256L107.825 16.464H112.673L121.265 38.544H119.825L128.369 16.464H133.313L121.649 45.408C121.105 46.784 120.401 48.032 119.537 49.152C118.705 50.304 117.681 51.216 116.465 51.888C115.249 52.56 113.809 52.896 112.145 52.896Z" fill="#09090B"/>
<path d="M75.984 42.336V6.576H80.688V22.512H98.592V6.576H103.344V42.336H98.592V26.832H80.688V42.336H75.984Z" fill="#09090B"/>
</g>
</svg>
