<svg xmlns="http://www.w3.org/2000/svg" xmlns:xlink="http://www.w3.org/1999/xlink" width="500" zoomAndPan="magnify" viewBox="0 0 375 374.999991" height="500" preserveAspectRatio="xMidYMid meet" version="1.0"><path fill="#5170ff" d="M 181.625 23.871094 C 176.203125 31.121094 165.363281 40.207031 154.46875 46.632812 C 149.59375 49.507812 138.4375 54.492188 136.851562 54.503906 C 136.472656 54.507812 136.160156 54.761719 136.160156 55.066406 C 136.160156 55.371094 136.414062 55.621094 136.726562 55.621094 C 137.035156 55.621094 138.222656 56.210938 139.359375 56.933594 C 140.496094 57.65625 146.667969 61.515625 153.070312 65.515625 C 159.472656 69.511719 167.136719 74.351562 170.09375 76.261719 C 173.054688 78.175781 178.542969 81.714844 182.292969 84.132812 C 187.625 87.574219 192.945312 91.03125 198.257812 94.5 C 204.117188 98.320312 209.988281 102.121094 215.871094 105.90625 C 222.21875 109.992188 228.558594 114.089844 234.886719 118.203125 C 240.691406 121.976562 245.554688 124.949219 245.691406 124.8125 C 245.828125 124.675781 244.976562 120.089844 243.796875 114.625 C 242.617188 109.160156 241.34375 102.875 240.972656 100.65625 C 240.148438 95.761719 241.101562 97.203125 220.175781 69.203125 C 201.488281 44.207031 187.25 24.957031 185.820312 22.765625 C 185.273438 21.929688 184.542969 21.25 184.195312 21.257812 C 183.847656 21.269531 182.691406 22.445312 181.625 23.871094 M 221.355469 24.945312 C 221.15625 25.144531 220.992188 32.96875 220.992188 42.332031 L 220.992188 59.351562 L 223.074219 62.351562 C 229.582031 71.742188 230.738281 73.316406 231.136719 73.339844 C 231.378906 73.351562 231.40625 63.570312 231.195312 51.601562 C 230.863281 32.609375 230.699219 29.765625 229.933594 29.28125 C 226.308594 26.996094 221.65625 24.644531 221.355469 24.945312 M 131.972656 60.75 C 131.375 62.710938 124.941406 75.335938 121.664062 80.972656 C 116.5625 89.753906 106.535156 103.097656 102.964844 105.847656 C 102.535156 106.179688 102.292969 106.78125 102.425781 107.183594 C 102.5625 107.585938 106.773438 109.207031 111.789062 110.792969 C 124.945312 114.941406 135.609375 118.484375 156.953125 125.78125 C 189.464844 136.894531 188.535156 136.566406 226.261719 150.132812 C 230.226562 151.558594 237.785156 154.359375 243.0625 156.355469 C 248.339844 158.351562 252.738281 159.894531 252.835938 159.785156 C 252.933594 159.675781 251.824219 153.71875 250.375 146.554688 L 247.738281 133.523438 L 238.664062 127.601562 C 226.722656 119.8125 221.195312 116.238281 204.914062 105.785156 C 197.441406 100.984375 188.585938 95.269531 185.230469 93.085938 C 181.875 90.898438 173.328125 85.378906 166.234375 80.820312 C 158.585938 75.902344 150.949219 70.96875 143.324219 66.015625 C 137.816406 62.433594 133.097656 59.5 132.832031 59.5 C 132.566406 59.5 132.179688 60.0625 131.972656 60.75 M 99.308594 113.421875 C 99.183594 113.804688 98.183594 117.484375 97.078125 121.601562 C 92.0625 140.292969 88.046875 151.628906 83.171875 160.863281 C 81.515625 164.003906 80.15625 166.777344 80.15625 167.027344 C 80.15625 167.277344 81.964844 167.652344 84.175781 167.863281 C 90.777344 168.496094 116.054688 171.371094 130.890625 173.179688 C 140.222656 174.3125 149.554688 175.417969 158.890625 176.496094 C 166.667969 177.390625 179.644531 179.007812 187.726562 180.085938 C 195.804688 181.164062 210.652344 183.042969 220.714844 184.261719 C 230.78125 185.480469 243.378906 187.078125 248.714844 187.804688 C 254.054688 188.535156 258.527344 189.03125 258.660156 188.90625 C 258.882812 188.691406 256.636719 175.800781 255.253906 169.371094 C 254.902344 167.738281 254.347656 166.316406 254.023438 166.210938 C 253.695312 166.109375 249.8125 164.742188 245.390625 163.179688 C 215.671875 152.671875 200.011719 147.164062 179.683594 140.078125 C 161.78125 133.839844 100.09375 112.730469 99.761719 112.730469 C 99.632812 112.730469 99.429688 113.042969 99.308594 113.421875 M 78.996094 173.027344 C 78.96875 173.257812 78.980469 174.441406 79.023438 175.664062 C 79.175781 179.886719 77.894531 190.664062 76.492188 196.929688 C 74.75 204.726562 72.816406 210.578125 70.382812 215.433594 C 69.355469 217.484375 68.511719 219.324219 68.511719 219.519531 C 68.511719 219.714844 95.652344 219.691406 128.828125 219.464844 C 162 219.238281 192.4375 219.234375 196.472656 219.460938 L 203.804688 219.867188 L 203.804688 235.070312 C 203.804688 247.070312 203.957031 250.332031 204.527344 250.550781 C 204.925781 250.707031 207.328125 250.511719 209.867188 250.121094 L 214.480469 249.40625 L 214.378906 234.65625 L 214.277344 219.902344 L 222.609375 219.503906 C 227.191406 219.285156 238.621094 219.164062 248.007812 219.226562 C 262.328125 219.328125 265.054688 219.222656 264.964844 218.574219 C 264.710938 216.773438 260.347656 195.703125 260.199219 195.554688 C 260.019531 195.375 230.136719 191.539062 215.171875 189.777344 C 209.988281 189.164062 194.144531 187.191406 179.960938 185.386719 C 165.78125 183.585938 150.5625 181.710938 146.140625 181.21875 C 131.960938 179.644531 102.949219 175.929688 91.664062 174.246094 C 79.792969 172.476562 79.074219 172.40625 78.996094 173.027344 M 320.519531 225.605469 C 318.082031 226.347656 311.34375 228.300781 305.550781 229.945312 C 298.523438 231.945312 291.5 233.960938 284.480469 235.992188 C 235.265625 250.265625 198.964844 257.75 164.160156 260.796875 C 153.691406 261.714844 131.03125 262.074219 124.300781 261.429688 C 114.085938 260.453125 109.601562 257.34375 103.429688 246.949219 C 101.144531 243.105469 101.136719 243.101562 98.273438 242.777344 C 94.425781 242.34375 72.046875 240.484375 57.976562 239.429688 C 51.726562 238.960938 45.425781 238.425781 43.976562 238.238281 C 42.527344 238.050781 41.34375 238.023438 41.34375 238.179688 C 41.34375 238.835938 50.945312 257.753906 51.433594 258.0625 C 51.730469 258.25 54.945312 258.714844 58.582031 259.09375 C 62.21875 259.472656 65.375 260.070312 65.59375 260.417969 C 65.816406 260.765625 67.003906 263.171875 68.234375 265.765625 C 71.480469 272.609375 74.300781 277.546875 78.367188 283.507812 C 83.457031 290.976562 83.753906 291.257812 85.882812 290.6875 C 95.796875 288.027344 113.445312 287.902344 125.425781 290.402344 C 129.128906 291.175781 135.617188 292.921875 139.84375 294.277344 C 153.710938 298.734375 158.542969 299.589844 169.8125 299.585938 C 178.613281 299.582031 185.867188 298.613281 192.992188 296.5 C 217.980469 289.078125 219.628906 288.773438 234.578125 288.789062 C 247.335938 288.804688 249.011719 289.035156 265.074219 292.96875 C 268.363281 293.773438 271.652344 294.578125 274.941406 295.378906 C 276.324219 295.707031 278.855469 292.367188 291.519531 273.527344 C 297.359375 264.835938 304.597656 254.292969 307.601562 250.097656 C 310.609375 245.902344 313.746094 241.503906 314.574219 240.324219 C 315.40625 239.144531 318.394531 235.152344 321.214844 231.453125 C 324.035156 227.753906 326.34375 224.605469 326.34375 224.453125 C 326.34375 223.96875 325.054688 224.226562 320.519531 225.605469 M 319.847656 297.707031 C 307.089844 302.691406 298.144531 304.570312 287.1875 304.574219 C 279.617188 304.578125 273.941406 303.722656 263.285156 300.96875 C 251.378906 297.894531 245.125 297.191406 232.636719 297.53125 C 220.585938 297.859375 215.875 298.703125 202.480469 302.949219 C 179.335938 310.285156 161.433594 310.273438 138.078125 302.902344 C 125.675781 298.988281 119.441406 297.875 108.078125 297.53125 C 97.589844 297.210938 93.96875 297.523438 82.652344 299.726562 C 78.074219 300.613281 74.40625 300.917969 67.957031 300.929688 C 58.648438 300.949219 53.140625 300.109375 46.117188 297.597656 C 44.019531 296.84375 42.199219 296.332031 42.074219 296.453125 C 41.574219 296.953125 48.796875 305.800781 52.28125 308.964844 C 56.5625 312.847656 62.753906 316.265625 67.957031 317.613281 C 72.632812 318.828125 81.601562 318.839844 88.472656 317.644531 C 95.730469 316.382812 109.136719 315.933594 115.644531 316.734375 C 123.511719 317.703125 127.996094 318.738281 138.601562 322.035156 C 151.59375 326.074219 155.730469 326.8125 167.308594 327.164062 C 182.03125 327.605469 187.597656 326.765625 202.972656 321.769531 C 217.777344 316.960938 225.015625 315.890625 239.289062 316.390625 C 249.050781 316.734375 254.613281 317.546875 264.796875 320.117188 C 268.304688 321 273.414062 322.015625 276.152344 322.371094 C 290.496094 324.226562 306.070312 319.085938 316.035156 309.210938 C 318.957031 306.3125 326.898438 296.265625 326.898438 295.464844 C 326.898438 294.980469 326.496094 295.109375 319.847656 297.707031 M 95.46875 328.433594 C 93.066406 328.710938 89.054688 329.316406 86.558594 329.785156 C 84.0625 330.253906 79.355469 330.800781 76.097656 331 C 72.839844 331.199219 70.175781 331.449219 70.175781 331.554688 C 70.175781 332.386719 80.234375 340.398438 86.828125 344.816406 L 92.167969 348.394531 L 100.257812 347.816406 C 113.695312 346.863281 124.042969 348.28125 140.328125 353.304688 C 151.40625 356.722656 156.148438 357.710938 164.546875 358.347656 C 176.613281 359.265625 187.390625 357.84375 200.476562 353.613281 C 216.445312 348.457031 223.0625 347.277344 235.964844 347.285156 C 245.78125 347.292969 253.089844 348.195312 262.722656 350.589844 C 266.425781 351.511719 269.992188 352.261719 270.65625 352.261719 C 272.730469 352.261719 286.488281 342.65625 293.492188 336.320312 L 296.402344 333.6875 L 284.898438 333.675781 C 273.558594 333.664062 273.230469 333.632812 262.300781 331.351562 C 247.6875 328.304688 241.484375 327.640625 231.25 328.035156 C 221.453125 328.414062 213.925781 329.847656 202.140625 333.578125 C 189.09375 337.710938 181.820312 338.960938 170.828125 338.949219 C 159.554688 338.941406 151.703125 337.652344 138.570312 333.652344 C 125.714844 329.738281 118.441406 328.410156 108.433594 328.15625 C 103.707031 328.035156 97.875 328.160156 95.46875 328.433594 " fill-opacity="1" fill-rule="evenodd"/></svg>