<?xml version="1.0" encoding="utf-8"?>
<svg xmlns="http://www.w3.org/2000/svg" height="48" viewBox="0 0 48 48" width="48">

  <circle cx="24" cy="24" fill="white" r="24"/>


  <g transform="translate(7, 16) scale(0.031)">
<path d="M0 0 C50.49 0 100.98 0 153 0 C162.22582081 18.45164161 162.22582081 18.45164161 165.98828125 26.16015625 C166.41341003 27.02987564 166.83853882 27.89959503 167.27655029 28.79566956 C168.62280602 31.55082224 169.9677911 34.30659207 171.3125 37.0625 C171.77598846 38.01187439 172.23947693 38.96124878 172.7170105 39.93939209 C179.11787451 53.05243517 185.47886439 66.1824203 191.74316406 79.36132812 C194.12957401 84.37149104 196.5346609 89.37270143 198.9375 94.375 C199.94661983 96.47655998 200.95573441 98.57812248 201.96484375 100.6796875 C202.46612793 101.72350586 202.96741211 102.76732422 203.48388672 103.84277344 C204.99086367 106.98097406 206.49746591 110.11935425 208.00390625 113.2578125 C208.49802002 114.28720947 208.99213379 115.31660645 209.5012207 116.37719727 C210.50380997 118.46615626 211.50625038 120.5551867 212.50854492 122.64428711 C214.95487867 127.7426321 217.4037943 132.83969537 219.859375 137.93359375 C224.14693233 146.83537945 228.4204815 155.74271498 232.609375 164.69140625 C232.92290421 165.36104401 233.23643341 166.03068176 233.5594635 166.72061157 C234.03771828 167.74207779 234.03771828 167.74207779 234.52563477 168.78417969 C242.57357734 185.97133672 250.83826251 203.04526112 259.18026733 220.09146118 C259.59128693 220.93139618 260.00230652 221.77133118 260.42578125 222.63671875 C260.8289859 223.46062103 261.23219055 224.28452332 261.64761353 225.13339233 C266.06688513 234.17039383 270.40575251 243.24488732 274.72705078 252.32910156 C277.11979351 257.34954757 279.52957239 262.36182421 281.9375 267.375 C282.94661458 269.4765625 283.95572917 271.578125 284.96484375 273.6796875 C285.46612793 274.72350586 285.96741211 275.76732422 286.48388672 276.84277344 C287.99086367 279.98097406 289.49746591 283.11935425 291.00390625 286.2578125 C291.49842285 287.28777344 291.99293945 288.31773437 292.50244141 289.37890625 C293.50182961 291.46175248 294.50020018 293.5450873 295.49755859 295.62890625 C297.9859833 300.82467866 300.49153742 306.01068774 303.03515625 311.1796875 C313.48067507 332.48928551 322.79886655 354.05318972 329 377 C330.45879338 373.16485334 331.88594587 369.3421624 333.18359375 365.44921875 C339.7711931 345.6864207 348.88974472 326.88566651 358.30859375 308.33984375 C360.99758089 303.03626833 363.57346435 297.68330152 366.125 292.3125 C370.80333626 282.47498897 375.5476058 272.67077344 380.3125 262.875 C385.57755098 252.04887049 390.83337294 241.21853446 396.0625 230.375 C401.02874127 220.07702724 406.00954114 209.78625217 411 199.5 C416.01070138 189.17180433 421.01248493 178.8394148 426 168.5 C431.32611353 157.4586505 436.66966893 146.42586901 442.02050781 135.39648438 C446.69079105 125.76934251 451.35108362 116.13747961 456 106.5 C460.9875152 96.16058492 465.98939588 85.82824304 471 75.5 C476.05108668 65.08786603 481.09477702 54.67223043 486.125 44.25 C486.68533936 43.08952148 487.24567871 41.92904297 487.82299805 40.73339844 C490.53652215 35.11188557 493.24669571 29.48881246 495.94946289 23.86212158 C497.25451922 21.1458038 498.56111074 18.4302259 499.86785889 15.71472168 C500.4938402 14.41276792 501.11905332 13.11044451 501.74346924 11.80773926 C502.60445398 10.01155396 503.46817202 8.21667961 504.33203125 6.421875 C504.82421143 5.39674805 505.3163916 4.37162109 505.82348633 3.31542969 C507 1 507 1 508 0 C559.48 0 610.96 0 664 0 C664 158.07 664 316.14 664 479 C633.31 479 602.62 479 571 479 C570.95584869 430.85435096 570.91894363 382.70872112 570.89786934 334.5630576 C570.89536815 328.8695937 570.89277948 323.17612985 570.89013672 317.48266602 C570.88934979 315.78257938 570.88934979 315.78257938 570.88854696 314.04814757 C570.87986166 295.73430962 570.86410209 277.42048432 570.84569441 259.10665386 C570.82694305 240.29296713 570.81587224 221.47928699 570.81182301 202.6655913 C570.80908878 191.07128386 570.80047595 179.47701219 570.78416707 167.88271577 C570.77353545 159.91508701 570.77041324 151.94747655 570.77299725 143.97984122 C570.77426899 139.39378897 570.77242132 134.80779888 570.76158905 130.22175789 C570.6534449 82.03966531 570.6534449 82.03966531 574 72 C573.34 72 572.68 72 572 72 C571.65582031 73.27230469 571.31164062 74.54460937 570.95703125 75.85546875 C568.44039571 84.21832936 565.00902374 92.24492158 561.6875 100.3125 C561.15686447 101.60497147 561.15686447 101.60497147 560.61550903 102.92355347 C554.01910833 118.94650294 546.78300221 134.5173391 539 150 C538.37039052 151.2584374 537.74116677 152.51706785 537.11230469 153.77587891 C536.63611946 154.72904243 536.63611946 154.72904243 536.15031433 155.70146179 C535.83000748 156.34267471 535.50970062 156.98388763 535.1796875 157.64453125 C533.32216633 161.36278465 531.46182642 165.07941188 529.58764648 168.78930664 C525.97690261 175.95404901 522.48424192 183.16638352 519.04296875 190.4140625 C514.57351022 199.81008159 509.97394955 209.1357789 505.3125 218.4375 C504.97608679 219.1088863 504.63967358 219.7802726 504.29306602 220.47200394 C501.51496319 226.01424543 498.73161579 231.55384946 495.94812012 237.09338379 C493.52551926 241.91522361 491.10488952 246.73804521 488.6875 251.5625 C488.34989655 252.23618622 488.01229309 252.90987244 487.66445923 253.60397339 C483.52815122 261.86452367 479.45633986 270.15138886 475.5 278.5 C471.21757988 287.53670099 466.79251681 296.49764603 462.3125 305.4375 C461.97529938 306.11046112 461.63809875 306.78342224 461.29067993 307.47677612 C458.51337262 313.01742695 455.73081727 318.55543862 452.94812012 324.09338379 C450.52551925 328.91522361 448.10490066 333.7380508 445.6875 338.5625 C445.35321991 339.22953949 445.01893982 339.89657898 444.67453003 340.58383179 C439.88924443 350.14027851 435.19176549 359.73398933 430.6237793 369.39672852 C427.50837628 375.98487273 424.26208558 382.47582884 421 389 C359.62 389 298.24 389 235 389 C232.36 383.72 229.72 378.44 227 373 C225.93136719 370.87433594 224.86273438 368.74867188 223.76171875 366.55859375 C218.26356994 355.61947687 212.8364945 344.65442116 207.58447266 333.5949707 C202.97583768 323.90638165 198.26831225 314.26663012 193.5625 304.625 C188.34418179 293.93126817 183.13214435 283.23544845 178 272.5 C172.92735965 261.89101784 167.78035385 251.31894825 162.625 240.75 C156.43627682 228.06224625 150.26676171 215.36587288 144.13720703 202.64941406 C140.44959723 194.99984744 136.75176182 187.35535899 133.04443359 179.71533203 C131.68454289 176.91265324 130.32691588 174.10889559 128.97119141 171.30419922 C126.0662428 165.29776287 123.15589762 159.2952322 120.17887878 153.32411194 C108.61196076 130.12196012 99.37055806 106.35440474 91.81518555 81.56811523 C91.47269775 80.45766846 91.13020996 79.34722168 90.77734375 78.203125 C90.48077881 77.21989258 90.18421387 76.23666016 89.87866211 75.22363281 C89.21946225 72.83161029 89.21946225 72.83161029 87 72 C87.13277344 72.76441406 87.26554687 73.52882813 87.40234375 74.31640625 C89.69993152 88.25286929 90.14979922 102.09851262 90.12025452 116.19212341 C90.12069174 117.76836876 90.12156942 119.34461403 90.12284368 120.92085892 C90.12505894 125.20817464 90.1211085 129.49546494 90.11606562 133.78277743 C90.11171822 138.4226389 90.11321057 143.06249912 90.1139679 147.70236206 C90.11449043 155.72664666 90.111372 163.75092307 90.10573006 171.77520561 C90.09757824 183.37675117 90.09499607 194.9782928 90.09374207 206.57984091 C90.09155732 225.40584995 90.08491291 244.23185464 90.07543945 263.05786133 C90.06625039 281.33780902 90.05917687 299.61775554 90.05493164 317.89770508 C90.05466892 319.02583555 90.05440619 320.15396602 90.05413551 321.31628226 C90.0528304 326.97618575 90.05156671 332.63608924 90.05032361 338.29599273 C90.03996897 385.19733235 90.02154037 432.09866392 90 479 C60.3 479 30.6 479 0 479 C0 320.93 0 162.86 0 0 Z" fill="#151515" transform="translate(0,0)"/>
<path d="M0 0 C55.44 0 110.88 0 168 0 C168 28.05 168 56.1 168 85 C197.7 85 227.4 85 258 85 C258 185.32 258 285.64 258 389 C313.44 389 368.88 389 426 389 C426.0309375 411.2440625 426.0309375 411.2440625 426.0625 433.9375 C426.071604 438.62702881 426.08070801 443.31655762 426.09008789 448.14819336 C426.09460449 453.85656738 426.09460449 453.85656738 426.09544373 456.52540588 C426.09698346 458.39703102 426.10050898 460.26865514 426.10557556 462.14027405 C426.11285159 464.9684523 426.11390747 467.79656971 426.11352539 470.62475586 C426.11892255 471.88408762 426.11892255 471.88408762 426.12442875 473.16886044 C426.11402634 478.88597366 426.11402634 478.88597366 425 480 C422.83573826 480.09695318 420.66824747 480.12186765 418.5018158 480.12025452 C417.81492457 480.12110894 417.12803335 480.12196337 416.42032725 480.12284368 C414.10172545 480.12450045 411.78319483 480.11897393 409.46459961 480.11352539 C407.80930076 480.11324354 406.15400178 480.11340122 404.498703 480.1139679 C399.99063067 480.11425594 395.48258471 480.10835819 390.97451854 480.10139394 C386.26862263 480.09516145 381.56272618 480.09455668 376.85682678 480.09336853 C367.93911366 480.0902549 359.02141273 480.08204109 350.10370499 480.07201904 C338.05774094 480.05877392 326.01177359 480.05335825 313.9658041 480.04751682 C294.97719359 480.03810122 275.98860882 480.01818252 257 480 C257 450.3 257 420.6 257 390 C227.63 390 198.26 390 168 390 C168 419.7 168 449.4 168 480 C112.56 480 57.12 480 0 480 C0 449.97 0 419.94 0 389 C55.11 389 110.22 389 167 389 C167 289.01 167 189.02 167 86 C111.89 86 56.78 86 0 86 C0 57.62 0 29.24 0 0 Z" fill="#141414" transform="translate(732,0)"/>
  </g>
</svg>
