<?xml version="1.0" encoding="UTF-8"?>
<svg viewBox="0 0 218 47" version="1.1" xmlns="http://www.w3.org/2000/svg" xmlns:xlink="http://www.w3.org/1999/xlink">
    <title>avant-logo</title>
    <g id="Page-1" stroke="none" stroke-width="1" fill="none" fill-rule="evenodd">
        <g id="avant-logo" transform="translate(0, 0.2)" fill="#FFFFFF" fill-rule="nonzero">
            <g id="Group" transform="translate(66.5, 4.9)">
                <path d="M2.1,14.9 C3.4,12.5 5.2,10.6 7.4,9.3 C9.6,8 12.1,7.3 14.9,7.3 C17.7,7.3 19.5,7.8 21.3,8.7 C23.1,9.7 24.6,10.9 25.7,12.3 L25.7,7.8 L32.2,7.8 L32.2,39 L25.7,39 L25.7,34.4 C24.6,35.9 23.1,37.1 21.2,38.1 C19.3,39.1 17.2,39.6 14.7,39.6 C12.2,39.6 9.6,38.9 7.3,37.5 C5.1,36.1 3.3,34.2 2,31.7 C0.7,29.2 1.52020044e-23,26.4 1.52020044e-23,23.3 C1.52020044e-23,20.2 0.7,17.4 2,15 L2.1,14.9 Z M24.3,17.7 C23.4,16.1 22.2,14.9 20.8,14.1 C19.4,13.3 17.8,12.9 16.2,12.9 C14.6,12.9 13,13.3 11.6,14.1 C10.2,14.9 9,16.1 8.1,17.7 C7.2,19.3 6.8,21.1 6.8,23.3 C6.8,25.5 7.2,27.3 8.1,29 C9,30.6 10.2,31.9 11.6,32.7 C13.1,33.6 14.6,34 16.2,34 C17.8,34 19.4,33.6 20.8,32.8 C22.2,32 23.4,30.8 24.3,29.1 C25.2,27.5 25.6,25.6 25.6,23.5 C25.6,21.4 25.2,19.5 24.3,17.9 L24.3,17.7 Z" id="Shape"></path>
                <polygon id="Path" points="49.9 33.2 58.7 7.7 65.6 7.7 53.7 38.9 46 38.9 34.2 7.7 41.1 7.7"></polygon>
                <path d="M66.3,14.9 C67.6,12.5 69.4,10.6 71.6,9.3 C73.8,8 76.3,7.3 79.1,7.3 C81.9,7.3 83.7,7.8 85.5,8.7 C87.3,9.7 88.8,10.9 89.9,12.3 L89.9,7.8 L96.4,7.8 L96.4,39 L89.9,39 L89.9,34.4 C88.8,35.9 87.3,37.1 85.4,38.1 C83.5,39.1 81.4,39.6 78.9,39.6 C76.4,39.6 73.8,38.9 71.5,37.5 C69.3,36.1 67.5,34.2 66.2,31.7 C64.9,29.2 64.2,26.4 64.2,23.3 C64.2,20.2 64.9,17.4 66.2,15 L66.3,14.9 Z M88.6,17.7 C87.7,16.1 86.5,14.9 85.1,14.1 C83.7,13.3 82.1,12.9 80.5,12.9 C78.9,12.9 77.3,13.3 75.9,14.1 C74.5,14.9 73.3,16.1 72.4,17.7 C71.5,19.3 71.1,21.1 71.1,23.3 C71.1,25.5 71.5,27.3 72.4,29 C73.3,30.6 74.5,31.9 75.9,32.7 C77.4,33.6 78.9,34 80.5,34 C82.1,34 83.7,33.6 85.1,32.8 C86.5,32 87.7,30.8 88.6,29.1 C89.5,27.5 89.9,25.6 89.9,23.5 C89.9,21.4 89.5,19.5 88.6,17.9 L88.6,17.7 Z" id="Shape"></path>
                <path d="M124.5,8.8 C126.4,9.8 128,11.3 129.1,13.3 C130.2,15.3 130.7,17.7 130.7,20.6 L130.7,39 L124.3,39 L124.3,21.5 C124.3,18.7 123.6,16.6 122.2,15.1 C120.8,13.6 118.9,12.9 116.5,12.9 C114.1,12.9 112.2,13.6 110.7,15.1 C109.3,16.6 108.6,18.7 108.6,21.5 L108.6,39 L102.1,39 L102.1,7.8 L108.6,7.8 L108.6,11.4 C109.7,10.1 111,9.1 112.7,8.4 C114.3,7.7 116.1,7.3 117.9,7.3 C119.7,7.3 122.6,7.8 124.5,8.8 L124.5,8.8 Z" id="Path"></path>
                <path d="M143.6,13 L143.6,30.3 C143.6,31.5 143.9,32.3 144.4,32.8 C144.9,33.3 145.9,33.6 147.2,33.6 L151.2,33.6 L151.2,39 L146.1,39 C143.2,39 141,38.3 139.4,37 C137.8,35.6 137.1,33.4 137.1,30.4 L137.1,13.1 L133.4,13.1 L133.4,7.8 L137.1,7.8 L137.1,2.39899859e-24 L143.6,2.39899859e-24 L143.6,7.8 L151.2,7.8 L151.2,13.1 L143.6,13.1 L143.6,13 Z" id="Path"></path>
            </g>
            <polygon id="Path" points="45.7 25.1 45.7 33.5 26.5 0 -3.55271368e-15 46.2 8.3 46.2 16.2 32.3 32.1 32.3 27.9 25.1 20.4 25.1 26.5 14.5 44.7 46.2 53.1 46.2 53.1 25.1"></polygon>
        </g>
    </g>
</svg>