<svg width="175" height="41" viewBox="0 0 175 41" fill="none" xmlns="http://www.w3.org/2000/svg">
<g clip-path="url(#clip0_51_26)">
<path d="M55.118 15.894C56.1689 13.9572 57.5963 12.4501 59.4004 11.3788C61.2045 10.3075 63.2029 9.7688 65.3896 9.7688C67.3638 9.7688 69.0889 10.1562 70.5589 10.9248C72.0288 11.6996 73.2072 12.6559 74.088 13.8059V10.1743H79.324V35.1895H74.088V31.4672C73.2072 32.6475 72.0106 33.634 70.492 34.4208C68.9735 35.2077 67.2423 35.6011 65.2985 35.6011C63.1422 35.6011 61.168 35.0503 59.3761 33.9427C57.5842 32.8411 56.1628 31.2917 55.118 29.3125C54.0733 27.3333 53.5448 25.0818 53.5448 22.57C53.5448 20.0581 54.0672 17.8308 55.118 15.894ZM73.025 18.1637C72.3082 16.8927 71.3789 15.9242 70.2248 15.2585C69.0707 14.5927 67.8254 14.2598 66.4891 14.2598C65.1527 14.2598 63.9075 14.5866 62.7534 15.2343C61.5993 15.8879 60.6639 16.8382 59.9532 18.0971C59.2364 19.356 58.8841 20.845 58.8841 22.57C58.8841 24.2949 59.2425 25.8081 59.9532 27.1094C60.6639 28.4107 61.6054 29.4033 62.7777 30.0812C63.944 30.7591 65.1831 31.1041 66.4891 31.1041C67.7951 31.1041 69.0707 30.7712 70.2248 30.1054C71.3789 29.4396 72.3143 28.4651 73.025 27.1759C73.7357 25.8928 74.0941 24.3857 74.0941 22.6607C74.0941 20.9358 73.7357 19.4347 73.025 18.1697V18.1637Z" fill="#282828"/>
<path d="M93.5925 30.5594L100.699 10.1804H106.215L96.6479 35.1956H90.4521L80.9337 10.1804H86.4917L93.5986 30.5594H93.5925Z" fill="#282828"/>
<path d="M106.78 15.894C107.831 13.9572 109.258 12.4501 111.062 11.3788C112.866 10.3075 114.865 9.7688 117.051 9.7688C119.026 9.7688 120.751 10.1562 122.221 10.9248C123.691 11.6996 124.869 12.6559 125.75 13.8059V10.1743H130.986V35.1895H125.75V31.4672C124.869 32.6475 123.672 33.634 122.154 34.4208C120.635 35.2077 118.904 35.6011 116.96 35.6011C114.804 35.6011 112.83 35.0503 111.038 33.9427C109.246 32.8411 107.825 31.2917 106.78 29.3125C105.735 27.3333 105.207 25.0818 105.207 22.57C105.207 20.0581 105.729 17.8308 106.78 15.894ZM124.687 18.1637C123.97 16.8927 123.041 15.9242 121.887 15.2585C120.732 14.5927 119.487 14.2598 118.151 14.2598C116.814 14.2598 115.569 14.5866 114.415 15.2343C113.261 15.8879 112.326 16.8382 111.615 18.0971C110.898 19.356 110.546 20.845 110.546 22.57C110.546 24.2949 110.904 25.8081 111.615 27.1094C112.326 28.4107 113.267 29.4033 114.439 30.0812C115.606 30.7591 116.845 31.1041 118.151 31.1041C119.457 31.1041 120.732 30.7712 121.887 30.1054C123.041 29.4396 123.976 28.4651 124.687 27.1759C125.397 25.8928 125.756 24.3857 125.756 22.6607C125.756 20.9358 125.397 19.4347 124.687 18.1697V18.1637Z" fill="#282828"/>
<path d="M153.521 10.9914C155.082 11.8085 156.309 13.019 157.19 14.6229C158.071 16.2269 158.508 18.1637 158.508 20.4334V35.1895H153.363V21.2081C153.363 18.9687 152.799 17.2498 151.675 16.0574C150.551 14.8651 149.014 14.2658 147.071 14.2658C145.127 14.2658 143.584 14.8651 142.448 16.0574C141.306 17.2558 140.741 18.9687 140.741 21.2081V35.1895H135.548V10.1743H140.741V13.0372C141.592 12.0082 142.679 11.2033 143.997 10.6283C145.321 10.0533 146.724 9.7688 148.212 9.7688C150.187 9.7688 151.954 10.1743 153.521 10.9975V10.9914Z" fill="#282828"/>
<path d="M168.895 14.399V28.2473C168.895 29.1854 169.114 29.8573 169.557 30.2688C169.995 30.6743 170.748 30.8801 171.811 30.8801H175V35.1896H170.9C168.561 35.1896 166.769 34.6448 165.524 33.5554C164.279 32.4659 163.653 30.6986 163.653 28.2473V14.399H160.689V10.1743H163.653V3.95837H168.889V10.1743H174.994V14.399H168.889H168.895Z" fill="#282828"/>
<path d="M36.7798 20.1187V26.8431L21.3207 0L0 37.0114H6.68778L13.0779 25.9231H25.7792L22.4141 20.1187H16.4188L21.3207 11.6027L35.9476 37.0114H42.6536V20.1187H36.7798Z" fill="#3A14A3"/>
</g>
<defs>
<clipPath id="clip0_51_26">
<rect width="175" height="41" fill="white"/>
</clipPath>
</defs>
</svg>
