<svg fill="none" viewBox="0 0 186 53" xmlns="http://www.w3.org/2000/svg">
  <path d="M13.662.15186.35346 7.83189C.14357 7.95591.01 8.18488.01 8.43293V24.1842l.8777.5151 3.38674-1.9558-.87769-.5151V10.3696c0-.248.13356-.47698.34345-.60101l9.93129-5.72424c.2099-.12403.477-.12403.6964 0l9.9122 5.72424c.2099.12403.3435.35301.3435.60101v11.8588l-.4007.2385-2.5186 1.4597-3.3104 1.9271-2.4519 1.412-2.7571 1.5933-5.83852 3.3677c-.21942.124-.34345.353-.34345.6011v7.3079c0 .2481.13357.477.34345.6011l6.33462 3.6444c.2099.124.477.124.6965 0l6.3251-3.6444c.2099-.1241.3434-.353.3434-.6011v-7.7086l-.8777-.4961-.1812-.1145-2.5949-1.4979.8299-.4865 2.7762-1.5837 3.3677-1.9558 2.5377-1.4692 1.1066-.6392V8.43293c0-.24805-.1335-.47702-.3434-.60104L14.3679.15186c-.2099-.12403-.477-.12403-.6964 0h-.0095ZM17.6593 34.774v3.3964c0 .248-.1336.477-.3435.601l-2.9574 1.7078c-.2099.124-.477.124-.6964 0l-2.9575-1.7078c-.2099-.124-.3434-.353-.3434-.601V34.774c0-.248.1335-.477.3434-.601l2.9575-1.7078c.2098-.124.477-.124.6964 0l2.9574 1.7078c.2099.124.3435.353.3435.601Z" fill="#F6F6F6"/>
  <path d="m27.1035 27.8955-3.3676 1.9558.8777.4961v11.8588c0 .248-.1336.477-.3435.601l-9.9122 5.7242c-.2099.1241-.477.1241-.6964 0l-9.9313-5.7242c-.20989-.124-.34345-.353-.34345-.601V30.7481c0-.248.13356-.477.35299-.601l1.56458-.8968 4.07364-2.3565 2.44224-1.412 2.1943-1.2593.0572-.0286.7918-.458 5.8195-3.3678c.2099-.124.3435-.3529.3435-.601v-7.308c0-.248-.1336-.477-.3435-.601l-6.3251-3.66352c-.2194-.12402-.477-.12402-.6964 0L7.32683 11.8581c-.20988.124-.34345.353-.34345.601v7.7087l.8777.4961.08586.0572 2.69036 1.5551-.97313.5534-2.44228 1.4024-.18126.1145-3.38676 1.9558-.26712.1526-2.41366 1.3834L0 28.4107v15.7512c0 .2481.13356.4771.34345.6011l13.30845 7.68c.2099.124.4771.124.6965 0l13.2989-7.68c.2099-.124.3435-.353.3435-.6011V28.4107l-.8873-.5152ZM10.3511 17.8209v-3.3964c0-.2481.1335-.477.3434-.6011l2.9574-1.7077c.2099-.124.4771-.124.6965 0l2.9574 1.7077c.2099.1241.3435.353.3435.6011v3.3964c0 .248-.1336.477-.3435.601l-2.9574 1.7077c-.2099.1241-.477.1241-.6965 0l-2.9574-1.7077c-.2099-.124-.3434-.353-.3434-.601Z" fill="#F18F00"/>
  <path d="M51.5747 33.5449h-3.4154V18.1371h-5.8099v-3.4154h14.9017v3.4154h-5.6764v15.4078Zm44.3522-7.1936c0 2.1943-.8014 3.9879-2.4041 5.3808-1.6028 1.3834-3.2819 2.0798-5.0468 2.0798-1.7649 0-3.444-.6964-5.0563-2.0798-1.6027-1.3929-2.4041-3.177-2.4041-5.3808V14.7311h3.2818v11.6202c0 1.0017.3912 1.9558 1.1639 2.8621.7823.9064 1.784 1.3643 3.0052 1.3643 1.2211 0 2.2514-.4484 2.967-1.3356.7155-.8873 1.0685-1.8509 1.0685-2.8908V14.7311h3.4153v11.6202h.0096Zm-18.4124 7.1936h-3.6443l-5.7241-13.5283-5.5905 13.5283H58.978l7.9374-18.8232h2.4518l8.1473 18.8232Z" fill="#F6F6F6"/>
  <path fill-rule="evenodd" clip-rule="evenodd" d="M71.8483 26.0077h-4.3407c.4674.6106.9349 1.2212 1.4119 1.8317 1.4596 0 2.9193.0096 4.3789.0191-.4865-.6106-.9635-1.2307-1.4501-1.8413v-.0095Z" fill="#F6F6F6"/>
  <path d="M123.374 30.1388v3.4155h-13.013V14.7311h3.415v15.4077h9.598Zm41.146 1.7079c-.486.4866-1.097.8873-1.841 1.2212-.62.3244-1.297.477-2.023.477h-9.473V14.7217h9.473c.697 0 1.384.1622 2.052.477.725.2576 1.326.6583 1.803 1.2021.505.4961.896 1.0399 1.192 1.6314l.048.1145c.229.6869.334 1.3833.334 2.118 0 .7346-.115 1.4024-.353 2.0321-.191.4579-.563 1.0494-1.126 1.7649.553.7251.925 1.3452 1.116 1.8509.239.6487.363 1.3356.363 2.0512 0 .7155-.115 1.4406-.334 2.1179l-.048.1336c-.296.5915-.687 1.1258-1.183 1.6219v.0095Zm-9.922-13.7096v4.2932h6.058c.592 0 1.069-.1908 1.451-.5819.467-.4675.696-.9922.696-1.5742 0-.582-.229-1.1067-.696-1.5742-.382-.3816-.869-.5724-1.451-.5724h-6.058v.0095Zm6.058 12.0019c.592 0 1.069-.1908 1.451-.582.467-.4579.696-.9826.696-1.5741 0-.5916-.229-1.1067-.696-1.5742-.382-.3816-.869-.5724-1.451-.5724h-6.058v4.2931h6.058v.0096Zm19.643 3.3966c-.114 0-.19.0095-.219.0095h-3.797c-2.423 0-4.131-1.1926-5.123-3.5681h-.01c-.085-.2481-.162-.4675-.209-.6583-.058-.1908-.105-.3816-.144-.582-.038-.1908-.057-.3625-.057-.5151h3.425l.258.6392s.038.0954.067.1717c.047.1526.114.3148.209.4866.096.1717.268.3148.516.4388.238.124.601.1908 1.078.1908h3.797c.143 0 .267-.0095.362-.0381l.248-.0382s.057-.0191.105-.0382c.038-.019.086-.0381.115-.0477l.143-.0477c.2-.0954.4-.2194.61-.3721l.038-.0476c.268-.2958.43-.6583.477-1.0877l.029-.1144c0-.105.01-.2004.01-.2958 0-.0859 0-.1813-.01-.2767-.019-.1717-.067-.372-.134-.6106-.076-.2289-.2-.4484-.381-.6487-.525-.4102-1.069-.6106-1.622-.6106h-3.787c-1.059 0-1.87-.1622-2.424-.477-.553-.3148-.954-.6106-1.211-.8873l-.115-.1049s-.076-.0573-.133-.1145c-.496-.4484-.887-1.0113-1.193-1.6886-.324-.7251-.477-1.4884-.477-2.2993 0-.1622 0-.3244.01-.4961.047-.6106.21-1.2116.467-1.8031.201-.4293.43-.811.687-1.1449l.096-.1049h.009s0-.0286.01-.0286l.21-.229c.095-.105.2-.2004.314-.2958.506-.5056 1.069-.8681 1.689-1.0876.658-.2385 1.345-.3625 2.061-.3625h3.797c.057 0 .133 0 .219.0095.649.0764 1.25.229 1.813.4675.305.1145.601.2481.896.4102l.182.105c.372.2385.696.5056.973.7918h.009l.038.0096.315.4388h.01v.0287l.152.2289c.239.3912.43.7919.573 1.2212.038.1336.057.2385.076.3339l.296 1.2307h-3.425l-.258-.6392c-.028-.0572-.114-.1908-.276-.3911-.153-.2004-.372-.3912-.649-.582-.277-.1813-.601-.2767-.964-.2767h-3.796c-.42 0-.792.0764-1.107.229-.057.0286-.115.0572-.172.0954-.019 0-.038.0286-.067.0477l-.066.0477s-.019.0191-.029.0286c0 0-.019 0-.029.0096-.047.0477-.095.0763-.114.1049h-.01l-.038.0668c-.429.4293-.649.935-.649 1.5074 0 .2003.029.3816.077.5533.095.3626.305.6965.62 1.0113.372.3912.897.582 1.574.582h3.787c1.365 0 2.624.4865 3.759 1.4501l.038.0382s0 .0191.029.0286l.029.0286c.505.458.915 1.0304 1.221 1.7078.133.2957.238.6105.324.9349.115.458.172.9159.172 1.3643 0 .8014-.162 1.5742-.477 2.2992-.172.3912-.382.7442-.62 1.0495-.172.2385-.401.4961-.687.7537-.181.1431-.334.248-.458.3244-.115.0763-.229.1526-.363.2385-.267.1431-.572.2862-.925.4293-.544.2289-1.145.3816-1.803.4675h.009Zm-33.752.0093h-3.645l-5.724-13.5283-5.59 13.5283h-3.578l7.938-18.8232h2.451l8.148 18.8232Z" fill="#F6F6F6"/>
  <path fill-rule="evenodd" clip-rule="evenodd" d="M140.88 26.0077h-4.341c.467.6106.935 1.2212 1.412 1.8317 1.459 0 2.919.0096 4.379.0191-.487-.6106-.964-1.2307-1.45-1.8413v-.0095Z" fill="#F6F6F6"/>
</svg>