
<svg fill="none" viewBox="0 0 119 34" xmlns="http://www.w3.org/2000/svg" >
  <path d="M8.75952.05964.22632 4.98382c-.13458.07952-.22022.22633-.22022.38537V15.4684l.56277.3303 2.17153-1.254-.56276-.3303V6.61094c0-.15904.08563-.30585.22021-.38537l6.36779-3.67019c.13458-.07953.30585-.07953.44654 0l6.35552 3.67019c.1346.07952.2203.22633.2203.38537v7.60346l-.257.1529-1.6148.9359-2.1226 1.2356-1.5721.9053-1.76783 1.0216-3.7436 2.1593c-.14069.0795-.22021.2263-.22021.3853v4.6857c0 .159.08564.3058.22021.3853l4.06169 2.3367c.13457.0795.30585.0795.44654 0l4.0556-2.3367c.1345-.0795.2202-.2263.2202-.3853v-4.9426l-.5628-.3181-.1162-.0734-1.6638-.9603.5321-.312 1.7801-1.0154 2.1593-1.254 1.6271-.942.7096-.4098V5.36919c0-.15904-.0857-.30585-.2202-.38537L9.21218.05964c-.13457-.07952-.30585-.07952-.44654 0h-.00612ZM11.3225 22.2582v2.1777c0 .159-.0856.3058-.2202.3853l-1.89624 1.095c-.13457.0795-.30585.0795-.44654 0l-1.89626-1.095c-.13458-.0795-.22022-.2263-.22022-.3853v-2.1777c0-.159.08564-.3058.22022-.3854l1.89626-1.0949c.13458-.0795.30585-.0795.44654 0l1.89624 1.0949c.1346.0796.2202.2264.2202.3854Z" fill="#111216"/>
  <path d="m17.3784 17.8479-2.1593 1.2539.5627.3181v7.6034c0 .1591-.0856.3059-.2202.3854l-6.35552 3.6702c-.13458.0795-.30585.0795-.44654 0l-6.36779-3.6702c-.13458-.0795-.22022-.2263-.22022-.3854v-7.3465c0-.159.08564-.3058.22633-.3853l1.00319-.575 2.61196-1.5109 1.56595-.9053 1.4069-.8075.03671-.0183.50771-.2937 3.73132-2.1593c.1346-.0795.2203-.2263.2203-.3853V7.95055c0-.15904-.0857-.30585-.2203-.38537L9.20608 5.21626c-.14069-.07952-.30585-.07952-.44654 0L4.69785 7.56518c-.13457.07952-.22021.22633-.22021.38537v4.94255l.56276.3181.05506.0367 1.72499.997-.62393.3548-1.56595.8992-.11623.0734-2.17153 1.254-.17128.0979-1.5476.887L0 18.1782v10.0991c0 .1591.08564.3059.22021.3854l8.53321 4.9242c.13457.0795.30585.0795.44654 0l8.52714-4.9242c.1345-.0795.2202-.2263.2202-.3854V18.1782l-.5689-.3303ZM6.63694 11.3883V9.21065c0-.15904.08564-.30584.22021-.38537l1.89627-1.09494c.13457-.07952.30585-.07952.44654 0l1.89624 1.09494c.1346.07953.2202.22633.2202.38537v2.17765c0 .159-.0856.3059-.2202.3854l-1.89624 1.0949c-.13457.0795-.30585.0795-.44654 0l-1.89627-1.0949c-.13457-.0795-.22021-.2264-.22021-.3854Z" fill="#FB740A"/>
  <path d="M33.0379 22.7721h-2.1898v-9.879h-3.7253v-2.1899h9.5548v2.1899h-3.6397v9.879Zm28.4378-4.6122c0 1.4069-.5139 2.5569-1.5415 3.4499-1.0277.887-2.1043 1.3335-3.2359 1.3335-1.1317 0-2.2082-.4465-3.242-1.3335-1.0277-.893-1.5415-2.0369-1.5415-3.4499v-7.4505h2.1042v7.4505c0 .6422.2508 1.2539.7463 1.8351.5016.5811 1.1439.8747 1.9269.8747.7829 0 1.4436-.2875 1.9024-.8564.4587-.5689.6851-1.1867.6851-1.8534v-7.4505h2.1898v7.4505h.0062ZM49.67 22.7721h-2.3367l-3.6702-8.6739-3.5846 8.6739h-2.2938l5.0893-12.0689h1.5721L49.67 22.7721Z" fill="#111216"/>
  <path fill-rule="evenodd" clip-rule="evenodd" d="M46.0366 17.9396h-2.7832c.2998.3915.5995.7829.9053 1.1744.9359 0 1.8718.0062 2.8077.0123-.3119-.3915-.6178-.7891-.9298-1.1806v-.0061Z" fill="#111216"/>
  <path d="M79.0743 20.5882v2.1899h-8.3436V10.7092h2.1899v9.879h6.1537Zm26.3827 1.095c-.312.312-.704.5689-1.181.783-.397.208-.832.3059-1.297.3059h-6.0737V10.7032h6.0737c.447 0 .887.104 1.316.3059.464.1652.85.4221 1.156.7707.324.3181.575.6668.764 1.046l.031.0734c.147.4405.214.887.214 1.358 0 .471-.073.8992-.226 1.3029-.123.2937-.361.6729-.722 1.1317.355.4649.593.8625.716 1.1867.153.4159.232.8564.232 1.3151 0 .4588-.073.9237-.214 1.358l-.031.0856c-.189.3793-.44.7219-.758 1.0399v.0061Zm-6.3618-8.7901v2.7527h3.8838c.38 0 .686-.1224.93-.3732.3-.2997.447-.6361.447-1.0093 0-.3731-.147-.7095-.447-1.0093-.244-.2446-.556-.367-.93-.367h-3.8838v.0061Zm3.8838 7.6952c.38 0 .686-.1223.93-.3731.3-.2936.447-.6301.447-1.0093 0-.3793-.147-.7096-.447-1.0093-.244-.2447-.556-.3671-.93-.3671h-3.8838v2.7527h3.8838v.0061Zm12.595 2.1776c-.073 0-.122.0061-.14.0061h-2.435c-1.554 0-2.649-.7646-3.285-2.2877h-.006c-.055-.1591-.104-.2997-.134-.4221-.037-.1223-.068-.2447-.092-.3731-.025-.1224-.037-.2325-.037-.3303h2.196l.165.4098s.025.0612.043.1101c.031.0979.073.2019.135.312.061.1101.171.2018.33.2813.153.0796.385.1224.691.1224h2.435c.091 0 .171-.0061.232-.0245l.159-.0244s.037-.0123.067-.0245c.025-.0122.056-.0245.074-.0306l.092-.0306c.128-.0612.257-.1407.391-.2385l.025-.0306c.171-.1897.275-.4221.305-.6974l.019-.0734c0-.0673.006-.1284.006-.1896 0-.0551 0-.1162-.006-.1774-.012-.1101-.043-.2386-.086-.3915-.049-.1468-.128-.2875-.245-.4159-.336-.2631-.685-.3915-1.039-.3915h-2.429c-.679 0-1.199-.104-1.554-.3059-.354-.2018-.611-.3915-.776-.5689l-.074-.0672s-.049-.0367-.085-.0734c-.319-.2875-.569-.6484-.765-1.0828-.208-.4648-.306-.9542-.306-1.4742 0-.1039 0-.2079.006-.318.031-.3915.135-.7769.3-1.1561.128-.2753.275-.52.44-.7341l.062-.0673h.006s0-.0183.006-.0183l.134-.1468c.061-.0673.129-.1285.202-.1897.324-.3242.685-.5566 1.083-.6973.422-.1529.862-.2324 1.321-.2324h2.435c.036 0 .085 0 .14.0061.416.0489.802.1468 1.163.2997.195.0734.385.159.575.263l.116.0673c.238.153.446.3242.624.5077h.006l.024.0062.202.2813h.006v.0184l.098.1468c.153.2508.276.5077.367.783.025.0856.037.1529.049.2141l.19.7891h-2.196l-.165-.4099c-.019-.0367-.074-.1223-.178-.2508-.098-.1284-.238-.2508-.416-.3731-.177-.1162-.385-.1774-.618-.1774h-2.434c-.269 0-.508.0489-.71.1468-.036.0184-.073.0367-.11.0612-.012 0-.024.0183-.043.0306l-.042.0305s-.013.0123-.019.0184c0 0-.012 0-.018.0061-.031.0306-.061.0489-.073.0673h-.007l-.024.0428c-.275.2753-.416.5995-.416.9665 0 .1285.018.2447.049.3548.061.2324.196.4465.398.6484.238.2508.575.3731 1.009.3731h2.428c.875 0 1.682.312 2.41.9298l.025.0245s0 .0122.018.0183l.019.0184c.324.2936.587.6606.782 1.0949.086.1896.153.3915.208.5995.074.2936.111.5872.111.8747 0 .5138-.104 1.0093-.306 1.4742-.11.2508-.245.4771-.398.6729-.11.1529-.257.3181-.44.4832-.117.0918-.214.1591-.294.208-.073.0489-.147.0979-.232.1529-.172.0918-.367.1835-.594.2753-.348.1468-.734.2447-1.156.2997h.006Zm-21.6416.0062h-2.3367l-3.6701-8.6739-3.5846 8.6739h-2.2939l5.0894-12.0689h1.572l5.2239 12.0689Z" fill="#111216"/>
  <path fill-rule="evenodd" clip-rule="evenodd" d="M90.2989 17.9396h-2.7833c.2998.3915.5995.7829.9053 1.1744.9359 0 1.8718.0062 2.8077.0123-.3119-.3915-.6178-.7891-.9297-1.1806v-.0061Z" fill="#111216"/>
</svg>