<svg viewBox="0 0 1024 1024" xmlns="http://www.w3.org/2000/svg" fill-rule="evenodd" clip-rule="evenodd" stroke-linejoin="round" stroke-miterlimit="2">
  <path d="M0 0h1024v1024H0z"/>
  <path d="M732.293 272.859c-131.244 0-237.638 107.067-237.638 239.141s106.394 239.141 237.638 239.141S969.93 644.074 969.93 512 863.537 272.859 732.293 272.859zM56.603 320.18c-7.215-12.627 1.842-28.381 16.316-28.381H495.117c13.424 0 22.533 13.74 17.377 26.214L344.188 725.225c-2.921 7.064-9.776 11.667-17.378 11.667H160.339c-13.425 0-22.533-13.74-17.378-26.214l50.28-121.649a38.09 38.09 0 00-2.124-33.43L56.603 320.18zm467.898-32.325a.22.22 0 01.304-.203.22.22 0 01.119.288c-.093.223-.423.156-.423-.085z" fill="#cf0"/>
</svg>