<svg width="91" height="47" viewBox="0 0 91 47" fill="none" xmlns="http://www.w3.org/2000/svg">
    <path fill-rule="evenodd" clip-rule="evenodd"
        d="M67.0506 0C54.1535 0 43.6983 10.5213 43.6983 23.5C43.6983 36.4787 54.1535 47 67.0506 47C79.9477 47 90.4028 36.4787 90.4028 23.5C90.4028 10.5213 79.9477 0 67.0506 0ZM0.651739 4.65021C-0.0572372 3.4094 0.832784 1.86124 2.25509 1.86123L17.0391 1.86121H31.2187L43.7437 1.86123C45.063 1.86124 45.958 3.2114 45.4514 4.43721L28.9122 44.4532C28.6253 45.1474 27.9516 45.5997 27.2045 45.5997H10.8457C9.52648 45.5997 8.63142 44.2495 9.13807 43.0237L14.0789 31.0695C14.5204 30.0013 14.4433 28.7873 13.8703 27.7844L0.651739 4.65021ZM46.6314 1.4737C46.6314 1.45823 46.647 1.44774 46.6612 1.45368C46.6722 1.45828 46.6774 1.47096 46.6728 1.48202C46.6637 1.50391 46.6314 1.4974 46.6314 1.4737Z"
        fill="#CCFF00" />
</svg>
