<svg width="90" height="47" viewBox="0 0 90 47" fill="none" xmlns="http://www.w3.org/2000/svg">
    <path id="Union" fill-rule="evenodd" clip-rule="evenodd"
        d="M66.6478 0C53.7507 0 43.2955 10.5213 43.2955 23.5C43.2955 36.4787 53.7507 47 66.6478 47C79.5449 47 90 36.4787 90 23.5C90 10.5213 79.5449 0 66.6478 0ZM0.248907 4.65021C-0.460069 3.4094 0.429952 1.86124 1.85225 1.86123L16.6363 1.86121H30.8158L43.3409 1.86123C44.6601 1.86124 45.5552 3.2114 45.0485 4.43721L28.5094 44.4532C28.2225 45.1474 27.5487 45.5997 26.8017 45.5997H10.4429C9.12364 45.5997 8.22858 44.2495 8.73523 43.0237L13.6761 31.0695C14.1176 30.0013 14.0405 28.7873 13.4674 27.7844L0.248907 4.65021ZM46.2285 1.4737C46.2285 1.45823 46.2442 1.44774 46.2583 1.45368C46.2693 1.45828 46.2745 1.47096 46.27 1.48202C46.2609 1.50391 46.2285 1.4974 46.2285 1.4737Z"
        fill="black" />
</svg>