<svg width="703" height="113" viewBox="0 0 703 113" fill="none" xmlns="http://www.w3.org/2000/svg">
<g clip-path="url(#clip0_126_24005)">
<path fill-rule="evenodd" clip-rule="evenodd" d="M0.0999985 103.2L0.200005 112.6H51.7V0H0.0999985L0 9.4C23.3 9.4 42.2 28.3 42.2 51.6V61C42.3 84.3 23.4 103.2 0.0999985 103.2Z" fill="white"/>
<path fill-rule="evenodd" clip-rule="evenodd" d="M0.100098 56.2999C0.100098 70.7999 5.6001 84 14.5001 93.9C15.9001 93.2 17.3001 92.3999 18.6001 91.4999C10.0001 82.2999 4.7001 69.9 4.7001 56.2999C4.7001 42.6999 10.0001 30.3 18.6001 21.1C17.3001 20.2 15.9001 19.4 14.4001 18.7C5.5001 28.6 0.100098 41.7999 0.100098 56.2999Z" fill="white"/>
<path fill-rule="evenodd" clip-rule="evenodd" d="M112.6 103.2L112.5 112.6H61V0H112.5L112.6 9.4C89.3 9.4 70.4 28.3 70.4 51.6V61C70.4 84.3 89.3 103.2 112.6 103.2Z" fill="white"/>
<path fill-rule="evenodd" clip-rule="evenodd" d="M112.6 56.2999C112.6 70.7999 107.1 84 98.2001 93.9C96.8001 93.2 95.4001 92.3999 94.1001 91.4999C102.7 82.2999 108 69.9 108 56.2999C108 42.6999 102.7 30.3 94.1001 21.1C95.4001 20.2 96.8001 19.4 98.3001 18.7C107.1 28.6 112.6 41.7999 112.6 56.2999Z" fill="white"/>
<path fill-rule="evenodd" clip-rule="evenodd" d="M192 95.8C198.5 99.4 205.8 101.3 214.1 101.3C222.8 101.3 230.4 99.4001 236.7 95.6001C243.2 91.7001 248.1 86.4001 251.5 79.6001C255 72.7001 256.7 64.9001 256.7 56.1001C256.7 47.1001 254.9 39.3001 251.4 32.6001C247.8 25.8001 242.8 20.6 236.4 16.9C229.9 13.2 222.5 11.3 214.1 11.3C205.5 11.3 197.9 13.2 191.5 17C185.1 20.8 180.2 26.1 176.7 32.9C173.3 39.6 171.6 47.3 171.6 56C171.6 65 173.4 73.0001 176.9 79.9001C180.5 86.8001 185.6 92.1 192 95.8ZM230.2 86.1001C225.6 88.9001 220.3 90.3 214.2 90.3C208.1 90.3 202.8 88.9001 198.3 86.1001C193.7 83.3001 190.2 79.3 187.7 74.2C185.3 69.1 184.1 63 184.1 56C184.1 49.1 185.3 43.1001 187.7 38.1001C190.2 33.0001 193.7 29.1 198.3 26.4C202.9 23.6 208.2 22.2001 214.2 22.2001C220.3 22.2001 225.7 23.6 230.2 26.4C234.8 29.1 238.3 33.0001 240.8 38.1001C243.3 43.2001 244.5 49.1 244.5 56C244.5 63 243.3 69 240.8 74.2C238.4 79.3 234.9 83.3001 230.2 86.1001ZM319.7 101.3C312.4 101.3 305.9 100.1 300.2 97.8C294.5 95.5 290 92.2 286.6 88C283.3 83.8 281.5 78.9 281.1 73.3H293.7C294.4 78.5 297 82.7001 301.7 85.9001C306.3 89.0001 312.4 90.5 319.7 90.5C325.9 90.5 330.6 89.3 333.9 87C337.2 84.6 338.9 81.3001 338.9 77.1001C338.9 74.5001 338.2 72.4001 336.9 70.6001C335.6 68.9001 333.8 67.4001 331.7 66.4001C329.6 65.2001 327 64.2 323.7 63.3L308.9 58.7L307.9 58.5C307.6 58.3 307.2 58.2001 306.9 58.1001C302.8 56.8001 299.1 55.4001 295.8 53.9001C292.6 52.4001 289.9 50.1001 287.5 47.1001C285.1 44.0001 283.9 40.1001 283.9 35.2001C283.9 30.6001 285.1 26.5 287.5 22.9C290 19.3 293.5 16.4 298.1 14.4C302.7 12.4 308 11.4 314 11.4C320.7 11.4 326.6 12.5 331.5 14.8C336.6 17 340.5 20.4001 343.3 24.7001C346.2 29.0001 347.9 34.2001 348.3 40.4001H335.9C335.5 34.7001 333.3 30.2001 329.4 27.1001C325.6 23.9001 320.3 22.2001 313.5 22.2001C308.2 22.2001 303.9 23.3001 300.7 25.6001C297.5 27.8001 296 30.7001 296 34.6001C296 37.1001 296.6 39.1 297.9 40.7C299.2 42.3 300.8 43.5001 302.8 44.4001C304.8 45.2001 307.4 46.2 310.6 47.3C311 47.4 311.4 47.5 311.7 47.5C312.1 47.6 312.5 47.7001 312.9 47.9001L326.6 52.1001C331.7 53.8001 335.9 55.4001 339.3 57.1001C342.7 58.7001 345.5 61.1 347.8 64.3C350.1 67.5 351.3 71.6001 351.3 76.6001C351.3 81.7001 350 86.2001 347.4 89.9001C344.9 93.6001 341.3 96.5 336.6 98.5C331.7 100.3 326.1 101.3 319.7 101.3ZM399 23.8V99.8H411.1V23.8H440.8V12.7001H369.3V23.8H399ZM467.3 99.8V12.7001H479.5V99.8H467.3ZM527.4 97.3C532.8 100 539.1 101.3 546.3 101.3C553.6 101.3 559.9 100 565.2 97.3C570.5 94.6 574.6 90.9 577.4 86.2C580.2 81.6 581.6 76.4 581.6 70.7V12.7001H569.5V70.4001C569.5 74.5001 568.5 78.1001 566.4 81.1001C564.4 84.1001 561.6 86.4001 558.1 87.9001C554.6 89.4001 550.7 90.1001 546.4 90.1001C542.1 90.1001 538.1 89.4001 534.6 87.9001C531.1 86.3001 528.3 84.0001 526.3 81.1001C524.3 78.1001 523.3 74.5001 523.3 70.4001V12.7001H511.2V70.7C511.2 76.4 512.6 81.6 515.3 86.2C518.1 90.9 522.1 94.6 527.4 97.3ZM613.2 12.7001V99.8H625.4V33.9L652 99.8H663.2L690.1 33.8V99.8H702.2V12.7001H687L657.8 85.3L628.3 12.7001H613.2Z" fill="white"/>
</g>
<defs>
<clipPath id="clip0_126_24005">
<rect width="702.2" height="112.6" fill="white"/>
</clipPath>
</defs>
</svg>
