<svg width="21" height="21" viewBox="0 0 21 21" fill="none" xmlns="http://www.w3.org/2000/svg">
<path fill-rule="evenodd" clip-rule="evenodd" d="M0 18.9404L0.00956575 20.6623H9.47021V0H0.00956575L0 1.72185C4.27976 1.72185 7.74834 5.19044 7.74834 9.4702V11.1921C7.74834 15.4718 4.27976 18.9404 0 18.9404Z" fill="white"/>
<path fill-rule="evenodd" clip-rule="evenodd" d="M0 10.3311C0 12.9876 1.0025 15.4097 2.64974 17.2406C2.9128 17.1066 3.16726 16.9584 3.41118 16.7948C1.82899 15.1026 0.860927 12.8297 0.860927 10.3311C0.860927 7.83157 1.82899 5.55872 3.41214 3.86652C3.16726 3.7039 2.9128 3.55563 2.64974 3.4217C1.0025 5.25261 0 7.67468 0 10.3311Z" fill="white"/>
<path fill-rule="evenodd" clip-rule="evenodd" d="M20.6626 18.9404L20.653 20.6623H11.1924V0H20.653L20.6626 1.72185C16.3828 1.72185 12.9142 5.19044 12.9142 9.4702V11.1921C12.9142 15.4718 16.3828 18.9404 20.6626 18.9404Z" fill="white"/>
<path fill-rule="evenodd" clip-rule="evenodd" d="M20.6622 10.3311C20.6622 12.9876 19.6596 15.4097 18.0124 17.2406C17.7493 17.1066 17.4949 16.9584 17.251 16.7948C18.8332 15.1026 19.8013 12.8297 19.8013 10.3311C19.8013 7.83253 18.8332 5.55872 17.25 3.86652C17.4949 3.7039 17.7493 3.55563 18.0124 3.4217C19.6596 5.25261 20.6622 7.67468 20.6622 10.3311Z" fill="white"/>
</svg>
