<svg width="113" height="113" viewBox="0 0 113 113" fill="none" xmlns="http://www.w3.org/2000/svg">
<g clip-path="url(#clip0_126_23992)">
<path fill-rule="evenodd" clip-rule="evenodd" d="M0 103.2L0.1 112.6H51.6V0H0.1L0 9.4C23.3 9.4 42.2 28.3 42.2 51.6V61C42.2 84.3 23.3 103.2 0 103.2Z" fill="#FF5A19"/>
<path fill-rule="evenodd" clip-rule="evenodd" d="M0 56.2999C0 70.7999 5.5 83.9999 14.4 93.8999C15.8 93.1999 17.2 92.3999 18.5 91.4999C10 82.2999 4.7 69.9 4.7 56.2999C4.7 42.6999 10 30.2999 18.6 21.0999C17.3 20.1999 15.9 19.4 14.4 18.7C5.5 28.7 0 41.9 0 56.2999Z" fill="#FF5A19"/>
<path fill-rule="evenodd" clip-rule="evenodd" d="M112.6 103.2L112.5 112.6H61V0H112.5L112.6 9.4C89.3 9.4 70.4 28.3 70.4 51.6V61C70.4 84.3 89.3 103.2 112.6 103.2Z" fill="#FF5A19"/>
<path fill-rule="evenodd" clip-rule="evenodd" d="M112.6 56.2999C112.6 70.7999 107.1 83.9999 98.2001 93.8999C96.8001 93.1999 95.4001 92.3999 94.1001 91.4999C102.7 82.2999 108 69.9 108 56.2999C108 42.6999 102.7 30.2999 94.1001 21.0999C95.4001 20.1999 96.8001 19.4 98.3001 18.7C107.1 28.7 112.6 41.9 112.6 56.2999Z" fill="#FF5A19"/>
</g>
<defs>
<clipPath id="clip0_126_23992">
<rect width="112.6" height="112.6" fill="white"/>
</clipPath>
</defs>
</svg>
