<svg width="100" height="100" viewBox="0 0 100 100" fill="none" xmlns="http://www.w3.org/2000/svg">
<rect width="100" height="99.9996" rx="28.105" fill="#D0DBDA"/>
<g clip-path="url(#clip0_126_24037)">
<path fill-rule="evenodd" clip-rule="evenodd" d="M20.8897 74.9828L20.917 79.8966H47.9155V20.9312H20.917L20.8897 25.8449C33.1032 25.8449 43.0017 35.7435 43.0017 47.957V52.8708C43.0017 65.0843 33.1032 74.9828 20.8897 74.9828Z" fill="#111111"/>
<path fill-rule="evenodd" clip-rule="evenodd" d="M20.8896 50.4139C20.8896 57.9948 23.7506 64.9068 28.4514 70.1318C29.2021 69.7497 29.9283 69.3265 30.6244 68.8597C26.1092 64.0306 23.3465 57.5444 23.3465 50.4139C23.3465 43.2807 26.1092 36.7945 30.6271 31.9653C29.9283 31.5013 29.2021 31.0781 28.4514 30.6959C23.7506 35.9209 20.8896 42.833 20.8896 50.4139Z" fill="#111111"/>
<path fill-rule="evenodd" clip-rule="evenodd" d="M79.8551 74.9828L79.8278 79.8966H52.8293V20.9312H79.8278L79.8551 25.8449C67.6416 25.8449 57.7431 35.7435 57.7431 47.957V52.8708C57.7431 65.0843 67.6416 74.9828 79.8551 74.9828Z" fill="#111111"/>
<path fill-rule="evenodd" clip-rule="evenodd" d="M79.8551 50.4139C79.8551 57.9948 76.9942 64.9068 72.2933 70.1318C71.5426 69.7497 70.8165 69.3265 70.1204 68.8597C74.6356 64.0306 77.3982 57.5444 77.3982 50.4139C77.3982 43.2834 74.6356 36.7945 70.1176 31.9653C70.8165 31.5013 71.5426 31.0781 72.2933 30.6959C76.9942 35.9209 79.8551 42.833 79.8551 50.4139Z" fill="#111111"/>
</g>
<defs>
<clipPath id="clip0_126_24037">
<rect width="58.9655" height="58.9655" fill="white" transform="translate(21.0122 20.9993)"/>
</clipPath>
</defs>
</svg>
