<svg width="100" height="100" viewBox="0 0 100 100" fill="none" xmlns="http://www.w3.org/2000/svg">
<rect width="100" height="99.9996" rx="28.105" fill="#FF5A19"/>
<g clip-path="url(#clip0_126_24031)">
<path fill-rule="evenodd" clip-rule="evenodd" d="M20.8894 74.9828L20.9167 79.8966H47.9153V20.9312H20.9167L20.8894 25.8449C33.1029 25.8449 43.0015 35.7435 43.0015 47.957V52.8708C43.0015 65.0843 33.1029 74.9828 20.8894 74.9828Z" fill="#111111"/>
<path fill-rule="evenodd" clip-rule="evenodd" d="M20.8894 50.4139C20.8894 57.9948 23.7503 64.9068 28.4512 70.1318C29.2019 69.7497 29.928 69.3265 30.6242 68.8597C26.1089 64.0306 23.3463 57.5444 23.3463 50.4139C23.3463 43.2807 26.1089 36.7945 30.6269 31.9653C29.928 31.5013 29.2019 31.0781 28.4512 30.6959C23.7503 35.9209 20.8894 42.833 20.8894 50.4139Z" fill="#111111"/>
<path fill-rule="evenodd" clip-rule="evenodd" d="M79.8549 74.9828L79.8276 79.8966H52.829V20.9312H79.8276L79.8549 25.8449C67.6414 25.8449 57.7428 35.7435 57.7428 47.957V52.8708C57.7428 65.0843 67.6414 74.9828 79.8549 74.9828Z" fill="#111111"/>
<path fill-rule="evenodd" clip-rule="evenodd" d="M79.8549 50.4139C79.8549 57.9948 76.994 64.9068 72.2931 70.1318C71.5424 69.7497 70.8162 69.3265 70.1201 68.8597C74.6353 64.0306 77.398 57.5444 77.398 50.4139C77.398 43.2834 74.6353 36.7945 70.1174 31.9653C70.8162 31.5013 71.5424 31.0781 72.2931 30.6959C76.994 35.9209 79.8549 42.833 79.8549 50.4139Z" fill="#111111"/>
</g>
<defs>
<clipPath id="clip0_126_24031">
<rect width="58.9655" height="58.9655" fill="white" transform="translate(21.0122 20.9993)"/>
</clipPath>
</defs>
</svg>
