<svg width="98" height="17" viewBox="0 0 98 17" fill="none" xmlns="http://www.w3.org/2000/svg">
<path fill-rule="evenodd" clip-rule="evenodd" d="M3.76836 15.5208C4.96316 16.1995 6.32351 16.5298 7.84916 16.5298C9.44842 16.5298 10.8455 16.1812 12.022 15.484C13.2168 14.7686 14.1176 13.7778 14.7425 12.5304C15.3859 11.2645 15.6984 9.83351 15.6984 8.21901C15.6984 6.56793 15.3675 5.13689 14.7058 3.90771C14.044 2.66018 13.1249 1.70619 11.93 1.02738C10.7352 0.348572 9.37489 0 7.83082 0C6.24999 0 4.85287 0.348572 3.65808 1.04573C2.48162 1.74288 1.58084 2.71522 0.937465 3.96274C0.312518 5.19193 0 6.6046 0 8.21901C0 9.87019 0.330854 11.3379 0.992649 12.6037C1.65436 13.8513 2.57348 14.8236 3.76836 15.5208ZM10.7903 13.7412C9.94474 14.2549 8.97052 14.5117 7.83082 14.5117C6.70946 14.5117 5.73524 14.2549 4.90806 13.7412C4.06246 13.2275 3.41909 12.4937 2.95952 11.5397C2.51838 10.604 2.29773 9.48492 2.29773 8.20068C2.29773 6.93477 2.51838 5.83405 2.95952 4.91675C3.41909 3.9811 4.06246 3.2656 4.90806 2.77026C5.75366 2.25657 6.72789 1.99972 7.83082 1.99972C8.95218 1.99972 9.94474 2.25657 10.7903 2.77026C11.6359 3.2656 12.2793 3.9811 12.7389 4.91675C13.1984 5.85239 13.419 6.93477 13.419 8.20068C13.419 9.48492 13.1984 10.5857 12.7389 11.5397C12.2977 12.4937 11.6543 13.2091 10.7903 13.7412ZM27.2608 16.5298C25.9189 16.5298 24.7241 16.3097 23.6763 15.8877C22.6285 15.4657 21.7829 14.8603 21.1763 14.0898C20.5697 13.3192 20.2388 12.4203 20.1653 11.3929H22.4815C22.6101 12.3469 23.0881 13.1174 23.952 13.7045C24.7976 14.2732 25.9189 14.5485 27.2793 14.5485C28.4189 14.5485 29.3013 14.3282 29.8895 13.9063C30.4961 13.466 30.8086 12.8606 30.8086 12.0717C30.8086 11.5947 30.6799 11.2094 30.441 10.8792C30.202 10.5674 29.8712 10.2921 29.4851 10.1087C29.0991 9.88852 28.6211 9.70506 28.0145 9.53993L25.294 8.69605L25.1101 8.65938C25.055 8.62262 24.9814 8.60428 24.9263 8.58594C24.1726 8.34746 23.4925 8.09065 22.8859 7.81541C22.2977 7.54026 21.8013 7.11823 21.3601 6.56793C20.919 5.99916 20.6984 5.26532 20.6984 4.36636C20.6984 3.52244 20.919 2.75191 21.3601 2.1098C21.8197 1.43099 22.4631 0.917301 23.3087 0.550382C24.1543 0.183463 25.1285 0 26.2314 0C27.4631 0 28.5476 0.20181 29.4667 0.623768C30.4042 1.02738 31.1211 1.65115 31.6358 2.45837C32.1689 3.24725 32.4814 4.20125 32.5549 5.3387H30.2571C30.1836 4.29298 29.7792 3.46741 29.0623 2.89868C28.3638 2.31161 27.3895 1.99972 26.1396 1.99972C25.1652 1.99972 24.3748 2.20153 23.7866 2.62349C23.1984 3.0271 22.9226 3.55913 22.9226 4.27463C22.9226 4.73328 23.0329 5.1002 23.2719 5.39374C23.5109 5.68728 23.805 5.90743 24.1726 6.07255C24.5403 6.21931 25.0182 6.40278 25.6065 6.6046C25.68 6.62294 25.7535 6.64128 25.8086 6.64128C25.8821 6.65962 25.9557 6.67795 26.0293 6.71463L28.5476 7.48516C29.4851 7.79707 30.2571 8.09065 30.8821 8.40248C31.5072 8.69605 32.0218 9.13633 32.4446 9.7234C32.8674 10.3105 33.088 11.0627 33.088 11.98C33.088 12.9156 32.849 13.7412 32.3711 14.42C31.9116 15.0988 31.2498 15.6308 30.3858 15.9977C29.4851 16.3463 28.4557 16.5298 27.2608 16.5298ZM41.8747 2.29326V16.2546H44.0989V2.29326H49.5768V0.256849H36.4152V2.29326H41.8747ZM54.4295 16.2546V0.256849H56.6722V16.2546H54.4295ZM65.4959 15.7959C66.4885 16.2913 67.6465 16.5298 68.9697 16.5298C70.3119 16.5298 71.4699 16.2913 72.4444 15.7959C73.419 15.3007 74.1723 14.6218 74.6872 13.7595C75.202 12.9156 75.4594 11.9616 75.4594 10.8975V0.256849H73.2167V10.8609C73.2167 11.6314 73.0324 12.2736 72.6468 12.8239C72.2791 13.3742 71.7643 13.7963 71.1212 14.0714C70.4772 14.3466 69.7609 14.475 68.9697 14.475C68.1794 14.475 67.4442 14.3466 66.8011 14.0714C66.158 13.7779 65.6431 13.3559 65.2755 12.8239C64.9079 12.2736 64.7236 11.613 64.7236 10.8609V0.256849H62.4999V10.8975C62.4999 11.9433 62.7573 12.8973 63.2532 13.7595C63.768 14.6035 64.5213 15.2822 65.4959 15.7959ZM81.2862 0.256849V16.2546H83.5289V4.14621L88.4189 16.2546H90.4774L95.4226 4.12786V16.2546H97.6464V0.256849H94.8527L89.4667 13.5945L84.0437 0.256849H81.2862Z" fill="white"/>
</svg>
