<svg width="582" height="128" viewBox="0 0 582 128" fill="none" xmlns="http://www.w3.org/2000/svg">
<path d="M426.4 49.5H440.2C442.3 49.5 444 50.1 445.3 51.3C446.6 52.5 447.2 54.1 447.2 56V60.2C447.2 62.3 446.5 64 445.1 65.3C443.7 66.6 441.9 67.2 439.6 67.2H429.3V78H426.3V49.5H426.4ZM439.6 64.6C441 64.6 442.1 64.2 442.9 63.4C443.7 62.6 444.2 61.5 444.2 60.2V56C444.2 54.9 443.8 54 443.1 53.3C442.4 52.6 441.4 52.3 440.1 52.3H429.4V64.6H439.6Z" fill="black"/>
<path d="M451.7 57.7H454.6V60.8C455.1 59.8 456 59.1 457.1 58.5C458.2 57.9 459.3 57.6 460.5 57.6H462.3V60.2H460.5C458.8 60.2 457.4 60.8 456.3 61.8C455.2 62.9 454.7 64.4 454.7 66.2V77.9H451.8V57.7H451.7Z" fill="black"/>
<path d="M466.7 76.3C465.3 74.9 464.6 73 464.6 70.7V65.1C464.6 62.8 465.3 60.9 466.7 59.5C468.1 58.1 470 57.4 472.3 57.4H475.6C477.9 57.4 479.8 58.1 481.2 59.5C482.6 60.9 483.3 62.8 483.3 65.1V70.7C483.3 73 482.6 74.9 481.2 76.3C479.8 77.7 477.9 78.4 475.6 78.4H472.3C469.9 78.4 468.1 77.7 466.7 76.3ZM475.6 75.8C477.1 75.8 478.2 75.3 479.1 74.4C480 73.5 480.4 72.2 480.4 70.7V65.1C480.4 63.6 480 62.3 479.1 61.4C478.2 60.5 477.1 60 475.7 60H472.4C471 60 469.8 60.5 469 61.4C468.2 62.3 467.7 63.6 467.7 65.1V70.7C467.7 72.3 468.1 73.5 469 74.4C469.8 75.3 471 75.8 472.4 75.8H475.6Z" fill="black"/>
<path d="M488 57.7V51.5H490.9V57.7H496.2V60.3H491V72.1C491 73.3 491.2 74.2 491.7 74.7C492.2 75.2 493 75.5 494.1 75.5H496.3V78.1H494.1C492 78.1 490.4 77.6 489.5 76.7C488.6 75.8 488.1 74.3 488.1 72.1V60.3" fill="black"/>
<path d="M502.3 76.3C500.9 74.9 500.2 73 500.2 70.7V65.1C500.2 62.8 500.9 60.9 502.3 59.5C503.7 58.1 505.6 57.4 507.9 57.4H511.2C513.5 57.4 515.4 58.1 516.8 59.5C518.2 60.9 518.9 62.8 518.9 65.1V70.7C518.9 73 518.2 74.9 516.8 76.3C515.4 77.7 513.5 78.4 511.2 78.4H507.9C505.5 78.4 503.7 77.7 502.3 76.3ZM511.1 75.8C512.6 75.8 513.7 75.3 514.6 74.4C515.5 73.5 515.9 72.2 515.9 70.7V65.1C515.9 63.6 515.5 62.3 514.6 61.4C513.7 60.5 512.6 60 511.2 60H507.9C506.5 60 505.3 60.5 504.5 61.4C503.7 62.3 503.2 63.6 503.2 65.1V70.7C503.2 72.3 503.6 73.5 504.5 74.4C505.3 75.3 506.5 75.8 507.9 75.8H511.1Z" fill="black"/>
<path d="M525.4 76.4C524 75.1 523.4 73.3 523.4 71V65.2C523.4 62.9 524.1 61 525.4 59.6C526.8 58.2 528.5 57.5 530.7 57.5H534C536.1 57.5 537.8 58.1 539.1 59.2C540.4 60.4 541 61.9 541 63.8H538.1C538.1 62.7 537.7 61.8 537 61.1C536.3 60.4 535.3 60.1 534 60.1H530.7C529.4 60.1 528.3 60.6 527.5 61.5C526.7 62.5 526.3 63.7 526.3 65.2V71C526.3 72.4 526.7 73.6 527.5 74.5C528.3 75.4 529.4 75.8 530.7 75.8H534C535.3 75.8 536.3 75.4 537.1 74.5C537.9 73.6 538.3 72.4 538.3 70.9H541.2C541.2 73.2 540.5 75 539.2 76.4C537.9 77.8 536.2 78.5 534.1 78.5H530.8C528.6 78.4 526.8 77.7 525.4 76.4Z" fill="black"/>
<path d="M547.3 76.3C545.9 74.9 545.2 73 545.2 70.7V65.1C545.2 62.8 545.9 60.9 547.3 59.5C548.7 58.1 550.6 57.4 552.9 57.4H556.2C558.5 57.4 560.4 58.1 561.8 59.5C563.2 60.9 563.9 62.8 563.9 65.1V70.7C563.9 73 563.2 74.9 561.8 76.3C560.4 77.7 558.5 78.4 556.2 78.4H552.9C550.5 78.4 548.7 77.7 547.3 76.3ZM556.2 75.8C557.7 75.8 558.8 75.3 559.7 74.4C560.6 73.5 561 72.2 561 70.7V65.1C561 63.6 560.6 62.3 559.7 61.4C558.8 60.5 557.7 60 556.3 60H553C551.6 60 550.4 60.5 549.6 61.4C548.8 62.3 548.3 63.6 548.3 65.1V70.7C548.3 72.3 548.7 73.5 549.6 74.4C550.4 75.3 551.6 75.8 553 75.8H556.2Z" fill="black"/>
<path d="M570.6 76.8C569.7 75.9 569.3 74.5 569.3 72.5V49.5H572.2V72.5C572.2 73.5 572.4 74.3 572.8 74.7C573.2 75.2 573.9 75.4 574.9 75.4H576.3V78H574.9C572.9 78.1 571.5 77.6 570.6 76.8Z" fill="black"/>
<path d="M175.2 72.5H188.7V75.4C188.7 79.9 187.5 83.4 185.1 86.1C182.8 88.7 179.8 89.9 176 89.9H165.4C161.7 89.9 158.8 88.6 156.6 85.9C154.3 83.1 153.1 79.2 153.1 74.4V53.9C153.1 49 154.3 45.2 156.7 42.4C159 39.7 162 38.4 165.9 38.4H176.3C179.9 38.4 182.8 39.5 184.9 41.8C187.1 44.1 188.2 47.1 188.2 51V54H201.3V51C201.3 46.2 200.2 41.8 198.2 38C196.1 34.2 193.1 31.1 189.3 29C185.5 26.9 181.2 25.9 176.4 25.9H166C160.9 25.9 156.4 27.1 152.4 29.5C148.5 31.9 145.3 35.3 143.2 39.5C141.1 43.7 140 48.5 140 53.9V74.4C140 79.8 141 84.6 143.1 88.8C145.2 93.1 148.2 96.5 152.1 98.8C155.9 101.2 160.5 102.3 165.5 102.3H176C181 102.3 185.6 101.2 189.5 98.9C193.4 96.6 196.5 93.4 198.6 89.2C200.7 85.1 201.7 80.5 201.7 75.3V60.1H175.1V72.5H175.2Z" fill="black"/>
<path d="M258.3 29.4C254.4 27.1 249.8 25.9 244.7 25.9H235.2C230.1 25.9 225.5 27.1 221.6 29.4C217.6 31.7 214.5 35 212.3 39.3C210.2 43.5 209.1 48.3 209.1 53.7V74.8C209.1 80.2 210.2 85 212.3 89.2C214.5 93.4 217.6 96.8 221.6 99.1C225.5 101.4 230.1 102.6 235.1 102.6H244.7C249.8 102.6 254.3 101.4 258.3 99.1C262.3 96.8 265.4 93.4 267.6 89.2C269.7 85.1 270.8 80.3 270.8 74.9V53.6C270.8 48.2 269.7 43.4 267.6 39.2C265.4 35 262.3 31.7 258.3 29.4ZM257.6 74.7C257.6 79.4 256.4 83.1 253.9 85.9C251.5 88.6 248.5 89.9 244.5 89.9H235.3C231.4 89.9 228.3 88.6 226 85.9C223.5 83.1 222.4 79.4 222.4 74.7V53.6C222.4 48.9 223.6 45.2 226.1 42.4C228.5 39.7 231.5 38.4 235.5 38.4H244.6C248.5 38.4 251.6 39.7 254 42.4C256.5 45.2 257.7 48.9 257.7 53.6V74.7H257.6Z" fill="black"/>
<path d="M336.6 38.9C334.4 34.7 331.3 31.3 327.3 29C323.4 26.7 318.8 25.5 313.7 25.5H304.3C299.2 25.5 294.6 26.7 290.7 29C286.7 31.3 283.6 34.6 281.4 38.9C279.3 43.1 278.2 47.9 278.2 53.3V102.1H291.3V99.6L291.5 93.8C291.5 89.1 292.7 79.6 295.2 76.8C297.6 74.1 300.6 72.8 304.6 72.8H315.5V60.3H304.4C299.6 60.3 295.2 61.3 291.5 63.4V53.3C291.5 48.6 292.7 44.9 295.2 42.1C297.6 39.4 300.6 38.1 304.6 38.1H313.6C317.5 38.1 320.6 39.4 323 42.1C325.5 44.9 326.7 48.6 326.7 53.3V59.8V102.1H340V53.3C339.8 47.9 338.7 43.1 336.6 38.9Z" fill="black"/>
<path d="M347.4 25.5V38.1H371.7H375.4C375.2 38.4 375 38.6 374.9 38.9C372.8 43.1 371.7 47.9 371.7 53.3V102.1H385V53.3C385 48.6 386.2 44.9 388.7 42.1C391 39.5 393.9 38.3 397.5 38.1H409.3V25.5H347.4Z" fill="black"/>
<path d="M115.7 72.9C116.2 70 116.4 67 116.4 64C116.4 45 106.6 28.2 91.9 18.4V72.9H115.7Z" fill="#4A2159"/>
<path d="M54.7 93.2001C51.6 95.9001 50.1 99.4001 49.9 103.7H49.8V117.2C53.6 118 57.6 118.5 61.6 118.5C82.8 118.5 101.2 106.4 110.3 88.7001H68.1C62.5 88.8001 58.1 90.3001 54.7 93.2001Z" fill="#4A2159"/>
<path d="M75.8 40.1C76.2 40.3 76.5 40.5 76.8 40.7001V36.3V11.4C72 10 66.9 9.30005 61.7 9.30005C41.7 9.30005 24.2 20.1 14.6 36.2001H58.5C65 36.2001 70.8 37.5 75.8 40.1Z" fill="#4A2159"/>
<path d="M76.7 67.1001C76.5 62.7001 75 59.3001 71.9 56.6001C68.5 53.6001 64.1 52.2001 58.4 52.2001H49.8V73.0001V77.4001C50.1 77.2001 50.5 77.0001 50.8 76.8001C55.8 74.2001 61.6 72.9001 68.1 72.9001H76.7V67.1001Z" fill="#4A2159"/>
<path d="M8.39998 52.1001C7.49998 55.9001 7.09998 59.9001 7.09998 64.0001C7.09998 84.4001 18.3 102.1 34.8 111.5V52.1001H8.39998Z" fill="#4A2159"/>
</svg>
