<?xml version="1.0" encoding="utf-8"?>
<!-- Generator: Adobe Illustrator 27.9.0, SVG Export Plug-In . SVG Version: 6.00 Build 0)  -->
<svg version="1.1" id="Capa_1" xmlns="http://www.w3.org/2000/svg" xmlns:xlink="http://www.w3.org/1999/xlink" x="0px" y="0px"
	 viewBox="0 0 225 225" style="enable-background:new 0 0 225 225;" xml:space="preserve">
<style type="text/css">
	.st0{fill:#333333;}
</style>
<g>
	<g>
		<g>
			<g>
				<path d="M152.3,92.5c-3.5-5.4-8.4-9.6-14.9-12.4c-6.5-2.8-14.2-4.2-23.1-4.2H73.7v56.8h21.5V91.8H113c3.4,0,6.4,0.4,9.1,1.3
					c2.7,0.9,5.1,2.1,7,3.8c2,1.6,3.5,3.6,4.6,6c1.1,2.4,1.6,5.1,1.6,8.1v2.4c0,3-0.6,5.7-1.6,8.1c-1.1,2.4-2.6,4.4-4.6,6
					c-2,1.6-4.3,2.9-7,3.8c-2.7,0.9-5.8,1.3-9.1,1.3H95.2v16h19.1c8.9,0,16.7-1.4,23.1-4.2c6.5-2.8,11.4-6.9,14.9-12.3
					c3.4-5.4,5.2-12,5.2-19.8C157.5,104.5,155.8,97.9,152.3,92.5z"/>
			</g>
		</g>
		<g>
			<g>
				<path class="st0" d="M57.4,56.3H29.1V28h28.4V56.3z M34.5,50.9H52V33.4H34.5V50.9z"/>
			</g>
		</g>
		<g>
			<g>
				<path class="st0" d="M197.1,196.6h-28.4v-28.4h28.4V196.6z M174.2,191.1h17.5v-17.5h-17.5V191.1z"/>
			</g>
		</g>
		<path d="M112.5,9.6c-11.3,0-22.2,1.8-32.3,5.2v6.8c10.1-3.6,21-5.6,32.3-5.6c53.3,0,96.4,43.2,96.4,96.4c0,11.5-2,22.6-5.7,32.8
			h6.8c3.5-10.3,5.4-21.3,5.4-32.8C215.4,55.7,169.3,9.6,112.5,9.6z M16.1,112.5c0-11.9,2.1-23.2,6.1-33.7h-6.8
			c-3.7,10.6-5.7,21.9-5.7,33.7c0,56.8,46.1,102.9,102.9,102.9c11.9,0,23.3-2,34-5.8v-6.8c-10.6,4-22,6.2-34,6.2
			C59.3,208.9,16.1,165.8,16.1,112.5z"/>
	</g>
</g>
</svg>
