<svg xmlns="http://www.w3.org/2000/svg" width="1750" height="500" fill="none"><path fill="#E06339" fill-rule="evenodd" d="M222.354 250.012V127.304H99.645v61.366h61.367v61.342h61.342Zm-61.366 0H99.645c0 67.781 54.953 122.709 122.685 122.684v-61.342c-33.878 0-61.342-27.464-61.342-61.342Z" clip-rule="evenodd"/><path fill="#F2F2F2" d="M303.321 153.968h203.475v33.116H303.321v-33.116Zm82.047 28.94h39.68V347h-39.68V182.908Zm256.17 114.864h37.593c-1.592 10.144-5.868 19.194-12.829 27.15-6.763 7.956-16.012 14.221-27.747 18.796-11.735 4.575-26.056 6.862-42.962 6.862-18.896 0-35.604-2.983-50.123-8.95-14.52-6.166-25.857-15.017-34.012-26.553-8.155-11.537-12.232-25.46-12.232-41.769 0-16.31 3.978-30.233 11.934-41.769 7.956-11.736 18.994-20.686 33.116-26.852 14.321-6.166 31.029-9.249 50.123-9.249 19.492 0 35.703 3.083 48.631 9.249 12.929 6.166 22.476 15.514 28.642 28.045 6.365 12.332 9.05 28.144 8.055 47.438H538.309c.995 7.558 3.779 14.42 8.354 20.586 4.774 6.166 11.139 11.039 19.095 14.619 8.154 3.58 17.801 5.37 28.94 5.37 12.331 0 22.575-2.088 30.73-6.265 8.353-4.376 13.724-9.945 16.11-16.708Zm-48.929-72.797c-14.321 0-25.956 3.182-34.907 9.547-8.95 6.166-14.718 13.824-17.304 22.973H641.24c-.994-9.945-5.768-17.802-14.321-23.57-8.353-5.967-19.79-8.95-34.31-8.95Zm118.962-85.925h38.786V347h-38.786V139.05Zm165.431 211.53c-18.697 0-35.205-2.983-49.526-8.95-14.122-5.967-25.161-14.619-33.117-25.957-7.956-11.536-11.934-25.658-11.934-42.365 0-16.708 3.978-30.83 11.934-42.366 7.956-11.735 18.995-20.586 33.117-26.553 14.321-5.967 30.829-8.951 49.526-8.951 18.696 0 35.006 2.984 48.929 8.951 14.122 5.967 25.161 14.818 33.117 26.553 7.956 11.536 11.934 25.658 11.934 42.366 0 16.707-3.978 30.829-11.934 42.365-7.956 11.338-18.995 19.99-33.117 25.957-13.923 5.967-30.233 8.95-48.929 8.95Zm0-29.835c10.343 0 19.592-1.79 27.746-5.37 8.354-3.779 14.918-9.149 19.692-16.111 4.773-7.16 7.16-15.813 7.16-25.956 0-10.144-2.387-18.796-7.16-25.957-4.774-7.359-11.238-12.928-19.393-16.707-8.155-3.78-17.503-5.669-28.045-5.669-10.343 0-19.691 1.889-28.045 5.669-8.354 3.779-15.017 9.248-19.989 16.409-4.774 7.16-7.161 15.912-7.161 26.255 0 10.143 2.387 18.796 7.161 25.956 4.773 6.962 11.337 12.332 19.691 16.111 8.353 3.58 17.801 5.37 28.343 5.37Zm116.685-22.973h35.803c2.19 6.763 6.66 12.332 13.42 16.708 6.97 4.177 16.02 6.265 27.15 6.265 7.56 0 13.43-.696 17.61-2.088 4.17-1.393 7.06-3.382 8.65-5.967 1.59-2.785 2.39-5.868 2.39-9.249 0-4.177-1.3-7.359-3.88-9.547-2.59-2.387-6.57-4.277-11.94-5.669-5.37-1.392-12.23-2.685-20.58-3.878-8.36-1.393-16.41-3.083-24.17-5.072-7.76-1.989-14.62-4.575-20.58-7.758-5.97-3.381-10.75-7.558-14.33-12.53-3.377-5.172-5.068-11.437-5.068-18.796 0-7.161 1.691-13.525 5.068-19.095 3.58-5.569 8.46-10.243 14.62-14.022 6.37-3.779 13.73-6.663 22.08-8.652 8.55-1.989 17.7-2.984 27.45-2.984 14.72 0 26.95 2.188 36.7 6.564 9.74 4.177 17 10.144 21.78 17.901 4.97 7.558 7.45 16.31 7.45 26.255H1099c-1.59-7.36-4.77-12.63-9.54-15.813-4.78-3.381-12.14-5.072-22.08-5.072-9.75 0-17.11 1.492-22.08 4.475-4.97 2.984-7.46 7.061-7.46 12.233 0 4.177 1.49 7.459 4.48 9.845 3.18 2.188 7.76 3.978 13.72 5.371 6.17 1.392 13.83 2.884 22.98 4.475 7.75 1.591 15.11 3.381 22.07 5.37 7.16 1.989 13.53 4.575 19.1 7.757 5.57 2.984 9.94 7.061 13.12 12.233 3.39 4.972 5.08 11.337 5.08 19.094 0 9.547-2.79 17.603-8.36 24.166-5.37 6.564-13.12 11.636-23.27 15.216-10.14 3.382-22.28 5.072-36.4 5.072-12.53 0-23.37-1.293-32.52-3.878-8.95-2.785-16.41-6.266-22.37-10.443-5.97-4.375-10.64-8.95-14.03-13.724-3.178-4.972-5.366-9.646-6.56-14.022-1.193-4.376-1.591-7.956-1.193-10.741Zm186.113 13.055c0-5.443.89-10.403 2.69-14.882 1.79-4.547 4.3-8.44 7.54-11.678 3.31-3.308 7.1-5.857 11.37-7.648 4.34-1.792 9.06-2.687 14.16-2.687 7.44 0 13.95 1.722 19.53 5.167 5.65 3.445 9.92 8.337 12.82 14.676l-6.72 2.48c-1.59-3.376-3.69-6.132-6.31-8.268-2.61-2.205-5.58-3.858-8.88-4.961-3.31-1.102-6.79-1.653-10.44-1.653-5.17 0-9.82 1.171-13.95 3.514-4.14 2.342-7.41 5.718-9.82 10.128-2.35 4.41-3.52 9.68-3.52 15.812 0 6.064 1.17 11.3 3.52 15.71 2.41 4.409 5.68 7.82 9.82 10.231 4.13 2.343 8.78 3.514 13.95 3.514 3.72 0 7.27-.585 10.64-1.757 3.38-1.171 6.41-2.997 9.1-5.477 2.75-2.481 4.96-5.581 6.61-9.302l6.72 2.481c-2.96 7.096-7.3 12.471-13.02 16.122-5.72 3.583-12.4 5.374-20.05 5.374-5.1 0-9.82-.895-14.16-2.687-4.27-1.791-8.06-4.34-11.37-7.648-3.24-3.307-5.75-7.2-7.54-11.678-1.8-4.548-2.69-9.508-2.69-14.883Zm104.86 36.896c-4.89 0-9.26-1.067-13.12-3.203-3.86-2.136-6.89-5.168-9.1-9.095-2.2-3.996-3.3-8.716-3.3-14.159 0-5.512 1.1-10.266 3.3-14.262 2.28-3.997 5.34-7.063 9.2-9.199 3.93-2.136 8.34-3.203 13.23-3.203 4.89 0 9.27 1.067 13.12 3.203 3.93 2.136 7 5.202 9.2 9.199 2.28 3.927 3.41 8.612 3.41 14.055 0 5.512-1.13 10.266-3.41 14.262-2.27 3.997-5.37 7.063-9.3 9.199-3.93 2.136-8.34 3.203-13.23 3.203Zm-.1-7.337c3.03 0 5.89-.655 8.58-1.964 2.68-1.378 4.85-3.48 6.51-6.304 1.72-2.894 2.58-6.546 2.58-10.955 0-4.479-.82-8.131-2.48-10.956-1.65-2.825-3.82-4.892-6.51-6.201-2.62-1.378-5.44-2.067-8.47-2.067-3.04 0-5.86.689-8.48 2.067-2.62 1.309-4.75 3.411-6.41 6.305-1.58 2.825-2.37 6.442-2.37 10.852 0 4.478.79 8.13 2.37 10.955 1.59 2.824 3.66 4.926 6.2 6.304 2.62 1.309 5.45 1.964 8.48 1.964Zm38.74-45.061h7.13l.41 7.338c1.66-2.549 3.83-4.513 6.51-5.891 2.69-1.447 5.83-2.17 9.41-2.17 3.93 0 7.37.861 10.33 2.583 2.97 1.654 5.28 4.169 6.93 7.545 1.65 3.307 2.48 7.475 2.48 12.505V347h-7.75v-28.835c0-5.374-1.17-9.439-3.52-12.195-2.27-2.825-5.58-4.237-9.92-4.237-4.48 0-7.99 1.481-10.54 4.444-2.48 2.962-3.72 7.338-3.72 13.125V347h-7.75v-51.675Zm62.47 35.862c.42 2.067 1.17 3.79 2.28 5.168 1.1 1.309 2.51 2.308 4.23 2.997 1.79.689 3.86 1.034 6.2 1.034 3.66 0 6.41-.689 8.27-2.067 1.93-1.447 2.9-3.239 2.9-5.375 0-1.791-.59-3.238-1.76-4.34-1.1-1.103-2.58-1.998-4.45-2.687-1.86-.758-3.92-1.413-6.2-1.964-1.79-.413-3.72-.896-5.78-1.447a29.546 29.546 0 0 1-5.89-2.48c-1.87-1.034-3.38-2.377-4.55-4.031s-1.76-3.824-1.76-6.511c0-2.963.79-5.547 2.38-7.751 1.65-2.274 3.89-4.031 6.72-5.271 2.89-1.24 6.2-1.86 9.92-1.86 4.27 0 8.06.93 11.37 2.79 3.37 1.86 5.71 4.754 7.02 8.681l-7.23 2.481c-.48-1.792-1.38-3.17-2.69-4.134a10.388 10.388 0 0 0-4.24-1.964 20.425 20.425 0 0 0-4.54-.517c-3.1 0-5.62.62-7.55 1.861-1.86 1.171-2.79 2.962-2.79 5.374 0 1.309.31 2.411.93 3.307.62.827 1.48 1.516 2.59 2.067 1.1.551 2.41 1.034 3.92 1.447 1.52.344 3.17.758 4.96 1.24 2 .482 4.03 1.103 6.1 1.86 2.07.689 4 1.62 5.79 2.791a13.054 13.054 0 0 1 4.34 4.341c1.17 1.722 1.76 3.892 1.76 6.511 0 3.031-.83 5.684-2.48 7.958-1.66 2.204-3.97 3.927-6.93 5.167-2.89 1.24-6.27 1.86-10.13 1.86-5.3 0-9.71-1.171-13.22-3.513-3.45-2.412-5.76-5.926-6.93-10.542l7.44-2.481Zm46.37-35.862h7.64V347h-7.64v-51.675Zm3.92-10.335c-1.58 0-2.89-.517-3.92-1.55-1.04-1.034-1.55-2.308-1.55-3.824 0-1.585.51-2.894 1.55-3.928 1.03-1.033 2.34-1.55 3.92-1.55 1.45 0 2.69.517 3.72 1.55 1.11 1.034 1.66 2.343 1.66 3.928 0 1.516-.55 2.79-1.66 3.824-1.03 1.033-2.27 1.55-3.72 1.55Zm21.17-12.402h7.75V347h-7.75v-74.412Zm25.07 22.737h7.64V347h-7.64v-51.675Zm3.92-10.335c-1.58 0-2.89-.517-3.92-1.55-1.04-1.034-1.55-2.308-1.55-3.824 0-1.585.51-2.894 1.55-3.928 1.03-1.033 2.34-1.55 3.92-1.55 1.45 0 2.69.517 3.72 1.55 1.11 1.034 1.66 2.343 1.66 3.928 0 1.516-.55 2.79-1.66 3.824-1.03 1.033-2.27 1.55-3.72 1.55Zm63.44 62.01h-7.03l-.51-7.441c-1.59 2.618-3.72 4.651-6.41 6.097-2.69 1.378-5.82 2.067-9.41 2.067-3.99 0-7.47-.826-10.43-2.48-2.97-1.654-5.27-4.134-6.93-7.441-1.58-3.307-2.38-7.476-2.38-12.506v-29.971h7.65v29.145c0 5.305 1.14 9.336 3.41 12.092 2.35 2.687 5.69 4.03 10.03 4.03 4.41 0 7.89-1.412 10.44-4.237 2.61-2.894 3.92-7.235 3.92-13.022v-28.008h7.65V347Zm15.76-51.675h7.14l.51 7.441a16.708 16.708 0 0 1 6.1-5.891c2.62-1.516 5.72-2.273 9.3-2.273 3.65 0 6.96.895 9.92 2.687 3.04 1.722 5.38 4.306 7.03 7.751 1.59-3.514 4-6.132 7.24-7.855 3.23-1.722 6.82-2.583 10.74-2.583 3.86 0 7.27.861 10.24 2.583 2.96 1.654 5.27 4.169 6.92 7.545 1.65 3.307 2.48 7.475 2.48 12.505V347h-7.75v-28.835c0-5.374-1.17-9.439-3.51-12.195-2.28-2.825-5.55-4.237-9.82-4.237-4.34 0-7.79 1.515-10.34 4.547-2.55 2.963-3.82 7.372-3.82 13.229V347h-7.75v-28.835c0-5.374-1.11-9.439-3.31-12.195-2.2-2.825-5.44-4.237-9.72-4.237-4.34 0-7.75 1.515-10.23 4.547-2.41 2.963-3.61 7.372-3.61 13.229V347h-7.76v-51.675Z"/></svg>