<svg width="207" height="77" viewBox="0 0 207 77" fill="none" xmlns="http://www.w3.org/2000/svg">
<path d="M0 77V0H76.8071V22.9955H72.784L72.7737 3.85845H3.8509V73.1407H72.7728V52.9824H76.8063V77H0Z" fill="white"/>
<path d="M27.2619 40.7549C27.9798 41.6543 28.3659 42.7742 28.3553 43.9258C28.376 44.9302 28.0995 45.9183 27.5607 46.7655C27.0001 47.6165 26.2048 48.286 25.2715 48.6926C24.1559 49.1822 22.9473 49.4227 21.7297 49.3973H13.0576V29.239H21.3534C22.559 29.2119 23.7569 29.4375 24.8703 29.9015C25.7841 30.2843 26.5653 30.9281 27.1164 31.7527C27.6283 32.552 27.8936 33.4849 27.8792 34.4345C27.9223 35.4938 27.5967 36.5351 26.958 37.3803C26.3188 38.1805 25.4497 38.7647 24.4683 39.0538C25.5779 39.2531 26.5734 39.86 27.2602 40.7557L27.2619 40.7549ZM17.091 37.552H20.7766C21.5696 37.6043 22.3556 37.3746 22.9961 36.9033C23.2591 36.6728 23.4657 36.3848 23.6001 36.0616C23.7344 35.7384 23.7929 35.3886 23.7709 35.0392C23.7912 34.6884 23.7321 34.3376 23.5979 34.013C23.4637 33.6884 23.258 33.3984 22.9961 33.1648C22.3598 32.6837 21.5719 32.4485 20.7766 32.5023H17.091V37.552ZM23.442 45.4017C23.7197 45.1594 23.9383 44.8565 24.081 44.5163C24.2236 44.1761 24.2866 43.8077 24.2651 43.4393C24.2852 43.0571 24.2181 42.6754 24.0689 42.3231C23.9197 41.9708 23.6924 41.6572 23.4042 41.4061C22.7407 40.8852 21.911 40.6234 21.0693 40.6695H17.091V46.0961H21.1528C21.9742 46.1451 22.7861 45.8992 23.4429 45.4026L23.442 45.4017Z" fill="white"/>
<path d="M34.981 28.0271V49.3982H30.9475V28.0271H34.981Z" fill="white"/>
<path d="M41.2631 48.6236C40.0437 47.9482 39.0393 46.9418 38.3652 45.72C37.6455 44.3937 37.2821 42.9027 37.3106 41.3932C37.2821 39.8797 37.6571 38.3861 38.3971 37.0663C39.0881 35.8404 40.1109 34.835 41.3475 34.1662C42.6375 33.4926 44.0708 33.1408 45.5255 33.1408C46.9803 33.1408 48.4135 33.4926 49.7036 34.1662C50.9402 34.835 51.9629 35.8404 52.654 37.0663C53.3934 38.3874 53.7672 39.8823 53.737 41.3966C53.768 42.9116 53.3861 44.4063 52.6324 45.72C51.9207 46.9467 50.8837 47.9517 49.6364 48.6236C48.3394 49.3173 46.888 49.6702 45.4179 49.6492C43.9678 49.6731 42.5362 49.3197 41.2631 48.6236ZM47.4704 45.5932C48.129 45.2208 48.6644 44.6633 49.0105 43.9896C49.4147 43.1851 49.6129 42.2926 49.5874 41.3923C49.6697 40.1055 49.2397 38.8384 48.3915 37.8686C48.0159 37.4723 47.562 37.1585 47.0588 36.9474C46.5557 36.7362 46.0142 36.6322 45.4687 36.6419C44.9267 36.6303 44.3884 36.7336 43.889 36.945C43.3896 37.1564 42.9404 37.4711 42.5709 37.8686C41.8194 38.8844 41.4113 40.1142 41.4062 41.3786C41.4011 42.6431 41.7992 43.8761 42.5424 44.898C42.9046 45.2962 43.3479 45.6118 43.8424 45.8234C44.3369 46.035 44.8709 46.1378 45.4085 46.1246C46.1296 46.1266 46.8392 45.9434 47.4695 45.5924L47.4704 45.5932Z" fill="white"/>
<path d="M56.04 37.0655C56.6776 35.8554 57.648 34.8538 58.8363 34.1792C60.0853 33.4812 61.4966 33.1273 62.9265 33.1535C64.6871 33.0868 66.4197 33.6101 67.8501 34.6407C69.1801 35.6811 70.1036 37.1562 70.4596 38.8088H66.0955C65.891 38.1547 65.4816 37.584 64.9281 37.1811C64.3321 36.7718 63.621 36.5644 62.8989 36.5893C62.376 36.5675 61.8553 36.6697 61.3793 36.8876C60.9032 37.1056 60.4853 37.4331 60.1595 37.8436C59.4275 38.8822 59.0726 40.1407 59.1539 41.4096C59.0674 42.6659 59.4232 43.9128 60.1595 44.9333C60.4853 45.3438 60.9032 45.6713 61.3793 45.8893C61.8553 46.1072 62.376 46.2094 62.8989 46.1876C63.6029 46.2508 64.3068 46.0667 64.8901 45.6668C65.4733 45.2668 65.8995 44.676 66.0955 43.9957H70.4458C70.0653 45.6299 69.14 47.0853 67.8225 48.1216C66.4134 49.1776 64.6859 49.7185 62.9273 49.6544C61.4974 49.6807 60.0861 49.3268 58.8371 48.6288C57.6499 47.9513 56.6799 46.9489 56.0408 45.739C55.3771 44.3879 55.0319 42.9021 55.0319 41.3962C55.0319 39.8903 55.3771 38.4045 56.0408 37.0534L56.04 37.0655Z" fill="white"/>
<path d="M82.2258 49.3982L76.8097 42.5836V49.3982H72.7763V28.0271H76.8097V40.1804L82.1733 33.3934H87.4137L80.3799 41.4199L87.4696 49.3974L82.2258 49.3982Z" fill="white"/>
<path d="M99.2126 29.666L91.9361 49.3991H94.0462L95.787 44.6547H104.864L106.622 49.3991H108.732L101.467 29.666H99.2126ZM96.3991 42.9925L100.338 32.1814L104.277 42.9925H96.3991Z" fill="white"/>
<path d="M119.005 33.49C117.903 33.4725 116.815 33.7342 115.84 34.2508C114.921 34.742 114.174 35.5049 113.702 36.4358V33.7789H111.715V49.3991H113.712V40.8661C113.602 39.3444 114.082 37.8388 115.052 36.6626C115.516 36.1825 116.077 35.8066 116.697 35.5601C117.318 35.3135 117.983 35.2018 118.65 35.2324C119.29 35.1991 119.93 35.3018 120.527 35.5337C121.125 35.7656 121.667 36.1215 122.117 36.5781C123.029 37.6544 123.485 39.0454 123.387 40.4538V49.3974H125.357V40.2373C125.42 39.3245 125.297 38.4085 124.995 37.5451C124.692 36.6818 124.217 35.8893 123.599 35.216C122.988 34.6344 122.266 34.1818 121.477 33.8853C120.688 33.5888 119.847 33.4543 119.005 33.49Z" fill="white"/>
<path d="M141.938 37.2069C141.443 36.1177 140.634 35.2022 139.614 34.5786C138.461 33.8673 137.127 33.5076 135.773 33.5434C134.429 33.5214 133.104 33.8622 131.936 34.5303C130.798 35.1926 129.875 36.1719 129.281 37.3493C128.619 38.6575 128.29 40.1096 128.325 41.5761C128.295 43.042 128.624 44.4929 129.281 45.8029C129.88 46.9765 130.802 47.9545 131.936 48.6219C133.091 49.2966 134.408 49.6425 135.745 49.6225C137.1 49.6542 138.434 49.2868 139.582 48.5658C140.605 47.9292 141.423 47.0103 141.938 45.9193V49.3974H143.936V33.7841H141.938V37.2069ZM141.168 44.8988C140.687 45.8182 139.955 46.5818 139.058 47.1011C138.17 47.6165 137.161 47.8832 136.135 47.8731C135.096 47.8891 134.071 47.6277 133.167 47.1157C132.278 46.5983 131.558 45.8332 131.095 44.9135C130.574 43.8724 130.315 42.7197 130.339 41.5554C130.31 40.3887 130.57 39.2329 131.095 38.1912C131.564 37.2875 132.283 36.5386 133.167 36.0347C134.074 35.5298 135.097 35.2734 136.135 35.2911C137.161 35.281 138.17 35.5477 139.058 36.0631C139.955 36.5824 140.687 37.346 141.168 38.2654C141.675 39.2969 141.939 40.4314 141.939 41.5812C141.939 42.7311 141.675 43.8656 141.168 44.8971V44.8988Z" fill="white"/>
<path d="M146.869 28.228H148.866V49.3879H146.869V28.228Z" fill="white"/>
<path d="M152.851 33.7781H154.848V49.3913H152.851V33.7781Z" fill="white"/>
<path d="M153.849 27.9046C153.659 27.9004 153.47 27.9351 153.293 28.0066C153.116 28.0781 152.956 28.1848 152.822 28.3203C152.679 28.4555 152.567 28.6198 152.493 28.802C152.419 28.9843 152.384 29.1803 152.392 29.377C152.385 29.6679 152.466 29.9541 152.624 30.1985C152.782 30.4429 153.009 30.6343 153.276 30.748C153.543 30.8618 153.838 30.8927 154.123 30.8366C154.408 30.7806 154.67 30.6403 154.875 30.4337C155.016 30.2975 155.128 30.1331 155.202 29.9511C155.276 29.7691 155.311 29.5735 155.305 29.377C155.313 29.1803 155.278 28.9843 155.204 28.802C155.13 28.6198 155.017 28.4555 154.875 28.3203C154.741 28.1851 154.581 28.0784 154.405 28.007C154.228 27.9355 154.039 27.9006 153.849 27.9046Z" fill="white"/>
<path d="M162.005 29.8601H159.979V33.7781H157.81V35.4628H159.979V45.1714C159.923 45.7538 159.985 46.3415 160.162 46.8991C160.338 47.4568 160.625 47.973 161.006 48.4166C161.886 49.1386 163.01 49.4922 164.143 49.4034H166.285V47.673H164.464C163.781 47.7457 163.096 47.5514 162.551 47.1304C162.129 46.5644 161.936 45.8595 162.01 45.1568V35.4628H166.29V33.7781H162.002L162.005 29.8601Z" fill="white"/>
<path d="M170.695 27.9046C170.505 27.9004 170.315 27.9351 170.139 28.0066C169.962 28.0781 169.802 28.1848 169.668 28.3203C169.525 28.4555 169.413 28.6198 169.339 28.802C169.264 28.9843 169.23 29.1803 169.237 29.377C169.231 29.5735 169.267 29.7691 169.341 29.9511C169.415 30.1331 169.526 30.2975 169.668 30.4337C169.873 30.6385 170.135 30.7773 170.419 30.8323C170.703 30.8874 170.998 30.8562 171.264 30.7427C171.531 30.6293 171.758 30.4387 171.916 30.1954C172.073 29.9522 172.155 29.6672 172.151 29.377C172.158 29.1803 172.124 28.9843 172.05 28.802C171.975 28.6198 171.863 28.4555 171.72 28.3203C171.586 28.1851 171.426 28.0784 171.25 28.007C171.074 27.9355 170.885 27.9006 170.695 27.9046Z" fill="white"/>
<path d="M169.696 33.7781H171.694V49.3913H169.696V33.7781Z" fill="white"/>
<path d="M179.104 35.9777C179.964 35.5007 180.934 35.2577 181.917 35.273C183.09 35.2293 184.245 35.5617 185.216 36.2218C186.099 36.8591 186.715 37.8022 186.943 38.8683H189.085C188.776 37.3267 187.92 35.9496 186.675 34.9926C185.401 34.1512 183.925 33.668 182.401 33.5936C180.878 33.5193 179.362 33.8565 178.013 34.57C176.867 35.2319 175.935 36.2106 175.329 37.389C174.693 38.7137 174.362 40.165 174.362 41.6352C174.362 43.1053 174.693 44.5566 175.329 45.8814C175.938 47.0531 176.869 48.0252 178.013 48.6822C179.205 49.3539 180.555 49.6946 181.923 49.6691C183.621 49.7323 185.289 49.2182 186.658 48.2104C187.902 47.2567 188.763 45.8877 189.085 44.3519H186.943C186.721 45.4281 186.105 46.3821 185.216 47.026C184.249 47.6916 183.093 48.0276 181.921 47.9844C180.937 47.9997 179.967 47.7567 179.107 47.2796C178.249 46.7764 177.56 46.0295 177.127 45.1335C176.613 44.0446 176.363 42.8492 176.399 41.6451C176.355 40.4307 176.606 39.2239 177.13 38.1282C177.564 37.2322 178.253 36.4852 179.11 35.982L179.104 35.9777Z" fill="white"/>
<path d="M205.001 33.7781V37.2069C204.505 36.118 203.696 35.2026 202.676 34.5786C201.524 33.8682 200.19 33.5092 198.838 33.5452C197.493 33.5231 196.168 33.864 195 34.532C193.862 35.1943 192.939 36.1736 192.345 37.351C191.683 38.6592 191.355 40.1114 191.389 41.5778C191.36 43.0437 191.688 44.4947 192.345 45.8046C192.945 46.9783 193.866 47.9562 195 48.6236C196.155 49.2983 197.472 49.6443 198.809 49.6242C200.164 49.6559 201.498 49.2885 202.646 48.5675C203.67 47.9309 204.488 47.012 205.003 45.921V49.3991H207V33.7858L205.001 33.7781ZM204.23 44.8988C203.749 45.8179 203.017 46.5814 202.12 47.1011C201.233 47.6165 200.223 47.8832 199.197 47.8731C198.158 47.8891 197.134 47.6277 196.229 47.1157C195.34 46.5979 194.621 45.8329 194.158 44.9135C193.637 43.8724 193.377 42.7197 193.402 41.5554C193.373 40.3887 193.633 39.2329 194.158 38.1912C194.626 37.2875 195.346 36.5386 196.229 36.0347C197.136 35.5298 198.16 35.2734 199.197 35.2911C200.223 35.281 201.233 35.5477 202.12 36.0631C203.017 36.5828 203.749 37.3463 204.23 38.2654C204.737 39.2969 205.001 40.4314 205.001 41.5812C205.001 42.7311 204.737 43.8656 204.23 44.8971V44.8988Z" fill="white"/>
</svg>
