<svg preserveAspectRatio="none" width="100%" height="100%" overflow="visible" style="display: block;" viewBox="0 0 10.4019 17.0218" fill="none" xmlns="http://www.w3.org/2000/svg">
<g id="Layer_1" clip-path="url(#clip0_0_210)">
<path id="Vector" d="M4.40745 11.6788C4.37294 11.6497 4.34767 11.6111 4.33475 11.5679C4.33871 11.6037 4.35283 11.6376 4.37543 11.6656C4.39803 11.6936 4.42817 11.7146 4.4623 11.726H4.48526C4.45663 11.7153 4.43025 11.6992 4.40745 11.6788ZM3.71484 13.1776V13.2286C3.71481 13.188 3.72305 13.1479 3.73906 13.1106C3.75507 13.0733 3.77851 13.0397 3.80795 13.0118C3.77997 13.0294 3.75696 13.0539 3.74111 13.0829C3.72526 13.1119 3.7171 13.1445 3.7174 13.1776H3.71484Z" fill="var(--fill-0, white)"/>
<path id="Vector_2" d="M6.61328 10.1C6.61328 10.0847 6.61328 10.0681 6.61328 10.0516V9.57324C6.61328 9.74926 6.61328 9.92401 6.61328 10.1Z" fill="var(--fill-0, white)"/>
<path id="Vector_3" d="M9.45487 4.04685C9.45595 4.01183 9.44981 3.97697 9.43683 3.94443C9.42384 3.9119 9.40429 3.88238 9.3794 3.85773C9.35451 3.83308 9.32481 3.81382 9.29215 3.80115C9.25949 3.78848 9.22457 3.78267 9.18956 3.78409H9.10027C9.02374 3.78409 8.94721 3.78409 8.87068 3.78409C8.78704 3.78924 8.7036 3.77114 8.62961 3.73179C8.54542 3.68077 8.51354 3.58256 8.51354 3.42057C8.51354 2.70628 8.51354 1.99198 8.51354 1.27769C8.51354 1.04427 8.41277 0.944779 8.17808 0.943504H7.8592C7.83711 0.944883 7.81495 0.944883 7.79287 0.943504C7.72608 0.93367 7.66564 0.898511 7.62408 0.845315C7.58252 0.792119 7.56303 0.724969 7.56965 0.657788C7.56965 0.530236 7.56965 0.411613 7.56965 0.289163C7.5736 0.25095 7.56887 0.212338 7.55582 0.176208C7.54276 0.140078 7.52171 0.107364 7.49424 0.0805069C7.46677 0.0536502 7.43359 0.0333433 7.39718 0.0211041C7.36076 0.008865 7.32205 0.00500954 7.28393 0.00982345H3.13212C3.08452 0.00880421 3.03721 0.0174835 2.99308 0.0353335C2.94303 0.0582141 2.90124 0.0959566 2.8734 0.143427C2.84556 0.190896 2.83301 0.24579 2.83747 0.300642C2.83747 0.40651 2.83747 0.511104 2.83747 0.618247C2.83747 0.859321 2.74308 0.951158 2.50201 0.951158H1.34639C1.29352 0.950464 1.24068 0.953447 1.18822 0.960086L1.14613 0.967739L1.11552 0.976668C1.07102 0.988353 1.03187 1.01491 1.00455 1.05192C0.993608 1.0687 0.984618 1.08668 0.977761 1.1055C0.954181 1.18575 0.944266 1.2694 0.948426 1.35295C0.948426 1.8555 0.929296 1.89122 0.465007 1.89249C0.460778 1.89186 0.456475 1.89186 0.452247 1.89249H0.417805C0.357598 1.89149 0.297423 1.89576 0.23796 1.90525H0.211172H0.185667H0.162701L0.137197 1.91545C0.100718 1.93269 0.0704351 1.96075 0.0504625 1.99581C0.0439535 2.00943 0.0384119 2.0235 0.0338801 2.0379V2.04428L0.0262273 2.07744C0.0118574 2.14533 0.00585839 2.21473 0.00836816 2.28408V10.7561C0.00836816 11.3415 0.00837036 11.3441 0.592559 11.3454C0.806846 11.3454 0.905055 11.3964 0.936943 11.5495C0.947457 11.5998 0.952171 11.6511 0.95098 11.7025V13.8633C0.944588 13.905 0.947938 13.9477 0.960773 13.988C0.973608 14.0283 0.99558 14.065 1.02497 14.0954C1.05436 14.1258 1.09037 14.149 1.13019 14.1631C1.17002 14.1773 1.21258 14.182 1.25455 14.177C1.3719 14.177 1.48924 14.177 1.60659 14.177C1.65934 14.1724 1.71225 14.1842 1.75796 14.2109C1.80367 14.2377 1.83992 14.278 1.8617 14.3263C1.88157 14.3726 1.89157 14.4225 1.89104 14.473C1.89104 14.552 1.89104 14.6311 1.89104 14.7102V14.7574C1.89104 15.0316 1.98543 15.1247 2.26604 15.1247C2.36043 15.1247 2.45737 15.1247 2.55176 15.1247C2.5989 15.1213 2.64611 15.1303 2.68866 15.1509C2.7312 15.1715 2.76757 15.203 2.7941 15.2421C2.82138 15.2908 2.83587 15.3457 2.83619 15.4015C2.83619 15.4959 2.83619 15.5916 2.83619 15.686C2.83619 15.7204 2.83619 15.7536 2.83619 15.7867C2.83503 15.8246 2.84181 15.8622 2.8561 15.8972C2.87039 15.9323 2.89189 15.9639 2.91918 15.9901C2.94647 16.0163 2.97895 16.0365 3.01453 16.0494C3.05011 16.0622 3.088 16.0675 3.12574 16.0648C3.24436 16.0648 3.36044 16.0648 3.47779 16.0648C3.51952 16.063 3.5612 16.0695 3.60039 16.084C3.63959 16.0984 3.67553 16.1205 3.7061 16.149C3.75759 16.209 3.78567 16.2855 3.78518 16.3646C3.78518 16.4666 3.78518 16.5686 3.78518 16.6707C3.78518 16.6911 3.78518 16.7128 3.78518 16.7332C3.78254 16.7696 3.78775 16.8061 3.80046 16.8404C3.81316 16.8746 3.83306 16.9057 3.85881 16.9316C3.88457 16.9575 3.91558 16.9775 3.94975 16.9904C3.98391 17.0032 4.02044 17.0086 4.05687 17.0061C4.5033 17.0061 4.94973 17.0061 5.39617 17.0061C5.43267 17.0091 5.46939 17.0042 5.50383 16.9918C5.53828 16.9793 5.56964 16.9596 5.59578 16.934C5.62192 16.9083 5.64223 16.8773 5.65533 16.8431C5.66842 16.8089 5.674 16.7723 5.67167 16.7357C5.67167 16.6082 5.67167 16.4896 5.67167 16.3658C5.66834 16.3254 5.6739 16.2847 5.68795 16.2467C5.702 16.2086 5.72421 16.1741 5.75301 16.1455C5.78182 16.117 5.81653 16.0951 5.8547 16.0813C5.89287 16.0676 5.93358 16.0624 5.97398 16.0661H6.29158C6.5199 16.0661 6.61301 15.9717 6.61556 15.7408C6.61556 15.6464 6.61556 15.5508 6.61556 15.4551C6.61556 15.3046 6.57985 15.214 6.49694 15.1668C6.46246 15.1487 6.42476 15.1374 6.38597 15.1337H4.91785C4.86643 15.1337 4.81711 15.1132 4.78075 15.0769C4.74439 15.0405 4.72396 14.9912 4.72396 14.9398V14.4832C4.7266 14.4398 4.71989 14.3964 4.70426 14.3559C4.68863 14.3154 4.66447 14.2788 4.63341 14.2485C4.58602 14.2084 4.52697 14.1847 4.46504 14.1809H3.90891C3.85749 14.1809 3.80817 14.1604 3.77182 14.1241C3.73546 14.0877 3.71503 14.0384 3.71503 13.987V13.6528C3.71019 13.6053 3.70806 13.5576 3.70865 13.5099L3.71503 13.2676V13.1681C3.71513 13.1347 3.72388 13.1018 3.74042 13.0728C3.75696 13.0437 3.78072 13.0194 3.80942 13.0023C3.85738 12.9574 3.9188 12.9296 3.98416 12.9232H6.42679C6.47769 12.9242 6.52699 12.9054 6.56417 12.8706C6.60134 12.8358 6.62345 12.7878 6.62577 12.737V11.9206C6.62565 11.8795 6.61233 11.8394 6.58776 11.8063C6.5632 11.7733 6.52868 11.749 6.48929 11.737C6.46998 11.7304 6.44973 11.7269 6.42933 11.7268H4.47141C4.43728 11.7153 4.40714 11.6943 4.38454 11.6663C4.36194 11.6383 4.34783 11.6044 4.34386 11.5686C4.33728 11.548 4.33383 11.5265 4.33365 11.5048V10.7867C4.33352 10.7673 4.33609 10.748 4.34131 10.7293C4.34166 10.6958 4.35065 10.6629 4.36741 10.6339C4.38417 10.6048 4.40812 10.5806 4.43697 10.5635C4.46741 10.5452 4.50224 10.5355 4.53774 10.5354H6.62066C6.62066 10.3938 6.62066 10.2523 6.62066 10.1107V10.103C6.62066 9.927 6.62066 9.75225 6.62066 9.57623C6.62066 9.49715 6.62066 9.41679 6.62066 9.33771C6.62066 9.22929 6.62066 9.12214 6.62066 9.01372V8.06091C6.62066 7.38616 6.62066 6.71013 6.62066 6.03538C6.62066 5.7688 6.71888 5.67059 6.98291 5.67059C7.39618 5.67059 7.80945 5.67059 8.22145 5.67059C8.26057 5.67483 8.30016 5.67039 8.33738 5.6576C8.37459 5.64481 8.40853 5.62397 8.43678 5.59657C8.46504 5.56917 8.48691 5.53588 8.50083 5.49907C8.51476 5.46226 8.5204 5.42283 8.51736 5.38359C8.51736 5.25604 8.51736 5.13742 8.51736 5.01497C8.51473 4.97721 8.52022 4.93934 8.53344 4.90388C8.54666 4.86842 8.56731 4.83619 8.59401 4.80937C8.6207 4.78255 8.65284 4.76175 8.68824 4.74837C8.72364 4.735 8.76149 4.72935 8.79925 4.7318C8.92681 4.7318 9.05436 4.7318 9.18191 4.7318C9.21815 4.73304 9.25426 4.72683 9.28801 4.71357C9.32175 4.70031 9.35242 4.68027 9.37812 4.65469C9.40382 4.62911 9.424 4.59853 9.43742 4.56485C9.45084 4.53116 9.45722 4.49508 9.45615 4.45884C9.45998 4.31853 9.45997 4.18078 9.45487 4.04685ZM4.72779 7.21396C4.72779 7.46907 4.63085 7.56346 4.37192 7.56473C4.27753 7.56473 4.18059 7.56473 4.0862 7.56473C3.87957 7.56473 3.78646 7.66167 3.78136 7.87341C3.78136 7.97928 3.78136 8.08642 3.78136 8.19101C3.7867 8.23439 3.78198 8.27842 3.76755 8.31968C3.75312 8.36094 3.72937 8.39832 3.69816 8.42891C3.66695 8.45951 3.6291 8.4825 3.58756 8.4961C3.54603 8.5097 3.50191 8.51355 3.45865 8.50734C2.72905 8.50734 1.9969 8.50734 1.26731 8.50734C1.04026 8.50734 0.943324 8.40913 0.940773 8.18336V8.16423C0.940773 8.05836 0.940773 7.95377 0.940773 7.8479C0.937737 7.81016 0.942892 7.77221 0.955884 7.73665C0.968877 7.70109 0.989399 7.66876 1.01605 7.64187C1.0427 7.61498 1.07484 7.59416 1.11028 7.58085C1.14572 7.56754 1.18363 7.56204 1.22139 7.56473C1.33746 7.56473 1.45609 7.56473 1.57343 7.56473C1.61562 7.57029 1.65852 7.566 1.69877 7.5522C1.73902 7.5384 1.77553 7.51547 1.80543 7.48519C1.83533 7.45492 1.85782 7.41813 1.87112 7.37771C1.88443 7.33729 1.88819 7.29435 1.88211 7.25223C1.88211 7.14126 1.88211 7.03029 1.88211 6.91677C1.88486 6.84987 1.86754 6.78368 1.83236 6.72672C1.80423 6.68897 1.76706 6.6589 1.72426 6.63928C1.68147 6.61967 1.63442 6.61113 1.58746 6.61447C1.47012 6.61447 1.35277 6.61447 1.2367 6.61447C1.19594 6.61802 1.1549 6.61241 1.11659 6.59805C1.07829 6.58369 1.04367 6.56094 1.0153 6.53146C0.986927 6.50199 0.96551 6.46654 0.952615 6.42771C0.939719 6.38888 0.935671 6.34766 0.940773 6.30707V6.29304C0.940773 6.18717 0.940773 6.07875 0.940773 5.97288C0.940773 5.76625 1.05175 5.66421 1.26986 5.66293H4.36427C4.42913 5.66036 4.49393 5.66943 4.55559 5.68972C4.68315 5.73309 4.72779 5.8364 4.72779 6.02518V7.21396Z" fill="var(--fill-0, white)"/>
<path id="Vector_4" d="M10.3971 10.0936C10.4033 10.134 10.4001 10.1752 10.3877 10.2141C10.3753 10.253 10.3541 10.2885 10.3257 10.3178C10.2972 10.3471 10.2624 10.3694 10.2239 10.3829C10.1854 10.3965 10.1443 10.401 10.1038 10.3959C9.9864 10.3959 9.86905 10.3959 9.75171 10.3959C9.71099 10.3931 9.67015 10.3992 9.63206 10.4139C9.59398 10.4285 9.5596 10.4514 9.53135 10.4809C9.50311 10.5103 9.4817 10.5457 9.46864 10.5843C9.45558 10.623 9.45119 10.6641 9.45578 10.7046C9.45578 10.822 9.45578 10.9393 9.45578 11.0554C9.45828 11.0933 9.45285 11.1312 9.43985 11.1669C9.42685 11.2025 9.40656 11.2351 9.38028 11.2624C9.35399 11.2898 9.32228 11.3114 9.28719 11.3258C9.25209 11.3402 9.21438 11.3472 9.17644 11.3462C8.73511 11.3462 8.29506 11.3462 7.85373 11.3462C7.81423 11.3487 7.77465 11.3425 7.73781 11.328C7.70096 11.3136 7.66774 11.2912 7.64049 11.2625C7.61324 11.2338 7.59263 11.1994 7.5801 11.1619C7.56758 11.1243 7.56345 11.0845 7.56801 11.0452C7.56801 10.2977 7.56801 9.55027 7.56801 8.80282C7.56341 8.76223 7.5681 8.72112 7.58175 8.68261C7.59539 8.6441 7.61762 8.60921 7.64675 8.58057C7.67589 8.55193 7.71116 8.5303 7.74989 8.51731C7.78863 8.50432 7.8298 8.50033 7.87031 8.50562C8.24404 8.50562 8.61777 8.50562 8.99277 8.50562H10.0808C10.3002 8.50562 10.3971 8.60001 10.3997 8.8194C10.398 9.24372 10.3971 9.66847 10.3971 10.0936Z" fill="var(--fill-0, white)"/>
<path id="Vector_5" d="M3.80796 13.0122C3.77852 13.0401 3.75507 13.0738 3.73906 13.111C3.72305 13.1483 3.71481 13.1885 3.71484 13.229V13.178C3.71481 13.1447 3.72337 13.112 3.73968 13.0829C3.75599 13.0539 3.7795 13.0295 3.80796 13.0122Z" fill="var(--fill-0, white)"/>
</g>
<defs>
<clipPath id="clip0_0_210">
<rect width="10.4019" height="17.0218" fill="white"/>
</clipPath>
</defs>
</svg>
