<svg width="40" height="26" viewBox="0 0 40 26" fill="none" xmlns="http://www.w3.org/2000/svg">
<path d="M20.1454 0.503906H33.0095V1.96014H20.1454V0.503906Z" fill="url(#paint0_linear_427_1053)"/>
<path d="M6.79563 0.503906H33.0095L33.0093 1.23202H6.79563V0.503906Z" fill="url(#paint1_linear_427_1053)"/>
<path d="M3.76256 2.93123H36.0442V3.65935H3.76256V2.93123Z" fill="url(#paint2_linear_427_1053)"/>
<path d="M1.94197 5.35855H37.8644V6.08667H1.94197V5.35855Z" fill="url(#paint3_linear_427_1053)"/>
<path d="M0.242745 10.2132H39.5632V10.9413H0.242745V10.2132Z" fill="url(#paint4_linear_427_1053)"/>
<path d="M0.849608 7.78587H38.9565V8.51399H0.849608V7.78587Z" fill="url(#paint5_linear_427_1053)"/>
<path d="M17.1111 2.93123H36.0442L36.0432 4.26611H17.1111V2.93123Z" fill="url(#paint6_linear_427_1053)"/>
<path d="M15.2917 5.35855H37.8644L37.8646 6.57208H15.2917V5.35855Z" fill="url(#paint7_linear_427_1053)"/>
<path d="M14.1994 7.78587H38.9565L38.9567 8.87805H14.1994V7.78587Z" fill="url(#paint8_linear_427_1053)"/>
<path d="M13.5925 10.2132H39.5632L39.5635 11.184H13.5925V10.2132Z" fill="url(#paint9_linear_427_1053)"/>
<path d="M0 12.6405H39.8059V13.3686H0V12.6405Z" fill="url(#paint10_linear_427_1053)"/>
<path d="M6.79563 24.7721H33.0093V25.5002H6.79563V24.7721Z" fill="url(#paint11_linear_427_1053)"/>
<path d="M3.76256 22.3498H36.0442V23.0779H3.76256V22.3498Z" fill="url(#paint12_linear_427_1053)"/>
<path d="M1.94197 19.9225H37.8644V20.6506H1.94197V19.9225Z" fill="url(#paint13_linear_427_1053)"/>
<path d="M0.849608 17.4952H38.9565V18.2233H0.849608V17.4952Z" fill="url(#paint14_linear_427_1053)"/>
<path d="M0.242745 15.0678H39.5632V15.796H0.242745V15.0678Z" fill="url(#paint15_linear_427_1053)"/>
<path d="M0.242745 14.8226H26.2137V15.7934H0.242745V14.8226Z" fill="url(#paint16_linear_427_1053)"/>
<path d="M0.849608 17.1298H25.607V18.222H0.849608V17.1298Z" fill="url(#paint17_linear_427_1053)"/>
<path d="M1.94197 19.437H24.5148V20.6505L1.94197 20.6506V19.437Z" fill="url(#paint18_linear_427_1053)"/>
<path d="M3.76256 21.7392H22.6947V23.0741H3.76256V21.7392Z" fill="url(#paint19_linear_427_1053)"/>
<path d="M6.79563 24.0464H19.6597V25.5027H6.79563V24.0464Z" fill="url(#paint20_linear_427_1053)"/>
<defs>
<linearGradient id="paint0_linear_427_1053" x1="6.76721" y1="25.5027" x2="33.7419" y2="1.28669" gradientUnits="userSpaceOnUse">
<stop stop-color="#F2E500"/>
<stop offset="1" stop-color="#9ED706"/>
</linearGradient>
<linearGradient id="paint1_linear_427_1053" x1="6.76721" y1="25.5027" x2="33.7419" y2="1.28669" gradientUnits="userSpaceOnUse">
<stop stop-color="#F2E500"/>
<stop offset="1" stop-color="#9ED706"/>
</linearGradient>
<linearGradient id="paint2_linear_427_1053" x1="6.76721" y1="25.5027" x2="33.7419" y2="1.28669" gradientUnits="userSpaceOnUse">
<stop stop-color="#F2E500"/>
<stop offset="1" stop-color="#9ED706"/>
</linearGradient>
<linearGradient id="paint3_linear_427_1053" x1="6.76721" y1="25.5027" x2="33.7419" y2="1.28669" gradientUnits="userSpaceOnUse">
<stop stop-color="#F2E500"/>
<stop offset="1" stop-color="#9ED706"/>
</linearGradient>
<linearGradient id="paint4_linear_427_1053" x1="6.76721" y1="25.5027" x2="33.7419" y2="1.28669" gradientUnits="userSpaceOnUse">
<stop stop-color="#F2E500"/>
<stop offset="1" stop-color="#9ED706"/>
</linearGradient>
<linearGradient id="paint5_linear_427_1053" x1="6.76721" y1="25.5027" x2="33.7419" y2="1.28669" gradientUnits="userSpaceOnUse">
<stop stop-color="#F2E500"/>
<stop offset="1" stop-color="#9ED706"/>
</linearGradient>
<linearGradient id="paint6_linear_427_1053" x1="6.76721" y1="25.5027" x2="33.7419" y2="1.28669" gradientUnits="userSpaceOnUse">
<stop stop-color="#F2E500"/>
<stop offset="1" stop-color="#9ED706"/>
</linearGradient>
<linearGradient id="paint7_linear_427_1053" x1="6.76721" y1="25.5027" x2="33.7419" y2="1.28669" gradientUnits="userSpaceOnUse">
<stop stop-color="#F2E500"/>
<stop offset="1" stop-color="#9ED706"/>
</linearGradient>
<linearGradient id="paint8_linear_427_1053" x1="6.76721" y1="25.5027" x2="33.7419" y2="1.28669" gradientUnits="userSpaceOnUse">
<stop stop-color="#F2E500"/>
<stop offset="1" stop-color="#9ED706"/>
</linearGradient>
<linearGradient id="paint9_linear_427_1053" x1="6.76721" y1="25.5027" x2="33.7419" y2="1.28669" gradientUnits="userSpaceOnUse">
<stop stop-color="#F2E500"/>
<stop offset="1" stop-color="#9ED706"/>
</linearGradient>
<linearGradient id="paint10_linear_427_1053" x1="6.76721" y1="25.5027" x2="33.7419" y2="1.28669" gradientUnits="userSpaceOnUse">
<stop stop-color="#F2E500"/>
<stop offset="1" stop-color="#9ED706"/>
</linearGradient>
<linearGradient id="paint11_linear_427_1053" x1="6.76721" y1="25.5027" x2="33.7419" y2="1.28669" gradientUnits="userSpaceOnUse">
<stop stop-color="#F2E500"/>
<stop offset="1" stop-color="#9ED706"/>
</linearGradient>
<linearGradient id="paint12_linear_427_1053" x1="6.76721" y1="25.5027" x2="33.7419" y2="1.28669" gradientUnits="userSpaceOnUse">
<stop stop-color="#F2E500"/>
<stop offset="1" stop-color="#9ED706"/>
</linearGradient>
<linearGradient id="paint13_linear_427_1053" x1="6.76721" y1="25.5027" x2="33.7419" y2="1.28669" gradientUnits="userSpaceOnUse">
<stop stop-color="#F2E500"/>
<stop offset="1" stop-color="#9ED706"/>
</linearGradient>
<linearGradient id="paint14_linear_427_1053" x1="6.76721" y1="25.5027" x2="33.7419" y2="1.28669" gradientUnits="userSpaceOnUse">
<stop stop-color="#F2E500"/>
<stop offset="1" stop-color="#9ED706"/>
</linearGradient>
<linearGradient id="paint15_linear_427_1053" x1="6.76721" y1="25.5027" x2="33.7419" y2="1.28669" gradientUnits="userSpaceOnUse">
<stop stop-color="#F2E500"/>
<stop offset="1" stop-color="#9ED706"/>
</linearGradient>
<linearGradient id="paint16_linear_427_1053" x1="6.76721" y1="25.5027" x2="33.7419" y2="1.28669" gradientUnits="userSpaceOnUse">
<stop stop-color="#F2E500"/>
<stop offset="1" stop-color="#9ED706"/>
</linearGradient>
<linearGradient id="paint17_linear_427_1053" x1="6.76721" y1="25.5027" x2="33.7419" y2="1.28669" gradientUnits="userSpaceOnUse">
<stop stop-color="#F2E500"/>
<stop offset="1" stop-color="#9ED706"/>
</linearGradient>
<linearGradient id="paint18_linear_427_1053" x1="6.76721" y1="25.5027" x2="33.7419" y2="1.28669" gradientUnits="userSpaceOnUse">
<stop stop-color="#F2E500"/>
<stop offset="1" stop-color="#9ED706"/>
</linearGradient>
<linearGradient id="paint19_linear_427_1053" x1="6.76721" y1="25.5027" x2="33.7419" y2="1.28669" gradientUnits="userSpaceOnUse">
<stop stop-color="#F2E500"/>
<stop offset="1" stop-color="#9ED706"/>
</linearGradient>
<linearGradient id="paint20_linear_427_1053" x1="6.76721" y1="25.5027" x2="33.7419" y2="1.28669" gradientUnits="userSpaceOnUse">
<stop stop-color="#F2E500"/>
<stop offset="1" stop-color="#9ED706"/>
</linearGradient>
</defs>
</svg>
