<svg width="500" height="91" viewBox="0 0 500 91" fill="none" xmlns="http://www.w3.org/2000/svg">
<path d="M138.185 41.5395L163.086 74.6469H148.518L130.646 50.0069L125.819 55.426V74.6469H114.3V15.0368H125.819V33.7497C125.819 36.8825 125.056 38.2372 123.701 40.0155C123.278 40.6082 123.362 41.1163 123.786 41.4549C124.294 41.8783 124.887 41.5395 125.226 41.2009L147.84 15.0368H161.731L138.185 41.5395Z" fill="white"/>
<path d="M158.989 62.3696C158.989 52.4628 166.273 48.822 175.251 48.3139C183.213 47.8906 190.243 48.6527 190.158 44.5037C190.074 41.4554 188.888 38.0685 181.18 38.0685C173.557 38.0685 171.61 41.2015 171.017 44.8423H160.344C161.869 33.5807 171.525 29.2625 181.519 29.2625C191.768 29.2625 201 32.6494 201 49.9228V74.6474H190.158V71.5144C190.158 69.4823 190.667 68.1275 191.429 66.6034C191.768 65.8414 192.107 64.9945 191.344 64.6559C190.497 64.3171 190.158 65.164 189.989 65.5872C187.448 71.7683 182.536 75.3248 174.574 75.3248C166.189 75.3248 158.989 69.9057 158.989 62.3696ZM190.158 51.6161C187.618 54.4103 183.552 54.8338 177.115 55.5111C172.457 56.0192 169.831 57.7972 169.831 61.7769C169.831 65.5026 173.388 67.8736 178.385 67.1962C184.145 66.4339 190.074 62.7084 190.158 51.6161Z" fill="white"/>
<path d="M205.795 29.9399H216.636V31.6332C216.636 33.4114 216.213 34.7662 215.451 36.2903C215.112 37.1372 214.519 38.1531 215.366 38.5766C216.213 38.9998 216.721 37.8992 216.891 37.5604C219.601 32.8187 224.09 29.2625 231.035 29.2625C242.639 29.2625 250.516 39.4232 250.516 52.2935C250.516 65.164 242.639 75.3248 231.035 75.3248C224.259 75.3248 219.601 71.8532 216.891 66.942C216.721 66.6881 216.382 65.8414 215.62 66.0954C214.688 66.4339 215.027 67.2808 215.451 68.1275C216.213 69.6516 216.636 71.0063 216.636 72.6999V90.0918H205.795V29.9399ZM228.494 65.5026C236.117 65.5026 239.674 59.4062 239.674 52.2935C239.674 45.1811 236.117 39.0847 228.494 39.0847C221.38 39.0847 216.636 45.1811 216.636 52.2935C216.636 59.4062 221.38 65.5026 228.494 65.5026Z" fill="white"/>
<path d="M253.269 29.9399H264.112V31.6332C264.112 33.4114 263.687 34.7662 262.925 36.2903C262.587 37.1372 261.994 38.1531 262.84 38.5766C263.687 38.9998 264.195 37.8992 264.365 37.5604C267.077 32.8187 271.566 29.2625 278.511 29.2625C290.113 29.2625 297.99 39.4232 297.99 52.2935C297.99 65.164 290.113 75.3248 278.511 75.3248C271.733 75.3248 267.077 71.8532 264.365 66.942C264.195 66.6881 263.857 65.8414 263.096 66.0954C262.164 66.4339 262.502 67.2808 262.925 68.1275C263.687 69.6516 264.112 71.0063 264.112 72.6999V90.0918H253.269V29.9399ZM275.97 65.5026C283.591 65.5026 287.149 59.4062 287.149 52.2935C287.149 45.1811 283.591 39.0847 275.97 39.0847C268.854 39.0847 264.112 45.1811 264.112 52.2935C264.112 59.4062 268.854 65.5026 275.97 65.5026Z" fill="white"/>
<path d="M298.706 62.3694C298.706 52.4625 305.989 48.8217 314.968 48.3136C322.929 47.8904 329.96 48.6524 329.875 44.5035C329.789 41.4551 328.603 38.0682 320.896 38.0682C313.272 38.0682 311.325 41.2012 310.731 44.842H300.061C301.585 33.5805 311.24 29.2622 321.234 29.2622C331.484 29.2622 340.715 32.6492 340.715 49.9225V74.6471H329.875V71.5141C329.875 69.482 330.383 68.1272 331.144 66.6032C331.484 65.8412 331.822 64.9942 331.059 64.6557C330.213 64.3169 329.875 65.1638 329.704 65.587C327.163 71.7681 322.251 75.3245 314.289 75.3245C305.904 75.3245 298.706 69.9055 298.706 62.3694ZM329.875 51.6159C327.333 54.41 323.267 54.8335 316.83 55.5109C312.171 56.019 309.547 57.797 309.547 61.7766C309.547 65.5023 313.105 67.8733 318.102 67.1959C323.861 66.4336 329.789 62.7082 329.875 51.6159Z" fill="white"/>
<path d="M407.817 62.3696C407.817 52.4628 415.1 48.822 424.078 48.3139C432.04 47.8906 439.07 48.6527 438.985 44.5037C438.9 41.4554 437.716 38.0685 430.007 38.0685C422.386 38.0685 420.438 41.2015 419.845 44.8423H409.171C410.696 33.5807 420.353 29.2625 430.348 29.2625C440.595 29.2625 449.829 32.6494 449.829 49.9228V74.6474H438.985V71.5144C438.985 69.4823 439.494 68.1275 440.257 66.6034C440.595 65.8414 440.933 64.9945 440.172 64.6559C439.326 64.3171 438.985 65.164 438.818 65.5872C436.276 71.7683 431.364 75.3248 423.402 75.3248C415.017 75.3248 407.817 69.9057 407.817 62.3696ZM438.985 51.6161C436.444 54.4103 432.381 54.8338 425.944 55.5111C421.284 56.0192 418.658 57.7972 418.658 61.7769C418.658 65.5026 422.216 67.8736 427.213 67.1962C432.971 66.4339 438.9 62.7084 438.985 51.6161Z" fill="white"/>
<path d="M455.279 15.0368H466.12V31.6327C466.12 33.4109 465.697 34.7657 464.933 36.2897C464.595 37.1367 464.002 38.1526 464.848 38.5761C465.697 38.9993 466.205 37.8987 466.373 37.5599C469.084 32.8182 473.573 29.262 480.519 29.262C492.123 29.262 500 39.4227 500 52.293C500 65.1635 492.123 75.3243 480.519 75.3243C473.744 75.3243 469.084 71.8527 466.373 66.9415C466.205 66.6876 465.865 65.8409 465.103 66.0948C464.172 66.4334 464.51 67.2803 464.933 68.127C465.697 69.651 466.12 71.0058 466.12 72.6994V74.6469H455.279V15.0368ZM477.977 65.5021C485.601 65.5021 489.159 59.4056 489.159 52.293C489.159 45.1806 485.601 39.0842 477.977 39.0842C470.862 39.0842 466.12 45.1806 466.12 52.293C466.12 59.4056 470.862 65.5021 477.977 65.5021Z" fill="white"/>
<path d="M366.556 74.6491V15.0368H378.073V58.1343C378.073 61.2673 377.312 62.622 375.957 64.4C375.534 64.9927 375.617 65.5008 376.043 65.8394C376.551 66.2629 377.142 65.9243 377.482 65.5855C378.271 64.8792 379.295 64.4889 380.354 64.4889H407.214V74.6491H366.556Z" fill="white"/>
<path fill-rule="evenodd" clip-rule="evenodd" d="M59.5091 14.9241C59.5091 6.68173 66.17 3.8147e-06 74.3861 3.8147e-06H74.7244C83.1275 3.8147e-06 89.9396 6.83361 89.9396 15.2633V15.6022C89.9396 23.8447 83.2787 30.5267 75.0621 30.5267H74.7236C66.694 30.5267 60.1846 37.0564 60.1846 45.1116C60.1846 53.1666 66.694 59.6966 74.7236 59.6966H75.0621C83.2787 59.6966 89.9396 66.3785 89.9396 74.6208V74.9597C89.9396 83.3894 83.1275 90.223 74.7244 90.223H74.3864C66.17 90.223 59.5091 83.5413 59.5091 75.299C59.5091 67.0566 52.8483 60.3747 44.632 60.3747C36.4153 60.3747 29.7545 53.6928 29.7545 45.4502V44.7726C29.7545 36.5299 36.4156 29.848 44.632 29.848C52.8483 29.848 59.5091 23.1664 59.5091 14.9241Z" fill="url(#paint0_linear_156_77507)"/>
<path d="M15.2152 0H15.2152C6.81207 0 0 6.83362 0 15.2633V15.2634C0 23.6931 6.81207 30.5267 15.2152 30.5267H15.2152C23.6183 30.5267 30.4304 23.6931 30.4304 15.2634V15.2633C30.4304 6.83362 23.6183 0 15.2152 0Z" fill="url(#paint1_linear_156_77507)"/>
<path d="M15.2151 59.6966H15.215C6.81191 59.6966 -0.000152588 66.5302 -0.000152588 74.9599V74.9599C-0.000152588 83.3896 6.81191 90.2232 15.215 90.2232H15.2151C23.6182 90.2232 30.4303 83.3896 30.4303 74.9599V74.9599C30.4303 66.5302 23.6182 59.6966 15.2151 59.6966Z" fill="url(#paint2_linear_156_77507)"/>
<defs>
<linearGradient id="paint0_linear_156_77507" x1="29.7545" y1="3.8147e-06" x2="113.202" y2="54.7991" gradientUnits="userSpaceOnUse">
<stop stop-color="#7D59FF"/>
<stop offset="1" stop-color="#673DFF"/>
</linearGradient>
<linearGradient id="paint1_linear_156_77507" x1="0" y1="0" x2="30.7626" y2="30.1883" gradientUnits="userSpaceOnUse">
<stop stop-color="#7D59FF"/>
<stop offset="1" stop-color="#673DFF"/>
</linearGradient>
<linearGradient id="paint2_linear_156_77507" x1="-0.000152588" y1="59.6966" x2="30.7624" y2="89.8849" gradientUnits="userSpaceOnUse">
<stop stop-color="#7D59FF"/>
<stop offset="1" stop-color="#673DFF"/>
</linearGradient>
</defs>
</svg>
