<svg width="203" height="84" viewBox="0 0 203 84" fill="none" xmlns="http://www.w3.org/2000/svg">
<path fill-rule="evenodd" clip-rule="evenodd" d="M184.177 53.4732C185.749 53.4732 187 52.1855 187 50.572C187 48.9604 185.758 47.6746 184.187 47.6746C182.614 47.6746 181.364 48.9604 181.364 50.572C181.364 52.1855 182.606 53.4732 184.177 53.4732ZM184.187 53.1627C182.79 53.1627 181.688 52.0007 181.688 50.572C181.688 49.1376 182.783 47.9832 184.177 47.9832C185.576 47.9832 186.672 49.1452 186.672 50.572C186.672 52.0102 185.579 53.1627 184.187 53.1627ZM183.157 52.1169H183.53V50.7206H184.237L184.974 52.1169H185.375L184.615 50.6672C185.032 50.572 185.322 50.311 185.322 49.8005C185.322 49.2347 184.931 48.928 184.22 48.928H183.157V52.1169ZM183.53 50.4006V49.2671H184.202C184.678 49.2671 184.961 49.4195 184.961 49.8196C184.961 50.2501 184.678 50.4006 184.207 50.4006H183.53Z" fill="#252525"/>
<path fill-rule="evenodd" clip-rule="evenodd" d="M17.533 58.7193C17.453 59.2812 17.3227 59.9251 16.8721 60.0223C16.6301 60.0737 16.5184 60.0737 16.388 60.0737C16.2279 60.0737 16.1311 60.1042 16.1311 60.1861C16.1311 60.3347 16.2596 60.3671 16.4197 60.3671C16.9373 60.3671 17.7118 60.3194 18.0171 60.3194C18.3075 60.3194 19.0318 60.3671 19.7095 60.3671C19.9496 60.3671 20.0949 60.3347 20.0949 60.1861C20.0949 60.1042 19.9813 60.0737 19.8528 60.0737C19.6909 60.0737 19.4656 60.0546 19.1751 59.988C18.9033 59.9251 18.6929 59.7746 18.6929 59.4622C18.6929 59.1993 18.7116 58.9841 18.7432 58.6869L19.5791 52.2558H19.6443C20.2084 53.4921 21.1747 55.437 21.3199 55.7857C21.5136 56.2467 22.7852 58.7688 23.1724 59.527C23.4312 60.0223 23.5913 60.3499 23.7365 60.3499C23.8818 60.3499 23.9618 60.2013 24.3342 59.4298L27.8455 52.0748H27.9107L28.8751 59.2469C28.9403 59.7098 28.8937 59.9251 28.795 59.9575C28.6833 60.007 28.6182 60.0546 28.6182 60.1366C28.6182 60.2356 28.715 60.2851 29.0855 60.3175C29.7297 60.3671 31.9545 60.3994 32.3566 60.3994C32.5819 60.3994 32.7755 60.3499 32.7755 60.2204C32.7755 60.1213 32.6638 60.1061 32.5186 60.1061C32.3101 60.1061 31.9861 60.0889 31.5188 59.9403C31.0348 59.7918 30.8747 59.3136 30.7294 58.2735L29.2642 48.183C29.2139 47.8382 29.119 47.6725 28.9738 47.6725C28.8285 47.6725 28.7485 47.8039 28.6182 48.0687L24.2355 57.3515L19.8361 48.183C19.6257 47.7544 19.5307 47.6725 19.4004 47.6725C19.272 47.6725 19.1751 47.8211 19.1286 48.1011L17.533 58.7193ZM42.9597 56.1609C43.0397 56.1609 43.09 56.1933 43.1235 56.2771L44.4119 59.6756C44.4919 59.8737 44.3784 60.0223 44.2666 60.0546C44.1047 60.0737 44.0395 60.1042 44.0395 60.2032C44.0395 60.3175 44.2331 60.3175 44.5236 60.3347C45.8138 60.3671 46.9905 60.3671 47.5695 60.3671C48.1652 60.3671 48.3105 60.3347 48.3105 60.2032C48.3105 60.0889 48.2304 60.0737 48.1019 60.0737C47.9083 60.0737 47.6663 60.0546 47.4243 60.007C47.0854 59.9251 46.62 59.6927 46.0056 58.2068C44.976 55.7018 42.3974 49.1069 42.012 48.2021C41.85 47.8211 41.7532 47.6725 41.608 47.6725C41.4479 47.6725 41.3511 47.8554 41.1575 48.3316L37.1118 58.5535C36.7897 59.3784 36.4843 59.9403 35.7434 60.0394C35.6149 60.0546 35.3896 60.0737 35.2444 60.0737C35.1141 60.0737 35.0508 60.1042 35.0508 60.2032C35.0508 60.3347 35.1476 60.3671 35.3561 60.3671C36.1939 60.3671 37.0801 60.3194 37.257 60.3194C37.756 60.3194 38.4504 60.3671 38.9661 60.3671C39.1449 60.3671 39.2398 60.3347 39.2398 60.2032C39.2398 60.1042 39.1914 60.0737 38.9996 60.0737H38.7557C38.2568 60.0737 38.1116 59.8584 38.1116 59.5613C38.1116 59.3632 38.1916 58.965 38.3536 58.5535L39.2249 56.2943C39.2566 56.1933 39.2882 56.1609 39.3701 56.1609H42.9597ZM39.6904 55.3399C39.6271 55.3399 39.6103 55.2904 39.6271 55.2237L41.1072 51.1833C41.1258 51.1204 41.1574 51.0328 41.2059 51.0328C41.2524 51.0328 41.271 51.1204 41.2859 51.1833L42.7344 55.2389C42.753 55.2904 42.7344 55.3399 42.6543 55.3399H39.6904ZM53.9572 51.2481H54.0037C54.296 51.5624 56.0852 53.574 57.839 55.3551C59.5146 57.0525 61.5756 59.2127 62.5903 60.2013C62.769 60.3842 62.9608 60.5652 63.1358 60.5652C63.281 60.5652 63.3462 60.4166 63.3462 60.0527L63.5212 49.6479C63.538 48.7259 63.6664 48.3792 64.1207 48.2478C64.3125 48.1964 64.4409 48.1964 64.6029 48.1964C64.7965 48.1964 64.8915 48.1487 64.8915 48.0497C64.8915 47.9201 64.7314 47.903 64.521 47.903C63.7316 47.903 63.1228 47.9506 62.9441 47.9506C62.6052 47.9506 61.8326 47.903 60.9966 47.903C60.7527 47.903 60.5777 47.9201 60.5777 48.0497C60.5777 48.1487 60.641 48.1964 60.8328 48.1964C61.0599 48.1964 61.4472 48.1964 61.6873 48.2973C62.0765 48.4611 62.2198 48.7755 62.2366 49.7794L62.3967 57.1839H62.3166C62.0429 56.9191 59.8684 54.5474 58.7755 53.4235C56.4222 51.0347 53.9721 48.3983 53.7784 48.183C53.5048 47.8858 53.3595 47.6725 53.1827 47.6725C53.0207 47.6725 52.9723 47.903 52.9723 48.2325L52.8271 57.944C52.8103 59.3784 52.747 59.8584 52.3262 59.988C52.101 60.0546 51.8105 60.0737 51.602 60.0737C51.4382 60.0737 51.3432 60.1042 51.3432 60.2032C51.3432 60.3499 51.4884 60.3671 51.697 60.3671C52.5366 60.3671 53.2962 60.3194 53.4415 60.3194C53.7468 60.3194 54.3928 60.3671 55.441 60.3671C55.6663 60.3671 55.8097 60.3347 55.8097 60.2032C55.8097 60.1042 55.7128 60.0737 55.536 60.0737C55.2772 60.0737 54.9719 60.0546 54.6982 59.9575C54.3761 59.8413 54.1676 59.4108 54.134 58.1249L53.9572 51.2481ZM75.9488 56.1609C76.0288 56.1609 76.0772 56.1933 76.1089 56.2771L77.3991 59.6756C77.4792 59.8737 77.3675 60.0223 77.2539 60.0546C77.0938 60.0737 77.0286 60.1042 77.0286 60.2032C77.0286 60.3175 77.2222 60.3175 77.5127 60.3347C78.8011 60.3671 79.9758 60.3671 80.5586 60.3671C81.1525 60.3671 81.2977 60.3347 81.2977 60.2032C81.2977 60.0889 81.2177 60.0737 81.0873 60.0737C80.8956 60.0737 80.6535 60.0546 80.4134 60.007C80.0745 59.9251 79.6053 59.6927 78.9947 58.2068C77.9614 55.7018 75.3847 49.1069 74.9974 48.2021C74.8373 47.8211 74.7405 47.6725 74.5953 47.6725C74.4351 47.6725 74.3383 47.8554 74.1428 48.3316L70.1009 58.5535C69.7769 59.3784 69.4716 59.9403 68.7306 60.0394C68.6021 60.0546 68.375 60.0737 68.2298 60.0737C68.1032 60.0737 68.038 60.1042 68.038 60.2032C68.038 60.3347 68.1348 60.3671 68.3434 60.3671C69.1812 60.3671 70.0674 60.3194 70.2461 60.3194C70.7451 60.3194 71.4377 60.3671 71.9534 60.3671C72.1284 60.3671 72.2271 60.3347 72.2271 60.2032C72.2271 60.1042 72.1786 60.0737 71.9832 60.0737H71.743C71.244 60.0737 71.1007 59.8584 71.1007 59.5613C71.1007 59.3632 71.1807 58.965 71.3408 58.5535L72.2084 56.2943C72.242 56.1933 72.2736 56.1609 72.3537 56.1609H75.9488ZM72.6777 55.3399C72.6126 55.3399 72.5977 55.2904 72.6126 55.2237L74.0964 51.1833C74.1132 51.1204 74.143 51.0328 74.1932 51.0328C74.2416 51.0328 74.2565 51.1204 74.2733 51.1833L75.7236 55.2389C75.7385 55.2904 75.7236 55.3399 75.6436 55.3399H72.6777ZM95.9927 57.4487C95.9927 56.6238 95.9927 55.9647 96.0114 55.4675C96.0263 54.8903 96.1864 54.6122 96.622 54.5284C96.8157 54.4979 96.9292 54.4808 97.0577 54.4808C97.1713 54.4808 97.2681 54.4465 97.2681 54.3493C97.2681 54.2179 97.1545 54.1855 96.946 54.1855C96.4116 54.1855 95.5608 54.2331 95.0618 54.2331C94.5796 54.2331 93.5631 54.1855 92.7253 54.1855C92.5 54.1855 92.3864 54.2179 92.3864 54.3493C92.3864 54.4465 92.4833 54.4808 92.6285 54.4808C92.8519 54.4808 93.1274 54.4979 93.2559 54.5284C93.7902 54.6446 93.9355 54.9094 93.9504 55.4675C93.9671 55.9647 93.9671 56.5915 93.9671 57.4163V58.965C93.9671 59.247 93.9019 59.4603 93.6599 59.5784C93.2727 59.7575 92.7067 59.7575 92.2896 59.7575C88.89 59.7575 86.68 57.1039 86.68 53.5588C86.68 51.53 87.2609 50.2918 88.162 49.5165C89.2921 48.5602 90.4688 48.4954 91.355 48.4954C93.1758 48.4954 94.4661 49.2517 94.9501 49.7794C95.369 50.2442 95.4472 50.7718 95.4956 51.1509C95.5105 51.2824 95.544 51.3662 95.6558 51.3662C95.7861 51.3662 95.8326 51.2824 95.8326 51.0176C95.8326 48.9564 95.9462 48.4954 95.9462 48.3145C95.9462 48.1983 95.9127 48.1335 95.7209 48.1163C95.3504 48.0992 94.7882 48.0021 94.4493 47.9354C94.1272 47.8706 92.7067 47.6725 91.597 47.6725C90.2435 47.6725 88.8099 47.7887 87.2609 48.7431C85.7957 49.6479 84.4571 51.4957 84.4571 54.136C84.4571 58.6869 87.9517 60.5976 91.9042 60.5976C93.1609 60.5976 94.7398 60.4166 95.7861 59.8584C95.9778 59.7422 95.9927 59.7099 95.9927 59.2622V57.4487ZM103.716 55.5856C103.716 57.102 103.716 58.4049 103.636 59.0964C103.572 59.5746 103.488 59.9384 103.168 60.0051C103.023 60.0394 102.831 60.0737 102.587 60.0737C102.394 60.0737 102.33 60.1213 102.33 60.2032C102.33 60.3175 102.442 60.367 102.652 60.367C102.975 60.367 103.393 60.3347 103.766 60.3347C104.151 60.3175 104.503 60.3175 104.682 60.3175C105.164 60.3175 105.663 60.3327 106.357 60.367C107.052 60.3842 107.936 60.4166 109.146 60.4166C109.757 60.4166 109.9 60.4166 110.014 59.988C110.094 59.6603 110.224 58.5364 110.224 58.1573C110.224 57.9935 110.224 57.8601 110.094 57.8601C109.982 57.8601 109.951 57.9268 109.919 58.1097C109.807 58.7859 109.61 59.1326 109.193 59.3288C108.776 59.527 108.098 59.527 107.677 59.527C106.034 59.527 105.777 59.2812 105.743 58.1402C105.728 57.6639 105.743 56.1457 105.743 55.5856V54.2826C105.743 54.1836 105.76 54.1188 105.84 54.1188C106.227 54.1188 107.825 54.1341 108.128 54.1664C108.728 54.2331 108.953 54.4808 109.033 54.8103C109.081 55.0237 109.081 55.237 109.096 55.4027C109.096 55.4866 109.13 55.5513 109.243 55.5513C109.387 55.5513 109.387 55.3704 109.387 55.237C109.387 55.1227 109.435 54.4655 109.45 54.1341C109.515 53.294 109.58 53.0311 109.58 52.9301C109.58 52.833 109.53 52.8006 109.467 52.8006C109.387 52.8006 109.323 52.8825 109.21 53.0158C109.066 53.1797 108.822 53.2292 108.437 53.2616C108.065 53.294 106.212 53.294 105.857 53.294C105.76 53.294 105.743 53.2292 105.743 53.113V48.9393C105.743 48.8231 105.777 48.7754 105.857 48.7754C106.181 48.7754 107.871 48.8078 108.147 48.8402C108.953 48.9393 109.113 49.1355 109.226 49.4326C109.307 49.6327 109.323 49.9127 109.323 50.0289C109.323 50.1775 109.355 50.2594 109.467 50.2594C109.58 50.2594 109.61 50.1603 109.629 50.0765C109.66 49.8822 109.694 49.1564 109.709 48.9907C109.757 48.2325 109.837 48.0344 109.837 47.9201C109.837 47.8382 109.82 47.7715 109.74 47.7715C109.66 47.7715 109.563 47.8211 109.483 47.8382C109.355 47.8706 109.1 47.903 108.791 47.9373C108.485 47.9525 105.276 47.9525 104.762 47.9525C104.535 47.9525 104.166 47.9373 103.747 47.9201C103.345 47.9201 102.878 47.903 102.442 47.903C102.2 47.903 102.088 47.9373 102.088 48.0497C102.088 48.1659 102.183 48.1963 102.36 48.1963C102.587 48.1963 102.861 48.2154 102.991 48.2478C103.522 48.3659 103.652 48.6269 103.686 49.1888C103.716 49.7165 103.716 50.1794 103.716 52.6844V55.5856ZM116.122 58.7193C116.042 59.2812 115.914 59.9251 115.463 60.0223C115.221 60.0737 115.11 60.0737 114.979 60.0737C114.817 60.0737 114.721 60.1042 114.721 60.1861C114.721 60.3347 114.851 60.3671 115.011 60.3671C115.529 60.3671 116.301 60.3194 116.607 60.3194C116.897 60.3194 117.621 60.3671 118.297 60.3671C118.541 60.3671 118.686 60.3347 118.686 60.1861C118.686 60.1042 118.574 60.0737 118.444 60.0737C118.284 60.0737 118.057 60.0546 117.766 59.988C117.493 59.9251 117.282 59.7746 117.282 59.4622C117.282 59.1993 117.299 58.9841 117.331 58.6869L118.17 52.2558H118.234C118.798 53.4921 119.764 55.4371 119.911 55.7857C120.103 56.2467 121.376 58.7688 121.764 59.527C122.021 60.0223 122.181 60.3499 122.326 60.3499C122.473 60.3499 122.553 60.2013 122.924 59.4298L126.435 52.0748H126.5L127.468 59.247C127.532 59.7099 127.485 59.9251 127.388 59.9575C127.275 60.007 127.209 60.0546 127.209 60.1366C127.209 60.2356 127.306 60.2851 127.679 60.3175C128.321 60.3671 130.544 60.3994 130.946 60.3994C131.173 60.3994 131.365 60.3499 131.365 60.2204C131.365 60.1213 131.253 60.1061 131.108 60.1061C130.9 60.1061 130.577 60.0889 130.11 59.9404C129.626 59.7918 129.466 59.3136 129.319 58.2735L127.854 48.183C127.805 47.8382 127.708 47.6725 127.565 47.6725C127.42 47.6725 127.338 47.8039 127.209 48.0687L122.827 57.3515L118.427 48.183C118.217 47.7544 118.122 47.6725 117.994 47.6725C117.863 47.6725 117.766 47.8211 117.72 48.1011L116.122 58.7193ZM137.151 55.5856C137.151 57.102 137.151 58.4049 137.071 59.0964C137.008 59.5746 136.928 59.9384 136.606 60.0051C136.461 60.0394 136.267 60.0737 136.025 60.0737C135.833 60.0737 135.768 60.1213 135.768 60.2032C135.768 60.3175 135.882 60.367 136.092 60.367C136.412 60.367 136.831 60.3347 137.202 60.3347C137.589 60.3175 137.943 60.3175 138.12 60.3175C138.604 60.3175 139.103 60.3327 139.793 60.367C140.488 60.3842 141.376 60.4166 142.582 60.4166C143.193 60.4166 143.34 60.4166 143.452 59.988C143.532 59.6603 143.662 58.5364 143.662 58.1573C143.662 57.9935 143.662 57.8601 143.532 57.8601C143.42 57.8601 143.387 57.9268 143.353 58.1097C143.241 58.7859 143.05 59.1326 142.633 59.3288C142.214 59.527 141.536 59.527 141.119 59.527C139.473 59.527 139.214 59.2812 139.183 58.1402C139.166 57.6639 139.183 56.1457 139.183 55.5856V54.2826C139.183 54.1836 139.198 54.1188 139.281 54.1188C139.665 54.1188 141.262 54.1341 141.569 54.1664C142.165 54.2331 142.391 54.4808 142.472 54.8103C142.519 55.0237 142.519 55.237 142.534 55.4027C142.534 55.4866 142.567 55.5513 142.679 55.5513C142.824 55.5513 142.824 55.3704 142.824 55.237C142.824 55.1227 142.871 54.4655 142.888 54.1341C142.953 53.294 143.016 53.0311 143.016 52.9301C143.016 52.833 142.97 52.8006 142.903 52.8006C142.824 52.8006 142.759 52.8825 142.647 53.0158C142.504 53.1797 142.262 53.2292 141.875 53.2616C141.502 53.294 139.65 53.294 139.294 53.294C139.198 53.294 139.183 53.2292 139.183 53.113V48.9393C139.183 48.8231 139.214 48.7754 139.294 48.7754C139.618 48.7754 141.311 48.8078 141.584 48.8402C142.391 48.9393 142.553 49.1355 142.664 49.4326C142.744 49.6327 142.763 49.9127 142.763 50.0289C142.763 50.1775 142.793 50.2594 142.906 50.2594C143.018 50.2594 143.05 50.1603 143.066 50.0765C143.098 49.8822 143.13 49.1564 143.146 48.9907C143.193 48.2325 143.273 48.0344 143.273 47.9201C143.273 47.8382 143.26 47.7715 143.178 47.7715C143.098 47.7715 142.999 47.8211 142.919 47.8382C142.793 47.8706 142.534 47.903 142.23 47.9373C141.923 47.9525 138.717 47.9525 138.2 47.9525C137.974 47.9525 137.604 47.9373 137.185 47.9201C136.783 47.9201 136.316 47.903 135.882 47.903C135.638 47.903 135.524 47.9373 135.524 48.0497C135.524 48.1659 135.623 48.1963 135.802 48.1963C136.025 48.1963 136.299 48.2154 136.429 48.2478C136.96 48.3659 137.088 48.6269 137.12 49.1888C137.151 49.7165 137.151 50.1794 137.151 52.6844V55.5856ZM151.29 51.2481H151.338C151.629 51.5624 153.416 53.574 155.174 55.3551C156.847 57.0525 158.908 59.2127 159.925 60.2013C160.1 60.3842 160.294 60.5652 160.469 60.5652C160.614 60.5652 160.679 60.4166 160.679 60.0527L160.854 49.6479C160.873 48.7259 161.001 48.3792 161.454 48.2478C161.645 48.1964 161.776 48.1964 161.938 48.1964C162.129 48.1964 162.226 48.1487 162.226 48.0497C162.226 47.9201 162.066 47.903 161.856 47.903C161.064 47.903 160.454 47.9506 160.277 47.9506C159.94 47.9506 159.167 47.903 158.329 47.903C158.086 47.903 157.911 47.9201 157.911 48.0497C157.911 48.1487 157.974 48.1964 158.169 48.1964C158.395 48.1964 158.78 48.1964 159.022 48.2973C159.411 48.4611 159.555 48.7755 159.571 49.7794L159.731 57.1839H159.651C159.378 56.9191 157.201 54.5474 156.108 53.4235C153.755 51.0347 151.307 48.3983 151.113 48.183C150.838 47.8858 150.692 47.6725 150.517 47.6725C150.354 47.6725 150.307 47.903 150.307 48.2325L150.16 57.944C150.143 59.3784 150.08 59.8584 149.659 59.988C149.434 60.0546 149.143 60.0737 148.935 60.0737C148.773 60.0737 148.678 60.1042 148.678 60.2032C148.678 60.3499 148.821 60.3671 149.032 60.3671C149.869 60.3671 150.629 60.3194 150.774 60.3194C151.08 60.3194 151.728 60.3671 152.774 60.3671C152.999 60.3671 153.142 60.3347 153.142 60.2032C153.142 60.1042 153.048 60.0737 152.869 60.0737C152.612 60.0737 152.305 60.0546 152.031 59.9575C151.709 59.8413 151.5 59.4108 151.467 58.1249L151.29 51.2481ZM171.189 55.5856C171.189 57.1039 171.189 58.4069 171.107 59.0984C171.06 59.5784 170.964 59.9403 170.64 60.007C170.494 60.0394 170.303 60.0737 170.061 60.0737C169.867 60.0737 169.802 60.1213 169.802 60.2032C169.802 60.3175 169.915 60.3671 170.124 60.3671C170.77 60.3671 171.783 60.3194 172.153 60.3194C172.604 60.3194 173.62 60.3671 174.685 60.3671C174.862 60.3671 174.989 60.3175 174.989 60.2032C174.989 60.1213 174.909 60.0737 174.732 60.0737C174.49 60.0737 174.136 60.0394 173.911 60.007C173.425 59.9403 173.33 59.5784 173.282 59.1136C173.2 58.4069 173.2 57.1039 173.2 55.5856V48.8231L175.233 48.8745C176.668 48.9069 177.102 49.3679 177.135 49.7965L177.152 49.9794C177.165 50.2251 177.199 50.307 177.329 50.307C177.422 50.307 177.456 50.2099 177.472 50.0442C177.472 49.6174 177.519 48.4802 177.519 48.1354C177.519 47.8858 177.502 47.7887 177.392 47.7887C177.329 47.7887 177.199 47.8211 176.959 47.8706C176.715 47.903 176.361 47.9525 175.843 47.9525H169.465C168.93 47.9525 168.322 47.9201 167.853 47.8706C167.449 47.8382 167.288 47.6725 167.158 47.6725C167.063 47.6725 167.015 47.7716 166.966 47.9868C166.933 48.1163 166.626 49.6155 166.626 49.8803C166.626 50.0613 166.659 50.1432 166.773 50.1432C166.869 50.1432 166.918 50.0765 166.95 49.9451C166.983 49.8137 167.063 49.6155 167.223 49.3679C167.467 49.006 167.853 48.9221 168.787 48.8898L171.189 48.8231V55.5856Z" fill="#252525"/>
<path fill-rule="evenodd" clip-rule="evenodd" d="M20.5551 37.3155C20.7003 37.7441 20.7655 37.9251 20.9256 37.9251C21.1192 37.9251 21.1993 37.727 21.5065 37.0507C22.1972 35.5344 24.342 29.6824 24.6473 28.8404H24.6809L28.0321 37.1174C28.2723 37.727 28.3672 37.9251 28.5311 37.9251C28.7396 37.9251 28.8196 37.727 28.9965 37.1498C29.7878 34.6752 31.4783 29.4328 32.2211 27.3545C32.5581 26.4173 32.7368 25.7563 33.1222 25.6077C33.301 25.5429 33.5262 25.5258 33.6864 25.5258C33.8316 25.5258 33.9116 25.4763 33.9116 25.3601C33.9116 25.2629 33.7999 25.2324 33.6231 25.2324C33.0906 25.2324 32.398 25.2781 32.2863 25.2781C32.1392 25.2781 31.4634 25.2324 30.6107 25.2324C30.3686 25.2324 30.2402 25.2629 30.2402 25.3791C30.2402 25.4763 30.3519 25.5258 30.5139 25.5258C31.1413 25.5258 31.2846 25.7563 31.2846 26.0211C31.2846 26.2516 31.2381 26.5964 31.1245 26.9774C30.5604 28.9052 29.272 33.258 28.9816 34.3628H28.9332L25.5801 26.0554C25.3716 25.5277 25.2915 25.28 25.1147 25.28C24.9862 25.28 24.8726 25.4115 24.7125 25.8744L21.5866 34.4809H21.5363C21.2477 33.5551 19.7471 28.5604 19.4753 27.4707C19.2817 26.7297 19.1197 26.1697 19.1197 25.9544C19.1197 25.7734 19.1532 25.6591 19.2965 25.5925C19.4101 25.5258 19.5721 25.5258 19.7006 25.5258C19.8607 25.5258 19.991 25.5105 19.991 25.3791C19.991 25.28 19.8774 25.2324 19.6522 25.2324C18.7194 25.2324 18.0082 25.2781 17.8648 25.2781C17.7196 25.2781 16.8315 25.2324 15.9956 25.2324C15.7684 25.2324 15.6418 25.2629 15.6418 25.3791C15.6418 25.5105 15.7368 25.5258 15.8988 25.5258C16.044 25.5258 16.3642 25.5582 16.5411 25.6744C16.7664 25.8382 16.9451 26.2344 17.1387 26.8459L20.5551 37.3155ZM40.2455 32.9131C40.2455 34.4295 40.2455 35.7324 40.1654 36.4239C40.1021 36.9021 40.0202 37.2659 39.7 37.3307C39.5547 37.365 39.363 37.3993 39.1209 37.3993C38.9273 37.3993 38.8622 37.4469 38.8622 37.5307C38.8622 37.645 38.9757 37.6945 39.1842 37.6945C39.5063 37.6945 39.9252 37.6603 40.2957 37.6603C40.683 37.645 41.0349 37.645 41.2136 37.645C41.6977 37.645 42.1966 37.6603 42.8892 37.6945C43.5818 37.7098 44.4699 37.7441 45.6782 37.7441C46.287 37.7441 46.4322 37.7441 46.5458 37.3174C46.6258 36.9859 46.7562 35.8658 46.7562 35.4867C46.7562 35.321 46.7562 35.1895 46.6258 35.1895C46.5123 35.1895 46.4806 35.2543 46.4508 35.4372C46.3373 36.1115 46.1418 36.4582 45.7266 36.6582C45.3077 36.8545 44.63 36.8545 44.2111 36.8545C42.5671 36.8545 42.3083 36.6068 42.2767 35.4696C42.2618 34.9914 42.2767 33.4732 42.2767 32.9131V31.6101C42.2767 31.5111 42.2916 31.4444 42.3735 31.4444C42.7608 31.4444 44.3563 31.4616 44.6616 31.4958C45.2593 31.5606 45.4864 31.8083 45.5646 32.1397C45.613 32.3512 45.613 32.5664 45.6279 32.7322C45.6279 32.8141 45.6614 32.8807 45.7731 32.8807C45.9184 32.8807 45.9184 32.6998 45.9184 32.5664C45.9184 32.4521 45.9668 31.7911 45.9817 31.4616C46.0468 30.6234 46.1101 30.3586 46.1101 30.2595C46.1101 30.1586 46.0617 30.1281 45.9984 30.1281C45.9184 30.1281 45.8532 30.21 45.7415 30.3414C45.5981 30.5072 45.3561 30.5567 44.9707 30.5891C44.5983 30.6234 42.744 30.6234 42.3884 30.6234C42.2916 30.6234 42.2767 30.5567 42.2767 30.4405V26.2687C42.2767 26.1525 42.3083 26.1029 42.3884 26.1029C42.7123 26.1029 44.4047 26.1353 44.6803 26.1696C45.4864 26.2687 45.6447 26.4668 45.7582 26.764C45.8383 26.9602 45.8551 27.2402 45.8551 27.3564C45.8551 27.505 45.8867 27.5869 45.9984 27.5869C46.112 27.5869 46.1418 27.4878 46.1585 27.4059C46.192 27.2097 46.2237 26.4858 46.2404 26.3201C46.287 25.56 46.3671 25.3619 46.3671 25.2476C46.3671 25.1657 46.3522 25.099 46.2721 25.099C46.192 25.099 46.0952 25.1486 46.0133 25.1657C45.8867 25.1981 45.6298 25.2324 45.3244 25.2629C45.0173 25.28 41.8094 25.28 41.2937 25.28C41.0684 25.28 40.6979 25.2629 40.279 25.2476C39.8768 25.2476 39.4095 25.2324 38.9757 25.2324C38.7337 25.2324 38.622 25.2629 38.622 25.3791C38.622 25.4915 38.7169 25.5257 38.8938 25.5257C39.1209 25.5257 39.3928 25.5429 39.5212 25.5734C40.0537 25.6934 40.1822 25.9582 40.2157 26.5163C40.2455 27.044 40.2455 27.5069 40.2455 30.0119V32.9131ZM56.6349 30.01C56.6349 27.505 56.6349 27.0421 56.6666 26.5144C56.7001 25.9373 56.8267 25.6591 57.2624 25.5753C57.456 25.5429 57.7129 25.5258 57.8916 25.5258C58.0834 25.5258 58.1802 25.4915 58.1802 25.3791C58.1802 25.2629 58.0685 25.2324 57.8432 25.2324C57.2158 25.2324 56.0373 25.2781 55.6519 25.2781C55.2181 25.2781 54.2034 25.2324 53.4457 25.2324C53.2036 25.2324 53.0919 25.2629 53.0919 25.3791C53.0919 25.4915 53.1869 25.5258 53.3656 25.5258C53.576 25.5258 53.7678 25.5429 53.8962 25.5753C54.4287 25.6915 54.5553 25.9563 54.5888 26.5144C54.6205 27.0421 54.6205 27.505 54.6205 30.01V32.9132C54.6205 34.4295 54.6205 35.7325 54.5404 36.424C54.4753 36.9021 54.3971 37.266 54.075 37.3307C53.9297 37.365 53.7361 37.3993 53.496 37.3993C53.3005 37.3993 53.2372 37.4469 53.2372 37.5308C53.2372 37.6451 53.3489 37.6946 53.5574 37.6946C53.8813 37.6946 54.3002 37.6603 54.6689 37.6603C55.0561 37.6451 55.4099 37.6451 55.5886 37.6451C56.2477 37.6451 56.8267 37.6603 57.5528 37.6946C58.2789 37.7098 59.1167 37.7441 60.2766 37.7441C61.1144 37.7441 61.1945 37.6603 61.2913 37.2984C61.4198 36.8221 61.5315 35.5858 61.5315 35.4048C61.5315 35.2067 61.5166 35.1248 61.4049 35.1248C61.2745 35.1248 61.2429 35.2239 61.2261 35.3725C61.1945 35.6849 61.0008 36.1459 60.8072 36.3611C60.4051 36.8069 59.7776 36.8221 58.9231 36.8221C57.6645 36.8221 57.2475 36.7059 56.9719 36.4602C56.6349 36.163 56.6349 35.0258 56.6349 32.9132V30.01ZM70.5743 30.01C70.5743 27.505 70.5743 27.0421 70.6059 26.5144C70.6376 25.9373 70.7661 25.6591 71.2017 25.5753C71.3953 25.5429 71.6541 25.5258 71.831 25.5258C72.0246 25.5258 72.1214 25.4915 72.1214 25.3791C72.1214 25.2629 72.0097 25.2324 71.7826 25.2324C71.1552 25.2324 69.9767 25.2781 69.5913 25.2781C69.1575 25.2781 68.1428 25.2324 67.385 25.2324C67.143 25.2324 67.0313 25.2629 67.0313 25.3791C67.0313 25.4915 67.1262 25.5258 67.305 25.5258C67.5154 25.5258 67.7071 25.5429 67.8356 25.5753C68.3699 25.6915 68.4965 25.9563 68.53 26.5144C68.5617 27.0421 68.5617 27.505 68.5617 30.01V32.9132C68.5617 34.4295 68.5617 35.7325 68.4816 36.424C68.4165 36.9021 68.3364 37.266 68.0143 37.3307C67.8672 37.365 67.6755 37.3993 67.4334 37.3993C67.2398 37.3993 67.1765 37.4469 67.1765 37.5308C67.1765 37.6451 67.2882 37.6946 67.4967 37.6946C67.8207 37.6946 68.2396 37.6603 68.6101 37.6603C68.9955 37.6451 69.3492 37.6451 69.528 37.6451C70.187 37.6451 70.7661 37.6603 71.4922 37.6946C72.2164 37.7098 73.0542 37.7441 74.216 37.7441C75.0538 37.7441 75.1357 37.6603 75.2306 37.2984C75.3591 36.8221 75.4708 35.5858 75.4708 35.4048C75.4708 35.2067 75.4559 35.1248 75.3442 35.1248C75.2139 35.1248 75.1822 35.2239 75.1673 35.3725C75.1357 35.6849 74.9421 36.1459 74.7484 36.3611C74.3444 36.8069 73.717 36.8221 72.8624 36.8221C71.6057 36.8221 71.1868 36.7059 70.9113 36.4602C70.5743 36.163 70.5743 35.0258 70.5743 32.9132V30.01ZM82.5007 32.9132C82.5007 34.5133 82.5007 35.8163 82.4206 36.5097C82.3703 36.9859 82.2754 37.2679 81.9514 37.3345C81.8062 37.365 81.6144 37.3993 81.3724 37.3993C81.1788 37.3993 81.1155 37.4469 81.1155 37.5308C81.1155 37.6451 81.2272 37.6946 81.4357 37.6946C82.0818 37.6946 83.0964 37.647 83.4669 37.647C83.9026 37.647 84.9154 37.6946 85.9804 37.6946C86.1554 37.6946 86.2857 37.6451 86.2857 37.5308C86.2857 37.4469 86.2056 37.3993 86.0288 37.3993C85.7849 37.3993 85.4311 37.365 85.2058 37.3345C84.7218 37.2679 84.6101 36.9707 84.5598 36.5249C84.4965 35.8163 84.4965 34.5133 84.4965 32.9132V30.01C84.4965 27.505 84.4965 27.0421 84.53 26.5144C84.5598 25.9373 84.6901 25.6591 85.1258 25.5753C85.3194 25.5429 85.446 25.5258 85.6099 25.5258C85.77 25.5258 85.8668 25.4915 85.8668 25.3601C85.8668 25.2629 85.7383 25.2324 85.5279 25.2324C84.9154 25.2324 83.9659 25.2781 83.5638 25.2781C83.0964 25.2781 82.0818 25.2324 81.4692 25.2324C81.2104 25.2324 81.082 25.2629 81.082 25.3601C81.082 25.4915 81.1788 25.5258 81.3408 25.5258C81.5344 25.5258 81.7429 25.5429 81.9198 25.5925C82.2754 25.6744 82.4355 25.9563 82.469 26.5144C82.5007 27.0421 82.5007 27.505 82.5007 30.01V32.9132ZM94.703 28.5775H94.7514C95.0418 28.8899 96.8291 30.9015 98.5848 32.6826C100.262 34.38 102.323 36.5402 103.338 37.5307C103.513 37.7098 103.707 37.8927 103.885 37.8927C104.029 37.8927 104.092 37.7441 104.092 37.3822L104.269 26.9773C104.286 26.0534 104.416 25.7067 104.865 25.5753C105.058 25.5258 105.189 25.5258 105.349 25.5258C105.542 25.5258 105.639 25.4762 105.639 25.3791C105.639 25.2476 105.479 25.2324 105.269 25.2324C104.479 25.2324 103.867 25.2781 103.692 25.2781C103.353 25.2781 102.58 25.2324 101.741 25.2324C101.5 25.2324 101.324 25.2476 101.324 25.3791C101.324 25.4762 101.387 25.5258 101.58 25.5258C101.806 25.5258 102.193 25.5258 102.435 25.6248C102.82 25.7886 102.967 26.103 102.981 27.1069L103.144 34.5114H103.064C102.789 34.2485 100.616 31.875 99.5194 30.7529C97.168 28.3641 94.7197 25.7258 94.5261 25.5124C94.2524 25.2134 94.1053 25 93.9285 25C93.7665 25 93.7181 25.2324 93.7181 25.5601L93.5729 35.2734C93.5561 36.7059 93.4928 37.1859 93.0739 37.3174C92.8468 37.3841 92.5563 37.3993 92.3478 37.3993C92.1877 37.3993 92.0909 37.4317 92.0909 37.5307C92.0909 37.6793 92.2361 37.6946 92.4446 37.6946C93.2843 37.6946 94.042 37.6469 94.1873 37.6469C94.4945 37.6469 95.1386 37.6946 96.185 37.6946C96.4121 37.6946 96.5573 37.6603 96.5573 37.5307C96.5573 37.4317 96.4586 37.3993 96.2836 37.3993C96.0249 37.3993 95.7195 37.3841 95.444 37.2831C95.1219 37.1688 94.9134 36.7402 94.8799 35.4543L94.703 28.5775ZM123.043 34.7781C123.043 33.9513 123.043 33.2903 123.06 32.7989C123.075 32.2217 123.237 31.9397 123.671 31.8578C123.866 31.8235 123.978 31.8083 124.108 31.8083C124.22 31.8083 124.319 31.7759 124.319 31.6768C124.319 31.5454 124.205 31.513 123.995 31.513C123.464 31.513 122.609 31.5606 122.109 31.5606C121.626 31.5606 120.612 31.513 119.774 31.513C119.547 31.513 119.435 31.5454 119.435 31.6768C119.435 31.7759 119.532 31.8083 119.675 31.8083C119.904 31.8083 120.176 31.8235 120.306 31.8578C120.839 31.9721 120.982 32.2369 120.999 32.7989C121.016 33.2903 121.016 33.919 121.016 34.7438V36.2944C121.016 36.5726 120.951 36.7878 120.709 36.904C120.321 37.085 119.757 37.085 119.338 37.085C115.939 37.085 113.729 34.4314 113.729 30.8863C113.729 28.8575 114.31 27.6212 115.211 26.8459C116.341 25.8896 117.517 25.8229 118.404 25.8229C120.224 25.8229 121.515 26.5811 121.997 27.1069C122.416 27.5698 122.496 28.0974 122.542 28.4784C122.559 28.6099 122.591 28.6918 122.703 28.6918C122.833 28.6918 122.883 28.6099 122.883 28.3451C122.883 26.2839 122.995 25.8229 122.995 25.6401C122.995 25.5277 122.963 25.461 122.77 25.4458C122.399 25.4267 121.837 25.3296 121.5 25.2629C121.176 25.1962 119.757 25 118.644 25C117.292 25 115.859 25.1143 114.31 26.0706C112.844 26.9773 111.508 28.8251 111.508 31.4635C111.508 36.0144 115.004 37.9251 118.953 37.9251C120.208 37.9251 121.788 37.746 122.833 37.1859C123.026 37.0697 123.043 37.0374 123.043 36.5916V34.7781ZM133.875 32.9131C133.875 34.4314 133.875 35.7325 133.793 36.4259C133.745 36.904 133.65 37.2679 133.328 37.3345C133.182 37.365 132.989 37.3993 132.747 37.3993C132.553 37.3993 132.488 37.4469 132.488 37.5307C132.488 37.645 132.602 37.6946 132.812 37.6946C133.456 37.6946 134.469 37.6469 134.839 37.6469C135.29 37.6469 136.307 37.6946 137.37 37.6946C137.548 37.6946 137.675 37.645 137.675 37.5307C137.675 37.4469 137.595 37.3993 137.418 37.3993C137.176 37.3993 136.822 37.365 136.597 37.3345C136.113 37.2679 136.016 36.904 135.968 36.443C135.888 35.7325 135.888 34.4314 135.888 32.9131V26.1525L137.919 26.202C139.354 26.2344 139.788 26.6973 139.82 27.124L139.836 27.305C139.853 27.5545 139.885 27.6364 140.013 27.6364C140.11 27.6364 140.142 27.5355 140.157 27.3717C140.157 26.945 140.205 25.8096 140.205 25.4629C140.205 25.2134 140.19 25.1162 140.077 25.1162C140.013 25.1162 139.885 25.1486 139.643 25.1981C139.403 25.2324 139.047 25.28 138.531 25.28H132.151C131.619 25.28 131.006 25.2476 130.541 25.1981C130.137 25.1657 129.975 25 129.846 25C129.749 25 129.701 25.0991 129.652 25.3143C129.621 25.4458 129.315 26.943 129.315 27.2078C129.315 27.3869 129.345 27.4707 129.459 27.4707C129.556 27.4707 129.602 27.4059 129.636 27.2726C129.669 27.1412 129.749 26.943 129.911 26.6973C130.153 26.3354 130.541 26.2515 131.473 26.2173L133.875 26.1525V32.9131ZM151.89 37.9251C155.984 37.9251 158.559 34.9419 158.559 31.1644C158.559 27.3869 156.064 25 152.05 25C147.217 25 145.396 28.6442 145.396 31.4616C145.396 34.3819 147.265 37.9251 151.89 37.9251ZM152.567 37.104C149.471 37.104 147.619 34.3819 147.619 30.9511C147.619 26.8459 149.728 25.7887 151.583 25.7887C154.226 25.7887 156.308 28.0822 156.308 31.7778C156.308 36.5421 153.696 37.104 152.567 37.104ZM166.85 28.5775H166.9C167.19 28.8899 168.976 30.9015 170.733 32.6826C172.407 34.38 174.47 36.5402 175.483 37.5307C175.66 37.7098 175.853 37.8927 176.03 37.8927C176.173 37.8927 176.239 37.7441 176.239 37.3822L176.417 26.9773C176.43 26.0534 176.561 25.7067 177.011 25.5753C177.205 25.5258 177.335 25.5258 177.495 25.5258C177.689 25.5258 177.786 25.4762 177.786 25.3791C177.786 25.2476 177.626 25.2324 177.415 25.2324C176.628 25.2324 176.013 25.2781 175.836 25.2781C175.499 25.2781 174.725 25.2324 173.889 25.2324C173.649 25.2324 173.47 25.2476 173.47 25.3791C173.47 25.4762 173.535 25.5258 173.729 25.5258C173.954 25.5258 174.34 25.5258 174.582 25.6248C174.967 25.7886 175.112 26.103 175.129 27.1069L175.289 34.5114H175.209C174.935 34.2485 172.761 31.875 171.666 30.7529C169.315 28.3641 166.866 25.7258 166.673 25.5124C166.395 25.2134 166.252 25 166.073 25C165.913 25 165.863 25.2324 165.863 25.5601L165.719 35.2734C165.703 36.7059 165.639 37.1859 165.221 37.3174C164.995 37.3841 164.705 37.3993 164.494 37.3993C164.334 37.3993 164.238 37.4317 164.238 37.5307C164.238 37.6793 164.381 37.6946 164.591 37.6946C165.429 37.6946 166.185 37.6469 166.334 37.6469C166.639 37.6469 167.285 37.6946 168.332 37.6946C168.557 37.6946 168.702 37.6603 168.702 37.5307C168.702 37.4317 168.603 37.3993 168.428 37.3993C168.17 37.3993 167.866 37.3841 167.591 37.2831C167.27 37.1688 167.06 36.7402 167.026 35.4543L166.85 28.5775Z" fill="#252525"/>
</svg>
