<svg width="77" height="18" viewBox="0 0 77 18" fill="none" xmlns="http://www.w3.org/2000/svg">
<path d="M7.452 2.13C8.484 2.13 9.42 2.328 10.26 2.724C11.112 3.12 11.82 3.678 12.384 4.398C12.948 5.106 13.338 5.922 13.554 6.846H12.132C11.916 6.162 11.592 5.568 11.16 5.064C10.728 4.56 10.2 4.164 9.576 3.876C8.952 3.588 8.256 3.444 7.488 3.444C6.492 3.444 5.604 3.684 4.824 4.164C4.044 4.644 3.432 5.286 2.988 6.09C2.544 6.894 2.322 7.764 2.322 8.7C2.322 9.636 2.544 10.506 2.988 11.31C3.432 12.114 4.044 12.756 4.824 13.236C5.604 13.716 6.492 13.956 7.488 13.956C8.664 13.956 9.66 13.644 10.476 13.02C11.292 12.384 11.85 11.538 12.15 10.482H13.572C13.368 11.406 12.984 12.234 12.42 12.966C11.856 13.686 11.148 14.25 10.296 14.658C9.444 15.066 8.496 15.27 7.452 15.27C6.216 15.27 5.1 14.976 4.104 14.388C3.108 13.8 2.328 13.002 1.764 11.994C1.2 10.986 0.918 9.888 0.918 8.7C0.918 7.512 1.2 6.414 1.764 5.406C2.328 4.398 3.108 3.6 4.104 3.012C5.1 2.424 6.216 2.13 7.452 2.13ZM30.1077 15H28.6137L24.0417 3.642H24.4017L19.8117 15H18.3537L23.4297 2.4H25.0317L30.1077 15ZM39.7178 2.13C40.5338 2.13 41.2718 2.286 41.9318 2.598C42.6038 2.898 43.1558 3.306 43.5878 3.822C44.0198 4.338 44.3138 4.92 44.4698 5.568H43.0838C42.8198 4.884 42.3998 4.35 41.8238 3.966C41.2598 3.57 40.5578 3.372 39.7178 3.372C39.1298 3.372 38.6078 3.474 38.1518 3.678C37.7078 3.87 37.3598 4.14 37.1078 4.488C36.8558 4.836 36.7298 5.226 36.7298 5.658C36.7298 6.246 36.9518 6.744 37.3958 7.152C37.8518 7.56 38.5238 7.836 39.4118 7.98L40.9778 8.25C42.1538 8.442 43.0598 8.832 43.6958 9.42C44.3438 9.996 44.6678 10.722 44.6678 11.598C44.6678 12.282 44.4698 12.906 44.0738 13.47C43.6898 14.022 43.1438 14.46 42.4358 14.784C41.7398 15.108 40.9238 15.27 39.9878 15.27C39.0998 15.27 38.3018 15.12 37.5938 14.82C36.8858 14.508 36.2978 14.076 35.8298 13.524C35.3738 12.96 35.0618 12.324 34.8938 11.616H36.2618C36.4418 12.108 36.7058 12.534 37.0538 12.894C37.4018 13.254 37.8218 13.536 38.3138 13.74C38.8058 13.932 39.3638 14.028 39.9878 14.028C40.6598 14.028 41.2418 13.926 41.7338 13.722C42.2378 13.506 42.6218 13.218 42.8858 12.858C43.1498 12.498 43.2818 12.09 43.2818 11.634C43.2818 11.022 43.0538 10.548 42.5978 10.212C42.1418 9.876 41.4578 9.63 40.5458 9.474L39.0878 9.222C37.8278 9.006 36.8918 8.592 36.2798 7.98C35.6678 7.356 35.3618 6.606 35.3618 5.73C35.3618 5.022 35.5538 4.398 35.9378 3.858C36.3218 3.306 36.8438 2.88 37.5038 2.58C38.1758 2.28 38.9138 2.13 39.7178 2.13ZM54.7253 2.13C55.5413 2.13 56.2793 2.286 56.9393 2.598C57.6113 2.898 58.1633 3.306 58.5953 3.822C59.0273 4.338 59.3213 4.92 59.4773 5.568H58.0913C57.8273 4.884 57.4073 4.35 56.8313 3.966C56.2673 3.57 55.5653 3.372 54.7253 3.372C54.1373 3.372 53.6153 3.474 53.1593 3.678C52.7153 3.87 52.3673 4.14 52.1153 4.488C51.8633 4.836 51.7373 5.226 51.7373 5.658C51.7373 6.246 51.9593 6.744 52.4033 7.152C52.8593 7.56 53.5313 7.836 54.4193 7.98L55.9853 8.25C57.1613 8.442 58.0673 8.832 58.7033 9.42C59.3513 9.996 59.6753 10.722 59.6753 11.598C59.6753 12.282 59.4773 12.906 59.0813 13.47C58.6973 14.022 58.1513 14.46 57.4433 14.784C56.7473 15.108 55.9313 15.27 54.9953 15.27C54.1073 15.27 53.3093 15.12 52.6013 14.82C51.8933 14.508 51.3053 14.076 50.8373 13.524C50.3813 12.96 50.0693 12.324 49.9013 11.616H51.2693C51.4493 12.108 51.7133 12.534 52.0613 12.894C52.4093 13.254 52.8293 13.536 53.3213 13.74C53.8133 13.932 54.3713 14.028 54.9953 14.028C55.6673 14.028 56.2493 13.926 56.7413 13.722C57.2453 13.506 57.6293 13.218 57.8933 12.858C58.1573 12.498 58.2893 12.09 58.2893 11.634C58.2893 11.022 58.0613 10.548 57.6053 10.212C57.1493 9.876 56.4653 9.63 55.5533 9.474L54.0953 9.222C52.8353 9.006 51.8993 8.592 51.2873 7.98C50.6753 7.356 50.3693 6.606 50.3693 5.73C50.3693 5.022 50.5613 4.398 50.9453 3.858C51.3293 3.306 51.8513 2.88 52.5113 2.58C53.1833 2.28 53.9213 2.13 54.7253 2.13ZM76.3431 15H74.8491L70.2771 3.642H70.6371L66.0471 15H64.5891L69.6651 2.4H71.2671L76.3431 15Z" fill="#F8F9FA"/>
</svg>
