<svg width="153" height="48" viewBox="0 0 153 48" xmlns="http://www.w3.org/2000/svg">
  <title>fidelity_international_rgb_fc</title>
  <g fill="none" fill-rule="evenodd">
    <path d="M140.893 38.82h4.486l7.414-19.668h-4.713l-3.25 10.129h-.057l-3.253-10.13h-4.704l5.75 15.313zm-5.323-7.722c-.262.06-.5.09-.862.09-1.105 0-1.4-.327-1.4-1.013v-7.75h2.262v-3.273h-2.262V14.36h-4.295v4.79h-1.963v3.275h1.963v8.226c0 3.306 1.7 3.99 4.502 3.99.69 0 1.372-.091 2.055-.178v-3.366zm-14.473 3.366V19.152h4.298v15.312h-4.298zm-.356-21.596c0-1.257 1.073-2.532 2.506-2.532 1.28 0 2.5 1.1 2.5 2.47 0 1.307-1.129 2.53-2.5 2.53-1.433 0-2.506-1.28-2.506-2.468zm-6.033-1.592v23.188h4.297V10.876h-4.297zm-1.555 16.754h-11.207c.176 1.785 1.278 3.578 3.575 3.578 1.316 0 2.475-.628 3.071-1.82l4.175.323c-1.043 3.135-3.849 4.77-7.454 4.77-4.624 0-7.839-3.155-7.839-8.041 0-4.946 3.215-8.104 7.84-8.104 4.622 0 7.84 3.158 7.84 8.104v1.19zm-4.288-2.74c-.155-1.49-1.287-3.275-3.344-3.275-2.235 0-3.339 1.55-3.575 3.276h6.92zm-16.979 9.174V32.32h-.059c-1.224 1.817-3.012 2.562-4.98 2.562-4.262 0-7.156-3.842-7.156-8.103 0-4.257 2.688-8.043 7.095-8.043 1.97 0 3.43.624 4.862 2.502h.061V10.876h4.288v23.589h-4.11zm-3.964-12.09c-2.473 0-3.757 2.204-3.757 4.527 0 2.41 1.342 4.528 3.874 4.528 2.444 0 3.816-2.026 3.816-4.59 0-2.3-1.252-4.465-3.933-4.465zM73.31 34.497V19.266h4.741v15.23H73.31zm-.135-21.63c0-1.256 1.073-2.531 2.502-2.531 1.283 0 2.501 1.1 2.501 2.47 0 1.307-1.126 2.53-2.5 2.53-1.43 0-2.503-1.28-2.503-2.468zm-16.451 10.66v2.667h2.253l.001 8.357h4.738v-8.357h4.475l1.185-2.667h-5.66V21.97h6.356l1.187-2.666h-7.543v-4.475h7.543v-3.891H58.977v8.366h-2.253v2.666h2.253v1.557zm88.516 23.3v1.057h-3.06v-5.385h1.308v4.328zm-9.566.282l-.234.775h-1.396l1.775-5.385h1.663l1.77 5.385h-1.438l-.234-.775h-1.906zm.953-3.067l-.63 2.009h1.26l-.63-2.01zm-8.797 3.842h-1.308v-5.385h1.307l1.963 3.028v-3.028h1.307v5.385h-1.308l-1.962-3.068zm-4.174-2.681c0 1.542-1.259 2.785-2.817 2.785-1.607 0-2.881-1.227-2.881-2.777 0-.783.315-1.51.904-2.067.515-.484 1.218-.75 2.009-.75 1.591 0 2.785 1.203 2.785 2.81zm-4.367-.008c0 .887.67 1.582 1.525 1.582.839 0 1.518-.695 1.518-1.558 0-.92-.646-1.613-1.509-1.613-.881 0-1.534.676-1.534 1.59zm-5.664 2.689h1.309V42.5h-1.309zm-4.705 0h-1.307v-4.328h-1.244v-1.057h3.787v1.057h-1.235zm-8.314-.775l-.235.775h-1.396l1.776-5.385h1.664l1.768 5.385h-1.438l-.234-.775h-1.905zm.952-3.067l-.63 2.009h1.26l-.63-2.01zm-8.739 3.842h-1.307v-5.385h1.307l1.962 3.028v-3.028h1.308v5.385H94.78l-1.962-3.068zm-7.279 0h-1.31v-5.385h1.744c.711 0 1.227.13 1.582.404.372.29.582.776.582 1.364 0 .816-.347 1.364-1.042 1.639l1.187 1.978h-1.566L85.54 45.8v2.083zm.42-2.817c.54 0 .854-.274.854-.742 0-.454-.306-.752-.775-.752h-.5v1.494h.42zm-6.788-.413h1.776v1.058h-1.776v1.114h1.776v1.057h-3.084v-5.385h3.084v1.057h-1.776zm-5.367 3.23h-1.308v-4.328h-1.243v-1.057h3.786v1.057h-1.235zm-8.765 0h-1.31v-5.385h1.309L67 45.527v-3.028h1.308v5.385h-1.307l-1.962-3.068zm-6.062 0h1.308V42.5h-1.308z" fill="#006193"/>
    <path fill="#B72F2A" d="M0 48h48V0H0z"/>
    <path fill="#FFF" d="M32.913 15.496v-4.551h-14.32v9.765h-3.089v3.106h3.09v2.457h-3.09v3.11h3.09v9.56h5.523v-9.56h4.902l1.388-3.11h-6.29v-2.457h7.413l1.383-3.106h-8.796v-5.214z"/>
  </g>
</svg>
