<svg width="383" height="36" viewBox="0 0 383 36" fill="none" xmlns="http://www.w3.org/2000/svg">
<path fill-rule="evenodd" clip-rule="evenodd" d="M16.2003 4.5C16.69 5.19722 16.6977 5.67268 16.0222 6.14267C13.7051 7.17682 11.3872 8.21115 9.07015 9.24549C9.18887 9.24549 9.30777 9.24549 9.42649 9.24549C11.803 10.3404 14.1803 11.4357 16.5568 12.5308C16.5568 18.5532 16.5568 24.5776 16.5568 30.6C12.3214 29.9955 2.78456 19.8841 5.32653 14.1735C5.50479 14.1125 5.68323 14.0518 5.86131 13.9908C6.15847 14.1733 6.45562 14.356 6.75278 14.5385C6.79378 20.3202 10.4987 26.8001 14.7744 28.0449C14.8338 27.984 14.8931 27.9232 14.9525 27.8622C14.9525 22.9957 14.9525 18.1274 14.9525 13.2609C12.1601 12.0442 9.36695 10.8272 6.57452 9.61053C6.7526 9.12375 6.93104 8.63697 7.10912 8.15037C10.1393 6.93371 13.1703 5.71667 16.2003 4.5ZM17.2699 4.68252C19.8507 4.87581 25.8365 7.12188 27.2525 8.88045C26.7782 10.8396 21.391 12.4943 19.4092 12.8959C19.4685 13.0174 19.5279 13.1392 19.5872 13.2609C21.978 13.8227 27.4927 15.1596 28.6784 17.0938C26.8912 22.7975 23.4528 29.6843 17.2699 30.6C17.2699 30.1134 17.2699 29.6266 17.2699 29.1398C20.3372 28.1844 28.0725 20.9557 26.0047 17.0938C23.0934 16.0595 20.1812 15.0251 17.2699 13.9908C17.2699 13.4434 17.2699 12.8957 17.2699 12.3481C19.7653 11.2532 22.2615 10.1579 24.7569 9.06279C22.7709 8.54243 17.4077 7.09596 17.2699 4.68252ZM41.8698 12.7132C39.6119 12.7741 37.3536 12.8349 35.0959 12.8959C35.0269 14.131 34.917 15.3263 35.6305 15.8162C37.5468 16.6877 40.0649 16.705 41.6913 17.6412C42.3149 19.2815 42.5899 21.2965 42.048 23.2992C40.5854 25.323 37.1698 25.0662 33.6697 24.9419C32.9809 24.1901 32.6272 24.1992 32.6001 22.5692C34.9769 22.5084 37.3539 22.4476 39.7307 22.3868C39.9364 21.0594 39.8941 20.0188 39.374 19.1015C37.2115 18.8686 33.7581 18.4567 32.9568 16.7288C31.9687 15.0372 32.7957 12.0061 33.4914 10.8882C35.7605 10.1429 40.09 9.95476 41.8698 11.2532C41.8698 11.7398 41.8698 12.2266 41.8698 12.7132ZM99.8039 22.5692C102.062 22.5084 104.32 22.4476 106.578 22.3868C106.578 21.1702 106.578 19.9531 106.578 18.7365C104.855 18.6755 103.131 18.6147 101.408 18.5538C101.408 17.7631 101.408 16.9719 101.408 16.1812C103.137 16.2316 105.442 16.3666 106.578 15.8162C106.578 14.8428 106.578 13.8691 106.578 12.8959C104.379 12.8349 102.18 12.7741 99.9821 12.7132C99.9782 8.77696 107.001 10.1626 108.717 11.4357C109.47 13.8263 109.238 15.6495 108.004 17.2761C109.124 18.6711 110.256 22.9379 108.004 24.2118C106.732 25.3383 103.213 25.0011 100.873 24.9419C100.184 24.1901 99.8308 24.1992 99.8039 22.5692ZM53.9912 20.1964C51.7335 20.2574 49.4752 20.3182 47.2174 20.3791C47.2769 20.9265 47.3363 21.4742 47.3956 22.0216C47.5145 22.2651 47.6334 22.5084 47.7523 22.7519C49.7128 22.7519 51.6742 22.7519 53.6348 22.7519C53.6348 23.2385 53.6348 23.7252 53.6348 24.2118C51.5528 25.4176 46.2647 25.5068 45.2567 23.2992C44.4043 21.688 44.5884 15.9885 45.6132 14.9036C46.6462 13.249 52.5944 13.2795 53.6348 14.9036C54.2773 15.9063 54.075 18.6058 53.9912 20.1964ZM65.0434 15.9985C63.2191 15.9483 60.5898 15.7603 59.3391 16.3635C59.2901 18.3659 59.0543 21.3525 59.6955 22.7519C61.4779 22.7519 63.261 22.7519 65.0434 22.7519C65.0434 23.2385 65.0434 23.7252 65.0434 24.2118C64.6869 24.4553 64.3302 24.6986 63.9737 24.9419C61.1428 25.0334 58.9291 24.9311 57.3781 23.8468C56.5595 21.2397 56.1089 15.312 58.4477 14.1735C59.4461 13.6183 63.3933 13.4274 64.3302 14.1735C64.568 14.2951 64.8056 14.4168 65.0434 14.5385C65.0434 15.0251 65.0434 15.5119 65.0434 15.9985ZM67.5389 13.8085C68.3708 13.8085 69.2027 13.8085 70.0345 13.8085C69.9862 16.446 69.5024 20.7871 70.3912 22.7519C71.6982 22.7519 73.0057 22.7519 74.3127 22.7519C74.3127 19.771 74.3127 16.7892 74.3127 13.8085C75.1446 13.8085 75.9766 13.8085 76.8083 13.8085C76.8083 17.5192 76.8083 21.2311 76.8083 24.9419C73.4799 25.0282 69.9676 25.1582 68.0738 23.8468C67.3508 21.2724 67.5189 17.353 67.5389 13.8085ZM85.8995 15.9985C84.6519 16.0595 83.4039 16.1202 82.1561 16.1812C82.1561 19.1011 82.1561 22.022 82.1561 24.9419C81.3839 24.9419 80.6111 24.9419 79.8389 24.9419C79.7813 21.8636 79.174 16.4449 80.3737 14.3558C81.637 13.966 83.1165 13.7866 85.0084 13.8085C85.3054 14.1125 85.6025 14.4168 85.8995 14.7209C85.8995 15.1469 85.8995 15.5727 85.8995 15.9985ZM96.9517 20.1964C94.6939 20.2574 92.4356 20.3182 90.1777 20.3791C90.2373 20.9265 90.2966 21.4742 90.356 22.0216C90.4749 22.2651 90.5938 22.5084 90.7127 22.7519C92.6732 22.7519 94.6346 22.7519 96.5952 22.7519C96.6011 23.6663 96.6188 23.8276 96.2387 24.2118C94.6745 26.0792 88.941 24.9401 88.2169 23.2992C87.3202 21.7431 87.5835 15.9505 88.5736 14.9036C89.7873 12.9716 94.8782 13.7847 96.417 14.7209C96.8931 16.2542 96.9797 18.0951 96.9517 20.1964ZM47.2174 18.3712C48.7028 18.3712 50.1886 18.3712 51.6738 18.3712C51.7057 17.3201 51.6047 16.5955 51.3175 15.9985C50.0103 16.0595 48.7028 16.1202 47.3956 16.1812C47.3363 16.9111 47.2769 17.6413 47.2174 18.3712ZM90.1777 18.3712C91.6632 18.3712 93.1489 18.3712 94.6344 18.3712C94.5748 17.6413 94.5155 16.9111 94.4561 16.1812C93.4112 15.824 90.8959 15.7687 90.356 16.5462C90.2966 17.1544 90.2373 17.7629 90.1777 18.3712Z" fill="white"/>
<path fill-rule="evenodd" clip-rule="evenodd" d="M159.5 18.4531C159.5 24.6663 154.463 29.7031 148.25 29.7031C142.037 29.7031 137 24.6663 137 18.4531C137 12.2399 142.037 7.20312 148.25 7.20312C154.463 7.20312 159.5 12.2399 159.5 18.4531ZM148.033 10.0523L140.636 23.2885C140.526 23.4853 140.712 23.7157 140.928 23.6494L150.75 20.4988L155.676 23.622C155.895 23.7736 156.167 23.5236 156.035 23.2925L148.468 10.0502C148.372 9.88131 148.128 9.88247 148.033 10.0523ZM173.953 12.6039H170.441L165.332 23.2065H167.78C168.017 22.7292 168.255 22.2518 168.492 21.7745C168.609 21.5378 168.727 21.3012 168.845 21.0646C169.914 20.5696 171.982 20.6858 173.718 20.7832C174.27 20.8142 174.788 20.8433 175.231 20.8503L175.398 21.1866C175.697 21.7885 175.996 22.3905 176.295 22.9922L176.614 23.2065H179.062L173.953 12.6039ZM192.366 23.2065V12.6039H190.131L190.024 19.9936L183.106 12.6039H180.658L180.552 12.8181C181.13 14.8408 180.992 17.7403 180.865 20.3999C180.817 21.3875 180.772 22.3422 180.765 23.2065H183L183.106 15.8168C184.31 16.5076 185.249 17.743 186.21 19.0083C187.782 21.0768 189.415 23.2254 192.366 23.2065ZM198.419 12.5965C198.172 12.5991 197.928 12.6017 197.688 12.6039C197.448 12.7071 197.204 12.78 196.969 12.8504C196.456 13.0045 195.981 13.1468 195.665 13.5678C194.818 14.7374 194.625 20.6587 195.452 22.0284C196.589 24.0048 204.788 23.5691 206.841 22.5639L206.202 21.2788C205.662 21.2989 204.972 21.3674 204.216 21.4424C201.953 21.667 199.097 21.9504 197.9 21.1716C196.942 20.4384 197.338 15.3681 197.9 14.5317C199.861 14.049 202.628 14.272 204.865 14.4523C205.22 14.4808 205.56 14.5083 205.883 14.5317L206.202 12.9252C204.078 12.5365 201.07 12.5684 198.419 12.5965ZM210.991 23.2065V12.6039H208.756L208.65 23.0994L210.991 23.2065ZM216.419 12.7111L214.078 12.6039C214.08 13.4966 214.106 14.4376 214.133 15.3942C214.206 18.0353 214.282 20.7961 213.865 22.9922V23.0994H224.295L224.402 22.8852L223.763 21.493H216.419V12.7111ZM228.446 12.7111L226.105 12.6039L225.998 22.9922V23.0994L228.34 23.2065L228.446 12.7111ZM238.557 12.6039H235.045L229.83 22.9922V23.0994L232.278 23.2065L233.555 20.8503H239.941L241.005 23.2065H241.111H243.666L238.557 12.6039ZM169.696 19.1369L172.144 14.2104L174.698 19.1369H169.696ZM234.3 19.1369L236.641 14.2104C237.566 14.8808 238.398 17.0023 238.947 18.4018C239.038 18.6343 239.121 18.8469 239.196 19.0297V19.1369H234.3Z" fill="white"/>
<path fill-rule="evenodd" clip-rule="evenodd" d="M297.822 6.6854L286.651 4.5H286.231L275.061 6.6854C274.717 6.75327 274.5 7.0519 274.5 7.41839L275.261 16.8794C276.22 23.9561 280.778 29.2453 286.295 30.7112H286.575C292.028 29.2588 296.786 24.0731 297.609 16.8794L298.369 7.41839C298.382 7.0519 298.178 6.75327 297.822 6.6854ZM286.258 6.27862H286.622L296.303 8.17263C296.612 8.23145 296.789 8.49026 296.778 8.80789L296.119 17.0074C295.406 23.242 291.282 27.7363 286.556 28.995H286.313C281.532 27.7245 277.582 23.1406 276.751 17.0074L276.091 8.80789C276.091 8.49026 276.279 8.23145 276.577 8.17263L286.258 6.27862ZM293.687 11.4134C293.692 11.2649 291.319 10.6736 286.567 9.63946H286.311C281.559 10.6736 279.183 11.2649 279.183 11.4134L279.645 17.1642C280.228 21.4657 282.997 24.6807 286.35 25.5718H286.52C289.834 24.6889 292.725 21.5368 293.225 17.1642L293.687 11.4134ZM286.399 12.0382H288.894V14.1491H286.399C285.618 14.1491 284.921 14.4592 284.307 15.0793C283.983 15.4252 283.749 15.8247 283.604 16.2779H291.338V17.5659C291.305 18.4723 291.065 19.31 290.618 20.0793C290.172 20.8485 289.575 21.4597 288.827 21.9129C288.068 22.3661 287.259 22.5927 286.399 22.5927H283.905V20.4639H286.399C286.79 20.4639 287.167 20.3864 287.529 20.2313C287.892 20.0763 288.213 19.8497 288.492 19.5515C288.816 19.2057 289.045 18.8181 289.179 18.3888H281.461V17.2797C281.461 16.3375 281.684 15.4639 282.13 14.6589C282.577 13.8539 283.179 13.2129 283.938 12.7359C284.686 12.2708 285.507 12.0382 286.399 12.0382ZM306.419 19.6568H303.94V20.6935C303.94 23.3198 305.288 24.6329 307.983 24.6329C309.261 24.6329 310.243 24.2902 310.929 23.6048C311.614 22.9195 311.957 21.9692 311.957 20.754C311.957 19.8325 311.721 19.0895 311.248 18.5251C310.782 17.955 309.987 17.3042 308.864 16.5727C307.822 15.8759 307.165 15.3978 306.894 15.1387C306.629 14.8737 306.497 14.5138 306.497 14.0588C306.497 13.2295 306.946 12.8148 307.845 12.8148C308.801 12.8148 309.279 13.4282 309.279 14.6549V15.0955H311.68C311.68 13.5923 311.387 12.5038 310.799 11.8299C310.217 11.1503 309.233 10.8105 307.845 10.8105C305.241 10.8105 303.94 11.9768 303.94 14.3093C303.94 15.1617 304.193 15.8931 304.7 16.5036C305.213 17.1141 305.961 17.7304 306.946 18.3524C307.896 18.9513 308.542 19.4236 308.881 19.7691C309.227 20.1147 309.4 20.561 309.4 21.1082C309.4 22.1218 308.93 22.6286 307.992 22.6286C306.943 22.6286 306.419 21.8943 306.419 20.4257V19.6568ZM321.866 19.6568H319.386C319.386 20.7453 319.283 21.5142 319.075 21.9634C318.868 22.4069 318.545 22.6286 318.108 22.6286C317.532 22.6286 317.091 22.4184 316.786 21.998C316.486 21.5776 316.337 20.8721 316.337 19.8815V15.5793C316.337 13.7363 316.921 12.8148 318.09 12.8148C318.557 12.8148 318.874 13.0135 319.041 13.4109C319.208 13.8083 319.291 14.4159 319.291 15.2337H321.727C321.727 13.7248 321.428 12.6103 320.829 11.8904C320.23 11.1705 319.257 10.8105 317.909 10.8105C316.475 10.8105 315.427 11.2166 314.764 12.0286C314.108 12.8349 313.78 14.2834 313.78 16.374V19.1817C313.78 21.1283 314.093 22.525 314.721 23.3716C315.355 24.2124 316.484 24.6329 318.108 24.6329C319.484 24.6329 320.455 24.1894 321.019 23.3025C321.583 22.4155 321.866 21.2003 321.866 19.6568ZM325.986 11.087L322.807 24.3564H325.477L326.142 20.97H329.027L329.684 24.3564H332.353L329.312 11.087H325.986ZM328.647 19.0262H326.531L327.645 13.575L328.647 19.0262ZM336.172 11.087H333.692V24.3564H340.733V22.4127H336.172V11.087ZM342.461 11.087V24.3564H349.502V22.4127H344.94V18.3437H349.156V16.4H344.94V13.0308H349.502V11.087H342.461ZM351.342 11.087V24.3564H355.756C358.014 24.3564 359.143 23.026 359.143 20.3652C359.143 18.5338 358.486 17.5 357.173 17.2638C358.256 16.8434 358.797 15.919 358.797 14.4907C358.797 12.2216 357.74 11.087 355.627 11.087H351.342ZM355.074 22.4127H353.821V18.4128H354.806C355.445 18.4128 355.9 18.5453 356.171 18.8102C356.447 19.0751 356.586 19.582 356.586 20.3307C356.586 21.0851 356.47 21.6208 356.24 21.9375C356.01 22.2543 355.621 22.4127 355.074 22.4127ZM354.651 16.4691H353.821V13.0308H355.057C355.563 13.0308 355.9 13.1603 356.067 13.4195C356.234 13.6729 356.318 14.0588 356.318 14.5771C356.318 15.3316 356.206 15.8355 355.981 16.0889C355.762 16.3424 355.319 16.4691 354.651 16.4691ZM363.739 11.087H361.259V24.3564H363.739V11.087ZM373.501 11.087H365.216V13.0308H368.119V24.3564H370.598V13.0308H373.501V11.087Z" fill="white"/>
</svg>
