<?xml version="1.0" encoding="utf-8"?>
<svg xmlns="http://www.w3.org/2000/svg" fill="#836E54" height="16" viewBox="0 0 16 16" width="16">
  <path d="M 1.019 2.612 L 1.000 2.630 L 1.000 3.537 L 1.000 4.442 L 4.447 7.886 L 7.892 11.331 L 7.926 11.348 L 7.960 11.365 L 8.011 11.365 L 8.062 11.365 L 11.530 7.896 L 15.000 4.427 L 15.000 3.535 L 15.000 2.644 L 14.972 2.620 L 14.943 2.593 L 14.910 2.593 L 14.878 2.593 L 12.981 4.491 L 11.085 6.390 L 9.558 4.863 L 8.031 3.336 L 8.000 3.336 L 7.969 3.336 L 7.534 3.772 L 7.101 4.210 L 6.015 5.308 L 4.928 6.405 L 3.022 4.499 L 1.116 2.593 L 1.076 2.593 L 1.037 2.593 L 1.019 2.612 Z M 9.063 6.348 L 10.081 7.366 L 10.081 7.381 L 10.081 7.397 L 9.055 8.422 L 8.031 9.446 L 8.000 9.446 L 7.969 9.446 L 6.937 8.415 L 5.904 7.381 L 6.928 6.357 L 7.954 5.331 L 8.000 5.331 L 8.046 5.331 L 9.063 6.348 Z"/>
  <path d="M 1.019 5.427 L 1.000 5.446 L 1.000 9.400 L 1.000 13.354 L 1.019 13.373 L 1.037 13.391 L 3.136 13.391 L 5.237 13.391 L 5.260 13.357 L 5.285 13.323 L 5.285 11.451 L 5.285 9.579 L 4.654 8.947 L 4.024 8.316 L 3.989 8.306 L 3.953 8.299 L 3.924 8.325 L 3.893 8.353 L 3.893 10.166 L 3.893 11.977 L 3.874 11.996 L 3.856 12.014 L 3.143 12.014 L 2.428 12.014 L 2.403 11.987 L 2.377 11.957 L 2.377 9.313 L 2.377 6.670 L 1.746 6.038 L 1.116 5.409 L 1.076 5.409 L 1.037 5.409 L 1.019 5.427 Z"/>
  <path d="M 14.244 6.045 L 13.608 6.679 L 13.608 9.316 L 13.608 11.954 L 13.592 11.985 L 13.575 12.014 L 12.859 12.014 L 12.143 12.014 L 12.118 11.987 L 12.092 11.957 L 12.092 10.146 L 12.092 8.334 L 12.062 8.317 L 12.031 8.302 L 12.010 8.302 L 11.987 8.302 L 11.351 8.939 L 10.715 9.576 L 10.715 11.467 L 10.715 13.357 L 10.737 13.374 L 10.757 13.391 L 12.851 13.391 L 14.946 13.391 L 14.974 13.359 L 15.000 13.326 L 14.997 9.381 L 14.992 5.438 L 14.969 5.424 L 14.946 5.409 L 14.912 5.409 L 14.878 5.409 L 14.244 6.045 Z"/>
</svg>