<svg width="127" height="25" viewBox="0 0 127 25" fill="none" xmlns="http://www.w3.org/2000/svg">
<path d="M125.386 5.85828L120.975 1H0.250206V6.2388L0.250183 17.7341L5.38574 24H125.386V20.4331V5.85828Z" fill="#DFD9D9" stroke="black" stroke-width="0.5"/>
<g clip-path="url(#clip0_7588_5699)">
<path d="M14.9642 8.25764L15.1832 7.5699L14.9486 7H24.0159L25.0308 8.56481L23.7226 12.1001L21.2822 12.7473L21.3487 13.0873L22.432 18H18.439L17.4417 13.6649H17.1152L15.9791 16.7424L15.8109 17.235L15.9967 18H11.3857L14.9642 8.25764ZM19.886 11.3177L20.6095 9.36266H18.6991L17.9756 11.3177H19.886Z" fill="#1A1A1B"/>
<path d="M46.3338 11.3853L47.3155 11.6055L47.9686 12.4053L46.4883 16.4178L44.3197 17.9981H35.7334L39.3119 8.25764L39.5602 7.64331L39.2943 7H48.3616L49.3765 8.56481L48.9971 9.58483L46.3299 11.3872H46.3338V11.3853ZM42.6341 15.6354L43.649 12.898L40.9134 15.1756L40.3678 15.6354H42.6341ZM44.9572 9.36266H43.0467L42.1511 11.7775L44.8184 9.73744L44.9552 9.36266H44.9572Z" fill="#1A1A1B"/>
<path d="M61.512 8.25764L61.7643 7.6549L61.4944 7H66.1054L62.5269 16.7404L62.3881 17.1384L62.5445 17.9981H57.9336L61.512 8.25764Z" fill="#1A1A1B"/>
<path d="M68.36 9.82244L68.5301 9.36266H66.3107L66.5336 7H75.7574L74.897 9.36266H72.6776L69.9596 16.7404L69.8149 17.1654L69.9596 17.9981H65.3486L68.36 9.82051V9.82244Z" fill="#1A1A1B"/>
<path d="M75.8626 8.25764L76.0523 7.78433L75.845 7H80.456L78.8721 11.3177H80.7825L81.901 8.25764L82.0301 7.89252L81.901 7H86.512L82.9159 16.7404L82.7204 17.2079L82.9335 17.9981H78.3226L79.9221 13.663H78.0117L76.8756 16.7404L76.7289 17.1113L76.8931 17.9981H72.2822L75.8607 8.25764H75.8626Z" fill="#1A1A1B"/>
<path d="M84.0879 16.4178L87.0993 8.25764L87.2987 7.79399L87.0817 7H96.149L97.1639 8.56481L94.2738 16.4178L92.1052 17.9981H85.1028L84.0879 16.4178ZM90.4216 15.6354L92.7446 9.36266H90.8342L88.7008 15.1776L88.5404 15.6373H90.4216V15.6354Z" fill="#1A1A1B"/>
<path d="M98.1976 8.25764L98.3443 7.82684L98.18 7H102.791L99.7971 15.1776L99.6153 15.6373H103.6L102.722 18H94.6172L98.1956 8.25957H98.1976V8.25764Z" fill="#1A1A1B"/>
<path d="M112.462 13.6649H108.97L108.418 15.1776L108.242 15.6374H112.222L111.344 18H103.238L106.817 8.25959L106.956 7.80367L106.799 7.00195H115.385L114.525 9.36462H110.55L109.826 11.3197H113.319L112.458 13.6649H112.462Z" fill="#1A1A1B"/>
<path d="M57.4579 11.3853L58.4395 11.6055L59.0926 12.4053L57.6123 16.4178L55.4438 17.9981H46.8574L50.4359 8.25764L50.6842 7.64331L50.4183 7H59.4856L60.5005 8.56481L60.1212 9.58483L57.4539 11.3872H57.4579V11.3853ZM53.7582 15.6354L54.773 12.898L52.0374 15.1756L51.4918 15.6354H53.7582ZM56.0812 9.36266H54.1708L53.2752 11.7775L55.9424 9.73744L56.0793 9.36266H56.0812Z" fill="#1A1A1B"/>
<path d="M35.5836 7H30.1944L30.4995 7.30137L22.6875 17.9981H27.1694L28.4991 15.9735L31.0411 15.9059L30.9981 17.9981H35.5817V17.8397L35.3353 17.8319L35.5836 7ZM31.2953 13.7151H29.9109L31.2953 11.6191V13.7151Z" fill="#1A1A1B"/>
</g>
<defs>
<clipPath id="clip0_7588_5699">
<rect width="104" height="11" fill="white" transform="translate(11.3857 7)"/>
</clipPath>
</defs>
</svg>
