<svg width="178" height="88" viewBox="0 0 178 88" fill="none" xmlns="http://www.w3.org/2000/svg">
<path d="M72.371 85.7843C71.9122 86.1833 71.3836 86.443 70.865 86.7023C70.3364 86.9616 69.7479 87.1609 69.0897 87.2906C68.4314 87.4203 67.7731 87.4903 66.9952 87.4903C65.7485 87.4903 64.6314 87.2906 63.5842 86.8318C62.537 86.3731 61.6793 85.7848 60.8913 84.9969C60.1034 84.2089 59.515 83.2911 59.116 82.2439C58.7171 81.1966 58.4578 80.0099 58.4578 78.833C58.4578 77.6461 58.6572 76.4693 59.116 75.4221C59.5748 74.3748 60.1633 73.457 60.8913 72.6691C61.6793 71.8812 62.537 71.2232 63.5842 70.7645C64.6314 70.3057 65.7485 70.0461 66.9952 70.0461C67.7831 70.0461 68.4414 70.1162 69.0897 70.2458C69.6781 70.3755 70.2665 70.5747 70.7951 70.7742C71.3237 70.9737 71.8424 71.3029 72.2413 71.6221C72.6403 71.9512 73.0991 72.3403 73.5578 72.7392L72.2413 74.1155C71.5232 73.4572 70.7353 72.8689 69.8776 72.4699C69.0298 72.0809 68.0424 71.8115 66.8556 71.8115C65.938 71.8115 65.0803 72.0108 64.2325 72.3399C63.4446 72.669 62.7265 73.1878 62.138 73.7863C61.5496 74.3747 61.0908 75.1629 60.7617 76.0206C60.4325 76.8683 60.2331 77.7957 60.2331 78.7731C60.2331 79.7605 60.3627 80.6783 60.7617 81.5261C61.1606 82.3738 61.5496 83.1016 62.138 83.7599C62.7265 84.4182 63.3847 84.8772 64.2325 85.2662C65.0204 85.6551 65.8781 85.7946 66.8556 85.7946C68.0325 85.7946 69.0198 85.5949 69.8776 85.1361C70.7253 84.6773 71.5232 84.0891 72.371 83.361L73.6177 84.6077C73.2886 85.0665 72.8298 85.4552 72.371 85.7843Z" fill="white"/>
<path d="M94.5526 87.2307L89.6356 80.6679H84.7784V87.2307H82.8735V70.3057H90.1542C91.0718 70.3057 91.9295 70.435 92.7175 70.6943C93.5054 70.9536 94.0938 71.283 94.6224 71.7418C95.151 72.2006 95.54 72.7288 95.8691 73.3172C96.1284 73.9057 96.3279 74.6338 96.3279 75.3519C96.3279 76.07 96.1983 76.6686 95.9988 77.257C95.7993 77.8455 95.4702 78.3044 95.0114 78.7034C94.5526 79.1023 94.0938 79.4213 93.5652 79.7504C92.9768 80.0097 92.3883 80.2091 91.7301 80.3387L96.9164 87.2307H94.5526ZM93.2361 72.9885C92.4482 72.4001 91.4009 72.0705 90.0246 72.0705H84.7784V78.9625H89.9647C90.623 78.9625 91.2114 78.8929 91.74 78.7034C92.2686 78.5039 92.7274 78.3142 93.1164 77.9851C93.5153 77.6559 93.8345 77.3267 94.034 76.8679C94.2334 76.4091 94.3631 75.9506 94.3631 75.422C94.3531 74.4346 93.9542 73.5869 93.2361 72.9885Z" fill="white"/>
<path d="M118.369 72.0706H108.067V77.8454H117.312V79.5508H108.067V85.4556H118.499V87.1611H106.162V70.2356H118.369V72.0706Z" fill="white"/>
<path d="M142.317 82.1143C141.858 83.1615 141.269 84.019 140.481 84.8069C139.693 85.525 138.706 86.1835 137.599 86.5825C136.482 86.9814 135.305 87.2409 133.989 87.2409H128.154V70.3154H133.989C135.305 70.3154 136.552 70.5151 137.599 70.9738C138.646 71.4326 139.634 72.0209 140.481 72.7489C141.269 73.467 141.858 74.3948 142.317 75.442C142.775 76.4892 142.975 77.6064 142.975 78.7833C142.975 79.9602 142.775 81.1269 142.317 82.1143ZM140.541 76.21C140.212 75.4221 139.753 74.7041 139.165 74.0458C138.576 73.3875 137.848 72.9984 136.931 72.5994C136.013 72.2005 135.096 72.0706 134.048 72.0706H130.109V85.4556H134.048C135.096 85.4556 136.083 85.2558 136.931 84.9267C137.788 84.5976 138.507 84.1389 139.165 83.5505C139.823 82.962 140.212 82.2338 140.541 81.4559C140.87 80.668 141.07 79.7505 141.07 78.833C141.07 77.9154 140.87 77.0578 140.541 76.21Z" fill="white"/>
<path d="M154.913 70.365H153.008V87.2905H154.913V70.365Z" fill="white"/>
<path d="M172.038 87.2307H170.133V72.0705H164.488V70.3057H177.742V72.0705H172.107L172.038 87.2307Z" fill="white"/>
<path d="M8.98859 82.6329H8.91878L2.75507 73.5865V87.2307H0.919922V70.3057H2.88473L9.05841 79.5508L15.2221 70.3057H17.1869V87.2307H15.2919V73.5169L8.98859 82.6329Z" fill="white"/>
<path d="M30.053 70.3057H31.4892V87.3602H29.5942V72.3398L26.3727 73.3172L25.9139 71.7418L30.053 70.3057Z" fill="white"/>
<path d="M44.5546 70.3057H45.931V87.3602H44.026V72.3398L40.8145 73.3172L40.3557 71.7418L44.5546 70.3057Z" fill="white"/>
<path d="M127.416 53.8687H51.0474V54.1979H127.416V53.8687Z" fill="white"/>
<path d="M82.7337 4.35989L81.487 8.55875L72.8299 5.86567V40.8435H68.3019V0.490234H71.5234L82.7337 4.35989Z" fill="white"/>
<path d="M107.408 0.490234H110.62V40.8435H106.092V5.86567L97.4348 8.55875L96.1881 4.35989L107.408 0.490234Z" fill="white"/>
</svg>
