<svg id="ELEMENTS" xmlns="http://www.w3.org/2000/svg" viewBox="0 0 97 74.89"><defs><style>.cls-1,.cls-3{fill:none;stroke-width:0}.cls-3{fill:#f66b30}</style></defs><path class="cls-1" d="m15.11 34.55-1.09 1.68 2.04 4.29-.95-5.97z"/><path class="cls-1" d="m12.84 56.12-.06.1-.08.11-4.73 6.47s.05.04.07.06c.36.29.72.58 1.06.85l9.05-.5c1.31-.37 12-10.33 29.45-8.34 0 0-2.61-1.46-3.38-2.39 0 0 2.2 0 12.19 1.11l-9.59-6.7s5.42-1.53 11.85-1.92c3.92-.21 8.27 0 12.19 1.25 0 0-2.88-8.73-12.38-13.83 0 0 22.85-.62 28.34 27.1l.02-.02c.11-.13.85-.96 1.77-2.33 3.84-5.73 10.93-20.93-9.84-34.35l4.69-1.04s-5.7-4.74-17.37-5.29l-3.93 6.34c7.82 1.5 13.89 7.17 13.89 7.17-.06-.03-3.79-1.73-7.5-2.55-5.1-1.12-13.4-1.92-24.2.53l15.56-14.41-1.7 8.67L67.26 7.1s-1.14.41-2.67 1c-1.36.52-3.03 1.17-4.5 1.78s-4.2 1.51-4.2 1.51l-9.84 3.54-9.48 5.6 4.21-6.62-10.01 4.07.24-6.84-14.76 21.57 1.44 8.84C13.73 46.29 6.91 55.03 5.43 56.91l7.6-1-.15.21Zm16.49-18.36 3.64-3.47 1.6-1.52.91.54 2.41 1.43-8.56 3.02Zm-5.72-.57L34 28.84l6.35.58-1.69 2.07 1.14.74-1.99.7-2.41-1.43-.91-.54-1.6 1.52-3.64 3.47-.81.9-2.38 2.63-4.3 4.76 4.28-7.34-2.43.28ZM13.03 55.91h-.01.02Z"/><path style="stroke:#f66b30;stroke-linecap:round;stroke-linejoin:round;stroke-width:0;fill:none" d="M14.37 30.27h0"/><path class="cls-3" d="M19.12 66.32C22.99 64 32.98 53.91 54.7 62.96l-3.65-5.67s15.98 3.81 22.36 17.59l6.73-7.1.26 4.34c34.83-29.72 4.03-48.24 4.03-48.24l5.13-.76c-.8-1.16-8.39-8.8-23.11-9.68l7.53-12.19-29.47 10.69 1.14-4.46-11.08 4.74-.31-12.23-22.99 35.96 3.08 5.94C9.91 47.12 4.66 53.45-.01 59.23l6.55 7.75 12.56-.66Zm-5.09-30.1 1.09-1.68.95 5.98-2.03-4.29Zm3.63 5.32-1.44-8.84 14.76-21.57-.24 6.84 10.01-4.07-4.21 6.62 9.48-5.6 9.84-3.54 4.2-1.51c1.47-.61 3.14-1.26 4.5-1.78 1.54-.59 2.67-1 2.67-1L58.18 22.2l1.7-8.67-15.56 14.41c10.8-2.46 19.1-1.66 24.2-.53 3.71.82 7.44 2.52 7.5 2.55 0 0-6.07-5.67-13.89-7.17l3.93-6.34c11.67.55 17.37 5.29 17.37 5.29l-4.69 1.04C99.51 36.2 92.42 51.4 88.58 57.13c-.92 1.38-1.66 2.21-1.77 2.33l-.02.02c-5.49-27.72-28.34-27.1-28.34-27.1 9.5 5.1 12.38 13.83 12.38 13.83-3.92-1.24-8.28-1.46-12.19-1.25-6.43.39-11.85 1.92-11.85 1.92l9.59 6.7c-10-1.11-12.19-1.11-12.19-1.11.77.93 3.38 2.39 3.38 2.39-17.44-1.99-28.13 7.96-29.45 8.34l-9.05.5c-.34-.26-.7-.55-1.06-.85-.02-.02-.05-.04-.07-.06l4.73-6.47.08-.11-.08.11.14-.2h.01l.15-.22-7.6 1c1.48-1.89 8.3-10.63 12.26-15.36Zm-4.63 14.37h-.02.02z"/><path class="cls-3" d="m26.06 39.49 2.38-2.63.81-.9 3.64-3.47 1.6-1.53.91.54 2.42 1.43 1.98-.7-1.13-.74 1.68-2.07-6.35-.58-10.39 8.35 2.43-.28-4.28 7.34 4.3-4.76z"/><path class="cls-3" d="m34.56 32.77-1.6 1.52-3.64 3.47 8.56-3.02-2.41-1.43-.91-.54zM12.83 56.12l-.01.02-.14.19.08-.11.07-.09v-.01z"/></svg>