<svg xmlns="http://www.w3.org/2000/svg" width="503" height="118" fill="none"><path d="M -358.697 27.757 L 29.855 27.757 L 29.855 151.782 L -358.697 151.782 Z" fill="transparent"></path><path d="M 25.95 54.17 L 24.374 56.685 L 27.333 63.083 Z" fill="transparent"></path><path d="M 22.676 86.334 L 22.579 86.484 L 22.458 86.658 L 15.594 96.317 C 15.594 96.317 15.667 96.367 15.691 96.416 C 16.225 96.84 16.734 97.288 17.219 97.686 L 30.364 96.939 C 32.256 96.392 47.802 81.53 73.146 84.492 C 73.146 84.492 69.363 82.326 68.247 80.932 C 68.247 80.932 71.448 80.932 85.951 82.575 L 72.03 72.568 C 72.03 72.568 79.912 70.277 89.25 69.705 C 94.949 69.381 101.255 69.705 106.954 71.572 C 106.954 71.572 102.783 58.552 88.983 50.959 C 88.983 50.959 122.185 50.038 130.14 91.363 L 130.164 91.338 C 130.334 91.139 131.401 89.919 132.735 87.853 C 138.313 79.314 148.62 56.635 118.45 36.645 L 125.265 35.101 C 125.265 35.101 116.995 28.031 100.042 27.21 L 94.343 36.67 C 105.693 38.91 114.521 47.349 114.521 47.349 C 114.424 47.3 109.016 44.76 103.632 43.541 C 96.235 41.873 84.157 40.678 68.489 44.337 L 91.093 22.853 L 88.619 35.773 L 101.764 13.244 C 101.764 13.244 100.115 13.866 97.884 14.738 C 95.919 15.509 93.494 16.48 91.335 17.401 L 85.224 19.642 L 70.939 24.919 L 57.164 33.259 L 63.275 23.401 L 48.724 29.475 L 49.063 19.268 L 27.624 51.432 L 29.71 64.601 C 23.962 71.671 14.042 84.691 11.908 87.504 L 22.943 86.011 L 22.725 86.334 Z M 46.614 58.975 L 51.901 53.797 L 54.229 51.532 L 55.563 52.328 L 59.055 54.469 Z M 38.319 58.104 L 53.404 45.657 L 62.62 46.528 L 60.171 49.615 L 61.82 50.71 L 58.934 51.756 L 55.442 49.615 L 54.108 48.818 L 51.779 51.084 L 46.492 56.262 L 45.304 57.606 L 41.836 61.539 L 35.579 68.634 L 41.787 57.681 Z M 22.943 86.035" fill="transparent"></path><path d="M 31.795 101.545 C 37.422 98.084 51.925 83.048 83.478 96.541 L 78.166 88.077 C 78.166 88.077 101.376 93.753 110.641 114.316 L 120.414 103.735 L 120.802 110.208 C 171.393 65.896 126.647 38.288 126.647 38.288 L 134.093 37.143 C 132.929 35.425 121.894 24.023 100.527 22.704 L 111.465 4.531 L 68.659 20.463 L 70.308 13.816 L 54.205 20.886 L 53.744 2.664 L 20.396 56.262 L 24.859 65.124 C 18.408 72.916 10.792 82.351 4.002 90.989 L 13.509 102.541 L 31.747 101.545 Z M 24.398 56.66 L 25.975 54.146 L 27.357 63.058 Z M 29.661 64.601 L 27.575 51.432 L 49.015 19.268 L 48.675 29.475 L 63.227 23.401 L 57.115 33.259 L 70.891 24.919 L 85.175 19.642 L 91.287 17.401 C 93.421 16.48 95.846 15.534 97.835 14.738 C 100.066 13.866 101.716 13.244 101.716 13.244 L 88.522 35.773 L 90.996 22.853 L 68.392 44.312 C 84.084 40.653 96.138 41.848 103.535 43.516 C 108.919 44.735 114.351 47.275 114.424 47.324 C 114.424 47.324 105.596 38.86 94.246 36.645 L 99.945 27.185 C 116.898 28.006 125.168 35.076 125.168 35.076 L 118.353 36.62 C 148.523 56.635 138.216 79.289 132.638 87.828 C 131.304 89.894 130.237 91.114 130.067 91.313 L 130.043 91.338 C 122.064 50.013 88.886 50.934 88.886 50.934 C 102.686 58.527 106.857 71.547 106.857 71.547 C 101.158 69.705 94.828 69.381 89.153 69.68 C 79.815 70.252 71.933 72.543 71.933 72.543 L 85.854 82.525 C 71.327 80.882 68.15 80.882 68.15 80.882 C 69.266 82.276 73.049 84.442 73.049 84.442 C 47.705 81.48 32.183 96.317 30.267 96.889 L 17.122 97.636 C 16.637 97.238 16.104 96.815 15.594 96.367 C 15.57 96.342 15.522 96.317 15.497 96.267 L 22.361 86.608 L 22.482 86.434 L 22.361 86.608 L 22.555 86.309 L 22.579 86.309 L 22.797 85.986 L 11.763 87.479 C 13.921 84.666 23.816 71.622 29.564 64.576 Z" fill="rgb(237,108,52)"></path><path d="M 41.86 61.539 L 45.328 57.631 L 46.492 56.286 L 51.779 51.108 L 54.108 48.818 L 55.442 49.64 L 58.958 51.756 L 61.82 50.71 L 60.195 49.615 L 62.62 46.528 L 53.404 45.657 L 38.319 58.104 L 41.836 57.705 L 35.627 68.634 Z" fill="rgb(237,108,52)"></path><path d="M 54.205 51.532 L 51.901 53.797 L 46.614 58.975 L 59.031 54.469 L 55.539 52.328 Z M 22.652 86.334 L 22.628 86.359 L 22.434 86.658 L 22.555 86.484 L 22.652 86.359 Z" fill="rgb(237,108,52)"></path><g transform="translate(163.245 30.371)"><path d="M 17.292 14.962 L 17.292 28.753 L 44.261 28.753 L 44.261 42.47 L 17.292 42.47 L 17.292 63.979 L 0 63.979 L 0 1.245 L 47.923 1.245 L 47.923 14.962 Z M 52.41 32.612 C 52.41 13.792 66.816 0 86.364 0 C 105.911 0 120.317 13.792 120.317 32.612 C 120.317 51.432 105.911 65.224 86.364 65.224 C 66.816 65.224 52.41 51.432 52.41 32.612 Z M 102.856 32.612 C 102.856 21.758 95.604 14.688 86.364 14.688 C 77.123 14.688 69.872 21.758 69.872 32.612 C 69.872 43.466 77.123 50.536 86.364 50.536 C 95.604 50.536 102.856 43.466 102.856 32.612 Z M 165.815 63.979 L 153.156 44.536 L 140.665 63.979 L 120.924 63.979 L 143.188 32.263 L 121.894 1.245 L 141.369 1.245 L 153.592 19.343 L 165.646 1.245 L 184.32 1.245 L 163.026 31.541 L 185.727 63.979 Z M 189.728 1.245 L 207.021 1.245 L 207.021 63.979 L 189.728 63.979 Z M 236.633 14.962 L 236.633 28.753 L 263.602 28.753 L 263.602 42.47 L 236.633 42.47 L 236.633 63.979 L 219.341 63.979 L 219.341 1.245 L 267.264 1.245 L 267.264 14.962 Z M 308.13 41.474 L 308.13 63.979 L 290.838 63.979 L 290.838 41.225 L 267.531 1.245 L 285.769 1.245 L 300.272 26.164 L 314.775 1.245 L 331.534 1.245 Z" fill="rgb(255,255,255)"></path></g></svg>