<svg width="450" height="506" viewBox="0 0 450 506" fill="none" xmlns="http://www.w3.org/2000/svg">
<path d="M253.949 241.515C195.858 352.289 137.767 403.957 56.6426 415.305L203.874 500.244C207.399 501.983 210.972 503.335 214.642 504.204C216.477 504.639 218.264 504.977 220.099 505.17C221.934 505.411 223.721 505.508 225.507 505.508C232.702 505.508 239.752 503.769 246.078 500.244L379.934 423.031L428.898 394.782C435.224 390.581 440.487 385.27 444.206 379.137C447.876 373.004 450 365.954 450 358.228V147.304C450 145.614 449.855 143.924 449.662 142.282C449.614 141.799 449.566 141.365 449.469 140.882C449.228 139.433 448.986 137.984 448.6 136.584C448.455 136.005 448.262 135.473 448.117 134.942C447.827 134.073 447.537 133.156 447.199 132.286H440.681C351.057 139.53 288.282 176.277 253.949 241.466V241.515Z" fill="black"/>
<path d="M11.8307 130.017L3.95965 129.92C3.81479 130.21 3.66994 130.5 3.52507 130.789C3.47678 130.934 3.38019 131.079 3.28362 131.224C2.65587 132.673 2.12468 134.17 1.69009 135.715C1.54522 136.198 1.44867 136.681 1.30381 137.163C1.01408 138.322 0.772628 139.53 0.579475 140.737C0.482898 141.22 0.434595 141.703 0.338018 142.234C0.144864 143.924 0 145.614 0 147.352V358.276C0 366.002 2.12471 373.391 5.79464 379.716C9.12654 385.414 13.7622 390.147 19.2188 393.623L38.4376 392.996C93.4381 389.133 153.702 368.9 219.954 253.249C217.588 248.951 215.222 244.605 212.855 240.163C176.639 171.303 108.987 134.266 11.7824 130.065L11.8307 130.017Z" fill="black"/>
<path d="M233.812 228.091C270.366 160.438 336.859 119.683 426.724 109.494L246.077 5.28758C232.025 -1.76253 216.525 -1.76253 203.873 5.28758L27.7168 106.935C124.777 114.806 195.761 156.43 233.812 228.139V228.091Z" fill="black"/>
</svg>
