<svg width="450" height="506" viewBox="0 0 450 506" fill="none" xmlns="http://www.w3.org/2000/svg">
<mask id="mask0_5275_22535" style="mask-type:luminance" maskUnits="userSpaceOnUse" x="0" y="0" width="450" height="506">
<mask id="mask1_5275_22535" style="mask-type:luminance" maskUnits="userSpaceOnUse" x="0" y="0" width="450" height="506">
<path d="M203.9 5.28702C216.55 -1.76234 232.001 -1.76234 246.1 5.28702L428.9 110.738C441.55 117.787 450 131.837 450 147.288V358.189C450 373.64 441.55 386.29 428.9 394.74L246.1 500.19C233.45 507.24 217.999 507.24 203.9 500.19L21.0998 394.74C8.44955 387.69 0 373.64 0 358.189V147.288C0 131.837 8.44955 119.187 21.0998 110.738L203.9 5.28702Z" fill="white"/>
</mask>
<g mask="url(#mask1_5275_22535)">
<path d="M203.9 5.28702C216.55 -1.76234 232.001 -1.76234 246.1 5.28702L428.9 110.738C441.55 117.787 450 131.837 450 147.288V358.189C450 373.64 441.55 386.29 428.9 394.74L246.1 500.19C233.45 507.24 217.999 507.24 203.9 500.19L21.0998 394.74C8.44955 387.69 0 373.64 0 358.189V147.288C0 131.837 8.44955 119.187 21.0998 110.738L203.9 5.28702Z" fill="white"/>
</g>
</mask>
<g mask="url(#mask0_5275_22535)">
<path d="M203.9 5.28702C216.55 -1.76234 232.001 -1.76234 246.1 5.28702L428.9 110.738C441.55 117.787 450 131.837 450 147.288V358.189C450 373.64 441.55 386.29 428.9 394.74L246.1 500.19C233.45 507.24 217.999 507.24 203.9 500.19L21.0998 394.74C8.44955 387.69 0 373.64 0 358.189V147.288C0 131.837 8.44955 119.187 21.0998 110.738L203.9 5.28702Z" fill="#00B9E1"/>
<path d="M203.9 5.28702C216.55 -1.76234 232.001 -1.76234 246.1 5.28702L428.9 110.738C441.55 117.787 450 131.837 450 147.288V358.189C450 373.64 441.55 386.29 428.9 394.74L246.1 500.19C233.45 507.24 217.999 507.24 203.9 500.19L21.0998 394.74C8.44955 387.69 0 373.64 0 358.189V147.288C0 131.837 8.44955 119.187 21.0998 110.738L203.9 5.28702Z" fill="#26C3EF"/>
<path d="M243.298 235.887C329.049 72.7864 565.299 114.986 672.15 157.137V611.29H-161.654V379.289H-158.854C37.997 420.04 136.398 439.739 243.249 235.887H243.298Z" fill="url(#paint0_linear_5275_22535)"/>
<path opacity="0.7" d="M223.6 234.44C137.849 71.3392 -98.4011 113.539 -205.252 155.69V609.842H628.504V377.841H625.703C428.852 417.192 330.451 436.892 223.6 234.44Z" fill="url(#paint1_linear_5275_22535)"/>
</g>
<defs>
<linearGradient id="paint0_linear_5275_22535" x1="255.224" y1="234.053" x2="255.224" y2="611.917" gradientUnits="userSpaceOnUse">
<stop stop-color="white"/>
<stop offset="1" stop-color="white" stop-opacity="0"/>
</linearGradient>
<linearGradient id="paint1_linear_5275_22535" x1="210.998" y1="117.112" x2="211.529" y2="423.324" gradientUnits="userSpaceOnUse">
<stop stop-color="white"/>
<stop offset="1" stop-color="white" stop-opacity="0"/>
</linearGradient>
</defs>
</svg>
