<svg width="176" height="40" viewBox="0 0 176 40" fill="none"
    xmlns="http://www.w3.org/2000/svg">
    <path fill-rule="evenodd" clip-rule="evenodd" d="M37.1995 0L23.7337 3.62776e-06C12.9861 6.237e-06 4.27345 8.71257 4.27333 19.4602L4.27327 24.5665C4.27327 24.6977 4.37957 24.804 4.5107 24.804L7.22606 24.804C7.35719 24.804 7.4635 24.6977 7.4635 24.5666L7.46355 19.4602C7.46365 10.4745 14.748 3.19023 23.7337 3.19023L41.9078 3.19022C42.0897 3.19022 42.2032 2.99459 42.1065 2.84064C41.0722 1.19465 39.5233 0.00142267 37.2037 0H37.1995ZM43.8361 7.85268C43.8169 7.73925 43.7183 7.65674 43.6033 7.65674L23.7343 7.65675C17.039 7.65675 11.6115 13.0843 11.6115 19.7796L11.6114 24.5668C11.6114 24.6979 11.7177 24.8042 11.8489 24.8042L13.8519 24.8042C14.3765 24.8042 14.8017 24.379 14.8017 23.8545L14.8017 19.7796C14.8017 14.8462 18.801 10.847 23.7343 10.847L43.9037 10.847C44.0393 10.847 44.1475 10.7336 44.1397 10.5982C44.0956 9.82787 44.0084 8.87225 43.8361 7.85268ZM56.483 29.8692C58.187 31.167 60.3726 31.8158 63.0397 31.8158C65.5092 31.8158 67.5219 31.2329 69.0777 30.0671C70.6335 28.8793 71.4115 27.3066 71.4115 25.3489C71.4115 23.6331 70.8805 22.2364 69.8186 21.1585C68.7567 20.0587 67.1885 19.1788 65.1141 18.5189L61.7432 17.4301C60.4096 17.0122 59.4465 16.5173 58.8538 15.9453C58.2611 15.3734 57.9647 14.6036 57.9647 13.6357C57.9647 12.6679 58.3846 11.898 59.2242 11.3261C60.0886 10.7542 61.1628 10.4682 62.447 10.4682C63.6324 10.4682 64.6696 10.7542 65.5586 11.3261C66.4724 11.898 67.0897 12.7668 67.4108 13.9327H70.8188C70.6459 12.2389 69.8309 10.7652 68.3739 9.51136C66.9416 8.23556 64.9906 7.59766 62.5211 7.59766C60.175 7.59766 58.2487 8.15857 56.7423 9.28039C55.2606 10.3802 54.5197 11.865 54.5197 13.7347C54.5444 15.3844 55.0383 16.7372 56.0014 17.7931C56.9893 18.8489 58.5204 19.6958 60.5948 20.3337L64.2251 21.5215C66.7193 22.3573 67.9664 23.6661 67.9664 25.4479C67.9664 26.5037 67.4972 27.3506 66.5588 27.9885C65.6204 28.6264 64.435 28.9453 63.0026 28.9453C61.6197 28.9453 60.3602 28.6154 59.2242 27.9555C58.1129 27.2956 57.4832 26.3607 57.335 25.1509H53.89C53.9394 26.9986 54.8037 28.5714 56.483 29.8692ZM135.463 9.88403H132.124V23.5005C132.124 28.0534 135.82 31.7603 140.366 31.7603H142.936V29.0777C142.936 28.711 142.64 28.4138 142.274 28.4138H140.366C137.663 28.4138 135.463 26.2098 135.463 23.5005V18.3863H142.933V15.3023H135.463V9.88403ZM154.782 14.5601C153.009 14.5936 151.37 15.3421 150.039 16.3277V14.9253H147.367C147.001 14.9253 146.704 15.2213 146.704 15.5866V23.0552C146.7 23.1665 146.698 23.2784 146.698 23.3908V31.7597H149.374C149.74 31.7597 150.037 31.4636 150.037 31.0984V24.3241C150.038 24.3126 150.039 24.301 150.039 24.2892V23.2494C150.112 20.6148 152.283 17.8933 154.94 17.8933H157.51V14.5601H154.782ZM83.5358 14.5654C81.4943 14.5654 79.5684 15.2564 78.0405 16.4302V14.9719H75.3782C75.0135 14.9719 74.7179 15.2675 74.7179 15.6322V22.9949L74.7178 23.0019L74.7176 23.0093V36.8022H77.3847C77.7494 36.8022 78.045 36.5066 78.045 36.1419V29.8578C79.5609 31.0528 81.4734 31.7713 83.5358 31.7713C88.4905 31.7713 92.3539 27.7889 92.3539 23.1249C92.3539 18.4567 88.3091 14.5654 83.5358 14.5654ZM78.045 23.1539C78.045 20.1103 80.4952 17.6326 83.5358 17.6326C86.5773 17.6326 89.0265 20.0823 89.0265 23.1249C89.0265 26.171 86.6027 28.7041 83.5358 28.7041C80.4963 28.7041 78.045 26.1985 78.045 23.1539ZM167.243 14.5654C162.51 14.5654 158.493 18.2601 158.493 23.089C158.493 27.9126 162.476 31.8161 167.243 31.8161C169.324 31.8161 171.208 31.0971 172.692 29.9169V31.4833H175.993V23.1471C175.993 18.2902 171.978 14.5654 167.243 14.5654ZM161.795 23.1762C161.795 20.1247 164.226 17.6406 167.243 17.6406C170.261 17.6406 172.692 20.0967 172.692 23.1471C172.692 26.2013 170.287 28.741 167.243 28.741C164.227 28.741 161.795 26.2288 161.795 23.1762ZM114.785 23.0668C114.785 18.2498 118.892 14.5654 123.603 14.5654C125.895 14.5654 128.011 15.4281 129.598 16.852L129.722 16.963L127.915 18.7699C127.661 19.024 127.263 19.0214 126.994 18.8094C126.061 18.075 124.886 17.6358 123.6 17.6358C120.56 17.6358 118.109 20.1135 118.109 23.1571C118.109 26.1894 120.541 28.6871 123.563 28.7072L123.569 28.7041H123.607C124.959 28.7041 126.185 28.2129 127.135 27.4005C127.403 27.1709 127.817 27.1589 128.079 27.4212L129.86 29.2025L129.744 29.3137C128.166 30.8229 126.017 31.7713 123.603 31.7713C118.799 31.7713 114.785 27.878 114.785 23.0668ZM103.592 14.5654C101.671 14.5654 99.8738 15.1731 98.4088 16.2102C96.2432 17.7367 94.7925 20.2007 94.7925 23.0652C94.7925 25.452 95.7792 27.6129 97.3595 29.1844L97.3442 29.1997L97.4603 29.3109C99.0357 30.8198 101.181 31.768 103.592 31.768H103.597C106.008 31.768 108.153 30.8198 109.729 29.3109L109.845 29.1997L109.829 29.1844C110.695 28.3232 111.383 27.2852 111.828 26.1299H108.22C107.922 26.6022 107.556 27.0266 107.135 27.3882L107.123 27.398C107.088 27.4283 107.052 27.4582 107.016 27.4876C106.54 27.8743 105.998 28.1825 105.41 28.392C104.846 28.5924 104.237 28.7014 103.601 28.7014H103.588C102.952 28.7014 102.343 28.5924 101.779 28.392C101.191 28.1825 100.649 27.8744 100.173 27.4877C100.151 27.47 100.13 27.4522 100.108 27.4342L100.065 27.398L100.054 27.3882C99.2406 26.6897 98.6313 25.7566 98.3274 24.6964H112.24C112.343 24.1681 112.396 23.6228 112.396 23.0652C112.396 20.2006 110.946 17.7367 108.78 16.2102C107.315 15.1731 105.518 14.5654 103.597 14.5654H103.592ZM108.971 22.0682C108.48 19.5911 106.342 17.707 103.744 17.6372C103.715 17.6364 103.686 17.6359 103.657 17.6356L103.634 17.6354L103.595 17.6352H103.594C103.535 17.6352 103.477 17.6361 103.419 17.638C100.833 17.7196 98.7077 19.5994 98.218 22.0682H108.971ZM0.536834 32.3432C0.421797 32.3432 0.32316 32.2607 0.303991 32.1472C0.131682 31.1277 0.0445002 30.172 0.000392273 29.4017C-0.00736075 29.2663 0.100808 29.1529 0.236429 29.1529L20.4058 29.1529C25.3392 29.1529 29.3384 25.1537 29.3384 20.2203L29.3384 16.1455C29.3384 15.6209 29.7637 15.1957 30.2882 15.1957L32.2912 15.1957C32.4224 15.1957 32.5287 15.302 32.5287 15.4332L32.5287 20.2203C32.5286 26.9156 27.1011 32.3432 20.4058 32.3432L0.536834 32.3432ZM20.4064 39.9999L6.94059 39.9999L6.93644 39.9999C4.61678 39.9985 3.06788 38.8053 2.03363 37.1593C1.9369 37.0053 2.05044 36.8097 2.23226 36.8097H20.4064C29.3921 36.8097 36.6765 29.5254 36.6766 20.5397L36.6766 15.4333C36.6766 15.3022 36.7829 15.1959 36.914 15.1959L39.6294 15.1959C39.7605 15.1959 39.8668 15.3022 39.8668 15.4334L39.8668 20.5398C39.8667 31.2873 31.154 39.9999 20.4064 39.9999Z" fill="#0C0C15"/>
</svg>
