<svg width="163" height="56" viewBox="0 0 163 56" fill="none" xmlns="http://www.w3.org/2000/svg">
<rect width="56" height="56" rx="28" fill="#83D5C5"/>
<path d="M33.8721 18.5H19.5002V28H33.8721" stroke="#0E1513" stroke-width="2.5" stroke-linejoin="round"/>
<path d="M19.5002 28V37.5H33.8721" stroke="#0E1513" stroke-width="2.5" stroke-linejoin="round"/>
<circle cx="33.75" cy="23.25" r="4.75003" stroke="#0E1513" stroke-width="2.5"/>
<circle cx="33.75" cy="32.75" r="4.75003" stroke="#0E1513" stroke-width="2.5"/>
<g clip-path="url(#clip0_146_13534)">
<path d="M163.034 13.584V17.6925H157.592V13.584H163.034ZM157.952 21.4406H162.638V39.3523H157.952V21.4406Z" fill="#9FF2E1"/>
<path d="M148.606 21.4406H153.291V46.5602H148.606V21.4406ZM153.616 13.584V17.6925H148.174V13.584H153.616Z" fill="#9FF2E1"/>
<path d="M123.483 21.4404H128.168V39.3521H123.483V21.4404ZM136.493 21.0439C137.598 21.0439 138.62 21.1881 139.557 21.4764C140.494 21.7647 141.31 22.2092 142.007 22.8099C142.704 23.4105 143.245 24.1794 143.629 25.1164C144.013 26.0294 144.206 27.1226 144.206 28.396V39.3521H139.521V29.2249C139.521 27.7113 139.148 26.6061 138.403 25.9093C137.683 25.1885 136.493 24.8281 134.835 24.8281C133.586 24.8281 132.457 25.0684 131.448 25.5489C130.439 26.0294 129.622 26.6421 128.997 27.3869C128.372 28.1077 128.012 28.8645 127.916 29.6574L127.88 27.8194C128 26.9785 128.276 26.1616 128.709 25.3687C129.141 24.5758 129.718 23.855 130.439 23.2063C131.183 22.5336 132.06 22.005 133.069 21.6206C134.079 21.2362 135.22 21.0439 136.493 21.0439Z" fill="#9FF2E1"/>
<path d="M115.609 33.4055H120.15C119.958 34.6309 119.441 35.7241 118.6 36.6851C117.783 37.6462 116.666 38.403 115.248 38.9556C113.831 39.5082 112.101 39.7845 110.059 39.7845C107.776 39.7845 105.758 39.4241 104.004 38.7034C102.25 37.9585 100.881 36.8894 99.8956 35.4958C98.9105 34.1023 98.418 32.4204 98.418 30.4503C98.418 28.4801 98.8985 26.7983 99.8596 25.4047C100.821 23.9872 102.154 22.906 103.86 22.1612C105.59 21.4164 107.608 21.0439 109.915 21.0439C112.269 21.0439 114.227 21.4164 115.789 22.1612C117.351 22.906 118.504 24.0352 119.249 25.5489C120.018 27.0385 120.342 28.9486 120.222 31.2792H103.139C103.259 32.1922 103.596 33.0211 104.148 33.7659C104.725 34.5107 105.494 35.0994 106.455 35.5319C107.44 35.9643 108.605 36.1806 109.951 36.1806C111.44 36.1806 112.678 35.9283 113.663 35.4237C114.672 34.8952 115.321 34.2224 115.609 33.4055ZM109.698 24.6119C107.968 24.6119 106.563 24.9963 105.482 25.7651C104.401 26.51 103.704 27.435 103.391 28.5402H115.573C115.453 27.3389 114.876 26.3898 113.843 25.6931C112.834 24.9723 111.452 24.6119 109.698 24.6119Z" fill="#9FF2E1"/>
<path d="M72 39.3528V16.0352H85.4428C88.5662 16.0352 90.9328 16.5637 92.5426 17.6209C94.1764 18.654 94.9933 20.2037 94.9933 22.27C94.9933 23.5915 94.6689 24.6366 94.0202 25.4055C93.3715 26.1503 92.4465 26.7029 91.2451 27.0633C90.0679 27.4237 88.6743 27.6519 87.0646 27.748L87.2087 27.4958C88.386 27.5198 89.4912 27.6039 90.5244 27.748C91.5815 27.8922 92.5065 28.1565 93.2994 28.5409C94.0923 28.9253 94.717 29.4659 95.1735 30.1627C95.63 30.8354 95.8582 31.7244 95.8582 32.8296C95.8582 34.2712 95.4738 35.4725 94.705 36.4336C93.9361 37.3706 92.8669 38.0794 91.4974 38.5599C90.1279 39.0404 88.5422 39.3047 86.7402 39.3528H72ZM76.7933 35.3884H86.2356C87.7493 35.3884 88.9146 35.1482 89.7315 34.6676C90.5484 34.1631 90.9568 33.3702 90.9568 32.289C90.9568 31.4961 90.7166 30.9195 90.236 30.5591C89.7555 30.1987 89.1188 29.9825 88.3259 29.9104C87.5331 29.8143 86.6801 29.7662 85.7671 29.7662H76.7933V35.3884ZM76.7933 25.91H85.2626C86.7762 25.91 87.9415 25.6938 88.7584 25.2613C89.5753 24.8048 89.9838 24.0359 89.9838 22.9548C89.9838 21.8736 89.5753 21.1167 88.7584 20.6843C87.9415 20.2278 86.8603 19.9995 85.5149 19.9995H76.7933V25.91Z" fill="#9FF2E1"/>
</g>
<defs>
<clipPath id="clip0_146_13534">
<rect width="91" height="37.8416" fill="white" transform="translate(72 9.0791)"/>
</clipPath>
</defs>
</svg>
