<svg width="241" height="74" viewBox="0 0 241 74" fill="none" xmlns="http://www.w3.org/2000/svg">
<g clip-path="url(#clip0_18_254)">
<path d="M19 20H35V36C26.1634 36 19 28.8366 19 20Z" fill="black"/>
<path d="M19 55C19 46.1634 26.1634 39 35 39V55H19Z" fill="black"/>
<path d="M38 58H54V74H38V58Z" fill="black"/>
<path d="M0 20H16C16 28.8366 8.83656 36 0 36V20Z" fill="black"/>
<path d="M0 39C8.83656 39 16 46.1634 16 55H0V39Z" fill="black"/>
<path d="M19 5L35 0V17H19V5Z" fill="black"/>
<g opacity="0.6">
<path d="M38 20H54V36H38V20Z" fill="black"/>
<path d="M19 58H35V74H19V58Z" fill="black"/>
<path d="M0 58H16V74C7.16344 74 0 66.8366 0 58Z" fill="black"/>
<path d="M0 11L16 6V17H0V11Z" fill="black"/>
</g>
</g>
<path d="M97.9122 62.8668C93.6003 62.8668 90.4269 61.8736 88.3921 59.8872C86.4058 57.8524 85.4126 54.8729 85.4126 50.9486V16.5746L92.8978 13.7404V51.0212C92.8978 52.9592 93.4065 54.3884 94.4239 55.3089C95.4413 56.2294 97.0886 56.6897 99.3656 56.6897C100.238 56.6897 101.013 56.617 101.691 56.4716C102.369 56.3263 102.951 56.1567 103.435 55.9629V62.0674C102.902 62.3096 102.151 62.5034 101.182 62.6488C100.213 62.7941 99.1234 62.8668 97.9122 62.8668ZM78 31.109V25.0772H103.435V31.109H78Z" fill="black"/>
<path d="M163.365 62.8668C159.054 62.8668 155.88 61.8736 153.845 59.8872C151.859 57.8524 150.866 54.8729 150.866 50.9486V16.5746L158.351 13.7404V51.0212C158.351 52.9592 158.86 54.3884 159.877 55.3089C160.895 56.2294 162.542 56.6897 164.819 56.6897C165.691 56.6897 166.466 56.617 167.144 56.4716C167.823 56.3263 168.404 56.1567 168.889 55.9629V62.0674C168.356 62.3096 167.605 62.5034 166.636 62.6488C165.667 62.7941 164.577 62.8668 163.365 62.8668ZM143.453 31.109V25.0772H168.889V31.109H143.453Z" fill="black"/>
<path d="M173.147 62.1401V25.0772H180.342V34.3066H180.705V62.1401H173.147ZM180.705 42.8093L179.76 34.0159C180.632 30.8668 182.134 28.4686 184.266 26.8214C186.398 25.1741 188.941 24.3505 191.897 24.3505C193.011 24.3505 193.786 24.4474 194.222 24.6412V31.7631C193.98 31.6662 193.641 31.6177 193.205 31.6177C192.769 31.5693 192.236 31.5451 191.606 31.5451C187.972 31.5451 185.235 32.4898 183.394 34.3793C181.601 36.2688 180.705 39.0788 180.705 42.8093Z" fill="black"/>
<path d="M197.421 62.1401V25.0772H204.979V62.1401H197.421ZM197.058 17.81V9.30737H205.415V17.81H197.058Z" fill="black"/>
<path d="M225.983 62.8668C221.139 62.8668 217.287 61.8009 214.428 59.6692C211.57 57.5375 209.947 54.5337 209.559 50.6579H216.536C216.875 52.7896 217.844 54.4368 219.443 55.5996C221.09 56.7139 223.319 57.271 226.129 57.271C228.6 57.271 230.489 56.835 231.797 55.9629C233.105 55.0909 233.759 53.8554 233.759 52.2567C233.759 51.0939 233.372 50.1249 232.597 49.3498C231.87 48.5261 230.416 47.8479 228.236 47.3149L222.277 45.9342C218.547 45.0137 215.761 43.6571 213.92 41.8645C212.127 40.0235 211.231 37.7707 211.231 35.106C211.231 31.7631 212.466 29.1469 214.937 27.2574C217.456 25.3195 220.896 24.3505 225.257 24.3505C229.568 24.3505 233.033 25.3195 235.649 27.2574C238.313 29.1953 239.815 31.9084 240.154 35.3967H233.178C232.887 33.6526 232.039 32.3202 230.634 31.3997C229.278 30.4308 227.413 29.9463 225.039 29.9463C222.81 29.9463 221.09 30.3581 219.879 31.1817C218.716 31.9569 218.135 33.047 218.135 34.452C218.135 35.6147 218.571 36.5837 219.443 37.3588C220.363 38.134 221.865 38.7881 223.949 39.321L230.053 40.8471C233.59 41.7192 236.254 43.1484 238.047 45.1348C239.84 47.0727 240.736 49.4224 240.736 52.184C240.736 55.5269 239.428 58.1431 236.811 60.0326C234.244 61.9221 230.634 62.8668 225.983 62.8668Z" fill="black"/>
<path d="M125.72 74C121.893 74 118.501 73.3218 115.546 71.9652C112.591 70.6087 111.275 69.6801 109.579 67.1608C107.932 64.593 107.108 61.565 107.108 58.0767V56.7686H113.382V57.786C113.382 60.4991 115.336 63.6887 117.226 65.3359C119.115 66.9347 122.619 67.7341 125.72 67.7341C128.869 67.7341 131.292 66.9831 132.987 65.4812C134.732 63.9793 135.604 61.0805 135.604 58.8035V57.0674C135.604 55.5171 135.216 53.2481 134.441 52.2791C133.666 51.3101 132.624 50.6076 131.316 50.1716C130.008 49.6871 128.53 49.4449 126.883 49.4449H116.709V41.2895L133.133 32.5688V32.4154H107.407V25.1401H140.424V35.4757L125.09 43.615V44.3175H130.807C133.084 44.3175 134.355 44.9715 136.411 46.1585C138.467 47.3455 139.374 48.5082 140.779 50.4462C142.184 52.3356 142.887 54.8065 142.887 57.8587V58.7308C142.887 62.0253 142.088 64.9079 140.489 67.3788C138.89 69.8012 137.646 70.6813 134.74 72.0379C131.881 73.346 129.548 74 125.72 74Z" fill="black"/>
<defs>
<clipPath id="clip0_18_254">
<rect width="54" height="74" fill="white"/>
</clipPath>
</defs>
</svg>
