<svg width="221" height="31" viewBox="0 0 221 31" fill="none" xmlns="http://www.w3.org/2000/svg">
<path fill-rule="evenodd" clip-rule="evenodd" d="M28.2767 4.83827L39.6716 4.83827V0H25.7967L11.8538 19.3875H0V24.2258H8.84808C12.2922 24.2258 15.5258 22.5683 17.5367 19.7722L28.2767 4.83827ZM39.6717 19.352L24.5118 19.3528V24.1903H39.6717V19.352ZM49.6661 24.193V23.687L57.9637 0.000450903H64.5411L72.8388 23.687V24.193H67.6274L65.8229 18.7793H56.5639L54.7593 24.193H49.6661ZM57.7107 14.9678H64.676L61.3536 4.83873H61.0163L57.7107 14.9678ZM79.0956 0.000450903H74.1373V24.193H79.0956V0.000450903ZM81.2691 0.000450903H86.2443V6.53528H90.9666V9.92517H86.2443V19.6761H90.8316V24.1931H86.4467C84.8501 24.1931 83.5853 23.7827 82.6521 22.9619C81.7301 22.1411 81.2691 20.9437 81.2691 19.3696V0.000450903ZM92.8698 10.2444C92.1165 11.6049 91.7398 13.3083 91.7398 15.3546C91.7398 17.4121 92.1221 19.1267 92.8866 20.4984C93.6512 21.8589 94.7137 22.882 96.0742 23.5679C97.4458 24.2537 99.0424 24.5967 100.864 24.5967C102.674 24.5967 104.147 24.3043 105.283 23.7197C106.429 23.1238 107.301 22.3986 107.897 21.5441C108.504 20.6783 108.903 19.8407 109.094 19.0312V18.5252H104.777C104.687 18.9075 104.495 19.301 104.203 19.7058C103.911 20.0993 103.489 20.431 102.938 20.7008C102.387 20.9707 101.668 21.1056 100.78 21.1056C99.4416 21.1056 98.3959 20.684 97.6426 19.8407C96.9005 18.9862 96.5126 17.8956 96.4789 16.5689H109.431V14.7137C109.431 12.004 108.661 9.8959 107.121 8.38928C105.592 6.88267 103.489 6.12936 100.813 6.12936C99.0031 6.12936 97.4177 6.47228 96.0573 7.15813C94.6968 7.84398 93.6343 8.87275 92.8698 10.2444ZM104.793 13.4151H96.5295C96.6307 12.347 97.0298 11.4419 97.7269 10.6998C98.424 9.9465 99.4303 9.56984 100.746 9.56984C102.095 9.56984 103.101 9.94088 103.765 10.6829C104.428 11.4138 104.771 12.3245 104.793 13.4151ZM139.411 15.3714C139.411 13.3251 139.81 11.6218 140.608 10.2613C141.406 8.88962 142.508 7.86084 143.914 7.175C145.33 6.4779 146.949 6.12936 148.771 6.12936C150.57 6.12936 152.088 6.43855 153.324 7.05694C154.561 7.66408 155.511 8.45674 156.175 9.43492C156.849 10.4131 157.215 11.4587 157.271 12.5718V13.0778H152.717C152.672 12.5606 152.515 12.049 152.245 11.5431C151.986 11.0259 151.587 10.5986 151.048 10.2613C150.508 9.92401 149.8 9.75536 148.923 9.75536C147.551 9.75536 146.455 10.2444 145.634 11.2226C144.813 12.1896 144.403 13.5725 144.403 15.3714C144.403 17.1704 144.813 18.559 145.634 19.5371C146.455 20.5041 147.551 20.9875 148.923 20.9875C149.822 20.9875 150.542 20.8133 151.081 20.4647C151.632 20.1162 152.037 19.6777 152.296 19.1492C152.566 18.6208 152.729 18.0699 152.785 17.4964H157.372V18.0024C157.282 19.1717 156.9 20.2567 156.225 21.2574C155.562 22.258 154.606 23.0676 153.358 23.6859C152.121 24.2931 150.592 24.5967 148.771 24.5967C146.949 24.5967 145.33 24.2537 143.914 23.5679C142.508 22.882 141.406 21.8589 140.608 20.4984C139.81 19.1267 139.411 17.4177 139.411 15.3714ZM158.408 15.3714C158.408 17.3953 158.813 19.093 159.622 20.4647C160.443 21.8364 161.567 22.8708 162.995 23.5679C164.434 24.2537 166.065 24.5967 167.886 24.5967C169.719 24.5967 171.349 24.2537 172.777 23.5679C174.205 22.8708 175.329 21.8364 176.15 20.4647C176.971 19.093 177.381 17.3953 177.381 15.3714C177.381 13.3364 176.971 11.6386 176.15 10.2782C175.329 8.90648 174.205 7.87209 172.777 7.175C171.349 6.4779 169.719 6.12936 167.886 6.12936C166.065 6.12936 164.434 6.4779 162.995 7.175C161.567 7.87209 160.443 8.90648 159.622 10.2782C158.813 11.6386 158.408 13.3364 158.408 15.3714ZM164.648 19.5709C163.838 18.6152 163.434 17.2154 163.434 15.3714C163.434 13.5163 163.838 12.1165 164.648 11.172C165.457 10.2276 166.537 9.75536 167.886 9.75536C169.246 9.75536 170.331 10.2276 171.141 11.172C171.95 12.1165 172.355 13.5163 172.355 15.3714C172.355 17.2154 171.95 18.6152 171.141 19.5709C170.331 20.5153 169.246 20.9875 167.886 20.9875C166.537 20.9875 165.457 20.5153 164.648 19.5709ZM199.332 10.2444C198.578 11.6049 198.202 13.3083 198.202 15.3546C198.202 17.4121 198.584 19.1267 199.349 20.4984C200.113 21.8589 201.176 22.882 202.536 23.5679C203.908 24.2537 205.504 24.5967 207.326 24.5967C209.136 24.5967 210.609 24.3043 211.744 23.7197C212.891 23.1238 213.763 22.3986 214.359 21.5441C214.966 20.6783 215.365 19.8407 215.556 19.0312V18.5252H211.238C211.149 18.9075 210.957 19.301 210.665 19.7058C210.373 20.0993 209.951 20.431 209.4 20.7008C208.849 20.9707 208.13 21.1056 207.241 21.1056C205.903 21.1056 204.858 20.684 204.105 19.8407C203.362 18.9862 202.975 17.8956 202.941 16.5689H215.893V14.7137C215.893 12.004 215.123 9.8959 213.583 8.38928C212.054 6.88267 209.951 6.12936 207.275 6.12936C205.465 6.12936 203.88 6.47228 202.519 7.15813C201.159 7.84398 200.096 8.87275 199.332 10.2444ZM211.255 13.4151H202.991C203.093 12.347 203.492 11.4419 204.189 10.6998C204.886 9.9465 205.892 9.56984 207.208 9.56984C208.557 9.56984 209.563 9.94088 210.227 10.6829C210.89 11.4138 211.233 12.3245 211.255 13.4151ZM215.266 21.6137H217.603V22.0868H216.764V24.1941H216.105V22.0868H215.266V21.6137ZM217.898 21.6139H218.665L219.437 23.4919H219.473L220.245 21.6139H221V24.1943H220.387V22.7034H220.351L219.738 24.1943H219.159L218.547 22.7034H218.511V24.1943H217.898V21.6139ZM178.517 6.53697H183.273V8.54392H183.61C183.993 7.91429 184.605 7.36898 185.449 6.908C186.303 6.43578 187.473 6.19967 188.957 6.19967C190.43 6.19967 191.773 6.53135 192.987 7.19471C194.213 7.84683 195.186 8.85311 195.905 10.2136C196.636 11.5628 197.001 13.283 197.001 15.3743C197.001 17.4543 196.636 19.1746 195.905 20.535C195.186 21.8842 194.213 22.8905 192.987 23.5539C191.773 24.2172 190.43 24.5489 188.957 24.5489C187.473 24.5489 186.331 24.324 185.533 23.8743C184.735 23.4246 184.161 22.958 183.813 22.4745H183.476V30.9408H178.517V6.53697ZM183.256 15.3743C183.256 17.1845 183.655 18.5562 184.454 19.4894C185.252 20.4113 186.309 20.8723 187.624 20.8723C188.94 20.8723 189.997 20.4113 190.795 19.4894C191.593 18.5562 191.992 17.1845 191.992 15.3743C191.992 13.5641 191.593 12.1924 190.795 11.2592C189.997 10.326 188.94 9.8594 187.624 9.8594C186.309 9.8594 185.252 10.326 184.454 11.2592C183.655 12.1924 183.256 13.5641 183.256 15.3743ZM124.168 7.68628C122.83 8.68694 122.162 9.97431 122.162 11.5484C122.162 13.1225 122.684 14.3087 123.73 15.1069C124.776 15.9052 126.147 16.4505 127.845 16.7428L131.286 17.3331C132.05 17.468 132.64 17.6704 133.056 17.9403C133.472 18.1989 133.68 18.6093 133.68 19.1714C133.68 19.7786 133.405 20.2733 132.854 20.6556C132.303 21.0378 131.494 21.229 130.425 21.229C129.346 21.229 128.424 21.0153 127.66 20.5881C126.906 20.1608 126.496 19.4694 126.428 18.5137H121.892V19.0196C122.038 20.5712 122.83 21.8867 124.27 22.9661C125.709 24.0342 127.778 24.5683 130.476 24.5683C133.174 24.5683 135.176 24.0286 136.48 22.9492C137.784 21.8586 138.436 20.515 138.436 18.9184C138.436 17.3331 137.885 16.1526 136.784 15.3768C135.693 14.5897 134.254 14.0444 132.466 13.7409L129.009 13.1506C128.39 13.0494 127.884 12.8695 127.491 12.6109C127.109 12.3411 126.917 11.9307 126.917 11.3797C126.917 10.8063 127.182 10.3566 127.71 10.0305C128.25 9.69323 129.037 9.52458 130.071 9.52458C131.106 9.52458 131.955 9.71572 132.618 10.098C133.281 10.469 133.658 11.1155 133.748 12.0375H138.251V11.5315C138.048 9.96869 137.256 8.68694 135.873 7.68628C134.49 6.67437 132.528 6.16842 129.987 6.16842C127.457 6.16842 125.518 6.67437 124.168 7.68628ZM110.887 6.53666H115.643V9.11914H115.981L116.011 9.02757C116.29 8.18856 116.473 7.63763 117.414 7.05948C118.055 6.66596 118.921 6.4692 120.011 6.4692H121.116V10.3144H119.927C118.555 10.3144 117.532 10.6742 116.858 11.3938C116.183 12.1021 115.846 13.2377 115.846 14.8006V24.1944H110.887V6.53666Z" fill="black"/>
</svg>
