<svg width="785" height="166" viewBox="0 0 785 166" fill="none" xmlns="http://www.w3.org/2000/svg">
<path d="M226.16 62.379H205.6V41.819V21.2591H226.16V0.699097H205.6H185.04H164.48V21.2591H185.04V41.819H164.48V21.2591H143.92V41.819V62.379V82.9389H123.36V62.379H102.8V41.819H82.2399H61.6799H41.1199H20.56H0V62.379H20.56V82.9389H41.1199V103.499H61.6799V124.059H82.2399V144.619H102.8V165.179H123.36H143.92H164.48H185.04V144.619H205.6V124.059H226.16V62.379Z" fill="white"/>
<path d="M278 50.4328H289.534V76.3835H278V50.4328ZM278 105.343H289.534V116.877H278V105.343ZM289.534 38.8991H335.668V50.4328H289.534V38.8991ZM335.668 87.9171H289.534V76.3835H335.668V87.9171ZM289.534 116.877H335.668V128.41H289.534V116.877ZM335.668 50.4328H347.202V61.9664H335.668V50.4328ZM335.668 87.9171H347.202V116.877H335.668V87.9171Z" fill="white"/>
<path d="M353.7 63.5961H365.234V108.226H353.7V63.5961ZM365.234 108.226H376.767V119.76H365.234V108.226ZM365.234 137.06H376.767V148.594H365.234V137.06ZM388.301 137.06H376.767V119.76H388.301V137.06ZM388.301 108.226H399.835V119.76H388.301V108.226ZM399.835 63.5961H411.368V108.226H399.835V63.5961Z" fill="white"/>
<path d="M432.304 75.1297H443.838V86.6634H432.304V128.41H420.771V63.5961H432.304V75.1297ZM443.838 63.5961H461.138V75.1297H443.838V63.5961ZM461.138 75.1297H472.672V128.41H461.138V75.1297Z" fill="white"/>
<path d="M477.206 63.5962H488.74V44.1645H500.273V63.5962H511.807V75.1298H500.273V116.877H488.74V75.1298H477.206V63.5962ZM500.273 128.41V116.877H511.807V128.41H500.273Z" fill="white"/>
<path d="M531.134 75.1297H542.668V86.6634H531.134V128.41H519.601V63.5961H531.134V75.1297ZM542.668 63.5961H554.202V75.1297H542.668V63.5961Z" fill="white"/>
<path d="M553.784 86.6634H565.317V105.343H553.784V86.6634ZM565.317 75.1297H576.851V86.6634H565.317V75.1297ZM565.317 105.343H576.851V116.877H565.317V105.343ZM576.851 63.5961H597.035V75.1297H576.851V63.5961ZM597.035 128.41H576.851V116.877H597.035V128.41ZM597.035 75.1297H608.569V86.6634H597.035V75.1297ZM597.035 105.343H608.569V116.877H597.035V105.343ZM608.569 86.6634H620.102V105.343H608.569V86.6634Z" fill="white"/>
<path d="M650.336 86.6634H638.803V105.343H650.336V116.877H638.803V154.361H627.269V63.5961H638.803V75.1297H650.336V86.6634ZM650.336 63.5961H667.637V75.1297H650.336V63.5961ZM650.336 116.877H667.637V128.41H650.336V116.877ZM667.637 75.1297H679.17V86.6634H667.637V75.1297ZM667.637 105.343H679.17V116.877H667.637V105.343ZM679.17 86.6634H690.704V105.343H679.17V86.6634Z" fill="white"/>
<path d="M698.017 39.0246H709.551V50.5582H698.017V39.0246ZM709.551 128.41H698.017V63.5963H709.551V128.41Z" fill="white"/>
<path d="M718.682 75.1297H730.215V86.6634H718.682V75.1297ZM730.215 116.877H718.682V98.197H730.215V116.877ZM730.215 63.5961H761.933V75.1297H730.215V63.5961ZM730.215 86.6634H761.933V75.1297H773.466V116.877H761.933V98.197H730.215V86.6634ZM730.215 116.877H761.933V128.41H730.215V116.877ZM773.466 116.877H785V128.41H773.466V116.877Z" fill="white"/>
</svg>
