<svg width="785" height="165" viewBox="0 0 785 165" fill="none" xmlns="http://www.w3.org/2000/svg">
<path d="M226.16 61.8127H205.6V41.2527V20.6928H226.16V0.132812H205.6H185.04H164.48V20.6928H185.04V41.2527H164.48V20.6928H143.92V41.2527V61.8127V82.3727H123.36V61.8127H102.8V41.2527H82.2399H61.6799H41.1199H20.56H0V61.8127H20.56V82.3727H41.1199V102.933H61.6799V123.493H82.2399V144.053H102.8V164.613H123.36H143.92H164.48H185.04V144.053H205.6V123.493H226.16V61.8127Z" fill="black"/>
<path d="M278 49.4328H289.534V75.3835H278V49.4328ZM278 104.343H289.534V115.877H278V104.343ZM289.534 37.8991H335.668V49.4328H289.534V37.8991ZM335.668 86.9171H289.534V75.3835H335.668V86.9171ZM289.534 115.877H335.668V127.41H289.534V115.877ZM335.668 49.4328H347.202V60.9664H335.668V49.4328ZM335.668 86.9171H347.202V115.877H335.668V86.9171Z" fill="black"/>
<path d="M353.7 62.596H365.234V107.226H353.7V62.596ZM365.234 107.226H376.767V118.76H365.234V107.226ZM365.234 136.06H376.767V147.594H365.234V136.06ZM388.301 136.06H376.767V118.76H388.301V136.06ZM388.301 107.226H399.835V118.76H388.301V107.226ZM399.835 62.596H411.368V107.226H399.835V62.596Z" fill="black"/>
<path d="M432.304 74.1297H443.838V85.6633H432.304V127.41H420.771V62.596H432.304V74.1297ZM443.838 62.596H461.138V74.1297H443.838V62.596ZM461.138 74.1297H472.672V127.41H461.138V74.1297Z" fill="black"/>
<path d="M477.206 62.5962H488.74V43.1645H500.273V62.5962H511.807V74.1299H500.273V115.877H488.74V74.1299H477.206V62.5962ZM500.273 127.41V115.877H511.807V127.41H500.273Z" fill="black"/>
<path d="M531.134 74.1297H542.668V85.6633H531.134V127.41H519.601V62.596H531.134V74.1297ZM542.668 62.596H554.202V74.1297H542.668V62.596Z" fill="black"/>
<path d="M553.784 85.6633H565.317V104.343H553.784V85.6633ZM565.317 74.1297H576.851V85.6633H565.317V74.1297ZM565.317 104.343H576.851V115.876H565.317V104.343ZM576.851 62.596H597.035V74.1297H576.851V62.596ZM597.035 127.41H576.851V115.876H597.035V127.41ZM597.035 74.1297H608.569V85.6633H597.035V74.1297ZM597.035 104.343H608.569V115.876H597.035V104.343ZM608.569 85.6633H620.102V104.343H608.569V85.6633Z" fill="black"/>
<path d="M650.336 85.6633H638.803V104.343H650.336V115.876H638.803V153.361H627.269V62.596H638.803V74.1297H650.336V85.6633ZM650.336 62.596H667.637V74.1297H650.336V62.596ZM650.336 115.876H667.637V127.41H650.336V115.876ZM667.637 74.1297H679.17V85.6633H667.637V74.1297ZM667.637 104.343H679.17V115.876H667.637V104.343ZM679.17 85.6633H690.704V104.343H679.17V85.6633Z" fill="black"/>
<path d="M698.017 38.0246H709.551V49.5582H698.017V38.0246ZM709.551 127.41H698.017V62.5963H709.551V127.41Z" fill="black"/>
<path d="M718.682 74.1297H730.215V85.6633H718.682V74.1297ZM730.215 115.876H718.682V97.197H730.215V115.876ZM730.215 62.596H761.933V74.1297H730.215V62.596ZM730.215 85.6633H761.933V74.1297H773.466V115.876H761.933V97.197H730.215V85.6633ZM730.215 115.876H761.933V127.41H730.215V115.876ZM773.466 115.876H785V127.41H773.466V115.876Z" fill="black"/>
</svg>
