<svg width="195" height="195" viewBox="0 0 195 195" fill="none" xmlns="http://www.w3.org/2000/svg">
<path d="M97.5 3C149.691 3 192 45.3091 192 97.5C192 149.691 149.691 192 97.5 192C45.3091 192 3 149.691 3 97.5C3 45.3091 45.3091 3 97.5 3Z" fill="#002B47" stroke="#00FFC8" stroke-width="6"/>
<path d="M158.201 103.891C157.136 99.5011 154.95 95.6495 151.643 92.3287L147.679 88.3485L133.017 73.6097L145.164 61.4117L133.009 49.2058L120.869 61.3957L113.59 54.0785L113.573 54.0946L85.5941 26L73.278 38.3668L108.537 73.7705L97.0213 85.3332L79.6763 67.9168C76.3771 64.6039 72.5573 62.4329 68.2411 61.4117C63.9248 60.3986 59.5846 60.4227 55.2123 61.4922C50.84 62.5616 47.0043 64.7567 43.697 68.0776L43.3767 68.3992C40.0695 71.7201 37.8913 75.5716 36.8183 79.9619C35.7532 84.3522 35.7292 88.7183 36.7382 93.0443C37.7472 97.3863 39.9093 101.206 43.2166 104.527L60.5616 121.943L48.3976 134.157L60.5535 146.363L72.7175 134.149L109.417 171L121.733 158.633L85.0255 121.782L96.8611 109.898L113.405 126.51L115.495 128.609C118.803 131.93 122.638 134.125 127.011 135.194C131.383 136.264 135.755 136.264 140.128 135.194C144.5 134.125 148.336 131.93 151.643 128.609C153.669 126.574 155.278 124.331 156.464 121.887C157.208 120.351 157.793 118.743 158.201 117.046C159.266 112.656 159.266 108.266 158.201 103.883V103.891ZM72.8856 109.592L55.5406 92.1759C54.0512 90.6803 53.2744 88.7827 53.2184 86.475C53.1623 84.1753 53.9391 82.2214 55.5326 80.6132L55.8529 80.2916C57.4545 78.6834 59.4004 77.9115 61.6907 77.9597C63.9809 78.016 65.8788 78.7879 67.3682 80.2916L84.7132 97.708L72.8776 109.592H72.8856ZM139.335 116.258C137.733 117.866 135.819 118.67 133.577 118.67C131.335 118.67 129.421 117.866 127.819 116.258L125.729 114.159L109.185 97.5472L120.7 85.9845L137.245 102.597L139.335 104.695C140.936 106.304 141.729 108.225 141.737 110.477C141.737 112.728 140.936 114.65 139.335 116.258Z" fill="url(#paint0_linear_1204_1614)"/>
<defs>
<linearGradient id="paint0_linear_1204_1614" x1="71.9836" y1="119.571" x2="150.283" y2="97.367" gradientUnits="userSpaceOnUse">
<stop stop-color="#00FFDB"/>
<stop offset="0.27" stop-color="#82B2FF"/>
<stop offset="0.629808" stop-color="#FF00E9"/>
<stop offset="0.889423" stop-color="#8AFF95"/>
</linearGradient>
</defs>
</svg>
