<svg width="26" height="26" viewBox="0 0 26 26" fill="none" xmlns="http://www.w3.org/2000/svg">
<path d="M12.8691 5.88701L19.9091 12.9637M12.8691 5.88701L5.98909 12.9637M12.8691 5.88701L16.857 1.96924C17.2183 1.61435 16.967 1 16.4606 1H9.17272C8.66275 1 8.41315 1.62172 8.78154 1.97435L12.8691 5.88701ZM19.9091 12.9637L13.0291 19.794M19.9091 12.9637L24.031 8.77215C24.3859 8.41117 25 8.66252 25 9.16879V16.6412C25 17.1436 24.3939 17.3967 24.0366 17.0435L19.9091 12.9637ZM13.0291 19.794L17.0784 24.0441C17.4215 24.4042 17.1662 25 16.6688 25H9.14039C8.63485 25 8.38317 24.3875 8.74265 24.032L13.0291 19.794ZM13.0291 19.794L9.53818 16.5021L5.98909 12.9637M5.98909 12.9637L1.95791 16.8421C1.5985 17.1879 1 16.9332 1 16.4345V9.24733C1 8.74022 1.6158 8.48926 1.97026 8.85192L5.98909 12.9637Z" stroke="white" stroke-width="0.565698"/>
</svg>
