<svg width="76" height="26" viewBox="0 0 76 26" fill="none" xmlns="http://www.w3.org/2000/svg">
<g clip-path="url(#clip0_1_1685)">
<path d="M7.04559 7.12467L11.2687 0L15.4972 7.12467L11.2687 9.50131L7.04559 7.12467Z" fill="#00C5C1"/>
<path d="M3.52557 13.0688L5.63981 9.50122L11.2742 12.6666L16.914 9.50122L19.0282 13.0688L11.2742 17.4251L3.52557 13.0688Z" fill="#00C5C1"/>
<path d="M-3.05176e-05 19.0131L2.11421 15.4456L11.2688 20.5906L20.4341 15.4456L22.5376 19.0131L22.2317 19.0758C19.0711 19.7287 14.7192 22.1733 12.5727 24.5133C12.4097 24.69 12.2103 24.8312 11.9875 24.9279C11.7647 25.0246 11.5234 25.0746 11.2795 25.0746C11.0356 25.0746 10.7943 25.0246 10.5715 24.9279C10.3487 24.8312 10.1493 24.69 9.98627 24.5133C7.83983 22.1733 3.47183 19.7287 0.327301 19.0758L-3.05176e-05 19.0131Z" fill="#00C5C1"/>
<path d="M11.2687 9.50131L7.04559 7.12467L11.2687 0V9.50131Z" fill="#009A96"/>
<path d="M11.2742 17.4251L3.52557 13.0688L5.63982 9.50122L11.2742 12.6666V17.4251Z" fill="#009A96"/>
<path d="M11.2688 25.0722C11.0251 25.0719 10.7842 25.022 10.5615 24.9257C10.3388 24.8295 10.1392 24.689 9.97554 24.5133C7.8291 22.1733 3.4611 19.7287 0.316569 19.0758L-3.05176e-05 19.0131L2.11421 15.4456L11.2688 20.5906V25.0722Z" fill="#009A96"/>
<path d="M38.1851 14.4478V14.1866C38.1747 12.9008 38.6824 11.6622 39.5993 10.7365C40.5162 9.81083 41.7692 9.27175 43.0897 9.23489C46.3952 9.1931 48.064 11.6951 48.064 14.5784C48.064 14.7873 48.064 14.991 48.0265 15.2209H40.514C40.5769 15.932 40.9184 16.5923 41.4679 17.0649C42.0174 17.5375 42.7326 17.7862 43.4653 17.7594C43.9855 17.7609 44.5003 17.6562 44.9763 17.4519C45.4523 17.2477 45.879 16.9485 46.2288 16.5737L47.6026 17.7594C47.1004 18.3623 46.4617 18.8438 45.7365 19.1664C45.0113 19.489 44.2193 19.6439 43.4224 19.6189C42.7226 19.639 42.0261 19.5184 41.3764 19.2646C40.7267 19.0109 40.1377 18.6294 39.6462 18.1442C39.1547 17.6589 38.7713 17.0802 38.5199 16.4442C38.2685 15.8082 38.1545 15.1286 38.1851 14.4478ZM45.7459 13.7113C45.5903 12.2435 44.6727 11.0996 43.1541 11.0996C41.7213 11.0996 40.7179 12.1704 40.5032 13.7113H45.7459Z" fill="white"/>
<path d="M56.8805 19.3786H54.541V5.46875L56.2903 6.44552C56.4693 6.54615 56.6181 6.69078 56.7217 6.86495C56.8253 7.03911 56.8801 7.23671 56.8805 7.43796V19.3786Z" fill="white"/>
<path d="M52.1263 19.3786H49.7867V5.46875L51.5146 6.44552C51.6936 6.54615 51.8424 6.69078 51.946 6.86495C52.0495 7.03911 52.1043 7.23671 52.1048 7.43796L52.1263 19.3786Z" fill="white"/>
<path d="M35.1748 19.3786H32.8351V9.23486L34.5845 10.2169C34.7635 10.3162 34.9123 10.4599 35.016 10.6332C35.1196 10.8066 35.1744 11.0035 35.1748 11.2041V19.3786Z" fill="white"/>
<path d="M39.4944 6.07471H28.5154V8.35209H39.4944V6.07471Z" fill="white"/>
<path d="M58.6031 14.4478V14.1866C58.5927 12.9008 59.1004 11.6622 60.0173 10.7365C60.9342 9.81083 62.1872 9.27175 63.5077 9.23489C66.8132 9.1931 68.4821 11.6951 68.4821 14.5784C68.4821 14.7873 68.4821 14.991 68.4445 15.2209H60.932C60.9934 15.9278 61.3308 16.585 61.8748 17.0571C62.4188 17.5293 63.128 17.7807 63.8565 17.7594C64.3772 17.7594 64.8923 17.654 65.369 17.4499C65.8456 17.2458 66.2735 16.9474 66.6254 16.5737L68.0206 17.7594C67.5182 18.357 66.8814 18.834 66.1593 19.1538C65.4373 19.4735 64.6493 19.6273 63.8565 19.6033C63.1568 19.6254 62.46 19.5068 61.8095 19.255C61.159 19.0032 60.5688 18.6235 60.0758 18.1397C59.5828 17.6559 59.1976 17.0784 58.9442 16.4432C58.6908 15.8079 58.5747 15.1287 58.6031 14.4478ZM66.1639 13.7113C66.0083 12.2435 65.0907 11.0996 63.5721 11.0996C62.1393 11.0996 61.1359 12.1704 60.9212 13.7113H66.1639Z" fill="white"/>
<path d="M70.0705 9.23486H71.5247C71.7581 9.23486 71.9819 9.32512 72.147 9.48577C72.312 9.64641 72.4047 9.8643 72.4047 10.0915V19.3786H70.0705V9.23486Z" fill="white"/>
<path d="M76 9.23501V11.4915H72.4047L73.816 9.78868C73.9193 9.61439 74.0679 9.46959 74.2468 9.36875C74.4258 9.26792 74.6288 9.21459 74.8355 9.21411L76 9.23501Z" fill="white"/>
</g>
<defs>
<clipPath id="clip0_1_1685">
<rect width="76" height="25.0722" fill="white"/>
</clipPath>
</defs>
</svg>
