<svg xmlns="http://www.w3.org/2000/svg" width="170" height="37" viewBox="0 0 170 37" fill="none">
  <path d="M169.502 22.098V22.7558C169.502 24.6416 169.326 25.2994 168.69 25.8695C167.989 26.4835 166.914 26.7247 164.831 26.7247C162.485 26.7247 161.366 26.4396 160.599 25.6502C160.095 25.1459 159.81 24.0495 159.875 23.0628L159.897 22.8873L159.919 18.3045H157.77V16.2433H159.941V13.8532H162.879L162.857 16.2433H169.414V18.3045H162.857L162.814 22.4049C162.792 24.2249 163.186 24.5758 165.204 24.5758C166.059 24.5758 166.585 24.4223 166.892 24.1372C167.155 23.8522 167.199 23.5452 167.199 22.4926V22.098H169.502Z" fill="#D5C5FF"/>
  <path d="M157.58 16.0537H159.751V13.6636H163.07L163.068 13.8548L163.048 16.0537H169.603V18.494H163.044L163.003 22.407V22.4073C162.997 22.8581 163.018 23.2033 163.078 23.47C163.138 23.7332 163.234 23.9084 163.371 24.0325C163.509 24.1582 163.71 24.2487 164.011 24.3064C164.314 24.3643 164.702 24.3861 165.203 24.3861V24.5756C163.249 24.5756 162.817 24.2464 162.812 22.5712L162.813 22.4048L162.857 18.3045H169.413V16.2431H162.857L162.879 13.8531H159.941V16.2431H157.77V18.3045H159.919L159.897 22.8873L159.875 23.0627L159.867 23.2488C159.845 24.1841 160.126 25.1772 160.599 25.65C161.366 26.4394 162.484 26.7245 164.83 26.7245C166.848 26.7245 167.92 26.4983 168.623 25.926L168.69 25.8695C169.326 25.2994 169.501 24.6414 169.501 22.7556V22.098H167.199V22.4926L167.196 22.8539C167.184 23.6215 167.122 23.8878 166.892 24.1372C166.585 24.4222 166.058 24.5756 165.203 24.5756V24.3861C166.04 24.3861 166.503 24.2345 166.757 24.0024C166.859 23.8907 166.92 23.7772 166.957 23.569C166.998 23.3444 167.009 23.0213 167.009 22.4926V21.9085H169.691V22.7556C169.691 23.6996 169.647 24.3571 169.517 24.854C169.384 25.3627 169.161 25.7016 168.816 26.0104L168.814 26.0121C168.055 26.6765 166.914 26.914 164.83 26.914C162.483 26.914 161.291 26.6329 160.464 25.7839C160.18 25.4995 159.971 25.0645 159.84 24.5874C159.709 24.1067 159.651 23.5648 159.686 23.0501L159.686 23.0447L159.687 23.0391L159.707 22.8743L159.728 18.494H157.58V16.0537Z" fill="#D5C5FF"/>
  <path d="M156.254 21.9444H145.663C145.685 23.1285 145.883 23.874 146.277 24.2468C146.716 24.6415 147.922 24.8169 150.071 24.8169C152.483 24.8169 153.228 24.488 153.382 23.3258H156.232C156.189 24.4442 155.882 25.1897 155.246 25.716C154.347 26.4396 152.899 26.7027 149.852 26.7027C147.505 26.7027 145.663 26.5053 144.874 26.1545C143.295 25.4309 142.703 24.181 142.703 21.4401C142.703 19.2254 143.076 17.9755 143.953 17.1642C144.874 16.309 146.212 16.0678 149.786 16.0678C153.097 16.0678 154.391 16.3748 155.268 17.3396C155.991 18.1729 156.254 19.1815 156.254 21.2647V21.9444ZM145.663 20.2341H153.382C153.382 19.642 153.316 19.3131 153.119 18.9403C152.965 18.6553 152.746 18.436 152.527 18.3264C152.022 18.1071 151.058 17.9536 149.983 17.9536C147.768 17.9536 147.133 18.0194 146.519 18.3483C145.992 18.6333 145.663 19.3131 145.663 20.1025V20.2341Z" fill="#D5C5FF"/>
  <path d="M156.254 21.9446V21.2648C156.254 19.2467 156.007 18.2369 155.334 17.4182L155.268 17.3396C154.39 16.3748 153.096 16.0679 149.785 16.0679C146.211 16.0679 144.874 16.3091 143.953 17.1642L143.872 17.2417C143.053 18.0547 142.703 19.2948 142.703 21.4402L142.705 21.6928C142.741 24.2587 143.344 25.4536 144.874 26.1546C145.614 26.4835 147.279 26.6776 149.417 26.7005L149.851 26.7028C152.899 26.7028 154.346 26.4395 155.245 25.7159C155.881 25.1896 156.188 24.4441 156.232 23.3258H153.382C153.228 24.488 152.483 24.8168 150.071 24.8168V24.6274C151.279 24.6274 152.03 24.5432 152.495 24.3343C152.722 24.2329 152.875 24.1043 152.981 23.9442C153.089 23.7818 153.158 23.5739 153.194 23.3011L153.215 23.1364H156.429L156.422 23.3334C156.376 24.4853 156.057 25.2904 155.366 25.8621L155.364 25.8635C154.406 26.6347 152.891 26.8922 149.851 26.8922C148.674 26.8922 147.619 26.8427 146.758 26.7485C145.903 26.655 145.22 26.5158 144.797 26.3278L144.795 26.3269C143.971 25.9495 143.392 25.4264 143.024 24.6335C142.662 23.8505 142.513 22.8198 142.513 21.4402C142.513 19.2126 142.886 17.8927 143.824 17.0253L143.918 16.9416C144.393 16.5322 144.975 16.2703 145.84 16.1091C146.755 15.9385 147.998 15.8784 149.785 15.8784C152.984 15.8784 154.379 16.1595 155.318 17.1173L155.408 17.2122L155.409 17.2139L155.41 17.2153C156.18 18.102 156.444 19.1698 156.444 21.2648V22.134H145.858C145.876 22.6285 145.928 23.0311 146.013 23.3511C146.109 23.7106 146.243 23.9531 146.405 24.107C146.58 24.2635 146.94 24.4002 147.56 24.4926C148.172 24.5838 149 24.6274 150.071 24.6274V24.8168L149.679 24.8149C147.837 24.7948 146.761 24.6286 146.32 24.2833L146.277 24.2468C145.882 23.874 145.685 23.1286 145.663 21.9446H156.254ZM149.983 17.9535C151.057 17.9535 152.022 18.1073 152.526 18.3265C152.746 18.4362 152.965 18.6553 153.119 18.9404C153.316 19.3131 153.382 19.6421 153.382 20.2341H145.663V20.1024C145.663 19.3131 145.992 18.6335 146.518 18.3484C147.132 18.0195 147.768 17.9535 149.983 17.9535ZM149.983 18.1433C147.755 18.1433 147.172 18.2133 146.608 18.5154C146.175 18.7504 145.87 19.3256 145.854 20.0446H153.189C153.176 19.5919 153.108 19.3269 152.952 19.0302L152.897 18.937C152.766 18.7297 152.601 18.5773 152.447 18.4986C151.977 18.2955 151.045 18.1433 149.983 18.1433Z" fill="#D5C5FF"/>
  <path d="M126.855 26.5273V16.2433H129.683V18.4799C130.341 16.5064 131.416 15.9801 134.683 15.9801C137.117 15.9801 138.433 16.3529 139.288 17.2958C139.946 18.0413 140.187 18.9404 140.187 20.6507V26.5273H137.292V20.7823C137.292 18.8307 136.569 18.3264 133.806 18.3264C130.78 18.3264 129.749 19.0938 129.749 21.3305V26.5273H126.855Z" fill="#D5C5FF"/>
  <path d="M140.187 20.6507C140.187 18.9938 139.96 18.0983 139.348 17.3661L139.287 17.2957C138.432 16.3528 137.116 15.9801 134.683 15.9801C131.415 15.9801 130.341 16.5064 129.683 18.4799V16.2431H126.855V26.5272H129.749V21.3305C129.749 19.0939 130.78 18.3264 133.806 18.3264L134.059 18.3278C136.613 18.3592 137.292 18.8918 137.292 20.7824V26.5272H140.187V20.6507ZM129.873 17.5486C130.172 17.0008 130.562 16.5984 131.12 16.3203C131.922 15.9205 133.048 15.7907 134.683 15.7906C137.049 15.7906 138.427 16.1392 139.341 17.0759L139.428 17.1685L139.43 17.1705C140.133 17.9681 140.376 18.9246 140.376 20.6507V26.7169H137.103V20.7824C137.103 19.8208 136.922 19.2915 136.476 18.9776C136.244 18.8148 135.925 18.6977 135.484 18.6225C135.043 18.5473 134.492 18.5158 133.806 18.5158C132.297 18.5158 131.338 18.7098 130.755 19.1418C130.19 19.561 129.938 20.2378 129.938 21.3305V26.7169H126.665V16.0537H129.873V17.5486Z" fill="#D5C5FF"/>
  <path d="M117.191 16.0459C120.809 16.0459 122.388 16.3529 123.353 17.2519C124.121 17.9755 124.362 18.9842 124.362 21.5716C124.362 23.3916 124.011 24.8608 123.441 25.4309C123.068 25.8037 122.432 26.1545 121.906 26.308C121.095 26.5492 119.055 26.7246 117.082 26.7246C111.249 26.7246 110.197 25.9133 110.197 21.3524C110.197 19.028 110.504 17.8878 111.293 17.1861C111.666 16.8572 112.258 16.5722 112.85 16.4187C113.617 16.2213 115.722 16.0459 117.191 16.0459ZM117.696 18.2387C115.13 18.2387 114.187 18.4141 113.705 18.9842C113.288 19.4447 113.135 20.1244 113.135 21.4182C113.135 24.0714 113.705 24.5319 116.95 24.5319C119.033 24.5319 119.998 24.4222 120.502 24.1372C121.182 23.7425 121.423 23.0408 121.423 21.4839C121.423 18.7211 120.875 18.2387 117.696 18.2387Z" fill="#D5C5FF"/>
  <path d="M110.007 21.3523C110.007 19.0272 110.31 17.8067 111.167 17.0446L111.167 17.0441C111.568 16.6902 112.19 16.3941 112.802 16.2354L112.802 16.2351C113.203 16.1321 113.935 16.0381 114.741 15.9696C115.551 15.9007 116.45 15.8565 117.191 15.8565C119.003 15.8565 120.317 15.9331 121.303 16.1259C122.232 16.3074 122.881 16.5939 123.383 17.0253L123.482 17.1134L123.483 17.1142C124.316 17.9 124.551 18.9906 124.551 21.5718C124.551 22.4929 124.462 23.3304 124.299 24.014C124.138 24.6909 123.897 25.2423 123.575 25.5648C123.176 25.9636 122.51 26.3291 121.959 26.49L121.958 26.4897C121.533 26.6161 120.804 26.7216 119.946 26.7956C119.082 26.8701 118.073 26.9141 117.082 26.9141C115.621 26.9141 114.449 26.8635 113.515 26.7137C112.581 26.5639 111.867 26.3125 111.335 25.8983C110.263 25.0626 110.007 23.6255 110.007 21.3523ZM113.135 21.4183C113.135 20.1246 113.288 19.4446 113.705 18.9842C114.187 18.414 115.13 18.2387 117.696 18.2387L117.986 18.2401C120.909 18.271 121.423 18.8074 121.423 21.4839C121.423 23.0408 121.182 23.7426 120.502 24.1373L120.454 24.1634C119.937 24.429 118.968 24.5319 116.95 24.5319V24.3424C117.99 24.3424 118.743 24.315 119.297 24.2532C119.854 24.1911 120.19 24.0958 120.409 23.9722C120.707 23.7987 120.908 23.5618 121.039 23.1843C121.173 22.7957 121.234 22.2569 121.234 21.4839C121.234 20.7964 121.199 20.266 121.103 19.8543C121.008 19.4463 120.856 19.1674 120.627 18.9682C120.396 18.7666 120.067 18.629 119.586 18.5438C119.105 18.4584 118.488 18.4281 117.696 18.4281C116.413 18.4281 115.552 18.4723 114.954 18.5839C114.36 18.6947 114.052 18.8676 113.849 19.1065L113.847 19.1091L113.845 19.1113C113.481 19.5141 113.324 20.1271 113.324 21.4183C113.324 22.7545 113.475 23.4399 113.945 23.8232C114.183 24.0172 114.522 24.1496 115.016 24.2316C115.509 24.3135 116.141 24.3424 116.95 24.3424V24.5319C113.806 24.5319 113.173 24.0997 113.136 21.6605L113.135 21.4183ZM110.196 21.3523C110.196 25.9132 111.249 26.7246 117.082 26.7246C119.055 26.7246 121.094 26.5493 121.906 26.3081C122.399 26.1642 122.989 25.8468 123.368 25.5006L123.44 25.4309C123.975 24.8965 124.317 23.5718 124.357 21.9086L124.361 21.5718C124.361 18.9844 124.12 17.9757 123.353 17.252C122.448 16.4092 121.004 16.0866 117.846 16.0496L117.191 16.0459C115.722 16.0459 113.617 16.2213 112.85 16.4187C112.258 16.5722 111.665 16.8572 111.293 17.1861C110.503 17.8878 110.196 19.0281 110.196 21.3523Z" fill="#D5C5FF"/>
  <path d="M93.8765 26.5274V11.8578H96.7709V17.9976C97.4507 16.5284 98.6347 16.046 101.573 16.046C106.858 16.046 108.064 17.0108 108.064 21.3086C108.064 24.1811 107.669 25.2994 106.419 26.0011C105.498 26.5055 104.095 26.7247 101.661 26.7247C98.4374 26.7247 97.4726 26.3081 96.7709 24.7074V26.5274H93.8765ZM101.507 18.2607C97.4287 18.2607 96.8148 18.6554 96.8148 21.3744C96.8148 24.0496 97.3849 24.51 100.652 24.51C101.924 24.51 103.218 24.4223 103.612 24.3127C104.753 24.0057 105.147 23.2821 105.147 21.4621C105.147 18.7869 104.555 18.2607 101.507 18.2607Z" fill="#D5C5FF"/>
  <path d="M108.064 21.3084C108.064 17.145 106.932 16.1096 102.057 16.049L101.573 16.0459C98.6351 16.0459 97.4509 16.5283 96.7711 17.9975V11.8578H93.8767V26.5272H96.7711V24.7073C97.4728 26.308 98.4376 26.7246 101.661 26.7246C104.095 26.7246 105.498 26.5053 106.419 26.0009C107.63 25.3212 108.038 24.2506 108.063 21.5729L108.064 21.3084ZM96.8149 21.3744C96.8149 18.6554 97.429 18.2605 101.507 18.2605C104.555 18.2605 105.147 18.7869 105.147 21.462C105.147 23.282 104.753 24.0056 103.613 24.3126L103.528 24.3328C103.056 24.4328 101.845 24.5099 100.652 24.5099V24.3205C101.284 24.3205 101.921 24.2985 102.449 24.2632C102.983 24.2274 103.386 24.179 103.562 24.1302L103.563 24.1296C104.098 23.9855 104.431 23.7534 104.641 23.3647C104.859 22.9614 104.958 22.3654 104.958 21.462C104.958 20.1168 104.803 19.4034 104.345 19.0004C104.116 18.7982 103.793 18.6586 103.327 18.5709C102.861 18.4831 102.266 18.4502 101.507 18.4502C100.489 18.4502 99.6958 18.4748 99.0773 18.5527C98.4571 18.6308 98.0322 18.7605 97.7364 18.956C97.1665 19.3328 97.0044 20.0063 97.0044 21.3744C97.0044 22.7219 97.1554 23.4125 97.6284 23.7984C97.8678 23.9937 98.2085 24.127 98.7054 24.2093C99.2022 24.2916 99.8378 24.3205 100.652 24.3205V24.5099L100.354 24.5085C97.4469 24.4799 96.852 23.9985 96.8166 21.6186L96.8149 21.3744ZM96.9606 17.2927C97.2807 16.8505 97.6934 16.523 98.254 16.2951C99.0381 15.9764 100.1 15.8564 101.573 15.8564C102.898 15.8564 103.978 15.9169 104.851 16.0776C105.725 16.2384 106.405 16.5019 106.919 16.9182C107.956 17.7572 108.253 19.1585 108.253 21.3084C108.253 22.7478 108.155 23.773 107.889 24.5316C107.618 25.3039 107.175 25.7942 106.512 26.1663L106.51 26.1671C105.543 26.6967 104.096 26.914 101.661 26.914C100.05 26.914 98.968 26.8116 98.1976 26.4913C97.6479 26.2628 97.2653 25.9269 96.9606 25.4648V26.7167H93.6873V11.6683H96.9606V17.2927Z" fill="#D5C5FF"/>
  <path d="M84.2134 16.0459C87.8315 16.0459 89.4102 16.3529 90.3751 17.2519C91.1425 17.9755 91.3837 18.9842 91.3837 21.5716C91.3837 23.3916 91.0329 24.8608 90.4628 25.4309C90.09 25.8037 89.4541 26.1545 88.9278 26.308C88.1165 26.5492 86.0772 26.7246 84.1038 26.7246C78.271 26.7246 77.2185 25.9133 77.2185 21.3524C77.2185 19.028 77.5255 17.8878 78.3149 17.1861C78.6877 16.8572 79.2797 16.5722 79.8717 16.4187C80.6392 16.2213 82.7443 16.0459 84.2134 16.0459ZM84.7177 18.2387C82.1522 18.2387 81.2093 18.4141 80.7269 18.9842C80.3103 19.4447 80.1568 20.1244 80.1568 21.4182C80.1568 24.0714 80.7269 24.5319 83.9722 24.5319C86.0553 24.5319 87.0201 24.4222 87.5245 24.1372C88.2042 23.7425 88.4454 23.0408 88.4454 21.4839C88.4454 18.7211 87.8972 18.2387 84.7177 18.2387Z" fill="#D5C5FF"/>
  <path d="M77.0288 21.3523C77.0288 19.0272 77.3315 17.8067 78.1889 17.0446L78.1892 17.0441C78.5902 16.6902 79.2119 16.3941 79.8239 16.2354L79.8244 16.2351C80.2251 16.1321 80.9574 16.0381 81.7631 15.9696C82.5731 15.9007 83.4722 15.8565 84.2132 15.8565C86.0247 15.8565 87.339 15.9331 88.3253 16.1259C89.2537 16.3074 89.9027 16.5939 90.4054 17.0253L90.504 17.1134L90.5048 17.1142C91.3382 17.9 91.5731 18.9906 91.5731 21.5718C91.5731 22.4929 91.4842 23.3304 91.321 24.014C91.1595 24.6909 90.919 25.2423 90.5966 25.5648C90.1978 25.9636 89.5324 26.3291 88.9807 26.49L88.9804 26.4897C88.5547 26.6161 87.8259 26.7216 86.9676 26.7956C86.104 26.8701 85.0954 26.9141 84.1035 26.9141C82.6432 26.9141 81.4714 26.8635 80.5371 26.7137C79.6031 26.5639 78.889 26.3125 78.3573 25.8983C77.2845 25.0626 77.0288 23.6255 77.0288 21.3523ZM80.1565 21.4183C80.1565 20.1246 80.3099 19.4446 80.7266 18.9842C81.209 18.414 82.1521 18.2387 84.7176 18.2387L85.0079 18.2401C87.9307 18.271 88.4451 18.8074 88.4451 21.4839C88.4451 23.0408 88.204 23.7426 87.5242 24.1373L87.4756 24.1634C86.9586 24.429 85.99 24.5319 83.9718 24.5319V24.3424C85.0117 24.3424 85.7654 24.315 86.3192 24.2532C86.8756 24.1911 87.2124 24.0958 87.431 23.9722C87.7289 23.7987 87.9298 23.5618 88.0606 23.1843C88.1952 22.7957 88.2557 22.2569 88.2557 21.4839C88.2557 20.7964 88.2214 20.266 88.1254 19.8543C88.0304 19.4463 87.8777 19.1674 87.6491 18.9682C87.4179 18.7666 87.0892 18.629 86.6083 18.5438C86.1269 18.4584 85.5101 18.4281 84.7176 18.4281C83.4353 18.4281 82.5735 18.4723 81.9756 18.5839C81.3819 18.6947 81.0736 18.8676 80.8714 19.1065L80.8694 19.1091L80.8672 19.1113C80.5027 19.5141 80.346 20.1271 80.346 21.4183C80.346 22.7545 80.4969 23.4399 80.9671 23.8232C81.2052 24.0172 81.544 24.1496 82.0376 24.2316C82.5314 24.3135 83.1627 24.3424 83.9718 24.3424V24.5319C80.8281 24.5319 80.1947 24.0997 80.1582 21.6605L80.1565 21.4183ZM77.2183 21.3523C77.2183 25.9132 78.2708 26.7246 84.1035 26.7246C86.077 26.7246 88.1163 26.5493 88.9276 26.3081C89.421 26.1642 90.0108 25.8468 90.3897 25.5006L90.4624 25.4309C90.9969 24.8965 91.3388 23.5718 91.3794 21.9086L91.3834 21.5718C91.3834 18.9844 91.1423 17.9757 90.3749 17.252C89.4703 16.4092 88.0262 16.0866 84.8681 16.0496L84.2132 16.0459C82.7441 16.0459 80.6391 16.2213 79.8716 16.4187C79.2796 16.5722 78.6874 16.8572 78.3146 17.1861C77.5252 17.8878 77.2183 19.0281 77.2183 21.3523Z" fill="#D5C5FF"/>
  <path d="M56.9011 26.5273V11.9016H69.2902C71.8557 11.9016 73.0179 12.2085 73.8073 13.0637C74.4432 13.7654 74.7502 14.9056 74.7502 16.5721C74.7502 18.1729 74.5528 19.0719 74.1143 19.6201C73.6757 20.1683 73.1495 20.4314 72.2724 20.5849C74.1143 20.7384 74.5309 21.3085 74.509 23.6328V26.5273H71.1102V24.3345C71.0663 22.3391 70.6059 21.9444 68.3912 21.9663H60.256V26.5273H56.9011ZM60.256 19.2692H68.2815C70.7374 19.2692 71.3514 18.8307 71.3514 17.0765C71.3514 15.0591 70.8471 14.6425 68.3473 14.6425H60.256V19.2692Z" fill="#D5C5FF"/>
  <path d="M74.75 16.5723C74.75 14.9579 74.462 13.8372 73.8658 13.1308L73.8071 13.0638C73.0671 12.2621 71.9993 11.9422 69.7549 11.9054L69.2901 11.9017V11.7123C71.7765 11.7123 73.018 11.9964 73.8655 12.851L73.9464 12.9355L73.9475 12.9366C74.6315 13.6914 74.9394 14.8912 74.9394 16.5723C74.9394 18.1751 74.7449 19.1347 74.2619 19.7385C73.9624 20.1128 73.624 20.3621 73.1885 20.535C73.6484 20.6535 73.9975 20.8492 74.2422 21.1829C74.6157 21.6922 74.7092 22.4782 74.6983 23.6347V26.7169H70.9206V24.3389L70.915 24.1562C70.8812 23.2718 70.7472 22.8039 70.4403 22.5372C70.2763 22.3946 70.0458 22.2945 69.7097 22.2329C69.3726 22.1712 68.9429 22.1506 68.3927 22.156H60.4454V26.7169H56.7114V11.7123H69.2901V11.9017H56.9009V26.5274H60.2559V21.9665H68.391L68.5934 21.9657C70.634 21.9708 71.0676 22.4016 71.11 24.3347V26.5274H74.5089V23.633C74.5308 21.3087 74.114 20.7385 72.2721 20.585C73.0944 20.4411 73.6085 20.2009 74.0309 19.7197L74.1139 19.6203C74.5251 19.1064 74.7244 18.284 74.7477 16.8642L74.75 16.5723ZM71.1617 17.0767C71.1617 16.0645 71.0294 15.5448 70.6671 15.2503C70.4824 15.1002 70.22 14.9934 69.838 14.9258C69.4558 14.8582 68.9687 14.8321 68.347 14.8321H60.4454V19.08H68.2813V19.2694H60.2559V14.6426H68.347C70.8467 14.6426 71.3511 15.0594 71.3511 17.0767L71.3495 17.2373C71.3111 18.8578 70.6604 19.2694 68.2813 19.2694V19.08C68.8913 19.08 69.3778 19.0527 69.7653 18.9868C70.153 18.9209 70.4289 18.8181 70.627 18.6766C71.0076 18.4048 71.1617 17.9425 71.1617 17.0767Z" fill="#D5C5FF"/>
  <path d="M11.5287 22.757V5.02408H3.35341V34.5416H41.5047V28.0519H16.8306C13.9025 28.0519 11.5287 25.6813 11.5287 22.757Z" fill="#D5C5FF"/>
  <path fill-rule="evenodd" clip-rule="evenodd" d="M35.0489 7.11803H9.39109C7.67832 7.11803 6.64588 7.12129 5.87746 7.18398C5.34662 7.2273 5.14667 7.28727 5.10311 7.30311C4.79151 7.46298 4.53786 7.71629 4.37778 8.02748C4.36191 8.07098 4.30187 8.27066 4.25849 8.8008C4.19571 9.5682 4.19245 10.5993 4.19245 12.3098V27.0476C4.19245 28.7581 4.19571 29.7892 4.25849 30.5566C4.30187 31.0867 4.36192 31.2864 4.37778 31.3299C4.53787 31.6411 4.79152 31.8944 5.10312 32.0543C5.14669 32.0701 5.34665 32.1301 5.87746 32.1734C6.64588 32.2361 7.67832 32.2393 9.39109 32.2393H35.0489C36.7617 32.2393 37.7941 32.2361 38.5625 32.1734C39.0934 32.1301 39.2933 32.0701 39.3369 32.0542C39.6485 31.8944 39.9021 31.6411 40.0622 31.3299C40.0781 31.2864 40.1381 31.0867 40.1815 30.5566C40.2443 29.7892 40.2475 28.7581 40.2475 27.0476V12.3098C40.2475 10.5993 40.2443 9.5682 40.1815 8.8008C40.1381 8.27068 40.0781 8.07099 40.0622 8.02749C39.9021 7.7163 39.6485 7.46298 39.3369 7.30312C39.2933 7.28727 39.0934 7.2273 38.5625 7.18398C37.7941 7.12129 36.7617 7.11803 35.0489 7.11803ZM39.3465 7.30708C39.3463 7.30715 39.3431 7.30599 39.3377 7.30341C39.344 7.30572 39.3467 7.30701 39.3465 7.30708ZM40.0582 8.01787C40.0583 8.01767 40.0596 8.0204 40.0619 8.02669C40.0593 8.02121 40.0582 8.01807 40.0582 8.01787ZM5.09349 32.0503C5.09369 32.0502 5.09685 32.0514 5.10233 32.054C5.09603 32.0516 5.09329 32.0504 5.09349 32.0503ZM4.38175 31.3395C4.38168 31.3397 4.38039 31.337 4.37808 31.3307C4.38067 31.3362 4.38183 31.3393 4.38175 31.3395ZM4.38175 8.01787C4.38182 8.01807 4.38038 8.02199 4.37778 8.02748C4.3801 8.02119 4.38168 8.01767 4.38175 8.01787ZM5.09349 7.30708C5.09329 7.30701 5.09682 7.30543 5.10311 7.30311C5.09762 7.30571 5.09369 7.30715 5.09349 7.30708ZM0.63973 6.13166C0 7.38553 0 9.02694 0 12.3098V27.0476C0 30.3304 0 31.9718 0.63973 33.2257C1.20245 34.3286 2.10036 35.2254 3.20477 35.7873C4.46031 36.4262 6.1039 36.4262 9.39109 36.4262H35.0489C38.3361 36.4262 39.9797 36.4262 41.2352 35.7873C42.3396 35.2254 43.2375 34.3286 43.8003 33.2257C44.44 31.9718 44.44 30.3304 44.44 27.0476V12.3098C44.44 9.02694 44.44 7.38553 43.8003 6.13166C43.2375 5.02872 42.3396 4.132 41.2352 3.57003C39.9797 2.93115 38.3361 2.93115 35.0489 2.93115H9.39109C6.1039 2.93115 4.46031 2.93115 3.20477 3.57003C2.10036 4.132 1.20245 5.02872 0.63973 6.13166Z" fill="#D5C5FF"/>
  <path d="M18.8667 13.7309C18.8667 12.8536 19.5788 12.1424 20.4572 12.1424H22.307C23.1855 12.1424 23.8976 12.8536 23.8976 13.7309V21.4398C23.8976 22.3171 23.1855 23.0283 22.307 23.0283H20.4572C19.5788 23.0283 18.8667 22.3171 18.8667 21.4398V13.7309Z" fill="#D5C5FF"/>
  <path d="M18.8667 1.58847C18.8667 0.711184 19.5788 0 20.4572 0H22.307C23.1855 0 23.8976 0.711184 23.8976 1.58847V5.11054C23.8976 5.98783 23.1855 6.69901 22.307 6.69901H20.4572C19.5788 6.69901 18.8667 5.98783 18.8667 5.11054V1.58847Z" fill="#D5C5FF"/>
  <path d="M30.1859 13.7309C30.1859 12.8536 30.898 12.1424 31.7765 12.1424H33.6262C34.5047 12.1424 35.2168 12.8536 35.2168 13.7309V21.4398C35.2168 22.3171 34.5047 23.0283 33.6262 23.0283H31.7765C30.898 23.0283 30.1859 22.3171 30.1859 21.4398V13.7309Z" fill="#D5C5FF"/>
</svg>