<svg width="72" height="72" viewBox="0 0 72 72" fill="none" xmlns="http://www.w3.org/2000/svg">
<path fill-rule="evenodd" clip-rule="evenodd" d="M36 69C54.2254 69 69 54.2254 69 36C69 17.7746 54.2254 3 36 3C17.7746 3 3 17.7746 3 36C3 54.2254 17.7746 69 36 69ZM36 72C55.8822 72 72 55.8822 72 36C72 16.1177 55.8822 0 36 0C16.1177 0 0 16.1177 0 36C0 55.8822 16.1177 72 36 72Z" fill="white"/>
<path fill-rule="evenodd" clip-rule="evenodd" d="M40.9089 57.5466C52.8081 57.5466 62.4544 47.9004 62.4544 36.0011C62.4544 24.1019 52.8081 14.4557 40.9089 14.4557C29.0097 14.4557 19.3635 24.1019 19.3635 36.0011C19.3635 47.9004 29.0097 57.5466 40.9089 57.5466ZM40.9089 60.5466C54.465 60.5466 65.4544 49.5572 65.4544 36.0011C65.4544 22.4451 54.465 11.4557 40.9089 11.4557C27.3529 11.4557 16.3635 22.4451 16.3635 36.0011C16.3635 49.5572 27.3529 60.5466 40.9089 60.5466Z" fill="white"/>
<path fill-rule="evenodd" clip-rule="evenodd" d="M36 46.0909C41.573 46.0909 46.0909 41.573 46.0909 36C46.0909 30.4269 41.573 25.9091 36 25.9091C30.4269 25.9091 25.9091 30.4269 25.9091 36C25.9091 41.573 30.4269 46.0909 36 46.0909ZM36 49.0909C43.2299 49.0909 49.0909 43.2299 49.0909 36C49.0909 28.7701 43.2299 22.9091 36 22.9091C28.7701 22.9091 22.9091 28.7701 22.9091 36C22.9091 43.2299 28.7701 49.0909 36 49.0909Z" fill="white"/>
</svg>
