<svg xmlns="http://www.w3.org/2000/svg" width="64" height="64" fill="none"><path fill="#01161B" d="M0 0h64v64H0z"/><path fill="#fff" d="M31.674 9C19.17 9 9 19.17 9 31.674s10.17 22.674 22.674 22.674 22.674-10.17 22.674-22.674S44.178 9 31.674 9Zm12.72 36.034c-.03.03-.316.291-1.346.236-1.03-.056-2.463-.429-4.238-1.235-3.53-1.595-7.85-4.636-12.02-8.8-.384-.384-.744-.763-1.11-1.147l-.1-.118h14.577l.086.118c1.992 2.817 3.333 5.417 3.965 7.502.795 2.594.249 3.375.18 3.444h.007Zm-26.44.565c-.068-.069-.614-.85.18-3.444.64-2.085 1.973-4.685 3.965-7.503h.186a60.29 60.29 0 0 0 2.464 2.631 58.355 58.355 0 0 0 4.406 3.978c-1.992 1.433-3.904 2.563-5.622 3.345-1.775.8-3.208 1.172-4.239 1.234-1.03.056-1.315-.204-1.346-.235l.006-.006Zm0-26.435c.031-.03.317-.292 1.347-.236 1.03.056 2.463.428 4.238 1.235 1.576.714 3.313 1.725 5.12 2.985a58.11 58.11 0 0 0-2.743 2.569 57.008 57.008 0 0 0-3.885 4.294c-1.955-2.78-3.27-5.343-3.897-7.403-.794-2.594-.248-3.376-.18-3.444Zm21.812 11.917H24.892a57.518 57.518 0 0 1 3.059-3.323c4.163-4.163 8.489-7.204 12.02-8.799 1.774-.8 3.207-1.172 4.238-1.234 1.03-.056 1.315.204 1.346.235.031.031.223.236.242.968.019.751-.167 1.83-.676 3.233-.919 2.532-2.743 5.656-5.355 8.92Zm2.655-16c-3.202.701-7.29 2.867-11.473 6.156-4.313-3.115-8.408-4.977-11.405-5.175a19.692 19.692 0 0 1 12.125-4.17c3.965 0 7.65 1.172 10.753 3.19Zm-27.532 6.13c.347 3.004 2.234 6.994 5.293 11.177-2.693 3.68-4.48 7.216-5.107 10.058a19.678 19.678 0 0 1-3.196-10.76c0-3.965 1.105-7.433 3.01-10.474Zm6.292 27.242c2.929-.664 6.584-2.538 10.369-5.361 4.182 2.997 8.153 4.802 11.101 5.044a19.705 19.705 0 0 1-10.983 3.339 19.63 19.63 0 0 1-10.487-3.022Zm26.323-4.909c-.162-2.947-1.961-6.993-5.008-11.262 3.146-4.058 5.225-8.005 5.92-11.126a19.677 19.677 0 0 1 3.046 10.524c0 4.443-1.47 8.55-3.959 11.858v.007Z"/></svg>