<svg width="176" height="41" viewBox="0 0 176 41" fill="none" xmlns="http://www.w3.org/2000/svg">
<path d="M39.2557 20.4599C39.2557 24.3313 38.1158 28.1157 35.9802 31.3347C33.8446 34.5536 30.8092 37.0625 27.2578 38.544C23.7064 40.0255 19.7986 40.4131 16.0285 39.6579C12.2584 38.9026 8.79527 37.0383 6.07716 34.3009C3.35905 31.5634 1.50799 28.0756 0.75807 24.2786C0.0081456 20.4816 0.393034 16.5459 1.86406 12.9692C3.33509 9.39247 5.8262 6.33541 9.02235 4.18458C12.2185 2.03374 15.9762 0.885742 19.8202 0.885742C24.9748 0.885742 29.9183 2.94801 33.5632 6.61887C37.208 10.2897 39.2557 15.2685 39.2557 20.4599Z" fill="#0A0A0A"/>
<path d="M19.8194 40.2312C15.9369 40.2312 12.1416 39.0717 8.91344 36.8993C5.68526 34.7269 3.16919 31.6392 1.68342 28.0267C0.197654 24.4141 -0.191092 20.439 0.566347 16.604C1.32379 12.7689 3.19339 9.24618 5.93874 6.48126C8.68408 3.71634 12.1819 1.8334 15.9898 1.07056C19.7977 0.307723 23.7447 0.69924 27.3316 2.1956C30.9186 3.69197 33.9844 6.22597 36.1414 9.47717C38.2984 12.7284 39.4497 16.5508 39.4497 20.4609C39.4435 25.7024 37.3734 30.7274 33.6933 34.4337C30.0133 38.14 25.0238 40.225 19.8194 40.2312ZM19.8194 1.08295C16.014 1.08295 12.294 2.21945 9.12983 4.34873C5.9657 6.47801 3.49956 9.50444 2.04327 13.0453C0.586975 16.5862 0.205943 20.4824 0.948353 24.2414C1.69076 28.0004 3.52327 31.4532 6.21415 34.1632C8.90502 36.8733 12.3334 38.7189 16.0658 39.4666C19.7981 40.2143 23.6668 39.8305 27.1826 38.3639C30.6984 36.8972 33.7034 34.4135 35.8176 31.2268C37.9318 28.0401 39.0602 24.2935 39.0602 20.4609C39.0547 15.3231 37.0258 10.3973 33.4187 6.76413C29.8116 3.13095 24.9209 1.08711 19.8194 1.08099V1.08295Z" fill="#F7F7F7"/>
<path fill-rule="evenodd" clip-rule="evenodd" d="M31.9166 25.0298C31.9121 26.6441 31.2735 28.191 30.1402 29.3326C29.0069 30.4743 27.4711 31.1179 25.8683 31.1229H21.3287V35.6731H18.3102V31.1229H13.7707C12.1678 31.1179 10.6319 30.4743 9.49861 29.3327C8.36527 28.191 7.72655 26.6441 7.72192 25.0298H10.7459C10.7483 25.837 11.0677 26.6104 11.6345 27.1812C12.2012 27.752 12.9692 28.0737 13.7707 28.0761H25.8683C26.6705 28.0761 27.4398 27.7552 28.0071 27.1839C28.5744 26.6126 28.893 25.8377 28.893 25.0298C28.893 24.2218 28.5744 23.447 28.0071 22.8757C27.4398 22.3044 26.6705 21.9834 25.8683 21.9834H13.7707C12.1745 21.9705 10.6481 21.3229 9.52388 20.1816C8.39971 19.0403 7.76891 17.4978 7.76891 15.8901C7.76891 14.2825 8.39971 12.74 9.52388 11.5987C10.6481 10.4574 12.1745 9.80977 13.7707 9.79687H18.3102V5.24854H21.3287V9.79883H25.8683C27.4708 9.8038 29.0063 10.4471 30.1395 11.5883C31.2727 12.7296 31.9116 14.276 31.9166 15.89H28.8926C28.8904 15.0828 28.571 14.3093 28.0043 13.7385C27.4377 13.1677 26.6697 12.846 25.8683 12.8436H13.7707C12.9744 12.8527 12.2137 13.1777 11.6538 13.748C11.0939 14.3184 10.7799 15.0881 10.7799 15.8901C10.7799 16.6922 11.0939 17.4619 11.6538 18.0323C12.2137 18.6026 12.9744 18.9276 13.7707 18.9367H25.8683C27.4711 18.9417 29.0069 19.5852 30.1402 20.7269C31.2735 21.8685 31.9121 23.4155 31.9166 25.0298Z" fill="#F7F7F7"/>
<path d="M54.7356 29.1638H51.9166L45.9468 12.2046H48.8133L53.3142 26.4124H53.3379L57.8152 12.2046H60.5632L54.7356 29.1638Z" fill="black"/>
<path d="M71.7272 22.8545C71.7272 23.1866 71.7272 23.5424 71.7035 23.7321H62.4172C62.4646 25.7483 63.6491 27.6221 66.0417 27.6221C68.1737 27.6221 69.0029 26.2464 69.2161 25.4399H71.585C70.9454 27.7644 69.1687 29.5196 65.9943 29.5196C62.1567 29.5196 60.0246 26.7919 60.0246 23.0917C60.0246 19.2967 62.2988 16.6875 65.9943 16.6875C69.6662 16.6875 71.7272 19.1069 71.7272 22.8545ZM62.4172 21.9058H69.3108C69.3108 20.0082 67.9842 18.5851 65.9233 18.5851C63.9807 18.5851 62.5594 19.9134 62.4172 21.9058Z" fill="black"/>
<path d="M79.3026 16.7824C79.729 16.7824 80.0606 16.8061 80.416 16.8536V19.0832C80.1317 19.0357 79.9185 19.012 79.6342 19.012C77.5259 19.012 76.0097 20.6012 76.0097 22.902V29.1638H73.6882V17.0671H76.0097V19.3678H76.0571C76.6967 17.8498 77.668 16.7824 79.3026 16.7824Z" fill="black"/>
<path d="M84.4113 14.9086H81.7818V12.3944H84.4113V14.9086ZM84.2455 29.1638H81.9239V17.0671H84.2455V29.1638Z" fill="black"/>
<path d="M87.7043 17.0671V15.5965C87.7043 12.7976 88.8651 12.0386 90.8313 12.0386C91.2814 12.0386 91.6368 12.086 92.3001 12.1809V14.0547C91.8263 14.0073 91.6368 13.9836 91.3051 13.9836C90.3339 13.9836 90.0496 14.2682 90.0496 15.549V17.0671H92.3001V18.9883H90.0496V29.1638H87.7043V18.9883H86.0461V17.0671H87.7043ZM93.7214 14.9086V12.3944H96.3273V14.9086H93.7214ZM96.1851 29.1638H93.8636V17.0671H96.1851V29.1638Z" fill="black"/>
<path d="M109.875 22.8545C109.875 23.1866 109.875 23.5424 109.852 23.7321H100.565C100.613 25.7483 101.797 27.6221 104.19 27.6221C106.322 27.6221 107.151 26.2464 107.364 25.4399H109.733C109.094 27.7644 107.317 29.5196 104.143 29.5196C100.305 29.5196 98.1728 26.7919 98.1728 23.0917C98.1728 19.2967 100.447 16.6875 104.143 16.6875C107.814 16.6875 109.875 19.1069 109.875 22.8545ZM100.565 21.9058H107.459C107.459 20.0082 106.132 18.5851 104.071 18.5851C102.129 18.5851 100.708 19.9134 100.565 21.9058Z" fill="black"/>
<path d="M120.412 18.5376V12.2046H122.733V29.1638H120.412V27.7407H120.365C119.701 28.5946 118.54 29.4959 116.645 29.4959C113.566 29.4959 111.22 27.1003 111.22 23.1154C111.22 19.1306 113.566 16.7113 116.645 16.7113C118.54 16.7113 119.701 17.5889 120.365 18.5376H120.412ZM117.024 27.5746C119.109 27.5746 120.388 25.8431 120.388 23.1154C120.388 20.364 119.109 18.6562 117.024 18.6562C114.75 18.6562 113.637 20.7435 113.637 23.1154C113.637 25.4874 114.75 27.5746 117.024 27.5746Z" fill="black"/>
<path d="M137.167 29.4959C132.524 29.4959 130.558 27.0528 130.558 23.4001V12.2046H133.164V23.4001C133.164 26.0329 134.49 27.2426 137.167 27.2426C139.868 27.2426 141.171 26.0329 141.171 23.4001V12.2046H143.8V23.4001C143.8 27.0528 141.834 29.4959 137.167 29.4959Z" fill="black"/>
<path d="M153.428 29.4959C149.14 29.4959 146.132 27.2663 145.942 23.4475H148.643C148.832 25.7246 150.182 27.2663 153.357 27.2663C156.081 27.2663 156.91 26.0803 156.91 24.5386C156.91 22.3801 155.252 22.0718 152.172 21.2891C149.519 20.5775 146.605 19.7236 146.605 16.4978C146.605 13.5566 148.88 11.8726 152.528 11.8726C156.389 11.8726 158.9 13.8412 159.161 17.2568H156.46C156.176 15.217 155.015 14.1022 152.551 14.1022C150.419 14.1022 149.33 14.8849 149.33 16.3555C149.33 18.253 151.106 18.6562 153.286 19.2018C156.555 20.032 159.634 20.8147 159.634 24.3963C159.634 27.3137 157.668 29.4959 153.428 29.4959Z" fill="black"/>
<path d="M168.514 29.1638H162.023V12.2046H168.467C173.157 12.2046 176 15.2407 176 20.6961C176 26.1515 173.205 29.1638 168.514 29.1638ZM164.629 26.9105H168.348C172.281 26.9105 173.299 23.9693 173.299 20.6961C173.299 17.4228 172.281 14.4579 168.348 14.4579H164.629V26.9105Z" fill="black"/>
</svg>
