<svg width="195" height="195" viewBox="0 0 195 195" fill="none" xmlns="http://www.w3.org/2000/svg">
<path d="M97.5 3C149.691 3 192 45.3091 192 97.5C192 149.691 149.691 192 97.5 192C45.3091 192 3 149.691 3 97.5C3 45.3091 45.3091 3 97.5 3Z" fill="#002B47" stroke="#00FFC8" stroke-width="6"/>
<path d="M158.529 103.78C157.461 99.396 155.269 95.5499 151.953 92.2338L147.978 88.2593L133.277 73.5416L145.457 61.3611L133.269 49.1726L121.096 61.3451L113.798 54.0384L113.781 54.0544L85.7271 26L73.378 38.3491L108.731 73.7022L97.1849 85.2483L79.7934 67.8568C76.4853 64.5487 72.6553 62.3808 68.3275 61.3611C63.9997 60.3494 59.6478 60.3735 55.2638 61.4414C50.8798 62.5093 47.0338 64.7013 43.7177 68.0174L43.3965 68.3386C40.0804 71.6547 37.8964 75.5007 36.8205 79.8847C35.7526 84.2687 35.7285 88.6287 36.7402 92.9484C37.7519 97.2843 39.9198 101.098 43.2359 104.414L60.6274 121.806L48.4309 134.002L60.6194 146.191L72.8159 133.994L109.614 170.793L121.963 158.444L85.157 121.645L97.0243 109.778L113.613 126.366L115.709 128.462C119.025 131.778 122.871 133.97 127.255 135.038C131.639 136.106 136.023 136.106 140.407 135.038C144.791 133.97 148.637 131.778 151.953 128.462C153.984 126.431 155.598 124.191 156.786 121.75C157.533 120.216 158.119 118.61 158.529 116.916C159.597 112.532 159.597 108.148 158.529 103.772V103.78ZM72.9845 109.465L55.593 92.0732C54.0996 90.5798 53.3207 88.6849 53.2645 86.3805C53.2083 84.0841 53.9872 82.133 55.585 80.5271L55.9062 80.2059C57.512 78.6001 59.4632 77.8292 61.7595 77.8774C64.0559 77.9336 65.9589 78.7044 67.4523 80.2059L84.8438 97.5974L72.9765 109.465H72.9845ZM139.612 116.129C138.006 117.735 136.087 118.538 133.839 118.538C131.591 118.538 129.672 117.735 128.066 116.129L125.97 114.033L109.381 97.4449L120.928 85.8987L137.516 102.487L139.612 104.583C141.218 106.189 142.013 108.108 142.021 110.356C142.021 112.604 141.218 114.523 139.612 116.129Z" fill="white"/>
</svg>
