<?xml version="1.0" encoding="UTF-8"?>
<svg version="1.1" xmlns="http://www.w3.org/2000/svg" width="4000" height="4000">
<path d="M0 0 C1320 0 2640 0 4000 0 C4000 1320 4000 2640 4000 4000 C2680 4000 1360 4000 0 4000 C0 2680 0 1360 0 0 Z " fill="#000000" transform="translate(0,0)"/>
<path d="M0 0 C0.84592768 -0.00235223 1.69185537 -0.00470446 2.56341723 -0.00712797 C5.39312671 -0.01377575 8.22278983 -0.01336103 11.05250645 -0.01294994 C13.10399446 -0.01625123 15.15548182 -0.01997735 17.20696837 -0.02409142 C22.8414161 -0.03408995 28.47585318 -0.03782478 34.11030853 -0.04048073 C40.18909873 -0.04439031 46.26788055 -0.05396837 52.34666538 -0.0626936 C66.33408845 -0.0815088 80.32151069 -0.0917128 94.30894275 -0.10015428 C101.22942024 -0.10436634 108.14989687 -0.10958769 115.07037364 -0.11483881 C138.78498901 -0.13272994 162.49960465 -0.14772194 186.21422577 -0.155159 C187.70234254 -0.15563375 189.19045931 -0.15610963 190.67857609 -0.15658666 C191.78548089 -0.15694122 191.78548089 -0.15694122 192.91474741 -0.15730295 C196.65317706 -0.15850408 200.39160671 -0.15971955 204.13003635 -0.16094494 C204.87192563 -0.16118509 205.61381491 -0.16142524 206.37818569 -0.16167267 C230.40090523 -0.16955548 254.42357523 -0.19296577 278.44627317 -0.22550088 C303.87532975 -0.25987742 329.3043574 -0.27951753 354.7334376 -0.28280324 C357.53073793 -0.28322073 360.32803824 -0.28370029 363.12533855 -0.28422642 C364.15841505 -0.28441121 364.15841505 -0.28441121 365.21236177 -0.28459973 C376.24970919 -0.28692243 387.28699867 -0.3025305 398.32432551 -0.32306826 C409.44297252 -0.34342723 420.56156557 -0.34842565 431.68023162 -0.33929763 C437.69242117 -0.33477432 443.70442442 -0.3365236 449.71658802 -0.35605907 C496.49659679 -0.49968997 496.49659679 -0.49968997 516.27676487 4.13422108 C517.4040004 4.38860685 517.4040004 4.38860685 518.55400836 4.64813173 C532.45232085 7.81324381 547.02367166 12.78236515 559.27676487 20.13422108 C560.90408566 20.81769581 562.53177923 21.50034119 564.16348362 22.17328358 C568.66945338 24.22220883 572.95811092 26.72108533 577.27676487 29.13422108 C577.27676487 29.79422108 577.27676487 30.45422108 577.27676487 31.13422108 C578.57420628 31.49386951 578.57420628 31.49386951 579.89785862 31.86078358 C591.06989111 36.07128368 600.76699161 46.94658435 609.27676487 55.13422108 C609.76950901 55.60505116 610.26225315 56.07588123 610.76992893 56.56097889 C626.6753784 71.82464828 639.11125248 89.64128413 649.27676487 109.13422108 C649.59097385 109.73524647 649.90518284 110.33627186 650.22891331 110.95551014 C655.85458565 121.90065494 659.65176756 133.40146229 663.27676487 145.13422108 C663.62996799 146.23636951 663.98317112 147.33851795 664.34707737 148.47406483 C666.95175305 157.48927726 666.99400597 166.81292755 667.27676487 176.13422108 C667.93676487 176.13422108 668.59676487 176.13422108 669.27676487 176.13422108 C669.32650183 181.80844337 669.36264307 187.48253646 669.38662815 193.15692616 C669.39663574 195.084032 669.41024597 197.01112286 669.42764378 198.93817616 C669.45212408 201.72101021 669.46330065 204.50364208 669.47207737 207.28656483 C669.48239994 208.13693821 669.49272251 208.98731159 669.50335789 209.86345387 C669.5042751 214.84333138 668.97481058 219.3357443 667.75203037 224.16721058 C667.04214589 227.10525303 666.77728509 230.06879084 666.46426487 233.07172108 C665.69962232 239.08569542 664.46464116 244.79526286 662.83926487 250.63422108 C662.6339011 251.37535145 662.42853733 252.11648182 662.21695042 252.88007069 C660.89232727 257.46777723 659.20811272 261.75923152 657.27676487 266.13422108 C656.5621541 268.09027246 655.85383233 270.04863269 655.15176487 272.00922108 C647.41334229 292.05150729 635.38554375 312.13080533 620.11123753 327.28802967 C617.76843171 329.64580151 615.48605354 332.05843167 613.19473362 334.46625233 C596.07332087 352.3169607 596.07332087 352.3169607 585.80020237 357.38031483 C581.40024064 359.57053968 577.34454045 362.16579278 573.21426487 364.82172108 C571.5885654 365.85782347 569.96225305 366.89296479 568.33535862 367.92718983 C567.50761936 368.45361073 566.6798801 368.98003162 565.82705784 369.52240467 C561.49714161 372.25896479 557.1364215 374.9453912 552.77676487 377.63422108 C546.15056252 381.72498577 539.54335373 385.84309318 532.96426487 390.00922108 C514.27310434 401.84254483 495.56691017 413.67718813 476.53067112 424.95062733 C466.35422791 430.98621311 456.38580561 437.2672503 446.50161839 443.77118397 C440.66360245 447.60440439 434.7809292 451.31135694 428.7667551 454.8602953 C421.32139893 459.26285601 414.04303165 463.93090343 406.74258518 468.56830311 C375.5467179 488.37922318 375.5467179 488.37922318 368.65176487 492.13422108 C341.04885686 508.4914999 318.04250266 533.35006219 302.27676487 561.13422108 C301.62321018 562.26730701 300.96965549 563.40039295 300.29629612 564.56781483 C276.83359162 606.23893982 270.53828388 655.5860688 280.27676487 702.13422108 C280.44804905 702.97904041 280.61933323 703.82385975 280.79580784 704.69427967 C288.31297215 740.48926859 308.29948514 772.92617684 333.27676487 799.13422108 C334.04246799 799.96437733 334.80817112 800.79453358 335.59707737 801.64984608 C348.78219409 815.50539246 371.92000258 835.42957758 391.27676487 839.13422108 C391.27676487 839.79422108 391.27676487 840.45422108 391.27676487 841.13422108 C392.00379612 841.25926014 392.73082737 841.3842992 393.47988987 841.51312733 C396.19341535 842.11571189 398.48154921 842.96962606 401.02676487 844.07172108 C405.73287985 846.01493672 410.28298667 847.16768336 415.27676487 848.13422108 C415.27676487 848.79422108 415.27676487 849.45422108 415.27676487 850.13422108 C416.43176487 850.25797108 417.58676487 850.38172108 418.77676487 850.50922108 C421.56272178 850.80771646 424.06506941 851.34578165 426.78457737 852.07562733 C432.33637952 853.48993542 437.96428309 854.08411742 443.65176487 854.69672108 C444.84318089 854.82603016 446.0345969 854.95533924 447.26211643 855.08856678 C462.55947429 856.62321186 477.91382002 856.88060077 493.27676487 857.13422108 C493.27676487 856.47422108 493.27676487 855.81422108 493.27676487 855.13422108 C493.83436497 855.09981922 494.39196507 855.06541737 494.96646214 855.02997303 C507.20811339 854.2188929 517.82882806 852.5885608 529.27676487 848.13422108 C530.83556715 847.60242312 532.39762653 847.07997095 533.96426487 846.57172108 C534.65520237 846.33840076 535.34613987 846.10508045 536.05801487 845.86468983 C537.69697064 845.32510404 539.34423507 844.81060583 540.99551487 844.31000233 C549.20997476 841.74838786 556.69105303 838.14193242 564.27676487 834.13422108 C565.23711643 833.63793201 566.19746799 833.14164295 567.18692112 832.63031483 C590.83773028 820.14132639 612.04242437 801.36816379 628.27676487 780.13422108 C629.07727268 779.08879139 629.87778049 778.0433617 630.70254612 776.96625233 C637.50156334 767.87301488 643.04145495 758.1950812 648.27676487 748.13422108 C648.60273655 747.51498768 648.92870823 746.89575428 649.26455784 746.25775623 C661.01420929 723.6429706 667.20733564 698.49956133 668.69082737 673.17328358 C669.22969273 664.84302263 670.33042199 656.64188563 671.52676487 648.38422108 C671.74980565 646.81674173 671.97237013 645.24919454 672.19448948 643.68158436 C672.65422541 640.44366916 673.11722337 637.20624557 673.58291721 633.96918201 C674.25588857 629.28834718 674.91766144 624.60597829 675.57754612 619.92328358 C677.4171558 606.8970635 679.29583232 593.8803715 681.33926487 580.88422108 C682.7335565 571.9835803 683.9607199 563.07232087 685.08926487 554.13422108 C686.87264739 540.01417807 688.80349813 525.91644648 690.77676487 511.82172108 C690.93035465 510.72428577 691.08394444 509.62685047 691.24218845 508.49615955 C692.88503847 496.77955202 694.55072961 485.06997144 696.40176487 473.38422108 C697.8968278 463.92480424 699.17614991 454.4440885 700.40176487 444.94672108 C702.84510218 426.03126007 705.48864206 407.1447176 708.15176487 388.25922108 C708.2603067 387.48916862 708.36884853 386.71911617 708.48067951 385.9257288 C711.59824772 363.81253479 714.75618663 341.70556004 718.03213596 319.61517811 C719.35068986 310.69584272 720.59886212 301.77270641 721.74551487 292.82953358 C722.76071664 284.91573564 723.85545888 277.01804786 725.03067112 269.12640858 C725.17894855 268.12877491 725.32722599 267.13114124 725.47999668 266.10327625 C726.08298218 262.0559036 726.6880911 258.00887464 727.29995823 253.96283436 C729.04733645 242.38238941 730.57591925 230.8417394 731.60920811 219.17458057 C732.15419455 213.11001663 732.97384611 207.17314671 734.15176487 201.19672108 C735.37803699 194.61570806 736.46265998 188.03563085 737.31973362 181.39593983 C737.40555698 180.73195683 737.49138035 180.06797382 737.57980442 179.38387012 C737.99752051 176.12374283 738.40190559 172.86267483 738.79385471 169.59930897 C739.61245176 163.06413201 740.70212286 156.85584659 742.6092844 150.54608631 C743.30831418 148.0202212 743.72298892 145.54001664 744.08926487 142.94672108 C749.21654791 113.71293793 768.55552432 85.44909722 788.27676487 64.13422108 C789.10434299 63.20351795 789.93192112 62.27281483 790.78457737 61.31390858 C795.66658272 55.83471603 800.61441177 50.79671628 806.27676487 46.13422108 C807.47172581 45.1074828 807.47172581 45.1074828 808.69082737 44.06000233 C815.64853595 38.17981499 823.00424349 33.1191609 830.64688206 28.18988514 C831.99337315 27.31777198 833.32812779 26.42756731 834.65957737 25.53265858 C838.87872009 22.74836601 843.16867214 20.89150151 847.89395237 19.10687733 C850.06404073 18.22105437 851.96548431 17.22372675 853.96426487 16.00922108 C857.38355754 14.07377239 860.5015104 13.16383593 864.27676487 12.13422108 C865.61674534 11.42459217 865.61674534 11.42459217 866.98379612 10.70062733 C870.75386847 8.90727144 874.34140101 8.00924025 878.40176487 7.13422108 C879.9241154 6.79403648 881.44625058 6.45288675 882.96817112 6.11078358 C883.70696507 5.94610584 884.44575901 5.78142811 885.20694065 5.61176014 C887.93741122 4.98180019 890.63526145 4.24364176 893.33926487 3.50922108 C905.38722319 0.5030566 917.6006097 -0.16338296 929.96803379 -0.11301708 C931.37168118 -0.11461119 932.77532778 -0.1170807 934.1789723 -0.12033349 C937.9902918 -0.12667216 941.80150301 -0.12073579 945.61281526 -0.11256921 C949.74963679 -0.10592508 953.88644749 -0.11095751 958.02327061 -0.11445141 C966.14571791 -0.11948378 974.26812429 -0.11384969 982.39056652 -0.10460111 C991.99829608 -0.09407396 1001.60601739 -0.09429167 1011.21375162 -0.09477369 C1028.53644081 -0.09527486 1045.85911165 -0.08613041 1063.18179417 -0.07158947 C1079.63915445 -0.05778347 1096.09649833 -0.05048158 1112.55386448 -0.05108166 C1114.56596545 -0.05112876 1116.57806643 -0.05117322 1118.5901674 -0.05121505 C1120.08207072 -0.05124701 1120.08207072 -0.05124701 1121.6041135 -0.05127961 C1122.5977302 -0.05129926 1123.5913469 -0.05131891 1124.6150732 -0.05133915 C1126.10370832 -0.05136936 1126.10370832 -0.05136936 1127.62241688 -0.05140018 C1171.88992401 -0.05187442 1216.15717462 0.00233316 1260.42457116 0.09992445 C1272.48199317 0.1261763 1284.53940609 0.14435654 1296.59684805 0.1583228 C1312.99264224 0.17750586 1329.38825185 0.21420626 1345.78392535 0.28118986 C1353.63069555 0.31291883 1361.47730213 0.33761673 1369.3241415 0.34016323 C1375.83378616 0.34231421 1382.34310545 0.36137988 1388.85262616 0.40240268 C1392.11462562 0.42250891 1395.3760675 0.43273418 1398.63813615 0.42610049 C1419.6258732 0.39135189 1439.41152634 3.20263384 1459.27676487 10.13422108 C1460.38535862 10.50160389 1461.49395237 10.8689867 1462.63613987 11.24750233 C1474.71743848 15.36856752 1486.26877176 20.66068583 1497.27676487 27.13422108 C1497.27676487 27.79422108 1497.27676487 28.45422108 1497.27676487 29.13422108 C1498.26805393 29.33660389 1499.25934299 29.5389867 1500.28067112 29.74750233 C1505.1206847 31.13610064 1508.44344175 34.09526146 1512.21426487 37.32172108 C1512.92083225 37.91178944 1513.62739964 38.5018578 1514.35537815 39.10980701 C1516.33971139 40.77266634 1518.31068454 42.44985098 1520.27676487 44.13422108 C1521.09016331 44.82644764 1521.90356174 45.5186742 1522.74160862 46.23187733 C1524.60651924 47.84508222 1526.44299976 49.48576276 1528.27676487 51.13422108 C1529.08500706 51.83933826 1529.89324924 52.54445545 1530.72598362 53.27093983 C1536.01859546 57.93065339 1540.77257856 62.71767294 1545.27676487 68.13422108 C1546.03602268 69.00562733 1546.79528049 69.87703358 1547.57754612 70.77484608 C1553.74555553 77.9500732 1559.1063237 85.46450868 1564.19424534 93.43890858 C1565.13853212 94.91773749 1566.09888168 96.38628519 1567.06192112 97.85297108 C1571.13340414 104.26737911 1573.69269886 111.01349898 1576.27676487 118.13422108 C1577.10695714 120.26045019 1577.94028824 122.38545643 1578.77676487 124.50922108 C1587.96364899 148.45867684 1592.75220327 171.58920036 1592.6577158 197.22208118 C1592.66118027 199.29401461 1592.66595009 201.36594618 1592.67189753 203.43787396 C1592.68432897 209.08223451 1592.67827317 214.72644133 1592.66893888 220.37080216 C1592.6621162 226.47727505 1592.67264555 232.58372257 1592.68087864 238.69019032 C1592.69341703 249.94508979 1592.69237385 261.19994053 1592.68414423 272.45483896 C1592.67657682 282.85610064 1592.67463708 293.25734457 1592.67821217 303.65860844 C1592.67844132 304.35041471 1592.67867048 305.04222099 1592.67890658 305.75499109 C1592.6798407 308.56377018 1592.68079591 311.37254925 1592.68178587 314.18132832 C1592.69094929 340.49478253 1592.68266444 366.80820591 1592.66649518 393.12165535 C1592.65226304 416.46000758 1592.65353117 439.79831069 1592.66787815 463.13666248 C1592.68397023 489.40110722 1592.69029609 515.66552474 1592.68104136 541.92997372 C1592.68007932 544.73404987 1592.67914079 547.53812603 1592.67821217 550.34220219 C1592.67785632 551.3777363 1592.67785632 551.3777363 1592.67749328 552.43419029 C1592.67409216 562.82328149 1592.67805059 573.21235292 1592.68565083 583.60144138 C1592.69425786 595.42519981 1592.69173574 607.2489114 1592.67580859 619.07266627 C1592.66795751 625.09844534 1592.66477999 631.1241251 1592.67475605 637.1499033 C1592.68376951 642.67813083 1592.67866175 648.20616804 1592.66282339 653.73437859 C1592.65950349 655.72206829 1592.66110576 657.70977446 1592.66845076 659.69745336 C1592.7294304 677.58792076 1590.59732214 694.71413217 1585.96426487 712.00922108 C1585.51240818 713.72854847 1585.51240818 713.72854847 1585.05142307 715.48260975 C1583.08043392 722.75919361 1580.78384429 729.63308202 1577.53848362 736.43500233 C1576.19709553 739.16474423 1576.19709553 739.16474423 1575.23770237 742.29437733 C1574.09491773 745.67163112 1572.26222845 748.18804931 1570.27676487 751.13422108 C1569.50736806 753.36024723 1569.50736806 753.36024723 1569.27676487 755.13422108 C1568.61676487 755.13422108 1567.95676487 755.13422108 1567.27676487 755.13422108 C1566.89004612 756.44906483 1566.89004612 756.44906483 1566.49551487 757.79047108 C1564.63484446 762.89538733 1561.5469609 767.01353534 1558.45059299 771.44720936 C1557.26931734 773.14492458 1556.10859285 774.85548024 1554.94863987 776.56781483 C1549.46044869 784.56681152 1543.4073666 791.74325887 1536.65811253 798.70599842 C1535.42788815 799.97796954 1534.21619659 801.2678061 1533.00723362 802.56000233 C1514.27228353 822.1291617 1485.85111046 841.36596308 1459.34317112 847.39203358 C1456.27337948 848.13504047 1453.3351398 849.07438465 1450.33926487 850.07172108 C1436.21558617 854.46649996 1421.45253746 856.40559899 1406.79898167 858.09540272 C1401.94340595 858.65625575 1397.12983495 859.30227259 1392.31192112 860.13031483 C1385.34799045 861.32409934 1378.35474648 862.11409897 1371.33535862 862.9017992 C1364.87826244 863.64811747 1358.45538147 864.54004417 1352.03067112 865.52093983 C1341.21895228 867.17037325 1330.38424467 868.62611226 1319.54300022 870.06671619 C1302.31496252 872.35692253 1285.09664459 874.69797099 1267.89709568 877.19318104 C1258.05931837 878.61884193 1248.2129983 879.92012798 1238.34439182 881.11395741 C1231.86332663 881.90743098 1225.42918649 882.87570442 1218.98770237 883.93939686 C1210.02456255 885.38898646 1201.01292456 886.48685735 1192.00308323 887.60077381 C1185.05854734 888.47115324 1178.15312377 889.45416842 1171.24551487 890.57562733 C1161.29157203 892.1845369 1151.30367411 893.45503143 1141.29818821 894.69632435 C1124.19182664 896.82170416 1107.12340521 899.08660208 1090.08487034 901.70502186 C1078.3058185 903.50536729 1066.52491495 905.16408549 1054.67666721 906.43549061 C1045.8015999 907.38887864 1036.9252024 908.40518114 1028.15176487 910.07172108 C1016.24624246 912.30068961 1004.26253555 914.14645787 992.15176487 914.63422108 C984.41099787 914.95088494 976.93732871 916.01734395 969.30410862 917.30218983 C963.74559388 918.23767155 958.17182576 919.04413004 952.58926487 919.82172108 C951.22656467 920.01870594 951.22656467 920.01870594 949.83633518 920.2196703 C944.59309212 920.94384829 939.56962349 921.26361576 934.27676487 921.13422108 C934.27676487 921.79422108 934.27676487 922.45422108 934.27676487 923.13422108 C933.2562302 923.16435291 932.23569553 923.19448475 931.18423557 923.22552967 C920.29595581 923.64738036 910.06308523 925.29654734 899.46426487 927.75922108 C898.68128025 927.9371822 897.89829563 928.11514332 897.09158421 928.2984972 C884.82671459 931.09341766 872.93678559 934.36108095 861.27676487 939.13422108 C860.58856663 939.40556873 859.90036839 939.67691639 859.19131565 939.9564867 C838.40257371 948.18751233 820.32016872 960.83606348 803.27676487 975.13422108 C802.69410862 975.59312733 802.11145237 976.05203358 801.51113987 976.52484608 C797.98838193 979.30597076 795.14403102 982.44611777 792.28067112 985.87640858 C790.57309338 987.80034607 788.81679905 989.56435189 786.97207737 991.35297108 C764.98891898 1013.20532924 745.5590664 1049.05492843 742.27676487 1080.13422108 C741.61676487 1080.13422108 740.95676487 1080.13422108 740.27676487 1080.13422108 C740.31156956 1081.20736561 740.31156956 1081.20736561 740.34707737 1082.30218983 C740.36512424 1083.29863514 740.38317112 1084.29508045 740.40176487 1085.32172108 C740.42496799 1086.28465076 740.44817112 1087.24758045 740.47207737 1088.23968983 C740.30451781 1091.58082747 739.86749959 1094.58992156 739.28457737 1097.87250233 C738.01064128 1105.80204677 737.97512379 1113.62628381 738.01602268 1121.6361742 C738.02674913 1124.130562 738.01606372 1126.6242299 738.00332737 1129.11859608 C737.99528708 1138.31645784 738.54673786 1147.07077456 740.27676487 1156.13422108 C740.50469974 1157.52441021 740.73034414 1158.91497911 740.95254612 1160.30609608 C747.17435919 1195.27039527 763.35165783 1227.09496224 786.91494846 1253.60052967 C788.26268775 1255.11836728 789.59209529 1256.65093023 790.92129612 1258.18500233 C823.60650204 1295.41232687 873.36866227 1316.80684907 922.27676487 1320.13422108 C927.94834438 1320.3886661 933.60421627 1320.31284266 939.27676487 1320.13422108 C939.97656467 1320.11488514 940.67636448 1320.0955492 941.39737034 1320.07562733 C952.2334923 1319.73707631 962.67391607 1318.36822743 973.27676487 1316.13422108 C974.03795628 1315.98001698 974.79914768 1315.82581287 975.58340549 1315.66693592 C1009.32864194 1308.67963779 1040.93993359 1291.75788106 1065.53360081 1267.78607655 C1067.16783151 1266.23744841 1068.84139157 1264.77238208 1070.56582737 1263.32562733 C1077.03001619 1257.86818951 1081.56141505 1252.03763758 1085.67910862 1244.67328358 C1088.90488901 1238.92371966 1092.51553781 1233.42147485 1096.08926487 1227.88422108 C1097.48555823 1225.7126418 1098.88139465 1223.54076865 1100.27676487 1221.36859608 C1100.95481174 1220.31349842 1101.63285862 1219.25840076 1102.33145237 1218.17133045 C1105.1060901 1213.83944123 1107.8499259 1209.48848591 1110.58926487 1205.13422108 C1114.27848597 1199.27439823 1118.00482797 1193.44114288 1121.77676487 1187.63422108 C1125.71134399 1181.57511154 1129.60493654 1175.49155918 1133.46426487 1169.38422108 C1133.92703831 1168.65267811 1134.38981174 1167.92113514 1134.86660862 1167.1674242 C1140.3829309 1158.42033452 1145.77139574 1149.59406997 1151.17129612 1140.77484608 C1157.78825608 1129.97476009 1164.4421234 1119.20946264 1171.36660862 1108.60297108 C1180.70791845 1094.29400909 1189.87605804 1079.86883552 1198.89541721 1065.3549242 C1215.95153528 1037.93490831 1215.95153528 1037.93490831 1222.95059299 1026.99945545 C1225.36666843 1023.21651662 1227.70516065 1019.41758262 1229.91348362 1015.50922108 C1237.63131525 1002.13694773 1247.74930104 991.94518176 1258.88003635 981.41986561 C1263.81941349 976.73008469 1263.81941349 976.73008469 1268.26113987 971.58343983 C1286.45663398 949.47379872 1322.95859413 936.16094872 1349.58926487 929.25922108 C1350.31557102 929.06803699 1351.04187717 928.87685291 1351.7901926 928.67987537 C1366.14671312 925.20929327 1380.83154826 924.75302334 1395.52676487 924.82172108 C1396.38149387 924.82420856 1397.23622288 924.82669605 1398.11685276 924.82925892 C1419.829537 924.92681498 1438.67734045 928.15268013 1459.27676487 935.13422108 C1460.02297092 935.38043201 1460.76917698 935.62664295 1461.53799534 935.88031483 C1486.3854221 944.14527989 1511.64470892 959.42800941 1529.71426487 978.53656483 C1531.43739618 980.29846659 1533.26668483 981.85986659 1535.15176487 983.44672108 C1548.85017523 995.35723911 1566.62200299 1015.8604117 1570.27676487 1034.13422108 C1570.93676487 1034.13422108 1571.59676487 1034.13422108 1572.27676487 1034.13422108 C1573.40657525 1036.81978639 1574.53070239 1039.50750573 1575.65176487 1042.19672108 C1576.12742893 1043.32497303 1576.12742893 1043.32497303 1576.61270237 1044.47601795 C1579.29751656 1050.9363521 1581.25908584 1057.18008104 1582.27676487 1064.13422108 C1582.93676487 1064.13422108 1583.59676487 1064.13422108 1584.27676487 1064.13422108 C1585.06986368 1067.75890923 1585.86097531 1071.38402848 1586.65176487 1075.00922108 C1586.87348362 1076.0224242 1587.09520237 1077.03562733 1587.32363987 1078.07953358 C1587.98116312 1081.09640496 1588.6304196 1084.11493688 1589.27676487 1087.13422108 C1589.46657932 1088.00466053 1589.65639378 1088.87509998 1589.85196018 1089.77191639 C1592.45406936 1102.10658975 1592.42364317 1114.27943137 1592.41720676 1126.82898426 C1592.41979293 1128.84721313 1592.4228068 1130.86544148 1592.42621017 1132.88366914 C1592.43425404 1138.41677744 1592.43606828 1143.94987275 1592.43680763 1149.48298621 C1592.43866279 1155.45602403 1592.44621252 1161.42905518 1592.45294285 1167.40208912 C1592.46721597 1181.13886343 1592.47305072 1194.87563676 1592.47763479 1208.61241679 C1592.4799745 1215.40879867 1592.4835776 1222.2051797 1592.48733017 1229.00156092 C1592.50016378 1252.29137909 1592.51088226 1275.58119679 1592.51433277 1298.87101841 C1592.5145544 1300.33183816 1592.51477618 1301.7926579 1592.51499812 1303.25347765 C1592.51521876 1304.71771841 1592.51543924 1306.18195918 1592.51565957 1307.64619994 C1592.51610211 1310.58345048 1592.51654923 1313.52070101 1592.51699924 1316.45795155 C1592.51710864 1317.18621375 1592.51721803 1317.91447595 1592.51733073 1318.6648067 C1592.5209583 1342.25860367 1592.53686798 1365.85236986 1592.56018961 1389.44615505 C1592.58483265 1414.42270391 1592.59850772 1439.39923519 1592.59970069 1464.37579656 C1592.59987213 1467.12217824 1592.60008755 1469.86855992 1592.60033512 1472.6149416 C1592.60039089 1473.29112017 1592.60044666 1473.96729875 1592.60050412 1474.66396759 C1592.60165078 1485.5065206 1592.61263998 1496.34904182 1592.62722218 1507.19158414 C1592.64164923 1518.108298 1592.64453863 1529.02496955 1592.6367822 1539.94169024 C1592.63289194 1545.84615189 1592.63372538 1551.75050746 1592.64783955 1557.65495586 C1592.66067657 1563.07504158 1592.65929596 1568.49494255 1592.64724883 1573.91502836 C1592.64530864 1575.86127399 1592.64829117 1577.80753315 1592.6570932 1579.75375983 C1592.73066097 1597.1409032 1591.02095859 1614.36712889 1587.02676487 1631.32172108 C1586.81987034 1632.21552479 1586.61297581 1633.1093285 1586.39981174 1634.03021717 C1584.13814291 1643.3620738 1580.85881344 1652.24020519 1577.27676487 1661.13422108 C1576.79723362 1662.35754139 1576.31770237 1663.5808617 1575.82363987 1664.84125233 C1573.99116827 1669.40587286 1572.27841546 1673.22956697 1569.27676487 1677.13422108 C1568.57161641 1679.28156034 1568.57161641 1679.28156034 1568.27676487 1681.13422108 C1567.61676487 1681.13422108 1566.95676487 1681.13422108 1566.27676487 1681.13422108 C1566.27676487 1682.45422108 1566.27676487 1683.77422108 1566.27676487 1685.13422108 C1565.61676487 1685.13422108 1564.95676487 1685.13422108 1564.27676487 1685.13422108 C1563.87457737 1686.83578358 1563.87457737 1686.83578358 1563.46426487 1688.57172108 C1563.07238987 1689.74734608 1562.68051487 1690.92297108 1562.27676487 1692.13422108 C1561.28676487 1692.46422108 1560.29676487 1692.79422108 1559.27676487 1693.13422108 C1558.57421564 1694.78608269 1557.91402901 1696.45609217 1557.27676487 1698.13422108 C1530.95308749 1737.73778055 1486.88532316 1767.68614255 1440.63613987 1778.48187733 C1422.59636956 1781.984949 1404.90583436 1783.28413209 1386.56459141 1783.2813921 C1384.55659971 1783.28469562 1382.54860868 1783.28842221 1380.54061848 1783.29253358 C1375.04029669 1783.30250624 1369.53998582 1783.30626271 1364.03965628 1783.30892289 C1358.09996019 1783.31284007 1352.16027263 1783.3224174 1346.22058201 1783.33113575 C1332.5618934 1783.34992866 1318.90320332 1783.3601505 1305.24450518 1783.36859643 C1298.48443727 1783.37281172 1291.72437024 1783.37803256 1284.96430308 1783.38328096 C1261.792 1783.40116795 1238.61969664 1783.41616004 1215.4473877 1783.42360115 C1213.99412006 1783.4240759 1212.54085243 1783.42455178 1211.0875848 1783.42502881 C1210.00662594 1783.42538338 1210.00662594 1783.42538338 1208.90382953 1783.4257451 C1205.25315758 1783.42694621 1201.60248564 1783.42816169 1197.9518137 1783.42938709 C1197.22734711 1783.42962724 1196.50288051 1783.42986739 1195.75646039 1783.43011482 C1172.29429912 1783.43799884 1148.83218855 1783.46141377 1125.3700494 1783.49394304 C1100.52430016 1783.52832726 1075.67858054 1783.54796028 1050.83280712 1783.55124539 C1048.09928833 1783.55166288 1045.36576956 1783.55214243 1042.63225079 1783.55266857 C1041.9592547 1783.55279176 1041.28625862 1783.55291495 1040.59286872 1783.55304188 C1030.47866653 1783.55522009 1020.36451774 1783.56845957 1010.25033474 1783.58770657 C998.72557424 1783.60949861 987.20090637 1783.61742236 975.67612761 1783.60773978 C969.80556023 1783.60321961 963.93518365 1783.60494719 958.06464291 1783.62450123 C929.95294597 1783.71293493 902.86586175 1783.75252856 875.90176487 1774.69672108 C874.73645237 1774.32740467 873.57113987 1773.95808826 872.37051487 1773.57758045 C864.83235136 1771.14496281 857.54164378 1768.28395123 850.27676487 1765.13422108 C848.86016068 1764.52990793 847.44350462 1763.92571634 846.02676487 1763.32172108 C844.66551487 1762.73390858 844.66551487 1762.73390858 843.27676487 1762.13422108 C843.27676487 1761.47422108 843.27676487 1760.81422108 843.27676487 1760.13422108 C842.58582737 1760.04011951 841.89488987 1759.94601795 841.18301487 1759.84906483 C827.18205106 1756.40527937 813.82130039 1743.69546998 803.54238987 1734.21234608 C801.47498607 1732.31603777 799.35926394 1730.50392502 797.21426487 1728.69672108 C781.30497017 1714.80409754 769.36753028 1696.51089955 759.27676487 1678.13422108 C758.61541962 1676.94665809 757.95396177 1675.75915781 757.29238987 1674.57172108 C754.48812053 1669.47304954 752.03516339 1664.69135395 750.27676487 1659.13422108 C749.33679704 1656.74053782 748.3575457 1654.36590591 747.37442112 1651.98968983 C744.33487673 1644.08254767 742.51223959 1636.53944861 741.33926487 1628.13812733 C741.17305637 1626.9917429 741.00684788 1625.84535847 740.83560276 1624.66423512 C740.48557306 1622.23837025 740.13954006 1619.81192572 739.79727268 1617.3849535 C739.28647226 1613.76550602 738.7632656 1610.14803539 738.23770237 1606.53070545 C736.40401616 1593.79832699 734.75411261 1581.05796898 733.31668186 1568.27484608 C732.2621553 1558.89718231 731.05779153 1549.54581687 729.77676487 1540.19672108 C729.67004459 1539.41059437 729.56332432 1538.62446766 729.45337009 1537.81451893 C728.15661589 1528.26278779 726.79899374 1518.7277632 725.23208714 1509.21600819 C724.21588217 1502.98303985 723.48091812 1496.73274746 722.80410862 1490.45453358 C722.2743389 1485.82619622 721.52958113 1481.23368881 720.80972385 1476.63177967 C719.90986381 1470.72642237 719.13485419 1464.80435321 718.33926487 1458.88422108 C717.26632187 1450.98205326 716.17911175 1443.09913638 714.71426487 1435.25922108 C713.38369578 1428.11923704 712.44388492 1420.95545198 711.53994846 1413.75018787 C710.28823192 1403.91856675 708.78872113 1394.12796916 707.25381565 1384.33734608 C705.84638239 1375.24705058 704.60668051 1366.14134105 703.40957737 1357.02093983 C701.16758388 1339.98666901 698.58532912 1323.0081285 695.9776926 1306.02631092 C695.38181576 1302.1436406 694.79232431 1298.26000995 694.20254612 1294.37640858 C694.02339161 1293.22002888 693.8442371 1292.06364918 693.65965366 1290.87222767 C692.68952217 1284.46944745 691.95096476 1278.10351463 691.48770237 1271.64348316 C691.22113948 1268.47251473 690.63709269 1265.43026078 689.96426487 1262.32172108 C688.29866899 1254.08792085 687.2262561 1245.77381223 686.15176487 1237.44672108 C685.98120579 1236.14049793 685.81064671 1234.83427479 685.63491917 1233.48846912 C684.71053055 1226.20965571 683.97777715 1218.95907361 683.52725315 1211.6349535 C683.42694741 1209.13805135 683.42694741 1209.13805135 682.27676487 1207.13422108 C681.99639757 1204.28159502 681.8305238 1201.42870222 681.65567112 1198.56781483 C681.36808943 1195.96179102 680.96804943 1193.65889742 680.3658762 1191.1283617 C679.14253469 1185.72003602 678.29806701 1180.27541054 677.47207737 1174.79437733 C677.3068256 1173.71458103 677.14157383 1172.63478474 676.97131443 1171.52226734 C676.4452832 1168.08084597 675.92341803 1164.63880851 675.40176487 1161.19672108 C675.05959942 1158.95253737 674.71715359 1156.70839639 674.37442112 1154.4642992 C673.85954428 1151.09253587 673.34537741 1147.72067372 672.83369541 1144.34842396 C671.9630924 1138.61228908 671.08256666 1132.87798556 670.18228245 1127.14642811 C668.44671732 1116.07213404 666.79541726 1105.04373263 665.71426487 1093.88422108 C663.22786946 1070.63534728 656.46567322 1049.69058759 645.27676487 1029.13422108 C644.96271702 1028.54238026 644.64866917 1027.95053944 644.32510471 1027.34076405 C632.3153656 1004.75797652 615.26720816 984.97320987 595.27676487 969.13422108 C594.32285862 968.35176014 593.36895237 967.5692992 592.38613987 966.76312733 C578.47176005 955.61378452 563.02871442 946.7136837 546.50674534 940.03558826 C545.02202629 939.43545878 543.54178659 938.82412421 542.06631565 938.20160389 C498.16549072 919.74648003 443.99689984 921.61992272 400.08926487 938.88422108 C375.38505386 948.99392187 354.08724746 963.49822612 334.71426487 981.78021717 C333.38928296 983.02823851 332.05230263 984.26348884 330.71426487 985.49750233 C319.57977259 996.11452621 311.01233 1008.91521738 303.27676487 1022.13422108 C302.32930393 1023.63855701 302.32930393 1023.63855701 301.36270237 1025.17328358 C286.27678985 1049.87571403 277.96977399 1079.2642433 276.46426487 1108.03265858 C275.41151125 1125.25159887 273.0322648 1142.24959797 270.6203928 1159.32159901 C269.70698528 1165.80111399 268.81038706 1172.28299303 267.91389561 1178.76486683 C267.69853631 1180.32114266 267.48273062 1181.87735679 267.26646519 1183.43350697 C265.87383944 1193.46477998 264.62249037 1203.49457 263.64004612 1213.57513905 C263.18387159 1218.04430052 262.52082989 1222.45574434 261.77676487 1226.88422108 C260.45356619 1235.19683629 259.65503368 1243.50259402 258.97598362 1251.88983631 C258.21130843 1261.25153164 257.25913269 1270.5523339 255.29898167 1279.75018787 C254.29696475 1284.73515549 253.76433181 1289.66476563 253.35879612 1294.72797108 C252.39481856 1305.67012032 250.95244111 1316.52228143 249.42025852 1327.39752674 C248.95048319 1330.73204497 248.48623986 1334.06729554 248.0233469 1337.40277576 C247.39934473 1341.89747355 246.77362948 1346.39192655 246.14639378 1350.8861742 C244.96202028 1359.38288613 243.80112348 1367.88270895 242.65176487 1376.38422108 C242.55212437 1377.11985279 242.45248386 1377.8554845 242.34982395 1378.61340809 C240.67808686 1390.96962256 239.09699605 1403.33658334 237.52908421 1415.70633411 C235.80743948 1429.26335985 233.94339575 1442.79710256 232.02957249 1456.3281908 C229.44591956 1474.62408795 227.06661512 1492.94490267 224.72451878 1511.27313709 C223.31296403 1522.29540803 221.86442738 1533.30816132 220.24620152 1544.30228138 C219.54211731 1549.11503135 218.95614062 1553.92011683 218.46426487 1558.75922108 C215.638737 1581.36344406 208.92271036 1603.52046742 203.03498936 1625.4796648 C201.68643607 1630.53068787 200.4101583 1635.59627279 199.16348362 1640.67328358 C197.73325792 1646.46983963 196.13984556 1652.16954486 194.21426487 1657.82172108 C193.97127659 1658.56615467 193.72828831 1659.31058826 193.47793674 1660.07758045 C192.12735313 1664.10067169 190.57709709 1667.53829944 188.27676487 1671.13422108 C187.58097033 1673.32552642 187.58097033 1673.32552642 187.27676487 1675.13422108 C186.61676487 1675.13422108 185.95676487 1675.13422108 185.27676487 1675.13422108 C184.98930393 1675.86640858 184.70184299 1676.59859608 184.40567112 1677.35297108 C170.92189148 1710.57252506 140.83244446 1738.60295159 110.27676487 1756.13422108 C109.37571018 1756.66015858 108.47465549 1757.18609608 107.54629612 1757.72797108 C101.59482043 1761.13422108 101.59482043 1761.13422108 99.27676487 1761.13422108 C99.27676487 1761.79422108 99.27676487 1762.45422108 99.27676487 1763.13422108 C95.94803859 1764.47923689 92.61284675 1765.80756675 89.27676487 1767.13422108 C88.32285862 1767.51965076 87.36895237 1767.90508045 86.38613987 1768.30218983 C72.03859352 1773.9860255 57.51638266 1778.60822515 42.27676487 1781.13422108 C41.19524143 1781.33918201 40.11371799 1781.54414295 38.99942112 1781.75531483 C2.73726629 1787.7782386 -34.19344274 1781.113269 -67.72323513 1767.13422108 C-68.52519314 1766.80663807 -69.32715115 1766.47905506 -70.15341091 1766.1415453 C-88.65949473 1758.54144089 -104.700108 1747.84576617 -119.43026638 1734.23968983 C-121.46412967 1732.37213904 -123.54470536 1730.59437887 -125.66073513 1728.82172108 C-133.57698836 1721.9170783 -140.77128669 1713.78222537 -146.72323513 1705.13422108 C-147.47089138 1704.05785389 -148.21854763 1702.9814867 -148.98886013 1701.87250233 C-167.28458559 1675.1959931 -180.57052459 1645.39758755 -184.72323513 1613.13422108 C-184.89608973 1611.90324318 -185.06894432 1610.67226528 -185.24703693 1609.40398502 C-185.76555329 1605.22587375 -185.86315102 1601.07914329 -185.85021877 1596.87268543 C-185.85177876 1596.07886062 -185.85333875 1595.28503581 -185.85494602 1594.46715569 C-185.85891306 1591.82328062 -185.85578189 1589.1794637 -185.85262966 1586.53558826 C-185.8539866 1584.62772049 -185.85576818 1582.71985299 -185.85793972 1580.81198597 C-185.86250754 1575.61168975 -185.86071967 1570.41141337 -185.85756063 1565.21111679 C-185.85500026 1559.66052103 -185.85738773 1554.10992678 -185.8589468 1548.55933094 C-185.86077178 1539.14028091 -185.85836807 1529.72123867 -185.85360622 1520.30218983 C-185.84888245 1510.85491889 -185.84867663 1501.40766379 -185.85360622 1491.96039295 C-185.87959382 1440.9312299 -185.74195907 1389.91126644 -185.15219784 1338.88528538 C-184.8014555 1308.40837102 -184.65532905 1277.93617116 -184.65432262 1247.4572649 C-184.65369012 1240.6136144 -184.64682603 1233.76998004 -184.63830471 1226.92633533 C-184.63695707 1225.80340816 -184.63560943 1224.68048099 -184.63422096 1223.52352571 C-184.62874746 1218.9910571 -184.62318043 1214.45858869 -184.61716914 1209.92612076 C-184.60071095 1197.24964381 -184.59707179 1184.57338176 -184.62362576 1171.89691639 C-184.64526586 1161.51161843 -184.64192331 1151.12665239 -184.61021721 1140.74137604 C-184.59463539 1135.33823375 -184.59053728 1129.93573355 -184.61797619 1124.53262424 C-184.72480596 1102.07853747 -184.68033595 1081.43482374 -176.72323513 1060.13422108 C-176.43528954 1059.3434404 -176.14734394 1058.55265972 -175.85067272 1057.73791599 C-174.28202008 1053.46794991 -172.55428826 1049.29756535 -170.72323513 1045.13422108 C-169.88901948 1043.05124089 -169.05565424 1040.96791987 -168.22323513 1038.88422108 C-158.78157905 1016.51613364 -142.41527262 993.53272222 -123.78964138 977.89593983 C-122.34713222 976.66612578 -120.9403022 975.39376191 -119.56307888 974.09125233 C-108.13249701 963.30948479 -94.6727701 955.39949708 -81.27841091 947.32025623 C-72.63564105 942.10560032 -64.16093114 936.67244509 -55.72323513 931.13422108 C-53.00107559 929.35240467 -50.2785343 927.5711754 -47.55561733 925.79051685 C-44.72598871 923.94001703 -41.89709944 922.08842468 -39.06967068 920.23456287 C-34.30256728 917.111717 -29.52972972 914.00353692 -24.70761013 910.96625233 C-15.81770986 905.32738746 -7.10070872 899.42040911 1.65176487 893.57172108 C3.44726474 892.37304394 5.24283725 891.17447562 7.03848362 889.97601795 C10.63283689 887.57689708 14.22678312 885.17716821 17.82046604 882.77704334 C24.2378725 878.49166369 30.65884915 874.21164384 37.08044529 869.93254566 C41.9101763 866.71376146 46.73690128 863.49054154 51.56034946 860.26234913 C58.05491713 855.91851263 64.57896076 851.62991965 71.16348362 847.42377186 C77.1372339 843.6005027 83.02889244 839.65770625 88.92105198 835.71014881 C97.9996199 829.63675718 107.09468876 823.58799989 116.1904459 817.54039478 C119.68993508 815.2127581 123.18664474 812.88107919 126.67910862 810.54291248 C128.1296092 809.57201634 129.58012992 808.60115029 131.03067112 807.63031483 C131.7386182 807.1563628 132.44656528 806.68241077 133.17596531 806.19409657 C137.42392978 803.35553952 141.69613128 800.5604788 145.99160862 797.79437733 C156.1061783 791.22383382 164.0498639 785.66310965 170.27676487 775.13422108 C171.14977375 773.76799257 172.02770414 772.40490092 172.90957737 771.04437733 C176.66224758 765.20386993 180.268849 759.40232964 183.27676487 753.13422108 C183.93676487 753.13422108 184.59676487 753.13422108 185.27676487 753.13422108 C185.27676487 751.81422108 185.27676487 750.49422108 185.27676487 749.13422108 C185.93676487 749.13422108 186.59676487 749.13422108 187.27676487 749.13422108 C187.62738987 747.87609608 187.97801487 746.61797108 188.33926487 745.32172108 C189.36868727 741.84984837 190.5144249 738.45772949 191.82363987 735.08343983 C195.31592054 726.06862041 198.25079704 717.08432381 200.58926487 707.69672108 C200.83136692 706.72718494 201.07346897 705.75764881 201.32290745 704.7587328 C207.19577955 680.40133237 208.84993499 653.85249499 204.27676487 629.13422108 C204.09371799 627.9096117 203.91067112 626.68500233 203.72207737 625.42328358 C200.88142149 607.85330092 194.27792162 591.35457509 187.14810276 575.12958241 C186.33191072 573.26050491 185.54352779 571.37935291 184.75723362 569.49750233 C177.8393423 553.78165952 167.20604818 539.98033152 155.51504612 527.52484608 C153.48971581 525.36166606 151.56442066 523.14659497 149.65176487 520.88422108 C146.17729326 516.89832024 142.35695694 513.48801532 138.27676487 510.13422108 C137.65801487 509.61601795 137.03926487 509.09781483 136.40176487 508.56390858 C123.63589691 498.24150753 109.30069397 489.79621563 95.26797581 481.33783436 C92.53085059 479.68334351 89.80980487 478.0033147 87.08926487 476.32172108 C80.09482004 472.01201265 73.07444211 467.74508334 66.05484104 463.47650623 C61.59021384 460.76123236 57.12627858 458.04498512 52.67129612 455.31390858 C51.95981419 454.87788319 51.24833225 454.4418578 50.51529026 453.99261951 C49.11169204 453.13200968 47.7085307 452.27068689 46.3058176 451.40863514 C42.34154414 448.98019981 38.35959294 446.5849797 34.35577488 444.222188 C32.02889272 442.84898563 29.70490446 441.47091621 27.38070774 440.09317493 C25.67361085 439.08462761 23.9617842 438.08409996 22.2499094 437.08368397 C21.21463108 436.47000965 20.17935276 435.85633533 19.11270237 435.22406483 C18.17990452 434.6761327 17.24710667 434.12820057 16.28604221 433.56366444 C15.62298069 433.09194813 14.95991917 432.62023182 14.27676487 432.13422108 C14.27676487 431.47422108 14.27676487 430.81422108 14.27676487 430.13422108 C13.56133518 430.0336742 12.84590549 429.93312733 12.10879612 429.82953358 C8.87475094 429.03551972 6.77154666 427.80308579 3.96426487 426.00922108 C3.41778294 425.66431629 2.871301 425.31941151 2.30825901 424.96405506 C1.03223366 424.15863754 -0.24178317 423.35003295 -1.51425076 422.53900623 C-5.92344929 419.73501326 -10.35613894 416.96833216 -14.78573513 414.19672108 C-15.80208035 413.56008533 -16.81842556 412.92344959 -17.86556911 412.26752186 C-29.37677188 405.07268891 -40.99223001 398.0521445 -52.60604763 391.02484608 C-57.48121337 388.06797863 -62.33863723 385.08233629 -67.19467068 382.09418201 C-71.16081087 379.66467364 -75.15505553 377.29284174 -79.18026638 374.96234608 C-113.77324959 354.90977135 -144.35564258 328.36790194 -162.72323513 292.13422108 C-162.72323513 291.47422108 -162.72323513 290.81422108 -162.72323513 290.13422108 C-163.38323513 290.13422108 -164.04323513 290.13422108 -164.72323513 290.13422108 C-165.37458438 288.57401241 -166.01906477 287.01093529 -166.66073513 285.44672108 C-167.02038357 284.57660389 -167.38003201 283.7064867 -167.75057888 282.81000233 C-168.68026633 280.25242842 -169.26486138 277.81208878 -169.72323513 275.13422108 C-170.38323513 275.13422108 -171.04323513 275.13422108 -171.72323513 275.13422108 C-192.00950875 217.15445651 -190.93261507 161.53562791 -164.91464138 105.56049061 C-156.23639351 87.88745222 -143.35525991 72.1913305 -129.72323513 58.13422108 C-128.94206326 57.31308826 -128.16089138 56.49195545 -127.35604763 55.64593983 C-113.80521724 41.68520887 -92.45106503 22.51613477 -72.72323513 19.13422108 C-72.72323513 18.47422108 -72.72323513 17.81422108 -72.72323513 17.13422108 C-68.12233428 15.39543907 -63.51749893 13.66776374 -58.90829372 11.95111561 C-56.91295899 11.20515024 -54.92149799 10.4496415 -52.93026638 9.69281483 C-46.86196298 7.43656439 -41.04537987 5.59318956 -34.64511013 4.59906483 C-31.08527781 4.03272787 -27.56427991 3.30357388 -24.03573513 2.57172108 C-15.95518853 0.89659165 -8.22955494 -0.01577442 0 0 Z " fill="#069BB8" transform="translate(1294.72323513031,1115.8657789230347)"/>
<path d="M0 0 C0.66 0.33 1.32 0.66 2 1 C-7.24 10.24 -16.48 19.48 -26 29 C-26.66 28.67 -27.32 28.34 -28 28 C-24.25651042 24.25651042 -20.51302083 20.51302083 -16.76953125 16.76953125 C-16.12314697 16.12242187 -15.4767627 15.4753125 -14.81079102 14.80859375 C-13.69967811 13.6988291 -12.58613709 12.59148109 -11.46850586 11.48828125 C-9.47703656 9.51987916 -7.67167642 7.58213363 -5.9375 5.375 C-4.11393401 3.13966105 -2.37504647 1.61163867 0 0 Z " fill="#0278AF" transform="translate(2569,2082)"/>
<path d="M0 0 C0.66 0.33 1.32 0.66 2 1 C-5.92 8.92 -13.84 16.84 -22 25 C-22.66 24.67 -23.32 24.34 -24 24 C-23.25556641 23.27296875 -23.25556641 23.27296875 -22.49609375 22.53125 C-19.02303478 19.10432274 -15.65522562 15.66110345 -12.5 11.9375 C-9.00890256 7.86723433 -5.09515055 4.44591937 -1 1 C-0.67 0.67 -0.34 0.34 0 0 Z " fill="#011B20" transform="translate(2101,2087)"/>
<path d="M0 0 C0.66 0.33 1.32 0.66 2 1 C-4.27 7.27 -10.54 13.54 -17 20 C-17.66 19.67 -18.32 19.34 -19 19 C-14.54644003 13.77654269 -10.02290155 8.92592544 -4.76171875 4.5078125 C-3.0881754 3.07546719 -1.53554008 1.57806273 0 0 Z " fill="#0AA592" transform="translate(1176,2089)"/>
</svg>
