<svg width="95" height="31" viewBox="0 0 95 31" fill="none" xmlns="http://www.w3.org/2000/svg">
<g clip-path="url(#clip0_811_23311)">
<mask id="mask0_811_23311" style="mask-type:alpha" maskUnits="userSpaceOnUse" x="-1" y="1" width="30" height="24">
<path fill-rule="evenodd" clip-rule="evenodd" d="M-0.211914 1.30859H28.8705V24.8874H-0.211914V1.30859Z" fill="white"/>
</mask>
<g mask="url(#mask0_811_23311)">
<path fill-rule="evenodd" clip-rule="evenodd" d="M3.19345 24.0116C2.32922 22.1498 1.84649 20.0724 1.84649 17.8816C1.84649 9.87275 8.29767 3.38025 16.2555 3.38025C20.6868 3.38025 24.6505 5.39335 27.2937 8.56023L28.8705 7.22863C25.8498 3.60931 21.3197 1.30859 16.2555 1.30859C7.16083 1.30859 -0.211914 8.72863 -0.211914 17.8816C-0.211914 20.3853 0.339741 22.7595 1.32743 24.8874L3.19345 24.0116Z" fill="#1F262F"/>
</g>
<path fill-rule="evenodd" clip-rule="evenodd" d="M16.2559 27.7215C10.8559 27.7215 6.47838 23.3158 6.47838 17.881C6.47838 12.4465 10.8559 8.04085 16.2559 8.04085C19.2627 8.04085 21.9522 9.40725 23.7457 11.5562L25.3229 10.2242C23.1518 7.62286 19.8958 5.96924 16.2559 5.96924C9.71909 5.96924 4.41992 11.3024 4.41992 17.881C4.41992 24.46 9.71909 29.7931 16.2559 29.7931V27.7215Z" fill="#1F262F"/>
<path fill-rule="evenodd" clip-rule="evenodd" d="M19.8036 20.8774C18.9539 21.8954 17.6802 22.5425 16.2559 22.5425C13.698 22.5425 11.6243 20.4557 11.6243 17.8814C11.6243 15.3072 13.698 13.2202 16.2559 13.2202C17.6802 13.2202 18.9539 13.8675 19.8036 14.8854L21.5775 13.3874C20.303 11.8605 18.3923 10.8896 16.2559 10.8896C12.419 10.8896 9.30859 14.02 9.30859 17.8814C9.30859 21.7428 12.419 24.8731 16.2559 24.8731C18.2137 24.8731 19.9818 24.0573 21.2447 22.746L19.8036 20.8774Z" fill="#1F262F"/>
<path fill-rule="evenodd" clip-rule="evenodd" d="M32.3262 15.6122H34.4425V17.0509H34.4796C34.6776 16.6025 35.021 16.2072 35.51 15.8645C35.9988 15.522 36.5775 15.3506 37.2458 15.3506C37.8275 15.3506 38.3255 15.4534 38.7404 15.6589C39.155 15.8645 39.4951 16.1353 39.7613 16.4718C40.0275 16.808 40.2225 17.1943 40.3462 17.6301C40.4697 18.0663 40.5317 18.5146 40.5317 18.9755V24.5805H38.3041V19.6107C38.3041 19.3491 38.2854 19.0753 38.2483 18.7886C38.2112 18.5021 38.1306 18.2438 38.007 18.0131C37.883 17.7829 37.7127 17.5927 37.4963 17.4434C37.2797 17.2938 36.9919 17.2192 36.6333 17.2192C36.274 17.2192 35.9649 17.2908 35.705 17.434C35.445 17.5773 35.2314 17.761 35.0645 17.9852C34.8974 18.2092 34.7702 18.468 34.6838 18.7605C34.5971 19.0534 34.5538 19.3491 34.5538 19.648V24.5805H32.3262V15.6122Z" fill="#1F262F"/>
<path fill-rule="evenodd" clip-rule="evenodd" d="M41.4785 17.4065V15.6128H43.0378V13.0156H45.2286V15.6128H47.4564V17.4065H45.2286V21.573C45.2286 21.9717 45.2996 22.3017 45.442 22.5633C45.5842 22.8249 45.9029 22.9555 46.3982 22.9555C46.5468 22.9555 46.7074 22.9401 46.8807 22.909C47.0541 22.8779 47.2087 22.8313 47.3451 22.7686L47.4191 24.525C47.2211 24.5999 46.9858 24.6589 46.7139 24.7027C46.4413 24.746 46.1815 24.7679 45.934 24.7679C45.3399 24.7679 44.8573 24.684 44.486 24.5158C44.1145 24.3475 43.8205 24.1173 43.6041 23.8244C43.3874 23.5319 43.239 23.1955 43.1586 22.8154C43.0779 22.4356 43.0378 22.0277 43.0378 21.5917V17.4065H41.4785Z" fill="#1F262F"/>
<path fill-rule="evenodd" clip-rule="evenodd" d="M48.793 15.6122H50.928V17.1069H50.9651C51.2126 16.5838 51.5592 16.1604 52.0047 15.8364C52.4504 15.5126 52.9701 15.3506 53.5642 15.3506C53.6506 15.3506 53.7435 15.3538 53.8428 15.36C53.9417 15.3665 54.0284 15.3819 54.1026 15.4068V17.4621C53.9541 17.4247 53.8272 17.3998 53.7221 17.3872C53.6167 17.375 53.5147 17.3685 53.4156 17.3685C52.9081 17.3685 52.4997 17.4621 52.1904 17.6487C51.8809 17.8356 51.6396 18.0599 51.4663 18.3215C51.2928 18.583 51.1755 18.8511 51.1137 19.1248C51.0515 19.3991 51.0208 19.6171 51.0208 19.7787V24.5805H48.793V15.6122Z" fill="#1F262F"/>
<path fill-rule="evenodd" clip-rule="evenodd" d="M55.1243 24.581H57.352V15.6126H55.1243V24.581ZM54.8086 12.5669C54.8086 12.2058 54.9416 11.8913 55.2078 11.6233C55.4739 11.3556 55.8111 11.2217 56.2197 11.2217C56.6281 11.2217 56.9715 11.3495 57.2501 11.6047C57.5285 11.8601 57.6677 12.181 57.6677 12.5669C57.6677 12.9531 57.5285 13.274 57.2501 13.5291C56.9715 13.7846 56.6281 13.9122 56.2197 13.9122C55.8111 13.9122 55.4739 13.7785 55.2078 13.5104C54.9416 13.2427 54.8086 12.9283 54.8086 12.5669Z" fill="#1F262F"/>
<path fill-rule="evenodd" clip-rule="evenodd" d="M60.2293 17.406H58.54V15.6123H60.2293V14.9417C60.2293 14.4063 60.2879 13.8925 60.4059 13.4003C60.5232 12.9084 60.7214 12.4753 60.9997 12.1017C61.2784 11.728 61.6464 11.4322 62.1043 11.2142C62.562 10.9964 63.1377 10.8872 63.831 10.8872C64.0785 10.8872 64.2859 10.8965 64.453 10.9152C64.6201 10.9339 64.7899 10.9684 64.9634 11.018L64.815 12.9238C64.691 12.8865 64.5581 12.8555 64.4159 12.8304C64.2734 12.8056 64.1216 12.793 63.9609 12.793C63.639 12.793 63.379 12.8555 63.1813 12.9799C62.9831 13.1045 62.8315 13.2666 62.7264 13.4657C62.621 13.665 62.5501 13.8832 62.513 14.1196C62.4759 14.3563 62.4572 14.5868 62.4572 14.8108V15.6123H64.5177V17.406H62.4572V24.5807H60.2293V17.406Z" fill="#1F262F"/>
<path fill-rule="evenodd" clip-rule="evenodd" d="M73.8374 24.5807H71.7211V23.1419H71.684C71.4858 23.5904 71.1424 23.9859 70.6536 24.3283C70.1645 24.6708 69.5861 24.8423 68.9178 24.8423C68.3358 24.8423 67.8378 24.7395 67.4232 24.5339C67.0086 24.3283 66.6682 24.0575 66.402 23.7213C66.1359 23.3848 65.9409 22.999 65.8174 22.5628C65.6936 22.127 65.6318 21.6785 65.6318 21.2176V15.6123H67.8597V20.5822C67.8597 20.8438 67.8781 21.118 67.9152 21.4045C67.9524 21.6912 68.0328 21.9495 68.1565 22.1797C68.2801 22.4104 68.4504 22.6001 68.667 22.7497C68.8834 22.899 69.1713 22.9739 69.5305 22.9739C69.8767 22.9739 70.1832 22.9022 70.4494 22.7589C70.7153 22.6158 70.932 22.4321 71.0993 22.2079C71.2664 21.9836 71.3931 21.7253 71.4798 21.4324C71.5662 21.1399 71.6098 20.8438 71.6098 20.5449V15.6123H73.8374V24.5807Z" fill="#1F262F"/>
<path fill-rule="evenodd" clip-rule="evenodd" d="M24.8926 17.6395C25.3567 17.2351 25.923 17.0323 26.5913 17.0323C26.9504 17.0323 27.2627 17.0915 27.5291 17.2097C27.795 17.3284 28.0147 17.4872 28.188 17.6863C28.3613 17.8857 28.488 18.1159 28.5687 18.3775C28.6489 18.639 28.6894 18.9133 28.6894 19.1995H24.1224C24.1715 18.5644 24.4287 18.0444 24.8926 17.6395ZM29.0236 21.8528C28.7759 22.2142 28.4601 22.4974 28.0766 22.7028C27.6929 22.9083 27.2228 23.0111 26.6658 23.0111C26.3438 23.0111 26.0345 22.9551 25.7375 22.8431C25.4404 22.7309 25.1742 22.5785 24.9392 22.3852C24.7038 22.1923 24.5151 21.9618 24.3729 21.694C24.2305 21.4262 24.1471 21.1305 24.1224 20.8065H30.8986C30.9109 20.707 30.9173 20.6074 30.9173 20.5074V20.2085C30.9173 19.3991 30.8088 18.6923 30.5924 18.0878C30.3757 17.4837 30.0754 16.9795 29.6919 16.5746C29.3082 16.1699 28.8533 15.8645 28.3274 15.6589C27.801 15.4534 27.2288 15.3506 26.61 15.3506C25.9417 15.3506 25.3196 15.466 24.7444 15.6963C24.1687 15.927 23.6705 16.2508 23.2496 16.6679C22.8288 17.0853 22.4979 17.5897 22.2566 18.1813C22.0151 18.7732 21.8945 19.4302 21.8945 20.1525C21.8945 20.8876 22.0151 21.5445 22.2566 22.1236C22.4979 22.7028 22.832 23.1918 23.2591 23.5905C23.6859 23.9892 24.1902 24.2973 24.7721 24.5153C25.3538 24.7331 25.991 24.8423 26.6842 24.8423C28.1804 24.8423 29.3585 24.3625 30.2197 23.4038L29.0236 21.8528Z" fill="#1F262F"/>
<path fill-rule="evenodd" clip-rule="evenodd" d="M89.1018 17.6395C89.5657 17.2351 90.132 17.0323 90.8003 17.0323C91.1594 17.0323 91.4716 17.0915 91.7381 17.2097C92.004 17.3284 92.2236 17.4872 92.3969 17.6863C92.5703 17.8857 92.697 18.1159 92.7777 18.3775C92.8581 18.639 92.8984 18.9133 92.8984 19.1995H88.3314C88.3807 18.5644 88.6377 18.0444 89.1018 17.6395ZM93.2326 21.8528C92.9849 22.2142 92.6691 22.4974 92.2859 22.7028C91.9019 22.9083 91.4318 23.0111 90.8747 23.0111C90.5528 23.0111 90.2435 22.9551 89.9465 22.8431C89.6494 22.7309 89.3832 22.5785 89.1481 22.3852C88.9131 22.1923 88.7241 21.9618 88.5819 21.694C88.4397 21.4262 88.356 21.1305 88.3314 20.8065H95.1076C95.1198 20.707 95.1263 20.6074 95.1263 20.5074V20.2085C95.1263 19.3991 95.0177 18.6923 94.8013 18.0878C94.5847 17.4837 94.2844 16.9795 93.9009 16.5746C93.5172 16.1699 93.0623 15.8645 92.5364 15.6589C92.0102 15.4534 91.4378 15.3506 90.819 15.3506C90.1506 15.3506 89.5289 15.466 88.9534 15.6963C88.3777 15.927 87.8795 16.2508 87.4589 16.6679C87.0378 17.0853 86.7069 17.5897 86.4656 18.1813C86.2241 18.7732 86.1035 19.4302 86.1035 20.1525C86.1035 20.8876 86.2241 21.5445 86.4656 22.1236C86.7069 22.7028 87.041 23.1918 87.4681 23.5905C87.8951 23.9892 88.3994 24.2973 88.9811 24.5153C89.5627 24.7331 90.2002 24.8423 90.8934 24.8423C92.3893 24.8423 93.5677 24.3625 94.4287 23.4038L93.2326 21.8528Z" fill="#1F262F"/>
<path fill-rule="evenodd" clip-rule="evenodd" d="M82.4325 21.102C82.3086 21.4435 82.1322 21.7445 81.9034 22.0051C81.6741 22.2658 81.3957 22.4737 81.068 22.629C80.7398 22.7843 80.3718 22.8618 79.9634 22.8618C79.567 22.8618 79.2114 22.7811 78.8959 22.6196C78.5802 22.4582 78.314 22.2439 78.0976 21.977C77.8809 21.7104 77.7136 21.4089 77.5963 21.0739C77.4786 20.7388 77.42 20.3915 77.42 20.031C77.42 19.6339 77.4786 19.2615 77.5963 18.9137C77.7136 18.566 77.8809 18.265 78.0976 18.0106C78.314 17.7559 78.5802 17.5543 78.8959 17.4054C79.2114 17.2565 79.5734 17.1818 79.9818 17.1818C80.3902 17.1818 80.7552 17.2565 81.0772 17.4054C81.3989 17.5543 81.6741 17.7591 81.9034 18.0198C82.1322 18.2807 82.3086 18.5846 82.4325 18.9322C82.5561 19.2799 82.6181 19.6464 82.6181 20.031C82.6181 20.4037 82.5561 20.7607 82.4325 21.102ZM82.6183 15.6122V16.9574H82.5812C82.2592 16.4096 81.826 16.0046 81.2816 15.7431C80.7368 15.4815 80.1491 15.3506 79.5179 15.3506C78.8496 15.3506 78.2462 15.4753 77.7079 15.7244C77.1695 15.9738 76.7113 16.31 76.3339 16.7334C75.9564 17.1569 75.6657 17.6552 75.4613 18.2279C75.2571 18.801 75.1553 19.4115 75.1553 20.0591C75.1553 20.6943 75.2601 21.2956 75.4708 21.862C75.681 22.429 75.9748 22.9242 76.3525 23.3473C76.73 23.7709 77.1909 24.1074 77.7357 24.3563C78.2801 24.6054 78.8867 24.7301 79.555 24.7301C80.1738 24.7301 80.734 24.6137 81.2353 24.381C81.7366 24.1482 82.1477 23.8117 82.4699 23.3711H82.507V24.0274C82.507 24.4775 82.4604 24.8901 82.3678 25.2652C82.2749 25.64 82.1198 25.9654 81.9036 26.2403C81.6868 26.5153 81.3959 26.7307 81.0309 26.8872C80.6658 27.0435 80.2171 27.1216 79.685 27.1216C79.1282 27.1216 78.5772 27.0124 78.0326 26.7946C77.5023 26.5823 77.025 26.2784 76.6005 25.8831L75.285 27.5888C75.5696 27.8252 75.8914 28.0372 76.2504 28.2241C76.6093 28.4108 76.9838 28.5664 77.3737 28.691C77.7636 28.8155 78.1593 28.9091 78.562 28.9713C78.9639 29.0335 79.3444 29.0649 79.7037 29.0649C80.5697 29.0649 81.3187 28.9402 81.95 28.691C82.5812 28.4417 83.1039 28.09 83.5187 27.6355C83.9333 27.1806 84.2396 26.6263 84.4378 25.9725C84.6355 25.3187 84.7348 24.5868 84.7348 23.7772V15.6122H82.6183Z" fill="#1F262F"/>
</g>
<defs>
<clipPath id="clip0_811_23311">
<rect width="95" height="31" fill="white"/>
</clipPath>
</defs>
</svg>
