<svg width="148" height="30" viewBox="0 0 148 30" fill="none" xmlns="http://www.w3.org/2000/svg">
<path d="M6.22924 0V0.738505H9.00208V15.137C9.00208 19.4612 7.79974 20.6828 5.11544 20.6828C3.42843 20.6828 3.14882 19.4055 3.14882 18.7413C3.14882 17.1667 3.06027 16.2053 1.62492 16.2053C0.180242 16.2053 0.0078125 17.6591 0.0078125 18.105C0.0078125 20.0883 0.893259 21.6071 4.84515 21.6071C9.55665 21.6071 12.0732 20.0232 12.0732 14.7562V0.738505L14.9346 0.743149V0H6.22924ZM14.888 18.7506C14.5524 19.085 14.3847 19.4798 14.3847 19.9582C14.3847 20.4366 14.5524 20.8268 14.8926 21.1426C15.2282 21.4724 15.6336 21.6303 16.0996 21.6303C16.575 21.6303 16.9804 21.4724 17.3253 21.1426C17.6562 20.8268 17.8239 20.4366 17.8239 19.9582C17.8239 19.4752 17.6562 19.0757 17.3253 18.7506C16.9944 18.4208 16.5936 18.2629 16.0996 18.2629C15.615 18.2629 15.2142 18.4162 14.888 18.7506ZM34.2187 18.7506C33.8878 19.085 33.7293 19.4798 33.7293 19.9582C33.7293 20.4366 33.8878 20.8268 34.2187 21.1426C34.5728 21.4724 34.9596 21.6303 35.4303 21.6303C35.915 21.6303 36.3204 21.4724 36.6606 21.1426C36.9962 20.8268 37.1639 20.4366 37.1639 19.9582C37.1639 19.4752 36.9962 19.0757 36.6653 18.7506C36.3251 18.4208 35.9196 18.2629 35.4303 18.2629C34.9503 18.2629 34.5495 18.4162 34.2187 18.7506ZM20.8438 0V0.738505H23.3463V17.1621C23.3463 18.4533 23.2671 18.7877 23.1226 19.164C22.9688 19.582 22.6193 19.9118 22.102 20.1254C21.7152 20.288 21.1327 20.3716 20.3544 20.3948V21.0729H29.5305V20.3994C28.7522 20.3809 28.1603 20.2926 27.7689 20.1533C27.2236 19.9396 26.8648 19.6191 26.6924 19.1918C26.5386 18.8249 26.464 18.4951 26.464 17.8495V12.2248L28.7336 12.2155C35.3278 12.2155 37.1826 9.62378 37.1826 6.08453C37.1779 2.50813 36.0408 0 29.3627 0H20.8438ZM26.4594 0.836043L28.0345 0.817464C33.1188 0.817464 34.228 2.90293 34.228 6.27961C34.228 9.67952 32.2287 11.412 28.1976 11.412H26.4594V0.836043ZM60.9824 0.0510915C60.9079 0.246168 54.5233 16.1031 54.5233 16.1031L54.3789 16.196L54.2251 16.1031C54.2251 16.1031 47.4211 0.246168 47.3419 0.0510915H41.3349V0.729215H43.9399V17.0367L43.884 18.523C43.8421 18.9131 43.7209 19.2661 43.5252 19.5448C43.3201 19.8467 42.9939 20.079 42.5605 20.2276C42.2762 20.3205 41.8568 20.3809 41.3302 20.3948V21.0729H47.2906V20.4041C46.7827 20.3855 46.5636 20.3344 46.2654 20.2322C45.8273 20.0883 45.5011 19.8746 45.2821 19.5634C45.0863 19.2754 44.9652 18.9317 44.9186 18.523L44.8533 17.0367V2.94937H45.2075C45.2075 2.94937 52.9109 20.8732 52.9948 21.0729H53.6379L60.9312 3.1491H61.1129V17.673C61.1129 18.2954 61.0477 18.7738 60.9312 19.1454C60.7867 19.582 60.4745 19.9071 60.0271 20.1301C59.6916 20.2787 59.1836 20.3669 58.5125 20.3902V21.0683H66.8264V20.3902C66.1646 20.3576 65.6473 20.2694 65.3025 20.1115C64.8178 19.8792 64.5056 19.5355 64.3704 19.1036C64.2493 18.7227 64.1934 18.2629 64.1934 17.6684V0.743149L66.4023 0.719926V0.0510915H60.9824ZM68.3223 13.6925C68.3223 21.1937 74.1803 21.6907 75.4432 21.6907C77.9457 21.6907 82.6945 20.1347 82.6945 13.5485C82.6945 8.42545 79.6607 5.63865 75.5457 5.63865C71.1092 5.63865 68.3223 8.56944 68.3223 13.6925ZM71.6358 13.7761C71.6358 9.66094 71.8921 6.57223 75.4851 6.57223C79.3671 6.57223 79.3857 9.76777 79.3857 13.516C79.3857 18.9039 78.463 20.7617 75.4851 20.7617C72.153 20.7571 71.6358 19.0989 71.6358 13.7761ZM90.0903 9.02462L89.8806 9.01533C89.8573 9.02462 89.4985 6.70228 89.3633 6.01486C88.3288 6.01486 84.2277 6.00557 84.2277 6.00557V6.79053H87.0052C87.0052 6.79053 86.9913 9.14074 86.9913 9.99071V17.1946C86.9913 18.2257 86.8748 18.9457 86.6557 19.3823C86.3715 19.8978 85.733 20.1533 84.6798 20.1533H84.2324V21.0729H92.8399V20.1533H92.3738C91.2461 20.1533 90.7567 19.9071 90.4538 19.4194C90.1789 18.9875 90.0577 18.2629 90.0577 17.1946V11.7928C90.0577 9.97213 91.4325 7.89596 93.0822 7.89596C94.8065 7.89596 94.7645 10.5434 96.7218 9.4798C97.7844 8.89921 97.6026 5.86623 94.3078 5.86623C91.6515 5.86623 90.822 7.43149 90.0903 9.02462ZM116.966 6.79982C115.983 7.54761 115.601 8.23502 115.601 9.2197C115.601 9.67952 115.726 10 115.983 10.2183C116.244 10.4505 116.547 10.5527 116.919 10.5527C117.777 10.5527 118.257 10.1208 118.434 8.99675C118.564 8.16535 118.746 7.69159 119.156 7.25499C119.594 6.79517 120.284 6.56758 121.211 6.56758C122.293 6.56758 123.057 6.85555 123.486 7.43614C123.877 7.97957 124.087 8.72271 124.087 9.63772V12.1644C121.328 12.4106 114.818 12.9354 115.107 17.8774C115.214 19.8096 116.929 21.5095 119.138 21.5095C121.584 21.5095 123.131 20.1208 124.18 19.0107C124.348 20.065 125.326 21.3191 127.111 21.3191C129.115 21.3191 130.313 20.3391 130.453 17.8913H129.935C129.8 18.955 129.139 19.5309 128.598 19.5309C127.675 19.5309 127.382 19.02 127.316 18.17L127.26 16.2425V9.93033C127.26 8.56944 127.041 7.65444 126.235 6.85091C125.443 6.04738 123.905 5.63865 121.687 5.63865C119.552 5.63865 117.973 6.0288 116.966 6.79982ZM118.117 17.2968C118.117 14.4914 121.971 13.0887 124.087 13.0887V17.9378L124.036 18.0585L123.97 18.1189C122.493 19.4519 121.37 19.9257 120.545 19.9257C118.434 19.9257 118.117 18.1746 118.117 17.2968ZM136.511 8.73665L136.236 8.72736L135.695 5.99164L131.017 5.98235V6.7673C131.897 6.80446 133.361 6.81839 133.361 6.81839V17.176C133.361 17.9796 133.3 18.5602 133.179 18.9457C133.053 19.4055 132.755 19.726 132.312 19.9071C132.028 20.0279 131.585 20.0975 131.017 20.1208V21.0683H138.454V20.1115C137.704 20.0511 137.201 19.8514 136.93 19.4705C136.641 19.0618 136.506 18.3651 136.506 17.3386V13.3581C136.506 11.6953 136.497 10.0883 137.066 9.08964C137.681 8.00743 138.804 7.40827 140.067 7.40827C141.199 7.40827 141.796 7.77055 142.169 8.48584C142.471 9.06642 142.672 10.8035 142.672 11.9972L142.635 16.9299C142.635 17.752 142.737 18.3604 142.672 18.7459C142.588 19.2011 142.383 19.5541 142.024 19.791C141.763 19.9675 141.353 20.0604 140.831 20.1022V21.0636H148.003V20.1161C147.094 20.0557 146.503 19.8374 146.242 19.4148C145.948 18.9828 145.706 18.2582 145.706 17.176L145.748 10.3484C145.748 9.36368 145.612 8.51835 145.244 7.82629C144.867 7.15281 144.34 6.6419 143.683 6.30283C143.017 5.96842 142.252 5.80585 141.409 5.80585C138.384 5.81514 137.173 7.65444 136.511 8.73665ZM112.557 5.03019C112.115 5.16953 111.821 5.56433 111.663 6.22852C111.546 6.84162 111.313 7.19461 111.001 7.2968C110.689 7.38969 110.344 7.36182 109.929 7.22248C109.16 6.5072 107.678 5.63865 105.078 5.63865C100.888 5.63865 99.038 8.61589 99.038 11.3284C99.038 14.5053 100.264 16.0427 102.957 16.6094C103.12 16.6419 103.12 16.823 102.981 16.8556C100.678 17.32 98.6419 17.9889 98.6419 20.1672C98.6419 21.4817 99.3968 22.2016 100.366 22.5917C101.433 23.0237 102.939 23.2466 104.821 23.2838C106.471 23.3024 107.636 23.3581 108.4 23.451C109.225 23.5439 109.873 23.7808 110.358 24.1291C110.852 24.51 111.113 25.072 111.113 25.8105C111.113 26.8184 110.572 27.6312 109.496 28.2304C108.494 28.7877 107.119 29.0804 105.413 29.0804C103.95 29.0804 102.752 28.9224 101.671 28.249C100.869 27.7566 100.716 26.7859 100.883 26.0845C101.033 25.3785 100.781 24.6308 99.9561 24.4914C99.504 24.4171 98.9355 24.6633 98.6698 25.072C98.4228 25.4529 98.3343 25.908 98.3343 26.4468C98.3343 28.2397 99.723 29.0804 100.786 29.3869C102.403 29.8792 103.479 29.9954 104.966 29.9954C106.937 29.9954 108.54 29.6935 109.687 29.1175C110.833 28.5416 111.63 27.8356 112.059 27.0228C112.506 26.2053 112.725 25.3739 112.725 24.5704C112.725 23.4882 112.487 22.6057 112.021 21.9554C110.525 19.9025 108.396 20.1672 103.614 19.9396C101.312 19.9396 100.869 19.5262 100.869 18.8203C100.869 17.7891 101.722 17.3804 105.05 16.8695C108.326 16.3632 111.383 15.1602 111.383 11.1751C111.383 10.0279 111.113 9.0432 110.786 8.35578C111.462 8.50441 112.096 8.50441 112.674 8.31398C113.336 8.10962 113.764 7.77984 114.011 7.32002C114.263 6.85555 114.314 6.41895 114.179 5.99164C113.96 5.29494 113.583 4.94659 113.042 4.94659C112.898 4.94659 112.734 4.97446 112.557 5.03019ZM102.076 11.3284C102.076 8.52764 103.055 6.44217 105.157 6.44217C107.599 6.44217 108.312 8.34185 108.312 11.268C108.312 15.4575 106.988 16.0056 105.157 16.0056C103.2 16.0102 102.076 15.2996 102.076 11.3284Z" fill="#35210D"/>
</svg>
