<svg width="480" height="480" viewBox="0 0 480 480" fill="none" xmlns="http://www.w3.org/2000/svg">
<path d="M257.019 480.591H240C107.452 480.591 0 373.14 0 240.591C0 108.043 107.452 0.591431 240 0.591431C372.548 0.591431 480 108.043 480 240.591C480 252.46 479.137 264.134 477.469 275.554H443.875C445.807 264.198 446.815 252.518 446.815 240.591C446.815 126.371 354.221 33.7766 240 33.7766C125.779 33.7766 33.1852 126.371 33.1852 240.591C33.1852 354.812 125.779 447.406 240 447.406H363.005C331.594 466.129 295.557 477.898 257.019 480.591Z" fill="black"/>
<path d="M408.983 411.851H240C145.416 411.851 68.7407 335.175 68.7407 240.591C68.7407 146.008 145.416 69.3322 240 69.3322C334.584 69.3322 411.259 146.008 411.259 240.591C411.259 252.563 410.028 264.259 407.684 275.554H373.613C376.523 264.4 378.074 252.686 378.074 240.591C378.074 164.335 316.256 102.517 240 102.517C163.744 102.517 101.926 164.335 101.926 240.591C101.926 316.848 163.744 378.665 240 378.665H437.054C428.702 390.563 419.3 401.67 408.983 411.851Z" fill="black"/>
<path d="M457.72 343.11H240C183.381 343.11 137.481 297.211 137.481 240.591C137.481 183.972 183.381 138.073 240 138.073C296.619 138.073 342.518 183.972 342.518 240.591C342.518 252.859 340.358 264.637 336.397 275.554H299.889C305.894 265.296 309.333 253.363 309.333 240.591C309.333 202.3 278.292 171.258 240 171.258C201.708 171.258 170.667 202.3 170.667 240.591C170.667 278.883 201.708 309.925 240 309.925H470.452C467.014 321.369 462.747 332.454 457.72 343.11Z" fill="black"/>
</svg>
