<svg width="144" height="40" viewBox="0 0 144 40" fill="none" xmlns="http://www.w3.org/2000/svg">
<path d="M50.7999 24.2H48V15.8H56.4V13H45.2V27H56.4V24.2H50.7999Z" fill="#00EBAB"/>
<path d="M56.3999 15.7998V24.1998H59.1999V15.7998H56.3999Z" fill="#00EBAB"/>
<path d="M73.3 13H62V15.8H73.2V18.6H62V27H76V24.2H64.8V21.4H76V13H73.3Z" fill="#00EBAB"/>
<path d="M40.4 0H0V40H40.4V0Z" fill="#00EBAB"/>
<path d="M24.2 16V24H26.9V16H24.2Z" fill="black"/>
<path d="M16.2 18.7004V16.0004H24.3V13.4004H13.5V26.6004H24.3V24.0004H16.2V18.7004Z" fill="black"/>
<path d="M29.6 10.7002H27V13.3002H29.7V10.7002H29.6Z" fill="black"/>
</svg>