<svg
  width="780"
  height="780"
  viewBox="0 0 780 780"
  fill="none"
  xmlns="http://www.w3.org/2000/svg"
>
  <path
    d="M109.85 661.323C-39.997 506.6 -36.0449 259.698 118.677 109.85C273.4 -39.997 520.302 -36.0449 670.15 118.677C819.997 273.4 816.045 520.302 661.323 670.15C506.6 819.997 259.698 816.045 109.85 661.323Z"
    fill="#A99482"
  />
  <path
    d="M144.33 627.929C12.9257 492.249 16.3914 275.735 152.071 144.33C287.751 12.9257 504.265 16.3914 635.67 152.071C767.074 287.751 763.609 504.265 627.929 635.67C492.249 767.074 275.735 763.609 144.33 627.929Z"
    fill="#141414"
  />
  <path
    d="M331.861 528.103L380.803 591.948L390.829 586.16L390.846 586.169V491.992L331.861 528.103ZM256.751 430.1L315.726 507.048V507.038L390.846 461.046V347.996L256.751 430.1ZM256.751 286.113L181.641 332.106L240.614 409.055V409.045L390.846 317.06L390.845 204.01L256.751 286.113Z"
    fill="#FFF1E5"
  />
  <path
    d="M390.793 586.228L390.911 586.16L400.868 591.907L449.777 528.103L390.793 491.992V586.228ZM390.793 461.046L465.913 507.038V507.048L524.888 430.1L390.793 347.996V461.046ZM390.793 317.06L541.024 409.045V409.055L599.998 332.106L524.888 286.113L390.794 204.01L390.793 317.06Z"
    fill="#A99482"
  />
</svg>
