<svg width="776" height="195" viewBox="0 0 776 195" fill="none" xmlns="http://www.w3.org/2000/svg">
<path d="M325.669 155.407C300.875 155.407 283.123 141.029 283.123 120.783V53.8835L273 44.4941H316.279L306.303 53.8835L306.597 116.822C306.597 132.373 318.627 142.936 335.352 142.936C351.637 142.936 363.08 132.667 363.08 117.409V53.8835L347.822 44.4941H382.152L367.041 53.8835V119.169C367.041 140.296 349.876 155.407 325.669 155.407Z" fill="#2F2823"/>
<path d="M424.061 155.407C411.884 155.407 396.773 153.206 387.237 149.979V147.338L382.395 111.834C393.105 136.921 408.656 152.326 426.555 152.326C437.998 152.326 445.921 145.137 445.921 134.427C445.921 104.058 384.302 113.888 384.302 75.1565C384.302 56.0842 401.174 42 423.914 42C434.477 42 445.774 44.3474 455.163 49.0421V51.6829L459.711 81.6117C447.975 58.4315 434.771 45.2276 420.1 45.2276C408.363 45.2276 400.147 52.7098 400.147 63.2729C400.147 90.8544 461.912 82.0518 461.912 121.957C461.912 141.323 446.948 155.407 424.061 155.407Z" fill="#2F2823"/>
<path d="M513.377 153.646H467.164L477.287 144.404V53.8835L467.164 44.4941H513.377C550.202 44.4941 577.636 67.9677 577.636 98.1899C577.636 129.439 550.202 153.646 513.377 153.646ZM500.467 47.575V150.565H511.91C535.824 150.565 552.549 128.852 552.549 98.1899C552.549 68.4078 535.824 47.575 512.057 47.575H500.467Z" fill="#2F2823"/>
<path d="M602.018 154.82H578.984V131.053H602.018V154.82Z" fill="#A99482"/>
<path d="M643.326 153.646H608.409L622.493 144.697L657.263 59.6052L649.634 47.7217L676.482 42.8803L719.615 144.99L730.472 153.646H678.389L693.501 145.137L680.884 115.208H638.631L626.748 144.697L643.326 153.646ZM658.584 65.1802L639.951 111.981H679.563L660.051 65.1802H658.584Z" fill="#A99482"/>
<path d="M731.786 153.646L741.909 144.99V53.15L731.786 44.4941H775.066L765.089 53.15V144.99L775.066 153.646H731.786Z" fill="#A99482"/>
<path d="M27.4626 165.331C-9.99924 126.65 -9.01124 64.9244 29.6694 27.4626C68.3499 -9.99924 130.076 -9.01124 167.537 29.6694C204.999 68.3499 204.011 130.076 165.331 167.537C126.65 204.999 64.9244 204.011 27.4626 165.331Z" fill="url(#paint0_linear_5080_20411)"/>
<path d="M36.0826 156.982C3.23144 123.062 4.09784 68.9337 38.0177 36.0826C71.9376 3.23144 126.066 4.09784 158.917 38.0177C191.769 71.9376 190.902 126.066 156.982 158.917C123.062 191.769 68.9337 190.902 36.0826 156.982Z" fill="#141414"/>
<path d="M82.9653 132.025L95.2007 147.986L97.7075 146.54L97.7114 146.542V122.998L82.9653 132.025ZM64.188 107.524L78.9312 126.762V126.76L97.7114 115.262V86.999L64.188 107.524ZM64.188 71.5283L45.4106 83.0264L60.1538 102.264V102.262L97.7114 79.2646V51.0029L64.188 71.5283Z" fill="url(#paint1_linear_5080_20411)"/>
<path d="M97.6982 146.557L97.7275 146.54L100.218 147.977L112.444 132.025L97.6982 122.998V146.557ZM97.6982 115.262L116.479 126.76V126.762L131.222 107.524L97.6982 86.999V115.262ZM97.6982 79.2646L135.256 102.262V102.264L150 83.0264L131.222 71.5283L97.6982 51.0029V79.2646Z" fill="url(#paint2_linear_5080_20411)"/>
<defs>
<linearGradient id="paint0_linear_5080_20411" x1="62.7341" y1="5.82669" x2="87.5946" y2="195" gradientUnits="userSpaceOnUse">
<stop stop-color="#C4AE9C"/>
<stop offset="0.586538" stop-color="#A99482"/>
<stop offset="1" stop-color="#7D6B5B"/>
</linearGradient>
<linearGradient id="paint1_linear_5080_20411" x1="93.9768" y1="147.679" x2="71.3506" y2="69.1039" gradientUnits="userSpaceOnUse">
<stop stop-color="#EBCAAE"/>
<stop offset="1" stop-color="#FFF1E5"/>
</linearGradient>
<linearGradient id="paint2_linear_5080_20411" x1="97.6822" y1="147.678" x2="128.535" y2="67.8689" gradientUnits="userSpaceOnUse">
<stop offset="0.0673077" stop-color="#473321"/>
<stop offset="1" stop-color="#A99482"/>
</linearGradient>
</defs>
</svg>
