<svg width="1383" height="1383" viewBox="0 0 1383 1383" fill="none" xmlns="http://www.w3.org/2000/svg">
<circle cx="691.5" cy="691.5" r="588" stroke="#002147" stroke-width="100" fill="#e5e5e5"/>
<path d="M886 341C887.585 341.282 887.585 341.282 889.201 341.57C936.139 350.022 979.613 371.938 1014 405C1013.47 409.07 1011.43 410.9 1008.55 413.703C1007.64 414.601 1006.73 415.5 1005.79 416.426C1004.82 417.367 1003.85 418.309 1002.88 419.25C997.288 424.706 991.781 430.125 986.708 436.065C982.812 440.479 978.514 444.522 974.316 448.644C970.923 452.001 967.621 455.373 964.508 458.992C960.687 463.434 956.553 467.521 952.375 471.625C947.669 476.249 943.118 480.84 939 486C935.442 484.999 933.215 483.401 930.562 480.937C906.973 459.684 875.422 450.825 844.375 450.625C843.678 450.617 842.982 450.609 842.264 450.6C829.069 450.485 816.603 452.382 804.062 456.687C803.318 456.94 802.573 457.193 801.806 457.453C785.602 463.16 771.138 471.993 758 483C756.967 483.829 756.967 483.829 755.914 484.676C736.408 500.828 724.064 525.136 717 549C716.461 550.69 716.461 550.69 715.91 552.414C714.784 556.85 714.285 561.199 713.875 565.75C713.792 566.668 713.71 567.586 713.624 568.532C710.932 600.755 718.001 628.001 734 656C853.295 656.495 853.295 656.495 975 657C975 693.96 975 730.92 975 769C912.96 769 850.92 769 787 769C787.99 776.92 788.98 784.84 790 793C790.189 799.401 790.357 805.707 790.281 812.096C790.249 814.793 790.24 817.49 790.234 820.187C790.18 832.723 789.645 844.925 787.188 857.25C787.007 858.16 786.827 859.071 786.641 860.009C786.105 862.675 785.554 865.338 785 868C784.863 868.685 784.725 869.371 784.583 870.077C780.328 890.939 771.567 911.072 762 930C761.34 931.32 760.68 932.64 760 934C865.93 934 971.86 934 1081 934C1081 970.63 1081 1007.26 1081 1045C902.47 1045 723.94 1045 540 1045C540 1008.37 540 971.74 540 934C557.16 933.34 574.32 932.68 592 932C604.841 929.843 604.841 929.843 616.812 925.812C617.518 925.51 618.223 925.209 618.949 924.898C643.897 913.777 659.103 888.037 668.676 863.482C669.846 860.34 670.933 857.178 672 854C672.316 853.101 672.632 852.203 672.957 851.277C677.075 838.802 677.403 825.755 677.375 812.75C677.376 811.599 677.376 811.599 677.377 810.424C677.363 798.773 676.44 788.212 673 777C672.34 774.36 671.68 771.72 671 769C627.11 769 583.22 769 538 769C538 732.04 538 695.08 538 657C562.09 657 586.18 657 611 657C609.68 652.38 608.36 647.76 607 643C606.239 639.746 605.518 636.524 604.875 633.25C604.719 632.51 604.563 631.77 604.402 631.008C601.294 615.441 600.627 599.856 600.629 584.025C600.625 580.899 600.589 577.774 600.551 574.648C600.445 555.739 603.055 537.288 608.125 519.062C608.419 517.997 608.712 516.932 609.015 515.835C619.656 478.654 639.118 444.73 665.59 416.621C668.011 414.051 668.011 414.051 670.094 411.359C671.808 409.237 673.481 407.561 675.562 405.812C677.873 403.849 680.133 401.873 682.332 399.785C694.227 388.511 707.866 379.237 722 371C723.171 370.289 724.341 369.578 725.512 368.867C742.099 358.973 760.36 351.88 778.905 346.599C780.812 346.054 782.709 345.474 784.605 344.89C816.497 335.848 853.545 334.809 886 341Z" fill="#002147"/>
<path d="M301 423C337.96 423 374.92 423 413 423C413 463.26 413 503.52 413 545C426.301 544.983 426.301 544.983 439.871 544.965C446.184 544.959 452.496 544.954 458.809 544.95C466.997 544.944 475.185 544.937 483.373 544.925C489.854 544.915 496.334 544.908 502.815 544.906C506.248 544.905 509.682 544.902 513.115 544.894C516.942 544.886 520.769 544.886 524.595 544.886C525.742 544.883 526.889 544.879 528.07 544.876C529.624 544.878 529.624 544.878 531.21 544.88C532.116 544.879 533.022 544.878 533.956 544.877C536 545 536 545 537 546C537.096 547.442 537.122 548.889 537.12 550.334C537.122 551.734 537.122 551.734 537.124 553.163C537.121 554.199 537.117 555.235 537.113 556.303C537.114 557.403 537.114 558.504 537.114 559.637C537.113 563.218 537.105 566.798 537.098 570.379C537.096 572.582 537.095 574.785 537.095 576.988C537.089 585.18 537.075 593.371 537.062 601.562C537.042 619.857 537.021 638.151 537 657C496.08 657 455.16 657 413 657C412.81 688.806 412.81 688.806 417.562 720.125C417.825 721.115 418.087 722.105 418.358 723.125C420.971 732.551 424.553 741.301 429 750C429.328 750.643 429.655 751.286 429.993 751.948C434.399 760.436 439.695 767.815 446 775C446.647 775.78 447.294 776.56 447.961 777.363C471.502 805.181 504.262 816.037 539 821C539 857.96 539 894.92 539 933C530.821 933 523.261 932.956 515.25 931.875C514.278 931.744 513.305 931.614 512.303 931.479C462.979 924.383 419.3 902.588 382 870C381.082 869.206 380.164 868.412 379.219 867.594C374.744 863.658 370.609 859.641 366.77 855.082C364.783 852.744 362.706 850.504 360.625 848.25C321.832 805.124 300.719 745.73 300.88 688.041C300.879 686.9 300.878 685.758 300.877 684.582C300.875 680.791 300.881 677.001 300.886 673.21C300.887 670.479 300.887 667.748 300.886 665.018C300.885 659.156 300.889 653.294 300.894 647.432C300.902 638.957 300.905 630.482 300.906 622.007C300.908 608.254 300.915 594.501 300.925 580.748C300.934 567.394 300.941 554.041 300.945 540.688C300.945 539.864 300.946 539.039 300.946 538.19C300.947 534.055 300.948 529.92 300.95 525.784C300.96 491.523 300.978 457.261 301 423Z" fill="#002147"/>
</svg>
