<svg width="94" height="29" viewBox="0 0 94 29" fill="none" xmlns="http://www.w3.org/2000/svg">
<path d="M90.6129 22.03C89.0892 22.03 87.9109 21.644 87.078 20.872C86.245 20.0797 85.8285 18.9522 85.8285 17.4894V8.92632H83.2383V6.42748H85.8285V1.67358H88.7235V6.42748H93.0508V8.92632H88.7235V17.0628C88.7235 17.8145 88.9064 18.3935 89.2721 18.7998C89.6581 19.1858 90.2066 19.3788 90.9176 19.3788C91.1208 19.3788 91.3443 19.3382 91.5881 19.2569C91.8319 19.1756 92.1264 19.0131 92.4718 18.7693L93.5689 21.0244C93.0406 21.3697 92.5328 21.6237 92.0452 21.7862C91.5779 21.9487 91.1005 22.03 90.6129 22.03Z" fill="#2E323F"/>
<path d="M76.2963 22.0302C75.2196 22.0302 74.2546 21.8677 73.4013 21.5426C72.5684 21.2176 71.8573 20.7808 71.2682 20.2323C70.6993 19.6837 70.2727 19.0641 69.9883 18.3734L72.4871 17.2763C72.8122 17.9061 73.2998 18.4242 73.9499 18.8305C74.6 19.2368 75.3212 19.44 76.1135 19.44C76.9871 19.44 77.7083 19.2774 78.2771 18.9524C78.846 18.6273 79.1304 18.1702 79.1304 17.5811C79.1304 17.0122 78.9171 16.5653 78.4904 16.2402C78.0638 15.9152 77.4442 15.6511 76.6315 15.4479L75.1993 15.0822C73.7772 14.6962 72.67 14.1172 71.8776 13.3452C71.1056 12.5732 70.7196 11.6996 70.7196 10.7245C70.7196 9.24143 71.1971 8.09359 72.1519 7.28096C73.1068 6.46833 74.5187 6.06201 76.3878 6.06201C77.302 6.06201 78.1349 6.19406 78.8866 6.45817C79.6586 6.72227 80.3087 7.09812 80.8369 7.5857C81.3854 8.07327 81.7714 8.65227 81.9949 9.32269L79.557 10.4197C79.3132 9.81027 78.8968 9.36333 78.3076 9.07891C77.7184 8.77417 77.0277 8.6218 76.2354 8.6218C75.4228 8.6218 74.7828 8.80464 74.3155 9.17033C73.8483 9.5157 73.6146 10.0033 73.6146 10.6331C73.6146 10.9784 73.8077 11.3136 74.1937 11.6387C74.6 11.9434 75.1891 12.1974 75.9611 12.4005L77.6067 12.7967C78.6022 13.0405 79.425 13.4163 80.0751 13.9242C80.7252 14.4118 81.2128 14.9705 81.5378 15.6003C81.8629 16.2097 82.0254 16.8497 82.0254 17.5201C82.0254 18.4343 81.7714 19.2368 81.2635 19.9275C80.776 20.598 80.0954 21.116 79.2218 21.4817C78.3685 21.8474 77.3934 22.0302 76.2963 22.0302Z" fill="#2E323F"/>
<path d="M60.7689 22.03C59.5906 22.03 58.5647 21.7862 57.6911 21.2986C56.8175 20.8111 56.1369 20.0492 55.6493 19.0131C55.1618 17.977 54.918 16.6362 54.918 14.9906V6.42749H57.813V14.2288C57.813 15.5899 57.9653 16.6362 58.2701 17.3675C58.5951 18.0989 59.0421 18.6068 59.6109 18.8912C60.1798 19.1756 60.8197 19.328 61.5308 19.3483C62.77 19.3483 63.735 18.9115 64.4258 18.038C65.1165 17.1644 65.4619 15.9353 65.4619 14.3506V6.42749H68.3264V21.6643H65.6447L65.5228 19.4398C65.0149 20.2727 64.3547 20.9126 63.542 21.3596C62.7497 21.8065 61.8253 22.03 60.7689 22.03Z" fill="#2E323F"/>
<path d="M44.5012 28.1554C43.4854 28.1554 42.561 28.0539 41.7281 27.8507C40.8951 27.6679 40.1942 27.4545 39.6254 27.2107C39.0565 26.967 38.6299 26.7536 38.3455 26.5708L39.4425 24.2243C39.7066 24.3869 40.0825 24.5697 40.5701 24.7729C41.0576 24.9963 41.6265 25.1792 42.2766 25.3214C42.9267 25.4839 43.6479 25.5652 44.4402 25.5652C45.3747 25.5652 46.2077 25.3722 46.9391 24.9862C47.6704 24.6205 48.2393 24.0415 48.6456 23.2492C49.0722 22.4569 49.2855 21.4411 49.2855 20.2018V18.6172C48.7573 19.5111 48.0564 20.212 47.1828 20.7199C46.3093 21.2074 45.3239 21.4512 44.2269 21.4512C42.8454 21.4512 41.6366 21.1363 40.6005 20.5065C39.5847 19.8564 38.7823 18.9625 38.1931 17.8249C37.6243 16.6669 37.3398 15.3362 37.3398 13.8328C37.3398 12.2685 37.6243 10.9073 38.1931 9.74933C38.7823 8.59133 39.5847 7.68727 40.6005 7.03717C41.6366 6.38706 42.8454 6.06201 44.2269 6.06201C45.3239 6.06201 46.3093 6.31596 47.1828 6.82385C48.0564 7.31143 48.7573 8.02249 49.2855 8.95701V6.4277H52.1805V20.1409C52.1805 21.888 51.8453 23.3507 51.1749 24.5291C50.5248 25.7277 49.6207 26.6317 48.4627 27.2412C47.3251 27.8507 46.0045 28.1554 44.5012 28.1554ZM44.9583 19.0133C45.8115 19.0133 46.5531 18.7899 47.1828 18.3429C47.8126 17.8756 48.3104 17.256 48.6761 16.484C49.0417 15.6917 49.2246 14.7876 49.2246 13.7719C49.2246 12.7561 49.0417 11.8622 48.6761 11.0902C48.3104 10.3182 47.8025 9.71885 47.1524 9.29222C46.5226 8.84527 45.7811 8.6218 44.9278 8.6218C44.0339 8.6218 43.2416 8.84527 42.5508 9.29222C41.8804 9.71885 41.3522 10.3182 40.9662 11.0902C40.5802 11.8622 40.3872 12.7561 40.3872 13.7719C40.3872 14.7876 40.5802 15.6917 40.9662 16.484C41.3725 17.256 41.9109 17.8756 42.5813 18.3429C43.2721 18.7899 44.0644 19.0133 44.9583 19.0133Z" fill="#2E323F"/>
<path d="M27.8158 22.03C26.6375 22.03 25.6115 21.7862 24.7379 21.2986C23.8644 20.8111 23.1838 20.0492 22.6962 19.0131C22.2086 17.977 21.9648 16.6362 21.9648 14.9906V6.42749H24.8598V14.2288C24.8598 15.5899 25.0122 16.6362 25.3169 17.3675C25.642 18.0989 26.0889 18.6068 26.6578 18.8912C27.2266 19.1756 27.8666 19.328 28.5776 19.3483C29.8169 19.3483 30.7819 18.9115 31.4726 18.038C32.1634 17.1644 32.5087 15.9353 32.5087 14.3506V6.42749H35.3733V21.6643H32.6916L32.5697 19.4398C32.0618 20.2727 31.4015 20.9126 30.5889 21.3596C29.7966 21.8065 28.8722 22.03 27.8158 22.03Z" fill="#2E323F"/>
<path d="M0.890625 21.6643L9.4842 0.332764H12.6839L21.2775 21.6643H18.0778L15.7923 15.9658H6.37589L4.09036 21.6643H0.890625ZM7.41199 13.2841H14.7562L11.0993 4.1115L7.41199 13.2841Z" fill="#2E323F"/>
</svg>
