<svg version="1.2" xmlns="http://www.w3.org/2000/svg" viewBox="0 0 1286 1562" width="1286" height="1562">
    <title>BlackRock logo symbol for dark backgrounds</title>
    <path fill="#ffffff" fill-rule="evenodd" d="m737.1 1561.6h-737.1v-1561.6h706.7c368.5-2.1 533.3 186.6 533.3 414.3 0 130.1-54.2 240.7-208.1 325.3 162.6 60.8 253.6 195.2 253.6 370.9 0 264.6-177.7 449-548.4 451.1zm-71.6-1260.1h-294.8v325.3h294.8c130.1 0 197.3-60.7 197.3-167 0-106.2-78-158.3-197.3-158.3zm26 616h-320.8v338.3h320.8c132.3 0 203.8-67.2 203.8-169.1 0-104.2-75.9-169.2-203.8-169.2z"/>
</svg>
