<?xml version="1.0" encoding="UTF-8"?>
<svg id="Layer_1" data-name="Layer 1" xmlns="http://www.w3.org/2000/svg" viewBox="0 0 496.73 40.07">
  <defs>
    <style>
      .cls-1 {
        fill: #2c9bac;
      }

      .cls-1, .cls-2 {
        stroke-width: 0px;
      }

      .cls-2 {
        fill: #02243c;
      }
    </style>
  </defs>
  <g>
    <path class="cls-2" d="M237.99,6.71v26.65h-3.42V6.71h3.42Z"/>
    <path class="cls-2" d="M266.49,6.71v26.65h-3.76l-13.08-22.67v22.67h-3.23V6.71h4.4l12.44,21.54V6.71h3.23Z"/>
    <path class="cls-2" d="M275.15,6.71l7.37,22.52,7.22-22.52h3.42l-8.98,26.65h-3.5l-8.98-26.65h3.46Z"/>
    <path class="cls-2" d="M315.79,6.71v3.08h-14.1v8.19h12.33v3.16h-12.33v9.14h14.1v3.08h-17.44V6.71h17.44Z"/>
    <path class="cls-2" d="M320.32,24.94h3.5c.07,3.53,3.04,5.87,6.99,5.87,3.65,0,6.32-1.73,6.32-4.74,0-2.03-1.35-3.76-4.47-4.25l-4.21-.64c-4.06-.6-7.11-2.82-7.11-7.07,0-4.59,4.44-7.93,9.32-7.93,5.19,0,9.32,3.31,9.47,8.31h-3.5c-.19-3.23-2.41-5.22-6.01-5.22-3.31,0-5.83,1.8-5.83,4.7,0,2.48,1.99,3.53,3.98,3.83l4.44.68c4.44.68,7.4,3.38,7.4,7.6,0,4.81-4.51,7.82-9.81,7.82-6.01,0-10.49-3.57-10.49-8.95Z"/>
    <path class="cls-2" d="M343.71,9.83v-3.12h20.38v3.12h-8.5v23.53h-3.38V9.83h-8.5Z"/>
    <path class="cls-2" d="M395.03,6.71v26.65h-3.2V10.54l-8.23,22.44h-2.71l-8.23-22.63v23.01h-3.2V6.71h4.96l7.89,21.69,7.86-21.69h4.85Z"/>
    <path class="cls-2" d="M420.91,6.71v3.08h-14.1v8.19h12.33v3.16h-12.33v9.14h14.1v3.08h-17.44V6.71h17.44Z"/>
    <path class="cls-2" d="M447.87,6.71v26.65h-3.76l-13.08-22.67v22.67h-3.23V6.71h4.4l12.44,21.54V6.71h3.23Z"/>
    <path class="cls-2" d="M453.26,9.83v-3.12h20.38v3.12h-8.5v23.53h-3.38V9.83h-8.5Z"/>
    <path class="cls-2" d="M476.43,24.94h3.49c.08,3.53,3.05,5.87,6.99,5.87,3.65,0,6.32-1.73,6.32-4.74,0-2.03-1.35-3.76-4.47-4.25l-4.21-.64c-4.06-.6-7.11-2.82-7.11-7.07,0-4.59,4.44-7.93,9.32-7.93,5.19,0,9.32,3.31,9.47,8.31h-3.5c-.19-3.23-2.41-5.22-6.01-5.22-3.31,0-5.83,1.8-5.83,4.7,0,2.48,1.99,3.53,3.98,3.83l4.44.68c4.43.68,7.4,3.38,7.4,7.6,0,4.81-4.51,7.82-9.81,7.82-6.01,0-10.49-3.57-10.49-8.95Z"/>
  </g>
  <rect class="cls-2" x="207.5" y="0" width="3.35" height="40.07"/>
  <g>
    <polygon class="cls-1" points="40.04 20.03 17.65 28.63 0 35.4 11.32 20.03 0 4.66 17.65 11.44 40.04 20.03"/>
    <path class="cls-2" d="M46.19,0h29.02c11.19,0,13.97,4.88,13.97,9.24v.58c0,4.89-4.26,7.85-7.2,8.22,4.41.63,9.14,3.91,9.14,10.15v.58c0,5.3-3.21,11.29-15.76,11.29h-29.17V0ZM58.49,8.24v6.89h13.67c3.26,0,4.26-1.58,4.26-3.42h0c0-1.89-1.05-3.47-4.26-3.47h-13.67ZM58.49,23.29v7.54h14.51c3.83,0,4.89-1.94,4.89-3.94v-.03c0-1.94-1.05-3.57-4.89-3.57h-14.51Z"/>
    <path class="cls-2" d="M109.62,0l16.48,22.38V0h12.3v40.07h-14.48l-16.27-22.09v22.09h-12.29V0h14.25Z"/>
    <path class="cls-2" d="M155.51,23.39L138.29,0h15.21l8.64,11.73,8.64-11.73h15.21l-17.23,23.39v16.68h-13.24v-16.68Z"/>
  </g>
</svg>