<svg width="32" height="26" viewBox="0 0 32 26" fill="none" xmlns="http://www.w3.org/2000/svg">
<g filter="url(#filter0_d_639_45)">
<path d="M12.69 8.4241C13.059 7.9916 13.2392 7.43946 13.1975 6.87001C13.1557 6.30055 12.8969 5.78124 12.4689 5.40837C12.0406 5.03549 11.4943 4.85365 10.9311 4.89557C9.7675 4.98266 8.89109 6.01036 8.97757 7.18594C9.01933 7.75539 9.27817 8.27441 9.70615 8.64758C10.0938 8.98495 10.5779 9.16622 11.0842 9.16622C11.1373 9.16622 11.1905 9.16421 11.244 9.16038C11.8075 9.11817 12.3211 8.8566 12.69 8.4241ZM12.0605 7.46693H12.0578C11.8592 7.46693 11.6971 7.3049 11.6956 7.10353C11.6941 7.03175 11.667 6.80981 11.5609 6.67515C11.3938 6.46315 11.2054 6.43157 11.1975 6.43042C10.9986 6.40975 10.858 6.2303 10.8785 6.02922C10.8989 5.82814 11.0812 5.68238 11.2802 5.70295C11.3293 5.70802 11.7707 5.76621 12.1277 6.21901C12.4081 6.57513 12.4198 7.04534 12.4201 7.09789C12.4216 7.30011 12.2606 7.4655 12.0605 7.46693Z" fill="#FFB1B5"/>
<path d="M16.2225 6.18773C16.6101 6.52509 17.0942 6.70636 17.6005 6.70636C17.6537 6.70636 17.7068 6.70435 17.7603 6.70053C18.3238 6.65832 18.8377 6.39675 19.2066 5.96425C19.5756 5.53175 19.7559 4.97961 19.7141 4.41015C19.6884 4.06092 19.5806 3.73082 19.4027 3.44154C19.2905 3.25909 19.1511 3.09288 18.9855 2.94851C18.9297 2.89981 18.8716 2.85493 18.8119 2.81271C18.4144 2.53225 17.9373 2.39881 17.4477 2.43571C16.2841 2.52281 15.4077 3.55047 15.4942 4.72608C15.536 5.29554 15.7945 5.81456 16.2225 6.18773ZM17.448 3.62693C17.4766 3.42677 17.661 3.28773 17.8584 3.31724C17.9128 3.32522 17.98 3.34205 18.0524 3.36803C18.2747 3.44715 18.5517 3.62044 18.7217 3.93334C18.7334 3.95497 18.7469 3.97411 18.7577 3.99689C18.9984 4.51706 18.8289 4.97282 18.8091 5.02335C18.7521 5.16567 18.6165 5.25209 18.4731 5.25209C18.4278 5.25209 18.3819 5.24357 18.3375 5.22529C18.152 5.1494 18.0627 4.93626 18.1374 4.74877C18.1384 4.74637 18.1939 4.58492 18.1316 4.38594C18.1234 4.36 18.1141 4.33368 18.1015 4.30679C17.9996 4.08628 17.7571 4.04168 17.7548 4.04139C17.6241 4.02225 17.5213 3.93459 17.4737 3.81974C17.4492 3.76069 17.4381 3.69513 17.448 3.62693Z" fill="#FFB1B5"/>
<path d="M7.49553 10.5091C6.9986 10.5462 6.54579 10.7768 6.22035 11.1583C5.89491 11.5397 5.73599 12.0265 5.77279 12.5287C5.8096 13.0309 6.03777 13.4884 6.41521 13.8173C6.75701 14.1149 7.18382 14.2746 7.6302 14.2746C7.67694 14.2746 7.72398 14.2729 7.77101 14.2693C8.26793 14.2321 8.72074 14.0015 9.04618 13.6201C9.37163 13.2387 9.53055 12.7519 9.49344 12.2497C9.41749 11.2128 8.52004 10.4326 7.49553 10.5091ZM8.7783 12.7338C8.7596 12.8407 8.6965 12.9278 8.61208 12.9809C8.55598 13.016 8.49083 13.0367 8.42189 13.0367C8.40115 13.0367 8.38012 13.035 8.35879 13.0312C8.16189 12.9963 8.03014 12.8064 8.06461 12.6075C8.06461 12.6048 8.09177 12.3902 7.93548 12.1956C7.82097 12.053 7.64656 12.0377 7.63896 12.0371C7.43914 12.0288 7.28664 11.8585 7.29483 11.6566C7.30301 11.4547 7.47654 11.299 7.6746 11.3058C7.72543 11.3079 8.17942 11.3377 8.49785 11.7339C8.66962 11.9479 8.74324 12.1708 8.77245 12.3527C8.80488 12.5543 8.78327 12.7049 8.7783 12.7338Z" fill="#FFB1B5"/>
<path d="M25.1486 7.80856C25.3 7.51072 25.3764 7.16971 25.3505 6.81224C25.3137 6.31007 25.0855 5.85249 24.708 5.52355C24.3701 5.22896 23.9476 5.07066 23.5068 5.0675C23.4554 5.06712 23.404 5.0675 23.3522 5.07133C23.0621 5.09315 22.7878 5.18264 22.5442 5.32754C22.3707 5.4309 22.2124 5.56164 22.0771 5.72051C21.7516 6.1019 21.5927 6.58848 21.6298 7.09066C21.6666 7.59283 21.8948 8.05041 22.2723 8.37926C22.614 8.67681 23.0408 8.83655 23.4875 8.83655C23.5343 8.83655 23.5813 8.83483 23.6283 8.83128C23.7256 8.82391 23.82 8.80707 23.9123 8.78515C24.4568 8.65738 24.9028 8.29217 25.1486 7.80856ZM24.5062 7.462C24.4554 7.61494 24.3143 7.71113 24.163 7.71113C24.1247 7.71113 24.0855 7.705 24.0473 7.69198C23.8577 7.62729 23.7557 7.41979 23.8197 7.22819C23.8442 7.15468 23.8772 7.005 23.8223 6.83167C23.7866 6.71864 23.7095 6.62772 23.5929 6.56187C23.4186 6.46301 23.3566 6.23982 23.4545 6.06353C23.5524 5.88733 23.7732 5.82474 23.9476 5.9236C24.1411 6.03338 24.396 6.24154 24.512 6.60915C24.6239 6.96279 24.5708 7.268 24.5062 7.462Z" fill="#FFB1B5"/>
<path d="M22.1838 12.5665C22.1838 12.5665 22.1835 12.5656 22.1832 12.5653C21.7511 11.4807 20.9738 10.6876 19.9355 10.272C18.2966 9.61601 16.372 10.0098 15.1173 10.5976C12.0449 12.0365 11.607 14.6575 12.0621 16.0678C12.3835 17.0633 13.1241 17.6496 14.0113 17.6496C14.1489 17.6496 14.2903 17.6354 14.434 17.6065C15.273 17.4377 15.819 17.0706 16.3472 16.7156C17.086 16.2189 17.8496 15.7053 19.585 15.5836C20.8052 15.498 21.6363 15.1293 22.0553 14.4872C22.2609 14.1719 22.3576 13.794 22.3438 13.3828C22.3354 13.1266 22.2843 12.8575 22.1894 12.5827C22.1876 12.5774 22.1858 12.5718 22.1838 12.5665ZM19.663 12.5962C18.9933 11.9084 17.9522 11.8738 17.9417 11.8736C17.7421 11.8686 17.5838 11.7012 17.5882 11.4995C17.5926 11.2979 17.753 11.1394 17.9569 11.1417C18.0112 11.1429 19.2989 11.1786 20.1791 12.0829C20.3194 12.227 20.3176 12.4587 20.175 12.6004C20.1047 12.6707 20.0126 12.7055 19.9212 12.7055C19.8297 12.7055 19.7339 12.6689 19.663 12.5962ZM20.6235 14.0815C20.606 14.0842 20.5885 14.0853 20.5709 14.0853C20.3939 14.0853 20.2391 13.954 20.213 13.7719C20.2016 13.6922 20.1867 13.6139 20.1689 13.5395C20.1219 13.3429 20.2413 13.1454 20.4359 13.0978C20.6302 13.0504 20.8262 13.1711 20.873 13.3677C20.8961 13.4642 20.915 13.5649 20.93 13.6667C20.9586 13.8669 20.8215 14.0526 20.6235 14.0815Z" fill="#FFB1B5"/>
<path d="M26.1582 12.3717C25.9697 12.0968 25.7711 11.8488 25.5794 11.6327C25.0419 11.0269 24.5643 10.6686 24.5576 10.6635C24.4202 10.5619 24.3566 10.3872 24.396 10.2198C24.4354 10.053 24.5692 9.92634 24.7364 9.89772C24.8179 9.88356 26.4006 9.58715 27.044 8.0856C27.1625 7.80843 27.2496 7.4904 27.2891 7.12527C27.2975 7.04766 27.3036 6.96765 27.3077 6.88553C27.344 6.12743 26.9636 4.84821 26.1673 4.06207C26.0358 3.93238 25.8944 3.81466 25.7404 3.71666C25.6005 3.62745 25.4428 3.54479 25.2707 3.47276C24.3724 3.09606 23.0773 3.00838 21.8144 3.81285C21.6847 3.89525 21.5214 3.90051 21.3867 3.82644C21.2523 3.75236 21.1679 3.61063 21.1665 3.45593C21.1659 3.41637 21.1541 2.96527 20.9792 2.40022C20.9017 2.14987 20.7923 1.87767 20.6368 1.60843C20.3692 1.14434 19.9667 0.690578 19.3602 0.379118C18.3944 -0.116857 16.3301 -0.35156 14.9013 1.13105C13.9836 2.08315 13.8756 3.31068 13.8747 3.32279C13.8609 3.49342 13.7479 3.63926 13.5869 3.69358C13.4263 3.74757 13.249 3.69949 13.1368 3.57137C13.1049 3.53594 12.3083 2.66178 10.8984 2.66178C8.68434 2.66178 7.54705 4.13614 7.22395 5.00737C6.54005 6.8528 7.44801 8.32736 7.45707 8.34219C7.5377 8.47025 7.545 8.63209 7.47635 8.76694C7.40741 8.90189 7.27303 8.98984 7.12286 8.99788C7.05421 9.002 5.39868 9.11828 4.53746 10.6349C3.77265 11.9814 3.85795 14.0728 5.32886 15.1039C6.42057 15.8692 8.10094 15.6158 8.77314 15.4715C8.80236 15.4653 8.83186 15.462 8.86108 15.462C8.96595 15.462 9.0682 15.5016 9.14708 15.5745C9.24786 15.6681 9.29753 15.8051 9.2803 15.9424C9.25312 16.1638 8.6595 21.3795 12.6238 21.9398C15.0439 22.282 16.3245 21.1058 17.3532 20.1605C17.7532 19.7933 18.1308 19.4461 18.5294 19.2299C19.0297 18.9587 19.8577 18.951 20.9056 18.9416C23.068 18.9215 25.7591 18.8964 26.7366 16.6926C26.8578 16.4195 26.9463 16.1441 27.0054 15.8671C27.0676 15.5745 27.0948 15.2802 27.0881 14.9841C27.0693 14.1599 26.7853 13.3229 26.2329 12.4809C26.2084 12.4434 26.183 12.4079 26.1582 12.3717ZM22.0767 5.72087C22.212 5.56209 22.3704 5.43126 22.5439 5.32789C22.7875 5.1827 23.0616 5.09322 23.3519 5.07168C23.4036 5.06785 23.455 5.06728 23.5064 5.06786C23.9475 5.07111 24.3697 5.22931 24.7077 5.524C25.0851 5.85285 25.3133 6.31042 25.3501 6.8126C25.3764 7.17016 25.2996 7.51107 25.1483 7.80901C24.9026 8.29252 24.4562 8.65831 23.9114 8.78618C23.819 8.80771 23.7246 8.82484 23.6274 8.83221C23.5804 8.83576 23.5333 8.83757 23.4866 8.83757C23.0399 8.83757 22.6131 8.67784 22.2713 8.38029C21.8938 8.05134 21.6657 7.59376 21.6289 7.09159C21.5921 6.58941 21.7516 6.10236 22.0767 5.72087ZM17.4473 2.43564C17.9368 2.39874 18.4139 2.53218 18.8115 2.81264C18.8711 2.85485 18.9292 2.89973 18.985 2.94845C19.1504 3.09251 19.29 3.25902 19.4022 3.44146C19.5801 3.73082 19.6883 4.06082 19.7136 4.41006C19.7555 4.97961 19.5751 5.53165 19.2062 5.96415C18.8372 6.39665 18.3237 6.65822 17.7599 6.70043C17.7064 6.70455 17.6532 6.70636 17.6 6.70636C17.0937 6.70636 16.6094 6.52509 16.222 6.18763C15.794 5.81475 15.5352 5.29573 15.4934 4.72599C15.4073 3.55011 16.2837 2.52273 17.4473 2.43564ZM9.04629 13.6202C8.72085 14.0016 8.26804 14.2321 7.77112 14.2693C7.72409 14.2729 7.67705 14.2747 7.6303 14.2747C7.18392 14.2747 6.75682 14.115 6.41531 13.8173C6.03787 13.4885 5.80971 13.0309 5.7729 12.5287C5.73609 12.0265 5.89501 11.5401 6.22046 11.1583C6.5459 10.7769 6.99871 10.5463 7.49563 10.5091C8.52015 10.4326 9.41788 11.2132 9.49385 12.2497C9.53066 12.7519 9.37145 13.2385 9.04629 13.6202ZM11.0837 9.167C10.5774 9.167 10.093 8.98573 9.70565 8.64826C9.27766 8.27549 9.01883 7.75646 8.97706 7.18662C8.89087 6.01076 9.76728 4.98344 10.9306 4.89635C11.4938 4.85414 12.0404 5.03627 12.4684 5.40915C12.8963 5.78202 13.1552 6.30133 13.1969 6.87079C13.2387 7.44025 13.0585 7.99229 12.6895 8.42479C12.3206 8.85729 11.807 9.11886 11.2432 9.16107C11.1897 9.16528 11.1368 9.167 11.0837 9.167ZM22.0551 14.4878C21.6362 15.1299 20.8051 15.4987 19.5848 15.5843C17.8495 15.7059 17.0856 16.2196 16.347 16.7162C15.8189 17.0713 15.2729 17.4383 14.4338 17.6071C14.2901 17.636 14.1487 17.6502 14.0111 17.6502C13.1239 17.6502 12.3834 17.0639 12.062 16.0684C11.6069 14.6582 12.0448 12.0372 15.1172 10.5983C16.3719 10.0105 18.2965 9.61663 19.9354 10.2726C20.9739 10.6883 21.7511 11.4813 22.1831 12.5659C22.1831 12.5665 22.1834 12.5668 22.1836 12.5671C22.1857 12.5725 22.1878 12.5777 22.1895 12.5831C22.2844 12.8579 22.3355 13.1268 22.3441 13.3831C22.3577 13.7944 22.2608 14.1725 22.0551 14.4878Z" fill="white"/>
<path d="M8.49776 11.734C8.17963 11.3378 7.72535 11.3079 7.67452 11.3059C7.47645 11.2988 7.30292 11.4543 7.29475 11.6566C7.28657 11.8585 7.43906 12.0289 7.63888 12.0371C7.64619 12.0378 7.82088 12.0531 7.9354 12.1957C8.09169 12.3905 8.06482 12.6048 8.06452 12.6075C8.03005 12.8065 8.16181 12.9964 8.35871 13.0311C8.37973 13.035 8.40107 13.0368 8.42181 13.0368C8.49075 13.0368 8.55589 13.0161 8.61199 12.981C8.69641 12.9278 8.75952 12.8408 8.77821 12.7338C8.78318 12.7049 8.80509 12.5544 8.77266 12.3527C8.74345 12.1712 8.66954 11.948 8.49776 11.734Z" fill="white"/>
<path d="M11.2801 5.70318C11.0812 5.68222 10.8989 5.82798 10.8784 6.02935C10.858 6.23043 10.9985 6.40959 11.1975 6.43055C11.2053 6.4318 11.3941 6.46338 11.5609 6.67528C11.6669 6.80994 11.6941 7.03198 11.6955 7.10366C11.697 7.30503 11.8588 7.46706 12.0578 7.46706H12.0604C12.2605 7.46563 12.4215 7.30063 12.42 7.0984C12.4197 7.04585 12.4081 6.57555 12.1276 6.21952C11.7706 5.76663 11.3292 5.70815 11.2801 5.70318Z" fill="white"/>
<path d="M17.7541 4.04057C17.7565 4.04085 17.9989 4.08574 18.1009 4.30596C18.1135 4.33286 18.1229 4.35908 18.131 4.38511C18.1932 4.58409 18.1377 4.74555 18.1368 4.74794C18.0618 4.93543 18.1515 5.14857 18.337 5.22437C18.3814 5.24275 18.4275 5.25126 18.4725 5.25126C18.6157 5.25126 18.7515 5.16474 18.8085 5.02252C18.8286 4.97228 18.9981 4.51614 18.757 3.99597C18.7465 3.973 18.7328 3.95405 18.7211 3.93251C18.551 3.61958 18.2742 3.44628 18.0518 3.36717C17.9794 3.34148 17.9125 3.32436 17.8578 3.31639C17.6607 3.28716 17.4761 3.42591 17.4474 3.62608C17.4378 3.69427 17.4483 3.76014 17.4728 3.8192C17.5205 3.93366 17.6236 4.02143 17.7541 4.04057Z" fill="white"/>
<path d="M23.5932 6.56217C23.7098 6.6283 23.787 6.71894 23.8227 6.83197C23.8772 7.00529 23.8446 7.15469 23.82 7.22848C23.756 7.42009 23.858 7.62758 24.0476 7.69228C24.0858 7.7052 24.125 7.71142 24.1633 7.71142C24.3146 7.71142 24.4554 7.61495 24.5065 7.46229C24.5711 7.26858 24.6245 6.96337 24.5126 6.60935C24.3963 6.24184 24.1416 6.03367 23.9482 5.9239C23.7738 5.82493 23.5529 5.88753 23.4551 6.06382C23.3572 6.24002 23.4188 6.46321 23.5932 6.56217Z" fill="white"/>
<path d="M20.8725 13.3691C20.8254 13.1724 20.6294 13.0517 20.4354 13.0992C20.2412 13.1468 20.1214 13.3446 20.1684 13.5409C20.1862 13.6152 20.2011 13.6935 20.2125 13.7733C20.2385 13.9554 20.3934 14.0867 20.5704 14.0867C20.5876 14.0867 20.6052 14.0856 20.623 14.0829C20.8211 14.054 20.958 13.8683 20.9294 13.6681C20.9148 13.5662 20.8958 13.4656 20.8725 13.3691Z" fill="white"/>
<path d="M20.179 12.0838C19.2985 11.1795 18.011 11.1436 17.9567 11.1426C17.7528 11.1403 17.5924 11.2985 17.588 11.5005C17.5834 11.7021 17.7417 11.8695 17.9415 11.8745C17.9521 11.8748 18.9932 11.9093 19.6627 12.5973C19.7337 12.6701 19.8273 12.7065 19.921 12.7065C20.0148 12.7065 20.1045 12.6716 20.1749 12.6014C20.3175 12.4596 20.3192 12.2279 20.179 12.0838Z" fill="white"/>
</g>
<defs>
<filter id="filter0_d_639_45" x="0.0620117" y="0" width="31.248" height="30" filterUnits="userSpaceOnUse" color-interpolation-filters="sRGB">
<feFlood flood-opacity="0" result="BackgroundImageFix"/>
<feColorMatrix in="SourceAlpha" type="matrix" values="0 0 0 0 0 0 0 0 0 0 0 0 0 0 0 0 0 0 127 0" result="hardAlpha"/>
<feOffset dy="4"/>
<feGaussianBlur stdDeviation="2"/>
<feComposite in2="hardAlpha" operator="out"/>
<feColorMatrix type="matrix" values="0 0 0 0 0 0 0 0 0 0 0 0 0 0 0 0 0 0 0.25 0"/>
<feBlend mode="normal" in2="BackgroundImageFix" result="effect1_dropShadow_639_45"/>
<feBlend mode="normal" in="SourceGraphic" in2="effect1_dropShadow_639_45" result="shape"/>
</filter>
</defs>
</svg>
