<?xml version="1.0" encoding="utf-8"?>
<!-- Generator: Adobe Illustrator 28.3.0, SVG Export Plug-In . SVG Version: 6.00 Build 0)  -->
<svg version="1.1" id="Spark-Logo-Horizontal-Dark_x5F_Background-RGB"
	 xmlns="http://www.w3.org/2000/svg" xmlns:xlink="http://www.w3.org/1999/xlink" x="0px" y="0px" viewBox="0 0 2003 550"
	 style="enable-background:new 0 0 2003 550;" xml:space="preserve">
<style type="text/css">
	.st0{fill:#FFFFFF;}
	.st1{fill:url(#Spark-Logomark-RGB_00000145750696646705301350000008184967983867616395_);}
</style>
<g id="Spark-Logo-Horizontal-Dark_x5F_Background-RGB_00000161626777531695219720000007122878108669959843_">
	<path id="Spark-Logotype-White_x5F_Version-RGB" class="st0" d="M1140.25,300.4719849
		c0,53.6690063-31.3699951,95.4900208-85.0400391,95.4900208c-55.0599365,0-85.0339355-40.427002-85.0339355-95.4900208
		c0-55.7609863,32.0639648-96.1869812,85.0339355-96.1869812C1108.8800049,204.2850037,1140.25,246.802002,1140.25,300.4719849z
		 M1193.9200439,300.4719849c0-80.8529816-47.4000244-142.8869781-131.0400391-142.8869781
		c-34.8499756,0-70.4000244,15.3349915-88.5220337,45.3059998v-41.1230011h-52.9719849V550h52.9719849V399.446991
		c16.7280273,29.2740173,50.882019,43.2140198,85.7319946,43.2140198
		C1147.2199707,442.6610107,1193.9200439,378.5360107,1193.9200439,300.4719849z M1837.8100586,306.0480042l98.9699707,132.4309998
		H2003L1876.1400146,269.803009l116.4000244-108.0350037h-69l-120.5800781,110.8240051V46.0644989h-53.6699219v392.4144897
		h53.6699219V338.1099854L1837.8100586,306.0480042z M1451.6199951,300.4719849
		c0,52.2750244-28.5799561,95.4900208-85.0300293,95.4900208c-55.0699463,0-85.039917-40.427002-85.039917-95.4900208
		c0-54.3669891,30.6699219-96.1869812,85.039917-96.1869812
		C1417.4699707,204.2850037,1451.6199951,241.9230042,1451.6199951,300.4719849z M1447.4399414,161.7680054v36.9409943
		c-19.5198975-25.7890015-54.3699951-41.1239929-87.1298828-41.1239929
		c-81.5500488,0-132.4300537,57.8519897-132.4300537,142.8869781c0,82.9440002,48.7900391,142.1890259,133.1300049,142.1890259
		c33.4599609,0,72.4899902-13.9400024,86.4299316-41.8200073v37.6380005h52.9700928V161.7680054H1447.4399414z
		 M1639.8599854,174.3139954c-11.8499756,9.0610046-20.9100342,22.3040009-27.1799316,41.1230011v-53.6689911h-52.9801025
		v276.7109985h52.9801025V313.7149963c0-33.4559937,5.5699463-59.2460022,15.3299561-77.3679962
		c10.4499512-18.8190002,27.8800049-28.5769958,51.5799561-28.5769958h40.4200439v-46.0019989h-33.4499512
		C1667.0400391,161.7680054,1651.7099609,165.9499969,1639.8599854,174.3139954z M875.3829956,333.928009
		c0-79.4590149-59.2449951-97.5810089-126.8549805-116.4000092c-36.94104-8.3639984-92.0050049-19.5160065-92.0050049-64.8220062
		c0-37.6379929,39.7299805-52.2749939,78.0650024-52.2749939c43.2139893,0,77.367981,24.3949966,82.2470093,67.6100006h55.7599487
		c-3.4849854-71.792099-59.9419556-117.7945023-137.3099976-117.7945023
		c-68.3069458,0-135.2189941,33.4562988-136.6129761,101.7625046c0,75.973999,58.5479736,96.1869965,126.15802,114.3089905
		c32.0620117,9.0620117,94.0960083,23.6990051,94.0960083,68.3070068c0,41.8200073-44.6090088,57.8519897-86.4290161,57.8519897
		c-51.5780029,0-86.4290161-31.3659973-89.9140015-82.9440002h-57.1539917
		c2.7879639,75.973999,53.6690063,133.1280212,146.3709717,133.1280212
		C804.9860229,442.6610107,875.3829956,412.6900024,875.3829956,333.928009z"/>
	
		<linearGradient id="Spark-Logomark-RGB_00000144312154297918344950000011713673595832408758_" gradientUnits="userSpaceOnUse" x1="400.5756531" y1="-109.9664307" x2="80.1096725" y2="-355.7676086" gradientTransform="matrix(1 0 0 -1 0 21.8898315)">
		<stop  offset="0" style="stop-color:#FA43BD"/>
		<stop  offset="1" style="stop-color:#FFA930"/>
	</linearGradient>
	<path id="Spark-Logomark-RGB" style="fill:url(#Spark-Logomark-RGB_00000144312154297918344950000011713673595832408758_);" d="
		M313.0350037,279.1967773h177.9819946c6.8460083,0,8.2250061-9.3209534,2-12.1679382L313.04599,185.0601959V6.3826313
		c0-6.6693368-8.9199829-8.8577614-11.9979858-2.9411669l-73.9880066,142.4588928l-81.9869995-37.6558304
		c-7.8439941-3.167984-12.6609955,3.2189789-9.9989929,8.707962l48.8909912,100.850563H5.9827905
		c-6.8455181,0-8.2251301,9.3209534-1.9996803,12.1679382l179.9708862,81.9696198v178.6772461
		c0,6.6689758,8.9199982,8.8569641,11.9980011,2.9410095l73.9880066-142.4593811l81.9869995,37.6557922
		c7.8439941,3.1679993,12.6610107-3.2179565,9.9989929-8.7079163L313.0350037,279.1967773z"/>
</g>
</svg>
