<svg xmlns="http://www.w3.org/2000/svg" width="106" height="32" fill="none"><path fill="url(#a)" d="M17.316 16.61h9.193c.358 0 .464-.497.139-.648l-9.334-4.359v-9.55c0-.355-.467-.472-.628-.156l-3.874 7.604L8.486 7.49c-.287-.133-.578.178-.434.465l2.703 5.381H1.56c-.358 0-.464.497-.138.65l9.333 4.359v9.548c0 .356.468.473.629.157l3.873-7.604 4.32 2.016c.287.134.578-.177.434-.464l-2.696-5.386Z"/><path fill="#101014" d="M60.455 17.744c0 2.863-1.639 5.094-4.443 5.094-2.877 0-4.443-2.157-4.443-5.095 0-2.974 1.675-5.131 4.443-5.131 2.804 0 4.443 2.268 4.443 5.132Zm2.804 0c0-4.314-2.476-7.623-6.846-7.623-1.821 0-3.678.818-4.625 2.417v-2.194H49.02v20.712h2.768v-8.032c.874 1.561 2.658 2.305 4.48 2.305 4.551 0 6.991-3.42 6.991-7.585Zm33.534.297 5.171 7.065h3.46l-6.628-8.999 6.082-5.763h-3.606l-6.3 5.912V4.171h-2.804v20.935h2.804v-5.355l1.821-1.71Zm-20.177-.297c0 2.788-1.493 5.094-4.442 5.094-2.877 0-4.443-2.157-4.443-5.095 0-2.9 1.602-5.131 4.443-5.131 2.658 0 4.442 2.008 4.442 5.132Zm-.218-7.4v1.97c-1.02-1.375-2.84-2.194-4.552-2.194-4.26 0-6.92 3.087-6.92 7.624 0 4.425 2.55 7.585 6.956 7.585 1.748 0 3.787-.744 4.516-2.23v2.007h2.767V10.344h-2.767Zm10.053.669c-.619.483-1.092 1.19-1.42 2.194v-2.863h-2.768v14.762h2.768V18.45c0-1.785.291-3.16.801-4.128.546-1.004 1.457-1.524 2.695-1.524h2.112v-2.454H88.89c-1.02 0-1.82.223-2.44.669Zm-39.834 8.515c0-4.239-3.095-5.206-6.628-6.21-1.93-.446-4.807-1.04-4.807-3.458 0-2.008 2.076-2.789 4.079-2.789 2.258 0 4.042 1.302 4.297 3.607h2.913c-.182-3.83-3.132-6.284-7.174-6.284-3.569 0-7.064 1.785-7.137 5.429 0 4.053 3.059 5.132 6.591 6.098 1.675.484 4.916 1.265 4.916 3.645 0 2.23-2.33 3.086-4.515 3.086-2.695 0-4.516-1.673-4.698-4.425h-2.986c.145 4.053 2.804 7.102 7.647 7.102 3.824 0 7.502-1.599 7.502-5.8Z"/><defs><linearGradient id="a" x1="20.815" x2="4.893" y1="9.447" y2="21.239" gradientUnits="userSpaceOnUse"><stop stop-color="#FA43BD"/><stop offset="1" stop-color="#FFA930"/></linearGradient></defs></svg>