<svg width="66" height="43" viewBox="0 0 66 43" fill="none" xmlns="http://www.w3.org/2000/svg">
<path d="M41.8992 26.6713L51.4992 1.17132C51.7992 0.471324 51.0992 -0.228676 50.3992 0.071324L37.7992 4.17132C37.3992 4.27132 37.1992 4.67132 37.1992 4.97132V31.5713C37.1992 31.9713 37.3992 32.2713 37.7992 32.3713L63.8992 42.1713C64.4992 42.3713 65.0992 41.9713 65.0992 41.3713V28.7713C65.0992 28.2713 64.6992 27.8713 64.1992 27.8713H42.7992C42.1992 27.8713 41.7992 27.2713 41.9992 26.6713H41.8992Z" fill="#F0EDE5"/>
<path d="M23.1 26.6713L13.5 1.17132C13.2 0.471324 13.9 -0.228676 14.6 0.071324L27.2 4.17132C27.6 4.27132 27.8 4.67132 27.8 4.97132V31.5713C27.8 31.9713 27.6 32.2713 27.2 32.3713L1.2 42.1713C0.6 42.3713 0 41.9713 0 41.3713V28.7713C0 28.2713 0.4 27.8713 0.9 27.8713H22.3C22.9 27.8713 23.3 27.2713 23.1 26.6713Z" fill="#F0EDE5"/>
</svg>
