<?xml version="1.0" encoding="UTF-8"?>
<svg id="Layer_1" data-name="Layer 1" xmlns="http://www.w3.org/2000/svg" viewBox="0 0 1080 1080">
  <defs>
    <style>
      .cls-1 {
        fill: #0c2529;
      }
    </style>
  </defs>
  <path class="cls-1" d="M682.42,624.31l144.38-385.9c3.88-10.4-6.05-20.67-16.58-17.18l-190.31,62.2c-5.46,1.78-9.15,6.85-9.15,12.57v401.57c0,5.53,3.49,10.46,8.69,12.44l393.78,148.62c8.69,3.23,17.9-3.16,17.9-12.44v-190.75c0-7.31-5.99-13.23-13.29-13.23h-322.97c-9.28,0-15.73-9.22-12.44-17.84v-.06Z"/>
  <path class="cls-1" d="M397.58,624.31L253.21,238.4c-3.88-10.4,6.05-20.67,16.58-17.18l190.31,62.2c5.46,1.78,9.15,6.85,9.15,12.57v401.57c0,5.53-3.49,10.47-8.69,12.44l-393.78,148.49c-8.69,3.23-17.9-3.16-17.9-12.37v-190.75c0-7.31,5.99-13.23,13.29-13.23h322.97c9.28,0,15.73-9.21,12.44-17.84Z"/>
</svg>