<?xml version="1.0" encoding="UTF-8"?>
<svg id="Layer_1" data-name="Layer 1" xmlns="http://www.w3.org/2000/svg" viewBox="0 0 263.24 42.28">
  <defs>
    <style>
      .cls-1 {
        fill: #f0ede5;
      }
    </style>
  </defs>
  <path class="cls-1" d="M41.92,26.72L51.47,1.18c.26-.69-.4-1.37-1.1-1.14l-12.59,4.12c-.36.12-.61.45-.61.83v26.57c0,.37.23.69.57.82l26.06,9.83c.57.21,1.18-.21,1.18-.82v-12.62c0-.48-.4-.88-.88-.88h-21.37c-.61,0-1.04-.61-.82-1.18h0Z"/>
  <path class="cls-1" d="M23.07,26.72L13.52,1.18c-.26-.69.4-1.37,1.1-1.14l12.59,4.12c.36.12.61.45.61.83v26.57c0,.37-.23.69-.57.82L1.18,42.21C.61,42.43,0,42,0,41.39v-12.62c0-.48.4-.88.88-.88h21.37c.61,0,1.04-.61.82-1.18Z"/>
  <path class="cls-1" d="M83.72,7.02h4.59v24h13.24v4.23h-17.83V7.02Z"/>
  <path class="cls-1" d="M104.75,30.5V7.02h4.43v22.51c0,1.53.44,2.18,1.79,2.18.29,0,.53,0,.85-.04v3.63c-.49.12-1.14.21-1.83.21-3.74,0-5.24-1.66-5.24-5Z"/>
  <path class="cls-1" d="M115.62,29.82c0-4.08,3.61-5.45,7.67-6.13l5.16-.85v-.73c0-2.86-1.34-3.83-3.86-3.83s-3.78,1.01-4.06,3.02h-4.43c.29-4.35,3.94-6.57,8.61-6.57,5.44,0,8.16,2.34,8.16,8.22v12.06h-4.22v-2.7c-1.46,2.05-3.57,3.15-6.38,3.15-4.19,0-6.66-1.98-6.66-5.65h0ZM128.46,27.16v-1.13l-3.94.65c-2.72.48-4.51.89-4.51,2.86,0,1.61,1.06,2.42,3.37,2.42,2.72,0,5.08-1.77,5.08-4.8h0Z"/>
  <path class="cls-1" d="M136.29,15.41h4.19v2.54c1.51-2.05,3.21-2.98,5.73-2.98,2.72,0,4.71,1.01,5.89,3.35,1.42-2.26,3.61-3.35,6.38-3.35,4.67,0,7.07,2.58,7.07,8.31v11.98h-4.43v-11.74c0-3.35-1.06-4.64-3.57-4.64-3.05,0-4.43,2.09-4.43,5.93v10.44h-4.39v-11.74c0-3.35-1.14-4.64-3.57-4.64-3.08,0-4.43,2.09-4.43,5.93v10.44h-4.43V15.41h0Z"/>
  <path class="cls-1" d="M169.13,30.05c0-4.08,3.61-5.45,7.68-6.13l5.16-.85v-.73c0-2.86-1.34-3.83-3.86-3.83s-3.78,1.01-4.06,3.02h-4.43c.29-4.35,3.94-6.57,8.61-6.57,5.44,0,8.16,2.34,8.16,8.22v12.06h-4.22v-2.7c-1.46,2.05-3.57,3.15-6.38,3.15-4.19,0-6.66-1.98-6.66-5.65h0ZM181.96,27.39v-1.13l-3.94.65c-2.72.48-4.51.89-4.51,2.86,0,1.61,1.06,2.42,3.37,2.42,2.72,0,5.08-1.77,5.08-4.8h0Z"/>
  <path class="cls-1" d="M191.51,7.02h11.41c6.3,0,10.11,3.35,10.11,8.92,0,4.44-2.48,7.42-6.54,8.43l7.72,10.89h-5.48l-7.47-10.53h-5.16v10.53h-4.59V7.02ZM208.45,15.94c0-3.02-1.91-4.72-5.48-4.72h-6.87v9.48h6.87c3.57,0,5.48-1.69,5.48-4.76Z"/>
  <path class="cls-1" d="M217.33,15.41h4.43v19.84h-4.43V15.41Z"/>
  <path class="cls-1" d="M224.79,29.17h4.43c.4,2.18,1.87,3.06,4.39,3.06s4.02-.65,4.02-2.38c0-1.29-.93-2.01-3.45-2.58l-1.71-.4c-4.99-1.17-7.03-2.86-7.03-5.96,0-3.83,2.93-5.93,7.84-5.93s8.08,2.18,8.41,6.29h-4.43c-.25-2.05-1.59-2.82-3.9-2.82s-3.53.6-3.53,2.18c0,1.29.85,1.98,3.25,2.54l1.79.4c4.96,1.09,7.15,2.78,7.15,6.01,0,3.96-3.21,6.13-8.53,6.13s-8.2-2.26-8.69-6.53h.01Z"/>
  <path class="cls-1" d="M245.16,7.02h4.43v16.78l8.08-8.39h5.32l-8.16,8.47,8.41,11.37h-5.2l-6.21-8.31-2.24,2.3v6.01h-4.43V7.02h0Z"/>
  <path class="cls-1" d="M219.54,11.81c1.32,0,2.39-1.07,2.39-2.39s-1.07-2.39-2.39-2.39-2.39,1.07-2.39,2.39,1.07,2.39,2.39,2.39Z"/>
</svg>