<svg width="16" height="16" viewBox="0 0 16 16" fill="none" xmlns="http://www.w3.org/2000/svg">
<g clip-path="url(#clip0_15012_511)">
<path d="M7.99977 15.9995C12.4179 15.9995 15.9995 12.4179 15.9995 7.99977C15.9995 3.58162 12.4179 0 7.99977 0C3.58162 0 0 3.58162 0 7.99977C0 12.4179 3.58162 15.9995 7.99977 15.9995Z" fill="#DF1312"/>
<path d="M3.16404 4.1755C3.21176 4.1755 3.25667 4.15398 3.28754 4.11749C4.41399 2.76696 6.10835 1.90575 8.00058 1.90575C9.89281 1.90575 11.5872 2.76696 12.7136 4.11749C12.744 4.15398 12.7894 4.1755 12.8371 4.1755H13.187C13.238 4.1755 13.2675 4.11702 13.2366 4.07632C12.0358 2.49424 10.1356 1.4707 8.00058 1.4707C5.86556 1.4707 3.96585 2.49424 2.76455 4.07632C2.73367 4.11702 2.76314 4.1755 2.81413 4.1755H3.16404Z" fill="white"/>
<path d="M12.9027 11.8281C12.854 11.8281 12.8082 11.8506 12.7778 11.8885C11.6523 13.2839 9.92844 14.1779 8.00018 14.1779C6.07193 14.1779 4.34857 13.2839 3.22259 11.8885C3.19218 11.8506 3.14634 11.8281 3.09769 11.8281H2.75386C2.70334 11.8281 2.6734 11.8857 2.70334 11.9264C3.90043 13.5543 5.82868 14.6124 7.99972 14.6124C10.1708 14.6124 12.099 13.5538 13.2961 11.9264C13.326 11.8857 13.2961 11.8281 13.2456 11.8281H12.9017H12.9027Z" fill="white"/>
<path d="M7.32324 9.36714V6.63428H7.995V9.36714H7.32324Z" fill="white"/>
<path d="M6.74319 5.26902H6.07752C5.62236 5.26902 5.1976 5.49777 4.94686 5.87762L4.20634 7.00033L3.0972 5.4234C3.0289 5.32609 2.91756 5.26855 2.79874 5.26855H1.91695C1.77755 5.26855 1.69568 5.42573 1.77614 5.53988L3.42746 7.884L2.20652 9.65647C1.97121 9.99375 1.83228 10.2132 1.65358 10.3792C1.57172 10.4555 1.49079 10.5182 1.41781 10.5682C1.3439 10.6192 1.37945 10.7347 1.46927 10.7347H2.13494C2.59011 10.7347 3.01487 10.506 3.2656 10.1261L4.10483 8.85327L5.32437 10.5808C5.39267 10.6777 5.504 10.7352 5.62236 10.7352H6.50509C6.64449 10.7352 6.72635 10.578 6.64589 10.4639L4.88839 7.9696L6.00595 6.34776C6.24125 6.01048 6.38018 5.79108 6.55888 5.62501C6.64075 5.54876 6.72168 5.48608 6.79465 5.43603C6.86856 5.38504 6.83301 5.26949 6.74319 5.26949V5.26902Z" fill="white"/>
<path d="M8.83887 9.36714V6.63428H9.94754C10.1506 6.63428 10.3391 6.66936 10.5136 6.73953C10.6881 6.8097 10.841 6.90747 10.9725 7.03237C11.1039 7.15727 11.2068 7.30322 11.2808 7.46976C11.3551 7.63629 11.3921 7.81593 11.3921 8.00866C11.3921 8.20139 11.3551 8.37588 11.2808 8.53961C11.2064 8.7038 11.1039 8.84742 10.9725 8.97091C10.841 9.09441 10.6881 9.19171 10.5136 9.26188C10.3391 9.33205 10.1506 9.36714 9.94754 9.36714H8.83887ZM9.51015 8.7735H9.93164C10.0383 8.7735 10.1379 8.75386 10.2301 8.71503C10.3222 8.6762 10.4036 8.62147 10.4743 8.55083C10.5449 8.4802 10.5992 8.39927 10.6385 8.30665C10.6773 8.21449 10.697 8.11485 10.697 8.00819C10.697 7.90153 10.6773 7.79675 10.6385 7.70179C10.5996 7.60682 10.5449 7.52402 10.4743 7.45385C10.4041 7.38368 10.3227 7.32848 10.2301 7.28779C10.1375 7.24756 10.0383 7.22744 9.93164 7.22744H9.51015V8.7735Z" fill="white"/>
<path d="M11.9814 9.36714V6.63428H13.3792C13.5668 6.63428 13.7333 6.67123 13.8788 6.74561C14.0248 6.81999 14.1384 6.92244 14.2203 7.05389C14.3022 7.18534 14.3433 7.3355 14.3433 7.50484C14.3433 7.67419 14.2966 7.83043 14.203 7.96562C14.1094 8.10081 13.9855 8.20373 13.832 8.2739L14.4294 9.36714H13.68L13.1645 8.37167H12.6532V9.36714H11.9814ZM12.6532 7.82482H13.317C13.4209 7.82482 13.5051 7.79628 13.5687 7.73874C13.6323 7.68167 13.6641 7.60729 13.6641 7.51607C13.6641 7.42485 13.6323 7.35094 13.5687 7.2934C13.5051 7.23633 13.4209 7.20733 13.317 7.20733H12.6532V7.82435V7.82482Z" fill="white"/>
</g>
<defs>
<clipPath id="clip0_15012_511">
<rect width="16" height="16" fill="white"/>
</clipPath>
</defs>
</svg>
