<svg width="206" height="46" viewBox="0 0 206 46" fill="none" xmlns="http://www.w3.org/2000/svg">
<g clip-path="url(#clip0_14542_22056)">
<path d="M11.687 13.2919C11.687 12.8446 11.4961 12.5045 11.1144 12.2719L0.795316 6.48266C0.413543 6.25002 0.222656 6.35739 0.222656 6.80478V31.8586C0.222656 32.306 0.418017 32.6378 0.808737 32.8541L20.6338 43.2697C21.0245 43.4859 21.2295 43.3703 21.2489 42.9229L21.3104 32.306C21.3298 31.8586 21.1478 31.5201 20.7646 31.2905L12.2619 25.716C11.8787 25.4863 11.687 25.1478 11.687 24.7004V13.2919Z" fill="#2A3E6E" fill-opacity="0.5"/>
<path d="M51.8396 13.2919C51.8396 12.8446 52.0305 12.5045 52.4123 12.2719L62.7313 6.48266C63.1131 6.25002 63.304 6.35739 63.304 6.80478V31.8586C63.304 32.306 63.1086 32.6378 62.7179 32.8541L42.8314 43.207C42.4407 43.4233 42.2356 43.3077 42.2162 42.8603V32.306C42.1969 31.8586 42.3788 31.5201 42.7621 31.2905L51.2647 25.716C51.648 25.4863 51.8396 25.1478 51.8396 24.7004V13.2919Z" fill="#2A3E6E" fill-opacity="0.5"/>
<path d="M10.9258 1.68187C10.9258 1.23448 11.1211 1.11965 11.5119 1.33738L31.2105 12.3163C31.6012 12.5341 31.9919 12.5341 32.3826 12.3163L52.0812 1.33738C52.4719 1.11965 52.6673 1.23448 52.6673 1.68187V24.9462C52.6673 25.3936 52.4749 25.7313 52.0902 25.9595L32.3737 37.6901C31.9889 37.9182 31.6042 37.9182 31.2194 37.6901L11.5029 25.9595C11.1182 25.7313 10.9258 25.3936 10.9258 24.9462V1.68187Z" fill="#2A3E6E"/>
</g>
<path d="M85.1207 34.4902V10.0579H92.1063L98.3348 27.8488L104.529 10.0579H111.515V34.4902H106.284V18.6608L100.537 34.4214H96.0636L90.3513 18.6608V34.4902H85.1207ZM119.447 34.4902V10.0579H124.678V34.4902H119.447ZM132.602 34.4902V10.0579H141.033C145.002 10.0579 148.053 11.1246 150.187 13.2582C152.32 15.3688 153.387 18.3855 153.387 22.3085C153.387 26.2085 152.332 29.2138 150.221 31.3244C148.133 33.4349 145.14 34.4902 141.24 34.4902H132.602ZM137.833 30.0855H141.033C143.396 30.0855 145.14 29.4546 146.264 28.1929C147.411 26.9082 147.984 24.9352 147.984 22.2741C147.984 19.6129 147.411 17.6514 146.264 16.3896C145.14 15.1049 143.396 14.4626 141.033 14.4626H137.833V30.0855ZM157.341 34.4902L166.15 10.0579H172.344L181.153 34.4902H175.716L173.927 29.2941H164.533L162.743 34.4902H157.341ZM166.012 24.9926H172.482L169.247 15.5638L166.012 24.9926ZM195.903 35.0408C193.793 35.0408 191.98 34.6852 190.466 33.9741C188.952 33.2629 187.771 32.2649 186.922 30.9802C186.073 29.6955 185.591 28.1814 185.477 26.4379L190.742 26.197C190.879 27.1605 191.155 27.9864 191.568 28.6746C192.003 29.3399 192.577 29.8446 193.288 30.1888C194.022 30.5329 194.917 30.7049 195.972 30.7049C196.844 30.7049 197.578 30.6017 198.175 30.3952C198.794 30.1888 199.264 29.8791 199.585 29.4661C199.907 29.0302 200.067 28.5026 200.067 27.8832C200.067 27.3096 199.93 26.8164 199.654 26.4035C199.379 25.9676 198.851 25.5776 198.071 25.2335C197.291 24.8664 196.144 24.5108 194.63 24.1667C192.543 23.6849 190.856 23.1458 189.572 22.5494C188.31 21.9529 187.392 21.2073 186.819 20.3126C186.245 19.3949 185.958 18.2479 185.958 16.8714C185.958 15.4032 186.314 14.1185 187.025 13.0173C187.759 11.9161 188.815 11.0558 190.191 10.4364C191.568 9.817 193.208 9.50729 195.112 9.50729C197.131 9.50729 198.84 9.86288 200.239 10.5741C201.639 11.2852 202.728 12.2602 203.508 13.4991C204.311 14.7379 204.793 16.1602 204.954 17.7661L199.723 18.0414C199.654 17.1926 199.425 16.4585 199.035 15.8391C198.645 15.1967 198.117 14.7035 197.452 14.3593C196.787 14.0152 195.984 13.8432 195.043 13.8432C193.85 13.8432 192.91 14.107 192.221 14.6346C191.556 15.1623 191.223 15.8505 191.223 16.6994C191.223 17.2958 191.373 17.8005 191.671 18.2135C191.992 18.6035 192.508 18.9476 193.219 19.2458C193.953 19.5441 194.986 19.8308 196.316 20.1061C198.588 20.5649 200.377 21.1499 201.685 21.8611C203.015 22.5494 203.956 23.3752 204.506 24.3388C205.057 25.3023 205.332 26.4035 205.332 27.6423C205.332 29.1564 204.942 30.4755 204.162 31.5996C203.405 32.7008 202.315 33.5496 200.893 34.1461C199.494 34.7426 197.83 35.0408 195.903 35.0408Z" fill="#2A3E6E"/>
<defs>
<clipPath id="clip0_14542_22056">
<rect width="63.5294" height="45.1499" fill="white"/>
</clipPath>
</defs>
</svg>
