<svg width="121" height="40" viewBox="0 0 121 40" fill="none" xmlns="http://www.w3.org/2000/svg">
<path d="M4.00775 30.3056C3.63793 30.6684 3.02118 30.5944 2.75758 30.1485C0.65226 26.5865 -0.30115 22.4325 0.0834874 18.1522C0.440234 14.1822 1.98771 10.3913 4.52789 7.31957C8.45931 2.56554 14.1371 -0.0570859 20.1893 0.000942821L20.2821 0.00200193C23.9376 0.0536905 27.4288 1.07826 30.4623 2.9469C30.9094 3.22228 30.9848 3.84094 30.6099 4.20864L29.374 5.42114C29.1165 5.67372 28.722 5.72395 28.4105 5.54208C25.9541 4.10786 23.158 3.32259 20.2363 3.2813L20.0459 3.27904C17.1506 3.24465 14.2798 3.94786 11.7796 5.40846C5.85238 8.87115 2.70302 15.119 3.367 21.749C3.59194 23.9951 4.28148 26.1748 5.37823 28.1367C5.55425 28.4516 5.49642 28.8452 5.2389 29.0978L4.00775 30.3056ZM35.9912 9.69549L34.7611 10.9022C34.5036 11.1549 34.4457 11.5484 34.6217 11.8633C35.719 13.826 36.4087 16.0067 36.6333 18.2538C37.2961 24.8839 34.1458 31.1313 28.2176 34.5931C25.7169 36.0534 22.8456 36.7561 19.9499 36.721L19.7637 36.7187C16.842 36.6775 14.0459 35.8922 11.5895 34.4579C11.278 34.2761 10.8835 34.3263 10.626 34.5789L9.38898 35.7924C9.01416 36.1601 9.08958 36.7788 9.53664 37.0542C12.5703 38.9228 16.0621 39.9464 19.7175 39.998L19.8106 39.9991H19.8111C25.1168 40.0499 30.1351 38.0403 33.9409 34.3405C38.1715 30.2278 40.3536 24.5673 39.9532 18.5982C39.7458 15.5058 38.8059 12.5048 37.2405 9.85219C36.9774 9.4063 36.3608 9.33292 35.9912 9.69549ZM26.3941 12.0689C25.2922 12.0639 24.2756 12.661 23.7433 13.6257L20.5925 19.3359L17.9909 24.0518L17.1244 25.6223C16.9105 26.01 16.5019 26.25 16.0591 26.248L15.3456 26.2447C14.9956 26.2431 14.6727 26.4328 14.5036 26.7392L12.6365 30.1227C12.4707 30.423 12.687 30.7912 13.03 30.7928L17.6418 30.8137C18.7436 30.8187 19.7602 30.2217 20.2925 29.257L23.1517 24.0753L29.3998 12.7508C29.5655 12.4505 29.3493 12.0824 29.0063 12.0808L26.3941 12.0689ZM19.4839 17.2828L17.4938 13.5973C16.9703 12.6278 15.9591 12.0215 14.8573 12.0165L12.2451 12.0047C11.9021 12.0031 11.6825 12.3693 11.8455 12.6711L16.6062 21.4873C16.776 21.8019 17.2266 21.8039 17.3992 21.4909L19.482 17.7157C19.5562 17.5811 19.557 17.418 19.4839 17.2828ZM64.256 9.40072H62.2451C61.801 9.40072 61.4396 9.76215 61.4396 10.2062V22.6603C61.4396 25.6313 59.4633 27.7063 56.6337 27.7063C53.8391 27.7063 51.8875 25.6067 51.8875 22.6001V10.2062C51.8875 9.76215 51.526 9.40071 51.0819 9.40071H49.0711C48.6419 9.40071 48.2656 9.77707 48.2656 10.2062V22.8102C48.2656 27.5806 51.8631 31.1781 56.6337 31.1781C61.4382 31.1781 65.0615 27.5806 65.0615 22.8102V10.2062C65.0615 9.77707 64.6851 9.40072 64.256 9.40072ZM75.989 18.3314C73.3517 17.2506 72.3242 16.2516 72.3242 14.7677C72.3242 12.8175 74.3881 12.3024 75.4795 12.3024C76.1783 12.3024 77.4118 12.5473 79.3196 13.7147C79.3639 13.7417 79.3956 13.7611 79.4037 13.7654C79.6353 13.9144 79.8819 13.9651 80.1175 13.9108C80.3757 13.8521 80.6116 13.6673 80.7772 13.3978C80.8984 13.2157 81.0275 13.0181 81.1566 12.8208C81.2826 12.628 81.4086 12.4352 81.5273 12.2574C81.7281 11.9561 81.7246 11.6809 81.6862 11.5028C81.6334 11.2572 81.4801 11.0345 81.2866 10.914C80.6798 10.4886 78.4759 9.10064 75.5996 9.10064C72.8204 9.10064 71.2132 10.1724 70.3541 11.0717C69.3615 12.1105 68.7921 13.5013 68.7921 14.8878C68.7921 17.077 69.4714 19.3894 74.3993 21.4673C77.5555 22.7742 78.7853 23.8827 78.7853 25.421C78.7853 26.9018 77.4584 27.9764 75.63 27.9764C73.5097 27.9764 71.3832 26.2971 70.9773 25.9591C70.7845 25.8014 70.5602 25.7348 70.3262 25.7682C70.0545 25.8063 69.8018 25.9766 69.6144 26.2476C69.4757 26.448 69.3444 26.6642 69.2175 26.8731C69.0936 27.077 68.9655 27.2881 68.834 27.4775L68.8246 27.4925C68.4181 28.1845 68.7992 28.5235 69.047 28.7437C69.4806 29.1502 71.8375 31.1781 75.6598 31.1781C79.609 31.1781 82.5872 28.6386 82.5872 25.2711C82.5872 21.3339 79.1808 19.6243 75.989 18.3314ZM100.931 9.40072H98.68C98.389 9.40072 98.1441 9.58878 98.0081 9.76997L92.7683 17.1521L87.5247 9.76475C87.3435 9.52341 87.1185 9.40071 86.8565 9.40071H84.6356C84.3308 9.40071 84.0652 9.5504 83.9253 9.80099C83.7822 10.057 83.7936 10.3668 83.9629 10.6413L90.9424 20.6035V30.0725C90.9424 30.5166 91.3038 30.878 91.7479 30.878H93.7287C94.1576 30.878 94.5342 30.5014 94.5342 30.0725V20.5746L101.611 10.6297C101.773 10.3668 101.784 10.057 101.641 9.80099C101.501 9.5504 101.236 9.40072 100.931 9.40072ZM120.149 27.0533L118.754 25.6903C118.466 25.4499 118.068 25.4603 117.74 25.7147C116.439 26.718 114.93 27.6464 112.722 27.6464C108.682 27.6464 105.395 24.2654 105.395 20.1094C105.395 15.9368 108.668 12.5423 112.692 12.5423C114.444 12.5423 116.327 13.272 117.717 14.4837C117.956 14.7232 118.175 14.762 118.318 14.7542C118.447 14.7464 118.637 14.6907 118.811 14.4731L120.121 13.1337C120.285 12.9691 120.372 12.7576 120.366 12.5378C120.359 12.3173 120.258 12.1089 120.079 11.9492C117.808 9.9791 115.521 9.10063 112.662 9.10063C106.559 9.10063 101.593 14.0662 101.593 20.1695C101.593 26.2395 106.559 31.1781 112.662 31.1781C115.533 31.1781 118.111 30.1485 120.121 28.1983C120.287 28.0315 120.382 27.7914 120.375 27.5559C120.368 27.3532 120.284 27.1715 120.149 27.0533Z" fill="#29233B"/>
</svg>
