<svg width="42" height="42" viewBox="0 0 42 42" fill="none" xmlns="http://www.w3.org/2000/svg">
<rect width="42" height="42" rx="21" fill="#1F267B"/>
<path fill-rule="evenodd" clip-rule="evenodd" d="M21.2931 8.05542L20.6201 9.21966C20.605 9.24574 20.5899 9.27181 20.5749 9.29791L8.59009 30.0316H33.9961L21.2931 8.05542ZM17.0717 18.4741L11.3013 28.457C14.3026 28.3852 17.0016 28.036 19.0166 27.0215C19.6591 26.698 20.2266 26.3092 20.7111 25.8424C19.4295 24.9675 18.5064 23.9606 17.9054 22.8345C17.1847 21.4841 16.958 20.0197 17.0687 18.5136C17.0697 18.5004 17.0707 18.4873 17.0717 18.4741ZM19.6001 28.4724H31.2734C29.6835 25.8649 27.9603 23.5855 26.0252 22.2271C25.4325 21.811 24.827 21.4865 24.2049 21.265C24.0984 22.9102 23.6905 24.288 23.0117 25.4288C22.2125 26.772 21.0692 27.7337 19.7178 28.4141C19.6787 28.4338 19.6395 28.4532 19.6001 28.4724ZM26.9641 20.982L21.3021 11.1868C19.8512 13.8436 18.79 16.3746 18.6244 18.6269C18.5841 19.1762 18.5974 19.7043 18.6704 20.2111C20.0614 19.5624 21.3979 19.2988 22.681 19.3755C24.2362 19.4684 25.6467 20.057 26.9216 20.952C26.9358 20.962 26.9499 20.972 26.9641 20.982ZM19.282 22.1007C19.2175 21.9798 19.1578 21.8574 19.1029 21.7334C20.381 21.0953 21.5361 20.8684 22.5887 20.9312C22.613 20.9327 22.6372 20.9343 22.6614 20.936C22.5923 22.4805 22.2349 23.6785 21.6811 24.6158C20.5235 23.8436 19.7588 22.994 19.282 22.1007Z" fill="#FAFAFA"/>
</svg>
