<svg width="1271" height="1267" viewBox="0 0 1271 1267" fill="none" xmlns="http://www.w3.org/2000/svg">
<path d="M1112.05 665.255L412.096 1069.37C363.757 1097.28 347.187 1159.08 375.087 1207.4C402.984 1255.72 464.787 1272.27 513.126 1244.36L1213.08 840.244C1261.42 812.335 1277.99 750.54 1250.09 702.217C1222.19 653.897 1160.39 637.348 1112.05 665.255Z" fill="#FF7829" style="fill:#FF7829;fill:color(display-p3 1.0000 0.4696 0.1625);fill-opacity:1;"/>
<path d="M627.931 536.062L102.966 839.15C54.6282 867.058 38.0577 928.855 65.9563 977.177C93.8548 1025.5 155.658 1042.05 203.997 1014.14L728.961 711.05C777.298 683.143 793.869 621.345 765.97 573.023C738.072 524.702 676.27 508.153 627.931 536.062Z" fill="#FCBF22" style="fill:#FCBF22;fill:color(display-p3 0.9882 0.7489 0.1333);fill-opacity:1;"/>
<path d="M757.758 51.568L57.8054 455.686C9.46676 483.594 -7.10295 545.391 20.7955 593.713C48.694 642.034 110.496 658.583 158.835 630.674L858.789 226.556C907.126 198.648 923.697 136.851 895.798 88.5297C867.9 40.2081 806.097 23.6598 757.758 51.568Z" fill="#2AE5B9" style="fill:#2AE5B9;fill:color(display-p3 0.1647 0.8980 0.7255);fill-opacity:1;"/>
</svg>
