<svg width="66" height="49" viewBox="0 0 66 49" fill="none" xmlns="http://www.w3.org/2000/svg">
<path d="M3.55 22.2H0V18H3.55V9.3C3.55 6.3 4.23333 4 5.6 2.4C6.96667 0.799999 8.96667 0 11.6 0C12.3333 0 13.1167 0.116667 13.95 0.350001C14.7833 0.550001 15.5167 0.85 16.15 1.25L14.15 4.65C13.65 4.11667 12.95 3.85 12.05 3.85C10.7833 3.85 9.81667 4.28333 9.15 5.15C8.51667 6.01667 8.2 7.41667 8.2 9.35V18H14.15V22.2H8.2V38.75H3.55V22.2ZM17.8 10.6C17.8 9.86667 18.0833 9.25 18.65 8.75C19.2167 8.25 19.8667 8 20.6 8C21.3333 8 21.9667 8.25 22.5 8.75C23.0667 9.25 23.35 9.86667 23.35 10.6C23.35 11.3333 23.0667 11.95 22.5 12.45C21.9667 12.95 21.3333 13.2 20.6 13.2C19.8667 13.2 19.2167 12.95 18.65 12.45C18.0833 11.95 17.8 11.3333 17.8 10.6ZM22.8 18.05V38.75H18.15V18.05H22.8Z" fill="#2A8FA2"/>
<path d="M28.3539 45.85C30.3539 44.15 31.3539 41.7667 31.3539 38.7V18.05H36.0539V38.9C36.0539 41.2667 35.6539 43.25 34.8539 44.85C34.0872 46.45 32.8539 47.75 31.1539 48.75L28.3539 45.85ZM31.0039 10.6C31.0039 9.86667 31.2872 9.25 31.8539 8.75C32.4206 8.25 33.0706 8 33.8039 8C34.5372 8 35.1706 8.25 35.7039 8.75C36.2706 9.25 36.5539 9.86667 36.5539 10.6C36.5539 11.3333 36.2706 11.95 35.7039 12.45C35.1706 12.95 34.5372 13.2 33.8039 13.2C33.0706 13.2 32.4206 12.95 31.8539 12.45C31.2872 11.95 31.0039 11.3333 31.0039 10.6Z" fill="#2A8FA2"/>
<path d="M65.0922 18.05V38.75H60.4422V35.35C59.7089 36.3167 58.6422 37.2167 57.2422 38.05C55.8422 38.85 54.2589 39.25 52.4922 39.25C50.5255 39.25 48.7422 38.8333 47.1422 38C45.5755 37.1333 44.3255 35.8833 43.3922 34.25C42.4922 32.6167 42.0422 30.6667 42.0422 28.4C42.0422 26.1333 42.5089 24.1667 43.4422 22.5C44.4089 20.8 45.6922 19.5 47.2922 18.6C48.9255 17.6667 50.7255 17.2 52.6922 17.2C54.4589 17.2 55.9922 17.5833 57.2922 18.35C58.5922 19.1167 59.6422 20.1167 60.4422 21.35L60.7922 18.05H65.0922ZM53.7422 35.4C55.4422 35.4 56.8922 34.9333 58.0922 34C59.3255 33.0333 60.1089 31.7333 60.4422 30.1V26C60.0422 24.5333 59.2089 23.35 57.9422 22.45C56.6755 21.5167 55.2255 21.05 53.5922 21.05C52.3589 21.05 51.2089 21.35 50.1422 21.95C49.1089 22.55 48.2755 23.4 47.6422 24.5C47.0422 25.5667 46.7422 26.7833 46.7422 28.15C46.7422 29.4833 47.0589 30.7 47.6922 31.8C48.3255 32.9 49.1755 33.7833 50.2422 34.45C51.3089 35.0833 52.4755 35.4 53.7422 35.4Z" fill="#2A8FA2"/>
</svg>
