<svg width="160" height="160" viewBox="0 0 160 160" fill="none" xmlns="http://www.w3.org/2000/svg">
<g clip-path="url(#clip0_12_159)">
<circle cx="80" cy="80" r="80" fill="#030303"/>
<path fill-rule="evenodd" clip-rule="evenodd" d="M53.4 43.4658C53.12 43.0414 52.84 42.6435 52.8 42.5905C52.76 42.5507 52.16 42.8955 51.4667 43.373C50.7733 43.8505 49.48 44.8054 48.6 45.5084C47.72 46.2113 46 47.7764 44.7867 48.9833C43.5733 50.1903 42.0667 51.7951 41.44 52.5644C40.8133 53.3336 39.8133 54.6467 39.2133 55.4823C38.6133 56.3178 38.1333 57.0341 38.1333 57.0738C38.1333 57.1136 38.5067 57.3789 38.9467 57.6707C39.4 57.9625 40.12 58.5858 40.5467 59.0633C40.9867 59.5408 41.5867 60.3764 41.8667 60.9202C42.1467 61.464 42.5067 62.3924 42.6667 62.976C42.84 63.6391 42.9333 64.4614 42.9333 65.1644C42.9333 65.8541 42.8267 66.7029 42.6667 67.3528C42.52 67.9364 42.1733 68.8648 41.9067 69.4086C41.5333 70.1513 41.1067 70.6951 40.2667 71.544C39.36 72.4591 38.9067 72.7907 38 73.2284C37.3733 73.5334 36.48 73.8783 36 74.0109C35.4933 74.1303 34.6 74.2231 33.8667 74.2231C33.1733 74.2231 32.2667 74.1568 31.8667 74.064C31.4667 73.9711 31.12 73.9181 31.1067 73.9446C31.08 73.9711 30.9467 74.6343 30.8 75.4433C30.6533 76.2391 30.4133 77.9103 30.2667 79.157C30.08 80.6955 30 82.3004 30 84.2235C30 86.213 30.08 87.7118 30.2667 89.2635C30.4133 90.497 30.5867 91.8499 30.6667 92.2875C30.7224 92.5927 30.7977 93.0139 30.8607 93.3669C30.8881 93.5202 30.9131 93.6606 30.9333 93.773C31.0667 94.476 31.0667 94.476 31.5067 94.3964C31.7333 94.3566 32.36 94.2637 32.8667 94.1974C33.4533 94.1179 34.2 94.1311 34.9067 94.2107C35.5067 94.277 36.3733 94.476 36.84 94.6484C37.2933 94.8075 38.0267 95.1524 38.4667 95.4044C38.9067 95.6564 39.72 96.3195 40.28 96.8633C41.0533 97.6326 41.4267 98.1366 41.8933 99.0517C42.2267 99.7282 42.6 100.71 42.7333 101.306C42.9067 102.102 42.9467 102.699 42.9067 103.694C42.8533 104.675 42.7333 105.312 42.4533 106.148C42.24 106.771 41.8 107.686 41.4533 108.203C41.12 108.721 40.52 109.437 40.12 109.808C39.72 110.18 39.1333 110.644 38.8 110.856C38.6727 110.937 38.5512 111.014 38.4474 111.08C38.2795 111.187 38.1581 111.264 38.1333 111.28C38.0933 111.294 38.24 111.572 38.4533 111.877C38.6516 112.173 39.0802 112.767 39.4395 113.264L39.52 113.376C39.8933 113.893 40.6667 114.901 41.2533 115.631C41.84 116.36 43.2 117.846 44.2667 118.933C45.3333 120.021 46.92 121.506 47.8133 122.249C48.6933 122.978 50.1067 124.079 50.9467 124.676C51.7867 125.26 52.5333 125.777 52.6133 125.804C52.7067 125.817 53.0133 125.485 53.3067 125.048C53.6 124.61 54.2267 123.894 54.6933 123.456C55.2133 122.978 56 122.435 56.68 122.09C57.2933 121.785 58.1867 121.427 58.6667 121.307C59.2 121.175 60.0533 121.082 60.8667 121.082C61.6933 121.082 62.5333 121.175 63.0667 121.307C63.5467 121.427 64.44 121.785 65.0667 122.09C65.96 122.514 66.4267 122.872 67.28 123.708C68.1467 124.583 68.4667 125.021 68.9867 126.042C69.32 126.732 69.6933 127.713 69.8 128.231C69.9067 128.748 70 129.61 70 130.154C70 130.698 69.92 131.533 69.8267 131.997C69.72 132.541 69.7067 132.846 69.8 132.886C69.88 132.913 70.4133 133.019 71 133.125C71.5867 133.231 72.5467 133.377 73.1333 133.456C73.72 133.536 75.1067 133.695 76.2 133.801C77.3067 133.907 79.04 134 80.0667 134C81.0933 134 83.08 133.881 84.4667 133.735C85.8533 133.589 87.6933 133.35 88.5333 133.204C89.3733 133.058 90.12 132.913 90.2 132.886C90.28 132.846 90.2667 132.515 90.16 131.931C90.04 131.361 90 130.512 90.04 129.69C90.08 128.695 90.2 128.085 90.4933 127.236C90.6933 126.613 91.1467 125.697 91.4933 125.18C91.8267 124.663 92.4933 123.894 92.96 123.456C93.44 123.018 94.24 122.448 94.7467 122.169C95.2533 121.904 96.0533 121.573 96.5333 121.427C97.0133 121.281 97.88 121.122 98.4667 121.069C99.1867 121.016 99.88 121.042 100.6 121.175C101.187 121.281 102.027 121.506 102.467 121.679C102.907 121.838 103.68 122.262 104.2 122.607C104.72 122.939 105.453 123.575 105.853 124C106.24 124.437 106.707 125.034 106.88 125.339C107.08 125.711 107.267 125.883 107.373 125.817C107.443 125.782 108.036 125.37 108.746 124.876C108.847 124.807 108.949 124.735 109.053 124.663C109.893 124.066 111.307 122.978 112.187 122.249C113.08 121.506 114.667 120.021 115.747 118.933C116.813 117.846 118.28 116.214 119.013 115.299C119.733 114.384 120.693 113.124 121.133 112.487C121.573 111.851 121.907 111.307 121.867 111.28C121.827 111.267 121.44 111.015 121.013 110.723C120.587 110.432 119.893 109.835 119.48 109.397C119.013 108.906 118.493 108.137 118.12 107.408C117.76 106.718 117.4 105.763 117.267 105.153C117.093 104.37 117.04 103.747 117.093 102.765C117.147 101.771 117.253 101.161 117.547 100.312C117.76 99.6884 118.213 98.7732 118.56 98.256C118.893 97.7387 119.573 96.9562 120.08 96.492C120.653 95.9747 121.4 95.4574 122.067 95.1391C122.653 94.8606 123.52 94.529 124 94.3964C124.493 94.277 125.4 94.1709 126.133 94.1709C126.827 94.1709 127.733 94.2372 128.133 94.3301C128.533 94.4229 128.88 94.476 128.893 94.4494C128.92 94.4229 129.053 93.7465 129.2 92.9507C129.347 92.1549 129.587 90.4837 129.733 89.237C129.92 87.6985 130 86.0936 130 84.1572C130 82.181 129.92 80.6823 129.733 79.1172C129.587 77.897 129.347 76.2391 129.2 75.4433C129.053 74.6343 128.92 73.9711 128.893 73.9446C128.88 73.9181 128.533 73.9711 128.133 74.064C127.733 74.1568 126.827 74.2231 126.133 74.2231C125.4 74.2231 124.507 74.1303 124 74.0109C123.52 73.8783 122.653 73.5467 122.067 73.2682C121.36 72.9233 120.667 72.4458 120.013 71.8357C119.467 71.3317 118.787 70.5227 118.453 70.0054C118.147 69.4882 117.72 68.5995 117.507 68.016C117.173 67.061 117.133 66.7825 117.133 65.1644C117.133 63.5463 117.173 63.2677 117.507 62.3128C117.72 61.7292 118.107 60.8936 118.373 60.456C118.64 60.0183 119.173 59.3286 119.56 58.9307C119.933 58.5328 120.613 57.9625 121.053 57.6707C121.493 57.3789 121.867 57.1004 121.867 57.0341C121.867 56.981 121.387 56.2648 120.787 55.4425C120.187 54.6334 119.253 53.3867 118.693 52.697C118.12 52.0073 116.88 50.6412 115.933 49.673C114.987 48.6915 113.6 47.3652 112.867 46.7418C112.133 46.1052 110.933 45.1503 110.2 44.5932C109.467 44.0494 108.493 43.3465 108.04 43.0414L107.2 42.4844C106.507 43.6648 105.853 44.4208 105.32 44.9115C104.707 45.4818 103.947 46.0124 103.333 46.3174C102.787 46.596 101.947 46.9143 101.467 47.0336C100.987 47.153 100.307 47.2856 99.9333 47.3254L99.2667 47.405C102.68 50.6545 104.267 52.2726 105 53.0949C105.733 53.9172 106.893 55.2833 107.573 56.1322C108.253 56.981 109.32 58.4134 109.933 59.3286C110.547 60.2437 111.467 61.7292 111.987 62.6444C112.507 63.5595 113.32 65.1644 113.787 66.2254C114.253 67.2865 114.853 68.7985 115.133 69.6075C115.4 70.4166 115.787 71.7164 116 72.5254C116.213 73.3345 116.507 74.6741 116.653 75.5096C116.8 76.3452 116.987 77.844 117.08 78.8254C117.173 79.9395 117.213 81.677 117.16 83.4012C117.12 84.9265 116.987 86.8098 116.867 87.5791C116.747 88.3484 116.507 89.6614 116.32 90.497C116.133 91.3326 115.68 92.9109 115.307 94.0117C114.947 95.0993 114.293 96.7837 113.853 97.7254C113.413 98.6671 112.627 100.179 112.093 101.081C111.573 101.983 110.653 103.362 110.067 104.158C109.48 104.941 108.467 106.201 107.8 106.957C107.133 107.699 105.973 108.88 105.2 109.569C104.427 110.259 103.2 111.28 102.467 111.837C101.733 112.381 100.533 113.217 99.8 113.681C99.0667 114.145 97.72 114.901 96.8 115.352C95.88 115.816 94.44 116.466 93.6 116.798C92.76 117.129 91.32 117.607 90.4 117.872C89.48 118.124 88.1333 118.456 87.4 118.602C86.6667 118.748 85.28 118.96 84.3333 119.079C83.3467 119.185 81.48 119.278 80 119.278C78.52 119.278 76.6533 119.185 75.6667 119.079C74.72 118.96 73.2133 118.721 72.3333 118.549C71.4533 118.363 70.16 118.045 69.4667 117.832C68.7733 117.62 67.7867 117.302 67.2667 117.116C66.7467 116.93 65.8267 116.559 65.2 116.294C64.5733 116.029 63.3733 115.458 62.5333 115.007C61.6933 114.57 60.3067 113.761 59.4667 113.204C58.6267 112.646 57.3333 111.718 56.6 111.134C55.8667 110.551 54.5733 109.384 53.72 108.535C52.88 107.699 51.68 106.386 51.0667 105.617C50.4667 104.848 49.56 103.628 49.0667 102.898C48.5733 102.169 47.8533 101.001 47.4667 100.312C47.0667 99.6221 46.4267 98.3355 46.0267 97.4602C45.64 96.5848 45.0267 95.0065 44.6667 93.9454C44.3067 92.8844 43.8667 91.3326 43.68 90.497C43.4933 89.6614 43.24 88.2821 43.1067 87.4465C42.92 86.2395 42.8667 85.1387 42.8667 82.2075C42.8667 79.3162 42.92 78.1623 43.1067 76.9686C43.24 76.133 43.4667 74.8465 43.6267 74.117C43.7733 73.3875 44.0933 72.101 44.3333 71.2654C44.5867 70.4298 45.0533 69.024 45.4 68.1486C45.7333 67.2732 46.4 65.7745 46.8667 64.8328C47.3333 63.8911 48.16 62.3658 48.7067 61.4507C49.2533 60.5355 50.2 59.0898 50.8133 58.241C51.4267 57.3922 52.5867 55.8934 53.4 54.9252C54.2 53.957 56.1733 51.8614 57.76 50.2699L60.6667 47.3917C59.68 47.2724 59.04 47.153 58.6 47.0469C58.16 46.9408 57.32 46.6225 56.7333 46.344C56.0933 46.0256 55.32 45.5084 54.8 45.0309C54.32 44.6065 53.6933 43.9035 53.4 43.4658Z" fill="white"/>
<path d="M65.7869 32.8418C65.8669 32.8683 65.9335 32.9479 65.9335 33.0142C65.9335 33.0806 65.8402 33.6774 65.7469 34.3273C65.6269 35.1231 65.5869 36.1443 65.6402 37.3778C65.6669 38.3991 65.8135 39.7121 65.9335 40.2957C66.0535 40.8793 66.3069 41.8608 66.4935 42.4841C66.6669 43.1075 67.0269 44.142 67.2935 44.8052C67.5469 45.4551 68.1202 46.7151 68.5469 47.5905C68.9735 48.4658 69.7469 49.9248 70.2802 50.8399C70.8002 51.7551 72.5069 54.5271 74.0669 57.0073C75.6269 59.4875 77.2935 62.2065 77.7602 63.042C78.2402 63.8776 78.9602 65.2172 79.3602 66.0262C79.7735 66.822 80.3868 68.2014 80.7335 69.0768C81.0802 69.9521 81.5335 71.358 81.7469 72.1936C81.9735 73.0292 82.2135 74.4351 82.2935 75.3105C82.4135 76.5174 82.4135 77.2734 82.2935 78.4273C82.2002 79.2629 81.9869 80.5229 81.8002 81.2126C81.5869 81.9951 81.1202 83.1755 80.5335 84.3294C79.9335 85.5496 79.2269 86.6902 78.5069 87.6452C77.8935 88.441 76.6802 89.8203 75.8002 90.709C74.9202 91.5843 73.1469 93.2422 71.8669 94.3696C70.5869 95.497 68.9602 97.0222 68.2535 97.7385C67.5602 98.4547 66.6669 99.5025 66.2802 100.046C65.8935 100.59 65.3469 101.505 65.0535 102.062C64.7735 102.633 64.3869 103.588 64.2135 104.184C64.0402 104.794 63.8269 105.882 63.7469 106.612C63.6535 107.5 63.6535 108.429 63.7335 109.397C63.8002 110.193 63.8135 110.896 63.7602 110.949C63.7069 111.015 63.1335 110.723 62.4669 110.312C61.8135 109.901 60.6935 109.145 60.0002 108.614C59.3069 108.097 58.0535 107.009 57.2135 106.214C56.3869 105.418 55.2135 104.184 54.6402 103.495C54.0535 102.805 53.0935 101.518 52.5069 100.643C51.9202 99.7677 51.0002 98.1496 50.4669 97.062C49.9202 95.9612 49.2669 94.4757 49.0002 93.7462C48.7202 93.0168 48.3069 91.6374 48.0669 90.6957C47.8269 89.754 47.5069 88.2818 47.3735 87.4462C47.1735 86.1995 47.1335 85.1915 47.1469 82.0084C47.1469 78.6793 47.1869 77.8172 47.4402 76.2389C47.6002 75.2176 47.9069 73.6658 48.1202 72.7905C48.3335 71.9151 48.7069 70.6551 48.9335 70.0052C49.1735 69.3553 49.6269 68.2147 49.9602 67.4852C50.2802 66.7557 50.8802 65.562 51.2802 64.8326C51.6935 64.1031 52.6269 62.538 53.3735 61.3444C54.1202 60.1639 54.8002 59.209 54.8669 59.2488C54.9469 59.2753 54.9869 59.3416 54.9735 59.4079C54.9602 59.4742 54.6669 60.3098 54.3335 61.2515C54.0002 62.1932 53.5869 63.6256 53.3869 64.4347C53.1469 65.4692 53.0269 66.4374 52.9735 67.7505C52.9335 68.8115 52.9602 69.9256 53.0402 70.3368C53.1202 70.7347 53.3202 71.4244 53.4802 71.862C53.6535 72.2997 54.0135 72.9364 54.2935 73.2812C54.6535 73.7321 55.0669 74.0505 55.6935 74.3422C56.4935 74.7269 56.7069 74.7799 57.6669 74.7667C58.3869 74.7534 58.9869 74.6473 59.5335 74.4616C59.9735 74.3025 60.6935 73.9444 61.1335 73.6791C61.5735 73.4138 62.3335 72.8037 62.8135 72.3262C63.3069 71.8488 64.0535 70.9203 64.4802 70.2705C64.9069 69.6206 65.4669 68.5728 65.7069 67.9494C65.9602 67.326 66.3069 66.2782 66.4669 65.6283C66.6402 64.9785 66.8535 63.7185 66.9335 62.8431C67.0269 61.9279 67.0535 60.6945 67.0002 59.9252C66.9602 59.1957 66.8269 58.002 66.7202 57.2726C66.6135 56.5431 66.3335 55.2035 66.0802 54.2883C65.8402 53.3732 65.2935 51.5296 64.8802 50.1768C64.4669 48.8239 63.9735 47.0334 63.7869 46.1978C63.5335 45.0174 63.4402 44.1553 63.3735 42.3515C63.3202 40.5742 63.3469 39.7519 63.5069 38.8368C63.6269 38.1869 63.9069 37.0728 64.1335 36.3831C64.3602 35.6934 64.8002 34.5926 65.0935 33.9559C65.4002 33.3193 65.7069 32.8153 65.7869 32.8418Z" fill="#FF4C00"/>
<path d="M92.4935 17.0852C92.5201 17.1249 92.4135 17.3106 92.2801 17.5228C92.1335 17.7218 91.7468 18.4513 91.4268 19.1409C91.0935 19.8306 90.6935 20.8784 90.5601 21.462C90.4135 22.0456 90.2535 22.9475 90.2001 23.4515C90.1601 23.9555 90.1735 24.8839 90.2535 25.5073C90.3335 26.1306 90.5735 27.2049 90.8001 27.8946C91.0268 28.5843 91.5468 29.8443 91.9735 30.6799C92.4001 31.5155 93.3868 33.2795 94.1735 34.5925C94.9468 35.9056 95.8801 37.6033 96.2535 38.3725C96.6135 39.1418 97.0401 40.1233 97.1735 40.5609C97.3201 40.9986 97.5335 41.8209 97.6535 42.3913C97.7735 42.9483 97.8668 43.9828 97.8668 44.6725C97.8668 45.3622 97.8268 45.9325 97.7735 45.9325C97.7068 45.9325 95.6801 43.9828 93.2535 41.5955C90.4535 38.85 88.4801 36.7809 87.8668 35.9852C87.3335 35.2955 86.6668 34.3405 86.3868 33.8631C86.1068 33.3856 85.7201 32.55 85.5201 32.0062C85.2801 31.3165 85.1468 30.6268 85.1068 29.7515C85.0401 28.7302 85.0935 28.2793 85.3201 27.3641C85.4801 26.7407 85.8401 25.7593 86.1201 25.1757C86.4135 24.5921 86.9335 23.6637 87.2935 23.1199C87.6535 22.5761 88.4268 21.5283 89.0135 20.7988C89.6001 20.0694 90.6135 18.9155 91.2668 18.2391C91.9068 17.5626 92.4668 17.0454 92.4935 17.0852Z" fill="#FF4C00"/>
<path d="M81.4134 8C81.5201 8 81.6001 8.06632 81.6001 8.13263C81.6001 8.19895 81.3467 8.756 81.0534 9.36611C80.7467 9.96295 80.1867 11.2229 79.8001 12.1779C79.4134 13.1328 78.9201 14.5653 78.6934 15.3611C78.4667 16.1568 78.1734 17.3505 78.0401 18.0137C77.8667 18.9023 77.8134 19.8705 77.8001 21.7937C77.8001 23.7832 77.8534 24.6585 78.0534 25.5737C78.1867 26.2236 78.5067 27.4173 78.7734 28.2263C79.0267 29.0354 79.6401 30.4545 80.1201 31.4095C80.6134 32.3644 81.4667 33.8234 82.0267 34.6589C82.5867 35.4945 83.5601 36.8076 84.1734 37.5768C84.8001 38.3461 85.8534 39.5928 86.5334 40.3621C87.2134 41.1314 88.1601 42.1659 88.6534 42.6699C89.1334 43.1739 91.1467 45.1236 93.1201 46.9804C95.0934 48.8505 97.5467 51.2777 98.5734 52.3653C99.6001 53.4661 100.92 54.9251 101.493 55.6147C102.08 56.3044 103.08 57.5644 103.72 58.4C104.36 59.2356 105.307 60.5486 105.827 61.3179C106.333 62.0872 107.067 63.2543 107.467 63.9042C107.853 64.5541 108.52 65.8008 108.947 66.6629C109.387 67.5118 109.96 68.7718 110.253 69.435C110.533 70.1114 110.987 71.3581 111.253 72.1937C111.533 73.0293 111.893 74.3158 112.08 75.0453C112.253 75.7747 112.507 77.0347 112.627 77.8305C112.8 78.9314 112.867 80.0985 112.867 82.6053C112.867 85.1651 112.813 86.2659 112.613 87.4463C112.48 88.2819 112.173 89.7541 111.933 90.6958C111.693 91.6375 111.267 93.0434 110.987 93.8126C110.707 94.5819 110.04 96.0674 109.52 97.1284C108.987 98.1895 108.093 99.7413 107.533 100.577C106.973 101.412 106.013 102.699 105.4 103.428C104.8 104.158 103.733 105.299 103.053 105.962C102.36 106.612 101.347 107.513 100.8 107.951C100.253 108.389 99.3201 109.092 98.7334 109.49C98.1467 109.901 97.0001 110.604 96.2001 111.068C95.3867 111.519 94.1601 112.156 93.4667 112.461C92.7734 112.766 91.5734 113.23 90.8001 113.495C90.0267 113.774 88.8267 114.132 88.1334 114.304C87.4401 114.477 86.1467 114.755 85.2667 114.914C84.0934 115.113 82.8934 115.219 80.8001 115.259C78.6001 115.312 77.5201 115.272 76.1334 115.113C75.1467 114.994 73.6667 114.742 72.8667 114.556C72.0534 114.384 71.0401 114.119 69.8001 113.734L69.5467 112.898C69.3467 112.235 69.2934 111.612 69.2801 109.994C69.2667 108.216 69.3067 107.792 69.5734 106.877C69.7467 106.293 70.0934 105.365 70.3467 104.821C70.6001 104.277 71.2001 103.256 71.6667 102.566C72.1334 101.877 72.9067 100.829 73.4001 100.245C73.8801 99.6617 75.4667 97.9242 76.9201 96.3989C78.3734 94.8737 79.9334 93.2025 80.3867 92.6853C80.8534 92.168 81.6534 91.1865 82.1867 90.4968C82.7201 89.8072 83.4801 88.6665 83.8934 87.9768C84.3067 87.2872 84.8534 86.2128 85.1067 85.5895C85.3734 84.9661 85.7334 83.9316 85.9334 83.2684C86.1201 82.6053 86.4001 81.3983 86.5467 80.576C86.7201 79.568 86.8001 78.4804 86.8001 77.1674C86.8001 76.0931 86.7067 74.5811 86.5867 73.7455C86.4667 72.9364 86.1601 71.5173 85.9067 70.6021C85.6667 69.687 85.1867 68.2545 84.8534 67.4189C84.5201 66.5834 83.7734 64.9653 83.2134 63.8379C82.6401 62.7105 81.6267 60.8537 80.9334 59.7263C80.2534 58.5989 78.8667 56.4503 77.8534 54.9516C76.8534 53.4528 75.2934 51.1848 74.4001 49.9116C73.5067 48.6383 72.4534 46.9672 72.0667 46.1979C71.6801 45.4286 71.1867 44.2615 70.9601 43.6116C70.7334 42.9617 70.4267 41.8476 70.2801 41.1579C70.1334 40.4682 69.9467 39.3541 69.8667 38.7042C69.8001 38.0543 69.7334 36.7413 69.7334 35.7863C69.7334 34.8314 69.8267 33.3194 69.9334 32.4042C70.0401 31.4891 70.2801 30.0036 70.4801 29.0884C70.6667 28.1733 71.0267 26.7408 71.2801 25.9053C71.5201 25.0697 71.9867 23.6903 72.3067 22.8547C72.6267 22.0192 73.0934 20.8785 73.3334 20.3347C73.5734 19.7909 74.0667 18.7432 74.4267 18.0137C74.8001 17.2842 75.6401 15.7722 76.3067 14.6448C76.9867 13.5307 78.0401 11.9392 78.6534 11.1301C79.2667 10.3211 80.0934 9.28653 80.4934 8.82232C80.9067 8.37137 81.3201 8 81.4134 8Z" fill="#F4129A"/>
</g>
<defs>
<clipPath id="clip0_12_159">
<rect width="160" height="160" fill="white"/>
</clipPath>
</defs>
</svg>
