<svg width="392" height="391" viewBox="0 0 392 391" fill="none" xmlns="http://www.w3.org/2000/svg">
<path d="M196.092 3.52853H196.099C301.898 3.52853 387.665 89.2955 387.665 195.095V195.102C387.665 300.901 301.898 386.668 196.099 386.668H196.092C90.2926 386.668 4.5256 300.901 4.5256 195.102V195.095C4.5256 89.2955 90.2926 3.52853 196.092 3.52853Z" fill="#111111" stroke="#111111" stroke-width="7.05706"/>
<path d="M196.099 0H196.092C88.3439 0 0.99707 87.3468 0.99707 195.095V195.102C0.99707 302.85 88.3439 390.196 196.092 390.196H196.099C303.847 390.196 391.193 302.85 391.193 195.102V195.095C391.193 87.3468 303.847 0 196.099 0Z" fill="url(#paint0_radial_1143_5517)" fill-opacity="0.7"/>
<path d="M196.092 3.57319H196.099C301.873 3.57319 387.62 89.3202 387.62 195.095V195.102C387.62 300.876 301.873 386.623 196.099 386.623H196.092C90.3173 386.623 4.57027 300.876 4.57027 195.102V195.095C4.57027 89.3202 90.3173 3.57319 196.092 3.57319Z" stroke="url(#paint1_linear_1143_5517)" stroke-width="7.14639"/>
<path fill-rule="evenodd" clip-rule="evenodd" d="M153.405 104.362H149.248L146.552 107.527L76.9679 189.259L72.0008 195.094L76.9679 200.928L146.552 282.66L149.248 285.826H153.405H278.681H287.681V276.826V224.867H269.681V267.826H173.087L230.9 200.981L235.992 195.094L230.9 189.206L173.087 122.362H269.681V165.321H287.681V113.362V104.362H278.681H153.405ZM153.458 127.183L95.6407 195.094L153.458 263.005L212.193 195.094L153.458 127.183Z" fill="white"/>
<defs>
<radialGradient id="paint0_radial_1143_5517" cx="0" cy="0" r="1" gradientUnits="userSpaceOnUse" gradientTransform="translate(196.514 56.9737) rotate(90) scale(411.352 289.55)">
<stop offset="0.03125" stop-color="#3A3A3A"/>
<stop offset="1" stop-color="#1C1C1C"/>
</radialGradient>
<linearGradient id="paint1_linear_1143_5517" x1="196.095" y1="-3.68113" x2="196.095" y2="393.878" gradientUnits="userSpaceOnUse">
<stop stop-color="white"/>
<stop offset="1" stop-color="#111111"/>
</linearGradient>
</defs>
</svg>
