<?xml version="1.0" encoding="utf-8"?>
<svg xmlns="http://www.w3.org/2000/svg" fill="none" height="400" viewBox="0 0 400 400" width="400">
<rect fill="#F2EFFB" height="400" rx="200" width="400"/>
<g filter="url(#filter0_i_181_320)">
<path clip-rule="evenodd" d="M197.52 273.631C196.884 273.22 196.253 272.794 195.627 272.358L194.406 271.508L189.486 332.671L190.299 332.772C191.504 332.921 192.71 333.04 193.917 333.133L194.79 333.2L197.936 273.9L197.52 273.631ZM207.219 279.122C206.71 278.876 206.204 278.628 205.701 278.369L204.375 277.687L207.43 333.189L208.306 333.115C209.407 333.022 210.511 332.912 211.614 332.776L212.427 332.676L208.176 279.579L207.73 279.367L207.219 279.122ZM188.858 267.161C188.277 266.665 187.706 266.165 187.137 265.653L186.045 264.67L172.049 328.583L172.778 328.826C174.018 329.24 175.268 329.629 176.521 329.989L177.423 330.249L189.235 267.483L188.858 267.161ZM218.915 283.751C218.391 283.587 217.869 283.417 217.348 283.24L215.954 282.765L225.079 330.084L225.981 329.819C226.944 329.536 227.903 329.236 228.855 328.918L229.584 328.675L219.92 284.059L219.44 283.913L218.915 283.751ZM231.999 286.762C231.481 286.685 230.963 286.602 230.446 286.512L229.027 286.264L241.658 323.522L242.545 323.051C243.332 322.634 244.116 322.2 244.891 321.758L245.518 321.401L233.027 286.909L232.517 286.837L231.999 286.762ZM175.805 253.371C175.36 252.789 174.925 252.199 174.499 251.607L173.697 250.488L141.727 310.639L142.229 311.087C143.339 312.079 144.466 313.031 145.612 313.953L146.446 314.623L176.127 253.792L175.805 253.371ZM246.696 287.707C246.045 287.722 244.278 287.714 243.609 287.707L242.15 287.693L256.446 313.845L257.243 313.191C257.847 312.694 258.444 312.186 259.033 311.67L259.541 311.226L247.226 287.696L246.696 287.707ZM171.103 246.518C170.723 245.901 170.353 245.285 169.992 244.662L169.331 243.522L130.082 297.87L130.466 298.376C131.394 299.597 132.359 300.804 133.361 301.988L134.094 302.854L171.391 246.986L171.103 246.518ZM270.749 299.289L271.144 298.786L262.098 286.019L261.558 286.124C260.964 286.238 260.369 286.348 259.778 286.45L258.462 286.675L268.775 301.738L269.497 300.854C269.922 300.334 270.338 299.812 270.749 299.289ZM167.347 239.777C167.023 239.136 166.711 238.49 166.406 237.839L165.875 236.708L121.325 283.46L121.588 283.996C122.29 285.426 123.032 286.838 123.816 288.236L124.405 289.288L167.61 240.295L167.347 239.777ZM279.964 284.732L277.041 281.585L276.501 281.794C276.003 281.986 275.498 282.178 274.996 282.365L273.275 283.027L277.657 288.807C277.924 288.315 279.712 285.225 279.964 284.732ZM164.372 233.137C164.107 232.475 163.851 231.806 163.603 231.137L163.192 230.025L115.615 268.14L115.764 268.684C116.199 270.261 116.682 271.829 117.207 273.382L117.615 274.592L164.597 233.702L164.372 233.137ZM162.116 226.755C161.909 226.087 161.709 225.413 161.519 224.742L161.214 223.668L112.871 252.606L112.92 253.143C113.071 254.797 113.27 256.446 113.516 258.094L113.714 259.419L162.306 227.37L162.116 226.755ZM160.465 220.652C160.308 219.969 160.156 219.29 160.019 218.611L159.812 217.581L112.853 237.565L112.812 238.082C112.681 239.74 112.596 241.402 112.566 243.067L112.541 244.456L160.619 221.32L160.465 220.652ZM159.307 214.717C159.193 214.018 159.089 213.316 158.996 212.613L158.868 211.642L115.168 223.527L115.048 224.018C114.658 225.621 114.314 227.234 114.016 228.853L113.757 230.265L159.425 215.443L159.307 214.717ZM158.576 208.87C158.507 208.14 158.45 207.414 158.406 206.685L158.35 205.769L119.366 210.845L119.178 211.304C118.56 212.802 117.984 214.316 117.454 215.844L116.975 217.229L158.651 209.654L158.576 208.87ZM158.439 194.832L158.496 194.035L131.531 190.202L131.227 190.59C130.282 191.794 129.382 193.016 128.513 194.254L127.658 195.472L158.266 198.123L158.302 197.227C158.333 196.428 158.382 195.632 158.439 194.832ZM159.066 188.87L159.17 188.13L138.595 182.281L138.24 182.638C137.208 183.674 136.209 184.73 135.244 185.804L134.264 186.893L158.65 192.338L158.753 191.386C158.844 190.546 158.947 189.706 159.066 188.87ZM160.13 182.846L160.278 182.162L145.827 175.823L145.423 176.149C144.35 177.013 143.301 177.908 142.267 178.826L141.197 179.775L159.432 186.504L159.61 185.496C159.767 184.612 159.94 183.727 160.13 182.846ZM161.679 176.696L161.864 176.067L153.02 170.639L152.567 170.935C151.47 171.651 150.39 172.399 149.325 173.169L148.21 173.975L160.645 180.575L160.91 179.515C161.146 178.571 161.404 177.633 161.679 176.696ZM163.802 170.321L164.02 169.745L160.09 166.521L159.589 166.785C158.473 167.374 157.374 167.989 156.286 168.628L155.151 169.295L162.354 174.464L162.72 173.361C163.058 172.343 163.419 171.33 163.802 170.321ZM165.157 166.941C165.369 166.434 165.592 165.926 165.821 165.42L166.755 163.353L164.69 164.287C164.171 164.522 163.647 164.763 163.127 165.009L161.994 165.546L164.681 168.083L165.157 166.941ZM158.24 203.055C158.223 202.287 158.217 201.52 158.217 200.755V199.903L124.978 199.707L124.727 200.127C124.684 200.198 124.681 200.204 124.66 200.241C124.638 200.279 124.596 200.351 124.472 200.562L124.471 200.564L124.47 200.566C123.76 201.789 123.08 203.022 122.434 204.271L121.752 205.589L158.259 203.891L158.24 203.055Z" fill="#502C8B" fill-rule="evenodd"/>
<path clip-rule="evenodd" d="M180.147 258.647C180.646 259.205 181.15 259.757 181.664 260.305L182.012 260.677L161.077 323.938L160.187 323.476C158.953 322.835 157.727 322.161 156.516 321.458L155.895 321.096L179.198 257.585L180.147 258.647Z" fill="#502C8B" fill-rule="evenodd"/>
<path clip-rule="evenodd" d="M273.726 202.684C273.316 203.321 272.891 203.953 272.455 204.58L271.607 205.803L332.672 210.73L332.772 209.916C332.921 208.709 333.04 207.502 333.133 206.293L333.2 205.418L273.995 202.267L273.726 202.684ZM279.209 192.969C278.963 193.48 278.715 193.986 278.457 194.489L277.776 195.818L333.189 192.758L333.115 191.88C333.023 190.778 332.913 189.672 332.777 188.567L332.676 187.753L279.665 192.011L279.453 192.457L279.209 192.969ZM267.267 211.36C266.772 211.941 266.273 212.514 265.761 213.084L264.78 214.177L328.59 228.196L328.833 227.465C329.247 226.223 329.634 224.972 329.994 223.716L330.253 222.813L267.588 210.982L267.267 211.36ZM283.83 181.255C283.667 181.78 283.497 182.303 283.32 182.824L282.846 184.22L330.089 175.081L329.824 174.177C329.542 173.213 329.242 172.252 328.925 171.298L328.683 170.569L284.138 180.248L283.992 180.729L283.83 181.255ZM286.837 168.149C286.76 168.668 286.677 169.188 286.587 169.705L286.34 171.127L323.537 158.475L323.068 157.587C322.651 156.798 322.218 156.013 321.777 155.237L321.42 154.609L286.983 167.12L286.911 167.63L286.837 168.149ZM253.499 224.434C252.918 224.88 252.329 225.316 251.738 225.741L250.621 226.545L310.675 258.566L311.123 258.064C312.113 256.952 313.064 255.823 313.984 254.676L314.653 253.84L253.919 224.112L253.499 224.434ZM287.78 153.429C287.795 154.081 287.787 155.85 287.78 156.521L287.766 157.982L313.876 143.663L313.223 142.865C312.727 142.26 312.22 141.662 311.704 141.072L311.261 140.563L287.768 152.898L287.78 153.429ZM246.657 229.144C246.041 229.524 245.426 229.895 244.804 230.256L243.666 230.918L297.927 270.23L298.432 269.846C299.651 268.916 300.856 267.95 302.038 266.946L302.902 266.212L247.124 228.855L246.657 229.144ZM299.344 129.337L298.841 128.942L286.095 138.002L286.199 138.543C286.313 139.139 286.423 139.734 286.524 140.326L286.75 141.644L301.788 131.315L300.906 130.592C300.386 130.166 299.865 129.749 299.344 129.337ZM239.926 232.905C239.287 233.23 238.641 233.543 237.992 233.848L236.863 234.38L283.539 279.001L284.075 278.738C285.503 278.035 286.912 277.291 288.308 276.507L289.359 275.917L240.444 232.642L239.926 232.905ZM284.809 120.107L281.667 123.035L281.876 123.576C282.069 124.074 282.259 124.581 282.446 125.083L283.107 126.807L288.878 122.418C288.387 122.15 285.302 120.36 284.809 120.107ZM233.297 235.886C232.637 236.15 231.969 236.407 231.3 236.655L230.191 237.067L268.244 284.721L268.787 284.571C270.362 284.136 271.927 283.651 273.478 283.126L274.686 282.718L233.862 235.66L233.297 235.886ZM226.926 238.145C226.258 238.353 225.586 238.552 224.916 238.743L223.844 239.048L252.735 287.469L253.271 287.42C254.922 287.268 256.569 287.069 258.214 286.823L259.538 286.625L227.54 237.954L226.926 238.145ZM220.833 239.798C220.151 239.956 219.472 240.108 218.794 240.245L217.766 240.452L237.718 287.487L238.235 287.528C239.89 287.66 241.549 287.744 243.211 287.774L244.598 287.799L221.5 239.644L220.833 239.798ZM214.907 240.959C214.209 241.073 213.508 241.176 212.806 241.27L211.837 241.398L223.703 285.168L224.193 285.288C225.793 285.679 227.404 286.023 229.02 286.322L230.43 286.582L215.631 240.84L214.907 240.959ZM209.07 241.69C208.341 241.76 207.616 241.817 206.887 241.861L205.973 241.917L211.041 280.963L211.499 281.152C212.995 281.77 214.506 282.348 216.032 282.878L217.415 283.359L209.852 241.615L209.07 241.69ZM195.053 241.827L194.258 241.77L190.431 268.779L190.818 269.084C192.021 270.03 193.241 270.932 194.477 271.802L195.693 272.658L198.34 242.001L197.445 241.965C196.648 241.933 195.852 241.885 195.053 241.827ZM189.101 241.2L188.362 241.095L182.523 261.703L182.879 262.059C183.914 263.092 184.968 264.094 186.04 265.06L187.128 266.042L192.564 241.617L191.614 241.513C190.775 241.422 189.936 241.318 189.101 241.2ZM183.087 240.134L182.404 239.986L176.075 254.46L176.4 254.865C177.264 255.939 178.157 256.99 179.073 258.026L180.021 259.097L186.739 240.833L185.732 240.654C184.85 240.498 183.966 240.324 183.087 240.134ZM176.947 238.582L176.319 238.397L170.9 247.256L171.195 247.709C171.91 248.808 172.656 249.889 173.425 250.956L174.23 252.073L180.819 239.619L179.761 239.353C178.819 239.116 177.883 238.858 176.947 238.582ZM170.582 236.456L170.007 236.237L166.788 240.174L167.052 240.676C167.64 241.794 168.254 242.895 168.892 243.984L169.558 245.121L174.719 237.907L173.618 237.54C172.601 237.202 171.59 236.84 170.582 236.456ZM167.208 235.098C166.701 234.886 166.195 234.663 165.689 234.434L163.625 233.498L164.558 235.567C164.792 236.086 165.033 236.611 165.279 237.132L165.814 238.267L168.347 235.576L167.208 235.098ZM203.264 242.027C202.497 242.044 201.731 242.05 200.967 242.05H200.117L199.921 275.343L200.34 275.594C200.412 275.636 200.417 275.64 200.454 275.661C200.492 275.683 200.564 275.725 200.775 275.849L200.777 275.851L200.779 275.852C202 276.562 203.231 277.243 204.478 277.891L205.794 278.573L204.098 242.008L203.264 242.027Z" fill="#502C8B" fill-rule="evenodd"/>
<path clip-rule="evenodd" d="M258.766 220.085C259.323 219.585 259.875 219.081 260.422 218.566L260.793 218.217L323.953 239.185L323.492 240.076C322.852 241.313 322.179 242.541 321.476 243.754L321.116 244.376L257.706 221.035L258.766 220.085Z" fill="#502C8B" fill-rule="evenodd"/>
<path clip-rule="evenodd" d="M202.48 126.369C203.116 126.78 203.747 127.206 204.373 127.642L205.594 128.492L210.514 67.329L209.701 67.2282C208.496 67.079 207.29 66.96 206.083 66.8672L205.21 66.8L202.064 126.1L202.48 126.369ZM192.781 120.878C193.29 121.124 193.796 121.372 194.299 121.631L195.625 122.313L192.57 66.8111L191.694 66.8849C190.593 66.9776 189.489 67.0877 188.386 67.224L187.573 67.3244L191.824 120.421L192.27 120.633L192.781 120.878ZM211.142 132.839C211.723 133.335 212.294 133.835 212.863 134.347L213.955 135.33L227.951 71.4175L227.222 71.174C225.982 70.7597 224.732 70.3713 223.479 70.0109L222.577 69.7515L210.765 132.517L211.142 132.839ZM181.085 116.249C181.609 116.413 182.131 116.583 182.652 116.76L184.046 117.235L174.921 69.9162L174.019 70.1811C173.056 70.464 172.097 70.7644 171.145 71.082L170.416 71.3247L180.08 115.941L180.56 116.087L181.085 116.249ZM168.001 113.238C168.519 113.315 169.037 113.398 169.554 113.488L170.973 113.736L158.342 76.4782L157.455 76.9486C156.668 77.3661 155.884 77.8001 155.109 78.2417L154.482 78.599L166.973 113.091L167.483 113.163L168.001 113.238ZM224.195 146.629C224.64 147.211 225.075 147.801 225.501 148.393L226.303 149.512L258.273 89.3608L257.771 88.913C256.661 87.9213 255.534 86.9689 254.388 86.0473L253.554 85.3766L223.873 146.208L224.195 146.629ZM153.304 112.293C153.955 112.278 155.722 112.286 156.391 112.293L157.85 112.307L143.554 86.1551L142.757 86.8095C142.153 87.3056 141.556 87.814 140.967 88.3301L140.459 88.7746L152.774 112.305L153.304 112.293ZM228.897 153.482C229.277 154.1 229.647 154.715 230.008 155.338L230.669 156.478L269.918 102.13L269.534 101.624C268.606 100.403 267.641 99.1958 266.639 98.012L265.906 97.1463L228.609 153.014L228.897 153.482ZM129.251 100.711L128.856 101.214L137.902 113.981L138.442 113.877C139.036 113.762 139.631 113.652 140.222 113.551L141.538 113.325L131.225 98.2623L130.503 99.1458C130.078 99.6663 129.662 100.188 129.251 100.711ZM232.653 160.224C232.977 160.864 233.289 161.511 233.594 162.161L234.125 163.292L278.675 116.54L278.412 116.004C277.71 114.574 276.968 113.162 276.184 111.764L275.595 110.712L232.39 159.705L232.653 160.224ZM120.036 115.268L122.959 118.416L123.499 118.207C123.997 118.014 124.502 117.822 125.004 117.635L126.725 116.973L122.343 111.193C122.076 111.685 120.288 114.775 120.036 115.268ZM235.628 166.863C235.893 167.525 236.149 168.194 236.397 168.863L236.808 169.975L284.385 131.861L284.236 131.317C283.801 129.739 283.318 128.171 282.793 126.618L282.385 125.408L235.403 166.298L235.628 166.863ZM237.884 173.245C238.091 173.913 238.291 174.587 238.481 175.258L238.786 176.332L287.129 147.394L287.08 146.857C286.929 145.203 286.73 143.554 286.484 141.906L286.286 140.581L237.694 172.63L237.884 173.245ZM239.535 179.348C239.692 180.031 239.844 180.71 239.981 181.389L240.188 182.419L287.147 162.435L287.188 161.918C287.319 160.26 287.404 158.598 287.434 156.933L287.459 155.544L239.381 178.68L239.535 179.348ZM240.693 185.283C240.807 185.983 240.911 186.684 241.004 187.387L241.132 188.358L284.832 176.473L284.952 175.982C285.342 174.379 285.686 172.766 285.984 171.147L286.243 169.735L240.575 184.558L240.693 185.283ZM241.424 191.13C241.493 191.86 241.55 192.586 241.594 193.315L241.65 194.231L280.634 189.155L280.822 188.696C281.44 187.198 282.016 185.684 282.546 184.156L283.025 182.771L241.349 190.346L241.424 191.13ZM241.561 205.169L241.504 205.965L268.469 209.799L268.773 209.41C269.718 208.206 270.618 206.984 271.487 205.746L272.342 204.528L241.734 201.877L241.698 202.773C241.667 203.572 241.618 204.368 241.561 205.169ZM240.934 211.13L240.83 211.87L261.405 217.719L261.76 217.362C262.792 216.326 263.791 215.27 264.756 214.197L265.736 213.107L241.35 207.662L241.247 208.614C241.156 209.454 241.053 210.294 240.934 211.13ZM239.87 217.154L239.722 217.838L254.173 224.177L254.577 223.851C255.65 222.987 256.699 222.093 257.733 221.174L258.803 220.225L240.568 213.497L240.39 214.504C240.233 215.388 240.06 216.273 239.87 217.154ZM238.321 223.304L238.136 223.933L246.98 229.361L247.433 229.065C248.53 228.349 249.61 227.602 250.675 226.832L251.79 226.025L239.355 219.426L239.09 220.485C238.854 221.429 238.596 222.367 238.321 223.304ZM236.198 229.679L235.98 230.255L239.91 233.479L240.411 233.215C241.527 232.626 242.626 232.011 243.714 231.372L244.849 230.705L237.646 225.536L237.28 226.639C236.942 227.657 236.581 228.67 236.198 229.679ZM234.843 233.059C234.631 233.566 234.408 234.074 234.179 234.58L233.245 236.647L235.31 235.713C235.829 235.478 236.353 235.237 236.873 234.991L238.006 234.455L235.319 231.917L234.843 233.059ZM241.76 196.945C241.776 197.713 241.783 198.48 241.783 199.245V200.097L275.022 200.293L275.273 199.873C275.315 199.802 275.319 199.796 275.34 199.759C275.362 199.721 275.404 199.649 275.528 199.438L275.529 199.436L275.53 199.434C276.24 198.211 276.92 196.978 277.566 195.729L278.248 194.411L241.741 196.109L241.76 196.945Z" fill="#502C8B" fill-rule="evenodd"/>
<path clip-rule="evenodd" d="M219.853 141.353C219.354 140.795 218.85 140.243 218.336 139.695L217.988 139.323L238.923 76.062L239.812 76.524C241.047 77.1652 242.273 77.8387 243.484 78.5426L244.105 78.9036L220.802 142.416L219.853 141.353Z" fill="#502C8B" fill-rule="evenodd"/>
<path clip-rule="evenodd" d="M126.274 197.316C126.684 196.679 127.109 196.047 127.545 195.42L128.393 194.197L67.3281 189.27L67.2275 190.084C67.0785 191.291 66.9597 192.498 66.867 193.707L66.8 194.582L126.005 197.733L126.274 197.316ZM120.791 207.031C121.037 206.52 121.285 206.014 121.543 205.511L122.224 204.182L66.8111 207.242L66.8847 208.12C66.9773 209.223 67.0872 210.328 67.2233 211.433L67.3235 212.247L120.335 207.989L120.547 207.543L120.791 207.031ZM132.733 188.64C133.228 188.059 133.727 187.486 134.239 186.916L135.22 185.823L71.4101 171.804L71.1669 172.535C70.7533 173.777 70.3656 175.028 70.0057 176.284L69.7467 177.187L132.412 189.018L132.733 188.64ZM116.17 218.745C116.333 218.22 116.503 217.698 116.68 217.176L117.154 215.78L69.9112 224.92L70.1756 225.823C70.4581 226.787 70.758 227.748 71.0751 228.702L71.3174 229.431L115.862 219.752L116.008 219.271L116.17 218.745ZM113.163 231.851C113.24 231.332 113.323 230.813 113.413 230.295L113.66 228.873L76.4627 241.525L76.9323 242.414C77.3491 243.202 77.7824 243.987 78.2233 244.763L78.58 245.392L113.017 232.88L113.089 232.37L113.163 231.851ZM146.501 175.566C147.082 175.12 147.671 174.685 148.262 174.259L149.379 173.455L89.3246 141.434L88.8775 141.936C87.8873 143.048 86.9365 144.177 86.0164 145.324L85.3467 146.16L146.081 175.888L146.501 175.566ZM112.22 246.571C112.205 245.919 112.213 244.15 112.22 243.479L112.234 242.018L86.1241 256.337L86.7774 257.135C87.2727 257.74 87.7802 258.338 88.2955 258.928L88.7393 259.437L112.232 247.102L112.22 246.571ZM153.343 170.856C153.959 170.476 154.574 170.105 155.196 169.744L156.334 169.082L102.073 129.77L101.568 130.155C100.349 131.084 99.1438 132.05 97.9619 133.054L97.0976 133.788L152.876 171.145L153.343 170.856ZM100.656 270.663L101.159 271.059L113.905 261.998L113.801 261.457C113.686 260.862 113.577 260.266 113.476 259.674L113.25 258.356L98.2118 268.685L99.0939 269.408C99.6135 269.834 100.135 270.251 100.656 270.663ZM160.074 167.095C160.713 166.77 161.359 166.457 162.008 166.152L163.137 165.62L116.461 120.999L115.925 121.262C114.497 121.965 113.088 122.709 111.692 123.493L110.641 124.083L159.556 167.358L160.074 167.095ZM115.191 279.893L118.333 276.965L118.124 276.424C117.931 275.926 117.741 275.42 117.554 274.917L116.893 273.193L111.122 277.582C111.613 277.85 114.698 279.64 115.191 279.893ZM166.703 164.114C167.363 163.85 168.031 163.593 168.7 163.345L169.809 162.933L131.756 115.279L131.213 115.429C129.638 115.864 128.073 116.349 126.522 116.874L125.314 117.282L166.138 164.34L166.703 164.114ZM173.074 161.855C173.742 161.648 174.414 161.448 175.084 161.257L176.156 160.952L147.265 112.531L146.729 112.58C145.078 112.732 143.431 112.931 141.786 113.177L140.462 113.376L172.46 162.046L173.074 161.855ZM179.167 160.202C179.849 160.044 180.528 159.892 181.206 159.755L182.234 159.548L162.282 112.514L161.765 112.472C160.11 112.341 158.451 112.256 156.789 112.226L155.402 112.201L178.5 160.356L179.167 160.202ZM185.093 159.041C185.791 158.927 186.492 158.824 187.194 158.731L188.163 158.602L176.297 114.832L175.807 114.712C174.207 114.321 172.596 113.977 170.98 113.678L169.57 113.418L184.369 159.16L185.093 159.041ZM190.93 158.31C191.659 158.24 192.384 158.183 193.113 158.139L194.027 158.083L188.959 119.037L188.501 118.848C187.005 118.23 185.494 117.652 183.968 117.122L182.585 116.641L190.148 158.385L190.93 158.31ZM204.947 158.173L205.742 158.23L209.569 131.221L209.182 130.916C207.979 129.97 206.759 129.068 205.523 128.198L204.307 127.342L201.66 157.999L202.555 158.035C203.352 158.067 204.148 158.115 204.947 158.173ZM210.899 158.8L211.638 158.905L217.477 138.297L217.121 137.941C216.086 136.908 215.032 135.906 213.96 134.94L212.872 133.958L207.436 158.383L208.386 158.487C209.225 158.578 210.064 158.682 210.899 158.8ZM216.913 159.866L217.596 160.014L223.925 145.54L223.6 145.135C222.736 144.061 221.843 143.011 220.927 141.974L219.979 140.903L213.261 159.167L214.268 159.346C215.15 159.502 216.033 159.676 216.913 159.866ZM223.053 161.418L223.681 161.603L229.1 152.744L228.805 152.291C228.09 151.193 227.344 150.111 226.575 149.044L225.77 147.927L219.181 160.382L220.239 160.647C221.181 160.884 222.117 161.142 223.053 161.418ZM229.418 163.544L229.993 163.763L233.212 159.826L232.948 159.324C232.36 158.206 231.746 157.105 231.108 156.016L230.442 154.879L225.281 162.093L226.382 162.46C227.399 162.798 228.41 163.16 229.418 163.544ZM232.792 164.902C233.299 165.114 233.805 165.337 234.311 165.566L236.375 166.502L235.442 164.433C235.208 163.914 234.967 163.389 234.721 162.868L234.186 161.733L231.652 164.425L232.792 164.902ZM196.736 157.974C197.503 157.957 198.269 157.95 199.033 157.95H199.883L200.079 124.657L199.66 124.406C199.588 124.364 199.583 124.36 199.546 124.339C199.508 124.317 199.436 124.275 199.225 124.151L199.223 124.149L199.221 124.148C198 123.438 196.769 122.757 195.522 122.11L194.206 121.427L195.902 157.992L196.736 157.974Z" fill="#502C8B" fill-rule="evenodd"/>
<path clip-rule="evenodd" d="M141.234 179.915C140.677 180.415 140.125 180.92 139.578 181.434L139.207 181.783L76.0471 160.815L76.5084 159.924C77.1485 158.687 77.8209 157.459 78.5237 156.246L78.8842 155.624L142.294 178.965L141.234 179.915Z" fill="#502C8B" fill-rule="evenodd"/>
</g>
<defs>
<filter color-interpolation-filters="sRGB" filterUnits="userSpaceOnUse" height="267.2" id="filter0_i_181_320" width="267.2" x="66.8" y="66.8">
<feFlood flood-opacity="0" result="BackgroundImageFix"/>
<feBlend in="SourceGraphic" in2="BackgroundImageFix" mode="normal" result="shape"/>
<feColorMatrix in="SourceAlpha" result="hardAlpha" type="matrix" values="0 0 0 0 0 0 0 0 0 0 0 0 0 0 0 0 0 0 127 0"/>
<feOffset dx="0.8" dy="0.8"/>
<feGaussianBlur stdDeviation="1.1"/>
<feComposite in2="hardAlpha" k2="-1" k3="1" operator="arithmetic"/>
<feColorMatrix type="matrix" values="0 0 0 0 0.576471 0 0 0 0 0.447059 0 0 0 0 0.854902 0 0 0 0.5 0"/>
<feBlend in2="shape" mode="normal" result="effect1_innerShadow_181_320"/>
</filter>
</defs>
</svg>