<svg width="2048" height="560" viewBox="0 0 2048 560" fill="none" xmlns="http://www.w3.org/2000/svg">
<g clip-path="url(#clip0_27_2)">
<path d="M1884.97 391C1886.42 391 1887.65 391.96 1888.09 393.34C1894.36 412.67 1914 426.56 1939.61 426.56C1965.97 426.56 1979.45 413.61 1979.45 397.99C1979.45 381.43 1964.49 374.94 1927.55 365.88C1843.55 345.17 1829.8 319.16 1829.8 282.78C1829.8 244.9 1856.58 204.68 1934.37 204.68C2009.96 204.68 2033.1 244.56 2036.58 278.76C2036.77 280.67 2035.23 282.32 2033.3 282.32H1983.41C1982.05 282.32 1980.84 281.5 1980.37 280.23C1976.7 270.39 1962.42 254.79 1931.18 254.79C1907.57 254.79 1895.52 265.24 1895.52 276.84C1895.52 289.67 1904.21 302.24 1949.82 309.79C2020.47 321.49 2048.02 355.13 2048.02 392.93C2048.02 435.63 2015.54 477.98 1936.92 477.98C1860.79 477.98 1828.13 438.95 1821.18 394.75C1820.87 392.77 1822.45 390.99 1824.45 390.99C1824.45 390.99 1884.97 390.99 1884.97 391Z" fill="white"/>
<path d="M1801.74 307.84C1798.59 287.46 1791.69 269.57 1781.02 254.11C1769.22 236.6 1758.43 223.78 1740.31 215.67C1722.18 207.53 1701.8 203.46 1679.16 203.46C1641.06 203.46 1610.08 215.5 1586.21 239.5C1562.34 263.547 1550.4 298.077 1550.4 343.09C1550.4 391.14 1563.63 425.85 1590.07 447.15C1616.51 468.49 1647.04 479.13 1681.62 479.13C1723.55 479.137 1756.15 466.507 1779.43 441.24C1786.69 433.527 1792.4 425.877 1796.56 418.29C1797.52 416.53 1796.6 414.32 1794.71 413.67L1738.36 394.23C1736.83 393.7 1735.17 394.39 1734.39 395.81C1730.29 403.29 1726.02 408.25 1721.26 412.14C1711.58 420.07 1699 424.08 1683.51 424.08C1668.91 424.08 1656.43 420.8 1646.03 414.3C1629.74 404.273 1620.75 387.153 1619.07 362.94C1618.94 361.05 1620.48 359.44 1622.37 359.44H1800.74C1802.54 359.44 1804.01 357.97 1804.03 356.17C1804.23 335.31 1803.46 319.22 1801.74 307.84ZM1624.38 314.61C1622.35 314.61 1620.77 312.78 1621.14 310.78C1623.92 295.647 1629.75 283.507 1638.64 274.36C1648.25 264.473 1661.77 259.527 1679.2 259.52C1695.24 259.527 1708.68 264.2 1719.52 273.54C1729.62 282.247 1735.55 294.737 1737.3 311.01C1737.51 312.93 1735.95 314.61 1734.02 314.61H1624.38Z" fill="white"/>
<path d="M1538.57 207.48V268.13C1538.57 269.95 1537.11 271.43 1535.28 271.41C1529.62 271.37 1518.16 271.32 1513.19 271.45C1485.85 272.15 1469.76 283.86 1458.22 300.67C1451.62 310.29 1448.57 325.26 1448.57 346.08V467.04C1448.57 468.85 1447.1 470.32 1445.29 470.32H1383.41C1381.6 470.32 1380.13 468.85 1380.13 467.04V213.68C1380.13 211.87 1381.6 210.4 1383.41 210.4H1441.71C1443.52 210.4 1444.99 211.87 1444.99 213.68V244.34C1444.99 247.6 1449.23 248.84 1451.02 246.12C1459.02 233.927 1466.15 225.277 1472.41 220.17C1485.13 209.523 1501.66 204.2 1522.01 204.2H1535.27C1537.1 204.2 1538.57 205.67 1538.57 207.48Z" fill="white"/>
<path d="M1288.36 379.8L1344.57 399.16C1346.15 399.7 1347.11 401.36 1346.73 402.99C1335.69 449.39 1280.62 482.76 1226.54 482.76C1150.35 482.76 1088.58 419.49 1088.58 341.42C1088.58 263.35 1150.34 200.08 1226.54 200.08C1281.86 200.08 1332.97 232.55 1346.23 282.8C1346.71 284.6 1345.53 286.44 1343.71 286.83L1285.94 299.12C1284.51 299.42 1283.08 298.73 1282.38 297.44C1270.48 275.54 1249.93 261.05 1226.55 261.05C1189.72 261.05 1159.86 297.03 1159.86 341.42C1159.86 385.81 1189.72 421.79 1226.55 421.79C1251.25 421.79 1272.84 405.6 1284.34 381.53C1285.06 380.02 1286.77 379.25 1288.36 379.8Z" fill="white"/>
<path d="M1059.13 404.59C1059.13 425.33 1059.54 458.4 1059.67 468.89C1059.69 470.72 1058.22 472.19 1056.39 472.19H996.68C994.89 472.19 993.43 470.76 993.4 468.97L993.03 450.78C992.97 447.86 989.44 446.46 987.41 448.56C974.13 462.36 945.88 478.25 906.29 478.25C843.2 478.25 816.59 436.78 816.59 396.19C816.59 344.69 865.75 323.93 940.69 315.34C953.52 313.87 975.05 309.97 985.62 309.21C987.35 309.08 988.71 307.67 988.71 305.93V293.09C988.71 274.49 977.14 256.19 943.54 256.19C914.39 256.19 902.12 267.99 898.14 285.5C897.79 287.02 896.49 288.13 894.93 288.13H832.37C830.42 288.13 828.87 286.44 829.09 284.5C834.31 239.72 865.78 204.61 943.26 204.61C1011.37 204.61 1059.14 232.27 1059.14 294.55C1059.14 294.55 1059.14 404.59 1059.13 404.59ZM989.8 356.86C989.8 354.86 988.05 353.33 986.07 353.61C976.8 354.93 958.21 357.59 949.67 358.95C904.85 366.09 883.22 371.77 883.22 397C883.22 415.94 900.84 426.53 926.89 426.53C972.92 426.53 989.81 394.52 989.81 359.96C989.81 359.96 989.81 356.86 989.8 356.86Z" fill="white"/>
<path d="M775.5 299.7C775.5 376.4 750.59 447.57 689.41 475.36C688.32 475.85 687.42 474.4 688.33 473.63C703.62 460.69 709.29 441.67 709.29 426.51C709.29 407.02 701.6 391.47 689.63 373.78C689.07 372.96 688.91 371.94 689.2 370.99C695.34 350.99 698.11 326.71 698.11 300.18C698.11 230.59 676.5 184.97 629.65 184.97C583.86 184.97 557.39 223.44 557.39 301.04C557.39 312.01 557.96 322.77 559.15 333.1C559.42 335.47 562.09 336.73 564.13 335.5C573.02 330.14 583.46 320.14 597.29 301.82C623.79 266.77 629.2 245.09 634.33 245.09C639.46 245.09 640.9 258.77 640.9 276.18C640.9 290.53 634.09 307.74 631.72 313.3C631.24 314.43 631.43 315.7 632.22 316.64C634.89 319.81 641.22 327.71 646.89 337.74C654.28 350.84 661.1 368.36 680.34 392.73C689.56 404.41 691.63 413.56 691.63 420.53C691.63 434.04 678.53 450.28 656 450.28C633.5 450.28 626.93 432.33 616.12 432.33C605.28 432.33 605.15 445.76 605.89 457.71C606.5 467.51 611.34 478.62 616.91 485.65C617.46 486.34 616.87 487.38 615.99 487.32C519.59 480.96 480.45 397.37 480.45 301.94C480.45 203.72 526.38 116.21 629.59 116.21C729.5 116.2 775.5 197.93 775.5 299.7Z" fill="white"/>
<path d="M423.88 338.62V127.82C423.88 126.01 422.41 124.54 420.6 124.54H330.8C329.72 124.54 328.71 125.07 328.1 125.96L174.95 348.14C174.57 348.69 174.37 349.34 174.37 350V405.4C174.37 407.21 175.84 408.68 177.65 408.68H353.8C355.61 408.68 357.08 410.15 357.08 411.96V468.04C357.08 469.85 358.55 471.32 360.36 471.32H420.58C422.39 471.32 423.86 469.85 423.86 468.04V411.96C423.86 410.15 425.33 408.68 427.14 408.68H456.82C458.63 408.68 460.1 407.21 460.1 405.4V345.18C460.1 343.37 458.63 341.9 456.82 341.9H427.14C425.35 341.9 423.88 340.43 423.88 338.62ZM353.8 341.9H265.16C262.47 341.9 260.92 338.85 262.51 336.68L351.14 215.51C353.01 212.95 357.07 214.27 357.07 217.45V338.62C357.09 340.43 355.62 341.9 353.8 341.9Z" fill="white"/>
<path fill-rule="evenodd" clip-rule="evenodd" d="M825.84 177.56C791.91 177.56 764.479 150.13 764.479 116.2C764.479 82.27 791.91 54.84 825.84 54.84C859.77 54.84 887.2 82.27 887.2 116.2C887.2 150.13 859.77 177.56 825.84 177.56Z" fill="white"/>
</g>
<defs>
<clipPath id="clip0_27_2">
<rect width="2048" height="560" fill="white"/>
</clipPath>
</defs>
</svg>
