<svg xmlns="http://www.w3.org/2000/svg" width="200" height="200" viewBox="-3 -47 248 248">
  <rect x="-3" y="-47" width="248" height="248" fill="#090A0A" rx="24"/>
  <path d="m31.07 32.67v21.76c3.14-9.2 9.68-13.96 16.7-13.96 6.32 0 10.39 3.41 13.34 8.72l27.05 48.35c5.36 9.95 14 12.68 18.37 11.78 2.74-0.58 4.35-2.13 5.51-4.46l8.72-14.4-37.48-71.63c-6.07-10.82-15.2-14.09-23-14.09-14.37 0-29.21 11.13-29.21 27.93z" fill="#fff"/>
  <path d="m108.2 134.4-12.27-22.71c3.41 3.26 6.63 4.33 11.23 3.84 5.13-0.55 8.97-2.74 12-9.6l46.92-85.88c6.18-11.43 16.22-15.35 24.25-15.35 14.76 0 26.59 12.04 26.59 27.93v22.24c-3.7-8.97-10.09-14.44-17.72-13.77-5.3 0.48-8.71 3.45-11.14 8.2l-45.38 83.61c-4.96 8.27-12.14 10.76-18.05 10.52-7.1 0-13.09-3.46-16.43-9.03z" fill="#fff"/>
  <path d="m31.22 67.96v75.19h32.99v-74.44l-9.44-17.11c-1.93-3.29-4.44-4.39-7.7-4.3-7.71 0.23-15.85 8.34-15.85 20.66z" fill="#fff"/>
  <path d="m185.1 69.03v74.12h31.79v-75.51c0-11.43-9.21-20.93-16.93-20.03-3.1 0.4-4.88 2-6.41 5.19l-8.45 16.23z" fill="#fff"/>
</svg>
