<?xml version="1.0" standalone="no"?>
<!DOCTYPE svg PUBLIC "-//W3C//DTD SVG 20010904//EN"
 "http://www.w3.org/TR/2001/REC-SVG-20010904/DTD/svg10.dtd">
<svg version="1.0" xmlns="http://www.w3.org/2000/svg"
 width="650.000000pt" height="650.000000pt" viewBox="0 0 650.000000 650.000000"
 preserveAspectRatio="xMidYMid meet">
<metadata>
Created by potrace 1.14, written by Peter Selinger 2001-2017
</metadata>
<g transform="translate(0.000000,650.000000) scale(0.100000,-0.100000)"
fill="#000000" stroke="none">
<path d="M3127 5883 c-1 0 -51 -4 -112 -8 -135 -8 -167 -11 -230 -19 -705 -92
-1227 -391 -1465 -839 -48 -92 -106 -259 -115 -336 -4 -30 -9 -63 -11 -75 -9
-42 -5 -253 5 -317 51 -313 225 -593 494 -795 56 -42 103 -78 105 -79 2 -2
-23 -18 -55 -36 -122 -68 -252 -167 -353 -269 -113 -112 -128 -129 -179 -203
-115 -167 -194 -372 -218 -562 -9 -75 -9 -260 -1 -340 30 -272 162 -537 377
-755 182 -184 360 -301 636 -415 44 -19 269 -94 294 -99 9 -1 34 -8 56 -14 22
-6 51 -13 65 -16 14 -3 50 -10 80 -16 113 -22 118 -23 215 -35 33 -3 70 -8 83
-10 201 -31 785 -26 997 10 17 3 50 7 75 10 65 8 190 33 304 61 619 155 1080
501 1262 949 129 317 131 668 4 985 -106 266 -334 519 -632 700 l-87 53 57 39
c300 209 494 503 547 833 12 69 13 267 3 340 -76 559 -519 980 -1222 1160
-144 37 -319 68 -451 80 -158 14 -519 27 -528 18z m3 -827 c217 -31 374 -79
554 -170 328 -166 541 -366 727 -680 84 -143 82 -150 -49 -152 -46 -1 -86 -4
-89 -7 -3 -3 0 -28 6 -54 45 -188 48 -397 10 -598 -32 -172 -153 -444 -240
-541 -19 -20 -19 -21 71 -74 154 -91 257 -206 310 -345 29 -75 36 -238 14
-312 -96 -318 -445 -525 -959 -570 -155 -14 -463 -7 -570 12 -142 26 -194 38
-281 66 -285 91 -481 253 -549 454 -25 71 -28 92 -28 175 1 226 133 415 385
548 40 21 82 41 93 45 11 3 43 14 70 24 45 17 115 38 170 49 50 10 72 15 105
20 19 3 45 7 58 9 54 9 216 18 320 18 61 0 112 2 112 4 0 2 -6 16 -14 31 -32
61 -99 100 -173 100 -46 1 -81 28 -89 68 -14 73 20 112 103 118 121 10 252
-72 307 -193 32 -72 28 -188 -9 -266 -60 -127 -195 -224 -360 -259 -15 -3 39
-10 65 -8 232 16 451 209 513 455 22 83 20 223 -4 310 -23 81 -74 180 -127
247 -56 69 -62 72 -83 34 -31 -60 -125 -90 -193 -64 -62 23 -185 174 -242 297
-18 39 -22 42 -79 54 -335 69 -706 307 -808 519 -48 98 -61 184 -42 271 18 80
85 170 170 226 90 59 309 125 460 139 39 4 71 8 73 9 5 4 254 -4 292 -9z"/>
</g>
</svg>
