<svg width="504" height="80" viewBox="0 0 504 80" fill="none" xmlns="http://www.w3.org/2000/svg">
<g opacity="0.8">
<path fill-rule="evenodd" clip-rule="evenodd" d="M64.8155 16C69.7285 16 74.0334 16.9351 77.729 18.8046C81.4245 20.6741 84.2939 23.3695 86.3374 26.891C88.3808 30.3691 89.4039 34.6083 89.404 39.608C89.404 44.4775 88.3588 48.7384 86.2719 52.3905C84.185 56.0426 81.2734 58.8919 77.5345 60.9353C73.839 62.9787 69.5777 63.9999 64.752 64C59.839 64 55.5341 63.0649 51.8384 61.1954C48.143 59.3259 45.2735 56.6305 43.2301 53.109C41.1867 49.5874 40.1636 45.3482 40.1635 40.392C40.1635 35.5228 41.207 31.2614 43.2936 27.6095C45.424 23.9574 48.3375 21.1081 52.033 19.0646C55.7284 17.0213 59.9897 16.0001 64.8155 16ZM64.5555 17.1731C62.3816 17.1731 60.4895 18.1521 58.8808 20.1087C57.2723 22.065 56.0346 24.7608 55.1651 28.195C54.2955 31.6297 53.8591 35.6085 53.8591 40.13C53.8591 44.7387 54.3596 48.7612 55.3596 52.196C56.3596 55.5872 57.7072 58.2183 59.4028 60.0878C61.0984 61.9138 62.9686 62.8269 65.012 62.8269C67.1859 62.8269 69.078 61.8478 70.6867 59.8913C72.2951 57.935 73.5329 55.2392 74.4024 51.805C75.272 48.3268 75.7084 44.3481 75.7084 39.87C75.7084 35.2178 75.2079 31.1953 74.2079 27.804C73.2079 24.4128 71.8603 21.8037 70.1647 19.9777C68.4691 18.1082 66.5989 17.1731 64.5555 17.1731Z" fill="black"/>
<path d="M135.855 18.2171C134.551 18.4779 133.552 18.9347 132.856 19.5867C132.204 20.2387 131.77 21.2605 131.552 22.6513C131.335 23.9991 131.225 25.9132 131.225 28.3915V44.1096C131.225 46.805 131.03 49.3484 130.639 51.7395C130.291 54.1306 129.594 56.1952 128.551 57.9343C127.421 59.8038 125.725 61.2834 123.464 62.3704C121.247 63.4571 118.268 64 114.53 64C112.53 64 110.421 63.7817 108.204 63.347C105.987 62.9123 104.008 62.087 102.269 60.8699C100.791 59.7831 99.6598 58.4571 98.8772 56.8922C98.0947 55.3271 97.5721 53.5006 97.3112 51.4139C97.0503 49.327 96.9202 46.9564 96.9202 44.3042V23.8263C96.9202 22.2182 96.8119 21.0443 96.5946 20.3051C96.3773 19.5227 95.9426 19 95.2906 18.7391C94.6384 18.4348 93.6373 18.2606 92.2895 18.2171V16.913C93.5504 16.9565 95.2042 17.0005 97.2476 17.044C99.3342 17.0875 101.508 17.1095 103.768 17.1095C106.029 17.1095 108.203 17.0875 110.29 17.044C112.377 17.0005 114.095 16.9565 115.443 16.913V18.2171C113.965 18.2606 112.833 18.4348 112.051 18.7391C111.312 19 110.811 19.5226 110.55 20.3051C110.29 21.0443 110.159 22.2183 110.159 23.8263V50.4354C110.159 52.5656 110.333 54.37 110.681 55.8481C111.029 57.2827 111.53 58.4343 112.182 59.3038C112.877 60.1732 113.725 60.8041 114.724 61.1954C115.768 61.5431 116.964 61.7173 118.311 61.7174C121.224 61.7174 123.509 61.0226 125.161 59.6313C126.813 58.1966 127.986 56.2179 128.682 53.6965C129.378 51.1313 129.726 48.174 129.726 44.8262V29.6956C129.726 26.783 129.594 24.566 129.333 23.0443C129.116 21.479 128.551 20.3478 127.638 19.6522C126.725 18.9566 125.225 18.478 123.138 18.2171V16.913C124.008 16.9565 125.139 17.0005 126.53 17.044C127.921 17.0875 129.225 17.1095 130.443 17.1095C131.443 17.1095 132.422 17.0875 133.378 17.044C134.378 17.0006 135.203 16.9565 135.855 16.913V18.2171Z" fill="black"/>
<path fill-rule="evenodd" clip-rule="evenodd" d="M138.488 16.913C139.749 16.9565 141.402 17.0006 143.445 17.044C145.531 17.0875 147.618 17.1095 149.705 17.1095C151.879 17.1095 153.965 17.0875 155.965 17.044C157.965 17.0005 159.379 16.9785 160.205 16.9785C164.639 16.9785 168.292 17.3911 171.161 18.2171C174.074 19.0432 176.249 20.3046 177.684 22.0002C179.118 23.6524 179.835 25.7609 179.835 28.326C179.835 29.9347 179.509 31.5004 178.857 33.0222C178.204 34.5437 177.097 35.9357 175.532 37.1964C173.967 38.4137 171.814 39.3909 169.075 40.13C167.62 40.5056 165.948 40.7759 164.061 40.9487C168.383 41.2092 171.641 42.0012 173.835 43.3257C176.183 44.717 177.618 46.7612 178.14 49.4569L179.51 56.2392C179.858 57.8479 180.248 58.9571 180.683 59.5658C181.118 60.1745 181.706 60.4788 182.445 60.4788C182.88 60.4787 183.249 60.4127 183.553 60.2824C183.857 60.152 184.162 59.9354 184.466 59.6313L185.313 60.4788C183.966 61.8264 182.488 62.7397 180.879 63.2179C179.314 63.7396 177.532 63.9999 175.532 64C172.706 64 170.423 63.4993 168.684 62.4995C166.945 61.456 165.88 59.6079 165.489 56.9557L164.51 50.4354C164.249 48.6528 163.923 47.065 163.532 45.6737C163.14 44.2825 162.618 43.1952 161.965 42.4126C161.313 41.5869 160.422 41.174 159.292 41.174H156.358V56.1737C156.358 57.7384 156.466 58.9122 156.684 59.6949C156.945 60.4775 157.401 61 158.053 61.2609C158.705 61.5216 159.683 61.6959 160.987 61.7829V63.087C159.726 63 158.096 62.956 156.096 62.956C154.14 62.9125 152.139 62.8905 150.096 62.8905C147.748 62.8905 145.531 62.9125 143.445 62.956C141.402 62.956 139.749 63 138.488 63.087V61.7829C139.836 61.6959 140.836 61.5217 141.488 61.2609C142.14 61 142.574 60.4775 142.792 59.6949C143.009 58.9122 143.119 57.7384 143.119 56.1737V23.8263C143.119 22.2181 143.009 21.0443 142.792 20.3051C142.574 19.5225 142.118 19 141.422 18.7391C140.77 18.4349 139.792 18.2606 138.488 18.2171V16.913ZM159.879 18.2171C158.401 18.2171 157.444 18.5875 157.009 19.3266C156.575 20.0659 156.358 21.566 156.358 23.8263V39.87H158.119C160.336 39.8699 162.01 39.3914 163.14 38.4349C164.314 37.435 165.097 36.1294 165.489 34.5208C165.923 32.8689 166.14 31.0421 166.14 29.0426C166.14 25.6082 165.661 22.9566 164.705 21.0872C163.792 19.1743 162.184 18.2172 159.879 18.2171Z" fill="black"/>
<path d="M217.245 16C220.07 16.0001 222.266 16.2825 223.831 16.8475C225.396 17.4128 226.723 17.9994 227.81 18.6081C228.332 18.9124 228.744 19.1528 229.049 19.3266C229.396 19.4569 229.723 19.5212 230.027 19.5212C230.462 19.5209 230.766 19.2826 230.94 18.8046C231.158 18.3265 231.332 17.6092 231.462 16.653H232.961C232.917 17.5659 232.853 18.6316 232.766 19.8486C232.723 21.0659 232.679 22.6743 232.635 24.6739V32.5657H231.135C230.961 30.1744 230.396 27.8478 229.44 25.5869C228.527 23.326 227.243 21.4559 225.591 19.9777C223.983 18.4998 222.048 17.7606 219.787 17.7606C217.874 17.7606 216.287 18.2832 215.026 19.3266C213.765 20.3701 213.136 21.8702 213.136 23.8263C213.136 25.4349 213.527 26.8266 214.309 28.0005C215.092 29.1308 216.309 30.3264 217.961 31.5871C219.657 32.848 221.874 34.4358 224.613 36.3488C226.569 37.6966 228.331 39.0442 229.896 40.392C231.505 41.7397 232.788 43.2617 233.745 44.9572C234.701 46.6525 235.178 48.6958 235.178 51.0865C235.178 53.9992 234.353 56.4124 232.701 58.3253C231.092 60.2383 228.94 61.6739 226.244 62.6304C223.548 63.5435 220.613 64 217.439 64C214.483 64 212.114 63.7395 210.331 63.2179C208.592 62.6962 207.113 62.1516 205.895 61.5864C204.939 60.9781 204.2 60.6734 203.678 60.6734C203.244 60.6736 202.917 60.9138 202.7 61.3919C202.526 61.8701 202.374 62.5874 202.243 63.5435H200.745C200.831 62.4133 200.874 61.1092 200.874 59.6313C200.917 58.1095 200.939 56.1514 200.939 53.7601C200.983 51.3689 201.005 48.3249 201.005 44.6297H202.505C202.679 47.6732 203.158 50.5223 203.94 53.1745C204.766 55.8264 206.006 57.9792 207.658 59.6313C209.353 61.2395 211.592 62.0429 214.375 62.0429C215.983 62.0429 217.353 61.8046 218.483 61.3264C219.657 60.8047 220.57 60.0657 221.222 59.1093C221.875 58.1527 222.201 56.9995 222.201 55.6517C222.201 53.8258 221.786 52.2396 220.96 50.8919C220.134 49.5006 219.005 48.2172 217.57 47.0433C216.179 45.826 214.549 44.6084 212.68 43.3911C210.636 41.9998 208.722 40.6083 206.939 39.217C205.157 37.826 203.723 36.2613 202.636 34.5227C201.593 32.7836 201.07 30.7173 201.07 28.326C201.07 25.4565 201.831 23.1298 203.353 21.3472C204.874 19.5213 206.875 18.1736 209.353 17.3041C211.831 16.4346 214.462 16 217.245 16Z" fill="black"/>
<path d="M344.814 16C347.639 16.0001 349.835 16.2825 351.4 16.8475C352.965 17.4126 354.291 17.9996 355.377 18.6081C355.899 18.9125 356.314 19.1527 356.618 19.3266C356.965 19.4569 357.292 19.5212 357.596 19.5212C358.031 19.5209 358.336 19.2826 358.509 18.8046C358.727 18.3265 358.899 17.609 359.03 16.653H360.53C360.487 17.5659 360.422 18.6316 360.336 19.8486C360.292 21.0659 360.248 22.6743 360.205 24.6739V32.5657H358.704C358.53 30.1744 357.965 27.8478 357.009 25.5869C356.096 23.326 354.812 21.456 353.16 19.9777C351.552 18.4998 349.617 17.7606 347.357 17.7606C345.443 17.7606 343.856 18.2831 342.595 19.3266C341.334 20.3701 340.705 21.8701 340.705 23.8263C340.705 25.4349 341.096 26.8266 341.878 28.0005C342.661 29.1308 343.878 30.3264 345.53 31.5871C347.226 32.848 349.443 34.4358 352.182 36.3488C354.138 37.6966 355.9 39.0442 357.465 40.392C359.074 41.7397 360.356 43.2617 361.312 44.9572C362.269 46.6527 362.747 48.6955 362.747 51.0865C362.747 53.9991 361.922 56.4124 360.27 58.3253C358.661 60.2383 356.509 61.6739 353.813 62.6304C351.118 63.5435 348.182 64 345.008 64C342.052 64 339.683 63.7395 337.901 63.2179C336.161 62.6962 334.682 62.1516 333.464 61.5864C332.508 60.978 331.769 60.6734 331.247 60.6734C330.813 60.6735 330.486 60.9137 330.269 61.3919C330.095 61.8701 329.943 62.5874 329.812 63.5435H328.314C328.401 62.4133 328.443 61.1092 328.443 59.6313C328.486 58.1095 328.508 56.1514 328.508 53.7601C328.552 51.3689 328.574 48.3249 328.574 44.6297H330.074C330.248 47.6732 330.727 50.5223 331.509 53.1745C332.335 55.8263 333.573 57.9793 335.225 59.6313C336.921 61.24 339.161 62.0429 341.944 62.0429C343.552 62.0429 344.922 61.8046 346.052 61.3264C347.226 60.8047 348.139 60.0656 348.792 59.1093C349.444 58.1527 349.77 56.9995 349.77 55.6517C349.77 53.8259 349.356 52.2396 348.53 50.8919C347.704 49.5007 346.574 48.2172 345.139 47.0433C343.748 45.826 342.118 44.6084 340.249 43.3911C338.205 41.9998 336.291 40.6083 334.509 39.217C332.726 37.8258 331.29 36.2617 330.203 34.5227C329.16 32.7836 328.639 30.7173 328.639 28.326C328.639 25.4565 329.4 23.1298 330.922 21.3472C332.444 19.5214 334.444 18.1736 336.922 17.3041C339.4 16.4346 342.031 16 344.814 16Z" fill="black"/>
<path fill-rule="evenodd" clip-rule="evenodd" d="M392.115 16C397.027 16.0001 401.331 16.9353 405.026 18.8046C408.722 20.6742 411.593 23.3692 413.637 26.891C415.68 30.3691 416.701 34.6083 416.701 39.608C416.701 44.4772 415.658 48.7385 413.571 52.3905C411.484 56.0427 408.571 58.8919 404.832 60.9353C401.136 62.9788 396.875 63.9999 392.049 64C387.136 64 382.831 63.065 379.136 61.1954C375.44 59.3259 372.571 56.6306 370.527 53.109C368.484 49.5874 367.463 45.3482 367.463 40.392C367.463 35.5226 368.506 31.2616 370.593 27.6095C372.723 23.9573 375.636 21.1081 379.332 19.0646C383.028 17.0215 387.289 16 392.115 16ZM391.853 17.1731C389.679 17.1732 387.788 18.1525 386.18 20.1087C384.571 22.0651 383.332 24.7606 382.462 28.195C381.593 31.6297 381.158 35.6085 381.158 40.13C381.158 44.7387 381.657 48.7612 382.657 52.196C383.657 55.5873 385.006 58.2182 386.702 60.0878C388.397 61.9132 390.266 62.8268 392.309 62.8269C394.483 62.8269 396.375 61.8479 397.984 59.8913C399.592 57.9349 400.832 55.2395 401.702 51.805C402.571 48.3268 403.006 44.3481 403.006 39.87C403.006 35.2178 402.505 31.1953 401.505 27.804C400.505 24.4129 399.158 21.8037 397.462 19.9777C395.766 18.1083 393.896 17.1731 391.853 17.1731Z" fill="black"/>
<path d="M486.011 16C488.837 16 491.034 16.2823 492.599 16.8475C494.164 17.4127 495.49 17.9995 496.577 18.6081C497.098 18.9124 497.511 19.1527 497.815 19.3266C498.163 19.457 498.489 19.5211 498.794 19.5212C499.228 19.5212 499.533 19.2827 499.707 18.8046C499.924 18.3265 500.098 17.6091 500.229 16.653H501.729C501.686 17.5659 501.62 18.6316 501.533 19.8486C501.489 21.0659 501.445 22.6743 501.402 24.6739V32.5657H499.903C499.729 30.1744 499.163 27.8478 498.206 25.5869C497.293 23.3262 496.012 21.4559 494.36 19.9777C492.751 18.4997 490.816 17.7608 488.556 17.7606C486.643 17.7606 485.055 18.2831 483.794 19.3266C482.533 20.3701 481.903 21.8699 481.903 23.8263C481.903 25.4349 482.295 26.8266 483.078 28.0005C483.86 29.1307 485.078 30.3265 486.73 31.5871C488.425 32.8479 490.642 34.436 493.381 36.3488C495.337 37.6965 497.098 39.0443 498.663 40.392C500.271 41.7398 501.555 43.2615 502.511 44.9572C503.468 46.6526 503.946 48.6956 503.946 51.0865C503.946 53.9994 503.119 56.4123 501.467 58.3253C499.859 60.2383 497.706 61.6739 495.011 62.6304C492.315 63.5433 489.381 63.9999 486.208 64C483.251 64 480.881 63.7397 479.098 63.2179C477.359 62.6962 475.881 62.1516 474.664 61.5864C473.708 60.978 472.968 60.6736 472.447 60.6734C472.012 60.6734 471.685 60.9136 471.468 61.3919C471.294 61.8701 471.142 62.5873 471.012 63.5435H469.511C469.598 62.4133 469.642 61.1092 469.642 59.6313C469.686 58.1095 469.708 56.1514 469.708 53.7601C469.751 51.3689 469.773 48.3249 469.773 44.6297H471.272C471.446 47.6732 471.924 50.5223 472.707 53.1745C473.533 55.8265 474.772 57.9792 476.424 59.6313C478.12 61.2396 480.359 62.0428 483.141 62.0429C484.749 62.0429 486.119 61.8044 487.25 61.3264C488.423 60.8048 489.337 60.0655 489.989 59.1093C490.641 58.1527 490.967 56.9995 490.967 55.6517C490.967 53.826 490.555 52.2395 489.729 50.8919C488.903 49.5006 487.772 48.2172 486.337 47.0433C484.946 45.8261 483.315 44.6084 481.446 43.3911C479.403 41.9999 477.49 40.6082 475.708 39.217C473.925 37.8258 472.49 36.2616 471.403 34.5227C470.359 32.7836 469.837 30.7173 469.837 28.326C469.837 25.4566 470.598 23.1298 472.119 21.3472C473.641 19.5213 475.641 18.1736 478.119 17.3041C480.598 16.4345 483.229 16 486.011 16Z" fill="black"/>
<path d="M36.7386 16.913C36.5647 19.0868 36.4346 21.1954 36.3476 23.2388C36.3041 25.2388 36.2821 26.7825 36.2821 27.8695C36.2821 28.7823 36.3041 29.6517 36.3476 30.4776C36.3911 31.3037 36.4351 32.0005 36.4786 32.5657H34.978C34.2389 28.957 33.2177 26.1298 31.9134 24.0864C30.6091 21.9996 29.1734 20.5437 27.6082 19.7176C26.0866 18.8482 24.5427 18.4136 22.9776 18.4136H22.13C21 18.4136 20.1525 18.5218 19.5874 18.7391C19.0222 18.913 18.6298 19.2834 18.4124 19.8486C18.2386 20.4139 18.1523 21.3055 18.1523 22.5223V39.217H18.8053C20.0222 39.2168 21.1304 38.9564 22.13 38.4349C23.13 37.9132 24.001 37.2183 24.7401 36.3488C25.5225 35.4795 26.1515 34.5439 26.6297 33.5442C27.1515 32.5442 27.4998 31.5651 27.6737 30.6086H29.1743C29.0004 33.0869 28.9123 34.979 28.9123 36.2833C28.9558 37.5874 28.9778 38.7832 28.9778 39.87C28.9778 40.9568 28.9998 42.1524 29.0433 43.4566C29.0868 44.761 29.1949 46.6531 29.3688 49.1313H27.8702C27.6093 47.5226 27.0648 46.0651 26.2387 44.7607C25.4562 43.4566 24.4347 42.4351 23.174 41.6961C22.0706 41.0112 20.8172 40.6258 19.414 40.5403L18.8053 40.521H18.1523V55.5226C18.1524 57.2614 18.3266 58.5874 18.6743 59.5003C19.0657 60.3696 19.7827 60.9345 20.826 61.1954C21.8694 61.4563 23.3912 61.5864 25.3911 61.5864V63.087C23.913 63.0435 21.9784 62.9995 19.5874 62.956C17.1961 62.9125 14.6513 62.8905 11.9556 62.8905C9.95618 62.8905 7.95673 62.9125 5.9573 62.956C3.9573 62.9995 2.0652 63.0435 0.282593 63.087V61.7829C1.62993 61.696 2.62956 61.5216 3.28175 61.2609C3.93393 61 4.37035 60.4775 4.58774 59.6949C4.80494 58.9122 4.91328 57.7382 4.91328 56.1737V23.8263C4.91328 22.2183 4.80495 21.0443 4.58774 20.3051C4.37042 19.5228 3.91344 19.0001 3.21818 18.7391C2.56601 18.4348 1.58694 18.2606 0.282593 18.2171V16.913C2.19564 16.9565 4.21789 17.0005 6.34833 17.044C8.52207 17.044 10.6528 17.066 12.7396 17.1095H29.8908C32.4558 17.066 34.7388 17 36.7386 16.913Z" fill="black"/>
<path d="M275.828 16.913C275.654 19.0868 275.523 21.1954 275.436 23.2388C275.393 25.2388 275.371 26.7825 275.371 27.8695C275.371 28.7823 275.393 29.6517 275.436 30.4776C275.48 31.3037 275.524 32.0005 275.567 32.5657H274.067C273.545 28.957 272.676 26.1298 271.459 24.0864C270.241 21.9995 268.806 20.5437 267.154 19.7176C265.545 18.8481 263.849 18.4136 262.066 18.4136H261.219C260.089 18.4136 259.241 18.5219 258.676 18.7391C258.111 18.913 257.719 19.2834 257.501 19.8486C257.328 20.4139 257.241 21.3054 257.241 22.5223V39.217H257.892C259.11 39.217 260.219 38.9566 261.219 38.4349C262.219 37.9134 263.088 37.218 263.827 36.3488C264.609 35.4794 265.24 34.5439 265.719 33.5442C266.24 32.5442 266.589 31.5651 266.763 30.6086H268.263C268.089 33.0869 268.001 34.979 268.001 36.2833C268.045 37.5874 268.067 38.7832 268.067 39.87C268.067 40.9568 268.089 42.1524 268.132 43.4566C268.176 44.761 268.284 46.6531 268.458 49.1313H266.957C266.696 47.5226 266.154 46.0651 265.328 44.7607C264.545 43.4566 263.523 42.4351 262.263 41.6961C261.002 40.9134 259.544 40.521 257.892 40.521H257.241V57.4777C257.241 58.6511 257.328 59.5427 257.501 60.1514C257.719 60.7166 258.111 61.109 258.676 61.3264C259.241 61.5001 260.089 61.5864 261.219 61.5864H263.371C264.805 61.5864 266.305 61.1298 267.87 60.2169C269.479 59.2603 270.959 57.6525 272.306 55.3916C273.654 53.1308 274.675 50.0433 275.371 46.1303H276.872C276.741 47.6955 276.675 49.6957 276.675 52.1305C276.675 53.2175 276.697 54.7832 276.741 56.8267C276.784 58.8265 276.914 60.9133 277.132 63.087C274.914 63 272.415 62.956 269.633 62.956C266.85 62.9125 264.371 62.8905 262.197 62.8905H257.698C255.915 62.8905 253.959 62.9125 251.828 62.956C249.742 62.956 247.611 62.978 245.437 63.0215C243.307 63.0215 241.284 63.0435 239.371 63.087V61.7829C240.719 61.6959 241.719 61.5217 242.371 61.2609C243.023 61 243.457 60.4775 243.675 59.6949C243.892 58.9122 244.002 57.7385 244.002 56.1737V23.8263C244.002 22.218 243.892 21.0443 243.675 20.3051C243.457 19.5225 243.001 19 242.305 18.7391C241.653 18.435 240.675 18.2606 239.371 18.2171V16.913C241.284 16.9565 243.307 17.0005 245.437 17.044C247.611 17.044 249.742 17.066 251.828 17.1095H268.98C271.545 17.066 273.828 17 275.828 16.913Z" fill="black"/>
<path fill-rule="evenodd" clip-rule="evenodd" d="M321.701 57.6087C322.31 59.087 322.962 60.1522 323.658 60.8044C324.354 61.4129 324.984 61.7394 325.55 61.7829V63.087C323.985 63 322.158 62.956 320.071 62.956C317.985 62.9125 315.854 62.8905 313.68 62.8905C311.463 62.8905 309.374 62.9125 307.418 62.956C305.462 62.956 303.897 63.0001 302.724 63.087V61.7829C304.94 61.6959 306.331 61.3254 306.896 60.6734C307.505 59.9777 307.374 58.522 306.505 56.3047L302.641 45.6083H289.504L288.375 48.5438C287.288 51.3698 286.613 53.6525 286.352 55.3916C286.135 57.087 286.245 58.3908 286.68 59.3038C287.115 60.2168 287.81 60.8475 288.766 61.1954C289.723 61.5432 290.854 61.7394 292.158 61.7829V63.087C290.549 63 289.092 62.956 287.788 62.956C286.527 62.9125 285.135 62.8905 283.613 62.8905C282.787 62.8905 281.896 62.9125 280.94 62.956C280.027 62.956 279.244 63 278.592 63.087V61.7829C279.592 61.609 280.571 60.9783 281.527 59.8913C282.527 58.761 283.549 56.8482 284.592 54.1531L299.071 16.913C300.115 16.9999 301.245 17.044 302.462 17.044C303.723 17.044 304.876 17 305.919 16.913L321.701 57.6087ZM290.005 44.3042H302.171L296.276 27.9851L290.005 44.3042Z" fill="black"/>
<path d="M464.722 18.2171C463.418 18.478 462.419 18.9347 461.723 19.5867C461.071 20.2387 460.637 21.2605 460.419 22.6513C460.202 23.9991 460.092 25.9132 460.092 28.3915V63.087C459.44 63.0001 458.722 62.956 457.94 62.956C457.201 62.956 456.396 63 455.527 63.087L426.637 31.5216V50.3044C426.637 53.2171 426.745 55.456 426.962 57.0212C427.223 58.5429 427.81 59.6522 428.723 60.3478C429.679 61 431.179 61.4785 433.223 61.7829V63.087C432.353 63 431.223 62.956 429.832 62.956C428.441 62.9125 427.136 62.8905 425.918 62.8905C424.962 62.8905 423.984 62.9125 422.985 62.956C421.985 62.956 421.158 63 420.506 63.087V61.7829C421.853 61.4786 422.853 61.0218 423.505 60.4133C424.157 59.7613 424.593 58.7397 424.811 57.3487C425.028 55.9574 425.136 54.0433 425.136 51.6085V23.8263C425.136 22.2183 425.028 21.0443 424.811 20.3051C424.593 19.5228 424.136 19.0001 423.441 18.7391C422.789 18.4348 421.81 18.2606 420.506 18.2171V16.913C421.158 16.9565 421.985 17.0005 422.985 17.044C423.984 17.0875 424.962 17.1095 425.918 17.1095C427.005 17.1095 428.071 17.0875 429.114 17.044C430.157 17.0005 431.092 16.9565 431.919 16.913L458.593 45.0862V29.6956C458.593 26.7831 458.463 24.566 458.202 23.0443C457.985 21.479 457.418 20.3478 456.505 19.6522C455.592 18.9567 454.092 18.4779 452.005 18.2171V16.913C452.875 16.9565 454.006 17.0005 455.397 17.044C456.788 17.0875 458.093 17.1095 459.31 17.1095C460.31 17.1095 461.289 17.0875 462.245 17.044C463.245 17.0006 464.07 16.9565 464.722 16.913V18.2171Z" fill="black"/>
</g>
</svg>
