<?xml version="1.0" encoding="UTF-8" standalone="no"?>
<!-- Created with Inkscape (http://www.inkscape.org/) -->

<svg
   width="474.10541mm"
   height="474.1055mm"
   viewBox="0 0 474.10541 474.1055"
   version="1.1"
   id="svg4176"
   inkscape:version="1.2.2 (b0a8486541, 2022-12-01)"
   sodipodi:docname="logo.svg"
   xmlns:inkscape="http://www.inkscape.org/namespaces/inkscape"
   xmlns:sodipodi="http://sodipodi.sourceforge.net/DTD/sodipodi-0.dtd"
   xmlns="http://www.w3.org/2000/svg"
   xmlns:svg="http://www.w3.org/2000/svg">
  <sodipodi:namedview
     id="namedview4178"
     pagecolor="#ffffff"
     bordercolor="#000000"
     borderopacity="0.25"
     inkscape:showpageshadow="2"
     inkscape:pageopacity="0.0"
     inkscape:pagecheckerboard="0"
     inkscape:deskcolor="#d1d1d1"
     inkscape:document-units="mm"
     showgrid="false"
     inkscape:zoom="0.25449098"
     inkscape:cx="1369.4002"
     inkscape:cy="1013.7884"
     inkscape:window-width="1920"
     inkscape:window-height="1011"
     inkscape:window-x="0"
     inkscape:window-y="0"
     inkscape:window-maximized="1"
     inkscape:current-layer="layer1" />
  <defs
     id="defs4173" />
  <g
     inkscape:label="Layer 1"
     inkscape:groupmode="layer"
     id="layer1">
    <path
       style="fill:#3e3e3e;fill-opacity:1;stroke:none;stroke-width:1.99799;stroke-linecap:round;stroke-miterlimit:23.8;stroke-dasharray:none;stroke-opacity:0"
       d="m 37.5559,306.2471 130.3003,130.3025 138.391,-5e-4 130.3018,-130.302 -4e-4,-138.3911 -130.3014,-130.3003 -138.391,5e-4 -130.3011,130.2998 3e-4,23.5729 z"
       id="path68062-4-6-4-4-8-1"
       sodipodi:nodetypes="cccccccccc" />
    <g
       id="g3675"
       transform="translate(-3438.5117,-1053.6264)">
      <path
         d="m 3619.2544,1474.5183 h 27.5988 v -112.6185 l -27.5988,27.5987 z"
         fill="url(#paint0_linear_162_190)"
         id="path49684-2-81-5-7"
         style="fill:#e3e6e3;fill-opacity:1;stroke-width:1.90191"
         sodipodi:nodetypes="ccccc" />
      <path
         d="m 3731.8729,1474.5183 h -27.5987 v -112.6185 l 27.5987,27.5987 z"
         fill="url(#paint0_linear_162_190)"
         id="path49684-9-5-0-7-0"
         style="fill:#e3e6e3;fill-opacity:1;stroke-width:1.90191"
         sodipodi:nodetypes="ccccc" />
      <path
         d="m 3491.7246,1354.443 27.5988,27.599 -5e-4,-182.7269 -27.5989,27.5988 z"
         fill="url(#paint1_linear_162_190)"
         id="path49686-4-3-4-4"
         style="fill:#e3e6e3;fill-opacity:1;stroke-width:1.90191"
         sodipodi:nodetypes="ccccc" />
      <path
         d="m 3859.4034,1354.443 -27.5989,27.599 v -182.7276 l 27.5989,27.5989 z"
         fill="url(#paint1_linear_162_190)"
         id="path49686-2-49-0-1-0"
         style="fill:#e3e6e3;fill-opacity:1;stroke-width:1.90191"
         sodipodi:nodetypes="ccccc" />
      <path
         d="m 3739.328,1106.8397 27.5989,27.5989 h -182.7271 l 27.5987,-27.5982 z"
         fill="url(#paint1_linear_162_190)"
         id="path49686-2-4-9-4-8-8"
         style="fill:#e3e6e3;fill-opacity:1;stroke-width:1.90191"
         sodipodi:nodetypes="ccccc" />
      <path
         d="m 3626.7097,1261.9686 27.5988,-27.5988 h -85.0198 l 27.599,27.5988 z"
         fill="url(#paint2_linear_162_190)"
         id="path49688-3-4-5-5"
         style="fill:#e3e6e3;fill-opacity:1;stroke-width:1.90191"
         sodipodi:nodetypes="ccccc" />
      <path
         d="m 3754.2395,1261.9686 27.5987,-27.5988 h -85.0195 l 27.5987,27.5988 z"
         fill="url(#paint2_linear_162_190)"
         id="path49688-2-5-44-9-1"
         style="fill:#e3e6e3;fill-opacity:1;stroke-width:1.90191"
         sodipodi:nodetypes="ccccc" />
      <path
         d="m 3689.3631,1361.8998 h -27.5989 v 112.6185 h 27.5989 z"
         fill="url(#paint4_linear_162_190)"
         id="path49692-0-7-7-6"
         style="fill:#e3e6e3;fill-opacity:1;stroke-width:1.90191"
         sodipodi:nodetypes="ccccc" />
      <path
         d="m 3689.3631,1234.3698 h -27.5989 v 70.1087 h 27.5989 z"
         fill="url(#paint10_linear_162_190)"
         id="path49704-2-6-5-6"
         style="fill:#e3e6e3;fill-opacity:1;stroke-width:1.90191"
         sodipodi:nodetypes="ccccc" />
      <path
         d="m 3569.2886,1149.3498 -35.0544,35.0541 v 99.9316 l 27.5989,27.5988 v -116.0979 l 18.888,-18.8878 h 189.6851 l 18.8881,18.8881 v 116.0976 l 27.5989,-27.5988 v -99.9316 l -35.055,-35.0542 z"
         fill="url(#paint11_linear_162_190)"
         id="path49706-9-31-3-2"
         style="fill:#e3e6e3;fill-opacity:1;stroke-width:1.90191"
         sodipodi:nodetypes="ccccccccccccc" />
      <path
         d="m 3534.2344,1396.9531 27.5992,27.5987 -6e-4,-105.162 -27.5988,27.5988 z"
         fill="url(#paint12_linear_162_190)"
         id="path49708-4-7-8-1"
         style="fill:#e3e6e3;fill-opacity:1;stroke-width:1.90191"
         sodipodi:nodetypes="ccccc" />
      <path
         d="m 3816.8934,1396.9531 -27.5988,27.5987 -5e-4,-105.162 27.5989,27.5988 z"
         fill="url(#paint12_linear_162_190)"
         id="path49708-6-3-5-8-9"
         style="fill:#e3e6e3;fill-opacity:1;stroke-width:1.90191"
         sodipodi:nodetypes="ccccc" />
      <path
         d="m 3629.2446,1319.3898 -52.5007,52.5006 6e-4,67.5726 27.5991,27.5988 -7e-4,-83.7396 36.3336,-36.3336 h 69.7738 l 36.3336,36.3336 6e-4,83.7396 27.5989,-27.5988 -6e-4,-68.6094 -51.0375,-51.4638 z"
         fill="url(#paint14_linear_162_190)"
         id="path49712-5-9-3-6"
         style="fill:#e3e6e3;fill-opacity:1;stroke-width:1.90191"
         sodipodi:nodetypes="ccccccccccccc" />
    </g>
    <path
       id="path49688-6-5-0-2-9-1-2-1-1-4"
       style="color:#000000;fill:#3e3e3e;fill-opacity:1;stroke-width:3.5008;-inkscape-stroke:none;paint-order:markers stroke fill"
       d="M 245.9183,0 436.5486,190.6369 V 107.5951 L 400.3499,71.3914 h -35.186 V 36.2054 L 328.9602,0 Z M 145.1505,0 108.9452,36.1986 V 71.3849 H 73.7608 l -36.2054,36.2034 v 83.0418 L 228.1922,0 Z"
       sodipodi:nodetypes="cccccccccccccccc" />
    <path
       id="path49688-6-5-0-2-9-1-6-8-8"
       style="fill:#2fd70a;fill-opacity:1;stroke:none;stroke-width:31.1231;stroke-dasharray:none;stroke-opacity:1;paint-order:markers stroke fill"
       d="m 283.3869,15.5637 66.1156,66.1177 V 42.65 L 322.4183,15.5637 Z m -131.7019,0 -27.0841,27.0845 v 39.0314 l 66.1155,-66.1159 z m 203.0902,71.3865 66.1157,66.1157 V 114.0361 L 393.8061,86.9522 Z m -274.478,0 -27.0847,27.0843 v 39.0314 l 66.1159,-66.1157 z" />
  </g>
</svg>
