<svg width="138" height="36" viewBox="0 0 138 36" fill="none" xmlns="http://www.w3.org/2000/svg">
<g clip-path="url(#clip0_689_221)">
<path d="M21.6267 0.131836H1.17383V16.1589H21.6267V0.131836Z" fill="#D92B2B"/>
<path d="M136.478 18.8803H82.7786V34.9073H136.478V18.8803Z" fill="#D92B2B"/>
<path d="M25.8281 16.1928H29.2907C28.9906 15.3862 28.9413 14.3163 28.9413 13.2209V10.5123H29.9447C33.7835 10.5123 37.1924 9.4169 37.1924 5.18831C37.1924 1.47769 34.4823 0.2677 30.4464 0.2677H25.8326C26.1327 1.07436 26.182 2.14424 26.182 3.21412V13.2252C26.182 14.3205 26.1327 15.3904 25.8326 16.1971L25.8281 16.1928ZM28.9368 2.14H30.0925C33.0041 2.14 34.3838 3.30328 34.3838 5.34964C34.3838 8.08379 32.0769 8.606 29.8954 8.606H28.9413V2.14H28.9368Z" fill="black"/>
<path d="M50.7654 12.5545L45.4752 0.26355H42.6667C42.819 0.883403 42.7159 1.40561 41.9141 3.30762L38.0529 12.5332C37.3496 14.1975 36.7494 15.3396 36.073 16.1929H39.5356C39.5356 15.5518 39.7103 14.7197 40.2388 13.3654L40.7674 12.011H47.6388L48.1898 13.4121C48.566 14.3886 48.8662 15.2419 48.8662 16.1929H52.6781C52.051 15.3353 51.2223 13.6031 50.7699 12.5545H50.7654ZM41.511 10.0835L43.7686 4.2841C43.9209 3.902 44.0463 3.52415 44.1717 3.16752C44.2703 3.57085 44.4226 3.95295 44.548 4.2841L46.8549 10.0835H41.511Z" fill="black"/>
<path d="M54.2014 16.1929H57.6864C57.3863 15.3863 57.337 14.3164 57.337 13.221V9.96467H58.1164C58.542 9.96467 59.1467 9.9392 59.72 9.91797L63.9083 16.1929H67.447C66.7437 15.4542 66.0181 14.5287 65.3909 13.6244L62.4793 9.53587C64.1367 8.98819 65.6149 7.48951 65.6149 4.87424C65.6149 0.976805 62.1031 0.26355 59.0168 0.26355H54.2014C54.5284 1.07021 54.5777 2.14009 54.5777 3.20997V13.221C54.5777 14.3164 54.5284 15.3863 54.2014 16.1929ZM57.337 2.14009H58.4165C60.7503 2.14009 62.8063 2.49672 62.8063 5.03981C62.8063 7.58291 60.6473 8.05841 58.6942 8.05841H57.3415V2.14009H57.337Z" fill="black"/>
<path d="M66.8687 2.78117C68.0243 2.33114 68.974 2.16132 70.806 2.16132H72.2126V13.2168C72.2126 14.3121 72.1633 15.382 71.8632 16.1887H75.3482C75.0212 15.382 74.9719 14.3121 74.9719 13.2168V2.16556H76.3784C78.2105 2.16556 79.1646 2.33114 80.3158 2.78542V0.26355H66.8687V2.78542V2.78117Z" fill="black"/>
<path d="M103.165 14.2655V8.58492H105.324C106.453 8.58492 107.859 8.7038 108.684 9.01373V6.68291H103.165V2.16563H106.148C107.98 2.16563 108.934 2.3312 110.086 2.78548V0.263611H100.052C100.352 1.07027 100.401 2.14015 100.401 3.21003V13.2211C100.401 14.3164 100.352 15.3863 100.052 16.193H110.363L110.766 13.5522C109.665 13.981 108.585 14.2655 106.78 14.2655H103.169H103.165Z" fill="black"/>
<path d="M120.823 9.53593C122.481 8.98825 123.959 7.48957 123.959 4.8743C123.959 0.976866 120.447 0.263611 117.361 0.263611H112.546C112.873 1.07027 112.922 2.14015 112.922 3.21003V13.2211C112.922 14.3164 112.873 15.3863 112.546 16.193H116.031C115.73 15.3863 115.681 14.3164 115.681 13.2211V9.96473H116.461C116.886 9.96473 117.491 9.93926 118.064 9.91803L122.252 16.193H125.791C125.088 15.4543 124.362 14.5287 123.735 13.6244L120.823 9.53593ZM117.034 8.06272H115.681V2.14015H116.761C119.094 2.14015 121.15 2.49678 121.15 5.03987C121.15 7.58297 118.991 8.05847 117.038 8.05847L117.034 8.06272Z" fill="black"/>
<path d="M129.527 4.04196C129.527 2.70886 130.705 2.02107 132.21 2.02107C133.715 2.02107 135.395 2.68763 136.398 3.44758V0.738912C135.672 0.382284 134.517 0.000183105 132.788 0.000183105C129.303 0.000183105 126.767 1.63897 126.767 4.51747C126.767 9.53573 134.445 8.44037 134.445 12.2189C134.445 13.62 133.392 14.3842 131.713 14.3842C130.033 14.3842 127.977 13.5987 126.646 12.5289V15.263C127.197 15.6451 128.98 16.4263 131.363 16.4263C134.974 16.4263 137.285 14.6431 137.285 11.7179C137.285 6.36853 129.536 7.48512 129.536 4.03772L129.527 4.04196Z" fill="black"/>
<path d="M7.55266 28.3052H11.9917V32.4659C11.2885 32.848 10.3344 33.0603 9.05774 33.0603C5.59517 33.0603 2.86274 30.6106 2.86274 26.6877C2.86274 23.6691 4.64554 20.8882 8.65907 20.8882C11.1407 20.8882 13.0982 21.9836 13.8507 22.6714V19.9372C13.0713 19.3895 11.5169 18.7739 9.08462 18.7739C4.16624 18.7739 0.00488281 21.8392 0.00488281 27.2608C0.00488281 32.6824 4.01842 35.2 8.33208 35.2C10.1373 35.2 11.5662 34.7712 12.4979 34.3424L14.6794 35.0811L14.7063 35.0557V26.331H7.85726L7.55714 28.3052H7.55266Z" fill="black"/>
<path d="M25.8871 28.3055C27.5444 27.7578 29.0226 26.2591 29.0226 23.6438C29.0226 19.7464 25.5108 19.0331 22.4245 19.0331H17.6091C17.9361 19.8398 17.9854 20.9097 17.9854 21.9796V31.9906C17.9854 33.086 17.9361 34.1559 17.6091 34.9625H21.0941C20.794 34.1559 20.7447 33.086 20.7447 31.9906V28.7343H21.5241C21.9497 28.7343 22.5544 28.7088 23.1277 28.6876L27.316 34.9625H30.8547C30.1514 34.2238 29.4258 33.2983 28.7987 32.3939L25.8871 28.3055ZM22.0975 26.8323H20.7447V20.9139H21.8242C24.158 20.9139 26.2141 21.2706 26.2141 23.8137C26.2141 26.3567 24.055 26.8323 22.102 26.8323H22.0975Z" fill="black"/>
<path d="M40.0369 18.7697C34.7422 18.7697 31.1318 22.2426 31.1318 27.2354C31.1318 32.2282 34.5451 35.2001 39.6113 35.2001C44.9284 35.2001 48.4671 31.7527 48.4671 26.7853C48.4671 21.818 45.1076 18.774 40.0369 18.774V18.7697ZM40.1354 33.0603C36.4713 33.0603 33.9897 30.2794 33.9897 26.6155C33.9897 23.3337 36.1488 20.884 39.4814 20.884C43.0694 20.884 45.6003 23.6436 45.6003 27.35C45.6003 30.5597 43.4188 33.056 40.1309 33.056L40.1354 33.0603Z" fill="black"/>
<path d="M61.5555 21.9796V27.9955C61.5555 30.3009 61.2777 33.0817 57.7435 33.0817C54.0077 33.0817 53.6807 30.3009 53.6807 27.9955V21.9796C53.6807 20.9097 53.73 19.8398 54.0301 19.0331H50.5675C50.8676 19.8398 50.9169 20.9097 50.9169 21.9796V28.28C50.9169 31.8717 52.0726 35.2003 57.4882 35.2003C62.0795 35.2003 64.0594 32.3472 64.0594 28.5687V21.9838C64.0594 20.9139 64.1087 19.844 64.4088 19.0374H61.1971C61.4972 19.844 61.5465 20.9139 61.5465 21.9838L61.5555 21.9796Z" fill="black"/>
<path d="M71.9441 19.033H67.3303C67.6304 19.8396 67.6797 20.9095 67.6797 21.9794V31.9904C67.6797 33.0858 67.6304 34.1557 67.3303 34.9623H70.7929C70.4928 34.1557 70.4435 33.0858 70.4435 31.9904V29.2818H71.4469C75.2857 29.2818 78.6945 28.1864 78.6945 23.9578C78.6945 20.2472 75.9845 19.0372 71.9486 19.0372L71.9441 19.033ZM71.3931 27.3797H70.439V20.9137H71.5947C74.5063 20.9137 75.886 22.077 75.886 24.1234C75.886 26.8575 73.5791 27.3797 71.3976 27.3797H71.3931Z" fill="black"/>
<path d="M94.2107 3.21003V10.5082C94.2107 11.0091 94.2376 11.387 94.26 11.7224C94.036 11.3658 93.7583 10.9624 93.4582 10.6058L84.8264 0.263611H82.3672C82.6628 1.06178 82.7166 2.11468 82.7166 3.16758V13.2211C82.7166 14.3164 82.6673 15.3863 82.3672 16.193H85.5789C85.2788 15.3863 85.2295 14.3164 85.2295 13.2211V5.63425C85.2295 5.32433 85.2295 4.99317 85.1802 4.61107C85.3549 4.94223 85.5834 5.25215 85.8342 5.56208L94.7124 16.1887H96.7192V3.21003C96.7192 2.14015 96.7684 1.07027 97.0686 0.263611H93.8568C94.157 1.07027 94.2062 2.14015 94.2062 3.21003H94.2107Z" fill="black"/>
</g>
<defs>
<clipPath id="clip0_689_221">
<rect width="137.28" height="35.2" fill="white"/>
</clipPath>
</defs>
</svg>
