<?xml version="1.0" encoding="UTF-8"?>
<svg id="Layer_2" xmlns="http://www.w3.org/2000/svg" viewBox="0 0 622.65 184.65">
  <defs>
    <style>
      .cls-1 {
        fill: #fff;
      }

      .cls-2 {
        fill: #00ff96;
      }
    </style>
  </defs>
  <g id="Layer_1-2" data-name="Layer_1">
    <g>
      <path class="cls-1" d="M241.78,148.28c29.84,0,54.02-24.22,53.95-54.08-.02-7.41,6.1-13.38,13.51-13.38h1.41c2.21,0,4-1.79,4-4v-32.44c0-2.21-1.79-4-4-4h-1.41c-29.84,0-54.02,24.22-53.95,54.08.02,7.41-6.1,13.38-13.51,13.38h-1.41c-2.21,0-4,1.79-4,4v32.44c0,2.21,1.79,4,4,4h1.41Z"/>
      <circle class="cls-2" cx="467.51" cy="22.26" r="22.18"/>
      <rect class="cls-1" x="447.29" y="53.89" width="40.44" height="90.33" rx="4" ry="4"/>
      <path class="cls-1" d="M555.19,36.84V4.1c0-2.34-2-4.18-4.34-3.99-27.77,2.21-49.61,25.44-49.61,53.78v86.33c0,2.21,1.79,4,4,4h32.44c2.21,0,4-1.79,4-4v-41.88c0-2.21,1.79-4,4-4h5.51c2.21,0,4-1.79,4-4v-32.44c0-2.21-1.79-4-4-4h-4.62c-2.92,0-4.87-3.03-3.64-5.68,1.73-3.72,5.1-6.53,9.19-7.48,1.8-.42,3.07-2.03,3.07-3.88Z"/>
      <path class="cls-1" d="M622.65,111.37v32.74c0,2.34-2,4.18-4.34,3.99-27.77-2.21-49.61-25.44-49.61-53.78V4c0-2.21,1.79-4,4-4h32.44c2.21,0,4,1.79,4,4v45.88c0,2.21,1.79,4,4,4h5.51c2.21,0,4,1.79,4,4v32.44c0,2.21-1.79,4-4,4h-4.62c-2.92,0-4.87,3.03-3.64,5.68,1.73,3.72,5.1,6.53,9.19,7.48,1.8.42,3.07,2.03,3.07,3.88Z"/>
      <path class="cls-1" d="M366.32,94.33c0-7.68,6.41-13.86,14.16-13.49,7.27.34,12.86,6.6,12.86,13.88v45.5c0,2.21,1.79,4,4,4h32.44c2.21,0,4-1.79,4-4v-45.04c0-29.67-23.6-54.41-53.26-54.79-3.25-.04-6.43.21-9.53.72-2.45.4-4.68-1.46-4.68-3.94V7.71h-.01c-.16-2.21-2.08-3.86-4.29-3.7-.55.04-1.07.19-1.53.43l-32.43,16.52c-1.34.68-2.18,2.06-2.18,3.56v115.68c0,2.21,1.79,4,4,4h32.44c2.21,0,4-1.79,4-4v-45.88Z"/>
      <path class="cls-1" d="M103.9,144.21h-49.95C24.15,144.21,0,120.06,0,90.26v-41.82c0-2.21,1.79-4,4-4h32.44c2.21,0,4,1.79,4,4v45.5c0,7.27,5.59,13.53,12.86,13.88,7.76.37,14.16-5.82,14.16-13.49v-45.88c0-2.21,1.79-4,4-4h32.44c2.21,0,4,1.79,4,4v91.77c0,2.21-1.79,4-4,4Z"/>
      <path class="cls-1" d="M166.52,147.56c3.75.62,7.62.85,11.59.65,27.63-1.37,49.99-23.91,51.15-51.55,1.29-30.76-23.18-56.12-53.61-56.28-30.05-.16-54.24,24.78-54.24,54.83v85.74s.01,0,.01,0c.16,2.2,2.08,3.86,4.29,3.69.55-.04,1.07-.19,1.53-.43l32.43-16.52c1.34-.68,2.18-2.06,2.18-3.56v-12.63c0-2.48,2.23-4.34,4.67-3.94ZM175.36,107.84c-7.46,0-13.51-6.05-13.51-13.51s6.05-13.51,13.51-13.51,13.51,6.05,13.51,13.51-6.05,13.51-13.51,13.51Z"/>
    </g>
  </g>
</svg>