<svg viewBox="0 0 200 200" fill="none" xmlns="http://www.w3.org/2000/svg">
<rect width="200" height="200" fill="url(#paint0_linear_133_2)"/>
<path fill-rule="evenodd" clip-rule="evenodd" d="M70.8959 111.621L72.3878 122.048L64.9257 123.537L58.9554 122.048L50 107.154L52.9851 80.3421L63.4324 66.9371L76.8648 65.4478L90.2973 58L108.21 66.9371L103.731 71.405C116.666 73.3907 125.124 74.8814 129.104 75.8743C135.074 77.3636 145.523 84.8114 147.015 86.3007C148.508 87.79 147.796 94.6364 147.015 99.7057C146.493 103.085 145.499 105.567 144.03 107.154L150 141.411H136.567L139.553 138.433L127.612 113.111L94.7756 117.58L82.8378 141.411H69.4055L73.8825 133.964L82.8378 102.684L76.8675 96.7271L63.4324 99.7057L61.9392 111.621L66.4163 116.091L70.8959 111.621ZM91.8919 129.213L96.3514 120.065L102.297 118.541L106.757 141.411H91.8919L94.8648 139.887L91.8919 129.213ZM120.54 118.857L125 115.85L132.433 128.631L130.946 141.411H117.567L120.54 136.9V118.857Z" fill="black"/>
<defs>
<linearGradient id="paint0_linear_133_2" x1="100" y1="0" x2="100" y2="200" gradientUnits="userSpaceOnUse">
<stop stop-color="white"/>
<stop offset="0.8" stop-color="#F2F2F2"/>
</linearGradient>
</defs>
</svg>
