<?xml version="1.0" standalone="no"?>
<!DOCTYPE svg PUBLIC "-//W3C//DTD SVG 20010904//EN" "http://www.w3.org/TR/2001/REC-SVG-20010904/DTD/svg10.dtd">
<svg version="1.0" xmlns="http://www.w3.org/2000/svg"
 width="260.000000pt" height="260.000000pt" viewBox="0 0 260.000000 260.000000"
 preserveAspectRatio="xMidYMid meet">
<metadata>
Created by potrace 1.14, written by Peter Selinger 2001-2017
</metadata>
<g transform="translate(0.000000,260.000000) scale(0.100000,-0.100000)"
fill="#000000" stroke="none">
<path d="M2048 1971 c-113 -72 -366 -307 -540 -501 -62 -70 -181 -211 -273
-325 -317 -390 -464 -500 -685 -512 -111 -6 -181 6 -268 47 -114 54 -189 142
-215 255 -41 177 53 322 253 391 43 15 84 19 185 19 121 0 134 -2 190 -28 110
-52 164 -126 165 -226 0 -95 -66 -181 -177 -227 -111 -47 -250 -36 -383 30
-57 28 -71 31 -68 18 4 -20 85 -67 143 -83 70 -20 79 -21 155 -21 128 1 229
44 304 130 43 49 62 99 65 167 9 223 -216 371 -501 331 -217 -30 -378 -197
-378 -391 0 -243 194 -422 475 -438 163 -9 324 56 463 186 30 29 113 120 185
202 137 159 140 162 202 240 22 28 42 52 45 55 3 3 32 37 65 75 148 174 349
375 485 485 61 50 56 42 -43 -74 -275 -321 -510 -713 -560 -931 -26 -113 -3
-215 49 -223 48 -7 169 121 354 372 205 277 494 640 595 746 95 100 110 108
53 30 -354 -484 -525 -853 -484 -1040 18 -80 75 -130 147 -130 78 0 197 94
317 250 37 47 85 108 108 135 39 47 88 134 80 142 -3 3 -35 -34 -135 -152 -9
-11 -23 -29 -31 -41 -16 -22 -75 -94 -125 -153 -46 -53 -122 -109 -166 -122
-95 -29 -102 60 -24 291 45 134 88 232 192 440 106 211 124 244 249 464 91
158 93 166 24 125 -101 -62 -387 -394 -714 -828 -210 -281 -317 -411 -337 -411
-27 0 4 115 74 276 137 316 444 854 528 924 13 11 28 48 22 54 -10 10 -17 8
-65 -23z"/>
</g>
</svg>
