<svg width="48" height="48" viewBox="0 0 48 48" fill="none" xmlns="http://www.w3.org/2000/svg">
<path d="M0 6C0 2.68629 2.68629 0 6 0H42C45.3137 0 48 2.68629 48 6V42C48 45.3137 45.3137 48 42 48H6C2.68629 48 0 45.3137 0 42V6Z" fill="white"/>
<path d="M13.9747 27.3857V20.7419C13.9747 20.2965 14.2708 19.9996 14.7151 19.9996H20.6977V13.2H14.5374C10.3022 13.2 6.60004 16.4958 6.60004 20.8607V27.5045C6.60004 31.8396 9.79868 34.8 14.0635 34.8C16.7587 34.8 19.2169 33.5618 21.7935 31.0676L32.2779 20.8236C32.7223 20.3782 33.0479 19.9996 33.4331 19.9996C33.7884 19.9996 34.0254 20.2891 34.0254 20.6454V27.258C34.0254 27.7034 33.7291 28.0003 33.2849 28.0003H27.3024V34.8H33.4923C37.698 34.8 41.4 31.504 41.4 27.1095V20.5267C41.4 16.1915 38.2014 13.2 33.9365 13.2C31.2711 13.2 28.7832 14.4693 26.2065 16.9635L15.7221 27.2075C15.2778 27.6529 14.952 28.0003 14.567 28.0003C14.2116 28.0003 13.9747 27.742 13.9747 27.3857Z" fill="#090A0A"/>
</svg>
