<svg width="165" height="84" viewBox="0 0 165 84" fill="none" xmlns="http://www.w3.org/2000/svg">
<path d="M95.8855 33.2527C97.609 30.8798 99.0136 28.165 99.6687 25.3001C100.445 21.9088 100.093 18.3716 99.0579 15.0733C99.1652 14.9202 99.2539 14.7615 99.3054 14.5913C99.384 14.3395 99.3898 14.0835 99.3583 13.8117C99.3426 13.6759 99.3154 13.54 99.2796 13.4027C99.241 13.2668 99.1967 13.1266 99.1366 12.9964C99.0193 12.7318 98.872 12.4687 98.7132 12.2212C98.3785 11.7421 97.9923 11.3158 97.6734 11.0412C97.5175 10.8982 97.383 10.7852 97.2872 10.7065C97.1899 10.6321 97.1327 10.5935 97.1327 10.5935C97.1327 10.5935 97.147 10.8595 97.1799 11.27C97.2128 11.682 97.28 12.2098 97.3701 12.7647C97.4159 13.0408 97.4817 13.3068 97.5518 13.5729C97.6233 13.8389 97.712 14.0906 97.8293 14.3109C97.8908 14.4196 97.9494 14.5298 98.0181 14.6299C98.0882 14.73 98.1668 14.8215 98.2541 14.9031C98.3413 14.9846 98.44 15.0561 98.5487 15.119C98.6145 15.1591 98.6918 15.1891 98.7676 15.222C98.912 15.6897 99.0522 16.1589 99.1681 16.6252C99.856 19.3857 99.9648 22.2764 99.3883 25.0655C98.7618 28.1064 97.1799 31.0199 95.3162 33.483C93.8659 35.3996 92.0007 36.8385 89.7823 37.7611C89.2416 37.9856 88.6909 38.1859 88.1346 38.3689C88.1346 38.4762 88.136 38.5849 88.1417 38.6922C88.2905 38.6436 88.4421 38.5964 88.588 38.5477C91.5902 37.5551 94.0246 35.8158 95.8855 33.2527Z" fill="#171717"/>
<path d="M92.9776 38.1357C92.3268 38.0398 91.6603 37.964 91.0667 38.0355C90.4717 38.1071 89.9453 38.323 89.5363 38.8194C89.8266 39.4115 90.3372 39.7548 90.9566 39.8964C91.5759 40.0409 92.3011 39.9851 92.9862 39.8134C93.6727 39.6418 94.3178 39.3557 94.7841 39.094C95.0173 38.9667 95.2075 38.8437 95.3376 38.7593C95.4692 38.6706 95.5393 38.6163 95.5393 38.6163C95.5393 38.6163 95.2304 38.5548 94.7412 38.4561C94.262 38.3645 93.6255 38.2344 92.9776 38.1357Z" fill="#171717"/>
<path d="M91.2869 33.5349C91.2054 33.5921 91.0924 33.6779 90.9579 33.7866C90.6818 34.0026 90.3085 34.3029 89.9252 34.6663C89.5462 35.031 89.1586 35.4587 88.8911 35.9521C88.6279 36.4499 88.4806 37.0134 88.6222 37.6585C89.2301 37.803 89.7807 37.597 90.2184 37.2108C90.6518 36.8232 90.9751 36.2625 91.1653 35.6947C91.3584 35.124 91.4328 34.5575 91.4385 34.1356C91.4442 33.9253 91.4385 33.7551 91.4285 33.6321C91.4199 33.5106 91.4085 33.4419 91.4085 33.4419C91.4085 33.4419 91.3655 33.4748 91.2869 33.5349Z" fill="#171717"/>
<path d="M96.9911 34.4471C96.8367 34.4886 96.6851 34.5315 96.5334 34.583C96.3704 34.6402 96.2088 34.6974 96.0557 34.7589C95.8998 34.819 95.7453 34.8762 95.5994 34.9434C95.4536 35.0064 95.3077 35.0693 95.1761 35.1437C94.6354 35.4269 94.2077 35.7873 93.9474 36.3866C94.3965 36.8715 94.9944 37.0503 95.6609 36.9616C96.3232 36.8787 97.0498 36.524 97.6791 35.999C97.7578 35.9332 97.835 35.866 97.9108 35.7973L98.0224 35.6929L98.1125 35.6085C98.2269 35.4998 98.3371 35.3883 98.4386 35.2796C98.6446 35.0622 98.8291 34.8519 98.9807 34.6688C99.1309 34.4843 99.2496 34.3298 99.3312 34.2183C99.4113 34.1053 99.4513 34.0366 99.4513 34.0366C99.4513 34.0366 99.1495 34.0681 98.6804 34.1253C98.2155 34.1868 97.6005 34.2855 96.9911 34.4471Z" fill="#171717"/>
<path d="M94.1418 34.4432C94.2047 34.3145 94.2648 34.1815 94.3049 34.0399C94.3435 33.8969 94.3749 33.7538 94.3921 33.6079C94.4064 33.4592 94.4121 33.3119 94.4093 33.1674C94.4064 33.0115 94.3964 32.8556 94.385 32.704C94.3263 32.0932 94.1847 31.5268 94.0574 31.1177C93.993 30.9118 93.933 30.7459 93.8815 30.6271C93.8329 30.5099 93.8014 30.4426 93.8014 30.4426C93.8014 30.4426 93.7671 30.497 93.7113 30.5914C93.6483 30.6872 93.5597 30.8217 93.4595 30.9904C93.3594 31.1592 93.2464 31.3595 93.1377 31.5855C93.0304 31.8043 92.9046 32.0889 92.8545 32.2606C92.7244 32.6639 92.567 33.1459 92.5012 33.6723C92.4397 34.1987 92.4698 34.7751 92.7887 35.3529C93.408 35.3243 93.8758 34.9524 94.1418 34.4432Z" fill="#171717"/>
<path d="M99.5043 30.0362C98.9164 30.298 98.3271 30.6084 97.908 31.0117C97.805 31.1133 97.6992 31.2148 97.6091 31.325C97.5175 31.4351 97.4374 31.551 97.3745 31.6754C97.2444 31.9243 97.17 32.2046 97.1657 32.525C97.7535 32.8197 98.3543 32.7839 98.9293 32.5479C99.0737 32.4892 99.2153 32.4177 99.3555 32.3376C99.4928 32.2561 99.6344 32.1674 99.7589 32.0616C100.012 31.8542 100.257 31.6139 100.478 31.3664C100.937 30.8773 101.264 30.3094 101.501 29.8861C101.618 29.6729 101.71 29.4927 101.771 29.3669C101.83 29.2381 101.857 29.1609 101.857 29.1609C101.857 29.1609 101.57 29.2524 101.113 29.4012C100.666 29.5499 100.075 29.7645 99.5043 30.0362Z" fill="#171717"/>
<path d="M95.771 31.7402C96.0499 31.6114 96.2688 31.4255 96.4347 31.2024C96.5177 31.0922 96.5863 30.9721 96.645 30.8448C96.7007 30.7175 96.7522 30.5859 96.7765 30.4414C96.8838 29.8707 96.8295 29.24 96.6736 28.6592C96.5005 28.0728 96.2559 27.5507 96.0528 27.1789C95.9484 26.9929 95.8597 26.8442 95.7868 26.7398C95.7167 26.6368 95.6738 26.5781 95.6738 26.5781C95.6738 26.5781 95.6509 26.6353 95.6151 26.7369C95.5736 26.837 95.5121 26.98 95.4478 27.1588C95.3133 27.5121 95.1903 28.007 95.0573 28.5334C94.9972 28.7994 94.9572 29.0798 94.9443 29.3644C94.9414 29.4373 94.94 29.5089 94.9371 29.5789C94.9343 29.649 94.9329 29.7191 94.9314 29.7892C94.9314 29.9308 94.9414 30.071 94.96 30.2111C95.0316 30.7675 95.2647 31.3125 95.771 31.7402Z" fill="#171717"/>
<path d="M101.1 25.1832C100.973 25.2804 100.849 25.3806 100.729 25.485C100.608 25.588 100.488 25.6938 100.365 25.7982C100.129 26.0128 99.919 26.2373 99.7517 26.4762C99.6673 26.5949 99.5972 26.7193 99.5343 26.8452C99.4642 26.9697 99.4098 27.0984 99.3698 27.2328C99.2897 27.5003 99.2682 27.7878 99.3269 28.1025C99.9605 28.2813 100.544 28.1311 101.066 27.7821C101.195 27.6948 101.324 27.5947 101.445 27.486C101.564 27.3759 101.671 27.2514 101.777 27.1227C101.987 26.8638 102.179 26.5763 102.351 26.2817C102.441 26.1372 102.509 25.9827 102.577 25.8311C102.642 25.6809 102.704 25.5322 102.76 25.3863C102.87 25.0945 102.97 24.8227 103.033 24.5839C103.15 24.1033 103.199 23.78 103.199 23.78C103.199 23.78 102.926 23.9374 102.534 24.1934C102.153 24.4537 101.607 24.7941 101.1 25.1832Z" fill="#171717"/>
<path d="M97.8479 27.4779C98.0982 27.3005 98.2756 27.0788 98.3957 26.8328C98.4558 26.7084 98.5016 26.5782 98.533 26.4452C98.5616 26.3093 98.5674 26.1663 98.5674 26.0233C98.5659 25.7372 98.5173 25.444 98.4358 25.1579C98.4157 25.0864 98.3929 25.0149 98.3714 24.9448C98.3442 24.8733 98.3142 24.8032 98.2827 24.7331C98.2212 24.5929 98.1511 24.4556 98.0796 24.3255C97.9366 24.0623 97.7778 23.8206 97.619 23.6074C97.5432 23.5016 97.4588 23.4 97.3759 23.3056C97.2944 23.2141 97.2143 23.1268 97.1413 23.0496C96.8438 22.7421 96.6293 22.5662 96.6293 22.5662C96.6293 22.5662 96.5835 22.7993 96.5563 23.1612C96.5549 23.2527 96.542 23.35 96.5277 23.4544C96.5177 23.5602 96.5063 23.6704 96.5005 23.7862C96.4848 24.0179 96.492 24.274 96.4948 24.5371C96.492 24.7989 96.5077 25.0721 96.552 25.3467C96.5735 25.4826 96.6021 25.6199 96.6393 25.7558C96.6693 25.8902 96.7051 26.0233 96.7523 26.152C96.9339 26.6698 97.27 27.1546 97.8479 27.4779Z" fill="#171717"/>
<path d="M101.508 20.0948C101.321 20.3452 101.118 20.6069 100.946 20.8701C100.771 21.1347 100.633 21.4036 100.525 21.6754C100.41 21.9457 100.341 22.2174 100.334 22.4964C100.328 22.6351 100.348 22.7753 100.37 22.9169C100.391 23.057 100.431 23.2015 100.491 23.346C101.149 23.3717 101.71 23.0957 102.11 22.6237C102.318 22.3891 102.494 22.1102 102.65 21.8069C102.793 21.5037 102.897 21.1762 102.986 20.8443C103.029 20.6798 103.07 20.5125 103.101 20.3509C103.126 20.1878 103.146 20.0276 103.163 19.8731C103.196 19.5613 103.214 19.2724 103.223 19.025C103.212 18.5315 103.176 18.2083 103.176 18.2083C103.176 18.2083 102.954 18.4285 102.639 18.7761C102.485 18.9477 102.303 19.1508 102.102 19.3754C101.907 19.6014 101.703 19.8431 101.508 20.0948Z" fill="#171717"/>
<path d="M99.2095 22.5779C99.2767 22.4521 99.311 22.3205 99.3382 22.1875C99.3868 21.9214 99.3725 21.6425 99.3125 21.3693C99.2424 21.0947 99.1122 20.8244 98.9606 20.5712C98.8834 20.4453 98.799 20.3209 98.7117 20.2036C98.623 20.0849 98.5143 19.9733 98.4142 19.8646C97.9951 19.4355 97.5574 19.1037 97.1798 18.8848C96.8165 18.666 96.5605 18.5544 96.5605 18.5544C96.5605 18.5544 96.5762 18.7876 96.6449 19.138C96.6692 19.3154 96.6978 19.5213 96.7479 19.7459C96.7693 19.8575 96.7994 19.9733 96.8323 20.092C96.8637 20.2122 96.8866 20.3352 96.9238 20.4582C96.9882 20.7056 97.0797 20.9588 97.1927 21.2077C97.2885 21.4537 97.4144 21.6983 97.5746 21.9243C97.905 22.3734 98.317 22.7567 98.9549 22.9355C99.0579 22.8211 99.1437 22.7024 99.2095 22.5779Z" fill="#171717"/>
<path d="M100.222 18.1C100.281 18.2287 100.357 18.3575 100.451 18.4805C100.776 18.409 101.049 18.2716 101.281 18.0814C101.517 17.8926 101.685 17.6523 101.83 17.3734C101.901 17.2347 101.961 17.0873 102.017 16.9329C102.067 16.7784 102.114 16.6168 102.142 16.4551C102.199 16.1276 102.227 15.7843 102.235 15.4468C102.223 14.7774 102.127 14.1237 102 13.6574C101.943 13.4214 101.887 13.2283 101.847 13.0924C101.803 12.9594 101.773 12.8865 101.773 12.8865C101.773 12.8865 101.615 13.1482 101.384 13.5602C101.152 13.9735 100.877 14.5185 100.608 15.1035C100.475 15.3953 100.367 15.6913 100.264 15.9888C100.162 16.2878 100.085 16.5824 100.056 16.8685C100.045 17.0115 100.03 17.1546 100.032 17.2933C100.035 17.4349 100.051 17.5708 100.082 17.7052C100.112 17.8397 100.159 17.9713 100.222 18.1Z" fill="#171717"/>
<path d="M98.8491 16.723C98.7075 16.4784 98.5244 16.2496 98.3141 16.0436C98.1039 15.8377 97.8493 15.6603 97.6033 15.503C97.4774 15.4243 97.3515 15.3513 97.2271 15.287C97.1027 15.2212 96.9711 15.1625 96.8466 15.1096C96.5992 15.0023 96.366 14.9208 96.1658 14.8579C95.9655 14.7949 95.7982 14.7506 95.6766 14.7249C95.5536 14.6963 95.485 14.6848 95.485 14.6848C95.485 14.6848 95.5036 14.7406 95.545 14.8364C95.5822 14.9337 95.6294 15.0724 95.7024 15.2383C95.7381 15.3213 95.7767 15.41 95.8225 15.5044C95.8468 15.5516 95.8697 15.6002 95.8955 15.6489C95.9155 15.6989 95.9398 15.7504 95.9641 15.8019C96.0599 16.0093 96.1787 16.2296 96.316 16.4498C96.4404 16.673 96.5863 16.8961 96.7565 17.1064C96.7994 17.1593 96.8452 17.2122 96.8881 17.2623C96.931 17.3152 96.9739 17.3638 97.0197 17.4153C97.1098 17.514 97.2085 17.607 97.3129 17.6942C97.5189 17.8701 97.7649 18.0218 98.0238 18.1305C98.2827 18.2392 98.5759 18.3078 98.9063 18.3121C98.9764 18.1777 99.0293 18.0418 99.0608 17.9045C99.0851 17.77 99.0922 17.6327 99.0836 17.4997C99.0751 17.3652 99.0493 17.2322 99.0107 17.1021C98.9735 16.9719 98.9235 16.8432 98.8491 16.723Z" fill="#171717"/>
<path d="M69.1155 33.3382C67.2533 30.8752 65.6699 27.9616 65.0434 24.9207C64.467 22.1316 64.5757 19.2409 65.2637 16.4804C65.3795 16.0141 65.5197 15.545 65.6642 15.0773C65.7386 15.0444 65.8172 15.0143 65.883 14.9743C65.9917 14.9128 66.089 14.8398 66.1777 14.7583C66.2663 14.6768 66.3436 14.5852 66.4137 14.4851C66.4823 14.385 66.541 14.2748 66.6025 14.1661C66.7198 13.9459 66.8084 13.6941 66.88 13.4281C66.95 13.1621 67.0158 12.896 67.0616 12.62C67.1517 12.065 67.2175 11.5358 67.2504 11.1253C67.2833 10.7148 67.2976 10.4487 67.2976 10.4487C67.2976 10.4487 67.2404 10.4873 67.1431 10.5617C67.0473 10.6404 66.9129 10.7534 66.7569 10.8964C66.438 11.171 66.0518 11.5973 65.7171 12.0764C65.5583 12.3239 65.411 12.5871 65.2937 12.8517C65.2337 12.9818 65.1893 13.122 65.1507 13.2579C65.1149 13.3966 65.0863 13.5325 65.072 13.667C65.0406 13.9373 65.0449 14.1933 65.1249 14.4465C65.1764 14.6167 65.2651 14.7755 65.3724 14.9285C64.3368 18.2268 63.9864 21.764 64.7616 25.1553C65.4167 28.0202 66.8213 30.735 68.5448 33.1079C70.4043 35.671 72.8401 37.4103 75.8424 38.4015C75.9882 38.4502 76.1399 38.4974 76.2886 38.546C76.2943 38.4387 76.2958 38.3314 76.2958 38.2227C75.7394 38.0397 75.1887 37.8394 74.648 37.6149C72.431 36.6937 70.5659 35.2548 69.1155 33.3382Z" fill="#171717"/>
<path d="M71.4528 37.9917C70.8048 38.0904 70.1683 38.2205 69.6877 38.3106C69.1986 38.4093 68.8896 38.4708 68.8896 38.4708C68.8896 38.4708 68.9611 38.5252 69.0913 38.6139C69.2229 38.6983 69.4117 38.8198 69.6448 38.9486C70.1111 39.2117 70.7562 39.4964 71.4427 39.668C72.1293 39.8397 72.853 39.8954 73.4724 39.751C74.0917 39.6094 74.6023 39.2661 74.8927 38.6739C74.4836 38.1776 73.9573 37.9631 73.3622 37.8901C72.7701 37.82 72.1036 37.8944 71.4528 37.9917Z" fill="#171717"/>
<path d="M74.2133 37.0695C74.651 37.4557 75.2017 37.6602 75.8096 37.5172C75.9512 36.8721 75.8039 36.3071 75.5407 35.8108C75.2732 35.3173 74.8856 34.8911 74.5065 34.5249C74.1232 34.1616 73.7499 33.8613 73.4739 33.6453C73.3394 33.5351 73.2264 33.4508 73.1449 33.3935C73.0662 33.3335 73.0219 33.302 73.0219 33.302C73.0219 33.302 73.0119 33.3707 73.0018 33.4922C72.9918 33.6152 72.9861 33.7854 72.9918 33.9957C72.9976 34.4177 73.0719 34.9826 73.265 35.5548C73.4567 36.1212 73.7785 36.6833 74.2133 37.0695Z" fill="#171717"/>
<path d="M70.4843 36.2429C70.2255 35.645 69.7964 35.2831 69.2557 34.9999C69.1227 34.9255 68.9768 34.864 68.8323 34.7997C68.6864 34.7325 68.532 34.6752 68.376 34.6152C68.2216 34.5537 68.0599 34.4965 67.8969 34.4392C67.7438 34.3877 67.5937 34.3434 67.4392 34.3034C66.8299 34.1417 66.2148 34.0416 65.75 33.983C65.2808 33.9258 64.979 33.8943 64.979 33.8943C64.979 33.8943 65.0191 33.9629 65.0992 34.0759C65.1807 34.1875 65.2994 34.342 65.4496 34.5265C65.6027 34.7096 65.7857 34.9198 65.9917 35.1372C66.0947 35.2459 66.2034 35.3575 66.3178 35.4662L66.4079 35.5506L66.5195 35.655C66.5953 35.7237 66.6725 35.7909 66.7512 35.8567C67.3805 36.3802 68.1071 36.7349 68.7694 36.8193C69.4373 36.9065 70.0352 36.7278 70.4843 36.2429Z" fill="#171717"/>
<path d="M71.2911 31.4431C71.1824 31.2171 71.0708 31.0169 70.9693 30.8481C70.8692 30.6808 70.7805 30.5449 70.7175 30.449C70.6603 30.3546 70.6274 30.3003 70.6274 30.3003C70.6274 30.3003 70.5974 30.3661 70.5473 30.4848C70.4958 30.6035 70.4358 30.7694 70.3714 30.9754C70.2455 31.3859 70.1025 31.9523 70.0439 32.5616C70.031 32.7132 70.0224 32.8692 70.0195 33.0251C70.0167 33.1695 70.0224 33.3168 70.0367 33.4656C70.0539 33.6115 70.0853 33.7545 70.124 33.8976C70.164 34.0392 70.2241 34.1707 70.287 34.3009C70.5545 34.8101 71.0222 35.182 71.6401 35.212C71.9591 34.6342 71.9891 34.0578 71.9276 33.5314C71.8618 33.005 71.7045 32.523 71.5743 32.1197C71.5242 31.9466 71.3984 31.6634 71.2911 31.4431Z" fill="#171717"/>
<path d="M65.5012 32.4043C66.0776 32.6417 66.6769 32.6761 67.2648 32.3814C67.2605 32.061 67.1861 31.7793 67.056 31.5318C66.993 31.4074 66.9129 31.2915 66.8214 31.1814C66.7313 31.0712 66.6254 30.9711 66.5225 30.8681C66.1034 30.4648 65.5141 30.1544 64.9262 29.8927C64.3555 29.6209 63.7662 29.4063 63.3171 29.2562C62.8608 29.1088 62.5733 29.0159 62.5733 29.0159C62.5733 29.0159 62.6005 29.0917 62.6577 29.2218C62.7178 29.3477 62.8108 29.5294 62.9281 29.741C63.1655 30.1644 63.4916 30.7323 63.9507 31.2214C64.1739 31.4689 64.417 31.7092 64.6702 31.9166C64.7961 32.0224 64.9362 32.1111 65.0735 32.1926C65.2166 32.2741 65.3582 32.3457 65.5012 32.4043Z" fill="#171717"/>
<path d="M67.7854 30.7014C67.844 30.8273 67.9127 30.9489 67.9956 31.059C68.1616 31.2821 68.3804 31.4681 68.6593 31.5968C69.1656 31.1691 69.3988 30.6242 69.4746 30.0664C69.4946 29.9262 69.5032 29.786 69.5032 29.6444C69.5018 29.5743 69.5003 29.5043 69.4975 29.4342C69.4946 29.3641 69.4918 29.2926 69.4903 29.2196C69.476 28.935 69.436 28.6546 69.3773 28.3886C69.2457 27.8608 69.1227 27.3659 68.9869 27.0141C68.9225 26.8353 68.861 26.6922 68.8195 26.5921C68.7837 26.4906 68.7609 26.4333 68.7609 26.4333C68.7609 26.4333 68.7179 26.492 68.6464 26.595C68.5735 26.6994 68.4834 26.8481 68.3804 27.0341C68.1773 27.406 67.9313 27.928 67.7596 28.5145C67.6037 29.0952 67.5479 29.726 67.6567 30.2967C67.6781 30.4425 67.7296 30.5741 67.7854 30.7014Z" fill="#171717"/>
<path d="M62.9852 27.3451C63.1068 27.4538 63.2355 27.554 63.3642 27.6412C63.8863 27.9902 64.4713 28.1404 65.1035 27.9616C65.1622 27.6469 65.1407 27.3594 65.0606 27.092C65.022 26.9575 64.9662 26.8288 64.8961 26.7043C64.8332 26.5785 64.7631 26.454 64.6787 26.3353C64.5114 26.0965 64.3011 25.8719 64.0651 25.6573C63.9435 25.5515 63.8219 25.4471 63.7018 25.3441C63.5816 25.2411 63.4572 25.1396 63.3299 25.0423C62.8236 24.6533 62.2772 24.3128 61.8953 24.0525C61.5048 23.7965 61.2302 23.6392 61.2302 23.6392C61.2302 23.6392 61.2803 23.9624 61.3961 24.443C61.4576 24.6819 61.5577 24.9551 61.6693 25.2454C61.7251 25.3913 61.7866 25.5401 61.8524 25.6902C61.9196 25.8419 61.9883 25.9963 62.0784 26.1408C62.25 26.4354 62.4417 26.7229 62.6519 26.9818C62.7606 27.1106 62.8665 27.235 62.9852 27.3451Z" fill="#171717"/>
<path d="M66.036 26.6893C66.1547 26.9367 66.3335 27.157 66.5838 27.3343C67.1617 27.0111 67.4978 26.5262 67.6809 26.0084C67.7281 25.8797 67.7639 25.7467 67.7939 25.6122C67.8311 25.4763 67.8597 25.339 67.8811 25.2032C67.9255 24.9285 67.9412 24.6553 67.9384 24.3936C67.9412 24.1304 67.9484 23.8744 67.9326 23.6427C67.9255 23.5268 67.9155 23.4153 67.9055 23.3108C67.8926 23.2064 67.8783 23.1092 67.8768 23.0176C67.8497 22.6557 67.8039 22.4226 67.8039 22.4226C67.8039 22.4226 67.5894 22.6 67.2918 22.9061C67.2189 22.9833 67.1388 23.0691 67.0573 23.1621C66.9743 23.2565 66.8899 23.358 66.8141 23.4639C66.6554 23.6784 66.4966 23.9202 66.3536 24.1819C66.282 24.3121 66.212 24.4494 66.1504 24.5895C66.1204 24.6596 66.0889 24.7297 66.0618 24.8012C66.0389 24.8713 66.016 24.9428 65.996 25.0144C65.9159 25.3004 65.8672 25.5936 65.8658 25.8797C65.8658 26.0227 65.8715 26.1658 65.8987 26.3016C65.9302 26.4347 65.9759 26.5648 66.036 26.6893Z" fill="#171717"/>
<path d="M61.3274 20.2074C61.3589 20.3704 61.4004 20.5363 61.4433 20.7008C61.5334 21.0312 61.6378 21.3588 61.7794 21.6634C61.9353 21.9667 62.1127 22.2456 62.3186 22.4801C62.7191 22.9521 63.2798 23.2282 63.9378 23.2025C63.9964 23.058 64.0379 22.9135 64.0593 22.7734C64.0808 22.6318 64.1008 22.4916 64.0965 22.3528C64.0894 22.0739 64.0207 21.8022 63.9049 21.5318C63.7976 21.2615 63.6603 20.9926 63.4843 20.7266C63.3127 20.4634 63.1096 20.2016 62.9222 19.9513C62.7277 19.6996 62.5232 19.4564 62.3272 19.2333C62.127 19.0087 61.9439 18.8042 61.7894 18.634C61.4747 18.2864 61.253 18.0662 61.253 18.0662C61.253 18.0662 61.2173 18.3894 61.2058 18.8829C61.2144 19.1303 61.233 19.4207 61.2659 19.7311C61.2831 19.8841 61.3031 20.0443 61.3274 20.2074Z" fill="#171717"/>
<path d="M65.0921 22.0441C65.1193 22.1757 65.1536 22.3087 65.2208 22.4346C65.288 22.559 65.3724 22.6778 65.4754 22.7907C66.1133 22.6105 66.5267 22.2286 66.8557 21.7795C67.0144 21.5535 67.1403 21.3104 67.2376 21.0629C67.3506 20.814 67.4421 20.5609 67.5065 20.3134C67.5437 20.1904 67.5666 20.0674 67.598 19.9473C67.6309 19.8285 67.6595 19.7127 67.6824 19.6011C67.7339 19.378 67.7611 19.1706 67.7854 18.9932C67.854 18.6428 67.8698 18.4097 67.8698 18.4097C67.8698 18.4097 67.6152 18.5212 67.2519 18.7401C66.8743 18.9589 66.4366 19.2907 66.0175 19.7198C65.9174 19.8271 65.8087 19.9401 65.72 20.0588C65.6328 20.1761 65.5484 20.3006 65.4711 20.4264C65.3195 20.6796 65.1894 20.9499 65.1193 21.2245C65.0578 21.4992 65.0435 21.7781 65.0921 22.0441Z" fill="#171717"/>
<path d="M62.4146 16.7906C62.4689 16.945 62.529 17.0924 62.602 17.2311C62.745 17.5086 62.9138 17.7489 63.1498 17.9391C63.3815 18.1293 63.6561 18.2667 63.9794 18.3382C64.0738 18.2137 64.1496 18.0864 64.2082 17.9577C64.2726 17.829 64.3184 17.6974 64.3512 17.5644C64.3827 17.4299 64.3984 17.294 64.4013 17.1524C64.4042 17.0137 64.3884 16.8707 64.377 16.7276C64.3484 16.443 64.2712 16.1469 64.1696 15.848C64.0666 15.5505 63.9593 15.2544 63.8263 14.9626C63.556 14.3776 63.2814 13.8327 63.0497 13.4193C62.8179 13.0074 62.662 12.7456 62.662 12.7456C62.662 12.7456 62.632 12.8186 62.5877 12.9516C62.5476 13.086 62.4918 13.2805 62.4346 13.5165C62.3073 13.9828 62.2115 14.6351 62.2 15.3059C62.2072 15.6434 62.2344 15.9867 62.293 16.3143C62.3159 16.4745 62.3645 16.6361 62.4146 16.7906Z" fill="#171717"/>
<path d="M66.405 17.9896C66.6639 17.8795 66.91 17.7293 67.1159 17.5533C67.2218 17.4661 67.319 17.3717 67.4091 17.2744C67.4549 17.2229 67.4978 17.1743 67.5407 17.1214C67.5836 17.0713 67.6294 17.0184 67.6723 16.9655C67.8425 16.7552 67.9898 16.5321 68.1129 16.309C68.2516 16.0887 68.3689 15.8684 68.4647 15.661C68.489 15.6095 68.5133 15.558 68.5334 15.508C68.5591 15.4594 68.582 15.4107 68.6063 15.3635C68.6521 15.2691 68.6921 15.1804 68.7265 15.0975C68.7994 14.9316 68.848 14.7928 68.8838 14.6956C68.9238 14.5983 68.9439 14.5439 68.9439 14.5439C68.9439 14.5439 68.8766 14.5554 68.7522 14.584C68.6306 14.6097 68.4633 14.6541 68.263 14.717C68.0628 14.7799 67.8297 14.8615 67.5808 14.9688C67.4563 15.0202 67.3233 15.0789 67.2003 15.1461C67.0759 15.2119 66.95 15.2849 66.8241 15.3621C66.5781 15.518 66.3235 15.6968 66.1133 15.9028C65.9044 16.1087 65.7199 16.3376 65.5783 16.5822C65.5039 16.7023 65.4553 16.831 65.4153 16.9626C65.3781 17.0928 65.3509 17.2258 65.3423 17.3603C65.3337 17.4947 65.3409 17.6306 65.3652 17.765C65.3952 17.9023 65.4496 18.0397 65.5197 18.1727C65.8529 18.167 66.1462 18.0983 66.405 17.9896Z" fill="#171717"/>
<path d="M67.2475 6.06743L82.1987 1.71496L97.1499 6.06743L98.4257 4.72865L82.2144 0.00858194V0L82.1987 0.00429097L82.183 0V0.00858194L65.9717 4.72865L67.2475 6.06743Z" fill="#171717"/>
<path d="M82.2144 2.50928V2.49927L82.1986 2.50356L82.1829 2.49927V2.50928L67.8368 6.68439L70.6059 9.58509L82.1986 6.21095L93.7914 9.58509L96.5605 6.68439L82.2144 2.50928Z" fill="#171717"/>
<path d="M82.5063 10.9151C86.0278 10.9351 89.1344 11.297 91.7176 11.7576L93.178 10.2271L82.2145 7.05179V7.04321L82.1988 7.0475L82.1831 7.04321V7.05179L71.2196 10.2271L72.68 11.7576C75.4019 11.2727 78.7217 10.8936 82.5063 10.9151Z" fill="#171717"/>
<path d="M88.2119 33.3251L91.4616 30.2028V12.9245C88.7497 12.5182 85.5558 12.2164 81.9785 12.2336C78.603 12.245 75.5735 12.5354 72.9718 12.9245V30.2242L76.2258 33.358V17.0853C76.2258 16.526 76.7092 16.0969 77.2856 16.1913C77.7362 16.2628 78.048 16.6805 78.048 17.1353V38.8719L81.2977 42.0001V17.0853C81.2977 16.526 81.8026 16.0912 82.379 16.1913C82.8296 16.2685 83.1356 16.6848 83.1356 17.141V41.9729L86.3853 38.8505V17.0853C86.3853 16.5804 86.7915 16.1741 87.2965 16.1741H87.3079C87.8071 16.1741 88.2133 16.5804 88.2133 17.0853V33.3251H88.2119Z" fill="#171717"/>
<path d="M10.157 77.3678L0.0268511 63H0V83.7852H3.79821V74.8462L10.0667 83.5142H10.1204L16.633 74.2555V83.7852H20.5679V63H20.5118L10.157 77.3678Z" fill="#171717"/>
<path d="M45.747 76.4059C45.747 77.0381 45.5615 77.646 45.1904 78.2245C44.8194 78.803 44.3165 79.2741 43.6843 79.6354C43.0497 79.9966 42.3271 80.1773 41.5118 80.1773C40.7698 80.1773 40.0887 79.9966 39.4638 79.6354C38.8389 79.2741 38.3385 78.803 37.9577 78.2245C37.5794 77.646 37.389 77.0406 37.389 76.4059V63.8152H33.4541V76.4865C33.4541 77.9511 33.8153 79.2497 34.5403 80.3799C35.2628 81.5101 36.2368 82.3962 37.4573 83.0381C38.6778 83.6801 40.0301 83.9999 41.5143 83.9999C43.0155 83.9999 44.38 83.6801 45.6103 83.0381C46.8405 82.3962 47.817 81.5101 48.5395 80.3799C49.262 79.2497 49.6257 77.9511 49.6257 76.4865V63.8152H45.7445V76.4059H45.747Z" fill="#171717"/>
<path d="M61.1595 67.6134H65.8268V83.7851H69.7592V67.6134H74.6168V63.8152H61.1595V67.6134Z" fill="#171717"/>
<path d="M98.4411 76.4059C98.4411 77.0381 98.2555 77.646 97.8845 78.2245C97.5135 78.803 97.0106 79.2741 96.3784 79.6354C95.7462 79.9966 95.0212 80.1773 94.2083 80.1773C93.4663 80.1773 92.7828 79.9966 92.1603 79.6354C91.5354 79.2741 91.035 78.803 90.6542 78.2245C90.2734 77.646 90.0855 77.0406 90.0855 76.4059V63.8152H86.1506V76.4865C86.1506 77.9511 86.5118 79.2497 87.2368 80.3799C87.9594 81.5101 88.9333 82.3962 90.1538 83.0381C91.3743 83.6801 92.7267 83.9999 94.2108 83.9999C95.712 83.9999 97.0765 83.6801 98.3068 83.0381C99.5346 82.3962 100.513 81.5101 101.236 80.3799C101.959 79.2497 102.32 77.9511 102.32 76.4865V63.8152H98.4411V76.4059Z" fill="#171717"/>
<path d="M127.096 76.4059C127.096 77.0381 126.911 77.646 126.539 78.2245C126.168 78.803 125.666 79.2741 125.033 79.6354C124.401 79.9966 123.676 80.1773 122.863 80.1773C122.121 80.1773 121.438 79.9966 120.815 79.6354C120.19 79.2741 119.69 78.803 119.309 78.2245C118.928 77.646 118.74 77.0406 118.74 76.4059V63.8152H114.806V76.4865C114.806 77.9511 115.167 79.2497 115.892 80.3799C116.614 81.5101 117.588 82.3962 118.809 83.0381C120.029 83.6801 121.382 83.9999 122.866 83.9999C124.367 83.9999 125.731 83.6801 126.962 83.0381C128.19 82.3962 129.168 81.5101 129.891 80.3799C130.614 79.2497 130.975 77.9511 130.975 76.4865V63.8152H127.096V76.4059Z" fill="#171717"/>
<path d="M164.375 63L154.02 77.3678L143.89 63H143.861V83.7852H147.662V74.8462L153.928 83.5142H153.984L160.496 74.2531V83.7852H164.429V63H164.375Z" fill="#171717"/>
</svg>
