<svg width="16" height="16" viewBox="0 0 16 16" fill="none" xmlns="http://www.w3.org/2000/svg">
<g clip-path="url(#clip0_15012_510)">
<path d="M7.99977 15.9995C12.4179 15.9995 15.9995 12.4179 15.9995 7.99977C15.9995 3.58162 12.4179 0 7.99977 0C3.58162 0 0 3.58162 0 7.99977C0 12.4179 3.58162 15.9995 7.99977 15.9995Z" fill="#257C58"/>
<path d="M3.16404 4.1755C3.21176 4.1755 3.25667 4.15398 3.28754 4.11749C4.41399 2.76696 6.10835 1.90575 8.00058 1.90575C9.89281 1.90575 11.5872 2.76696 12.7136 4.11749C12.744 4.15398 12.7894 4.1755 12.8371 4.1755H13.187C13.238 4.1755 13.2675 4.11702 13.2366 4.07632C12.0358 2.49424 10.1356 1.4707 8.00058 1.4707C5.86556 1.4707 3.96585 2.49424 2.76455 4.07632C2.73367 4.11702 2.76314 4.1755 2.81413 4.1755H3.16404Z" fill="white"/>
<path d="M12.9027 11.8281C12.854 11.8281 12.8082 11.8506 12.7778 11.8885C11.6523 13.2839 9.92843 14.1779 8.00018 14.1779C6.07193 14.1779 4.34857 13.2839 3.22259 11.8885C3.19218 11.8506 3.14634 11.8281 3.09769 11.8281H2.75386C2.70334 11.8281 2.6734 11.8857 2.70334 11.9264C3.90043 13.5543 5.82868 14.6124 7.99972 14.6124C10.1708 14.6124 12.099 13.5538 13.2961 11.9264C13.326 11.8857 13.2961 11.8281 13.2456 11.8281H12.9017H12.9027Z" fill="white"/>
<path d="M7.85922 9.40594C7.60662 9.40594 7.38722 9.35589 7.2015 9.25578C7.01532 9.15567 6.87171 9.013 6.7702 8.82822C6.66869 8.64344 6.61816 8.42591 6.61816 8.17611V6.63379H7.28992V8.17611C7.28992 8.29867 7.31331 8.4058 7.36009 8.49842C7.40687 8.59104 7.47376 8.66168 7.56124 8.71127C7.64825 8.76085 7.74929 8.78565 7.8639 8.78565C7.97851 8.78565 8.08189 8.76085 8.16657 8.71127C8.25124 8.66168 8.31673 8.59104 8.36351 8.49842C8.41029 8.40627 8.43368 8.29867 8.43368 8.17611V6.63379H9.10543V8.17611C9.10543 8.42357 9.05397 8.63923 8.95106 8.82401C8.84814 9.00879 8.7036 9.15193 8.51788 9.25344C8.3317 9.35495 8.1123 9.40548 7.86016 9.40548L7.85922 9.40594Z" fill="white"/>
<path d="M6.74319 5.26902H6.07752C5.62236 5.26902 5.1976 5.49777 4.94686 5.87762L4.20634 7.00033L3.0972 5.4234C3.0289 5.32609 2.91756 5.26855 2.79874 5.26855H1.91695C1.77755 5.26855 1.69568 5.42573 1.77614 5.53988L3.42746 7.884L2.20652 9.65647C1.97121 9.99375 1.83228 10.2132 1.65358 10.3792C1.57172 10.4555 1.49079 10.5182 1.41781 10.5682C1.3439 10.6192 1.37945 10.7347 1.46927 10.7347H2.13494C2.59011 10.7347 3.01487 10.506 3.2656 10.1261L4.10483 8.85327L5.32437 10.5808C5.39267 10.6777 5.504 10.7352 5.62236 10.7352H6.50509C6.64449 10.7352 6.72635 10.578 6.64589 10.4639L4.88839 7.9696L6.00595 6.34776C6.24125 6.01048 6.38018 5.79108 6.55888 5.62501C6.64075 5.54876 6.72168 5.48608 6.79465 5.43603C6.86856 5.38504 6.83301 5.26949 6.74319 5.26949V5.26902Z" fill="white"/>
<path d="M10.7316 9.40569C10.5104 9.40569 10.2919 9.36546 10.0758 9.28453C9.85965 9.20407 9.66692 9.0918 9.49805 8.94865L9.87275 8.46074C10.0393 8.59593 10.1927 8.69323 10.3335 8.75171C10.4739 8.81018 10.6236 8.83966 10.7826 8.83966C10.8865 8.83966 10.9753 8.82936 11.0479 8.80831C11.1208 8.78773 11.1765 8.75686 11.2158 8.71662C11.2546 8.67639 11.2743 8.62868 11.2743 8.57395C11.2743 8.49863 11.2457 8.44016 11.1882 8.39806C11.1311 8.35642 11.0334 8.32368 10.8954 8.30029L10.2942 8.19503C10.073 8.15621 9.90222 8.07154 9.78293 7.94149C9.66318 7.81144 9.6033 7.64631 9.6033 7.44563C9.6033 7.2688 9.64821 7.1163 9.73803 6.98859C9.82784 6.86088 9.95649 6.76358 10.1244 6.69575C10.2924 6.62792 10.4921 6.59424 10.7237 6.59424C10.9267 6.59424 11.1311 6.62885 11.3365 6.69762C11.5418 6.76639 11.7205 6.86228 11.8712 6.98438L11.5156 7.48024C11.2345 7.26412 10.9548 7.15606 10.6764 7.15606C10.5852 7.15606 10.5066 7.16588 10.4402 7.18553C10.3738 7.20518 10.3232 7.23231 10.2877 7.2674C10.2521 7.30248 10.2348 7.34505 10.2348 7.39417C10.2348 7.462 10.2601 7.51392 10.3111 7.55041C10.3621 7.5869 10.4444 7.61544 10.559 7.63649L11.125 7.73004C11.3879 7.77168 11.5877 7.85869 11.7243 7.99154C11.8609 8.1244 11.9292 8.29608 11.9292 8.50705C11.9292 8.69183 11.881 8.85135 11.7846 8.98514C11.6883 9.1194 11.5503 9.22278 11.3706 9.29576C11.191 9.36873 10.9777 9.40522 10.7302 9.40522L10.7316 9.40569Z" fill="white"/>
<path d="M12.4463 9.36714V6.63428H13.555C13.758 6.63428 13.9465 6.66936 14.121 6.73953C14.2955 6.8097 14.4485 6.90747 14.5799 7.03237C14.7114 7.15727 14.8143 7.30322 14.8882 7.46976C14.9626 7.63629 14.9995 7.81593 14.9995 8.00866C14.9995 8.20139 14.9626 8.37588 14.8882 8.53961C14.8138 8.7038 14.7114 8.84742 14.5799 8.97091C14.4485 9.09441 14.2955 9.19171 14.121 9.26188C13.9465 9.33205 13.758 9.36714 13.555 9.36714H12.4463ZM13.118 8.7735H13.5395C13.6462 8.7735 13.7458 8.75386 13.838 8.71503C13.9301 8.6762 14.0115 8.62147 14.0822 8.55083C14.1528 8.4802 14.2071 8.39927 14.2464 8.30665C14.2852 8.21449 14.3048 8.11485 14.3048 8.00819C14.3048 7.90153 14.2852 7.79675 14.2464 7.70179C14.2075 7.60682 14.1528 7.52402 14.0822 7.45385C14.0115 7.38368 13.9306 7.32848 13.838 7.28779C13.7454 7.24756 13.6462 7.22744 13.5395 7.22744H13.118V8.7735Z" fill="white"/>
</g>
<defs>
<clipPath id="clip0_15012_510">
<rect width="16" height="16" fill="white"/>
</clipPath>
</defs>
</svg>
