<svg width="4024" height="953" viewBox="0 0 4024 953" fill="none" xmlns="http://www.w3.org/2000/svg">
<path fill-rule="evenodd" clip-rule="evenodd" d="M74.6201 399.952C34.5877 630.66 184.537 850.784 405.638 900.016C409.65 900.896 413.677 901.71 417.689 902.463C451.074 908.724 471.453 872.367 452.243 844.354L382.445 746.8C255.505 696.096 176.903 561.976 201.206 421.918C223.757 291.956 341.278 218.648 397.22 198.239L555.894 423.541C570.674 444.527 574.426 469.972 568.346 492.988C563.239 518.305 546.855 538.635 525.372 549.624C511.999 566.462 510.67 590.729 523.678 609.2L529.616 617.631C548.716 644.751 586.184 651.252 613.304 632.153L623.384 625.054C705.101 567.503 724.691 454.604 667.14 372.887L440.793 51.4964C260.067 73.5646 117.673 213.276 74.6201 399.952Z" fill="#F8F8F8"/>
<path fill-rule="evenodd" clip-rule="evenodd" d="M907.263 552.579C947.295 321.872 797.346 101.747 576.245 52.5152C572.233 51.6354 568.206 50.8214 564.194 50.0688C530.809 43.8072 510.43 80.1645 529.64 108.178L599.438 205.732C726.379 256.435 804.98 390.556 780.677 530.614C758.126 660.575 640.605 733.884 584.664 754.293L428.984 533.243C411.73 515.125 402.982 489.351 407.588 462.806C412.645 433.663 432.544 410.817 458.176 400.686C469.972 383.985 470.652 361.005 458.205 343.332L452.267 334.9C433.167 307.781 395.699 301.279 368.579 320.379L358.499 327.478C276.783 385.029 257.192 497.928 314.743 579.644L541.09 901.035C721.816 878.967 864.21 739.255 907.263 552.579Z" fill="#F8F8F8"/>
<path d="M2669.23 732.637H2565.25V234.481H2850.96V321.028H2669.23V449.485H2838.34V535.692H2669.23V732.637Z" fill="#F8F8F8"/>
<path d="M2894.54 732.637V234.481H3000.23V645.409H3202.41V732.637H2894.54Z" fill="#F8F8F8"/>
<path d="M3544.49 732.637H3257.42V234.481H3544.49V321.028H3363.11V430.404H3531.88V516.951H3363.11V645.409H3544.49V732.637Z" fill="#F8F8F8"/>
<path d="M4023.88 732.637H3903.19L3787.27 544.21L3671.35 732.637H3558.16L3723.51 475.722L3568.73 234.481H3685.33L3792.72 413.708L3898.08 234.481H4011.95L3855.46 481.515L4023.88 732.637Z" fill="#F8F8F8"/>
<path d="M1370.57 732.452C1216.18 732.452 1110.88 618.751 1110.88 472.266C1110.88 329.269 1220.45 220.452 1367.01 220.452C1431.76 220.452 1532.1 238.503 1558.4 331.362L1479.48 356.77C1470.38 327.452 1411.77 305.552 1369.15 305.552C1278.79 305.552 1207.64 369.029 1207.64 472.266C1207.64 569.226 1280.21 647.351 1371.99 647.351C1462.01 647.351 1518.42 588.888 1524.42 582.37C1524.71 582.056 1525.2 582.108 1525.46 582.449L1573.74 646.935C1573.92 647.179 1573.94 647.475 1573.74 647.704C1568.45 653.638 1495.87 732.452 1370.57 732.452Z" fill="#F8F8F8"/>
<path d="M2256.92 732.452H2166.88V464.13V375.622H2206.19C2254.06 375.622 2254.06 375.452 2254.06 375.452V424.642C2254.06 398.952 2295.38 367.452 2382.69 367.452C2463.44 367.452 2509.88 407.621 2509.88 499.533V635.019V732.452H2419.13V676.55V517.235C2419.13 475.023 2407.7 446.428 2361.96 446.428C2313.37 446.428 2276.93 475.704 2264.07 517.235C2259.06 531.532 2256.92 547.192 2256.92 563.532V732.452Z" fill="#F8F8F8"/>
<path d="M2019.88 394.452H2111.88V732.452H2019.88V394.452Z" fill="#F8F8F8"/>
<path d="M2008.88 271.952C2008.88 300.394 2031.94 323.452 2060.38 323.452C2088.83 323.452 2111.88 300.394 2111.88 271.952C2111.88 243.509 2088.83 220.452 2060.38 220.452C2031.94 220.452 2008.88 243.509 2008.88 271.952Z" fill="#F8F8F8"/>
<path fill-rule="evenodd" clip-rule="evenodd" d="M2060.38 234.06C2039.46 234.06 2022.49 251.025 2022.49 271.952C2022.49 292.878 2039.46 309.843 2060.38 309.843C2081.31 309.843 2098.27 292.878 2098.27 271.952C2098.27 251.025 2081.31 234.06 2060.38 234.06ZM2060.38 323.452C2031.94 323.452 2008.88 300.394 2008.88 271.952C2008.88 243.509 2031.94 220.452 2060.38 220.452C2088.83 220.452 2111.88 243.509 2111.88 271.952C2111.88 300.394 2088.83 323.452 2060.38 323.452Z" fill="#F8F8F8"/>
<path fill-rule="evenodd" clip-rule="evenodd" d="M1613.8 549.952C1613.8 649.532 1691.85 719.645 1791.04 719.645C1890.95 719.645 1968.97 649.503 1968.97 549.952C1968.97 451.053 1890.92 380.259 1791.04 380.259C1691.88 380.259 1613.8 451.024 1613.8 549.952ZM1675.21 549.952C1675.21 478.984 1727.67 428.465 1791.04 428.465C1855.05 428.465 1907.56 478.928 1907.56 549.952C1907.56 621.713 1854.99 671.439 1791.04 671.439C1727.72 671.439 1675.21 621.658 1675.21 549.952ZM1791.04 732.452C1685.4 732.452 1600.88 657.264 1600.88 549.952C1600.88 443.322 1685.4 367.452 1791.04 367.452C1897.37 367.452 1981.88 443.322 1981.88 549.952C1981.88 657.264 1897.37 732.452 1791.04 732.452ZM1791.04 441.272C1735.15 441.272 1688.12 485.701 1688.12 549.952C1688.12 614.886 1735.15 658.631 1791.04 658.631C1847.61 658.631 1894.64 614.886 1894.64 549.952C1894.64 485.701 1847.61 441.272 1791.04 441.272Z" fill="#F8F8F8"/>
<path d="M1600.88 549.952C1600.88 657.264 1685.4 732.452 1791.04 732.452C1897.37 732.452 1981.88 657.264 1981.88 549.952C1981.88 443.322 1897.37 367.452 1791.04 367.452C1685.4 367.452 1600.88 443.322 1600.88 549.952ZM1688.12 549.952C1688.12 485.701 1735.15 441.272 1791.04 441.272C1847.61 441.272 1894.64 485.701 1894.64 549.952C1894.64 614.886 1847.61 658.631 1791.04 658.631C1735.15 658.631 1688.12 614.886 1688.12 549.952Z" fill="#F8F8F8"/>
</svg>
