<svg width="953" height="953" viewBox="0 0 981 953" fill="none" xmlns="http://www.w3.org/2000/svg">
<path fill-rule="evenodd" clip-rule="evenodd" d="M74.6201 399.952C34.5877 630.66 184.537 850.784 405.638 900.016C409.65 900.896 413.677 901.71 417.689 902.463C451.074 908.724 471.453 872.367 452.243 844.354L382.445 746.8C255.505 696.096 176.903 561.976 201.206 421.918C223.757 291.956 341.278 218.648 397.22 198.239L555.894 423.541C570.674 444.527 574.426 469.972 568.346 492.988C563.239 518.305 546.855 538.635 525.372 549.624C511.999 566.462 510.67 590.729 523.678 609.2L529.616 617.631C548.716 644.751 586.184 651.252 613.304 632.153L623.384 625.054C705.101 567.503 724.691 454.604 667.14 372.887L440.793 51.4964C260.067 73.5646 117.673 213.276 74.6201 399.952Z" fill="#F8F8F8"/>
<path fill-rule="evenodd" clip-rule="evenodd" d="M907.263 552.579C947.295 321.872 797.346 101.747 576.245 52.5152C572.233 51.6354 568.206 50.8214 564.194 50.0688C530.809 43.8072 510.43 80.1645 529.64 108.178L599.438 205.732C726.379 256.435 804.98 390.556 780.677 530.614C758.126 660.575 640.605 733.884 584.664 754.293L428.984 533.243C411.73 515.125 402.982 489.351 407.588 462.806C412.645 433.663 432.544 410.817 458.176 400.686C469.972 383.985 470.652 361.005 458.205 343.332L452.267 334.9C433.167 307.781 395.699 301.279 368.579 320.379L358.499 327.478C276.783 385.029 257.192 497.928 314.743 579.644L541.09 901.035C721.816 878.967 864.21 739.255 907.263 552.579Z" fill="#F8F8F8"/>
</svg>