<svg width="262" height="32" viewBox="0 0 262 32" fill="none" xmlns="http://www.w3.org/2000/svg">
<path fill-rule="evenodd" clip-rule="evenodd" d="M102.51 14.423L98.6597 12.5568L98.6555 12.5484C95.8562 11.2648 94.6867 10.2726 94.6867 8.46128C94.6867 6.47685 96.3206 5.1933 98.6555 5.1933C101.518 5.1933 103.503 7.00462 104.495 9.33949L108.991 6.7724C107.417 3.03576 104.144 0 98.5415 0C92.9387 0 88.7925 3.85486 88.7925 8.52461C88.7925 13.4857 91.6551 15.5883 95.3326 17.2814L98.778 18.9154C101.577 20.199 102.747 21.3094 102.747 23.0025C102.747 25.3965 100.999 26.68 98.4866 26.68C94.9231 26.68 92.8204 24.0538 92.2969 21.5416L87.4498 24.2269C88.5011 28.314 91.7142 31.9915 98.3093 31.9915C104.904 31.9915 108.991 28.2591 108.991 23.0616C108.991 18.451 106.188 16.1752 102.51 14.423ZM70.9874 32C61.6479 32 54.9347 25.1685 54.9347 16.0063C54.9347 6.84417 61.6479 0.0126657 70.8734 0.0126657C80.0989 0.0126657 85.7018 6.78506 85.7018 16.0063C85.7018 16.7072 85.6427 17.6994 85.5244 18.2821H61.5297C62.3488 23.2432 65.9081 26.338 71.0465 26.338C74.7832 26.338 77.4685 24.9954 79.6303 22.251L83.3078 26.0467C80.3311 30.0156 76.1258 32 70.9917 32H70.9874ZM61.5297 13.7264H79.4529C78.9843 8.93839 75.5981 5.55218 70.7552 5.55218C65.9124 5.55218 62.3488 8.76528 61.5297 13.7264ZM30.121 0.941521H20.0806L10.0404 10.9818V0.941525H0V10.9819H10.0404L30.121 10.9819V0.941521ZM20.081 21.0222H30.1213V31.0626H20.081V21.0222ZM0 31.0627V21.0224L10.0404 10.982V31.0627H0ZM245.44 29.3484C245.44 28.352 246.145 27.6426 247.138 27.6426C248.13 27.6426 248.843 28.352 248.843 29.3484C248.843 30.3448 248.134 31.0626 247.138 31.0626C246.141 31.0626 245.44 30.3491 245.44 29.3484ZM248.463 29.3484C248.463 28.5673 247.906 28.0058 247.138 28.0058C246.369 28.0058 245.82 28.5673 245.82 29.3484C245.82 30.1295 246.373 30.6953 247.138 30.6953C247.902 30.6953 248.463 30.1295 248.463 29.3484ZM247.653 29.0233C247.543 28.8544 247.378 28.7404 247.155 28.7404C246.834 28.7404 246.61 28.9895 246.61 29.34C246.61 29.6904 246.838 29.9353 247.155 29.9353C247.378 29.9353 247.547 29.8213 247.657 29.6524L247.927 29.872C247.767 30.1422 247.492 30.2984 247.155 30.2984C246.585 30.2984 246.209 29.9015 246.209 29.3484C246.209 28.7953 246.606 28.3942 247.155 28.3942C247.488 28.3942 247.771 28.5462 247.927 28.8206L247.653 29.0317V29.0233ZM54.1158 6.54437V0.941525H40.1657V31.0626H46.4695V6.54437H54.1158ZM127.059 32C117.719 32 111.006 25.1685 111.006 16.0063C111.006 6.84417 117.719 0.0126657 126.945 0.0126657C136.17 0.0126657 141.773 6.78506 141.773 16.0063C141.773 16.7072 141.714 17.6994 141.596 18.2821H117.601C118.42 23.2432 121.98 26.338 127.118 26.338C130.855 26.338 133.54 24.9954 135.702 22.251L139.379 26.0467C136.403 30.0156 132.197 32 127.063 32H127.059ZM117.601 13.7264H135.524C135.056 8.93839 131.67 5.55218 126.827 5.55218C121.984 5.55218 118.42 8.76528 117.601 13.7264ZM159.122 6.54437V0.941525H145.172V31.0626H151.476V6.54437H159.122ZM171.991 31.0626L161.541 0.941525H168.313L176.078 25.5189H176.31L184.075 0.941525H190.788L180.397 31.0626H171.991ZM206.026 0.00852273C196.805 0.00852273 190.033 6.7767 190.033 16.0022C190.033 25.1643 196.805 31.9959 206.026 31.9959C215.248 31.9959 222.079 25.2235 222.079 16.0022C222.079 6.78092 215.248 0.00852273 206.026 0.00852273ZM206.031 5.55226C211.693 5.55226 215.661 9.87157 215.661 15.9431C215.661 21.9555 211.633 26.3339 206.031 26.3339C200.428 26.3339 196.4 22.0146 196.4 15.9431C196.4 9.87157 200.369 5.55226 206.031 5.55226ZM224.984 31.0626V0.941525H231.288V31.0626H224.984ZM248.844 6.54437V0.941525H234.893V31.0626H241.197V6.54437H248.844Z" fill="white"/>
</svg>
