<svg width="400" height="400" viewBox="0 0 400 400" fill="none" xmlns="http://www.w3.org/2000/svg">
<path d="M156.9 219.478V186.923H144.01V177.51H181.602V186.923H168.771V219.478H156.9Z" fill="#73F36C"/>
<path d="M198.511 220.018C195.873 220.018 193.494 219.498 191.376 218.459C189.297 217.42 187.659 215.801 186.46 213.603C185.3 211.364 184.721 208.546 184.721 205.149V186.983H196.112V203.29C196.112 205.809 196.572 207.607 197.491 208.686C198.451 209.766 199.79 210.305 201.508 210.305C202.628 210.305 203.647 210.045 204.566 209.526C205.485 209.006 206.225 208.187 206.784 207.068C207.344 205.908 207.624 204.43 207.624 202.631V186.983H219.015V219.478H208.163V210.305L210.262 212.883C209.143 215.281 207.524 217.08 205.405 218.279C203.287 219.438 200.989 220.018 198.511 220.018Z" fill="#73F36C"/>
<path d="M226.353 219.478V186.983H237.205V196.456L235.586 193.758C236.545 191.319 238.104 189.501 240.262 188.302C242.421 187.063 245.039 186.443 248.117 186.443V196.695C247.597 196.615 247.137 196.575 246.738 196.575C246.378 196.535 245.978 196.515 245.539 196.515C243.22 196.515 241.342 197.155 239.903 198.434C238.464 199.673 237.744 201.712 237.744 204.549V219.478H226.353Z" fill="#73F36C"/>
<path d="M268.322 220.018C264.165 220.018 260.928 218.999 258.609 216.96C256.291 214.882 255.132 211.764 255.132 207.607V179.728H266.523V207.487C266.523 208.646 266.843 209.566 267.483 210.245C268.122 210.885 268.942 211.205 269.941 211.205C271.3 211.205 272.459 210.865 273.418 210.185L276.236 218.159C275.277 218.799 274.098 219.258 272.699 219.538C271.3 219.858 269.841 220.018 268.322 220.018ZM250.395 196.695V188.182H273.958V196.695H250.395Z" fill="#73F36C"/>
<path d="M280.629 219.478V174.992H292.02V219.478H280.629Z" fill="#73F36C"/>
<path d="M316.451 220.018C312.614 220.018 309.256 219.298 306.378 217.86C303.54 216.381 301.322 214.382 299.723 211.864C298.164 209.306 297.385 206.408 297.385 203.17C297.385 199.933 298.144 197.055 299.663 194.537C301.222 191.979 303.361 190 306.078 188.601C308.796 187.162 311.854 186.443 315.252 186.443C318.449 186.443 321.367 187.102 324.005 188.421C326.643 189.701 328.742 191.599 330.3 194.117C331.859 196.635 332.639 199.693 332.639 203.29C332.639 203.69 332.619 204.15 332.579 204.669C332.539 205.189 332.499 205.669 332.459 206.108H306.738V200.113H326.403L322.087 201.792C322.127 200.313 321.847 199.034 321.247 197.954C320.688 196.875 319.888 196.036 318.849 195.436C317.85 194.837 316.671 194.537 315.312 194.537C313.953 194.537 312.754 194.837 311.714 195.436C310.715 196.036 309.936 196.895 309.376 198.014C308.816 199.094 308.537 200.373 308.537 201.851V203.59C308.537 205.189 308.856 206.568 309.496 207.727C310.175 208.886 311.135 209.786 312.374 210.425C313.613 211.025 315.092 211.324 316.81 211.324C318.409 211.324 319.768 211.105 320.887 210.665C322.047 210.185 323.186 209.466 324.305 208.507L330.3 214.742C328.742 216.461 326.823 217.78 324.545 218.699C322.266 219.578 319.568 220.018 316.451 220.018Z" fill="#73F36C"/>
<path d="M81.74 180.951C84.7832 179.28 88.2781 178.33 91.9949 178.33C95.9889 178.33 99.7265 179.427 102.923 181.336C102.824 175.568 98.1166 170.923 92.3247 170.923C86.6623 170.923 82.037 175.362 81.74 180.951Z" fill="#73F36C"/>
<path d="M113.126 202.663C113.263 201.685 113.334 200.685 113.334 199.669C113.334 193.17 110.429 187.35 105.846 183.436C106.002 183.328 106.167 183.234 106.34 183.153C109.314 181.77 113.728 184.956 116.199 190.268C118.669 195.581 118.261 201.009 115.286 202.392C114.625 202.699 113.892 202.781 113.126 202.663Z" fill="#73F36C"/>
<path d="M98.7111 219.93C104.966 217.857 109.938 212.969 112.125 206.767C112.915 209.178 112.54 212.737 110.908 216.246C108.437 221.558 104.023 224.744 101.049 223.361C99.8355 222.796 99.0491 221.558 98.7111 219.93Z" fill="#73F36C"/>
<path d="M72.0206 207.195C74.3142 213.279 79.3084 218.04 85.5418 220.015C85.1934 221.597 84.4141 222.798 83.2241 223.351C80.2498 224.734 75.8359 221.549 73.3654 216.237C71.8296 212.934 71.4064 209.587 72.0206 207.195Z" fill="#73F36C"/>
<path d="M78.2597 183.337C73.6101 187.251 70.6557 193.115 70.6557 199.669C70.6557 200.7 70.7288 201.715 70.8703 202.707C70.2043 202.767 69.5681 202.671 68.9869 202.401C66.0126 201.018 65.6041 195.59 68.0746 190.278C70.5451 184.965 74.959 181.78 77.9333 183.163C78.0458 183.215 78.1546 183.273 78.2597 183.337Z" fill="#73F36C"/>
<path d="M87.4994 208.659C87.9289 208.068 88.6153 207.718 89.3458 207.718L94.9976 207.718C95.7281 207.718 96.4144 208.068 96.8439 208.659L100.369 213.508C101.135 214.563 100.871 216.06 99.7105 216.654C95.2829 218.921 90.5935 219.213 84.8579 216.61C83.6131 216.045 83.2732 214.473 84.0769 213.367L87.4994 208.659Z" fill="#73F36C"/>
<path d="M99.3677 206.671C98.9347 206.078 98.8132 205.313 99.0411 204.616L100.812 199.196C101.038 198.501 101.584 197.957 102.279 197.733L108.015 195.879C109.284 195.469 110.646 196.231 110.776 197.559C110.835 198.159 110.865 198.768 110.865 199.384C110.865 202.859 110.865 204.395 108.356 208.708C107.717 209.808 106.966 210.835 106.122 211.777C105.233 212.767 103.687 212.583 102.901 211.508L99.3677 206.671Z" fill="#73F36C"/>
<path d="M107.068 193.094C108.335 192.68 108.989 191.264 108.318 190.113C107.849 189.308 107.322 188.542 106.744 187.82C106.655 187.709 106.577 187.591 106.501 187.472C105.378 185.736 101.234 182.759 99.3237 182.2C99.205 182.166 99.0867 182.13 98.9716 182.085C98.0702 181.731 97.1349 181.445 96.1719 181.233C94.8679 180.947 93.7214 182.01 93.7213 183.345L93.7209 189.4C93.7209 190.128 94.0687 190.813 94.657 191.243L99.2996 194.635C99.8924 195.068 100.657 195.189 101.355 194.961L107.068 193.094Z" fill="#73F36C"/>
<path d="M78.2216 211.777C77.3767 210.835 76.6265 209.808 75.9868 208.708C74.2157 205.846 73.4775 202.678 73.4775 199.384C73.4775 198.768 73.5077 198.159 73.5666 197.559C73.6969 196.231 75.0589 195.469 76.328 195.879L82.0636 197.732C82.7589 197.957 83.3046 198.501 83.5314 199.196L85.3018 204.616C85.5296 205.313 85.4081 206.078 84.9752 206.671L81.4417 211.508C80.6566 212.583 79.1105 212.767 78.2216 211.777Z" fill="#73F36C"/>
<path d="M82.9885 194.961C83.6862 195.189 84.4511 195.068 85.0438 194.635L89.6863 191.243C90.2746 190.813 90.6224 190.128 90.6223 189.4L90.6218 183.345C90.6217 182.01 89.4756 180.958 88.176 181.264C87.1592 181.504 86.1702 181.818 85.1993 182.154C82.0477 183.242 79.1729 185.899 77.7337 187.655C77.1019 188.425 76.5302 189.247 76.0253 190.113C75.3542 191.264 76.008 192.68 77.2749 193.094L82.9885 194.961Z" fill="#73F36C"/>
<path d="M90.1989 204.619C89.2066 204.619 88.3279 203.978 88.0252 203.033L86.7842 199.158C86.4855 198.225 86.8153 197.206 87.6038 196.625L90.8172 194.256C91.6224 193.663 92.7202 193.663 93.5254 194.256L96.7388 196.625C97.5273 197.206 97.8571 198.225 97.5584 199.158L96.3174 203.033C96.0147 203.978 95.136 204.619 94.1436 204.619H90.1989Z" fill="#73F36C"/>
</svg>
