<svg width="400" height="400" viewBox="0 0 400 400" fill="none" xmlns="http://www.w3.org/2000/svg">
<path d="M156.9 220.478V187.923H144.01V178.51H181.602V187.923H168.771V220.478H156.9Z" fill="#F9F9F9"/>
<path d="M198.511 221.018C195.873 221.018 193.494 220.498 191.376 219.459C189.297 218.42 187.659 216.801 186.46 214.603C185.3 212.364 184.721 209.546 184.721 206.149V187.983H196.112V204.29C196.112 206.809 196.572 208.607 197.491 209.686C198.451 210.766 199.79 211.305 201.508 211.305C202.628 211.305 203.647 211.045 204.566 210.526C205.485 210.006 206.225 209.187 206.784 208.068C207.344 206.908 207.624 205.43 207.624 203.631V187.983H219.015V220.478H208.163V211.305L210.262 213.883C209.143 216.281 207.524 218.08 205.405 219.279C203.287 220.438 200.989 221.018 198.511 221.018Z" fill="#F9F9F9"/>
<path d="M226.353 220.478V187.983H237.205V197.456L235.586 194.758C236.545 192.319 238.104 190.501 240.262 189.302C242.421 188.063 245.039 187.443 248.117 187.443V197.695C247.597 197.615 247.137 197.575 246.738 197.575C246.378 197.535 245.978 197.515 245.539 197.515C243.22 197.515 241.342 198.155 239.903 199.434C238.464 200.673 237.744 202.712 237.744 205.549V220.478H226.353Z" fill="#F9F9F9"/>
<path d="M268.322 221.018C264.165 221.018 260.928 219.999 258.609 217.96C256.291 215.882 255.132 212.764 255.132 208.607V180.728H266.523V208.487C266.523 209.646 266.843 210.566 267.483 211.245C268.122 211.885 268.942 212.205 269.941 212.205C271.3 212.205 272.459 211.865 273.418 211.185L276.236 219.159C275.277 219.799 274.098 220.258 272.699 220.538C271.3 220.858 269.841 221.018 268.322 221.018ZM250.395 197.695V189.182H273.958V197.695H250.395Z" fill="#F9F9F9"/>
<path d="M280.629 220.478V175.992H292.02V220.478H280.629Z" fill="#F9F9F9"/>
<path d="M316.451 221.018C312.614 221.018 309.256 220.298 306.378 218.86C303.54 217.381 301.322 215.382 299.723 212.864C298.164 210.306 297.385 207.408 297.385 204.17C297.385 200.933 298.144 198.055 299.663 195.537C301.222 192.979 303.361 191 306.078 189.601C308.796 188.162 311.854 187.443 315.252 187.443C318.449 187.443 321.367 188.102 324.005 189.421C326.643 190.701 328.742 192.599 330.3 195.117C331.859 197.635 332.639 200.693 332.639 204.29C332.639 204.69 332.619 205.15 332.579 205.669C332.539 206.189 332.499 206.669 332.459 207.108H306.738V201.113H326.403L322.087 202.792C322.127 201.313 321.847 200.034 321.247 198.954C320.688 197.875 319.888 197.036 318.849 196.436C317.85 195.837 316.671 195.537 315.312 195.537C313.953 195.537 312.754 195.837 311.714 196.436C310.715 197.036 309.936 197.895 309.376 199.014C308.816 200.094 308.537 201.373 308.537 202.851V204.59C308.537 206.189 308.856 207.568 309.496 208.727C310.175 209.886 311.135 210.786 312.374 211.425C313.613 212.025 315.092 212.324 316.81 212.324C318.409 212.324 319.768 212.105 320.887 211.665C322.047 211.185 323.186 210.466 324.305 209.507L330.3 215.742C328.742 217.461 326.823 218.78 324.545 219.699C322.266 220.578 319.568 221.018 316.451 221.018Z" fill="#F9F9F9"/>
<path d="M81.74 181.951C84.7832 180.28 88.2781 179.33 91.9949 179.33C95.9889 179.33 99.7265 180.427 102.923 182.336C102.824 176.568 98.1166 171.923 92.3247 171.923C86.6623 171.923 82.037 176.362 81.74 181.951Z" fill="#F9F9F9"/>
<path d="M113.126 203.663C113.263 202.685 113.334 201.685 113.334 200.669C113.334 194.17 110.429 188.35 105.846 184.436C106.002 184.328 106.167 184.234 106.34 184.153C109.314 182.77 113.728 185.956 116.199 191.268C118.669 196.581 118.261 202.009 115.286 203.392C114.625 203.699 113.892 203.781 113.126 203.663Z" fill="#F9F9F9"/>
<path d="M98.7111 220.93C104.966 218.857 109.938 213.969 112.125 207.767C112.915 210.178 112.54 213.737 110.908 217.246C108.437 222.558 104.023 225.744 101.049 224.361C99.8355 223.796 99.0491 222.558 98.7111 220.93Z" fill="#F9F9F9"/>
<path d="M72.0206 208.195C74.3142 214.279 79.3084 219.04 85.5418 221.015C85.1934 222.597 84.4141 223.798 83.2241 224.351C80.2498 225.734 75.8359 222.549 73.3654 217.237C71.8296 213.934 71.4064 210.587 72.0206 208.195Z" fill="#F9F9F9"/>
<path d="M78.2597 184.337C73.6101 188.251 70.6557 194.115 70.6557 200.669C70.6557 201.7 70.7288 202.715 70.8703 203.707C70.2043 203.767 69.5681 203.671 68.9869 203.401C66.0126 202.018 65.6041 196.59 68.0746 191.278C70.5451 185.965 74.959 182.78 77.9333 184.163C78.0458 184.215 78.1546 184.273 78.2597 184.337Z" fill="#F9F9F9"/>
<path d="M87.4994 209.659C87.9289 209.068 88.6153 208.718 89.3458 208.718L94.9976 208.718C95.7281 208.718 96.4144 209.068 96.8439 209.659L100.369 214.508C101.135 215.563 100.871 217.06 99.7105 217.654C95.2829 219.921 90.5935 220.213 84.8579 217.61C83.6131 217.045 83.2732 215.473 84.0769 214.367L87.4994 209.659Z" fill="#F9F9F9"/>
<path d="M99.3677 207.671C98.9347 207.078 98.8132 206.313 99.0411 205.616L100.812 200.196C101.038 199.501 101.584 198.957 102.279 198.733L108.015 196.879C109.284 196.469 110.646 197.232 110.776 198.559C110.835 199.159 110.865 199.768 110.865 200.384C110.865 203.859 110.865 205.395 108.356 209.708C107.717 210.808 106.966 211.835 106.122 212.777C105.233 213.767 103.687 213.583 102.901 212.508L99.3677 207.671Z" fill="#F9F9F9"/>
<path d="M107.068 194.094C108.335 193.68 108.989 192.264 108.318 191.113C107.849 190.308 107.322 189.542 106.744 188.82C106.655 188.709 106.577 188.591 106.501 188.472C105.378 186.736 101.234 183.759 99.3237 183.2C99.205 183.166 99.0867 183.13 98.9716 183.085C98.0702 182.731 97.1349 182.445 96.1719 182.233C94.8679 181.947 93.7214 183.01 93.7213 184.345L93.7209 190.4C93.7209 191.128 94.0687 191.813 94.657 192.243L99.2996 195.635C99.8924 196.068 100.657 196.189 101.355 195.961L107.068 194.094Z" fill="#F9F9F9"/>
<path d="M78.2216 212.777C77.3767 211.835 76.6265 210.808 75.9868 209.708C74.2157 206.846 73.4775 203.678 73.4775 200.384C73.4775 199.768 73.5077 199.159 73.5666 198.559C73.6969 197.231 75.0589 196.469 76.328 196.879L82.0636 198.732C82.7589 198.957 83.3046 199.501 83.5314 200.196L85.3018 205.616C85.5296 206.313 85.4081 207.078 84.9752 207.671L81.4417 212.508C80.6566 213.583 79.1105 213.767 78.2216 212.777Z" fill="#F9F9F9"/>
<path d="M82.9885 195.961C83.6862 196.189 84.4511 196.068 85.0438 195.635L89.6863 192.243C90.2746 191.813 90.6224 191.129 90.6223 190.4L90.6218 184.345C90.6217 183.01 89.4756 181.958 88.176 182.264C87.1592 182.504 86.1702 182.818 85.1993 183.154C82.0477 184.242 79.1729 186.899 77.7337 188.655C77.1019 189.425 76.5302 190.247 76.0253 191.113C75.3542 192.264 76.008 193.68 77.2749 194.094L82.9885 195.961Z" fill="#F9F9F9"/>
<path d="M90.1989 205.619C89.2066 205.619 88.3279 204.978 88.0252 204.033L86.7842 200.158C86.4855 199.225 86.8153 198.206 87.6038 197.625L90.8172 195.256C91.6224 194.663 92.7202 194.663 93.5254 195.256L96.7388 197.625C97.5273 198.206 97.8571 199.225 97.5584 200.158L96.3174 204.033C96.0147 204.978 95.136 205.619 94.1436 205.619H90.1989Z" fill="#F9F9F9"/>
</svg>
