<svg width="400" height="400" viewBox="0 0 400 400" fill="none" xmlns="http://www.w3.org/2000/svg">
<rect width="400" height="400" fill="#141514"/>
<path d="M149.389 120.817C164.203 112.684 181.216 108.058 199.31 108.058C218.752 108.058 236.947 113.399 252.508 122.694C252.024 94.6143 229.111 72 200.915 72C173.351 72 150.834 93.6133 149.389 120.817Z" fill="#73F36C"/>
<path d="M302.176 226.516C302.844 221.753 303.19 216.886 303.19 211.938C303.19 180.301 289.048 151.967 266.739 132.914C267.498 132.392 268.299 131.933 269.143 131.541C283.622 124.807 305.109 140.314 317.135 166.175C329.161 192.037 327.173 218.46 312.694 225.193C309.474 226.69 305.908 227.088 302.176 226.516Z" fill="#73F36C"/>
<path d="M232.005 310.569C262.456 300.48 286.66 276.684 297.306 246.491C301.152 258.227 299.322 275.554 291.379 292.636C279.352 318.497 257.865 334.004 243.386 327.271C237.478 324.523 233.65 318.497 232.005 310.569Z" fill="#73F36C"/>
<path d="M102.074 248.574C113.24 278.194 137.551 301.369 167.896 310.984C166.2 318.685 162.406 324.531 156.613 327.225C142.134 333.958 120.647 318.452 108.621 292.59C101.144 276.513 99.0842 260.219 102.074 248.574Z" fill="#73F36C"/>
<path d="M132.446 132.434C109.812 151.49 95.4296 180.035 95.4296 211.938C95.4296 216.959 95.7858 221.897 96.4743 226.727C93.2325 227.021 90.1354 226.555 87.3059 225.239C72.8268 218.506 70.8385 192.083 82.8649 166.221C94.8913 140.36 116.378 124.854 130.857 131.587C131.405 131.842 131.935 132.124 132.446 132.434Z" fill="#73F36C"/>
<path d="M177.426 255.7C179.516 252.824 182.858 251.122 186.414 251.122L213.927 251.122C217.483 251.122 220.824 252.824 222.915 255.701L240.075 279.31C243.806 284.443 242.518 291.729 236.87 294.621C215.316 305.657 192.488 307.08 164.567 294.406C158.507 291.655 156.852 284.006 160.765 278.623L177.426 255.7Z" fill="#73F36C"/>
<path d="M235.201 246.023C233.093 243.138 232.502 239.416 233.611 236.019L242.23 209.635C243.334 206.254 245.99 203.606 249.375 202.512L277.296 193.49C283.474 191.494 290.105 195.205 290.738 201.667C291.025 204.59 291.172 207.553 291.172 210.551C291.172 227.469 291.172 234.945 278.957 255.942C275.843 261.295 272.191 266.295 268.079 270.879C263.752 275.703 256.225 274.805 252.403 269.572L235.201 246.023Z" fill="#73F36C"/>
<path d="M272.688 179.932C278.855 177.917 282.038 171.025 278.771 165.42C276.488 161.503 273.925 157.772 271.107 154.256C270.676 153.718 270.298 153.144 269.924 152.565C264.458 144.112 244.285 129.62 234.987 126.901C234.409 126.732 233.833 126.558 233.272 126.338C228.885 124.614 224.332 123.223 219.644 122.194C213.296 120.801 207.714 125.972 207.714 132.471L207.712 161.948C207.712 165.494 209.405 168.828 212.269 170.92L234.87 187.431C237.755 189.539 241.478 190.13 244.875 189.02L272.688 179.932Z" fill="#73F36C"/>
<path d="M132.261 270.879C128.148 266.295 124.496 261.294 121.382 255.941C112.76 242.011 109.166 226.585 109.166 210.549C109.166 207.552 109.314 204.589 109.6 201.666C110.234 195.204 116.865 191.493 123.043 193.49L150.964 202.512C154.348 203.605 157.005 206.254 158.109 209.635L166.727 236.02C167.837 239.416 167.245 243.138 165.138 246.024L147.936 269.572C144.114 274.805 136.588 275.703 132.261 270.879Z" fill="#73F36C"/>
<path d="M155.466 189.02C158.863 190.13 162.586 189.539 165.472 187.431L188.071 170.921C190.935 168.829 192.628 165.495 192.628 161.948L192.626 132.473C192.625 125.974 187.046 120.851 180.719 122.342C175.769 123.509 170.955 125.041 166.229 126.673C150.886 131.972 136.892 144.907 129.886 153.452C126.81 157.202 124.027 161.203 121.569 165.419C118.302 171.025 121.485 177.916 127.652 179.931L155.466 189.02Z" fill="#73F36C"/>
<path d="M190.567 236.038C185.736 236.038 181.459 232.916 179.985 228.316L173.944 209.452C172.49 204.911 174.095 199.948 177.934 197.119L193.577 185.59C197.496 182.702 202.841 182.702 206.76 185.59L222.403 197.119C226.242 199.948 227.847 204.911 226.393 209.452L220.352 228.316C218.878 232.916 214.601 236.038 209.77 236.038H190.567Z" fill="#73F36C"/>
</svg>
