<svg width="295" height="56" viewBox="0 0 295 56" fill="none" xmlns="http://www.w3.org/2000/svg">
<path fill-rule="evenodd" clip-rule="evenodd" d="M288.367 47.9567C285.939 47.9567 284.049 47.3492 282.697 46.1342C281.346 44.901 280.67 43.0694 280.67 40.6394L280.616 26.5216C280.616 25.3233 281.304 24.2811 282.506 23.9919H277.082V17.8714H280.668L282.122 7.96338H288.121V17.8714H294.914V23.9919H288.121V38.4905C288.121 39.6511 288.313 40.4581 288.696 40.9114C289.098 41.3648 289.837 41.5915 290.915 41.5915C291.773 41.5915 292.531 41.5824 293.188 41.5643C293.846 41.5461 294.448 41.5099 294.996 41.4555V47.5487C294.211 47.7663 293.206 47.8842 291.983 47.9023C290.76 47.9386 289.554 47.9567 288.367 47.9567ZM263.814 48.0348C261.385 48.0348 259.267 47.6812 257.459 46.974C255.652 46.2667 254.227 45.1968 253.186 43.7641C252.164 42.3134 251.598 40.4637 251.488 38.215H258.829C259.03 39.702 259.569 40.781 260.445 41.452C261.322 42.1048 262.454 42.4313 263.842 42.4313C264.682 42.4313 265.458 42.3406 266.17 42.1592C266.882 41.9779 267.448 41.6696 267.868 41.2344C268.306 40.7991 268.525 40.2007 268.525 39.4391C268.525 38.8587 268.389 38.3872 268.115 38.0246C267.841 37.6437 267.43 37.3264 266.882 37.0725C266.352 36.8005 265.695 36.5466 264.91 36.3108C264.125 36.0751 263.221 35.8121 262.198 35.522C260.39 34.9961 258.729 34.3704 257.213 33.6451C255.697 32.9015 254.483 31.9223 253.57 30.7073C252.657 29.4922 252.2 27.9055 252.2 25.9469C252.2 23.1361 253.241 21.0053 255.323 19.5545C257.405 18.0856 260.116 17.3511 263.458 17.3511C265.503 17.3511 267.348 17.6322 268.991 18.1944C270.635 18.7566 271.986 19.7268 273.045 21.105C274.122 22.4832 274.807 24.3964 275.099 26.8446L267.813 26.8174C267.594 25.693 267.247 24.8498 266.772 24.2876C266.316 23.7073 265.786 23.3174 265.184 23.1179C264.599 22.9185 263.979 22.8187 263.321 22.8187C262.591 22.8187 261.933 22.9366 261.349 23.1723C260.783 23.39 260.345 23.7164 260.034 24.1516C259.724 24.5868 259.569 25.1127 259.569 25.7293C259.569 26.491 259.788 27.1257 260.226 27.6334C260.682 28.1412 261.367 28.5855 262.28 28.9663C263.212 29.329 264.371 29.7189 265.759 30.136C266.782 30.408 267.877 30.7254 269.046 31.0881C270.215 31.4508 271.319 31.9404 272.36 32.557C273.401 33.1554 274.25 33.9715 274.908 35.0051C275.583 36.0207 275.921 37.3445 275.921 38.9766C275.921 41.8237 274.825 44.0452 272.634 45.6411C270.443 47.2369 267.503 48.0348 263.814 48.0348ZM228.715 46.2146C230.834 47.3933 233.372 47.9827 236.33 47.9827C238.722 47.9827 240.813 47.6019 242.603 46.8402C244.41 46.0786 245.844 44.9814 246.903 43.5488C247.98 42.098 248.601 40.3843 248.766 38.4077H241.507C241.288 39.4232 240.749 40.2846 239.891 40.9918C239.033 41.6991 237.782 42.0527 236.138 42.0527C234.276 42.0527 232.76 41.418 231.591 40.1486C230.441 38.8792 229.774 36.8844 229.592 34.1642H249.259C249.295 33.5657 249.323 33.0489 249.341 32.6137C249.377 32.1784 249.396 31.716 249.396 31.2264C249.396 28.216 248.894 25.6772 247.889 23.6098C246.885 21.5244 245.415 19.9557 243.479 18.9039C241.562 17.834 239.215 17.299 236.44 17.299C233.591 17.299 231.089 17.8975 228.934 19.0943C226.798 20.2912 225.127 22.0321 223.922 24.3171C222.735 26.6021 222.141 29.3948 222.141 32.6953C222.141 35.9595 222.708 38.7341 223.84 41.019C224.972 43.2859 226.597 45.0177 228.715 46.2146ZM242.027 29.5671H232.824C231.838 29.5671 231.08 29.7393 230.551 30.0839C230.021 30.4285 229.683 31.0722 229.537 32.0152C229.628 29.2769 230.194 27.1552 231.235 25.65C232.294 24.1267 233.929 23.365 236.138 23.365C238.147 23.365 239.608 23.8909 240.521 24.9427C241.452 25.9945 241.954 27.536 242.027 29.5671ZM187.043 47.5731V8.02163H196.356L208.737 31.7144L212.051 40.011H212.27L211.175 30.4904V8.02163H218.68V47.5731H209.312L197.014 23.9619L193.836 16.1822H193.562L194.548 26.7365V47.5731H187.043ZM159.464 45.9974C161.181 47.285 163.262 47.9287 165.709 47.9287C167.061 47.9287 168.202 47.7202 169.133 47.3031C170.083 46.8679 170.868 46.3057 171.489 45.6166C172.11 44.9093 172.603 44.1295 172.968 43.2772C173.333 42.4249 173.598 41.5816 173.762 40.7474L173.785 40.6502L173.79 47.5751H181.295V8.01397H173.762L173.772 21.8389C173.564 21.3443 173.287 20.8467 172.941 20.3461C172.338 19.4756 171.48 18.7593 170.366 18.1971C169.252 17.6168 167.837 17.3267 166.12 17.3267C163.929 17.3267 161.938 17.9161 160.149 19.0948C158.359 20.2735 156.935 21.9963 155.876 24.2632C154.817 26.53 154.287 29.3046 154.287 32.5869C154.287 35.6154 154.725 38.2811 155.602 40.5842C156.478 42.8873 157.766 44.6917 159.464 45.9974ZM173.775 26.6144L173.784 38.7478L173.762 38.7073C173.671 39.0881 173.388 39.5234 172.913 40.013C172.457 40.4845 171.827 40.9016 171.023 41.2643C170.238 41.6088 169.288 41.7811 168.174 41.7811C166.221 41.7811 164.687 41.0104 163.573 39.469C162.459 37.9094 161.902 35.6607 161.902 32.7229C161.902 29.5494 162.495 27.2282 163.682 25.7593C164.869 24.2904 166.458 23.5559 168.448 23.5559C169.526 23.5559 170.421 23.6919 171.133 23.9639C171.863 24.236 172.438 24.6077 172.858 25.0792C173.297 25.5326 173.598 26.0494 173.762 26.6297L173.775 26.6144ZM143.035 47.5738V8.02163H150.623V47.5738H143.035ZM119.036 46.2146C121.154 47.3933 123.693 47.9827 126.651 47.9827C129.043 47.9827 131.134 47.6019 132.923 46.8402C134.731 46.0786 136.165 44.9814 137.224 43.5488C138.301 42.098 138.922 40.3843 139.087 38.4077H131.828C131.609 39.4232 131.07 40.2846 130.212 40.9918C129.353 41.6991 128.103 42.0527 126.459 42.0527C124.597 42.0527 123.081 41.418 121.912 40.1486C120.762 38.8792 120.095 36.8844 119.913 34.1642H139.58C139.616 33.5657 139.643 33.0489 139.662 32.6137C139.698 32.1784 139.717 31.716 139.717 31.2264C139.717 28.216 139.214 25.6772 138.21 23.6098C137.206 21.5244 135.736 19.9557 133.8 18.9039C131.883 17.834 129.536 17.299 126.76 17.299C123.912 17.299 121.41 17.8975 119.255 19.0943C117.119 20.2912 115.448 22.0321 114.243 24.3171C113.056 26.6021 112.462 29.3948 112.462 32.6953C112.462 35.9595 113.028 38.7341 114.16 41.019C115.293 43.2859 116.918 45.0177 119.036 46.2146ZM132.348 29.5671H123.145C122.159 29.5671 121.401 29.7393 120.871 30.0839C120.342 30.4285 120.004 31.0722 119.858 32.0152C119.949 29.2769 120.515 27.1552 121.556 25.65C122.615 24.1267 124.25 23.365 126.459 23.365C128.468 23.365 129.929 23.8909 130.842 24.9427C131.773 25.9945 132.275 27.536 132.348 29.5671ZM89.1639 47.5731V34.9244L101.012 11.415C101.233 11.8673 101.528 12.2778 101.899 12.6463C102.812 13.553 103.926 14.0064 105.241 14.0064C106.538 14.0064 107.642 13.553 108.555 12.6463C109.487 11.7396 109.952 10.5789 109.952 9.16445C109.952 8.76225 109.915 8.38131 109.839 8.02163H102.723H100.641H93.93L89.0269 19.2832L85.4661 27.2533H85.0552L81.5491 19.256L76.6461 8.02163H67.8535L81.4122 34.8705V47.5731H89.1639ZM101.434 47.5735V17.869H108.994L108.966 47.5735H101.434Z" fill="#0A2845"/>
<path fill-rule="evenodd" clip-rule="evenodd" d="M24.2624 0.67243C24.2624 0.394093 24.491 0.168457 24.773 0.168457H31.4117C31.6937 0.168457 31.9223 0.394093 31.9223 0.67243V13.8167C31.9223 14.3178 32.5828 14.5118 32.8605 14.0923L40.3987 2.7044C40.5566 2.46592 40.8832 2.40386 41.1195 2.56745L46.5539 6.32961C46.7794 6.48573 46.8388 6.79022 46.6881 7.01782L40.3384 16.6102C40.1165 16.9454 40.3602 17.3898 40.766 17.3898L55.6682 17.3898C55.9503 17.3898 56.1789 17.6155 56.1789 17.8938V24.4454C56.1789 24.7238 55.9503 24.9494 55.6682 24.9494H49.722C45.5509 24.9494 41.8658 22.5214 38.2324 20.1275C36.7772 19.1687 35.3304 18.2154 33.8639 17.4258C32.1495 16.5026 30.183 15.9779 28.0924 15.9779C26.0018 15.9779 24.0354 16.5026 22.321 17.4258C20.8545 18.2154 19.4076 19.1687 17.9525 20.1275C14.3191 22.5214 10.634 24.9494 6.46288 24.9494H0.516523C0.234491 24.9494 0.00585938 24.7238 0.00585938 24.4454V17.8938C0.00585938 17.6155 0.234491 17.3898 0.516523 17.3898L15.4286 17.3898C15.8343 17.3898 16.078 16.9454 15.8561 16.6102L9.50644 7.01782C9.35578 6.79022 9.41519 6.48573 9.6407 6.32961L15.075 2.56745C15.3113 2.40386 15.6379 2.46592 15.7958 2.7044L23.3242 14.0775C23.6019 14.4969 24.2624 14.3029 24.2624 13.8018V0.67243ZM17.9525 35.6465C14.3191 33.2525 10.634 30.8245 6.46286 30.8245H0.516523C0.234491 30.8245 0.00585938 31.0501 0.00585938 31.3285V37.8801C0.00585938 38.1585 0.234491 38.3841 0.516523 38.3841H15.4286C15.8343 38.3841 16.078 38.8285 15.8561 39.1637L9.50644 48.7561C9.35578 48.9837 9.41519 49.2882 9.6407 49.4443L15.075 53.2065C15.3113 53.3701 15.6379 53.308 15.7958 53.0695L23.3242 41.6965C23.6019 41.277 24.2624 41.471 24.2624 41.9721V55.1015C24.2624 55.3798 24.491 55.6055 24.773 55.6055H31.4117C31.6937 55.6055 31.9223 55.3798 31.9223 55.1015V41.9572C31.9223 41.4562 32.5828 41.2621 32.8605 41.6816L40.3987 53.0695C40.5566 53.308 40.8832 53.3701 41.1195 53.2065L46.5539 49.4443C46.7794 49.2882 46.8388 48.9837 46.6881 48.7561L40.3384 39.1637C40.1165 38.8285 40.3602 38.3841 40.766 38.3841H55.6682C55.9503 38.3841 56.1789 38.1585 56.1789 37.8801V31.3285C56.1789 31.0501 55.9503 30.8245 55.6682 30.8245H49.722C45.5509 30.8245 41.8658 33.2525 38.2324 35.6465C36.7773 36.6052 35.3304 37.5585 33.8639 38.3482C32.1495 39.2714 30.183 39.796 28.0924 39.796C26.0018 39.796 24.0354 39.2714 22.321 38.3482C20.8545 37.5585 19.4076 36.6052 17.9525 35.6465ZM28.0924 37.7144C33.5416 37.7144 37.959 33.3145 37.959 27.887C37.959 22.4594 33.5416 18.0595 28.0924 18.0595C22.6433 18.0595 18.2259 22.4594 18.2259 27.887C18.2259 33.3145 22.6433 37.7144 28.0924 37.7144Z" fill="#0A2845"/>
</svg>
