<svg width="208" height="210" viewBox="0 0 208 210" fill="none" xmlns="http://www.w3.org/2000/svg">
<path d="M104 60.2704C96.6802 60.4386 89.7976 62.3762 83.7632 65.672C78.1987 68.7112 72.7132 72.4095 67.1959 76.1293C53.6804 85.2414 39.973 94.4829 24.4415 94.4829H3.63538C1.90376 94.4829 0.5 93.0792 0.5 91.3475V68.4192C0.5 66.6876 1.90376 65.2838 3.63538 65.2838H55.1438C57.636 65.2838 59.1321 62.5167 57.7673 60.4315L36.258 27.5661C35.3306 26.1492 35.6959 24.252 37.083 23.2807L55.059 10.6938C56.5091 9.67849 58.5115 10.0641 59.4809 11.5452L84.6451 49.9951C86.3515 52.6023 90.404 51.394 90.404 48.2781V4.13539C90.404 2.40376 91.8078 1 93.5394 1H114.461C116.192 1 117.596 2.40376 117.596 4.13539V48.2781C117.596 51.3941 121.649 52.6023 123.355 49.9951L148.519 11.5452C149.488 10.0641 151.491 9.67849 152.941 10.6938L170.917 23.2807C172.304 24.252 172.669 26.1492 171.742 27.5661L150.233 60.4315C148.868 62.5167 150.364 65.2838 152.856 65.2838H204.365C206.096 65.2838 207.5 66.6876 207.5 68.4192V91.3475C207.5 93.0792 206.096 94.4829 204.365 94.4829H183.558C168.027 94.4829 154.32 85.2415 140.804 76.1294C135.287 72.4095 129.801 68.7112 124.237 65.672C118.202 62.3762 111.32 60.4387 104 60.2704Z" fill="#0A2845"/>
<path d="M140.293 105.094C140.293 125.354 124.019 141.778 103.945 141.778C83.8711 141.778 67.5978 125.354 67.5978 105.094C67.5978 84.8343 83.8711 68.4103 103.945 68.4103C124.019 68.4103 140.293 84.8343 140.293 105.094Z" fill="#0A2845"/>
<path d="M114.461 209.189C116.192 209.189 117.596 207.785 117.596 206.054V161.911C117.596 158.795 121.648 157.587 123.355 160.194L148.519 198.644C149.488 200.125 151.491 200.51 152.941 199.495L170.917 186.908C172.304 185.937 172.669 184.04 171.742 182.623L150.233 149.757C148.868 147.672 150.364 144.905 152.856 144.905H204.365C206.096 144.905 207.5 143.501 207.5 141.77V118.841C207.5 117.11 206.096 115.706 204.365 115.706H183.558C168.027 115.706 154.32 124.947 140.804 134.059C135.287 137.779 129.801 141.478 124.237 144.517C118.202 147.813 111.32 149.75 104 149.919C96.6801 149.75 89.7977 147.813 83.7633 144.517C78.1987 141.478 72.7132 137.779 67.1958 134.059C53.6804 124.947 39.9732 115.706 24.4417 115.706H3.63554C1.90391 115.706 0.500152 117.11 0.500152 118.841V141.77C0.500152 143.501 1.90391 144.905 3.63554 144.905H55.144C57.6362 144.905 59.1322 147.672 57.7675 149.757L36.2581 182.623C35.3308 184.04 35.6961 185.937 37.0832 186.908L55.0592 199.495C56.5092 200.51 58.5117 200.125 59.4811 198.644L84.6453 160.194C86.3517 157.587 90.4042 158.795 90.4042 161.911V206.054C90.4042 207.785 91.8079 209.189 93.5396 209.189H114.461Z" fill="#0A2845"/>
</svg>
