<svg width="352" height="71" viewBox="0 0 352 71" fill="none" xmlns="http://www.w3.org/2000/svg">
<g clip-path="url(#clip0_1350_25)">
<path d="M8.64062 46.3717V66.2367C8.64062 67.4596 9.67558 67.9672 9.99756 68.0825C10.3195 68.221 11.4005 68.5209 12.3664 67.6211L27.3944 53.1793C28.6741 51.9496 29.9093 50.6569 30.8374 49.1444C31.2743 48.4334 31.4554 48.0329 31.4554 48.0329C32.3755 46.164 32.3755 44.3644 31.4782 42.5647C30.1448 39.8884 26.7407 37.1659 21.6117 34.5818L12.8494 39.4731C10.2506 40.9497 8.64062 43.5569 8.64062 46.3717Z" fill="white" fill-opacity="0.8"/>
<path d="M0 2.18845V23.0226C0 25.6298 1.74793 27.937 4.23183 28.6753C12.6953 31.1209 27.4375 36.3813 31.0024 44.1105C31.462 45.1257 31.7381 46.1178 31.8307 47.156C34.1994 42.8416 35.2802 37.881 34.7743 32.8513C34.0841 25.722 30.3121 19.2387 24.4248 15.1088L3.42685 0.411886C3.05883 0.135019 2.62186 -0.00341797 2.1849 -0.00341797C1.81688 -0.00341797 1.4949 0.0658007 1.14994 0.250379C0.459945 0.642604 0 1.35786 0 2.18845Z" fill="white"/>
<path d="M64.5349 46.3717V66.2367C64.5349 67.4596 63.5004 67.9672 63.178 68.0825C62.8564 68.221 61.7747 68.5209 60.8092 67.6211L45.4314 52.8434C44.3847 51.8373 43.3851 50.7733 42.5966 49.554C41.9721 48.589 41.7204 48.0329 41.7204 48.0329C40.8003 46.164 40.8003 44.3644 41.6968 42.5647C43.031 39.8884 46.4351 37.1659 51.5632 34.5818L60.3261 39.4731C62.9482 40.9497 64.5349 43.5569 64.5349 46.3717Z" fill="white" fill-opacity="0.8"/>
<path d="M73.1899 2.18698V23.0211C73.1899 25.6282 71.4416 27.9354 68.9575 28.6737C60.4943 31.1194 45.7524 36.3799 42.1875 44.109C41.727 45.1242 41.4509 46.1163 41.3592 47.1546C38.9904 42.8401 37.9096 37.8796 38.4155 32.8498C39.1049 25.7205 42.8769 19.2373 48.7651 15.1074L69.7631 0.410413C70.1309 0.133546 70.5678 -0.00488281 71.0047 -0.00488281C71.3725 -0.00488281 71.6949 0.0643356 72.0392 0.248913C72.7295 0.641139 73.1899 1.35638 73.1899 2.18698Z" fill="white"/>
<path d="M108.813 6.68921H116.852L135.482 49.7797H136.034L154.664 6.68921H162.564V56.3692H156.699V16.8322H156.147L139.07 56.3692H132.308L115.23 16.8322H114.678V56.3692H108.813V6.68921Z" fill="white"/>
<path d="M169.042 38.8087C169.042 26.9407 176.253 20.3857 186.948 20.3857C197.608 20.3857 204.853 26.9407 204.853 38.8087C204.853 50.6422 197.608 57.1972 186.948 57.1972C176.253 57.1972 169.042 50.6422 169.042 38.8087ZM175.183 38.8087C175.183 47.5027 179.91 52.2292 186.948 52.2292C193.951 52.2292 198.678 47.5027 198.678 38.8087C198.678 30.0802 193.951 25.3882 186.948 25.3882C179.91 25.3882 175.183 30.0802 175.183 38.8087Z" fill="white"/>
<path d="M210.652 21.2137H216.517V25.4227H217.069C218.277 22.9387 220.485 21.0757 225.763 21.0757H230.662V26.3197H225.901C219.312 26.3197 216.724 29.9422 216.724 37.0837V56.3692H210.652V21.2137Z" fill="white"/>
<path d="M235.333 70.1692V21.2137H241.267V26.0782H241.819C244.441 22.0072 248.719 20.4202 253.687 20.4202C262.829 20.4202 269.833 26.6302 269.833 38.8087C269.833 50.9527 262.829 57.1627 253.687 57.1627C248.822 57.1627 244.579 55.6102 241.957 51.7117H241.405V70.1692H235.333ZM241.198 38.8087C241.198 47.3302 245.752 52.1257 252.445 52.1257C259.172 52.1257 263.727 47.3302 263.727 38.8087C263.727 30.2527 259.172 25.4572 252.445 25.4572C245.752 25.4572 241.198 30.2527 241.198 38.8087Z" fill="white"/>
<path d="M275.647 6.68921H281.719V25.5607H282.271C284.789 21.8347 288.964 20.4202 293.897 20.4202C302.074 20.4202 307.249 24.5602 307.249 33.1507V56.3692H301.177V33.7372C301.177 28.0102 298.037 25.4917 292.552 25.4917C286.549 25.4917 281.719 29.0452 281.719 36.7387V56.3692H275.647V6.68921Z" fill="white"/>
<path d="M312.711 38.8087C312.711 26.9407 319.921 20.3857 330.616 20.3857C341.277 20.3857 348.522 26.9407 348.522 38.8087C348.522 50.6422 341.277 57.1972 330.616 57.1972C319.921 57.1972 312.711 50.6422 312.711 38.8087ZM318.852 38.8087C318.852 47.5027 323.578 52.2292 330.616 52.2292C337.62 52.2292 342.346 47.5027 342.346 38.8087C342.346 30.0802 337.62 25.3882 330.616 25.3882C323.578 25.3882 318.852 30.0802 318.852 38.8087Z" fill="white"/>
</g>
<defs>
<clipPath id="clip0_1350_25">
<rect width="352" height="71" fill="white"/>
</clipPath>
</defs>
</svg>
