<svg width="249" height="167" viewBox="0 0 249 167" fill="none" xmlns="http://www.w3.org/2000/svg">
<path d="M96.2957 46.8717V66.7367C96.2957 67.9596 97.3306 68.4672 97.6526 68.5825C97.9746 68.721 99.0555 69.0209 100.021 68.1211L115.049 53.6793C116.329 52.4496 117.564 51.1569 118.492 49.6444C118.929 48.9334 119.11 48.5329 119.11 48.5329C120.03 46.664 120.03 44.8644 119.133 43.0647C117.8 40.3884 114.396 37.6659 109.267 35.0818L100.504 39.9731C97.9056 41.4497 96.2957 44.0569 96.2957 46.8717Z" fill="white" fill-opacity="0.8"/>
<path d="M87.655 2.68845V23.5226C87.655 26.1298 89.403 28.437 91.8869 29.1753C100.35 31.6209 115.092 36.8813 118.657 44.6105C119.117 45.6257 119.393 46.6178 119.486 47.656C121.854 43.3416 122.935 38.381 122.429 33.3513C121.739 26.222 117.967 19.7387 112.08 15.6088L91.0819 0.911886C90.7139 0.635019 90.2769 0.496582 89.8399 0.496582C89.4719 0.496582 89.1499 0.565801 88.805 0.750379C88.115 1.14261 87.655 1.85786 87.655 2.68845Z" fill="white"/>
<path d="M152.19 46.8717V66.7367C152.19 67.9596 151.155 68.4672 150.833 68.5825C150.511 68.721 149.43 69.0209 148.464 68.1211L133.086 53.3434C132.04 52.3373 131.04 51.2733 130.252 50.054C129.627 49.089 129.375 48.5329 129.375 48.5329C128.455 46.664 128.455 44.8644 129.352 43.0647C130.686 40.3884 134.09 37.6659 139.218 35.0818L147.981 39.9731C150.603 41.4497 152.19 44.0569 152.19 46.8717Z" fill="white" fill-opacity="0.8"/>
<path d="M160.845 2.68674V23.5209C160.845 26.128 159.097 28.4352 156.612 29.1735C148.149 31.6192 133.407 36.8797 129.842 44.6088C129.382 45.624 129.106 46.6161 129.014 47.6544C126.645 43.3399 125.565 38.3794 126.07 33.3496C126.76 26.2203 130.532 19.7371 136.42 15.6072L157.418 0.910169C157.786 0.633302 158.223 0.494873 158.66 0.494873C159.028 0.494873 159.35 0.564091 159.694 0.748669C160.384 1.1409 160.845 1.85614 160.845 2.68674Z" fill="white"/>
<path d="M5.62354 103.063H13.662L32.292 146.154H32.844L51.474 103.063H59.3745V152.743H53.5095V113.206H52.9575L35.88 152.743H29.118L12.0405 113.206H11.4885V152.743H5.62354V103.063Z" fill="white"/>
<path d="M65.8525 135.183C65.8525 123.315 73.063 116.76 83.758 116.76C94.4185 116.76 101.663 123.315 101.663 135.183C101.663 147.016 94.4185 153.571 83.758 153.571C73.063 153.571 65.8525 147.016 65.8525 135.183ZM71.9935 135.183C71.9935 143.877 76.72 148.603 83.758 148.603C90.7615 148.603 95.488 143.877 95.488 135.183C95.488 126.454 90.7615 121.762 83.758 121.762C76.72 121.762 71.9935 126.454 71.9935 135.183Z" fill="white"/>
<path d="M107.462 117.588H113.327V121.797H113.879C115.087 119.313 117.295 117.45 122.573 117.45H127.472V122.694H122.711C116.122 122.694 113.534 126.316 113.534 133.458V152.743H107.462V117.588Z" fill="white"/>
<path d="M132.143 166.543V117.588H138.077V122.452H138.629C141.251 118.381 145.529 116.794 150.497 116.794C159.64 116.794 166.643 123.004 166.643 135.183C166.643 147.327 159.64 153.537 150.497 153.537C145.633 153.537 141.389 151.984 138.767 148.086H138.215V166.543H132.143ZM138.008 135.183C138.008 143.704 142.562 148.5 149.255 148.5C155.983 148.5 160.537 143.704 160.537 135.183C160.537 126.627 155.983 121.831 149.255 121.831C142.562 121.831 138.008 126.627 138.008 135.183Z" fill="white"/>
<path d="M172.457 103.063H178.529V121.935H179.081C181.599 118.209 185.774 116.794 190.707 116.794C198.884 116.794 204.059 120.934 204.059 129.525V152.743H197.987V130.111C197.987 124.384 194.847 121.866 189.362 121.866C183.359 121.866 178.529 125.419 178.529 133.113V152.743H172.457V103.063Z" fill="white"/>
<path d="M209.521 135.183C209.521 123.315 216.731 116.76 227.426 116.76C238.087 116.76 245.332 123.315 245.332 135.183C245.332 147.016 238.087 153.571 227.426 153.571C216.731 153.571 209.521 147.016 209.521 135.183ZM215.662 135.183C215.662 143.877 220.388 148.603 227.426 148.603C234.43 148.603 239.156 143.877 239.156 135.183C239.156 126.454 234.43 121.762 227.426 121.762C220.388 121.762 215.662 126.454 215.662 135.183Z" fill="white"/>
</svg>
