<svg width="200" height="200" viewBox="0 0 200 200" fill="none" xmlns="http://www.w3.org/2000/svg">
<rect width="200" height="200" fill="#2973FF"/>
<path opacity="0.8" d="M58.6604 117.953V147.059C58.6604 148.851 60.1768 149.595 60.6486 149.764C61.1204 149.967 62.7042 150.406 64.1195 149.088L86.1389 127.927C88.0141 126.126 89.8238 124.231 91.1838 122.015C91.8239 120.973 92.0893 120.387 92.0893 120.387C93.4373 117.648 93.4373 115.011 92.1226 112.375C90.1689 108.453 85.1811 104.464 77.666 100.678L64.8272 107.845C61.0194 110.008 58.6604 113.828 58.6604 117.953Z" fill="white"/>
<path d="M46 53.2138V83.7407C46 87.5607 48.5611 90.9413 52.2006 92.0231C64.6016 95.6065 86.2021 103.314 91.4255 114.639C92.099 116.127 92.5035 117.58 92.6392 119.102C96.1099 112.78 97.6936 105.512 96.9523 98.1419C95.941 87.6959 90.4142 78.1964 81.7878 72.1451L51.0211 50.6107C50.4819 50.205 49.8416 50.0022 49.2014 50.0022C48.6621 50.0022 48.1904 50.1036 47.6849 50.3741C46.6739 50.9488 46 51.9968 46 53.2138Z" fill="white"/>
<path opacity="0.8" d="M140.559 117.953V147.059C140.559 148.851 139.043 149.595 138.57 149.764C138.099 149.967 136.514 150.406 135.1 149.088L112.568 127.435C111.034 125.961 109.569 124.402 108.414 122.615C107.499 121.201 107.13 120.387 107.13 120.387C105.782 117.648 105.782 115.011 107.096 112.375C109.051 108.453 114.038 104.464 121.552 100.678L134.392 107.845C138.234 110.008 140.559 113.828 140.559 117.953Z" fill="white"/>
<path d="M153.24 53.2116V83.7384C153.24 87.5585 150.678 90.9391 147.038 92.0209C134.638 95.6043 113.037 103.312 107.814 114.637C107.139 116.125 106.735 117.578 106.6 119.1C103.13 112.778 101.546 105.51 102.287 98.1398C103.297 87.6937 108.824 78.1943 117.452 72.143L148.219 50.6085C148.758 50.2028 149.398 50 150.038 50C150.577 50 151.049 50.1014 151.554 50.3719C152.565 50.9466 153.24 51.9946 153.24 53.2116Z" fill="white"/>
</svg>
