<svg width="40" height="40" viewBox="0 0 40 40" fill="none" xmlns="http://www.w3.org/2000/svg">
  <rect width="40" height="40" rx="10" fill="#2C3729"/>
  <path fill-rule="evenodd" clip-rule="evenodd" d="M16.2137 18.6317L6.58112 9H1L10.8605 18.8605C8.39706 19.5707 6.58112 21.8509 6.58112 24.5344C6.58112 27.7811 9.23711 30.4371 12.4838 30.4371H28.0191L24.0725 26.4905H12.4847C11.409 26.4905 10.5286 25.6101 10.5286 24.5344C10.5286 23.4588 11.409 22.5783 12.4847 22.5783H20.1603L16.2137 18.6317Z" fill="#FEF9EF"/>
  <path fill-rule="evenodd" clip-rule="evenodd" d="M23.9693 20.8062L33.6011 30.438H39.1822L29.3217 20.5775C31.7851 19.8673 33.6011 17.5871 33.6011 14.9036C33.6011 11.656 30.9451 9 27.6984 9H12.1631L16.1097 12.9466H27.6975C28.7732 12.9466 29.6536 13.8271 29.6536 14.9027C29.6536 15.9783 28.7732 16.8588 27.6975 16.8588H20.0219L23.9685 20.8054L23.9693 20.8062Z" fill="#FEF9EF"/>
</svg>
