<svg xmlns="http://www.w3.org/2000/svg" width="200" height="200" viewBox="0 0 24 24"><g fill="none"><path fill="url(#tokenBrandedIpor0)" d="M10.072 17.571L3.429 9.857l6.643 6.429l6-8.143l.642.857l1.093-1.714l2.765 5.571l-2.786-4.5l-1.072 1.714l-.642-.643z"/><path fill="url(#tokenBrandedIpor1)" d="M13.877 13.243a126 126 0 0 0 6.695-.429a188 188 0 0 0-6.313-.338l-.386.771zm-1.718-.815l-.506.858a79 79 0 0 1-4.333-.168l-.356-.53a98 98 0 0 1 5.195-.16m-8.73.386c.493-.038 1.187-.085 1.988-.137l.185.326a99 99 0 0 1-2.173-.189"/><defs><linearGradient id="tokenBrandedIpor0" x1="3.12" x2="20.542" y1="9.883" y2="9.883" gradientUnits="userSpaceOnUse"><stop stop-color="#E6DA88"/><stop offset="1" stop-color="#E15F50"/></linearGradient><linearGradient id="tokenBrandedIpor1" x1="3.544" x2="21.973" y1="12.857" y2="12.857" gradientUnits="userSpaceOnUse"><stop offset=".67" stop-color="#2E80BF"/><stop offset=".95" stop-color="#2A3985"/></linearGradient></defs></g></svg>