<svg width="463" height="80" viewBox="0 0 463 80" fill="none" xmlns="http://www.w3.org/2000/svg">
<g clip-path="url(#clip0_10197_6175)">
<path d="M40.6613 0H48.0659C52.0101 2.9182 55.9224 5.87934 59.802 8.88286C61.4209 10.1293 63.3525 11.5257 64.8099 12.9426C65.253 13.3734 65.1897 13.538 65.153 14.0412C64.8455 14.5161 64.4824 14.8086 64.0475 15.1634C58.9167 19.3481 53.7336 23.4771 48.5422 27.5866C46.5002 29.1191 44.4705 31.0626 42.1859 32.2092C40.9829 32.7963 38.5169 32.716 37.391 31.9754C32.2064 28.5648 27.5018 24.3077 22.5936 20.5075C20.6328 18.9891 19.3484 17.2816 21.5882 15.2505C23.7873 13.2563 26.153 11.4679 28.4923 9.62167L40.6613 0Z" fill="#DF1C24"/>
<path d="M14.2499 66.036C18.2974 62.4952 23.0842 59.2774 27.2664 55.8235C30.2811 53.3338 33.789 50.698 36.9886 48.4782C38.6809 47.3042 41.6607 47.5336 43.2705 48.7255C48.5251 52.5077 53.7059 56.6051 58.6692 60.7547C59.247 61.2387 59.5064 62.2754 59.471 62.9908C59.4026 64.3796 55.7516 67.0433 54.5708 67.964C49.5618 71.869 44.4695 76.2119 39.396 80H31.4059C27.5673 77.1477 23.7029 73.887 19.9392 70.9064C18.7557 69.9692 15.0313 66.9877 14.2499 66.036Z" fill="#DF1C24"/>
<path d="M13.9907 14.5428C15.4015 16.0408 16.5859 17.698 17.8596 19.304C22.1941 24.7868 26.6574 30.1213 30.9011 35.68C33.2804 38.7965 32.8167 41.9666 30.4848 44.9479C27.1426 49.2211 23.5945 53.2903 20.2526 57.5578C19.9978 57.8831 19.732 58.1686 19.4306 58.4503C17.3839 60.3631 16.0446 59.6677 14.4707 57.771C12.0051 54.7468 9.64312 51.6624 7.24807 48.5826C5.32035 46.0097 1.36429 41.3431 0 38.7589V32.8288C1.89149 29.4554 11.2352 17.0002 13.9907 14.5428Z" fill="#DF1C24"/>
<path d="M61.9527 20.4507C62.458 20.4798 63.1163 20.4907 63.5754 20.7131C65.2136 21.5065 78.6905 38.7846 79.4578 40.9092C80.3756 43.4512 80.1635 46.5563 79.018 48.9879C77.922 51.3143 67.3334 64.9004 65.7248 65.4763C61.9732 60.5371 58.1466 55.6556 54.2464 50.8332C52.9143 49.1554 48.6174 43.9508 47.9607 42.4459C47.3143 40.9288 47.2927 39.218 47.9007 37.6853C48.9998 34.9409 57.9767 24.4844 60.4892 21.3037C60.7174 21.015 61.5743 20.6131 61.9527 20.4507Z" fill="#DF1C24"/>
<path d="M170.961 10.6067C173.52 10.5668 176.175 10.6076 178.742 10.6116L179.588 13.0167C185.307 13.0075 191.708 12.8578 197.374 13.0717C197.432 14.9749 197.385 16.9773 197.372 18.888C187.719 19.2152 176.381 18.9287 166.594 18.9329C166.552 20.673 166.592 22.5843 166.594 24.3381C169.909 24.3852 194.611 23.9744 195.387 24.6197C196.662 28.3652 195.492 40.605 195.769 45.1836C196.162 51.6661 189.508 53.2674 184.36 52.9149C180.56 52.6546 176.1 53.0287 172.096 52.8219C172.022 51.0817 171.61 48.894 172.662 47.6568C173.34 47.1953 173.984 47.2828 174.794 47.2992L182.604 47.3208C189.248 47.3047 188.616 44.8625 188.575 39.4825L188.519 29.9291C181.519 29.721 173.63 29.8735 166.571 29.8768C166.583 35.2599 166.933 39.6366 164.741 44.7981C163.45 47.8355 157.154 54.3981 153.747 52.8078C153.479 51.7568 153.608 48.5406 153.627 47.2702C160.228 43.974 159.296 36.7008 159.295 30.4603L159.312 18.9459L153.626 18.9475C153.605 16.9939 153.611 15.0401 153.643 13.0866C158.159 12.8078 163.054 13.198 167.6 13.0438C168.779 13.0038 169.736 13.0805 170.931 12.8995C171.219 12.4061 170.627 11.5482 170.961 10.6067Z" fill="#343431"/>
<path d="M114.527 10.6058C116.16 10.6275 120.993 10.2558 122.088 10.934C122.294 11.5728 122.055 11.7713 121.758 12.5036C122.197 12.9377 143.92 12.7407 146.873 12.7761C146.919 14.7602 146.873 16.6962 146.833 18.6791C137.784 18.9981 127.088 18.7302 117.908 18.7388C116.548 20.46 113.392 25.5234 112.129 27.5203L122.189 27.5331C122.178 25.4302 122.174 23.4553 122.265 21.3548C124.079 21.3239 127.821 20.8199 129.06 21.749C129.993 22.9617 129.679 25.9272 129.649 27.5421C135.391 27.5041 141.134 27.5162 146.876 27.5781C146.998 28.8403 147.231 32.4834 146.517 33.43C140.883 33.4065 135.249 33.4252 129.616 33.4863C129.613 37.7395 129.587 42.072 129.647 46.3217C129.758 54.2258 122.756 52.9421 117.155 52.8331C117.118 52.0047 117.076 51.174 117.069 50.3447C117.062 49.6091 117.186 48.741 117.739 48.1979C118.382 47.5663 119.366 47.7832 120.185 47.7891C120.634 47.7924 121.109 47.7153 121.438 47.3883C122.788 46.0436 122.202 35.8773 122.207 33.4518C116.06 33.3206 109.584 33.4687 103.384 33.4195C103.286 31.9669 103.345 29.5696 103.335 28.0483C105.435 24.9924 107.47 21.8925 109.438 18.7502C107.37 18.7904 105.301 18.8069 103.233 18.7996C103.219 16.8162 103.221 14.8327 103.239 12.8494C105.887 12.6361 110.354 12.7725 113.134 12.7704C113.523 11.9362 113.989 11.3435 114.527 10.6058Z" fill="#343431"/>
<path d="M217.565 11.262C227.468 11.2105 237.371 11.2162 247.275 11.279C247.325 12.9116 247.631 15.2461 246.692 16.5354C245.664 17.3096 244.989 17.1093 243.776 17.0133C241.916 16.8662 240.046 16.9146 238.185 16.9436L238.171 27.2412C241.158 27.2144 244.145 27.2212 247.134 27.2617C247.169 29.2124 247.198 30.6381 247.02 32.5869C244.483 32.8025 240.809 32.6986 238.187 32.6968L238.149 47.3065C241.253 47.2678 244.358 47.2907 247.459 47.3751C247.488 49.1373 247.444 50.9581 247.426 52.725C240.646 52.9977 232.231 52.7766 225.33 52.7709C223.409 52.7938 219.174 53.0689 217.461 52.3768C217.329 52.3234 216.84 51.2751 216.794 51.0777C216.326 49.0502 217.815 47.9927 219.183 46.8597C219.301 46.7612 219.36 45.6083 219.378 45.3472C219.585 42.3669 218.998 23.7546 219.727 22.4658C220.743 21.8843 224.765 21.861 225.448 22.3401C226.167 22.8441 225.879 30.0386 225.877 31.0645L225.848 47.399L231.407 47.3647L231.428 16.9037C227.112 16.8327 222.798 17.0227 218.485 16.8425C216.362 16.7538 216.954 12.0833 217.565 11.262Z" fill="#343431"/>
<path d="M273.426 10.9627C275.642 10.9052 277.982 10.9567 280.209 10.9727C280.272 13.4274 280.222 16.1191 280.229 18.5931C286.25 18.562 292.272 18.5833 298.294 18.6567C298.347 20.0032 298.321 21.5156 298.327 22.8759C295.848 22.9768 281.057 22.7316 280.376 23.176C280.382 24.0678 280.244 24.0285 280.659 24.6691C282.031 24.9045 285.439 24.8056 287.035 24.7999C290.802 24.7768 294.571 24.7751 298.338 24.7946L298.356 28.7711C294.066 28.9177 289.092 28.7792 284.73 28.8146C290.178 31.1962 292.422 31.2116 298.323 31.4865C298.389 32.9166 298.341 34.4665 298.323 35.9067C291.154 35.9247 284.653 35.7832 278.758 31.0335C278.039 30.5206 277.431 29.794 276.833 29.1379C276.464 29.6406 276.057 30.1162 275.62 30.5614C270.716 35.4957 261.483 35.8522 254.969 35.888L254.956 31.6452C260.901 31.27 263.404 31.3445 268.818 28.7465C264.211 28.7865 259.602 28.7979 254.996 28.781L254.969 24.8122C260.182 24.7219 267.382 24.9775 272.727 24.6357C273.07 24.6138 273.198 24.2074 273.338 23.9107L273.178 23.4968C272.116 22.5674 267.853 22.9217 266.325 22.9291C262.536 22.9735 258.745 22.9608 254.958 22.8905L254.956 18.6592C260.664 18.4529 267.49 18.5832 273.226 18.6073C273.218 16.8025 273.094 12.5192 273.426 10.9627Z" fill="#343431"/>
<path d="M256.719 37.2472C269.514 37.0784 282.349 37.1942 295.145 37.2313C296.679 37.572 298.174 36.9184 298.259 38.9245C298.736 50.0654 297.932 53.5502 285.618 52.7909C283.899 52.685 277.035 53.3041 275.822 52.2634C275.457 51.4542 275.385 48.8907 276.121 48.4217C278.024 47.2085 283.321 47.7911 285.521 47.7984C290.481 47.8711 291.409 47.3779 291.204 42.281C289.435 42.0929 286.174 42.1665 284.321 42.1669L272.406 42.1808C269.538 49.4973 262.525 52.8054 255.002 52.8456C254.982 51.2322 255.004 49.6186 255.07 48.0065C256.204 47.7867 257.334 47.5366 258.455 47.2564C261.565 46.4494 263.771 44.9252 265.391 42.1656L254.949 42.1581C254.892 40.8289 254.653 38.9159 255.127 37.7759C255.798 37.1867 255.705 37.3548 256.719 37.2472Z" fill="#343431"/>
<path d="M203.805 23.95C205.792 23.9324 210.607 23.4845 212.225 24.3384C213.319 24.9159 211.989 43.6588 212.801 46.2869C213.201 47.5817 214.03 47.0329 215.002 47.537C216.002 48.7047 215.687 51.2186 215.641 52.7887C210.433 52.9091 206.534 53.0839 206.147 46.3061C205.986 41.0133 206.296 35.6953 206.092 30.4058C206.076 29.9797 204.818 29.7434 204.286 29.4162C203.257 28.1792 203.694 25.5898 203.805 23.95Z" fill="#343431"/>
<path d="M239.27 61.8218C244.866 61.2871 248.143 66.337 246.813 71.4368C246.686 71.9275 245.82 73.4383 245.547 73.9812C245.684 74.568 246.602 75.2697 247.09 75.7132L245.013 77.8123L243.215 76.0809C242.82 75.8517 242.883 75.845 242.402 75.9575C232.031 78.3849 229.56 63.2964 239.27 61.8218ZM242.595 67.5827C242.068 65.5741 240.791 64.8645 239.07 65.2522C236.044 65.9339 236.075 71.8789 239.661 72.7872L240.116 72.6164C240.068 72.1311 239.785 71.9095 239.451 71.5539C239.844 70.9887 240.123 70.4731 240.791 70.2801C241.604 70.6016 241.806 70.8758 242.503 70.66C243.015 69.82 242.837 68.4963 242.595 67.5827Z" fill="#343431"/>
<path d="M153.95 62.213C157.284 62.2357 162.599 61.4747 165.14 63.7388C168.375 66.623 167.805 71.3504 165.242 74.4012C162.109 76.7895 157.912 76.1476 153.952 76.095C153.821 71.684 153.909 66.6611 153.95 62.213ZM161.206 66.0132C160.244 65.4146 159.355 65.5514 158.278 65.5413L158.279 72.7082C159.819 72.6574 160.695 72.7637 161.971 71.8793C163.301 69.8347 163.452 67.4099 161.206 66.0132Z" fill="#343431"/>
<path d="M254.756 67.4865L298.437 67.4544L298.442 70.8094L254.749 70.8316L254.756 67.4865Z" fill="#343431"/>
<path d="M103.096 67.4762L147.007 67.4845L147.017 70.797L103.087 70.8247L103.096 67.4762Z" fill="#343431"/>
<path d="M134.518 36.07C136.287 36.0243 138.631 35.8355 140.34 36.3094C142.875 37.0124 142.297 39.8959 143.523 42.0577C144.804 44.3166 145.031 44.683 147.076 46.3509C147.094 47.9122 147.211 51.5639 146.92 52.93C141.614 52.2636 137.289 46.3175 135.595 41.6777C135.08 40.268 133.92 37.4924 134.518 36.07Z" fill="#343431"/>
<path d="M207.756 62.2115C211.514 62.13 215.542 62.2019 219.321 62.2032L219.31 65.0951C218.036 66.859 214.28 70.9151 212.749 72.5696C215.018 72.5597 217.288 72.5612 219.558 72.5744L219.509 76.1001C215.439 76.1885 211.071 76.1105 206.977 76.1126L206.998 73.2876C209.282 70.7089 211.552 68.1186 213.81 65.517C211.792 65.5483 209.729 65.5327 207.707 65.539C207.696 64.4564 207.736 63.3001 207.756 62.2115Z" fill="#343431"/>
<path d="M109.17 36.0949C110.383 36.0654 114.734 35.7439 115.51 36.4434C115.728 36.8357 115.931 37.3628 115.825 37.7968C114.522 43.1283 111.712 47.7775 107.606 51.1096C106.091 52.1898 104.966 52.5819 103.182 53.0527C103.06 51.2709 103.145 48.281 103.136 46.4058C106.002 43.8641 107.114 41.5755 108.204 37.9465C108.414 37.2467 108.576 36.5672 109.17 36.0949Z" fill="#343431"/>
<path d="M181.712 62.2225C185.351 62.1546 189.158 62.2017 192.811 62.1922L192.801 65.4652C191.431 65.4907 187.192 65.3744 186.213 65.599C185.973 65.9344 185.916 66.0434 185.943 66.4852C186.116 69.3056 189.262 66.5155 191.579 68.0667C192.027 68.9036 191.867 69.1269 191.854 70.1645C191.868 70.3733 191.754 70.576 191.668 70.7764C190.786 71.1986 187.174 71.012 185.972 70.9854L185.961 76.0922C184.545 76.1193 183.054 76.0935 181.631 76.0922C181.594 71.4689 181.621 66.8452 181.712 62.2225Z" fill="#343431"/>
<path d="M263.807 10.9919C265.279 11.0083 270.105 10.6727 270.969 11.2487C271.578 13.76 264.27 16.348 262.363 16.8384C260.233 17.2754 257.138 17.1798 254.916 17.1785L254.923 12.946C258.222 12.8327 261.492 13.2781 263.807 10.9919Z" fill="#343431"/>
<path d="M282.294 10.9984C284.609 10.9393 287.198 11.001 289.534 11.0039L290.987 12.3061C293.277 12.817 295.996 12.7804 298.371 12.834C298.448 14.2145 298.387 15.7285 298.36 17.1209C293.899 17.3467 283.385 16.4997 282.294 10.9984Z" fill="#343431"/>
<path d="M203.412 10.7678C205.801 10.7268 208.191 10.7374 210.581 10.7996C211.385 12.4263 213.376 17.1931 213.188 18.889C210.912 18.9409 208.488 18.8912 206.2 18.8823C205.48 17.0865 203.631 12.5637 203.412 10.7678Z" fill="#343431"/>
<path d="M332.294 0H335.591L335.602 80H332.294V0Z" fill="#EFD595"/>
<path d="M442.589 10.0297C442.327 11.0039 441.881 11.8762 441.453 12.7884L447.209 12.8145C447.391 11.7805 447.475 10.425 447.567 9.35343C449.101 9.40816 450.721 9.55838 452.259 9.67559L451.633 12.8545C455.16 12.8053 458.688 12.8264 462.213 12.9176C461.492 18.1741 460.191 20.9269 456.861 25.1293C458.235 26.9221 461.009 29.0781 462.857 30.4491V30.8412C461.747 32.2876 461.095 33.146 460.178 34.7475C457.501 32.6772 456.191 31.6527 454.18 28.9158L453.998 31.6403C449.837 31.6232 445.598 31.6815 441.431 31.6474C440.767 31.6419 441.196 31.1758 440.769 30.6919C440.086 30.9951 436.648 34.3745 435.519 35.2789C443.057 35.0284 452.459 35.063 460.011 35.2811L460.046 39.5904L449.842 39.6075C449.82 42.5471 450.582 49.0502 448.646 51.2205C447.099 52.9534 443.147 52.6351 440.947 52.5982C440.679 51.1448 440.294 49.5705 439.971 48.1176C440.521 48.1444 441.072 48.1667 441.624 48.185C446.609 48.3439 444.912 43.6775 444.982 39.5848L435.406 39.599C435.417 33.7326 435.42 37.6382 432.699 33.9871C433.442 38.2873 432.822 46.1198 425.754 44.6179C425.692 44.6043 425.472 43.7849 425.072 43.5438C424.615 44.6129 424.85 50.9391 424.872 52.5241L420.024 52.5531L420.072 10.8614C424.442 10.8401 428.809 10.8567 433.178 10.9114C433.116 15.5989 432.429 17.7738 431.132 22.2593C434.84 17.9405 436.472 14.766 437.901 9.30664L442.589 10.0297ZM424.802 31.651C424.802 33.3775 424.683 38.1679 424.943 39.5644C425.807 40.1914 427.123 39.442 427.82 38.8104C428.156 38.0518 428.27 37.7699 428.442 36.962C428.429 33.2469 427.8 30.1332 425.523 27.0354C426.756 23.8242 427.8 18.6182 428.492 15.1641L424.809 15.1628L424.802 31.651ZM431.18 22.5317C430.692 24.0892 430.422 25.0348 429.635 26.4939C431.068 28.2482 431.631 29.818 432.149 32.0331L434.365 30.5384C435.178 29.8026 436.112 28.9939 436.886 28.2322C435.066 26.6252 432.809 24.356 431.18 22.5317ZM448.004 17.5226C446.734 21.141 445.119 24.1473 443.006 27.3664L447.802 27.3808L452.681 27.3842C451.053 24.7416 449.51 22.0072 448.554 19.0353C448.42 18.62 448.268 17.8467 448.004 17.5226ZM437.464 20.9574C437.132 21.4854 436.56 22.4571 436.171 22.8912C437.029 23.689 437.978 24.623 438.943 25.2656C439.431 24.5533 439.989 23.7753 440.448 23.0538C439.626 22.3752 438.426 21.2708 437.464 20.9574ZM452.013 16.9886C452.415 18.2354 453.011 20.3126 453.883 21.2671L454.391 21.4901C454.787 21.3137 454.923 20.9373 455.123 20.5496C455.96 19.1105 456.272 18.5097 456.844 16.9522L452.013 16.9886ZM439.791 16.8403C439.701 17.0673 439.604 17.3165 439.51 17.5405C439.046 18.6501 441.323 19.5493 442.081 19.8879C442.213 19.8545 442.483 19.8087 442.556 19.7168C442.932 18.7868 443.354 17.7952 443.666 16.8483L439.791 16.8403Z" fill="#979796"/>
<path d="M414.235 37.138C414.242 41.7503 414.426 47.6955 414.18 52.2164C413.662 52.6124 413.327 52.4889 412.582 52.5093C411.908 52.5318 410.343 52.617 409.727 52.4919C408.431 52.2278 408.642 51.5372 408.237 50.9271C405.446 50.6093 400.543 50.7644 397.508 50.7728L379.556 50.7891C378.809 51.295 379.558 51.471 378.96 52.4411C378.106 52.8149 374.982 52.6822 373.833 52.68L373.853 10.8378L414.273 10.8316L414.235 37.138ZM379.171 15.1795L379.167 46.445L408.633 46.4143C408.699 43.6479 408.721 40.8808 408.699 38.1139C406.367 43.4243 403.182 49.049 398.648 41.0466C396.916 42.4954 395.567 43.9304 393.6 45.1233L391.668 43.0362C388.215 43.3031 384.25 43.5184 380.853 43.9647L380.708 39.7702C385.149 39.5311 389.593 39.3452 394.042 39.2124C395.151 38.2214 395.969 37.2632 396.941 36.152C395.725 32.1232 395.075 27.5215 394.903 23.32L382.363 23.3269L381.316 23.2796C380.378 22.1775 380.912 20.7162 380.872 19.1319L394.727 19.1474L394.705 16.2763L399.374 16.299L399.398 19.2648C399.993 19.2674 402.074 19.3794 402.4 19.1206L401.426 17.8358C401.649 17.3319 403.732 16.3023 404.356 15.9501C405.04 16.8078 406.552 18.8033 407.297 19.4526L407.253 23.326L399.481 23.3393C399.624 25.9285 399.842 28.7783 400.325 31.3312C401.163 29.7539 402.824 26.8453 403.356 25.333L407.066 26.964C405.787 30.0308 403.64 34.3556 401.62 36.9736C402.053 38.0971 402.831 39.5465 403.558 40.5032C404.433 38.9817 405.079 37.3407 405.479 35.6324C406.556 36.2788 407.719 36.9489 408.743 37.6649L408.745 15.1714L379.171 15.1795Z" fill="#979796"/>
<path d="M382.591 26.0385C385.837 25.9308 389.802 26.0461 393.101 26.0599C393.196 29.608 393.116 33.5192 393.105 37.0961L382.409 37.0506C382.428 35.2429 382.127 27.0167 382.591 26.0385ZM386.169 29.5339L386.123 33.5889L389.466 33.5966L389.492 29.5086L386.169 29.5339Z" fill="#979796"/>
<path d="M455.244 40.6465C456.974 41.954 460.859 46.059 462.457 47.654C461.365 48.3819 459.818 49.894 458.807 50.8258C458.297 50.7135 452.536 44.1984 451.521 43.221L455.244 40.6465Z" fill="#979796"/>
<path d="M438.261 40.623C439.567 41.467 440.666 42.0951 442.018 42.8386C439.281 46.5272 437.589 47.9435 434.215 50.9151C433.855 50.8736 431.743 48.4178 430.76 47.6417C433.514 45.9993 436.22 43.0507 438.261 40.623Z" fill="#979796"/>
</g>
<defs>
<clipPath id="clip0_10197_6175">
<rect width="462.857" height="80" fill="white"/>
</clipPath>
</defs>
</svg>
