<svg viewBox="0 0 400 100" xmlns="http://www.w3.org/2000/svg" id="Layer_1">
  <defs>
    <style>
      .cls-1 {
        fill: #1a1e20;
      }
    </style>
  </defs>
  <g>
    <path d="M237.85,46.71h-7.8c-.72-.72-1.13-1.8-1.23-3.28-1.9,2.67-4.46,4-7.8,4-5.59,0-8.98-3.33-8.98-8.1s3.95-7.49,9.95-8.46l6.46-1.03v-.46c0-2.46-1.33-3.69-3.95-3.69-2.31,0-3.9.87-3.9,2.31,0,.15,0,.31.05.46l-6.98,2.36c-.26-1.03-.41-1.85-.41-2.46,0-2.31,1.08-4.21,3.18-5.64,2.15-1.44,4.82-2.15,8.05-2.15,7.75,0,11.64,3.23,11.64,9.64v10.21c0,2.56.56,4.67,1.69,6.31ZM222.61,41.48c1.74,0,3.13-.62,4.2-1.85,1.08-1.28,1.64-2.72,1.64-4.36v-.46l-5.44.92c-2.31.36-3.49,1.38-3.49,3.08,0,1.44,1.23,2.67,3.08,2.67Z" class="cls-1"></path>
    <path d="M210.64,33.27v2.62h-18.82c.41,3.08,2.97,4.97,6.1,4.97,2.72,0,4.87-1.33,6.46-4l5.54,3.13c-2.41,4.98-6.51,7.44-12.31,7.44-3.54,0-6.62-1.28-9.23-3.8-2.56-2.51-3.85-5.74-3.85-9.64s1.28-7.18,3.85-9.69c2.56-2.51,5.8-3.74,9.75-3.74,3.74,0,6.72,1.23,9.03,3.69,2.31,2.41,3.49,5.44,3.49,9.03ZM197.97,26.5c-2.82,0-5.03,1.49-5.85,4h11.59c-.62-2.51-2.82-4-5.74-4Z" class="cls-1"></path>
    <path d="M170.83,27.22h-3.69v-5.95h3.69v-6.87h7.69v6.87h5.28v5.95h-5.28v10.05c0,2.05,1.03,3.28,2.82,3.28.87,0,1.69-.15,2.41-.41l.72,6.41c-1.54.56-3.23.87-5.13.87-2.41,0-4.41-.67-6.05-2.05-1.64-1.38-2.46-3.54-2.46-6.57v-11.59Z" class="cls-1"></path>
    <path d="M155.45,24.96c7.95,1.69,11.49,4.98,11.49,10.92,0,3.28-1.18,6.05-3.59,8.26-2.41,2.21-5.69,3.28-9.9,3.28-8.41,0-13.64-3.9-15.75-11.64l7.03-3.39c1.28,5.13,3.85,7.74,8.72,7.74,3.23,0,5.33-1.59,5.33-3.69,0-2.67-2.51-4.26-8.05-5.28-7.54-1.49-11.28-5.08-11.28-10.77,0-3.13,1.18-5.59,3.54-7.49,2.36-1.9,5.49-2.82,9.39-2.82,7.03,0,11.44,3.03,13.95,9.39l-6.21,3.69c-1.44-4.21-4.05-6.31-7.9-6.31-3.08,0-5.28,1.38-5.28,3.44s2.31,3.39,8.51,4.67Z" class="cls-1"></path>
    <path d="M399,33.27v2.62h-18.82c.41,3.08,2.97,4.97,6.1,4.97,2.72,0,4.87-1.33,6.46-4l5.54,3.13c-2.41,4.98-6.51,7.44-12.31,7.44-3.54,0-6.62-1.28-9.23-3.8-2.56-2.51-3.85-5.74-3.85-9.64s1.28-7.18,3.85-9.69c2.56-2.51,5.8-3.74,9.75-3.74,3.74,0,6.72,1.23,9.03,3.69,2.31,2.41,3.49,5.44,3.49,9.03ZM386.33,26.5c-2.82,0-5.02,1.49-5.85,4h11.59c-.62-2.51-2.82-4-5.75-4Z" class="cls-1"></path>
    <path d="M357.82,27.73c0,1.28,1.8,2.05,5.44,2.87,6.1,1.28,8.67,3.69,8.67,8.16,0,2.51-.97,4.56-2.92,6.21-1.9,1.64-4.41,2.46-7.49,2.46-5.8,0-9.9-2.67-12.21-7.95l5.9-3.64c1.38,3.54,3.54,5.33,6.41,5.33,2,0,3.23-.77,3.23-2,0-1.49-1.38-2.26-4.87-2.92-5.28-1.03-8.92-3.8-8.92-8.16,0-2.31.92-4.15,2.77-5.49,1.9-1.38,4.15-2.05,6.87-2.05,5.59,0,8.57,2,10.87,6.51l-5.54,3.23c-.87-2.82-2.92-4.31-5.23-4.31-2,0-2.98.56-2.98,1.74Z" class="cls-1"></path>
    <path d="M322.57,36.65v-15.39h7.69v13.69c0,3.28,1.64,5.18,4.51,5.18,3.34,0,5.13-2.72,5.13-6.62v-12.26h7.69v25.44h-7.69v-3.69c-1.69,2.82-3.79,4.41-7.9,4.41-2.72,0-4.97-.97-6.77-2.87-1.79-1.95-2.67-4.56-2.67-7.9Z" class="cls-1"></path>
    <path d="M316.39,24.14c2.77,2.31,4.15,5.59,4.15,9.85s-1.39,7.54-4.15,9.9c-2.77,2.36-6.1,3.54-10,3.54s-7.18-1.18-9.95-3.54c-2.72-2.36-4.1-5.64-4.1-9.9s1.39-7.54,4.1-9.9c2.77-2.36,6.1-3.54,9.95-3.54s7.23,1.18,10,3.59ZM301.98,38.5c1.23,1.08,2.72,1.64,4.41,1.64s3.23-.56,4.46-1.64c1.28-1.13,1.9-2.62,1.9-4.51s-.62-3.38-1.9-4.46c-1.23-1.13-2.72-1.69-4.46-1.69s-3.18.56-4.41,1.69c-1.23,1.08-1.85,2.56-1.85,4.46s.62,3.39,1.85,4.51Z" class="cls-1"></path>
    <path d="M290.21,29.37v17.34h-7.69v-13.59c0-3.23-1.69-5.28-4.77-5.28s-5.49,2.67-5.49,6.62v12.26h-7.69V10.8h7.69v14c2.21-2.82,5.13-4.26,8.72-4.26,5.59,0,9.23,3.44,9.23,8.82Z" class="cls-1"></path>
    <path d="M164.56,79.65h-17.29v13.92h-8.26v-35.69h27.03v7.24h-18.76v7.5h17.29v7.04ZM176.69,93.57h-7.65v-25.29h7.65v25.29ZM176.99,65.32h-8.26v-8.16h8.26v8.16ZM205.18,76.34v17.23h-7.65v-13.77c0-3.01-1.48-5-4.49-5s-5.1,2.55-5.1,6.58v12.19h-7.65v-25.29h7.65v3.62c2.09-2.91,4.79-4.33,8.21-4.33,5.66,0,9.03,3.52,9.03,8.77ZM232.97,93.57h-7.75c-.71-.71-1.12-1.78-1.22-3.26-1.89,2.65-4.44,3.98-7.75,3.98-5.56,0-8.92-3.31-8.92-8.06s3.93-7.44,9.89-8.41l6.42-1.02v-.46c0-2.45-1.33-3.67-3.93-3.67-2.29,0-3.88.87-3.88,2.29,0,.15,0,.31.05.46l-6.93,2.35c-.25-1.02-.41-1.84-.41-2.45,0-2.29,1.07-4.18,3.16-5.61,2.14-1.43,4.79-2.14,8.01-2.14,7.7,0,11.58,3.21,11.58,9.59v10.15c0,2.55.56,4.64,1.68,6.27ZM217.82,88.37c1.73,0,3.11-.61,4.18-1.84,1.07-1.27,1.63-2.7,1.63-4.33v-.46l-5.41.92c-2.29.36-3.47,1.38-3.47,3.06,0,1.43,1.22,2.65,3.06,2.65ZM259.67,76.34v17.23h-7.65v-13.77c0-3.01-1.48-5-4.49-5s-5.1,2.55-5.1,6.58v12.19h-7.65v-25.29h7.65v3.62c2.09-2.91,4.79-4.33,8.21-4.33,5.66,0,9.03,3.52,9.03,8.77ZM281.07,82.86l6.32,4.08c-2.45,4.9-6.48,7.34-12.08,7.34-3.87,0-7.09-1.22-9.69-3.67-2.55-2.5-3.82-5.71-3.82-9.69s1.33-7.09,3.98-9.59c2.65-2.5,5.81-3.77,9.54-3.77,5.56,0,9.48,2.29,11.78,6.88l-6.17,4.13c-1.27-2.65-3.11-3.98-5.61-3.98-3.42,0-5.76,2.45-5.76,6.32s2.24,6.32,5.71,6.32c2.55,0,4.49-1.48,5.81-4.39ZM297.22,93.57h-7.65v-25.29h7.65v25.29ZM297.53,65.32h-8.26v-8.16h8.26v8.16ZM325.16,93.57h-7.75c-.71-.71-1.12-1.78-1.22-3.26-1.89,2.65-4.44,3.98-7.75,3.98-5.56,0-8.92-3.31-8.92-8.06s3.93-7.44,9.89-8.41l6.42-1.02v-.46c0-2.45-1.32-3.67-3.93-3.67-2.29,0-3.87.87-3.87,2.29,0,.15,0,.31.05.46l-6.93,2.35c-.26-1.02-.41-1.84-.41-2.45,0-2.29,1.07-4.18,3.16-5.61,2.14-1.43,4.79-2.14,8.01-2.14,7.7,0,11.57,3.21,11.57,9.59v10.15c0,2.55.56,4.64,1.68,6.27ZM310.02,88.37c1.73,0,3.11-.61,4.18-1.84,1.07-1.27,1.63-2.7,1.63-4.33v-.46l-5.4.92c-2.29.36-3.47,1.38-3.47,3.06,0,1.43,1.22,2.65,3.06,2.65ZM334.68,93.57h-7.65v-35.69h7.65v35.69Z" class="cls-1"></path>
    <path d="M247.42,27.99l6.77-6.72h6.81v2.61l-6.51,6.36,6.51,10.14v6.32h-5.02l-7.03-11.03-1.54,1.54v9.49h-7.69V10.8h7.69v17.18ZM265.06,46.71h-.5v-.78l.5.78Z" class="cls-1"></path>
  </g>
  <path d="M121.25,2.58l-22.38,22.38c-2.52,2.52-5.6,4.35-8.94,5.38-2.03.62-4.16.94-6.32.94h-41.67c-2.16,0-4.29-.32-6.32-.94-3.35-1.03-6.42-2.86-8.94-5.38C19.21,17.49,11.76,10.04,4.3,2.57c-.7-.7-1.4-1.39-2.09-2.09.16,1.53.38,3.17.71,4.9.62,3.31,1.58,6.97,3.07,10.81.6,1.55,1.25,3.03,1.94,4.45,1.75,3.6,3.74,6.78,5.81,9.59,3.9,5.28,9.2,9.24,15.18,11.55,3.93,1.52,8.16,2.32,12.48,2.32h42.74c4.32,0,8.55-.81,12.48-2.32,5.98-2.31,11.27-6.26,15.18-11.55,2.07-2.8,4.06-5.99,5.81-9.58.69-1.42,1.34-2.9,1.94-4.45,1.49-3.84,2.46-7.49,3.07-10.81.33-1.73.55-3.37.71-4.9-.7.7-1.4,1.4-2.09,2.09ZM6.86,48.01l14.72,14.73h23.31l-11.65,11.65,9.06,9.06,20.71-20.71h40.49l14.73-14.73c-5.01-5-13.12-5.01-18.13,0l-1.91,1.91H26.89l-1.91-1.91c-2.5-2.5-5.78-3.75-9.06-3.75s-6.56,1.25-9.06,3.75ZM66.24,68.56l-19.62,19.22,8.45,8.45c4.12,4.12,10.81,4.12,14.93,0l27.67-27.67h-31.43Z" class="cls-1"></path>
</svg>