<svg xmlns="http://www.w3.org/2000/svg" fill="none" viewBox="0 0 88 72" height="72" width="88">
<mask height="72" width="88" y="0" x="0" maskUnits="userSpaceOnUse" style="mask-type:luminance" id="mask0_1218_452">
<path fill="#FFFDF1" d="M86.4729 1.52145L70.2173 17.7771C68.3872 19.6073 66.1527 20.9373 63.7213 21.6821C62.2478 22.1343 60.7022 22.3684 59.1329 22.3684H28.8588C27.2895 22.3684 25.7439 22.1343 24.2702 21.6821C21.8391 20.9373 19.6044 19.6073 17.7745 17.7771C12.3534 12.3559 6.93743 6.94004 1.51896 1.51884C1.01359 1.01359 0.505367 0.505486 0 0C0.114499 1.10928 0.279226 2.30104 0.516078 3.55911C0.962885 5.96643 1.66261 8.62123 2.74785 11.4089C3.18396 12.5342 3.65754 13.6116 4.15754 14.641C5.42655 17.253 6.87351 19.5673 8.37926 21.605C11.2147 25.4434 15.0611 28.3163 19.405 29.9921C22.2619 31.0933 25.3316 31.6786 28.4706 31.6786H59.5212C62.6601 31.6786 65.7298 31.0933 68.5867 29.9921C72.9306 28.3163 76.7769 25.4434 79.6125 21.605C81.1154 19.5699 82.5652 17.253 83.8315 14.6436C84.3343 13.6142 84.8076 12.5342 85.2438 11.4089C86.3293 8.62123 87.0288 5.96643 87.4757 3.55911C87.7125 2.30104 87.8773 1.10928 87.9919 0C87.4838 0.508105 86.9782 1.01359 86.4729 1.52145ZM3.37558 34.5233L14.0717 45.2219H31.003L22.5387 53.6863L29.1223 60.2699L44.1702 45.2219H73.5823L84.2839 34.5233C80.6476 30.8896 74.7528 30.887 71.1165 34.5233L69.7307 35.9119H17.9289L16.5403 34.5233C14.7235 32.7065 12.3401 31.7967 9.95927 31.7967C7.57585 31.7967 5.19245 32.7065 3.37558 34.5233ZM46.5159 49.4542L32.2665 63.4143L38.4059 69.5533C41.4009 72.5485 46.2567 72.5485 49.2517 69.5533L69.351 49.4542H46.5159Z"></path>
</mask>
<g mask="url(#mask0_1218_452)">
<path fill="#FFFDF1" d="M88.1582 0.0175781H-0.166283V71.7811H88.1582V0.0175781Z"></path>
</g>
</svg>
