<svg width="106" height="24" viewBox="0 0 106 24" fill="none" xmlns="http://www.w3.org/2000/svg">
<path fill-rule="evenodd" clip-rule="evenodd" d="M7.99992 15.9998H11.9999V11.9999H7.99992V7.99992H15.9998V19.9998H3.99996V15.9998H0V0H15.9998V3.99996H3.99996V7.99992V15.9998H7.99992Z" fill="#717CF5"/>
<path d="M19.9995 4H15.9995V7.99996H19.9995V4Z" fill="#FF8099"/>
<path d="M3.99996 20H0V24H3.99996V20Z" fill="#1E1C2D"/>
<mask id="path-4-outside-1_2415_13630" maskUnits="userSpaceOnUse" x="28.5996" y="4.11719" width="77" height="15" fill="black">
<rect fill="white" x="28.5996" y="4.11719" width="77" height="15"/>
<path d="M35.8012 18.8836C31.5004 18.8836 29.5996 15.9652 29.5996 12.1636C29.5996 8.38119 31.6156 5.44359 36.1468 5.44359C40.0828 5.44359 41.9836 7.17159 42.3292 10.282H40.2748C40.006 8.15079 38.7772 7.07559 36.07 7.07559C32.9788 7.07559 31.6732 8.84199 31.6732 12.1636C31.6732 15.4468 32.902 17.2516 36.0892 17.2516C39.0844 17.2516 40.1404 15.562 40.39 13.6228H34.9948V12.1636H42.31V18.5572H40.5244V15.85C39.9292 17.6932 38.278 18.8836 35.8012 18.8836Z"/>
<path d="M47.4227 18.8068C45.4643 18.8068 44.2355 17.7508 44.2355 15.9844C44.2355 14.4484 45.0035 13.45 47.1539 13.0852L49.5539 12.682C50.4755 12.5284 50.8979 12.2404 50.8979 11.5684C50.8979 10.7044 50.4371 10.1092 48.7859 10.1092C47.2115 10.1092 46.4627 10.7428 46.3667 11.9524H44.4467C44.4659 9.91719 45.9827 8.63079 48.7091 8.63079C51.3587 8.63079 52.6643 9.84039 52.6643 11.6068V16.3684C52.6643 17.0788 52.6835 17.6548 52.7603 18.5572H51.0131C50.9363 17.8084 50.8979 17.1556 50.8979 16.3876C50.5139 17.5972 49.4579 18.8068 47.4227 18.8068ZM47.8259 17.3284C49.8419 17.3284 50.8979 15.8116 50.8979 13.8916V13.3156C50.3795 13.6996 49.7651 13.8532 49.1891 13.9876L47.8643 14.2948C46.6739 14.5636 46.1555 15.0244 46.1555 15.9076C46.1555 16.8292 46.8275 17.3284 47.8259 17.3284Z"/>
<path d="M61.5716 8.95719H63.4916V18.5572H61.5716V16.4644C61.0148 17.866 59.978 18.8644 58.1732 18.8644C55.6196 18.8644 54.602 17.4628 54.602 14.9476V8.95719H56.522V14.7748C56.522 16.7908 57.482 17.2708 58.7684 17.2708C60.4772 17.2708 61.5716 15.8692 61.5716 13.0084V8.95719Z"/>
<path d="M71.191 8.64999C73.7446 8.64999 74.6854 10.0516 74.6854 12.5668V18.5572H72.7654V12.7396C72.7654 10.7236 71.8438 10.2436 70.6342 10.2436C68.7526 10.2436 67.7158 11.4532 67.7158 14.506V18.5572H65.7958V8.95719H67.7158V11.1076C68.2918 9.68679 69.3478 8.64999 71.191 8.64999Z"/>
<path d="M80.5969 18.5572C78.2737 18.5572 77.6977 17.6548 77.6977 15.7348V10.4356H75.8737V9.12031L77.6977 8.95719L78.6577 6.78759H79.6177V8.95719H82.6897V10.4356H79.6177V17.0212H82.4977V18.5572H80.5969Z"/>
<path d="M84.3868 18.5572V5.11719H86.3068V18.5572H84.3868Z"/>
<path d="M92.9951 17.4436C94.7423 17.4436 95.5103 16.6564 95.7791 15.658H97.5455C97.3727 16.9828 96.3167 18.8644 92.9375 18.8644C89.5199 18.8644 88.0799 16.5796 88.0799 13.738C88.0799 10.9348 89.6543 8.64999 92.9375 8.64999C95.9903 8.64999 97.5647 10.8196 97.5647 13.5652C97.5647 13.8148 97.5647 14.0452 97.5263 14.2948H89.9615C90.1151 16.714 91.3439 17.4436 92.9951 17.4436ZM92.9567 10.0708C91.3055 10.0708 90.2111 10.762 89.9807 12.8932H95.7215C95.6255 10.954 94.6655 10.0708 92.9567 10.0708Z"/>
<path d="M102.948 18.5572C100.625 18.5572 100.049 17.6548 100.049 15.7348V10.4356H98.2249V9.12031L100.049 8.95719L101.009 6.78759H101.969V8.95719H105.041V10.4356H101.969V17.0212H104.849V18.5572H102.948Z"/>
</mask>
<path d="M35.8012 18.8836C31.5004 18.8836 29.5996 15.9652 29.5996 12.1636C29.5996 8.38119 31.6156 5.44359 36.1468 5.44359C40.0828 5.44359 41.9836 7.17159 42.3292 10.282H40.2748C40.006 8.15079 38.7772 7.07559 36.07 7.07559C32.9788 7.07559 31.6732 8.84199 31.6732 12.1636C31.6732 15.4468 32.902 17.2516 36.0892 17.2516C39.0844 17.2516 40.1404 15.562 40.39 13.6228H34.9948V12.1636H42.31V18.5572H40.5244V15.85C39.9292 17.6932 38.278 18.8836 35.8012 18.8836Z" fill="#212125"/>
<path d="M47.4227 18.8068C45.4643 18.8068 44.2355 17.7508 44.2355 15.9844C44.2355 14.4484 45.0035 13.45 47.1539 13.0852L49.5539 12.682C50.4755 12.5284 50.8979 12.2404 50.8979 11.5684C50.8979 10.7044 50.4371 10.1092 48.7859 10.1092C47.2115 10.1092 46.4627 10.7428 46.3667 11.9524H44.4467C44.4659 9.91719 45.9827 8.63079 48.7091 8.63079C51.3587 8.63079 52.6643 9.84039 52.6643 11.6068V16.3684C52.6643 17.0788 52.6835 17.6548 52.7603 18.5572H51.0131C50.9363 17.8084 50.8979 17.1556 50.8979 16.3876C50.5139 17.5972 49.4579 18.8068 47.4227 18.8068ZM47.8259 17.3284C49.8419 17.3284 50.8979 15.8116 50.8979 13.8916V13.3156C50.3795 13.6996 49.7651 13.8532 49.1891 13.9876L47.8643 14.2948C46.6739 14.5636 46.1555 15.0244 46.1555 15.9076C46.1555 16.8292 46.8275 17.3284 47.8259 17.3284Z" fill="#212125"/>
<path d="M61.5716 8.95719H63.4916V18.5572H61.5716V16.4644C61.0148 17.866 59.978 18.8644 58.1732 18.8644C55.6196 18.8644 54.602 17.4628 54.602 14.9476V8.95719H56.522V14.7748C56.522 16.7908 57.482 17.2708 58.7684 17.2708C60.4772 17.2708 61.5716 15.8692 61.5716 13.0084V8.95719Z" fill="#212125"/>
<path d="M71.191 8.64999C73.7446 8.64999 74.6854 10.0516 74.6854 12.5668V18.5572H72.7654V12.7396C72.7654 10.7236 71.8438 10.2436 70.6342 10.2436C68.7526 10.2436 67.7158 11.4532 67.7158 14.506V18.5572H65.7958V8.95719H67.7158V11.1076C68.2918 9.68679 69.3478 8.64999 71.191 8.64999Z" fill="#212125"/>
<path d="M80.5969 18.5572C78.2737 18.5572 77.6977 17.6548 77.6977 15.7348V10.4356H75.8737V9.12031L77.6977 8.95719L78.6577 6.78759H79.6177V8.95719H82.6897V10.4356H79.6177V17.0212H82.4977V18.5572H80.5969Z" fill="#212125"/>
<path d="M84.3868 18.5572V5.11719H86.3068V18.5572H84.3868Z" fill="#212125"/>
<path d="M92.9951 17.4436C94.7423 17.4436 95.5103 16.6564 95.7791 15.658H97.5455C97.3727 16.9828 96.3167 18.8644 92.9375 18.8644C89.5199 18.8644 88.0799 16.5796 88.0799 13.738C88.0799 10.9348 89.6543 8.64999 92.9375 8.64999C95.9903 8.64999 97.5647 10.8196 97.5647 13.5652C97.5647 13.8148 97.5647 14.0452 97.5263 14.2948H89.9615C90.1151 16.714 91.3439 17.4436 92.9951 17.4436ZM92.9567 10.0708C91.3055 10.0708 90.2111 10.762 89.9807 12.8932H95.7215C95.6255 10.954 94.6655 10.0708 92.9567 10.0708Z" fill="#212125"/>
<path d="M102.948 18.5572C100.625 18.5572 100.049 17.6548 100.049 15.7348V10.4356H98.2249V9.12031L100.049 8.95719L101.009 6.78759H101.969V8.95719H105.041V10.4356H101.969V17.0212H104.849V18.5572H102.948Z" fill="#212125"/>
<path d="M35.8012 18.8836C31.5004 18.8836 29.5996 15.9652 29.5996 12.1636C29.5996 8.38119 31.6156 5.44359 36.1468 5.44359C40.0828 5.44359 41.9836 7.17159 42.3292 10.282H40.2748C40.006 8.15079 38.7772 7.07559 36.07 7.07559C32.9788 7.07559 31.6732 8.84199 31.6732 12.1636C31.6732 15.4468 32.902 17.2516 36.0892 17.2516C39.0844 17.2516 40.1404 15.562 40.39 13.6228H34.9948V12.1636H42.31V18.5572H40.5244V15.85C39.9292 17.6932 38.278 18.8836 35.8012 18.8836Z" stroke="#212125" stroke-width="0.25" mask="url(#path-4-outside-1_2415_13630)"/>
<path d="M47.4227 18.8068C45.4643 18.8068 44.2355 17.7508 44.2355 15.9844C44.2355 14.4484 45.0035 13.45 47.1539 13.0852L49.5539 12.682C50.4755 12.5284 50.8979 12.2404 50.8979 11.5684C50.8979 10.7044 50.4371 10.1092 48.7859 10.1092C47.2115 10.1092 46.4627 10.7428 46.3667 11.9524H44.4467C44.4659 9.91719 45.9827 8.63079 48.7091 8.63079C51.3587 8.63079 52.6643 9.84039 52.6643 11.6068V16.3684C52.6643 17.0788 52.6835 17.6548 52.7603 18.5572H51.0131C50.9363 17.8084 50.8979 17.1556 50.8979 16.3876C50.5139 17.5972 49.4579 18.8068 47.4227 18.8068ZM47.8259 17.3284C49.8419 17.3284 50.8979 15.8116 50.8979 13.8916V13.3156C50.3795 13.6996 49.7651 13.8532 49.1891 13.9876L47.8643 14.2948C46.6739 14.5636 46.1555 15.0244 46.1555 15.9076C46.1555 16.8292 46.8275 17.3284 47.8259 17.3284Z" stroke="#212125" stroke-width="0.25" mask="url(#path-4-outside-1_2415_13630)"/>
<path d="M61.5716 8.95719H63.4916V18.5572H61.5716V16.4644C61.0148 17.866 59.978 18.8644 58.1732 18.8644C55.6196 18.8644 54.602 17.4628 54.602 14.9476V8.95719H56.522V14.7748C56.522 16.7908 57.482 17.2708 58.7684 17.2708C60.4772 17.2708 61.5716 15.8692 61.5716 13.0084V8.95719Z" stroke="#212125" stroke-width="0.25" mask="url(#path-4-outside-1_2415_13630)"/>
<path d="M71.191 8.64999C73.7446 8.64999 74.6854 10.0516 74.6854 12.5668V18.5572H72.7654V12.7396C72.7654 10.7236 71.8438 10.2436 70.6342 10.2436C68.7526 10.2436 67.7158 11.4532 67.7158 14.506V18.5572H65.7958V8.95719H67.7158V11.1076C68.2918 9.68679 69.3478 8.64999 71.191 8.64999Z" stroke="#212125" stroke-width="0.25" mask="url(#path-4-outside-1_2415_13630)"/>
<path d="M80.5969 18.5572C78.2737 18.5572 77.6977 17.6548 77.6977 15.7348V10.4356H75.8737V9.12031L77.6977 8.95719L78.6577 6.78759H79.6177V8.95719H82.6897V10.4356H79.6177V17.0212H82.4977V18.5572H80.5969Z" stroke="#212125" stroke-width="0.25" mask="url(#path-4-outside-1_2415_13630)"/>
<path d="M84.3868 18.5572V5.11719H86.3068V18.5572H84.3868Z" stroke="#212125" stroke-width="0.25" mask="url(#path-4-outside-1_2415_13630)"/>
<path d="M92.9951 17.4436C94.7423 17.4436 95.5103 16.6564 95.7791 15.658H97.5455C97.3727 16.9828 96.3167 18.8644 92.9375 18.8644C89.5199 18.8644 88.0799 16.5796 88.0799 13.738C88.0799 10.9348 89.6543 8.64999 92.9375 8.64999C95.9903 8.64999 97.5647 10.8196 97.5647 13.5652C97.5647 13.8148 97.5647 14.0452 97.5263 14.2948H89.9615C90.1151 16.714 91.3439 17.4436 92.9951 17.4436ZM92.9567 10.0708C91.3055 10.0708 90.2111 10.762 89.9807 12.8932H95.7215C95.6255 10.954 94.6655 10.0708 92.9567 10.0708Z" stroke="#212125" stroke-width="0.25" mask="url(#path-4-outside-1_2415_13630)"/>
<path d="M102.948 18.5572C100.625 18.5572 100.049 17.6548 100.049 15.7348V10.4356H98.2249V9.12031L100.049 8.95719L101.009 6.78759H101.969V8.95719H105.041V10.4356H101.969V17.0212H104.849V18.5572H102.948Z" stroke="#212125" stroke-width="0.25" mask="url(#path-4-outside-1_2415_13630)"/>
</svg>
