<svg width="219" height="50" viewBox="0 0 219 50" fill="none" xmlns="http://www.w3.org/2000/svg">
<path fill-rule="evenodd" clip-rule="evenodd" d="M16.6665 33.333H24.9998V24.9998H16.6665V16.6665H33.333V41.6663H8.33325V33.333H0V0H33.333V8.33325H8.33325V16.6665V33.333H16.6665Z" fill="#717CF5"/>
<path d="M41.6658 8.33203H33.3325V16.6653H41.6658V8.33203Z" fill="#FF8099"/>
<path d="M8.33325 41.668H0V50.0012H8.33325V41.668Z" fill="#FBFAFF"/>
<mask id="path-4-outside-1_2415_13624" maskUnits="userSpaceOnUse" x="60.666" y="9.66016" width="159" height="30" fill="black">
<rect fill="white" x="60.666" y="9.66016" width="159" height="30"/>
<path d="M74.586 39.3402C65.626 39.3402 61.666 33.2602 61.666 25.3402C61.666 17.4602 65.866 11.3402 75.306 11.3402C83.506 11.3402 87.466 14.9402 88.186 21.4202H83.906C83.346 16.9802 80.786 14.7402 75.146 14.7402C68.706 14.7402 65.986 18.4202 65.986 25.3402C65.986 32.1802 68.546 35.9402 75.186 35.9402C81.426 35.9402 83.626 32.4202 84.146 28.3802H72.906V25.3402H88.146V38.6602H84.426V33.0202C83.186 36.8602 79.746 39.3402 74.586 39.3402Z"/>
<path d="M98.7975 39.1802C94.7175 39.1802 92.1575 36.9802 92.1575 33.3002C92.1575 30.1002 93.7575 28.0202 98.2375 27.2602L103.238 26.4202C105.158 26.1002 106.038 25.5002 106.038 24.1002C106.038 22.3002 105.078 21.0602 101.638 21.0602C98.3575 21.0602 96.7975 22.3802 96.5975 24.9002H92.5975C92.6375 20.6602 95.7975 17.9802 101.478 17.9802C106.998 17.9802 109.718 20.5002 109.718 24.1802V34.1002C109.718 35.5802 109.758 36.7802 109.918 38.6602H106.278C106.118 37.1002 106.038 35.7402 106.038 34.1402C105.238 36.6602 103.038 39.1802 98.7975 39.1802ZM99.6375 36.1002C103.838 36.1002 106.038 32.9402 106.038 28.9402V27.7402C104.958 28.5402 103.678 28.8602 102.478 29.1402L99.7175 29.7802C97.2375 30.3402 96.1575 31.3002 96.1575 33.1402C96.1575 35.0602 97.5575 36.1002 99.6375 36.1002Z"/>
<path d="M128.274 18.6602H132.274V38.6602H128.274V34.3002C127.114 37.2202 124.954 39.3002 121.194 39.3002C115.874 39.3002 113.754 36.3802 113.754 31.1402V18.6602H117.754V30.7802C117.754 34.9802 119.754 35.9802 122.434 35.9802C125.994 35.9802 128.274 33.0602 128.274 27.1002V18.6602Z"/>
<path d="M148.315 18.0202C153.635 18.0202 155.595 20.9402 155.595 26.1802V38.6602H151.595V26.5402C151.595 22.3402 149.675 21.3402 147.155 21.3402C143.235 21.3402 141.075 23.8602 141.075 30.2202V38.6602H137.075V18.6602H141.075V23.1402C142.275 20.1802 144.475 18.0202 148.315 18.0202Z"/>
<path d="M167.91 38.6602C163.07 38.6602 161.87 36.7802 161.87 32.7802V21.7402H158.07V19L161.87 18.6602L163.87 14.1402H165.87V18.6602H172.27V21.7402H165.87V35.4602H171.87V38.6602H167.91Z"/>
<path d="M175.806 38.6602V10.6602H179.806V38.6602H175.806Z"/>
<path d="M193.74 36.3402C197.38 36.3402 198.98 34.7002 199.54 32.6202H203.22C202.86 35.3802 200.66 39.3002 193.62 39.3002C186.5 39.3002 183.5 34.5402 183.5 28.6202C183.5 22.7802 186.78 18.0202 193.62 18.0202C199.98 18.0202 203.26 22.5402 203.26 28.2602C203.26 28.7802 203.26 29.2602 203.18 29.7802H187.42C187.74 34.8202 190.3 36.3402 193.74 36.3402ZM193.66 20.9802C190.22 20.9802 187.94 22.4202 187.46 26.8602H199.42C199.22 22.8202 197.22 20.9802 193.66 20.9802Z"/>
<path d="M214.475 38.6602C209.635 38.6602 208.435 36.7802 208.435 32.7802V21.7402H204.635V19L208.435 18.6602L210.435 14.1402H212.435V18.6602H218.835V21.7402H212.435V35.4602H218.435V38.6602H214.475Z"/>
</mask>
<path d="M74.586 39.3402C65.626 39.3402 61.666 33.2602 61.666 25.3402C61.666 17.4602 65.866 11.3402 75.306 11.3402C83.506 11.3402 87.466 14.9402 88.186 21.4202H83.906C83.346 16.9802 80.786 14.7402 75.146 14.7402C68.706 14.7402 65.986 18.4202 65.986 25.3402C65.986 32.1802 68.546 35.9402 75.186 35.9402C81.426 35.9402 83.626 32.4202 84.146 28.3802H72.906V25.3402H88.146V38.6602H84.426V33.0202C83.186 36.8602 79.746 39.3402 74.586 39.3402Z" fill="#FBFAFF"/>
<path d="M98.7975 39.1802C94.7175 39.1802 92.1575 36.9802 92.1575 33.3002C92.1575 30.1002 93.7575 28.0202 98.2375 27.2602L103.238 26.4202C105.158 26.1002 106.038 25.5002 106.038 24.1002C106.038 22.3002 105.078 21.0602 101.638 21.0602C98.3575 21.0602 96.7975 22.3802 96.5975 24.9002H92.5975C92.6375 20.6602 95.7975 17.9802 101.478 17.9802C106.998 17.9802 109.718 20.5002 109.718 24.1802V34.1002C109.718 35.5802 109.758 36.7802 109.918 38.6602H106.278C106.118 37.1002 106.038 35.7402 106.038 34.1402C105.238 36.6602 103.038 39.1802 98.7975 39.1802ZM99.6375 36.1002C103.838 36.1002 106.038 32.9402 106.038 28.9402V27.7402C104.958 28.5402 103.678 28.8602 102.478 29.1402L99.7175 29.7802C97.2375 30.3402 96.1575 31.3002 96.1575 33.1402C96.1575 35.0602 97.5575 36.1002 99.6375 36.1002Z" fill="#FBFAFF"/>
<path d="M128.274 18.6602H132.274V38.6602H128.274V34.3002C127.114 37.2202 124.954 39.3002 121.194 39.3002C115.874 39.3002 113.754 36.3802 113.754 31.1402V18.6602H117.754V30.7802C117.754 34.9802 119.754 35.9802 122.434 35.9802C125.994 35.9802 128.274 33.0602 128.274 27.1002V18.6602Z" fill="#FBFAFF"/>
<path d="M148.315 18.0202C153.635 18.0202 155.595 20.9402 155.595 26.1802V38.6602H151.595V26.5402C151.595 22.3402 149.675 21.3402 147.155 21.3402C143.235 21.3402 141.075 23.8602 141.075 30.2202V38.6602H137.075V18.6602H141.075V23.1402C142.275 20.1802 144.475 18.0202 148.315 18.0202Z" fill="#FBFAFF"/>
<path d="M167.91 38.6602C163.07 38.6602 161.87 36.7802 161.87 32.7802V21.7402H158.07V19L161.87 18.6602L163.87 14.1402H165.87V18.6602H172.27V21.7402H165.87V35.4602H171.87V38.6602H167.91Z" fill="#FBFAFF"/>
<path d="M175.806 38.6602V10.6602H179.806V38.6602H175.806Z" fill="#FBFAFF"/>
<path d="M193.74 36.3402C197.38 36.3402 198.98 34.7002 199.54 32.6202H203.22C202.86 35.3802 200.66 39.3002 193.62 39.3002C186.5 39.3002 183.5 34.5402 183.5 28.6202C183.5 22.7802 186.78 18.0202 193.62 18.0202C199.98 18.0202 203.26 22.5402 203.26 28.2602C203.26 28.7802 203.26 29.2602 203.18 29.7802H187.42C187.74 34.8202 190.3 36.3402 193.74 36.3402ZM193.66 20.9802C190.22 20.9802 187.94 22.4202 187.46 26.8602H199.42C199.22 22.8202 197.22 20.9802 193.66 20.9802Z" fill="#FBFAFF"/>
<path d="M214.475 38.6602C209.635 38.6602 208.435 36.7802 208.435 32.7802V21.7402H204.635V19L208.435 18.6602L210.435 14.1402H212.435V18.6602H218.835V21.7402H212.435V35.4602H218.435V38.6602H214.475Z" fill="#FBFAFF"/>
<path d="M74.586 39.3402C65.626 39.3402 61.666 33.2602 61.666 25.3402C61.666 17.4602 65.866 11.3402 75.306 11.3402C83.506 11.3402 87.466 14.9402 88.186 21.4202H83.906C83.346 16.9802 80.786 14.7402 75.146 14.7402C68.706 14.7402 65.986 18.4202 65.986 25.3402C65.986 32.1802 68.546 35.9402 75.186 35.9402C81.426 35.9402 83.626 32.4202 84.146 28.3802H72.906V25.3402H88.146V38.6602H84.426V33.0202C83.186 36.8602 79.746 39.3402 74.586 39.3402Z" stroke="#FBFAFF" stroke-width="0.25" mask="url(#path-4-outside-1_2415_13624)"/>
<path d="M98.7975 39.1802C94.7175 39.1802 92.1575 36.9802 92.1575 33.3002C92.1575 30.1002 93.7575 28.0202 98.2375 27.2602L103.238 26.4202C105.158 26.1002 106.038 25.5002 106.038 24.1002C106.038 22.3002 105.078 21.0602 101.638 21.0602C98.3575 21.0602 96.7975 22.3802 96.5975 24.9002H92.5975C92.6375 20.6602 95.7975 17.9802 101.478 17.9802C106.998 17.9802 109.718 20.5002 109.718 24.1802V34.1002C109.718 35.5802 109.758 36.7802 109.918 38.6602H106.278C106.118 37.1002 106.038 35.7402 106.038 34.1402C105.238 36.6602 103.038 39.1802 98.7975 39.1802ZM99.6375 36.1002C103.838 36.1002 106.038 32.9402 106.038 28.9402V27.7402C104.958 28.5402 103.678 28.8602 102.478 29.1402L99.7175 29.7802C97.2375 30.3402 96.1575 31.3002 96.1575 33.1402C96.1575 35.0602 97.5575 36.1002 99.6375 36.1002Z" stroke="#FBFAFF" stroke-width="0.25" mask="url(#path-4-outside-1_2415_13624)"/>
<path d="M128.274 18.6602H132.274V38.6602H128.274V34.3002C127.114 37.2202 124.954 39.3002 121.194 39.3002C115.874 39.3002 113.754 36.3802 113.754 31.1402V18.6602H117.754V30.7802C117.754 34.9802 119.754 35.9802 122.434 35.9802C125.994 35.9802 128.274 33.0602 128.274 27.1002V18.6602Z" stroke="#FBFAFF" stroke-width="0.25" mask="url(#path-4-outside-1_2415_13624)"/>
<path d="M148.315 18.0202C153.635 18.0202 155.595 20.9402 155.595 26.1802V38.6602H151.595V26.5402C151.595 22.3402 149.675 21.3402 147.155 21.3402C143.235 21.3402 141.075 23.8602 141.075 30.2202V38.6602H137.075V18.6602H141.075V23.1402C142.275 20.1802 144.475 18.0202 148.315 18.0202Z" stroke="#FBFAFF" stroke-width="0.25" mask="url(#path-4-outside-1_2415_13624)"/>
<path d="M167.91 38.6602C163.07 38.6602 161.87 36.7802 161.87 32.7802V21.7402H158.07V19L161.87 18.6602L163.87 14.1402H165.87V18.6602H172.27V21.7402H165.87V35.4602H171.87V38.6602H167.91Z" stroke="#FBFAFF" stroke-width="0.25" mask="url(#path-4-outside-1_2415_13624)"/>
<path d="M175.806 38.6602V10.6602H179.806V38.6602H175.806Z" stroke="#FBFAFF" stroke-width="0.25" mask="url(#path-4-outside-1_2415_13624)"/>
<path d="M193.74 36.3402C197.38 36.3402 198.98 34.7002 199.54 32.6202H203.22C202.86 35.3802 200.66 39.3002 193.62 39.3002C186.5 39.3002 183.5 34.5402 183.5 28.6202C183.5 22.7802 186.78 18.0202 193.62 18.0202C199.98 18.0202 203.26 22.5402 203.26 28.2602C203.26 28.7802 203.26 29.2602 203.18 29.7802H187.42C187.74 34.8202 190.3 36.3402 193.74 36.3402ZM193.66 20.9802C190.22 20.9802 187.94 22.4202 187.46 26.8602H199.42C199.22 22.8202 197.22 20.9802 193.66 20.9802Z" stroke="#FBFAFF" stroke-width="0.25" mask="url(#path-4-outside-1_2415_13624)"/>
<path d="M214.475 38.6602C209.635 38.6602 208.435 36.7802 208.435 32.7802V21.7402H204.635V19L208.435 18.6602L210.435 14.1402H212.435V18.6602H218.835V21.7402H212.435V35.4602H218.435V38.6602H214.475Z" stroke="#FBFAFF" stroke-width="0.25" mask="url(#path-4-outside-1_2415_13624)"/>
</svg>
