<svg width="32" height="32" viewBox="0 0 32 32" fill="none" xmlns="http://www.w3.org/2000/svg">
<rect width="32" height="32" rx="16" fill="#010304"/>
<path d="M17.3714 4.11465H14.6286V6.96085C13.1095 7.19133 11.6651 7.80234 10.4343 8.74671C8.83765 9.9719 7.68984 11.6897 7.16895 13.6337L9.81826 14.3436C10.1829 12.9828 10.9864 11.7803 12.104 10.9227C12.8537 10.3475 13.7166 9.94895 14.6286 9.74885V14.6581H12.343V17.4009H14.6286V22.2404C13.7166 22.0403 12.8537 21.6418 12.1041 21.0666C10.9864 20.2089 10.1829 19.0065 9.8183 17.6457L7.16899 18.3555C7.68989 20.2995 8.83769 22.0174 10.4344 23.2426C11.6651 24.1869 13.1095 24.7979 14.6286 25.0284V27.8853H17.3714V25.0284C18.8905 24.7979 20.335 24.1869 21.5657 23.2426C23.1624 22.0174 24.3102 20.2996 24.8311 18.3555L22.1818 17.6457C21.8171 19.0065 21.0137 20.2089 19.896 21.0666C19.1464 21.6418 18.2835 22.0403 17.3714 22.2404V17.4009H19.657V14.6581H17.3714V9.74886C18.2834 9.94896 19.1463 10.3475 19.8959 10.9227C21.0136 11.7803 21.8171 12.9828 22.1817 14.3436L24.831 13.6337C24.3101 11.6897 23.1623 9.9719 21.5656 8.74671C20.3349 7.80235 18.8905 7.19134 17.3714 6.96086V4.11465Z" fill="#26DDF9"/>
</svg>
