<?xml version="1.0" encoding="utf-8"?>
<!-- Generator: Adobe Illustrator 25.4.1, SVG Export Plug-In . SVG Version: 6.00 Build 0)  -->
<svg version="1.1" id="Layer_1" xmlns="http://www.w3.org/2000/svg" xmlns:xlink="http://www.w3.org/1999/xlink" x="0px" y="0px"
	 viewBox="0 0 318.5 87" style="enable-background:new 0 0 318.5 87;" xml:space="preserve">
<style type="text/css">
	.st0{fill:#231F20;}
	.st1{fill:url(#SVGID_1_);}
	.st2{enable-background:new    ;}
</style>
<g>
	<g>
		<path class="st0" d="M84.7,34.9v23.2h-8.6v-57h9.8c4.8,0,8.4,0.3,10.8,1c2.5,0.7,4.6,1.9,6.5,3.8c3.3,3.2,4.9,7.2,4.9,12.1
			c0,5.2-1.7,9.4-5.2,12.4c-3.5,3.1-8.2,4.6-14.2,4.6L84.7,34.9L84.7,34.9z M84.7,27H88c7.9,0,11.9-3,11.9-9.1
			c0-5.9-4.1-8.8-12.2-8.8h-2.8V27H84.7z"/>
		<path class="st0" d="M116.9,29.3c0-8,2.9-14.9,8.8-20.7S138.6,0,146.8,0c8.1,0,15.1,2.9,20.9,8.7c5.8,5.8,8.8,12.8,8.8,21
			s-2.9,15.2-8.8,20.9c-5.9,5.7-13,8.6-21.3,8.6c-7.4,0-14-2.6-19.8-7.7C120.1,45.9,116.9,38.5,116.9,29.3z M125.6,29.5
			c0,6.3,2.1,11.5,6.4,15.6c4.2,4.1,9.1,6.1,14.6,6.1c6,0,11-2.1,15.2-6.2c4.1-4.2,6.2-9.3,6.2-15.3c0-6.1-2-11.2-6.1-15.3
			c-4-4.1-9-6.2-15-6.2c-5.9,0-11,2.1-15,6.2C127.6,18.4,125.6,23.4,125.6,29.5z"/>
		<path class="st0" d="M196.9,1.1v49h16.8v8.1h-25.4V1.1H196.9z"/>
		<path class="st0" d="M234.2,1.1v49H251v8.1h-25.4V1.1H234.2z"/>
		<path class="st0" d="M253.9,29.3c0-8,2.9-14.9,8.8-20.7S275.6,0,283.8,0c8.1,0,15.1,2.9,20.9,8.7s8.8,12.8,8.8,21
			s-2.9,15.2-8.8,20.9s-13,8.6-21.3,8.6c-7.4,0-14-2.6-19.8-7.7C257.1,45.9,253.9,38.5,253.9,29.3z M262.6,29.5
			c0,6.3,2.1,11.5,6.4,15.6c4.2,4.1,9.1,6.1,14.6,6.1c6,0,11-2.1,15.2-6.2c4.1-4.2,6.2-9.3,6.2-15.3c0-6.1-2-11.2-6.1-15.3
			c-4-4.1-9-6.2-15-6.2c-5.9,0-11,2.1-15,6.2C264.6,18.4,262.6,23.4,262.6,29.5z"/>
	</g>
</g>
<g>
	<g>
		<path class="st0" d="M10.1,58.1H0l30-57h6.7l29.3,57h-9.9l-23-42.9L10.1,58.1z"/>
	</g>
</g>
<linearGradient id="SVGID_1_" gradientUnits="userSpaceOnUse" x1="32.85" y1="29.2203" x2="32.85" y2="5.3448" gradientTransform="matrix(1 0 0 -1 0 88)">
	<stop  offset="0" style="stop-color:#2A4094"/>
	<stop  offset="1" style="stop-color:#299AD4"/>
</linearGradient>
<polygon class="st1" points="19.2,58.2 46.5,58.1 32.9,82.9 "/>
<circle class="st0" cx="33" cy="31.7" r="4.7"/>
<g class="st2">
	<path d="M233.5,71c-0.9-1-1.8-1.7-2.8-2.1c-1-0.5-2.1-0.7-3.3-0.7c-1,0-1.9,0.2-2.9,0.6c-0.9,0.4-1.7,1-2.4,1.7
		c-0.7,0.7-1.2,1.6-1.6,2.5c-0.4,0.9-0.5,1.9-0.5,3c0,0.9,0.1,1.7,0.3,2.4c0.2,0.7,0.5,1.4,1,2c0.7,1.1,1.7,1.9,2.7,2.4
		c1.1,0.6,2.3,0.9,3.5,0.9c1.2,0,2.3-0.2,3.3-0.7s1.9-1.2,2.8-2.2v2.9c-0.9,0.7-1.9,1.2-3,1.5c-1.1,0.3-2.2,0.5-3.3,0.5
		c-1,0-1.9-0.1-2.9-0.4c-0.9-0.3-1.8-0.7-2.6-1.3c-1.4-0.9-2.4-2.1-3.1-3.5c-0.7-1.4-1.1-2.9-1.1-4.5c0-1.4,0.2-2.7,0.7-3.9
		c0.5-1.2,1.2-2.2,2.2-3.2c0.9-0.9,2-1.6,3.1-2.1c1.2-0.5,2.4-0.7,3.8-0.7c1.1,0,2.1,0.2,3.1,0.5c1,0.3,2,0.8,3,1.5V71z"/>
	<path d="M237.3,85.1V66.5h4.4c1.2,0,2.2,0.1,2.7,0.2c0.6,0.1,1.1,0.4,1.5,0.7c0.6,0.4,1,1,1.3,1.7c0.3,0.7,0.5,1.5,0.5,2.4
		c0,1.5-0.4,2.7-1.3,3.5c-0.9,0.8-2.1,1.2-3.7,1.2h-0.4l7.1,8.9h-2.8l-6.8-8.9h-0.3v8.9H237.3z M239.4,68.4v6.2h1.7
		c1.7,0,2.9-0.2,3.5-0.7c0.6-0.4,0.9-1.2,0.9-2.3c0-1.2-0.3-2-0.9-2.5c-0.6-0.5-1.7-0.7-3.4-0.7H239.4z"/>
	<path d="M254.8,85.1v-8.5l-6.3-10.1h2.6l4.9,8.1l4.8-8.1h2.5L257,76.6v8.5H254.8z"/>
	<path d="M267.7,76.8v8.3h-2.2V66.5h3.9c1.4,0,2.4,0.1,3,0.2c0.6,0.1,1.2,0.4,1.7,0.7c0.6,0.4,1.1,1,1.4,1.7
		c0.3,0.7,0.5,1.6,0.5,2.5s-0.2,1.7-0.5,2.5c-0.3,0.7-0.8,1.3-1.4,1.7c-0.5,0.3-1,0.6-1.7,0.7c-0.6,0.1-1.6,0.2-3,0.2h-0.6H267.7z
		 M267.7,74.8h1.1c1.9,0,3.2-0.2,3.8-0.7c0.7-0.4,1-1.2,1-2.3c0-1.2-0.3-2-1-2.5s-1.9-0.7-3.8-0.7h-1.1V74.8z"/>
	<path d="M282,85.1V68.7h-5.3v-2.1h12.7v2.1h-5.2v16.5H282z"/>
	<path d="M309.6,75.9c0,1.3-0.2,2.6-0.7,3.8s-1.2,2.2-2.1,3.1c-0.9,0.9-2,1.6-3.2,2.1c-1.2,0.5-2.5,0.7-3.8,0.7
		c-1.3,0-2.6-0.2-3.8-0.7c-1.2-0.5-2.3-1.2-3.2-2.1c-0.9-0.9-1.7-2-2.2-3.1c-0.5-1.2-0.7-2.4-0.7-3.7c0-1.3,0.2-2.6,0.7-3.8
		c0.5-1.2,1.2-2.2,2.2-3.2c0.9-0.9,2-1.6,3.2-2.1s2.5-0.7,3.8-0.7c1.3,0,2.6,0.2,3.8,0.7c1.2,0.5,2.3,1.2,3.2,2.1
		c0.9,0.9,1.7,2,2.1,3.1C309.3,73.3,309.6,74.5,309.6,75.9z M299.6,83.5c1,0,2-0.2,2.9-0.6c0.9-0.4,1.7-0.9,2.5-1.7
		c0.7-0.7,1.3-1.6,1.7-2.5c0.4-0.9,0.6-1.9,0.6-2.9c0-1-0.2-2-0.6-3s-0.9-1.8-1.7-2.5c-0.7-0.7-1.6-1.3-2.5-1.7
		c-0.9-0.4-1.9-0.6-2.9-0.6c-1,0-2,0.2-2.9,0.6s-1.7,0.9-2.5,1.7c-0.7,0.7-1.3,1.6-1.7,2.5c-0.4,0.9-0.6,1.9-0.6,3
		c0,1,0.2,2,0.6,2.9s0.9,1.7,1.7,2.5c0.7,0.7,1.6,1.3,2.5,1.7C297.6,83.4,298.6,83.5,299.6,83.5z"/>
</g>
</svg>
