<svg xmlns="http://www.w3.org/2000/svg" version="1.1" viewBox="0 0 853 204" width="853.0pt" height="204.0pt">
  <path d="M 76.97 3.10 C 106.94 2.89 137.12 3.05 167.05 3.22 C 171.20 3.30 175.29 4.74 177.71 8.29 C 180.70 12.64 180.89 17.91 180.88 23.00 C 180.81 29.66 180.95 36.33 180.82 42.99 C 180.62 49.23 177.71 55.86 172.28 59.27 C 169.68 60.97 166.98 60.66 164.01 60.74 C 157.75 60.69 151.50 60.74 145.24 60.68 C 145.60 68.78 145.32 76.89 145.45 85.00 C 145.36 86.83 145.68 89.01 144.64 90.57 C 138.33 91.15 131.84 90.80 125.50 90.70 C 125.07 81.00 125.38 71.25 125.32 61.53 C 120.83 61.23 116.30 61.55 111.82 61.14 C 110.14 59.89 108.93 57.89 107.70 56.21 C 104.89 52.04 101.81 48.01 99.18 43.72 C 98.36 42.50 98.41 41.24 98.28 39.83 C 118.52 39.82 138.77 39.96 159.00 40.00 C 159.00 34.00 159.00 28.00 159.00 22.00 C 134.23 21.88 109.05 22.46 84.38 21.49 C 82.65 19.95 81.33 17.88 79.99 16.00 C 77.31 12.02 74.40 8.29 71.97 4.18 C 73.70 3.35 75.04 3.07 76.97 3.10 Z" fill="#fff" />
  <path d="M 293.00 3.08 C 322.00 2.89 351.01 3.07 380.02 3.02 C 384.35 2.95 388.59 4.06 391.37 7.60 C 394.87 12.24 395.41 18.36 395.05 23.97 C 394.43 31.96 395.21 40.02 394.59 48.00 C 393.67 55.17 388.56 60.10 381.78 62.08 C 393.96 74.19 406.60 85.82 418.70 98.01 C 427.29 107.09 436.50 115.60 444.75 124.99 C 433.93 125.01 423.12 125.00 412.31 124.99 C 403.12 116.01 393.91 107.05 384.80 98.00 C 379.17 92.37 373.28 86.99 367.78 81.24 C 363.37 75.94 358.27 71.48 353.45 66.55 C 351.98 65.21 350.27 63.21 348.22 62.92 C 344.44 62.57 340.59 62.81 336.80 62.78 C 336.76 71.46 336.82 80.14 336.76 88.82 C 336.22 89.33 335.67 89.84 335.13 90.35 C 328.79 90.35 322.45 90.34 316.10 90.35 C 315.57 89.74 315.03 89.13 314.49 88.52 C 314.51 72.68 314.50 56.84 314.50 41.00 C 334.00 41.00 353.50 41.00 373.00 41.00 C 373.00 34.67 373.00 28.33 373.00 22.00 C 349.66 22.04 326.33 22.02 302.99 22.03 C 301.54 21.97 299.91 22.10 298.52 21.61 C 296.90 20.22 295.64 18.32 294.40 16.58 C 291.52 12.34 288.43 8.29 285.81 3.88 C 288.20 3.27 290.54 3.06 293.00 3.08 Z" fill="#fff" />
  <path d="M 422.95 3.00 C 453.03 2.99 482.96 3.01 513.02 3.03 C 517.70 3.04 522.64 4.69 525.13 8.92 C 527.97 13.60 527.79 18.69 527.94 23.97 C 495.42 24.02 462.91 24.02 430.39 23.97 C 426.14 17.64 422.28 11.06 418.65 4.35 C 420.09 3.48 421.20 2.90 422.95 3.00 Z" fill="#fff" />
  <path d="M 546.91 3.21 C 573.93 2.87 600.97 3.14 628.00 3.05 C 633.99 3.14 640.04 2.97 646.01 3.53 C 645.57 8.51 641.76 13.03 639.42 17.41 C 637.16 20.87 635.98 25.19 633.30 28.29 C 624.42 28.85 615.34 28.35 606.42 28.50 C 606.43 48.43 606.39 68.37 606.44 88.30 C 605.89 89.01 605.33 89.72 604.78 90.42 C 598.24 90.48 591.71 90.44 585.17 90.46 C 584.59 89.80 584.00 89.14 583.42 88.48 C 583.42 68.49 583.43 48.50 583.42 28.51 C 574.50 28.50 565.58 28.55 556.67 28.48 C 552.24 20.72 547.70 13.01 543.36 5.21 C 544.53 4.01 545.05 3.05 546.91 3.21 Z" fill="#fff" />
  <path d="M 677.96 3.18 C 695.65 3.18 713.32 3.20 731.01 3.17 C 735.66 3.15 740.23 3.87 743.50 7.48 C 746.95 11.59 747.90 16.76 747.93 21.99 C 747.93 38.00 747.93 54.00 747.93 70.01 C 747.91 75.79 746.76 81.33 742.60 85.59 C 739.28 89.12 734.73 90.31 730.01 90.36 C 714.68 90.36 699.33 90.32 684.00 90.37 C 680.45 90.35 677.15 90.55 673.70 89.54 C 669.88 88.52 666.75 85.77 664.70 82.46 C 662.16 78.24 661.63 72.82 661.68 68.00 C 661.73 57.99 661.69 47.97 661.71 37.95 C 666.51 36.25 671.02 36.89 676.00 36.76 C 678.92 36.69 681.52 37.07 684.31 37.88 C 684.37 46.99 684.26 56.11 684.37 65.22 C 698.04 65.21 711.72 65.21 725.39 65.22 C 725.23 51.50 725.91 37.69 724.92 24.00 C 703.80 23.98 682.69 24.05 661.58 23.96 C 661.74 18.57 662.30 12.24 665.88 7.91 C 668.94 4.23 673.36 3.19 677.96 3.18 Z" fill="#fff" />
  <path d="M 231.20 3.55 C 238.56 3.55 245.92 3.55 253.28 3.55 C 266.65 31.42 280.03 59.29 293.41 87.16 C 292.89 87.96 292.38 88.77 291.86 89.57 C 275.33 89.58 258.80 89.56 242.27 89.58 C 241.68 89.04 241.09 88.50 240.50 87.96 C 240.58 82.62 240.31 77.26 240.60 71.93 C 240.47 70.32 242.61 69.63 243.93 69.73 C 248.88 69.62 253.83 69.77 258.78 69.71 C 253.21 57.90 247.76 46.03 242.23 34.20 C 233.64 52.66 225.02 71.11 216.44 89.57 C 208.48 89.57 200.53 89.58 192.57 89.57 C 192.07 88.76 191.56 87.96 191.06 87.16 C 204.44 59.29 217.83 31.43 231.20 3.55 Z" fill="#fff" />
  <path d="M 430.19 34.56 C 450.23 34.18 470.43 34.51 490.50 34.40 C 490.41 41.46 490.51 48.52 490.47 55.57 C 476.84 55.59 463.20 55.60 449.57 55.57 C 449.54 60.69 449.77 65.91 449.31 71.01 C 469.55 70.97 489.81 70.95 510.04 71.00 C 511.14 71.13 513.20 70.87 513.84 72.00 C 516.18 75.13 517.99 78.67 520.12 81.96 C 521.47 84.25 523.32 86.78 523.77 89.43 C 519.62 90.22 515.22 89.82 511.00 89.98 C 487.99 89.94 464.96 90.15 441.95 89.76 C 438.79 89.73 435.89 88.61 433.80 86.19 C 430.35 82.11 430.04 76.08 430.08 70.99 C 430.44 58.86 430.05 46.66 430.19 34.56 Z" fill="#fff" />
  <!-- <path d="M 0.00 98.00 C 128.27 98.00 256.53 98.00 384.80 98.00 C 393.91 107.05 403.12 116.01 412.31 124.99 C 274.87 125.01 137.44 124.99 0.00 125.00 L 0.00 98.00 Z" fill="#064195" /> -->
  <!-- <path d="M 418.70 98.01 C 563.46 97.98 708.23 98.01 853.00 98.00 L 853.00 125.00 C 716.92 124.99 580.83 125.02 444.75 124.99 C 436.50 115.60 427.29 107.09 418.70 98.01 Z" fill="#064195" /> -->
</svg>
