<svg width="74" height="65" viewBox="0 0 74 65" fill="none" xmlns="http://www.w3.org/2000/svg">
<path d="M43.0555 0.0377932C47.8622 -0.0355945 50.735 0.0167849 55.5535 0.0380012C56.0307 1.04115 57.0895 2.76302 57.6703 3.77055L73.9999 32.0971L57.8004 60.191C57.1284 61.3541 56.1337 62.9728 55.5584 64.1498L43.0638 64.1415L49.8204 51.5814C51.8711 47.7687 54.0817 43.1136 56.9887 39.9548C59.8818 36.8127 60.8973 35.9126 65.0195 35.7756C65.0473 33.2122 65.0216 30.6009 65.0216 28.0333C60.3289 27.9487 59.0505 26.5901 56.0698 22.8545C53.592 19.7495 51.8286 16.1218 49.9366 12.6459L43.0555 0.0377932Z" fill="#A7906B"/>
<path d="M30.9444 0.0377932C26.1377 -0.0355945 23.2649 0.0167849 18.4464 0.0380012C17.9692 1.04115 16.9105 2.76302 16.3296 3.77055L0 32.0971L16.1995 60.191C16.8715 61.3541 17.8662 62.9728 18.4415 64.1498L30.9361 64.1415L24.1795 51.5814C22.1289 47.7687 19.9182 43.1136 17.0112 39.9548C14.1181 36.8127 13.1027 35.9126 8.98043 35.7756C8.9526 33.2122 8.97834 30.6009 8.97834 28.0333C13.671 27.9487 14.9494 26.5901 17.9301 22.8545C20.4079 19.7495 22.1713 16.1218 24.0634 12.6459L30.9444 0.0377932Z" fill="#A7906B"/>
</svg>
