<svg width="377" height="80" viewBox="0 0 377 80" fill="none" xmlns="http://www.w3.org/2000/svg">
<path d="M21.1741 4.10906C21.6329 4.04371 22.0954 4.00807 22.5587 4.00213C26.7848 3.93474 30.0843 5.47131 33.0476 8.35973C38.418 7.65335 41.011 9.97946 42.2362 15.352C42.3725 15.9499 42.4295 16.5683 42.0804 17.0684C40.755 17.3192 39.3666 15.4459 37.7572 16.2588C36.7463 17.8598 38.4831 21.9302 38.7141 23.8275C39.5808 30.9469 39.814 38.4252 38.0271 45.412C37.5546 47.222 37.0042 49.0107 36.3769 50.7732C35.6317 52.8745 33.28 57.7185 33.6832 59.6735C33.796 60.2007 34.1158 60.6606 34.5705 60.9498C36.3656 62.0822 40.5266 60.9073 42.6453 60.4667C40.1417 64.6929 35.6322 68.2383 30.4768 67.2672C21.7474 64.7803 23.2933 52.9811 23.3519 45.9346C21.2088 47.3787 19.5855 48.9762 18.3477 51.259C18.1144 51.6895 17.8891 52.1717 17.4626 52.4189C16.6564 51.9435 16.0493 47.8367 16.0218 46.9122C15.8119 39.8572 20.1111 33.87 24.9749 29.2076C27.0648 27.2042 29.3925 25.3121 31.3516 23.1815C27.6543 20.4852 26.4447 17.6177 27.3093 13.1306C27.274 13.055 27.2371 12.9802 27.1989 12.9063C23.8499 6.37966 18.2223 8.11375 17.4493 6.58108L17.6003 6.16097C18.6273 5.12564 19.8232 4.5791 21.1741 4.10906Z" fill="#095CE5"/>
<path d="M21.0026 22.4365L21.169 22.6792C21.2017 23.1945 21.0054 23.8146 20.7074 24.2204C17.7466 28.2549 14.6787 31.6494 12.3474 36.1359C7.95364 44.5915 7.82663 53.1911 13.1912 61.2521C13.8073 62.1779 16.4802 65.3925 16.6355 65.8772C16.0588 68.1132 11.9943 67.4096 10.0892 67.3798C7.83134 67.351 5.57316 67.3523 3.31531 67.3833C1.96788 67.366 -0.119979 66.805 0.0053957 65.4652C0.192975 63.4606 6.55265 63.5095 7.64295 63.4827C-3.44402 48.5949 7.34292 30.7968 21.0026 22.4365Z" fill="#FA6A2E"/>
<path fill-rule="evenodd" clip-rule="evenodd" d="M258.242 33.1184C267.325 33.0944 278.931 31.0637 275.56 44.7207C273.716 52.1902 272.796 61.295 270.605 68.5464C270.295 69.5561 269.852 70.5201 269.286 71.4129C265.57 77.3548 259.555 75.756 253.528 75.9219C252.101 75.9611 244.555 76.0917 243.927 75.6963L243.89 75.1232C244.36 72.9604 244.784 70.7878 245.165 68.6074C247.627 68.6192 260.658 69.1723 262.019 68.1451C263.326 67.1607 263.422 64.6882 263.62 63.219C251.4 63.0063 241.375 66.1065 245.556 49.2374C247.677 40.678 246.727 33.2337 258.242 33.1184ZM266.791 40.9172C265.094 40.1632 259.781 40.4786 257.595 40.5169C256.979 40.7012 255.577 41.1717 255.384 41.811C254.705 44.0724 251.84 54.1496 253.727 55.6308C255.362 56.2858 260.87 55.9635 262.958 55.9841C263.984 55.8175 264.88 55.3374 265.227 54.3353C265.977 52.177 268.391 42.4302 266.791 40.9172Z" fill="#095CE5"/>
<path d="M65.6778 22.9675C67.6583 22.7346 70.014 22.8966 72.0348 22.9099C78.6231 22.8804 85.2117 22.8879 91.7998 22.9325C90.6568 25.1052 89.5375 27.2905 88.4423 29.4877L76.0629 29.4532C72.7227 29.4468 66.4624 28.6285 65.0044 32.4392C64.3944 34.0334 63.9289 37.3892 63.5649 39.2017L60.7224 53.1925C60.4313 54.6876 59.9601 56.5157 60.8568 57.9007C61.2908 58.6299 62.6401 59.332 63.4881 59.3599C78.2812 59.8463 76.7865 60.4204 79.2975 45.889C78.7862 44.6476 78.023 43.3647 77.3622 42.1844C79.4634 42.084 81.9965 42.156 84.1291 42.1638L88.7581 42.1359C88.2199 46.0808 87.0692 50.4025 86.469 54.0632C84.7769 64.3812 79.4208 68.0593 69.2873 67.3795C64.0587 67.2266 58.0314 68.3275 53.8619 64.3038C49.1099 59.7181 51.9755 52.4428 53.0824 46.7611L54.9515 36.8901C56.1586 30.6403 57.7508 23.8998 65.6778 22.9675Z" fill="#095CE5"/>
<path fill-rule="evenodd" clip-rule="evenodd" d="M136.146 33.1184C140.013 33.0985 148.662 32.3582 151.469 34.9135C156.57 39.5582 151.441 50.8582 150.792 56.9417C150.14 63.0498 144.89 66.2402 138.881 66.4824C134.41 66.5153 126.668 67.4407 123.313 64.2663C121.874 62.9047 121.155 61.1154 121.105 59.1472C121.046 56.8542 123.975 42.3972 124.83 40.0979C125.352 38.6596 126.164 37.3445 127.217 36.2349C129.878 33.4536 132.595 33.1796 136.146 33.1184ZM144.036 40.9153C142.103 40.2344 136.73 40.4941 134.66 40.659C133.715 41.1632 132.48 42.0126 132.348 43.1233C132.015 45.9325 129.081 55.9489 130.151 58.146C131.6 59.2887 138.567 58.9479 140.585 58.817C142.183 57.875 142.434 57.2394 142.934 55.4456C143.904 51.967 144.394 46.006 145.327 42.8117C145.065 42.0554 144.839 41.1981 144.036 40.9153Z" fill="#095CE5"/>
<path d="M155.805 22.8696C166.499 23.0027 177.301 22.7485 187.988 22.9431C187.018 25.4692 186.385 28.2668 185.242 30.7482C182.058 30.5672 177.925 30.713 174.599 30.6627C173.44 38.6427 171.148 48.7137 169.527 56.7425C169.078 59.6484 168.133 63.6345 167.514 66.6087C164.763 66.4292 161.429 66.5393 158.647 66.6048C159.264 62.4014 160.248 57.9071 161.092 53.7104C162.664 46.0581 164.187 38.3955 165.662 30.7237C161.994 30.6428 158.148 30.6926 154.461 30.6742C154.951 27.9777 155.477 25.6051 155.805 22.8696Z" fill="#095CE5"/>
<path fill-rule="evenodd" clip-rule="evenodd" d="M192.438 33.1179C196.761 32.9835 201.56 32.931 205.846 33.3828C209.07 33.7228 211.608 37.1846 211.426 40.3288C211.174 44.7224 210.144 50.684 205.801 52.879C203.037 54.2762 198.798 53.942 195.724 53.9249C193.295 53.9162 190.867 53.9288 188.439 53.9633C188.279 54.8271 188.019 55.8038 188.012 56.6791C188.008 57.1418 188.188 57.9177 188.531 58.2477C189.747 59.4176 200.941 58.8586 203.191 58.8492L206.731 58.8924C206.126 60.8773 205.081 64.437 204.176 66.228L193.575 66.2328C190.974 66.239 188.145 66.4577 185.595 65.9415C184.261 65.6716 183.073 65.166 182.037 64.2706C180.547 62.9834 179.828 61.2415 179.698 59.3008C179.547 57.0459 182.415 42.3104 183.209 40.0432C183.702 38.6373 184.411 37.3368 185.4 36.2181C187.318 34.0476 189.622 33.2961 192.438 33.1179ZM202.039 40.6835C199.089 40.2281 195.654 40.4424 192.667 40.4848C190.22 41.7696 190.337 44.409 189.977 46.9128L200.728 46.907C201.954 46.3527 202.698 45.6004 202.854 44.2176C202.976 43.1322 203.623 40.9284 202.039 40.6835Z" fill="#095CE5"/>
<path fill-rule="evenodd" clip-rule="evenodd" d="M105.053 33.1174C115.851 32.9295 123.364 32.1081 120.076 46.1246C118.623 52.3165 117.507 59.8538 115.832 66.2516C110.287 66.1294 104.694 66.3061 99.1441 66.254C97.1406 66.235 95.5535 66.3442 93.5767 65.8968C90.6916 64.9224 88.6794 62.2753 88.8623 59.1559C89.8665 42.0261 99.2138 44.9032 112.134 44.9208C112.227 44.1306 112.362 43.3022 112.365 42.507C112.367 42.0869 112.281 41.3824 111.964 41.0761C110.764 39.9199 98.0494 40.4258 95.6853 40.4344C95.1813 36.7498 95.1848 36.4732 93.4865 33.1817L98.0445 33.1179C100.23 33.119 102.929 33.1543 105.053 33.1174ZM99.4398 51.7924C97.5845 53.0235 96.8041 56.109 97.3523 58.1397C98.2249 59.337 106.807 58.8855 108.676 58.8856L109.154 58.7925C109.418 58.2704 110.514 52.7127 110.71 51.8077L99.4398 51.7924Z" fill="#095CE5"/>
<path d="M229.132 33.0948C233.336 33.0902 239.805 32.28 242.486 36.1572C245.174 40.0439 243.007 45.2863 242.293 49.5028C241.343 55.0906 239.898 60.6717 238.959 66.2568C236.386 66.1503 233.254 66.2151 230.644 66.2079C231.573 60.2512 233.423 51.847 234.729 45.8856C235.861 41.0858 235.616 40.4883 230.386 40.5635C227.988 40.5978 225.405 40.5831 222.99 40.5995C222.366 45.0445 221.266 49.7999 220.37 54.2245C219.567 58.189 218.819 62.352 217.866 66.2516C215.43 66.1296 212.109 66.2116 209.616 66.2079C210.886 59.5823 212.226 52.9705 213.637 46.3737C214.27 43.3751 215.116 39.7742 215.533 36.7327C215.637 35.9806 214.803 34.1638 214.469 33.3411C214.743 33.0783 215.075 33.1434 215.533 33.1102L229.132 33.0948Z" fill="#095CE5"/>
<path fill-rule="evenodd" clip-rule="evenodd" d="M317.401 44.054C320.684 44.0586 324.664 43.9655 327.864 44.1634C327.309 47.8857 326.693 51.5988 326.016 55.3011C324.23 65.5434 324.703 65.5569 314.449 65.5277C314.21 63.8674 313.855 62.8317 313.34 61.2558C306.642 61.3696 299.687 61.283 292.975 61.2625C293.545 59.3258 294.509 52.9763 294.916 50.6452C296.941 50.5188 299.765 50.604 301.849 50.6053C306.828 50.5994 312.462 50.4675 317.39 50.686C317.184 53.1859 316.415 57.6646 315.855 60.0703C316.874 60.089 317.777 60.0247 318.786 59.9575C319.412 57.6018 320.215 52.0018 320.675 49.3713L292.361 49.3626L289.508 65.6981L283.165 65.6751C283.271 63.9027 286.497 45.0424 286.953 44.0616C290.419 44.1877 294.363 44.0775 297.866 44.0679L317.401 44.054ZM310.628 55.015C308.492 54.7347 302.726 54.9046 300.192 54.87C300.053 55.4638 299.805 56.1215 300.074 56.6378C301.551 56.8396 308.965 56.7345 310.54 56.6393C310.648 55.9995 310.826 55.5682 310.628 55.015Z" fill="#095CE5"/>
<path d="M339.739 23.4264C343.399 23.2617 347.896 23.3852 351.583 23.4077C351.403 25.1555 350.839 27.9827 350.536 29.7786L348.37 42.5607C347.31 48.6841 346.305 54.8175 345.155 60.9242C344.203 65.9891 341.706 65.4734 337.441 65.4591C337.554 64.6892 337.37 60.9553 337.35 59.9239L339.999 59.9291C340.333 58.8463 341.735 51.9651 341.494 51.3556C341.194 51.2839 340.893 51.2051 340.596 51.1189C340.578 49.2992 343.498 43.5672 343.62 39.8867C343.501 39.8108 343.062 39.5283 343.108 39.352C343.741 36.9971 344.481 34.6537 344.848 32.24C345.01 31.1641 345.331 29.8444 345.563 28.762L343.173 28.7461C342.737 30.0733 342.257 32.7694 342.129 34.2219C342.077 34.7777 342.665 34.6027 342.91 34.8977C343.659 35.8067 342.874 37.8335 342.433 38.8062C342.219 39.2759 341.479 39.8656 341.034 40.2976C340.659 41.7288 340.166 44.0566 340.244 45.5246C340.953 46.3186 340.961 47.6688 340.535 48.5313C337.886 53.881 336.815 60.2618 334.366 65.6679C333.224 65.1058 330.957 64.3749 329.636 63.854C334.313 55.2029 335.136 40.8201 337.399 31.2478C338.047 28.5113 337.544 25.2641 339.739 23.4264Z" fill="#095CE5"/>
<path fill-rule="evenodd" clip-rule="evenodd" d="M362.645 22.6253C364.422 22.5924 366.285 22.6329 368.07 22.6464C367.769 24.0803 367.036 26.3077 366.623 27.8274C367.266 27.8271 368.576 27.9057 369.027 27.6162C368.879 27.3927 368.625 27.0873 368.743 26.8094C369.289 25.5315 369.858 24.2365 370.405 22.9618C371.485 23.2302 374.389 23.5246 375.698 23.7216C375.238 24.5683 373.88 26.8897 373.752 27.7017C374.274 28.17 374.693 27.5168 375.37 27.9009C375.654 28.442 375.004 31.6616 374.873 32.4756C373.787 32.4456 365.247 32.3825 364.81 32.5971C364.493 33.1256 364.469 33.1993 364.4 33.8115C364.952 34.3503 373.747 34.0903 375.331 34.1158C375.198 36.0902 375.032 37.0862 374.555 38.9464L370.27 38.9454C371.969 40.4888 372.975 41.2534 374.934 42.4153C374.346 43.9754 373.276 46.6615 373.04 48.2049C371.582 47.3788 370.628 46.8032 369.268 45.8318C368.743 47.1812 368.259 48.7641 367.755 50.1604C370.626 50.1411 372.324 49.855 371.45 53.5275C370.63 56.9761 370.641 61.4795 368.55 64.4122C367.732 65.5581 364.542 65.484 363.302 65.4668L360.662 65.4586C360.575 63.8651 360.319 62.8993 359.957 61.3533C362.152 61.2211 362.744 60.5551 364.84 59.9594C365.165 58.2136 365.458 56.462 365.721 54.7059C362.755 54.6862 359.77 54.7641 356.805 54.7385C355.159 54.7243 351.513 55.0822 350.459 53.7354C350.147 52.1006 352.026 47.98 352.733 46.2067C351.625 46.9489 349.52 47.9235 348.275 48.3897C348.702 46.0792 348.883 44.6964 348.965 42.363C350.655 41.6794 353.07 39.9878 354.646 38.9281C353.525 38.9467 351.434 39.1191 350.51 38.765C349.88 37.9347 350.757 35.6071 350.918 34.1172C352.495 34.1081 357.529 34.3534 358.685 33.6651C358.909 33.1643 358.86 33.3518 358.797 32.7881C358.005 32.2362 353.286 32.5222 351.887 32.5016C352.087 31.2715 352.291 29.9087 352.597 28.7053C352.965 27.2645 353.779 27.8731 354.469 27.5073C354.829 26.7607 354.193 24.6847 353.974 23.8022C355.491 23.3593 357.955 23.1776 359.538 23.0631C359.771 24.1368 360.067 25.3475 360.122 26.4412C360.159 27.1594 359.592 27.0796 358.979 27.6868L359.198 27.5025L359.484 27.8274L361.13 27.8418C361.571 26.0896 362.385 24.5148 362.645 22.6253ZM363.625 46.2326C361.167 46.2096 358.87 46.1982 356.407 46.2922L356.282 46.4952L357.909 47.0289C357.506 48.1512 357.137 49.0589 356.662 50.1508L362.183 50.2161C362.775 49.7363 363.226 47.1821 363.625 46.2326ZM364.627 38.9248C363.423 38.9369 362.044 38.9204 360.855 38.9651C360.043 39.9254 359.371 40.7112 358.479 41.6084L363.627 41.5748L365.697 41.5537C365.376 40.8016 364.859 39.672 364.627 38.9248Z" fill="#095CE5"/>
<path d="M347.258 55.8929C352.582 55.8168 358.124 55.8955 363.463 55.9078C362.938 57.6122 363.484 59.2895 361.836 59.9632C357.838 61.3469 350.933 60.8355 346.432 60.808C346.739 59.44 347.093 57.2739 347.258 55.8929Z" fill="#095CE5"/>
<path fill-rule="evenodd" clip-rule="evenodd" d="M322.76 31.6961C323.573 31.6952 324.393 31.5811 324.97 32.1531C325.365 33.3191 324.219 40.09 323.673 41.4937C323.358 42.3031 323.226 42.3085 322.56 42.6068C314.505 42.7573 306.375 42.5312 298.311 42.6246C295.99 42.6513 293.571 42.6627 291.254 42.5588C291.823 39.5495 292.164 35.1407 293.103 32.1675C293.192 31.8895 294.008 31.8342 294.378 31.7691C295.012 31.6967 295.979 31.7004 296.624 31.6995C305.334 31.688 314.048 31.7069 322.76 31.6961ZM318.115 36.3991C316.581 36.2133 312.941 36.3104 311.251 36.3141L298.433 36.3448C298.43 36.9919 298.318 37.4026 298.617 37.8995C299.813 38.0313 300.945 37.9725 302.144 37.9888C307.49 38.0614 312.9 37.8471 318.243 37.996C318.262 37.519 318.369 36.7571 318.115 36.3991Z" fill="#095CE5"/>
<path d="M307.678 22.6315C309.924 22.5688 312.173 22.5736 314.421 22.6464C314.017 23.5613 313.412 24.4035 312.854 25.235C319.082 25.0965 325.79 25.2238 332.055 25.2264C331.834 26.9952 331.562 28.7572 331.237 30.5101C329.341 30.633 326.515 30.5299 324.51 30.5211L313.026 30.525C304.57 30.4953 296.114 30.5131 287.658 30.5782C288.014 29.4769 288.454 26.4872 288.671 25.2168C293.958 25.3155 299.283 25.189 304.574 25.2489C305.171 25.2556 305.974 25.2949 306.353 24.8294L306.095 24.1867C306.286 23.679 307.193 23.0409 307.678 22.6315Z" fill="#095CE5"/>
</svg>
