<svg width="153" height="25" viewBox="0 0 153 25" fill="none" xmlns="http://www.w3.org/2000/svg">
<path d="M11.8935 24.2297C5.24807 24.2297 0.807395 19.789 0.807395 13.1125C0.807395 6.46697 5.24807 2.05736 11.8935 2.05736C15.5268 2.05736 19.1912 4.47954 21.0544 8.08176L17.1727 9.04443C16.0547 7.08805 13.9431 5.78379 11.8935 5.78379C7.73236 5.78379 4.96858 8.70284 4.96858 13.1125C4.96858 17.5531 7.73236 20.5032 11.8935 20.5032C14.7505 20.5032 17.2037 18.4847 17.9801 15.4415H10.9619V11.715H22.2965V13.1125C22.2965 19.789 18.1353 24.2297 11.8935 24.2297ZM31.3685 24.2297C26.5242 24.2297 23.2946 20.938 23.2946 16.0315C23.2946 11.125 26.5242 7.83333 31.3685 7.83333C33.2007 7.83333 35.2192 8.67178 36.3992 9.94498V8.26809H40.1257V23.7949H36.3992V22.118C35.2192 23.3912 33.2007 24.2297 31.3685 24.2297ZM31.7412 20.938C34.536 20.938 36.3992 18.9816 36.3992 16.0315C36.3992 13.0814 34.536 11.125 31.7412 11.125C28.9153 11.125 27.021 13.0814 27.021 16.0315C27.021 18.9816 28.9153 20.938 31.7412 20.938ZM42.3695 23.7949V8.26809H46.096V9.6655C47.0276 8.48546 48.3939 7.83333 49.8845 7.83333C51.313 7.83333 52.9588 8.57862 54.0147 9.69655C55.1015 8.57862 56.9648 7.83333 58.6727 7.83333C62.3681 7.83333 64.8524 9.88287 64.8524 12.9572V23.7949H61.1259V13.3298C61.1259 11.9945 60.008 11.125 58.3001 11.125C56.5921 11.125 55.4742 11.9945 55.4742 13.3298V23.7949H51.7477V13.3298C51.7477 11.9945 50.6298 11.125 48.9219 11.125C47.2139 11.125 46.096 11.9945 46.096 13.3298V23.7949H42.3695ZM67.1009 5.90801V2.49211H70.8273V5.90801H67.1009ZM67.1009 23.7949V8.26809H70.8273V23.7949H67.1009Z" fill="white"/>
<path d="M76.9686 11.8728C74.2407 11.8728 72 9.7045 72 6.90425C72 4.104 74.2407 1.93567 76.9686 1.93567C79.6964 1.93567 81.9372 4.104 81.9372 6.90425C81.9372 9.7045 79.6964 11.8728 76.9686 11.8728ZM76.9686 10.5594C78.7344 10.5594 80.4758 9.10976 80.4758 6.90425C80.4758 4.72353 78.7344 3.24906 76.9686 3.24906C75.2028 3.24906 73.4613 4.71114 73.4613 6.90425C73.4613 9.09737 75.2028 10.5594 76.9686 10.5594ZM76.9686 9.66733C75.3733 9.66733 74.3016 8.56458 74.3016 6.90425C74.3016 5.25632 75.3733 4.15356 76.9686 4.15356C78.2716 4.15356 79.2946 5.0209 79.5381 6.30951H78.1498C77.9793 5.78911 77.5044 5.44217 76.9686 5.44217C76.2257 5.44217 75.7386 6.02453 75.7386 6.90425C75.7386 7.78398 76.2257 8.37872 76.9686 8.37872C77.5044 8.37872 77.9793 8.03178 78.1498 7.51138H79.5381C79.2946 8.79999 78.2716 9.66733 76.9686 9.66733Z" fill="white"/>
</svg>
