<svg xmlns="http://www.w3.org/2000/svg" fill="none" viewBox="0 0 255 326" height="326" width="255">
<path fill="#FEBA11" d="M0.0562087 39.7081V184.141C-0.384786 196.397 1.77316 208.607 6.3882 219.969C26.5283 270.336 90.2625 305.954 140.011 325.286V299.977C77.5985 275.544 47.3522 243.706 35.109 220.778C24.2467 200.487 25.542 184.982 25.542 184.982V54.2263L140.024 21.1658V0L10.2216 37.0057L0.0562087 39.7081Z"></path>
<path fill="#FEBA11" d="M143.748 292.599C151.712 288.693 159.125 284.748 165.985 280.763L166.748 213.222V39.6345L143.734 32.6384L143.748 292.599Z"></path>
<path fill="#FEBA11" d="M188.012 263.116C196.869 258.651 211.025 245.277 211.025 245.277V49.3799L188.012 42.3904V263.116Z"></path>
<path fill="#FEBA11" d="M231.963 57.2834L232.62 158.543V223.29L233.278 222.566C234.725 220.673 236.075 218.821 237.328 217.01C253.55 193.609 254.345 177.085 254.345 177.085V159.779L255.003 64.3124L231.963 57.2834Z"></path>
</svg>
