<svg width="1000" height="1000" viewBox="0 0 1000 1000" fill="none" xmlns="http://www.w3.org/2000/svg">
<path d="M575.064 749.954H572.994C548.618 749.954 526.448 735.834 516.146 713.757L380.188 422.201C376.416 414.106 368.275 408.909 359.352 408.909H346.963C344.93 408.909 343.113 410.18 342.417 412.091L234.295 708.743C225.28 733.488 201.731 750 175.377 750H155.303C153.208 750 151.748 747.922 152.457 745.952L221.745 553.467C222.321 551.867 223.838 550.8 225.539 550.8H254.21C263.869 550.8 272.516 544.775 275.828 535.668L364.872 291.257C373.887 266.466 397.435 250 423.79 250C448.167 250 470.336 264.12 480.638 286.243L615.401 575.591C619.172 583.686 627.313 588.883 636.236 588.883H652.581C654.614 588.883 656.431 587.612 657.127 585.701L764.421 291.257C773.436 266.512 796.985 250 823.339 250H844.453C846.553 250 848.014 252.087 847.295 254.059L777.154 446.569C776.578 448.151 775.079 449.208 773.395 449.22L744.966 449.43C735.353 449.43 726.752 455.455 723.44 464.516L633.936 708.835C624.875 733.534 601.373 749.954 575.064 749.954Z" fill="#E6F9E8"/>
</svg>
