<svg preserveAspectRatio="none" width="100%" height="100%" overflow="visible" style="display: block;" viewBox="0 0 72.7591 17.1679" fill="none" xmlns="http://www.w3.org/2000/svg">
<g id="3Jane">
<path d="M5.98349 17.1679C2.07121 17.1679 0 15.2848 0 11.6898H1.89221C1.89221 14.4044 2.96617 15.5049 5.95792 15.5049C9.07751 15.5049 10.0236 14.2821 10.0236 12.3257C10.0236 10.1736 9.07751 9.29316 6.77617 9.29316H4.34698V7.60571H6.11134C8.43825 7.60571 9.4355 6.72531 9.4355 4.67103C9.4355 2.88577 8.43825 1.66299 6.03463 1.66299C3.40087 1.66299 2.32691 2.73904 2.32691 5.23351H0.434698C0.434698 1.88309 2.5059 0 6.03463 0C9.51221 0 11.3277 2.02982 11.3277 4.59767C11.3277 6.50521 10.4839 7.67908 8.84738 8.21711V8.46166C10.8419 8.90186 11.9158 10.1002 11.9158 12.3501C11.9158 15.1625 10.1515 17.1679 5.98349 17.1679Z" fill="var(--fill-0, #0029FF)"/>
<path d="M18.3496 1.932V0.244556H26.8134V11.4942C26.8134 15.4315 24.7422 17.1679 21.3413 17.1679H21.2135C17.8382 17.1679 15.7414 15.456 15.7414 11.4942V9.14642H17.6336V11.4942C17.6336 14.4288 18.7076 15.5049 21.2135 15.5049H21.3413C23.8472 15.5049 24.8956 14.4288 24.8956 11.4942V1.932H18.3496Z" fill="var(--fill-0, #0029FF)"/>
<path d="M41.1229 9.53771V15.2848H43.3475V16.9233H39.4608L39.3074 14.5267H39.0261C38.438 15.7984 36.8526 17.1679 34.3979 17.1679H34.2956C32.5568 17.1679 30.6646 16.2386 30.6646 14.0376V13.8908C30.6646 11.8365 32.3522 10.9072 35.2417 10.5649L39.2818 10.0757V9.46435C39.2818 7.43453 38.4636 6.35848 36.3412 6.35848H36.2389C34.3467 6.35848 33.2472 7.21442 33.0426 9.12197H31.0737C31.355 6.28511 33.2728 4.7444 36.3156 4.7444H36.3668C39.7421 4.7444 41.1229 6.48075 41.1229 9.53771ZM34.5768 15.5783H34.6791C36.7759 15.5783 39.2818 14.3555 39.2818 11.5431V11.4942L35.4974 11.9344C33.375 12.1789 32.5056 12.7169 32.5056 13.8419V13.9886C32.5056 14.9913 33.2983 15.5783 34.5768 15.5783Z" fill="var(--fill-0, #0029FF)"/>
<path d="M48.605 16.9233H46.7128V4.98896H48.605V6.94541H48.8352C49.4489 5.60035 50.9319 4.7444 52.7219 4.7444H52.8242C55.6625 4.7444 57.1456 6.43184 57.1456 9.7089V16.9233H55.2533V9.78227C55.2533 7.3367 54.2305 6.43184 52.415 6.43184H52.3127C50.3438 6.43184 48.605 7.48344 48.605 10.0024V16.9233Z" fill="var(--fill-0, #0029FF)"/>
<path d="M72.7591 10.3937V11.4208H63.656V11.5186C63.656 14.4288 65.0368 15.5294 67.2103 15.5294H67.3382C68.9491 15.5294 70.1509 14.9424 70.6879 13.524H72.5546C71.8897 16.0185 69.9208 17.1679 67.3382 17.1679H67.2103C63.9629 17.1679 61.7894 15.4071 61.7894 11.5186V10.3937C61.7894 6.48075 63.9885 4.7444 67.2103 4.7444H67.3382C70.5856 4.7444 72.7591 6.50521 72.7591 10.3937ZM67.3382 6.38293H67.2103C65.1391 6.38293 63.7839 7.38561 63.656 9.97791H70.8925C70.7646 7.38561 69.4094 6.38293 67.3382 6.38293Z" fill="var(--fill-0, #0029FF)"/>
</g>
</svg>
