<?xml version="1.0" encoding="utf-8"?>
<svg xmlns="http://www.w3.org/2000/svg" fill="none" height="100%" viewBox="0 0 800 800" width="100%">
<g clip-path="url(#clip0_756_3797)">
<path d="M338.329 185.391H284.361L301.846 98.7532H320.843L338.329 185.391Z" fill="#161616"/>
<path d="M451.511 170.116H522.539V99.037H451.511V170.116Z" fill="#161616"/>
<path d="M694.462 228.237L628.68 227.244V101.023H694.462V228.237Z" fill="#161616"/>
<path d="M451.511 405.486H522.539V334.36H451.511V405.486Z" fill="#161616"/>
<path d="M275.24 336.345V463.559H351.986V336.345H275.24Z" fill="#161616"/>
<path d="M284.361 656.083H338.329L320.843 569.445H301.846L284.361 656.083Z" fill="#161616"/>
<path d="M451.511 619.527H526.65V569.682H451.511V619.527Z" fill="#161616"/>
<path d="M451.511 700.915H531.14V645.584H451.511V700.915Z" fill="#161616"/>
<path clip-rule="evenodd" d="M0 0H800V740L740 800H0V0ZM70.5199 259.261V70H106.01V146.092H170.942V70H206.433V259.261H170.942V178.156H106.01V259.261H70.5199ZM273.822 70L233.086 259.261H270.325L279.068 212.158H343.574L352.317 259.261H389.556L348.82 70H273.822ZM558.029 97.0034V171.346L539.032 190.357L569.277 259.213H530.006L505.763 199.106H451.464V259.213H415.973V70H530.998L557.982 97.0034H558.029ZM593.189 70V259.213H702.969L729.953 232.21V97.0034L702.969 70H593.189ZM558.029 332.374V406.716L539.032 425.727L569.277 494.583H530.006L505.763 434.476H451.464V494.583H415.973V305.323H530.998L558.029 332.374ZM70 332.373V467.579L96.9841 494.583H206.433V462.33H106.483V337.622H206.433V305.369H96.9841L70 332.373ZM238.757 467.579V332.373L265.741 305.369H361.485L388.469 332.373V467.579L361.485 494.583H265.741L238.757 467.579ZM593.189 305.323V494.631H730V464.601H628.68V412.485H715.019V383.448H628.68V335.353H727.495V305.323H593.189ZM233.086 729.953L273.822 540.692H348.82L389.556 729.953H352.317L343.574 682.85H279.068L270.325 729.953H233.086ZM70.5199 540.692V729.953H206.244V659.914H174.25V699.923H106.01V540.692H70.5199ZM562.613 566.702V618.061L548.861 629.836L567.623 645.868V703.989L541.631 730H416.02V540.739H536.669L562.613 566.702ZM593.142 698.929V729.952H703.914L729.905 703.941V625.059L628.585 616.783L629.058 572.849H727.873V541.826H619.559L593.567 567.836L593.094 643.077L694.415 651.353V698.929H593.142Z" fill="#161616" fill-rule="evenodd"/>
</g>
<defs>
<clipPath id="clip0_756_3797">
<rect fill="white" height="800" width="800"/>
</clipPath>
</defs>
</svg>