<?xml version="1.0" encoding="utf-8"?>
<svg xmlns="http://www.w3.org/2000/svg" fill="none" height="100%" overflow="visible" preserveAspectRatio="none" style="display: block;" viewBox="0 0 576.273 61.1476" width="100%">
<path d="M0 40.5488H17.4224C17.4224 45.4145 22.1592 48.5774 37.2534 48.5774C51.0627 48.5774 54.4348 46.3878 54.4348 42.7383C54.4348 38.5213 51.8656 37.7914 34.8447 36.656C11.6417 35.034 1.36489 30.3305 1.36489 17.5171C1.36489 5.43353 14.2912 0 34.1222 0C56.2013 0 68.8865 6.73108 69.3683 19.6256H52.0262C52.0262 14.5164 46.4864 12.5701 33.6404 12.5701C21.4368 12.5701 18.707 14.5975 18.707 17.7603C18.707 21.3286 21.4368 22.464 37.0124 23.7616C58.0478 25.3836 71.7769 26.8432 71.7769 42.0084C71.7769 56.8494 58.2084 61.1476 37.8153 61.1476C14.6123 61.1476 0.802874 55.795 0 40.5488ZM81.1524 1.62194H97.7719V59.5256H81.1524V1.62194ZM133.299 1.62194L167.101 43.1438V1.62194H183.64V59.5256H159.313L125.511 18.0037V59.5256H108.892V1.62194H133.299ZM193.065 30.4925C193.065 10.786 207.756 0 229.355 0C249.748 0 262.352 9.6506 263.477 22.7072H245.814C244.77 18.247 239.792 14.2731 229.434 14.2731C214.502 14.2731 210.488 23.1129 210.488 31.0604C210.488 39.089 214.26 48.0097 231.442 48.0097C239.23 48.0097 244.127 46.7121 249.426 44.4414V38.9268H229.115V27.9786H263.477V52.7134C251.675 59.3633 241.879 61.1476 230.559 61.1476C207.999 61.1476 193.065 50.3614 193.065 30.4925ZM344.322 1.62194V31.3037C344.322 51.0103 333.643 61.1476 308.996 61.1476C284.266 61.1476 273.67 51.0913 273.67 31.3037V1.62194H290.288V30.736C290.288 38.4403 293.018 46.8743 308.996 46.8743C325.053 46.8743 327.782 38.3591 327.782 30.736V1.62194H344.322ZM354.723 1.62194H371.342V45.2523H411.085V59.5256H354.723V1.62194ZM501.58 59.5256H483.757L478.296 48.5774H442.97L437.511 59.5256H419.608L449.152 1.62194H472.114L501.58 59.5256ZM460.633 13.3811L449.314 36.0073H471.955L460.633 13.3811ZM566.076 35.8451C572.258 36.4128 575.951 40.2244 575.951 46.7933V59.5256H559.411V49.956C559.411 44.5226 558.127 43.0628 552.506 43.0628H525.691V59.5256H509.071V1.62194H553.07C568.002 1.62194 576.273 7.62315 576.273 19.8688C576.273 28.384 572.579 33.4122 566.076 35.8451ZM548.975 15.3273H525.691V29.3574H548.975C554.031 29.3574 558.85 29.3572 558.85 22.383C558.85 15.3273 554.031 15.3273 548.975 15.3273Z" fill="var(--fill-0, white)" id="Vector"/>
</svg>