<svg width="48" height="48" viewBox="0 0 48 48" fill="none" xmlns="http://www.w3.org/2000/svg">
<path d="M47.171 21.1424C47.171 12.5718 47.4455 5.29334 48 1.71674L46.8555 0.572247L46.2833 0C42.7067 0.554445 35.4282 0.829024 26.8576 0.829024H21.1423C12.5718 0.829024 5.29332 0.554445 1.71674 0L1.14449 0.572247L0 1.7167C0.55449 5.29329 0.829069 12.5718 0.829069 21.1424V26.8576C0.829069 35.4282 0.55449 42.7067 4.40571e-05 46.2833L1.71674 48C5.29336 47.4455 12.5718 47.1709 21.1423 47.1709H26.8576C35.4282 47.1709 42.7067 47.4455 46.2833 48L47.1416 47.1416L48 46.2833C47.4455 42.7067 47.171 35.4282 47.171 26.8576V21.1424ZM39.9937 28.6779C39.85 29.6047 39.7788 31.4908 39.7788 33.7117V35.1927C39.7788 37.4137 39.85 39.2997 39.9937 40.2265L39.7712 40.449L39.5488 40.6714C38.622 40.5277 36.7359 40.4566 34.515 40.4566H33.0339C30.813 40.4566 28.9269 40.5277 28.0001 40.6714L27.5553 40.2266C27.6989 39.2998 27.7701 37.4137 27.7701 35.1927V33.7117C27.7701 31.4908 27.6989 29.6047 27.5553 28.6779L27.8518 28.3813L28.0001 28.233C28.9269 28.3767 30.813 28.4479 33.0339 28.4479H34.515C36.7359 28.4479 38.622 28.3767 39.5488 28.233L39.6971 28.3813L39.9937 28.6779Z" fill="#000711"/>
</svg>
