<svg width="99" height="32" fill="none" xmlns="http://www.w3.org/2000/svg"><path d="M9.2 25.6v-2.8H5.5V19h3.7v-2.9h7.3v-4H8V8.4h11.8v3.7h1.6v13.4H9.2zm7.3-5.7h-6v2h6.1v-2zM3.8.2v8.2H.2V.2h3.7zM26.3 32.2V8.6h2.2v2.2c.5-1 1-1.6 1.7-2 .7-.4 1.5-.6 2.3-.6a5 5 0 0 1 3 1c.9.7 1.6 1.6 2.2 3 .5 1.3.7 3 .7 4.8 0 3-.5 5.1-1.8 6.7-1.2 1.6-2.6 2.4-4.3 2.4-.7 0-1.3-.2-2-.6-.7-.4-1.2-1-1.6-1.6v8.3h-2.4zm2.1-15c0 1.7.3 3.4 1.2 4.9.7 1 1.6 1.6 2.6 1.6s2-.6 2.7-1.7c.8-1 1.1-2.7 1.1-5 0-2.2-.3-3.9-1-5-.8-1-1.7-1.6-2.8-1.6-1 0-1.8.6-2.6 1.8a9 9 0 0 0-1.2 5zm12-.1c0-3 .7-5.2 1.9-6.7A5.8 5.8 0 0 1 47 8.2a5.8 5.8 0 0 1 4.7 2.2c1.4 2 2 4.2 1.9 6.5 0 3.1-.6 5.4-1.9 6.9A5.8 5.8 0 0 1 47 26a6 6 0 0 1-4.7-2.2C41 22.3 40.4 20 40.4 17zm2.4 0c0 2.2.5 3.8 1.3 5 .8 1 1.8 1.6 3 1.6 1.1 0 2-.6 2.9-1.7a8.5 8.5 0 0 0 1.2-4.9c0-2.2-.5-3.8-1.3-5a3.6 3.6 0 0 0-3-1.5c-1.1 0-2 .5-2.9 1.6-.8 1-1.2 2.7-1.2 4.9zm12.6 3.4l2.4-.4c.2 1.2.5 2 1.1 2.7.7.5 1.5.9 2.5.9s1.8-.3 2.4-.8a2.5 2.5 0 0 0 .9-2 2 2 0 0 0-.8-1.5c-.3-.3-1.1-.6-2.4-1-1.3-.3-2.5-.8-3.7-1.4a4 4 0 0 1-1.4-1.7c-.4-.6-.5-1.3-.5-2.2 0-1.5.4-2.7 1.3-3.6 1-.9 2.3-1.3 4-1.3 1 0 1.9.1 2.7.5.8.4 1.4 1 1.8 1.5.4.7.7 1.6.9 2.8l-2.4.3c-.2-1.8-1.2-2.7-3-2.7-1 0-1.8.1-2.3.6a2 2 0 0 0-.7 1.6c0 .6.2 1.1.6 1.4.4.3 1.2.6 2.7 1 2 .7 3.2 1.2 3.7 1.6.6.3 1 .8 1.4 1.5.3.7.5 1.4.5 2.3 0 1.6-.5 3-1.6 4-1 1-2.4 1.5-4.2 1.5-3.3 0-5.3-1.9-5.8-5.5zm19.8 2.6l.3 2.5-1.8.3c-.8 0-1.5-.2-2-.5s-.8-.8-1-1.4c-.2-1-.3-2.2-.3-3.4v-9.8h-1.7V8.5h1.7V4.4l2.4-1.8v6h2.4v2.2h-2.4v10c0 1 0 1.6.2 1.8.2.4.6.6 1.1.6h1V23zm2.2 2.5v-17h2.1v2.6c.6-1.2 1-2 1.5-2.4.4-.4 1-.6 1.6-.6A4 4 0 0 1 85 9l-.8 2.7a3 3 0 0 0-1.7-.6 2 2 0 0 0-1.4.5c-.5.4-.7.8-.9 1.5-.3 1.1-.5 2.3-.4 3.5v9h-2.4zm8.1-8.5c0-3 .6-5.2 1.8-6.7a5.8 5.8 0 0 1 4.8-2.3 5.8 5.8 0 0 1 4.7 2.3c1.4 1.9 2 4.2 2 6.5 0 3-.7 5.3-2 6.9a5.8 5.8 0 0 1-4.7 2.2 6 6 0 0 1-4.7-2.2c-1.2-1.6-1.8-3.8-1.8-6.7zm2.4 0c0 2.2.4 3.8 1.2 5 .9 1 1.8 1.6 3 1.6 1.1 0 2.1-.6 2.9-1.7.8-1 1.2-2.7 1.2-4.9s-.4-3.8-1.2-5a3.6 3.6 0 0 0-3-1.5c-1.1 0-2 .5-2.9 1.6A8.4 8.4 0 0 0 88 17z" fill="#000"/></svg>