<svg width="95" height="24" viewBox="0 0 95 24" fill="none" xmlns="http://www.w3.org/2000/svg">
<path d="M21.4076 4.83954C22.3863 4.83954 23.1796 5.67499 23.1796 6.70556V7.81394C23.1796 8.84451 23.9729 9.67996 24.9516 9.67996H26.0586C27.0373 9.67996 27.8306 10.5154 27.8306 11.546V12.6308C27.8306 13.6614 28.6239 14.4969 29.6026 14.4969H30.6658C31.6444 14.4969 32.4378 15.3323 32.4378 16.3629V17.5292C32.4378 18.5597 31.6444 19.3952 30.6658 19.3952H29.5583C28.5797 19.3952 27.7864 18.5597 27.7864 17.5292V16.4443C27.7864 15.4137 26.993 14.5783 26.0144 14.5783H24.9512C23.9725 14.5783 23.1792 13.7428 23.1792 12.7123V11.6039C23.1792 10.5733 22.3859 9.73787 21.4072 9.73787H20.3002C19.3215 9.73787 18.5282 8.90243 18.5282 7.87185V6.76436C18.5282 5.73378 17.7349 4.89833 16.7562 4.89833H15.6487C14.6701 4.89833 13.8768 5.73378 13.8768 6.76436V7.87185C13.8768 8.90243 13.0834 9.73787 12.1048 9.73787H10.9973C10.0187 9.73787 9.22536 10.5733 9.22536 11.6039V12.7123C9.22536 13.7428 8.43203 14.5783 7.4534 14.5783H6.42337C5.44475 14.5783 4.65141 15.4137 4.65141 16.4443V17.5292C4.65141 18.5597 3.85808 19.3952 2.87946 19.3952H1.77196C0.793334 19.3952 9.11876e-08 18.5597 4.84105e-08 17.5292L0 16.3629C-4.27771e-08 15.3323 0.793334 14.4969 1.77196 14.4969H2.80199C3.78062 14.4969 4.57395 13.6614 4.57395 12.6308V11.546C4.57395 10.5154 5.36728 9.67996 6.34591 9.67996H7.4534C8.43203 9.67996 9.22536 8.84451 9.22536 7.81394V6.70556C9.22536 5.67499 10.0187 4.83954 10.9973 4.83954H12.1048C13.0834 4.83954 13.8768 4.00409 13.8768 2.97352V1.86602C13.8768 0.835447 14.6701 9.60279e-08 15.6487 5.098e-08L16.7562 0C17.7349 -4.50479e-08 18.5282 0.835447 18.5282 1.86602V2.97352C18.5282 4.00409 19.3215 4.83954 20.3002 4.83954H21.4076Z" fill="white"/>
<path d="M21.4076 14.2852C22.3862 14.2852 23.1796 15.1207 23.1796 16.1512V17.2356C23.1796 18.2662 23.9729 19.1017 24.9515 19.1017H26.055C27.0336 19.1017 27.8269 19.9371 27.8269 20.9677V22.134C27.8269 23.1646 27.0336 24 26.055 24H24.9475C23.9689 24 23.1755 23.1646 23.1755 22.134V21.0496C23.1755 20.019 22.3822 19.1835 21.4036 19.1835H20.3001C19.3215 19.1835 18.5282 18.3481 18.5282 17.3175V16.2096C18.5282 15.179 17.7348 14.3436 16.7562 14.3436H15.6487C14.6701 14.3436 13.8767 15.179 13.8767 16.2096V17.3175C13.8767 18.3481 13.0834 19.1835 12.1048 19.1835H11.0748C10.0961 19.1835 9.3028 20.019 9.3028 21.0496V22.134C9.3028 23.1646 8.50947 24 7.53084 24H6.42335C5.44472 24 4.65139 23.1646 4.65139 22.134V20.9677C4.65139 19.9371 5.44472 19.1017 6.42335 19.1017H7.45338C8.432 19.1017 9.22534 18.2662 9.22534 17.2356V16.1512C9.22534 15.1207 10.0187 14.2852 10.9973 14.2852H12.1048C13.0834 14.2852 13.8767 13.4498 13.8767 12.4192V11.3112C13.8767 10.2807 14.6701 9.44522 15.6487 9.44522H16.7562C17.7348 9.44522 18.5282 10.2807 18.5282 11.3112V12.4192C18.5282 13.4498 19.3215 14.2852 20.3001 14.2852H21.4076Z" fill="white"/>
<path d="M40.0569 19.2L45.5253 6.8511H47.8711L53.3078 19.2H51.0729L49.5671 15.8155H43.7342L42.2284 19.2H40.0569ZM44.4474 14.0165H48.9331L46.7299 8.97023H46.6507L44.4474 14.0165Z" fill="white"/>
<path d="M54.662 19.2V6.39374H56.8177V19.2H54.662Z" fill="white"/>
<path d="M61.9079 19.2C61.3267 19.2 60.8723 19.0577 60.5447 18.7731C60.2277 18.4885 60.0692 18.0566 60.0692 17.4773V11.6687H58.3574V10.0527H60.0851V7.30847H62.209V10.0527H64.5707V11.6687H62.2249V17.5687H64.8085V19.2H61.9079Z" fill="white"/>
<path d="M70.3059 19.3677C69.0378 19.3677 68.0498 19.0374 67.3418 18.3767C66.6444 17.7161 66.2957 16.8166 66.2957 15.6783V10.0527H68.4514V15.2666C68.4514 16.0188 68.6521 16.5879 69.0537 16.9741C69.4552 17.3502 70.0523 17.5382 70.8448 17.5382C71.6584 17.5382 72.2871 17.335 72.731 16.9284C73.1853 16.5219 73.4125 15.9527 73.4125 15.2209V10.0527H75.5682V17.1114H76.6619V19.2H74.4269V17.7517H73.7612C73.402 18.2802 72.9423 18.6817 72.3822 18.9561C71.8222 19.2305 71.1301 19.3677 70.3059 19.3677Z" fill="white"/>
<path d="M78.8329 19.2V12.1413H77.7392V10.0527H79.9899V11.8059H80.6557C80.9093 11.2062 81.3108 10.7489 81.8603 10.4338C82.4203 10.1187 83.0596 9.9612 83.7782 9.9612H84.5707V11.7449H83.6831C82.7849 11.7449 82.1033 11.9939 81.6384 12.492C81.184 12.99 80.9568 13.6557 80.9568 14.4891V19.2H78.8329Z" fill="white"/>
<path d="M88.7391 19.3677C87.6507 19.3677 86.7895 19.1085 86.1555 18.5902C85.532 18.0718 85.2203 17.3909 85.2203 16.5473C85.2203 15.663 85.5373 14.977 86.1713 14.4891C86.8054 14.0013 87.7141 13.7573 88.8976 13.7573H91.9092V13.3762C91.9092 12.1566 91.1906 11.5467 89.7535 11.5467C88.5383 11.5467 87.8092 11.9685 87.5662 12.8121H85.4105C85.5901 11.8669 86.0551 11.1402 86.8054 10.632C87.5662 10.1238 88.5542 9.86972 89.7694 9.86972C91.1325 9.86972 92.1733 10.1746 92.8919 10.7845C93.6105 11.3841 93.9697 12.2582 93.9697 13.4067V17.1114H95V19.2H92.7651V17.7517H92.0994C91.7718 18.2599 91.328 18.6562 90.7679 18.9408C90.2079 19.2254 89.5316 19.3677 88.7391 19.3677ZM89.0561 17.7517C89.595 17.7517 90.0811 17.65 90.5143 17.4468C90.9476 17.2435 91.2857 16.9741 91.5288 16.6387C91.7824 16.2932 91.9092 15.912 91.9092 15.4953V15.2057H89.0086C87.8462 15.2057 87.265 15.6224 87.265 16.4558C87.265 16.8623 87.4235 17.1825 87.7405 17.4163C88.0575 17.6399 88.4961 17.7517 89.0561 17.7517Z" fill="white"/>
</svg>
