<svg width="33" height="24" viewBox="0 0 33 24" fill="none" xmlns="http://www.w3.org/2000/svg">
    <path fill-rule="evenodd" clip-rule="evenodd" d="M23.3407 0.243096L24.3598 0L32.3324 15.7598L32.0844 16.4886L16.3988 24L15.9336 24L0.247958 16.4891L0 15.7602L7.97258 0.000480536L8.99165 0.243577V14.718L15.7886 8.03381L16.5438 8.0338L23.3407 14.7175V0.243096ZM24.0981 16.5409L18.8908 21.6124L29.4807 16.5412L24.0981 16.5409ZM30.9758 15.4643L24.4178 15.4639V2.50063L30.9758 15.4643ZM16.7047 22.2381L23.1093 16.0005L16.7047 9.70262V22.2381ZM15.6277 9.70267V22.2381L9.22308 16.001L15.6277 9.70267ZM7.91459 15.4644L1.35652 15.4648L7.91459 2.50111V15.4644ZM2.85182 16.5417L13.4414 21.6125L8.23424 16.5414L2.85182 16.5417Z" fill="#00F554" />
</svg>
