<svg width="170" height="16" viewBox="0 0 170 16" fill="none" xmlns="http://www.w3.org/2000/svg">
    <path d="M12.4548 12.4117L14.9972 0.497574H17.1158L13.7509 15.3778H11.2335L8.61637 3.96215L5.99925 15.3778H3.4569L0.141876 0.497574H2.2605L4.753 12.4117L7.51967 0.497574H9.71307L12.4548 12.4117Z" fill="#00F554" />
    <path d="M25.9006 15.3778H23.8568V0.497574H25.9006V15.3778Z" fill="#00F554" />
    <path d="M42.3275 12.0129V0.497574H44.3714V15.3778H41.9536L36.1212 3.96215V15.3778H34.0774V0.497574H36.52L42.3275 12.0129Z" fill="#00F554" />
    <path d="M51.6023 0.497574H61.996V2.46665H57.8086V15.3778H55.7648V2.46665H51.6023V0.497574Z" fill="#00F554" />
    <path d="M78.2177 0.497574V2.46665H71.2885V6.97807H77.7441V8.92222H71.2885V13.4336H78.2177V15.3778H69.2447V0.497574H78.2177Z" fill="#00F554" />
    <path d="M97.0482 15.3778H94.7551L91.7891 9.14654H88.3245V15.3778H86.2807V0.497574H93.3344C93.8578 0.497574 94.3563 0.622199 94.805 0.946222C95.129 1.17055 95.8269 1.84352 96.0512 2.16755C96.3503 2.6162 96.475 3.13962 96.475 3.66305V5.98107C96.475 6.50449 96.3503 7.02792 96.0512 7.47657C95.8269 7.80059 95.129 8.47357 94.805 8.69789C94.5308 8.89729 94.2566 8.99699 93.9575 9.07177L97.0482 15.3778ZM93.1101 2.46665H88.3245V7.17747H93.1101C93.4092 7.17747 93.6086 7.07777 93.9575 6.70389C94.3314 6.35494 94.4311 6.15554 94.4311 5.88137V3.76275C94.4311 3.48857 94.3065 3.28917 93.9575 2.9153C93.6086 2.56635 93.4092 2.46665 93.1101 2.46665Z" fill="#00F554" />
    <path d="M110.989 8.97207L114.853 0.497574H117.445V15.3778H115.401V3.78767L111.911 11.4646H110.067L106.578 3.76275V15.3778H104.534V0.497574H107.126L110.989 8.97207Z" fill="#00F554" />
    <path d="M132.389 15.5024H129.174C128.476 15.5024 127.978 15.3279 127.504 14.9042C127.18 14.63 126.632 14.1066 126.407 13.8574C125.834 13.2342 125.635 12.7856 125.635 11.9631V0.497574H127.678V12.0378C127.678 12.2372 127.853 12.4865 128.302 12.9351C128.75 13.3589 128.999 13.5583 129.199 13.5583H132.339C132.539 13.5583 132.788 13.3838 133.237 12.9351C133.685 12.4865 133.885 12.2372 133.885 12.0378V0.497574H135.929V11.9631C135.929 12.661 135.754 13.1595 135.33 13.658C135.031 13.982 134.508 14.5054 134.259 14.7297C133.635 15.3279 133.187 15.5024 132.389 15.5024Z" fill="#00F554" />
    <path d="M143.16 0.497574H153.553V2.46665H149.366V15.3778H147.322V2.46665H143.16V0.497574Z" fill="#00F554" />
    <path d="M169.775 0.497574V2.46665H162.846V6.97807H169.301V8.92222H162.846V13.4336H169.775V15.3778H160.802V0.497574H169.775Z" fill="#00F554" />
</svg>
