<svg width="400" height="400" viewBox="0 0 400 400" fill="none" xmlns="http://www.w3.org/2000/svg">
<circle cx="200" cy="200" r="200" fill="#FFFFFF"/>
<g clip-path="url(#clip0_661_512)">
<path d="M311.333 249.75C290.559 263.516 250.535 273.006 204.185 273.574C201.768 273.599 199.796 271.491 199.796 268.892V251.794C199.796 249.232 197.871 247.137 195.488 247.112H195.383C195.031 247.112 194.667 247.112 194.315 247.1C192.859 247.074 191.415 247.049 189.972 247.011C189.89 247.011 189.796 247.011 189.714 247.011C188.34 246.973 186.967 246.923 185.606 246.872C185.265 246.86 184.925 246.847 184.585 246.835C183.164 246.772 181.744 246.708 180.336 246.633C180.207 246.633 180.077 246.62 179.948 246.607C178.634 246.532 177.331 246.456 176.04 246.368C175.723 246.342 175.406 246.33 175.089 246.305C173.692 246.204 172.308 246.103 170.934 245.989C170.77 245.977 170.606 245.964 170.453 245.951C169.197 245.85 167.953 245.737 166.709 245.611C166.415 245.585 166.122 245.56 165.84 245.522C164.479 245.383 163.129 245.245 161.791 245.093C161.615 245.068 161.439 245.055 161.263 245.03C160.042 244.891 158.833 244.74 157.624 244.588C157.378 244.551 157.12 244.525 156.873 244.5C155.547 244.324 154.221 244.147 152.918 243.958C152.742 243.932 152.566 243.907 152.39 243.882C151.192 243.705 150.019 243.529 148.833 243.339C148.622 243.301 148.423 243.276 148.211 243.238C146.908 243.036 145.629 242.822 144.35 242.595C144.185 242.569 144.021 242.532 143.857 242.506C142.671 242.292 141.509 242.077 140.347 241.863C140.195 241.838 140.042 241.8 139.89 241.775C138.622 241.535 137.378 241.282 136.134 241.017C135.981 240.992 135.84 240.954 135.688 240.929C134.514 240.677 133.352 240.424 132.202 240.172C132.108 240.147 132.014 240.134 131.932 240.109C130.7 239.831 129.491 239.541 128.282 239.251C128.153 239.226 128.035 239.188 127.906 239.162C126.732 238.872 125.57 238.582 124.432 238.279C124.397 238.279 124.373 238.267 124.338 238.254C123.153 237.938 121.991 237.61 120.829 237.282C120.723 237.257 120.617 237.219 120.5 237.194C118.2 236.525 115.958 235.844 113.798 235.125C113.716 235.099 113.634 235.074 113.552 235.036C111.369 234.304 109.256 233.56 107.225 232.777C107.167 232.752 107.108 232.727 107.049 232.714C105.007 231.932 103.035 231.112 101.146 230.279C101.099 230.266 101.063 230.241 101.016 230.228C99.115 229.383 97.3075 228.512 95.5704 227.616C95.5469 227.604 95.5235 227.591 95.4883 227.579C93.7512 226.683 92.108 225.761 90.5469 224.815C90.5352 224.815 90.5117 224.802 90.5 224.79C88.939 223.843 87.4718 222.872 86.0986 221.875C86.0986 221.875 86.0986 221.875 86.0751 221.862C84.7019 220.865 83.4225 219.843 82.2488 218.809C79.5023 216.588 77.554 213.799 76.1455 211.124C75.3005 209.509 73.0235 210.114 73.0235 211.969V228.26C73.0235 252.828 127.437 272.842 195.418 273.662C197.812 273.687 199.749 275.769 199.749 278.343V295.467C199.749 298.041 197.8 300.111 195.406 300.085H195.359C195.007 300.085 194.643 300.085 194.291 300.073C192.836 300.047 191.392 300.022 189.948 299.984C189.866 299.984 189.772 299.984 189.69 299.984C188.317 299.946 186.944 299.896 185.582 299.846C185.242 299.833 184.901 299.82 184.561 299.808C183.141 299.745 181.721 299.681 180.312 299.606C180.183 299.606 180.054 299.593 179.925 299.581C178.61 299.505 177.308 299.429 176.016 299.341C175.7 299.316 175.383 299.303 175.066 299.278C173.669 299.177 172.284 299.076 170.911 298.962C170.746 298.95 170.582 298.937 170.43 298.924C169.174 298.823 167.93 298.71 166.685 298.584C166.392 298.558 166.099 298.533 165.817 298.495C164.455 298.357 163.106 298.218 161.768 298.066C161.592 298.041 161.415 298.028 161.239 298.003C160.019 297.864 158.81 297.713 157.601 297.562C157.354 297.524 157.096 297.498 156.85 297.473C155.523 297.297 154.197 297.12 152.894 296.931C152.718 296.905 152.542 296.88 152.366 296.855C151.169 296.678 149.995 296.502 148.81 296.312C148.599 296.274 148.399 296.249 148.188 296.211C146.885 296.009 145.606 295.795 144.326 295.568C144.162 295.543 143.998 295.505 143.833 295.479C142.648 295.265 141.486 295.05 140.324 294.836C140.171 294.811 140.019 294.773 139.866 294.748C138.599 294.508 137.354 294.255 136.11 293.99C135.958 293.965 135.817 293.927 135.664 293.902C134.491 293.65 133.329 293.397 132.178 293.145C132.085 293.12 131.991 293.107 131.908 293.082C130.676 292.804 129.467 292.514 128.258 292.224C128.129 292.199 128.012 292.161 127.883 292.136C126.709 291.845 125.547 291.555 124.408 291.252C124.373 291.252 124.35 291.24 124.315 291.227C123.129 290.912 121.967 290.583 120.805 290.255C120.7 290.23 120.594 290.192 120.477 290.167C118.176 289.498 115.934 288.817 113.775 288.098C113.692 288.072 113.61 288.047 113.528 288.009C111.345 287.277 109.232 286.533 107.202 285.751C107.143 285.725 107.085 285.7 107.026 285.687C104.984 284.905 103.012 284.085 101.122 283.252C101.075 283.239 101.04 283.214 100.993 283.202C99.0915 282.356 97.284 281.485 95.5469 280.589C95.5235 280.577 95.5 280.564 95.4648 280.552C93.7277 279.656 92.0845 278.735 90.5235 277.788C90.5117 277.788 90.4883 277.776 90.4765 277.763C88.9155 276.817 87.4484 275.845 86.0751 274.848C86.0751 274.848 86.0751 274.848 86.0516 274.835C84.6784 273.838 83.3991 272.816 82.2254 271.782C79.4789 269.561 77.5305 266.772 76.1221 264.097C75.277 262.482 73 263.087 73 264.942V281.233C73 305.789 127.39 325.802 195.347 326.635C197.765 326.66 199.761 324.578 199.761 321.979V304.868C199.761 302.306 201.674 300.211 204.056 300.186C275.676 299.353 319.455 277.851 319.455 262.356C319.455 258.431 316.65 254.128 311.298 249.863L311.333 249.75Z" fill="#000000"/>
<path d="M88.1963 149.809C108.983 136.042 149.018 126.553 195.391 125.985C197.797 125.96 199.757 128.067 199.757 130.642V147.79C199.757 150.352 201.682 152.447 204.065 152.472H204.171C204.523 152.472 204.886 152.472 205.239 152.484C206.694 152.51 208.138 152.535 209.581 152.573C209.663 152.573 209.757 152.573 209.84 152.573C211.213 152.611 212.586 152.661 213.947 152.712C214.288 152.724 214.628 152.737 214.969 152.749C216.389 152.813 217.809 152.876 219.217 152.951C219.347 152.951 219.476 152.964 219.605 152.977C220.919 153.052 222.222 153.128 223.513 153.216C223.83 153.242 224.147 153.254 224.464 153.279C225.861 153.38 227.246 153.481 228.619 153.595C228.783 153.607 228.947 153.62 229.1 153.633C230.356 153.734 231.6 153.847 232.844 153.973C233.138 153.999 233.431 154.024 233.713 154.062C235.074 154.201 236.424 154.339 237.762 154.491C237.938 154.516 238.114 154.529 238.29 154.554C239.511 154.693 240.72 154.844 241.929 154.996C242.175 155.033 242.433 155.059 242.68 155.084C244.006 155.261 245.332 155.437 246.635 155.626C246.811 155.652 246.987 155.677 247.163 155.702C248.361 155.879 249.534 156.056 250.72 156.245C250.931 156.283 251.131 156.308 251.342 156.346C252.645 156.548 253.924 156.762 255.203 156.989C255.368 157.015 255.532 157.052 255.696 157.078C256.882 157.292 258.044 157.507 259.206 157.721C259.358 157.746 259.511 157.784 259.663 157.809C260.931 158.049 262.175 158.302 263.419 158.567C263.572 158.592 263.713 158.63 263.865 158.655C265.039 158.907 266.201 159.16 267.351 159.412C267.445 159.437 267.539 159.45 267.621 159.475C268.854 159.753 270.063 160.043 271.271 160.333C271.401 160.358 271.518 160.396 271.647 160.422C272.821 160.712 273.983 161.002 275.121 161.305C275.156 161.305 275.18 161.317 275.215 161.33C276.401 161.646 277.563 161.974 278.724 162.302C278.83 162.327 278.936 162.365 279.053 162.39C281.354 163.059 283.595 163.74 285.755 164.46C285.837 164.485 285.919 164.51 286.001 164.548C288.185 165.28 290.297 166.024 292.328 166.807C292.386 166.832 292.445 166.857 292.504 166.87C294.546 167.652 296.518 168.472 298.408 169.305C298.455 169.318 298.49 169.343 298.537 169.356C300.438 170.201 302.246 171.072 303.983 171.968C304.006 171.98 304.03 171.993 304.065 172.005C305.802 172.901 307.457 173.823 309.006 174.769C309.018 174.769 309.03 174.782 309.053 174.794C310.614 175.741 312.081 176.712 313.455 177.709C313.455 177.709 313.466 177.709 313.478 177.722C314.851 178.719 316.131 179.741 317.304 180.775C320.063 183.009 322.023 185.81 323.419 188.498C324.253 190.101 326.53 189.457 326.53 187.627V171.324C326.53 146.756 272.093 126.742 204.088 125.922C201.706 125.897 199.781 123.827 199.781 121.266V104.092C199.781 101.505 201.741 99.423 204.147 99.4609H204.194C204.546 99.4609 204.91 99.4609 205.262 99.4735C206.717 99.4988 208.161 99.524 209.605 99.5619C209.687 99.5619 209.781 99.5619 209.863 99.5619C211.236 99.5997 212.609 99.6502 213.971 99.7007C214.311 99.7133 214.652 99.7259 214.992 99.7385C216.412 99.8016 217.832 99.8647 219.241 99.9404C219.37 99.9404 219.499 99.953 219.628 99.9656C220.943 100.041 222.246 100.117 223.537 100.205C223.854 100.231 224.171 100.243 224.487 100.268C225.884 100.369 227.269 100.47 228.642 100.584C228.807 100.597 228.971 100.609 229.124 100.622C230.379 100.723 231.624 100.836 232.868 100.963C233.161 100.988 233.455 101.013 233.736 101.051C235.098 101.19 236.447 101.328 237.786 101.48C237.962 101.505 238.138 101.518 238.314 101.543C239.534 101.682 240.743 101.833 241.952 101.985C242.199 102.022 242.457 102.048 242.703 102.073C244.03 102.25 245.356 102.426 246.659 102.616C246.835 102.641 247.011 102.666 247.187 102.691C248.384 102.868 249.558 103.045 250.743 103.234C250.955 103.272 251.154 103.297 251.365 103.335C252.668 103.537 253.947 103.751 255.227 103.978C255.391 104.004 255.555 104.041 255.72 104.067C256.905 104.281 258.067 104.496 259.229 104.71C259.382 104.735 259.534 104.773 259.687 104.799C260.955 105.038 262.199 105.291 263.443 105.556C263.595 105.581 263.736 105.619 263.889 105.644C265.063 105.896 266.224 106.149 267.375 106.401C267.469 106.426 267.563 106.439 267.645 106.464C268.877 106.742 270.086 107.032 271.295 107.322C271.424 107.348 271.541 107.385 271.671 107.411C272.844 107.701 274.006 107.991 275.145 108.294C275.18 108.294 275.203 108.307 275.239 108.319C276.424 108.635 277.586 108.963 278.748 109.291C278.854 109.316 278.959 109.354 279.077 109.379C281.377 110.048 283.619 110.729 285.778 111.449C285.861 111.474 285.943 111.499 286.025 111.537C288.208 112.269 290.321 113.013 292.351 113.796C292.41 113.821 292.469 113.846 292.527 113.859C294.57 114.641 296.541 115.461 298.431 116.294C298.478 116.307 298.513 116.332 298.56 116.345C300.462 117.19 302.269 118.061 304.006 118.957C304.03 118.969 304.053 118.982 304.088 118.995C305.825 119.89 307.48 120.812 309.03 121.758C309.041 121.758 309.053 121.771 309.077 121.783C310.638 122.73 312.105 123.701 313.478 124.698C313.478 124.698 313.49 124.698 313.501 124.711C314.875 125.708 316.154 126.73 317.328 127.765C320.086 129.998 322.046 132.799 323.443 135.487C324.276 137.09 326.553 136.446 326.553 134.604V118.301C326.553 93.7447 272.163 73.7315 204.206 72.8987C201.788 72.8734 199.793 74.9555 199.793 77.5549V94.7163C199.793 97.2653 197.891 99.3473 195.52 99.3726C123.842 100.319 80.0391 121.821 80.0391 137.317C80.0391 141.241 82.8442 145.544 88.1963 149.809Z" fill="#000000"/>
<path d="M201.545 182.692H199.432C198.07 182.692 196.709 182.692 195.359 182.667C195.007 182.667 194.643 182.667 194.291 182.654C192.836 182.629 191.392 182.604 189.948 182.566C189.866 182.566 189.772 182.566 189.69 182.566C188.317 182.528 186.944 182.478 185.582 182.427C185.242 182.414 184.901 182.402 184.561 182.389C183.141 182.326 181.721 182.263 180.312 182.187C180.183 182.187 180.054 182.175 179.937 182.162C178.622 182.086 177.319 182.011 176.028 181.922C175.711 181.897 175.394 181.884 175.077 181.859C173.681 181.758 172.296 181.657 170.923 181.544C170.758 181.531 170.594 181.518 170.441 181.506C169.185 181.405 167.941 181.291 166.697 181.165C166.404 181.14 166.11 181.115 165.829 181.077C164.467 180.938 163.117 180.799 161.779 180.648C161.603 180.623 161.427 180.61 161.251 180.585C160.031 180.446 158.822 180.294 157.613 180.143C157.366 180.105 157.108 180.08 156.862 180.055C155.535 179.878 154.209 179.701 152.906 179.512C152.73 179.487 152.554 179.462 152.366 179.436C151.169 179.26 149.995 179.083 148.81 178.894C148.599 178.856 148.399 178.831 148.188 178.793C146.885 178.591 145.606 178.376 144.326 178.149C144.162 178.124 143.998 178.086 143.833 178.061C142.648 177.846 141.486 177.632 140.324 177.417C140.171 177.392 140.019 177.354 139.866 177.329C138.599 177.089 137.354 176.837 136.11 176.572C135.958 176.547 135.817 176.509 135.664 176.484C134.491 176.231 133.329 175.979 132.178 175.727C132.085 175.701 131.991 175.689 131.908 175.663C130.676 175.386 129.467 175.096 128.258 174.805C128.129 174.78 128.012 174.742 127.883 174.717C126.709 174.427 125.559 174.137 124.408 173.834C124.373 173.834 124.35 173.821 124.315 173.809C123.129 173.493 121.955 173.165 120.805 172.837C120.7 172.812 120.594 172.774 120.477 172.749C118.176 172.08 115.934 171.398 113.775 170.679C113.692 170.654 113.61 170.629 113.528 170.591C111.345 169.859 109.232 169.114 107.202 168.332C107.143 168.307 107.085 168.282 107.026 168.269C104.984 167.487 103.012 166.666 101.122 165.834C101.075 165.821 101.04 165.796 100.993 165.783C99.0915 164.938 97.284 164.067 95.5469 163.171C95.5235 163.158 95.5 163.146 95.4648 163.133C93.7277 162.237 92.0728 161.316 90.5235 160.37C90.5117 160.37 90.5 160.357 90.4765 160.344C88.9155 159.398 87.4484 158.426 86.0751 157.43C86.0751 157.43 86.0634 157.43 86.0516 157.417C84.6784 156.42 83.3991 155.398 82.2254 154.363C79.4671 152.13 77.507 149.316 76.1103 146.641C75.277 145.038 73 145.682 73 147.511V171.386C73 196.472 129.749 216.813 199.761 216.813V216.8C201.239 216.813 202.707 216.825 204.174 216.851C204.526 216.851 204.89 216.851 205.242 216.863C206.697 216.889 208.141 216.914 209.585 216.952C209.667 216.952 209.761 216.952 209.843 216.952C211.216 216.989 212.589 217.04 213.951 217.09C214.291 217.103 214.631 217.116 214.972 217.128C216.392 217.191 217.812 217.254 219.221 217.33C219.35 217.33 219.479 217.343 219.608 217.355C220.923 217.431 222.225 217.507 223.516 217.595C223.833 217.62 224.15 217.633 224.467 217.658C225.864 217.759 227.249 217.86 228.622 217.974C228.786 217.986 228.951 217.999 229.103 218.012C230.359 218.113 231.603 218.226 232.847 218.352C233.141 218.378 233.423 218.403 233.716 218.441C235.077 218.579 236.427 218.718 237.765 218.87C237.941 218.895 238.117 218.908 238.293 218.933C239.514 219.072 240.723 219.223 241.932 219.374C242.178 219.412 242.437 219.438 242.683 219.463C244.009 219.639 245.336 219.816 246.638 220.005C246.815 220.031 246.991 220.056 247.167 220.081C248.364 220.258 249.549 220.434 250.723 220.624C250.934 220.662 251.134 220.687 251.345 220.725C252.648 220.927 253.927 221.141 255.207 221.368C255.371 221.393 255.535 221.431 255.7 221.456C256.885 221.671 258.047 221.886 259.209 222.1C259.361 222.125 259.514 222.163 259.667 222.188C260.934 222.428 262.178 222.681 263.423 222.945C263.575 222.971 263.716 223.009 263.869 223.034C265.042 223.286 266.204 223.539 267.354 223.791C267.448 223.816 267.542 223.829 267.624 223.854C268.857 224.132 270.066 224.422 271.275 224.712C271.404 224.737 271.521 224.775 271.65 224.8C272.824 225.091 273.986 225.381 275.124 225.684C275.16 225.684 275.183 225.696 275.218 225.709C276.404 226.024 277.566 226.353 278.728 226.681C278.833 226.706 278.951 226.744 279.056 226.769C281.357 227.438 283.599 228.119 285.758 228.838C285.84 228.864 285.923 228.889 286.005 228.927C288.188 229.659 290.3 230.403 292.331 231.185C292.39 231.211 292.448 231.236 292.507 231.249C294.549 232.031 296.521 232.851 298.411 233.684C298.458 233.697 298.493 233.722 298.54 233.734C300.441 234.58 302.249 235.451 303.986 236.346C304.009 236.359 304.033 236.372 304.068 236.384C305.805 237.28 307.448 238.201 309.009 239.148C309.021 239.148 309.045 239.16 309.056 239.173C310.617 240.119 312.085 241.091 313.458 242.088C313.458 242.088 313.458 242.088 313.481 242.101C314.854 243.097 316.134 244.12 317.308 245.154C320.066 247.388 322.026 250.189 323.423 252.877C324.256 254.479 326.533 253.836 326.533 252.006V228.132C326.533 203.26 270.735 183.058 201.533 182.717L201.545 182.692Z" fill="#000000"/>
</g>
<defs>
<clipPath id="clip0_661_512">
<rect width="253.521" height="253.521" fill="#000000" transform="translate(73 73)"/>
</clipPath>
</defs>
</svg>
