<svg width="104" height="20" viewBox="0 0 104 20" fill="none" xmlns="http://www.w3.org/2000/svg">
<g id="content" clip-path="url(#clip0_1916_36039)">
<g id="Group 9">
<path id="Exclude" fill-rule="evenodd" clip-rule="evenodd" d="M17.8113 5.91375V14.086H17.8129C17.8129 14.7394 17.4629 15.3428 16.8979 15.6694L9.82069 19.7547C9.25565 20.0814 8.55727 20.0814 7.99223 19.7547L0.915065 15.6694C0.348358 15.3428 0 14.7394 0 14.086V5.91375C0 5.26037 0.350025 4.657 0.915065 4.33031L2.85849 3.2082V11.5942C2.85849 12.5409 3.36853 13.4243 4.18858 13.8977L7.65216 15.8978C8.06386 16.1345 8.50889 16.2529 8.98226 16.2529C9.45562 16.2529 9.92732 16.1262 10.349 15.8745L13.6593 13.8894C14.456 13.4127 14.951 12.5393 14.951 11.6109V3.20745L16.8962 4.33031C17.4629 4.657 17.8113 5.26037 17.8113 5.91375ZM12.4508 1.76423V1.7635L14.951 3.20694V3.20745L12.4508 1.76423ZM12.4508 1.76423V11.6109C12.4508 11.6659 12.4208 11.7175 12.3742 11.7459L9.06226 13.731C9.01393 13.7593 8.95225 13.761 8.90225 13.731L5.43867 11.7309C5.39034 11.7042 5.35867 11.6509 5.35867 11.5942V1.76464L7.99057 0.245017C8.5556 -0.0816724 9.25399 -0.0816724 9.81903 0.245017L12.4508 1.76423ZM5.35867 1.76464L2.85849 3.2082V3.20694L5.35867 1.7635V1.76464Z" fill="#1ED760"/>
<g id="Group">
<path id="Vector" d="M28.6626 11.0274V5.41699H30.9445V15.0993H28.7326V13.3776H28.6326C28.4143 13.9193 28.0559 14.3626 27.5575 14.7076C27.0592 15.0527 26.4475 15.2244 25.7208 15.2244C25.0857 15.2244 24.5257 15.0827 24.0406 14.7993C23.5556 14.516 23.1756 14.1026 22.9022 13.5576C22.6289 13.0142 22.4922 12.3542 22.4922 11.5808V5.41699H24.774V11.2291C24.774 11.8424 24.9424 12.3308 25.2791 12.6908C25.6157 13.0525 26.0558 13.2325 26.6025 13.2325C26.9392 13.2325 27.2642 13.1509 27.5792 12.9859C27.8942 12.8208 28.1543 12.5775 28.3576 12.2508C28.561 11.9258 28.6626 11.5158 28.6626 11.0241V11.0274Z" fill="black"/>
<path id="Vector_2" d="M35.0396 9.42631V15.1H32.7578V5.41769H34.9396V7.06281H35.053C35.2763 6.5211 35.6314 6.08941 36.1214 5.77105C36.6114 5.45103 37.2165 5.29102 37.9398 5.29102C38.6082 5.29102 39.1916 5.43436 39.69 5.71938C40.1883 6.0044 40.575 6.41943 40.8501 6.96113C41.1251 7.50284 41.2601 8.16122 41.2567 8.93461V15.1H38.9749V9.28797C38.9749 8.64125 38.8082 8.13455 38.4732 7.76786C38.1399 7.40283 37.6782 7.21949 37.0898 7.21949C36.6898 7.21949 36.3364 7.30616 36.028 7.48117C35.7197 7.65618 35.478 7.9062 35.303 8.23456C35.128 8.56291 35.0413 8.95961 35.0413 9.42631H35.0396Z" fill="black"/>
<path id="Vector_3" d="M47.8815 5.41684V7.18197H42.3145V5.41684H47.8815ZM43.6896 3.09668H45.9714V12.1873C45.9714 12.494 46.018 12.729 46.1131 12.8907C46.2081 13.0524 46.3331 13.1624 46.4881 13.2224C46.6431 13.2807 46.8164 13.3107 47.0048 13.3107C47.1481 13.3107 47.2798 13.3007 47.3981 13.2791C47.5165 13.2574 47.6098 13.2391 47.6732 13.2224L48.0582 15.0059C47.9365 15.0475 47.7632 15.0942 47.5382 15.1442C47.3131 15.1942 47.0398 15.2242 46.7148 15.2325C46.1431 15.2492 45.628 15.1625 45.1697 14.9709C44.7113 14.7792 44.3496 14.4825 44.0829 14.0791C43.8162 13.6758 43.6846 13.1707 43.6896 12.5657V3.09668Z" fill="black"/>
<path id="Vector_4" d="M52.0469 15.2948C51.4335 15.2948 50.8818 15.1848 50.3917 14.9631C49.9017 14.7431 49.515 14.4164 49.2317 13.983C48.9483 13.5496 48.8066 13.0163 48.8066 12.3812C48.8066 11.8345 48.9066 11.3828 49.11 11.0261C49.3117 10.6694 49.5867 10.3828 49.9351 10.1694C50.2834 9.95439 50.6784 9.79271 51.1168 9.68104C51.5552 9.56937 52.0102 9.48936 52.4819 9.43769C53.0486 9.37935 53.5086 9.32601 53.862 9.27768C54.2154 9.22934 54.472 9.15434 54.6337 9.051C54.7954 8.94765 54.8771 8.78764 54.8771 8.56929V8.53096C54.8771 8.05593 54.7354 7.68923 54.4554 7.42755C54.1737 7.16753 53.7687 7.03752 53.2386 7.03752C52.6802 7.03752 52.2369 7.15919 51.9119 7.40255C51.5868 7.6459 51.3668 7.93425 51.2535 8.26594L49.1233 7.96259C49.2917 7.37421 49.5684 6.88084 49.9551 6.48415C50.3417 6.08745 50.8151 5.7891 51.3735 5.58908C51.9319 5.38907 52.5502 5.28906 53.227 5.28906C53.6937 5.28906 54.157 5.34407 54.6204 5.45241C55.0821 5.56242 55.5054 5.74076 55.8871 5.99078C56.2688 6.2408 56.5772 6.58082 56.8105 7.00918C57.0439 7.43755 57.1606 7.97425 57.1606 8.61596V15.0964H54.9671V13.7663H54.8921C54.7537 14.0347 54.5587 14.2864 54.3087 14.5197C54.0587 14.7531 53.7453 14.9397 53.3686 15.0814C52.9919 15.2214 52.5519 15.2931 52.0485 15.2931L52.0469 15.2948ZM52.6402 13.618C53.0986 13.618 53.4953 13.5263 53.832 13.343C54.1687 13.1596 54.427 12.9179 54.6104 12.6146C54.7937 12.3112 54.8854 11.9829 54.8854 11.6245V10.4828C54.8137 10.5411 54.6937 10.5961 54.5237 10.6461C54.3537 10.6961 54.1637 10.7411 53.9537 10.7778C53.7437 10.8161 53.5353 10.8495 53.3303 10.8795C53.1236 10.9095 52.9453 10.9345 52.7953 10.9545C52.4552 11.0011 52.1502 11.0761 51.8819 11.1811C51.6135 11.2862 51.4002 11.4328 51.2451 11.6195C51.0901 11.8062 51.0118 12.0479 51.0118 12.3412C51.0118 12.7613 51.1651 13.0779 51.4718 13.293C51.7785 13.508 52.1702 13.6147 52.6436 13.6147L52.6402 13.618Z" fill="black"/>
<path id="Vector_5" d="M61.2096 9.42631V15.1H58.9277V5.41769H61.1096V7.06281H61.2229C61.4462 6.5211 61.8013 6.08941 62.2913 5.77105C62.7813 5.45103 63.3864 5.29102 64.1098 5.29102C64.7782 5.29102 65.3615 5.43436 65.8599 5.71938C66.3583 6.0044 66.745 6.41943 67.02 6.96113C67.295 7.50284 67.43 8.16122 67.4267 8.93461V15.1H65.1448V9.28797C65.1448 8.64125 64.9782 8.13455 64.6431 7.76786C64.3098 7.40283 63.8481 7.21949 63.2597 7.21949C62.8597 7.21949 62.5063 7.30616 62.198 7.48117C61.8896 7.65618 61.6479 7.9062 61.4729 8.23456C61.2979 8.56291 61.2112 8.95961 61.2112 9.42631H61.2096Z" fill="black"/>
<path id="Vector_6" d="M73.4293 18.9311C72.6092 18.9311 71.9058 18.8211 71.3174 18.5994C70.7291 18.3794 70.2557 18.0844 69.899 17.7144C69.5423 17.3443 69.294 16.9343 69.1556 16.4843L71.2108 15.9859C71.3024 16.1743 71.4375 16.3626 71.6141 16.5493C71.7908 16.736 72.0292 16.891 72.3292 17.016C72.6292 17.1393 73.0092 17.2027 73.4676 17.2027C74.1143 17.2027 74.651 17.046 75.0744 16.7326C75.4994 16.4193 75.7111 15.9059 75.7111 15.1909V13.3557H75.5977C75.4794 13.5907 75.3094 13.8324 75.0844 14.0808C74.8594 14.3291 74.5627 14.5375 74.196 14.7042C73.8276 14.8725 73.3676 14.9558 72.8125 14.9558C72.0692 14.9558 71.3958 14.7808 70.7924 14.4291C70.189 14.0791 69.7107 13.5524 69.3556 12.8524C69.0006 12.1523 68.8223 11.2756 68.8223 10.2205C68.8223 9.16543 68.9989 8.2587 69.3556 7.52532C69.7107 6.79193 70.1907 6.23522 70.7957 5.8552C71.4008 5.47517 72.0758 5.28516 72.8192 5.28516C73.3859 5.28516 73.8543 5.38016 74.2226 5.57184C74.591 5.76352 74.8827 5.99187 75.1027 6.25856C75.3211 6.52524 75.4877 6.77693 75.6011 7.01195H75.7278V5.41017H77.9779V15.2509C77.9779 16.0793 77.7796 16.7643 77.3845 17.306C76.9895 17.8477 76.4495 18.2527 75.7644 18.5228C75.0794 18.7911 74.3027 18.9261 73.4326 18.9261L73.4293 18.9311ZM73.4476 13.169C73.931 13.169 74.3427 13.0507 74.6827 12.8157C75.0227 12.5807 75.2811 12.2423 75.4577 11.8006C75.6344 11.3589 75.7228 10.8305 75.7228 10.2122C75.7228 9.59379 75.6361 9.06876 75.4611 8.61039C75.2861 8.15203 75.031 7.797 74.6927 7.54198C74.3543 7.28696 73.9393 7.16029 73.4476 7.16029C72.9559 7.16029 72.5142 7.29197 72.1742 7.55698C71.8341 7.822 71.5775 8.18369 71.4058 8.64373C71.2341 9.10376 71.1474 9.62546 71.1474 10.2105C71.1474 10.7955 71.2341 11.3206 71.4091 11.7639C71.5841 12.2073 71.8425 12.5523 72.1842 12.7974C72.5259 13.0424 72.9476 13.1657 73.4476 13.1657V13.169Z" fill="black"/>
<path id="Vector_7" d="M82.0689 2.18848V15.0994H79.7871V2.18848H82.0689Z" fill="black"/>
<path id="Vector_8" d="M88.1688 15.2884C87.1987 15.2884 86.3603 15.085 85.6569 14.68C84.9536 14.275 84.4119 13.6983 84.0335 12.9532C83.6551 12.2082 83.4668 11.3281 83.4668 10.3147C83.4668 9.3013 83.6568 8.44291 84.0368 7.68952C84.4169 6.93447 84.9502 6.34609 85.6353 5.92439C86.3203 5.5027 87.1254 5.29102 88.0488 5.29102C88.6455 5.29102 89.2089 5.38602 89.7406 5.5777C90.2723 5.76938 90.7423 6.0644 91.1523 6.46277C91.5624 6.86279 91.8841 7.3695 92.1207 7.98454C92.3558 8.59958 92.4741 9.33297 92.4741 10.1814V10.8814H84.5369V9.34297H90.2856C90.2806 8.90627 90.1873 8.51624 90.0023 8.17289C89.8172 7.8312 89.5606 7.56118 89.2305 7.36283C88.9005 7.16615 88.5172 7.06614 88.0805 7.06614C87.6138 7.06614 87.2037 7.17782 86.852 7.40283C86.4987 7.62785 86.2253 7.9212 86.0286 8.28456C85.8336 8.64792 85.7336 9.04628 85.7286 9.47965V10.8231C85.7286 11.3864 85.832 11.8681 86.037 12.2698C86.242 12.6715 86.5303 12.9782 86.9004 13.1899C87.2704 13.4016 87.7038 13.5083 88.1988 13.5083C88.5305 13.5083 88.8305 13.4616 89.1005 13.3666C89.3689 13.2716 89.6022 13.1316 89.8006 12.9482C89.9973 12.7632 90.1473 12.5349 90.2489 12.2615L92.3791 12.5015C92.2441 13.0649 91.9891 13.5549 91.6124 13.9733C91.2357 14.3917 90.7556 14.715 90.1723 14.9434C89.5889 15.1717 88.9205 15.2867 88.1671 15.2867L88.1688 15.2884Z" fill="black"/>
<path id="Vector_9" d="M97.4629 15.2694C96.7029 15.2694 96.0212 15.0744 95.4211 14.6827C94.8194 14.2927 94.3444 13.7243 93.996 12.9809C93.6477 12.2375 93.4727 11.3341 93.4727 10.2707C93.4727 9.20731 93.6493 8.28557 94.006 7.54386C94.3611 6.80214 94.8411 6.24043 95.4461 5.8604C96.0512 5.48038 96.7262 5.29036 97.4696 5.29036C98.0363 5.29036 98.503 5.38537 98.8697 5.57705C99.2347 5.76873 99.5248 5.99708 99.7398 6.26376C99.9548 6.53045 100.12 6.78213 100.238 7.01715H100.333V2.18848H102.622V15.0994H100.378V13.5743H100.24C100.121 13.8093 99.9515 14.0593 99.7298 14.321C99.5064 14.5844 99.2131 14.8077 98.848 14.9927C98.483 15.1777 98.023 15.2694 97.4679 15.2694H97.4629ZM98.0997 13.3976C98.583 13.3976 98.9947 13.2659 99.3347 13.0042C99.6748 12.7409 99.9331 12.3742 100.11 11.9042C100.286 11.4341 100.375 10.8858 100.375 10.259C100.375 9.63234 100.288 9.08896 100.113 8.6256C99.9381 8.1639 99.6831 7.80387 99.3447 7.54719C99.0064 7.2905 98.5914 7.16216 98.0997 7.16216C97.6079 7.16216 97.1662 7.29384 96.8262 7.55886C96.4862 7.82387 96.2295 8.1889 96.0578 8.6556C95.8862 9.1223 95.7995 9.65567 95.7995 10.2574C95.7995 10.8591 95.8862 11.4008 96.0612 11.8742C96.2362 12.3475 96.4945 12.7192 96.8362 12.9892C97.1779 13.2609 97.5996 13.3959 98.0997 13.3959V13.3976Z" fill="black"/>
</g>
</g>
</g>
<defs>
<clipPath id="clip0_1916_36039">
<rect width="103.448" height="20" fill="white"/>
</clipPath>
</defs>
</svg>
