<svg width="104" height="20" viewBox="0 0 104 20" fill="none" xmlns="http://www.w3.org/2000/svg">
<g clip-path="url(#clip0_3008_5301)">
<path fill-rule="evenodd" clip-rule="evenodd" d="M17.9366 5.81572V14.0455H17.9383C17.9383 14.7035 17.5858 15.3111 17.0168 15.6401L9.88981 19.7541C9.3208 20.0831 8.6175 20.0831 8.04848 19.7541L0.921505 15.6401C0.35081 15.3111 0 14.7035 0 14.0455V5.81572C0 5.15775 0.352488 4.55012 0.921505 4.22113L2.8785 3.09119V11.5363C2.8785 12.4897 3.39213 13.3793 4.21796 13.856L7.70591 15.8702C8.12051 16.1086 8.56867 16.2277 9.04537 16.2277C9.52207 16.2277 9.99709 16.1002 10.4218 15.8467L13.7553 13.8476C14.5576 13.3675 15.0561 12.488 15.0561 11.5531V3.09031L17.0151 4.22113C17.5858 4.55012 17.9366 5.15775 17.9366 5.81572ZM12.5384 1.63693V1.6364L15.0561 3.08999V3.09031L12.5384 1.63693ZM12.5384 1.63693V11.5531C12.5384 11.6085 12.5081 11.6605 12.4611 11.689L9.12594 13.6881C9.07726 13.7167 9.01515 13.7184 8.9648 13.6881L5.47684 11.6739C5.42817 11.6471 5.39628 11.5933 5.39628 11.5363V1.63747L8.0468 0.107093C8.61582 -0.221896 9.31912 -0.221896 9.88813 0.107093L12.5384 1.63693ZM5.39628 1.63747L2.8785 3.09119V3.08999L5.39628 1.6364V1.63747Z" fill="#1ED760"/>
<path d="M28.8643 10.9663V5.31641H31.1621V15.0669H28.9348V13.333H28.834C28.6142 13.8785 28.2533 14.325 27.7514 14.6725C27.2495 15.0199 26.6335 15.1928 25.9017 15.1928C25.2622 15.1928 24.6982 15.0501 24.2097 14.7648C23.7213 14.4794 23.3386 14.0631 23.0633 13.5143C22.788 12.9671 22.6504 12.3024 22.6504 11.5236V5.31641H24.9483V11.1694C24.9483 11.7871 25.1178 12.2789 25.4569 12.6414C25.7959 13.0057 26.2391 13.187 26.7896 13.187C27.1287 13.187 27.456 13.1047 27.7732 12.9385C28.0905 12.7724 28.3523 12.5273 28.5571 12.1983C28.7619 11.871 28.8643 11.4581 28.8643 10.9629V10.9663Z" fill="white"/>
<path d="M35.2862 9.35385V15.0675H32.9883V5.31702H35.1855V6.97371H35.2996C35.5245 6.4282 35.882 5.99346 36.3755 5.67287C36.869 5.35059 37.4783 5.18945 38.2068 5.18945C38.8799 5.18945 39.4674 5.33381 39.9692 5.62083C40.4711 5.90786 40.8605 6.32581 41.1375 6.87133C41.4144 7.41684 41.5504 8.07986 41.547 8.85869V15.0675H39.2491V9.21453C39.2491 8.56327 39.0813 8.053 38.7439 7.68373C38.4082 7.31613 37.9433 7.1315 37.3507 7.1315C36.9479 7.1315 36.5921 7.21878 36.2815 7.39502C35.971 7.57127 35.7276 7.82304 35.5514 8.15371C35.3751 8.48438 35.2878 8.88387 35.2878 9.35385H35.2862Z" fill="white"/>
<path d="M48.2195 5.31696V7.09451H42.6133V5.31696H48.2195ZM43.9981 2.98047H46.2959V12.1351C46.2959 12.4439 46.3429 12.6806 46.4386 12.8434C46.5343 13.0062 46.6602 13.117 46.8163 13.1775C46.9724 13.2362 47.1469 13.2664 47.3366 13.2664C47.481 13.2664 47.6136 13.2563 47.7328 13.2345C47.8519 13.2127 47.9459 13.1942 48.0097 13.1775L48.3974 14.9735C48.2749 15.0154 48.1003 15.0624 47.8737 15.1128C47.6471 15.1631 47.3719 15.1933 47.0446 15.2017C46.4688 15.2185 45.9502 15.1312 45.4886 14.9382C45.027 14.7452 44.6627 14.4464 44.3942 14.0402C44.1256 13.634 43.993 13.1254 43.9981 12.5161V2.98047Z" fill="white"/>
<path d="M52.4134 15.2636C51.7957 15.2636 51.2401 15.1528 50.7467 14.9296C50.2532 14.708 49.8638 14.3791 49.5784 13.9426C49.2931 13.5062 49.1504 12.9691 49.1504 12.3296C49.1504 11.779 49.2511 11.3242 49.4559 10.965C49.659 10.6057 49.9359 10.317 50.2867 10.1022C50.6376 9.88566 51.0354 9.72285 51.4768 9.61039C51.9183 9.49793 52.3765 9.41736 52.8515 9.36532C53.4222 9.30658 53.8855 9.25286 54.2413 9.20419C54.5972 9.15551 54.8557 9.07998 55.0185 8.97591C55.1813 8.87184 55.2635 8.7107 55.2635 8.49082V8.45221C55.2635 7.97384 55.1209 7.60456 54.8389 7.34104C54.5552 7.07919 54.1473 6.94826 53.6136 6.94826C53.0513 6.94826 52.6048 7.07079 52.2775 7.31586C51.9502 7.56092 51.7286 7.8513 51.6144 8.18533L49.4693 7.87984C49.6388 7.28732 49.9175 6.79048 50.3069 6.391C50.6963 5.99151 51.173 5.69105 51.7353 5.48963C52.2976 5.28821 52.9203 5.1875 53.6018 5.1875C54.0718 5.1875 54.5384 5.24289 55.0051 5.35199C55.47 5.46278 55.8963 5.64238 56.2807 5.89415C56.6651 6.14593 56.9756 6.48835 57.2106 6.91973C57.4456 7.35111 57.5631 7.89159 57.5631 8.53782V15.0639H55.3542V13.7244H55.2786C55.1393 13.9947 54.9429 14.2481 54.6912 14.4831C54.4394 14.7181 54.1238 14.9061 53.7445 15.0488C53.3651 15.1898 52.922 15.262 52.4151 15.262L52.4134 15.2636ZM53.011 13.575C53.4726 13.575 53.8721 13.4827 54.2111 13.2981C54.5502 13.1135 54.8103 12.8701 54.995 12.5646C55.1796 12.2591 55.2719 11.9284 55.2719 11.5675V10.4178C55.1998 10.4765 55.0789 10.5319 54.9077 10.5822C54.7365 10.6326 54.5451 10.6779 54.3336 10.7149C54.1222 10.7535 53.9123 10.787 53.7059 10.8172C53.4977 10.8475 53.3181 10.8726 53.1671 10.8928C52.8247 10.9398 52.5175 11.0153 52.2472 11.1211C51.977 11.2268 51.7622 11.3745 51.6061 11.5625C51.45 11.7505 51.3711 11.9939 51.3711 12.2893C51.3711 12.7123 51.5255 13.0312 51.8343 13.2477C52.1432 13.4643 52.5376 13.5717 53.0143 13.5717L53.011 13.575Z" fill="white"/>
<path d="M61.6397 9.35385V15.0675H59.3418V5.31702H61.539V6.97371H61.6531C61.878 6.4282 62.2356 5.99346 62.729 5.67287C63.2225 5.35059 63.8318 5.18945 64.5603 5.18945C65.2334 5.18945 65.8209 5.33381 66.3227 5.62083C66.8246 5.90786 67.214 6.32581 67.491 6.87133C67.7679 7.41684 67.9039 8.07986 67.9005 8.85869V15.0675H65.6027V9.21453C65.6027 8.56327 65.4348 8.053 65.0974 7.68373C64.7617 7.31613 64.2968 7.1315 63.7043 7.1315C63.3014 7.1315 62.9456 7.21878 62.635 7.39502C62.3245 7.57127 62.0811 7.82304 61.9049 8.15371C61.7286 8.48438 61.6414 8.88387 61.6414 9.35385H61.6397Z" fill="white"/>
<path d="M73.9461 18.9266C73.1202 18.9266 72.4119 18.8158 71.8194 18.5926C71.2269 18.371 70.7502 18.0739 70.391 17.7013C70.0318 17.3286 69.7817 16.9157 69.6423 16.4625L71.712 15.9606C71.8043 16.1503 71.9402 16.34 72.1182 16.528C72.2961 16.716 72.5361 16.8721 72.8382 16.998C73.1404 17.1222 73.5231 17.186 73.9847 17.186C74.6359 17.186 75.1764 17.0282 75.6028 16.7126C76.0308 16.3971 76.2439 15.8801 76.2439 15.16V13.3119H76.1298C76.0106 13.5486 75.8394 13.792 75.6128 14.0421C75.3862 14.2922 75.0874 14.502 74.7182 14.6699C74.3472 14.8394 73.884 14.9233 73.325 14.9233C72.5764 14.9233 71.8983 14.7471 71.2906 14.3929C70.683 14.0404 70.2013 13.51 69.8438 12.805C69.4862 12.1001 69.3066 11.2172 69.3066 10.1547C69.3066 9.09215 69.4846 8.17904 69.8438 7.4405C70.2013 6.70195 70.6847 6.14132 71.294 5.75862C71.9033 5.37592 72.5831 5.18457 73.3317 5.18457C73.9024 5.18457 74.3741 5.28025 74.745 5.47328C75.116 5.6663 75.4097 5.89626 75.6313 6.16482C75.8512 6.43339 76.019 6.68684 76.1332 6.92351H76.2607V5.31046H78.5267V15.2204C78.5267 16.0546 78.327 16.7445 77.9292 17.29C77.5314 17.8355 76.9875 18.2434 76.2977 18.5153C75.6078 18.7856 74.8256 18.9215 73.9494 18.9215L73.9461 18.9266ZM73.9645 13.1239C74.4513 13.1239 74.8659 13.0048 75.2083 12.7681C75.5507 12.5314 75.8109 12.1907 75.9888 11.7459C76.1667 11.3011 76.2557 10.769 76.2557 10.1463C76.2557 9.52353 76.1684 8.9948 75.9922 8.53321C75.8159 8.07162 75.5591 7.71409 75.2184 7.45728C74.8776 7.20047 74.4597 7.0729 73.9645 7.0729C73.4694 7.0729 73.0245 7.2055 72.6821 7.47239C72.3397 7.73927 72.0812 8.10351 71.9083 8.56678C71.7355 9.03005 71.6482 9.55542 71.6482 10.1446C71.6482 10.7337 71.7355 11.2625 71.9117 11.709C72.0879 12.1554 72.3481 12.5029 72.6922 12.7496C73.0363 12.9964 73.461 13.1206 73.9645 13.1206V13.1239Z" fill="white"/>
<path d="M82.6455 2.06543V15.0672H80.3477V2.06543H82.6455Z" fill="white"/>
<path d="M88.7898 15.2572C87.8129 15.2572 86.9686 15.0524 86.2603 14.6445C85.5519 14.2367 85.0064 13.6559 84.6254 12.9056C84.2444 12.1553 84.0547 11.269 84.0547 10.2485C84.0547 9.22796 84.246 8.36353 84.6287 7.60484C85.0114 6.84447 85.5486 6.25195 86.2384 5.82729C86.9283 5.40262 87.739 5.18945 88.6689 5.18945C89.2698 5.18945 89.8372 5.28513 90.3726 5.47816C90.9081 5.67119 91.3814 5.96828 91.7943 6.36945C92.2072 6.77229 92.5312 7.28256 92.7695 7.90193C93.0062 8.52131 93.1254 9.25985 93.1254 10.1142V10.8192H85.1323V9.26992H90.9215C90.9165 8.83015 90.8225 8.43738 90.6361 8.09161C90.4498 7.74751 90.1913 7.47559 89.859 7.27585C89.5266 7.07778 89.1406 6.97707 88.7008 6.97707C88.2308 6.97707 87.8179 7.08953 87.4638 7.31613C87.1079 7.54273 86.8326 7.83815 86.6346 8.20407C86.4382 8.56998 86.3375 8.97115 86.3324 9.40756V10.7604C86.3324 11.3278 86.4365 11.8129 86.643 12.2174C86.8494 12.6219 87.1398 12.9308 87.5124 13.1439C87.8851 13.3571 88.3215 13.4645 88.82 13.4645C89.154 13.4645 89.4562 13.4175 89.7281 13.3219C89.9983 13.2262 90.2333 13.0852 90.4331 12.9006C90.6311 12.7142 90.7822 12.4843 90.8846 12.209L93.0297 12.4507C92.8937 13.018 92.6369 13.5115 92.2576 13.9328C91.8783 14.3541 91.3948 14.6798 90.8074 14.9097C90.2199 15.1397 89.5468 15.2555 88.7881 15.2555L88.7898 15.2572Z" fill="white"/>
<path d="M98.1473 15.2384C97.3819 15.2384 96.6954 15.042 96.0911 14.6476C95.4851 14.2548 95.0068 13.6824 94.656 12.9338C94.3052 12.1852 94.1289 11.2754 94.1289 10.2046C94.1289 9.13366 94.3068 8.20544 94.666 7.4585C95.0236 6.71156 95.507 6.1459 96.1163 5.7632C96.7256 5.3805 97.4054 5.18915 98.154 5.18915C98.7247 5.18915 99.1947 5.28482 99.5639 5.47785C99.9315 5.67088 100.224 5.90084 100.44 6.1694C100.657 6.43796 100.823 6.69142 100.942 6.92809H101.038V2.06543H103.342V15.0672H101.083V13.5314H100.944C100.825 13.768 100.653 14.0198 100.43 14.2833C100.205 14.5485 99.9097 14.7735 99.5421 14.9598C99.1745 15.1461 98.7113 15.2384 98.1523 15.2384H98.1473ZM98.7885 13.3534C99.2752 13.3534 99.6898 13.2208 100.032 12.9573C100.375 12.6921 100.635 12.3228 100.813 11.8495C100.991 11.3762 101.08 10.8239 101.08 10.1928C101.08 9.56168 100.992 9.01448 100.816 8.54786C100.64 8.08291 100.383 7.72035 100.042 7.46186C99.7016 7.20337 99.2836 7.07412 98.7885 7.07412C98.2933 7.07412 97.8485 7.20672 97.5061 7.47361C97.1637 7.74049 96.9052 8.10809 96.7323 8.57807C96.5594 9.04805 96.4721 9.58518 96.4721 10.1911C96.4721 10.7971 96.5594 11.3426 96.7356 11.8193C96.9119 12.296 97.1721 12.6703 97.5161 12.9422C97.8602 13.2158 98.2849 13.3518 98.7885 13.3518V13.3534Z" fill="white"/>
</g>
<defs>
<clipPath id="clip0_3008_5301">
<rect width="103.448" height="20" fill="white"/>
</clipPath>
</defs>
</svg>
