<svg width="125" height="24" viewBox="0 0 125 24" fill="none" xmlns="http://www.w3.org/2000/svg">
<mask id="mask0_2169_3367" style="mask-type:luminance" maskUnits="userSpaceOnUse" x="0" y="0" width="125" height="24">
<path d="M124.337 0H0V24H124.337V0Z" fill="white"/>
</mask>
<g mask="url(#mask0_2169_3367)">
<path fill-rule="evenodd" clip-rule="evenodd" d="M21.4078 7.0965V16.9032H21.4097C21.4097 17.6873 20.9891 18.4114 20.31 18.8033L11.8037 23.7056C11.1246 24.0977 10.2852 24.0977 9.60605 23.7056L1.09984 18.8033C0.4187 18.4114 0 17.6873 0 16.9032V7.0965C0 6.31244 0.420703 5.5884 1.09984 5.19637L3.43569 3.84984V13.913C3.43569 15.0491 4.04871 16.1092 5.03435 16.6772L9.19731 19.0774C9.69214 19.3614 10.227 19.5035 10.796 19.5035C11.3649 19.5035 11.9319 19.3514 12.4387 19.0494L16.4174 16.6673C17.375 16.0952 17.97 15.0472 17.97 13.9331V3.84894L20.3079 5.19637C20.9891 5.5884 21.4078 6.31244 21.4078 7.0965ZM14.9649 2.11708V13.9331C14.9649 13.9991 14.9288 14.061 14.8728 14.0951L10.8921 16.4772C10.8341 16.5112 10.7599 16.5132 10.6998 16.4772L6.53686 14.0771C6.47877 14.045 6.44071 13.9811 6.44071 13.913V2.11757L9.60405 0.29402C10.2832 -0.0980068 11.1226 -0.0980068 11.8017 0.29402L14.9649 2.11708ZM6.44071 2.11757L3.43569 3.84984V3.84833L6.44071 2.1162V2.11757Z" fill="#1ED760"/>
<path d="M34.4502 13.2325V6.5H37.1929V18.1188H34.5344V16.0527H34.4142C34.1518 16.7028 33.721 17.2347 33.122 17.6487C32.5231 18.0629 31.7878 18.2689 30.9144 18.2689C30.1511 18.2689 29.478 18.0989 28.8949 17.7588C28.312 17.4188 27.8553 16.9227 27.5267 16.2687C27.1982 15.6167 27.0339 14.8247 27.0339 13.8966V6.5H29.7764V13.4745C29.7764 14.2105 29.9788 14.7966 30.3835 15.2286C30.7881 15.6626 31.317 15.8786 31.9741 15.8786C32.3788 15.8786 32.7695 15.7807 33.1481 15.5827C33.5267 15.3846 33.8393 15.0926 34.0836 14.7006C34.3281 14.3106 34.4502 13.8186 34.4502 13.2285V13.2325Z" fill="black"/>
<path d="M42.1149 11.3115V18.1199H39.3723V6.50112H41.9947V8.47527H42.131C42.3994 7.82522 42.8262 7.30719 43.4151 6.92516C44.004 6.54113 44.7313 6.34912 45.6007 6.34912C46.404 6.34912 47.1052 6.52113 47.7043 6.86315C48.3032 7.20518 48.768 7.70321 49.0986 8.35325C49.4292 9.00331 49.5914 9.79336 49.5873 10.7214V18.1199H46.8448V11.1455C46.8448 10.3694 46.6444 9.76136 46.2418 9.32133C45.8412 8.88329 45.2863 8.66329 44.579 8.66329C44.0983 8.66329 43.6735 8.76729 43.3028 8.9773C42.9323 9.18731 42.6418 9.48734 42.4314 9.88137C42.2211 10.2754 42.1169 10.7514 42.1169 11.3115H42.1149Z" fill="black"/>
<path d="M57.5499 6.50001V8.61817H50.8588V6.50001H57.5499ZM52.5115 3.71582H55.2541V14.6246C55.2541 14.9926 55.3101 15.2746 55.4244 15.4686C55.5386 15.6627 55.6888 15.7947 55.8751 15.8667C56.0614 15.9366 56.2697 15.9726 56.4961 15.9726C56.6684 15.9726 56.8267 15.9606 56.9689 15.9347C57.1112 15.9087 57.2233 15.8867 57.2995 15.8667L57.7623 18.0069C57.616 18.0568 57.4077 18.1128 57.1373 18.1728C56.8667 18.2328 56.5382 18.2688 56.1476 18.2788C55.4605 18.2988 54.8413 18.1948 54.2905 17.9649C53.7395 17.7348 53.3048 17.3788 52.9842 16.8947C52.6637 16.4108 52.5055 15.8046 52.5115 15.0786V3.71582Z" fill="black"/>
<path d="M62.5563 18.3536C61.8191 18.3536 61.156 18.2216 60.5669 17.9555C59.978 17.6915 59.5132 17.2995 59.1727 16.7794C58.8321 16.2593 58.6617 15.6194 58.6617 14.8572C58.6617 14.2012 58.7819 13.6592 59.0264 13.2311C59.2688 12.8031 59.5994 12.4592 60.0181 12.2031C60.4367 11.9451 60.9115 11.7511 61.4384 11.6171C61.9653 11.4831 62.5122 11.387 63.0792 11.325C63.7603 11.255 64.3132 11.191 64.7379 11.133C65.1627 11.075 65.4711 10.985 65.6655 10.861C65.8598 10.737 65.958 10.545 65.958 10.283V10.237C65.958 9.66692 65.7877 9.22688 65.4512 8.91287C65.1126 8.60084 64.6258 8.44483 63.9887 8.44483C63.3175 8.44483 62.7847 8.59084 62.3941 8.88287C62.0033 9.17489 61.7389 9.52091 61.6027 9.91894L59.0424 9.55492C59.2448 8.84886 59.5774 8.25682 60.0422 7.78079C60.5068 7.30475 61.0758 6.94673 61.747 6.7067C62.4181 6.46669 63.1613 6.34668 63.9747 6.34668C64.5357 6.34668 65.0925 6.41269 65.6495 6.5427C66.2044 6.67471 66.7132 6.88872 67.172 7.18874C67.6307 7.48877 68.0014 7.89679 68.2818 8.41082C68.5623 8.92487 68.7026 9.56891 68.7026 10.339V18.1155H66.0662V16.5194H65.976C65.8097 16.8414 65.5753 17.1435 65.2748 17.4234C64.9744 17.7035 64.5977 17.9274 64.1449 18.0975C63.6922 18.2655 63.1633 18.3515 62.5583 18.3515L62.5563 18.3536ZM63.2694 16.3414C63.8204 16.3414 64.2972 16.2314 64.7019 16.0114C65.1066 15.7913 65.417 15.5013 65.6375 15.1373C65.8578 14.7732 65.968 14.3793 65.968 13.9492V12.5792C65.8818 12.6491 65.7376 12.7151 65.5333 12.7751C65.3289 12.8351 65.1006 12.8891 64.8482 12.9332C64.5958 12.9791 64.3453 13.0192 64.0989 13.0552C63.8504 13.0912 63.6361 13.1212 63.4559 13.1452C63.0471 13.2011 62.6805 13.2911 62.358 13.4171C62.0354 13.5432 61.7791 13.7192 61.5926 13.9432C61.4063 14.1672 61.3122 14.4573 61.3122 14.8092C61.3122 15.3134 61.4965 15.6933 61.8651 15.9514C62.2337 16.2094 62.7045 16.3374 63.2735 16.3374L63.2694 16.3414Z" fill="black"/>
<path d="M73.5692 11.3115V18.1199H70.8265V6.50112H73.449V8.47527H73.5852C73.8536 7.82522 74.2804 7.30719 74.8693 6.92516C75.4583 6.54113 76.1856 6.34912 77.055 6.34912C77.8584 6.34912 78.5595 6.52113 79.1585 6.86315C79.7575 7.20518 80.2223 7.70321 80.5529 8.35325C80.8834 9.00331 81.0456 9.79336 81.0417 10.7214V18.1199H78.299V11.1455C78.299 10.3694 78.0988 9.76136 77.696 9.32133C77.2954 8.88329 76.7405 8.66329 76.0333 8.66329C75.5525 8.66329 75.1277 8.76729 74.7572 8.9773C74.3865 9.18731 74.096 9.48734 73.8857 9.88137C73.6753 10.2754 73.5711 10.7514 73.5711 11.3115H73.5692Z" fill="black"/>
<path d="M88.2564 22.7169C87.2707 22.7169 86.4252 22.5849 85.718 22.3189C85.0109 22.0549 84.442 21.7009 84.0132 21.2569C83.5845 20.8128 83.2861 20.3208 83.1197 19.7808L85.5899 19.1827C85.7 19.4088 85.8624 19.6347 86.0746 19.8588C86.287 20.0828 86.5736 20.2688 86.9341 20.4188C87.2947 20.5668 87.7514 20.6428 88.3024 20.6428C89.0797 20.6428 89.7248 20.4548 90.2337 20.0787C90.7445 19.7028 90.9989 19.0867 90.9989 18.2287V16.0264H90.8626C90.7204 16.3084 90.5161 16.5985 90.2457 16.8966C89.9752 17.1945 89.6186 17.4446 89.1779 17.6446C88.7351 17.8466 88.1822 17.9466 87.515 17.9466C86.6216 17.9466 85.8123 17.7366 85.087 17.3145C84.3618 16.8945 83.7869 16.2625 83.3601 15.4225C82.9334 14.5824 82.7191 13.5303 82.7191 12.2642C82.7191 10.9981 82.9314 9.91004 83.3601 9.02999C83.7869 8.14992 84.3638 7.48187 85.091 7.02584C85.8183 6.56981 86.6296 6.3418 87.5231 6.3418C88.2042 6.3418 88.7672 6.4558 89.2099 6.68581C89.6526 6.91583 90.0032 7.18985 90.2677 7.50988C90.5302 7.82989 90.7304 8.13192 90.8667 8.41394H91.019V6.49181H93.7234V18.3007C93.7234 19.2948 93.4851 20.1168 93.0102 20.7668C92.5355 21.4168 91.8864 21.9028 91.063 22.227C90.2397 22.5489 89.3061 22.7109 88.2603 22.7109L88.2564 22.7169ZM88.2784 15.8024C88.8594 15.8024 89.3542 15.6604 89.7629 15.3784C90.1715 15.0964 90.4821 14.6904 90.6944 14.1603C90.9067 13.6303 91.013 12.9962 91.013 12.2542C91.013 11.5122 90.9088 10.8821 90.6984 10.3321C90.4881 9.78204 90.1815 9.356 89.7749 9.04998C89.3682 8.74396 88.8694 8.59195 88.2784 8.59195C87.6874 8.59195 87.1565 8.74997 86.7478 9.06798C86.3391 9.38601 86.0306 9.82003 85.8243 10.3721C85.6179 10.9241 85.5137 11.5502 85.5137 12.2522C85.5137 12.9542 85.6179 13.5843 85.8283 14.1163C86.0386 14.6484 86.3492 15.0624 86.7599 15.3565C87.1705 15.6505 87.6774 15.7984 88.2784 15.7984V15.8024Z" fill="black"/>
<path d="M98.6405 2.62598V18.1191H95.8979V2.62598H98.6405Z" fill="black"/>
<path d="M105.972 18.346C104.806 18.346 103.798 18.1019 102.953 17.6159C102.108 17.1299 101.457 16.4379 101.002 15.5437C100.547 14.6497 100.321 13.5936 100.321 12.3775C100.321 11.1615 100.549 10.1314 101.006 9.22732C101.463 8.32126 102.104 7.6152 102.927 7.10916C103.75 6.60314 104.718 6.34912 105.828 6.34912C106.545 6.34912 107.222 6.46312 107.861 6.69314C108.5 6.92315 109.065 7.27718 109.558 7.75522C110.051 8.23525 110.438 8.8433 110.722 9.58135C111.005 10.3194 111.147 11.1995 111.147 12.2176V13.0576H101.607V11.2115H108.516C108.51 10.6874 108.398 10.2194 108.176 9.80736C107.953 9.39734 107.645 9.07331 107.248 8.83529C106.852 8.59928 106.391 8.47927 105.866 8.47927C105.305 8.47927 104.812 8.61328 104.389 8.88329C103.965 9.15332 103.636 9.50534 103.4 9.94137C103.165 10.3774 103.045 10.8554 103.039 11.3755V12.9876C103.039 13.6636 103.163 14.2416 103.41 14.7237C103.656 15.2057 104.003 15.5737 104.448 15.8278C104.892 16.0818 105.413 16.2099 106.008 16.2099C106.407 16.2099 106.767 16.1538 107.092 16.0398C107.415 15.9258 107.695 15.7578 107.933 15.5377C108.17 15.3157 108.35 15.0418 108.472 14.7137L111.033 15.0017C110.87 15.6778 110.564 16.2658 110.111 16.7679C109.658 17.2699 109.081 17.6579 108.38 17.932C107.679 18.2059 106.876 18.3439 105.97 18.3439L105.972 18.346Z" fill="black"/>
<path d="M117.143 18.3231C116.229 18.3231 115.41 18.0891 114.689 17.619C113.966 17.151 113.395 16.469 112.976 15.5769C112.557 14.6848 112.347 13.6007 112.347 12.3246C112.347 11.0486 112.559 9.94248 112.988 9.05243C113.415 8.16237 113.992 7.48832 114.719 7.03228C115.446 6.57626 116.257 6.34823 117.151 6.34823C117.832 6.34823 118.393 6.46224 118.834 6.69226C119.272 6.92228 119.621 7.1963 119.88 7.51631C120.138 7.83634 120.337 8.13836 120.478 8.42038H120.593V2.62598H123.344V18.1191H120.647V16.289H120.481C120.338 16.571 120.134 16.871 119.868 17.185C119.599 17.5011 119.247 17.769 118.808 17.991C118.369 18.213 117.816 18.3231 117.149 18.3231H117.143ZM117.908 16.0769C118.489 16.0769 118.984 15.9189 119.393 15.6048C119.801 15.2889 120.112 14.8488 120.325 14.2848C120.536 13.7207 120.643 13.0628 120.643 12.3106C120.643 11.5586 120.538 10.9066 120.328 10.3505C120.118 9.79648 119.811 9.36445 119.405 9.05643C118.998 8.7484 118.499 8.59439 117.908 8.59439C117.317 8.59439 116.786 8.75241 116.378 9.07043C115.969 9.38844 115.66 9.82648 115.454 10.3865C115.248 10.9466 115.144 11.5866 115.144 12.3087C115.144 13.0307 115.248 13.6808 115.458 14.2488C115.669 14.8168 115.979 15.2628 116.39 15.5868C116.8 15.9129 117.307 16.0749 117.908 16.0749V16.0769Z" fill="black"/>
</g>
</svg>
