<svg width="346" height="80" viewBox="0 0 346 80" fill="none" xmlns="http://www.w3.org/2000/svg">
<path d="M141.151 60.3883L140.182 61.6779C139.157 61.0626 137.987 60.7289 136.791 60.7107C135.204 60.6122 133.64 61.1323 132.43 62.1615C130.492 64.0039 130.492 67.0899 132.43 68.9323C133.598 69.9098 135.113 70.3749 136.629 70.222C137.665 70.3221 138.701 70.0348 139.536 69.4159V66.6754H137.275V65.2245H141.959V70.5444L139.375 71.5117L136.145 71.8341C134.107 71.9482 132.098 71.3178 130.492 70.0608C129.087 68.9958 128.301 67.3057 128.392 65.5469C128.366 63.7649 129.209 62.0813 130.653 61.0331C132.455 59.7996 134.607 59.1778 136.791 59.2598C138.327 59.1654 139.854 59.5606 141.151 60.3883Z" fill="#004784"/>
<path d="M147.779 59.4229H150.201V67.8057C150.227 68.5162 150.586 69.1732 151.17 69.579C151.934 70.0795 152.845 70.3069 153.754 70.2238C154.714 70.2956 155.673 70.0704 156.5 69.579C157.132 69.1407 157.497 68.4119 157.469 67.6445V59.4229H159.892V67.9669C159.841 69.1343 159.161 70.1828 158.115 70.7075C155.4 72.1989 152.109 72.1989 149.394 70.7075C148.332 70.1405 147.7 69.0055 147.779 67.8057L147.779 59.4229Z" fill="#004784"/>
<path d="M177.495 60.8776C175.917 59.7023 173.969 59.1304 172.004 59.2656C170.123 59.2108 168.286 59.8411 166.836 61.0389C165.672 62.1859 165.03 63.7591 165.059 65.3915C165.032 67.119 165.668 68.7915 166.836 70.0665C168.27 71.2916 170.118 71.9257 172.004 71.8399C173.989 71.9292 175.939 71.2994 177.495 70.0665C178.764 68.8558 179.417 67.1376 179.272 65.3915C179.415 63.693 178.759 62.0247 177.495 60.8776ZM175.557 68.9381C174.645 69.906 173.326 70.3845 172.004 70.2278C170.788 70.3067 169.601 69.8327 168.774 68.9381C167.136 66.9369 167.07 64.0811 168.613 62.0061C169.523 61.1387 170.746 60.6738 172.004 60.7164C175.234 60.7164 176.849 62.3285 176.849 65.3915C176.937 66.7024 176.468 67.9896 175.557 68.9381Z" fill="#004784"/>
<path d="M190.413 61.199V71.8388H188.151V61.199H182.66V59.5869H196.227V61.199H190.413Z" fill="#004784"/>
<path d="M206.402 59.4229H205.756L198.811 71.8359H201.395L202.687 69.2566H208.986L210.278 71.8359H212.862L206.402 59.4229ZM203.333 67.9669L205.917 62.647L208.34 67.9669H203.333Z" fill="#004784"/>
<path d="M273.911 59.5869H271.489V71.7098H273.911V59.5869Z" fill="#004784"/>
<path d="M260.828 59.4229H260.182L253.237 71.8359H255.821L257.113 69.2566H263.574L264.704 71.8359H267.288L260.828 59.4229ZM257.759 67.9669L260.343 62.647L262.766 67.9669H257.759Z" fill="#004784"/>
<path d="M285.705 61.0378V71.6776H283.283V61.0378H277.791V59.5869H291.358V61.0378H285.705Z" fill="#004784"/>
<path d="M307.181 60.717C305.579 59.5896 303.648 59.0228 301.689 59.1049C299.851 59.0103 298.05 59.6481 296.683 60.8782C295.434 62.0472 294.732 63.6835 294.745 65.3921C294.708 67.0733 295.348 68.699 296.521 69.9059C297.956 71.131 299.804 71.765 301.689 71.6792C303.657 71.8446 305.616 71.2695 307.181 70.0671C309.769 67.4857 309.769 63.2985 307.181 60.717ZM305.243 68.9387C304.292 69.8478 303.003 70.3159 301.689 70.2283C300.436 70.3212 299.221 69.7754 298.459 68.7775C297.633 67.8421 297.174 66.6394 297.167 65.3921C297.166 64.1215 297.562 62.8821 298.298 61.8455C299.225 61.0203 300.452 60.6122 301.689 60.717C304.92 60.717 306.535 62.1679 306.535 65.3921C306.666 66.7089 306.191 68.014 305.243 68.9387Z" fill="#004784"/>
<path d="M325.592 71.8388L316.871 63.1335V71.6776H314.61V59.5869H315.417L324.139 67.9698V59.5869H326.4V71.8388H325.592Z" fill="#004784"/>
<path d="M344.655 60.3883L343.686 61.6779C342.661 61.0626 341.491 60.7289 340.295 60.7107C338.758 60.6203 337.248 61.142 336.095 62.1615C335.006 63.007 334.402 64.3329 334.48 65.7081C334.48 66.9876 335.006 68.2112 335.934 69.0935C337.152 69.9765 338.629 70.4302 340.133 70.3832C341.211 70.4037 342.274 70.1246 343.202 69.5772V66.6754H340.779V65.2245H345.463V70.5444L342.879 71.5117L339.649 71.8341C337.615 71.9196 335.615 71.2923 333.996 70.0608C332.652 68.9472 331.882 67.2899 331.896 65.5469C331.896 63.771 332.734 62.0987 334.157 61.0331C335.959 59.7996 338.111 59.1778 340.295 59.2598C341.831 59.1654 343.358 59.5606 344.655 60.3883Z" fill="#004784"/>
<path d="M219.485 59.5869H217.062V71.7098H219.485V59.5869Z" fill="#004784"/>
<path d="M246.458 59.5869V65.068H239.19V59.5869H236.929V71.8388H239.19V66.3577H246.458V71.8388H248.719V59.5869H246.458Z" fill="#004784"/>
<path d="M310.735 13.4785H299.753V17.2347H310.735V13.4785Z" fill="#004784"/>
<path d="M342.714 21.0565H339.161L341.907 17.9935L343.199 16.5426H343.361L344.006 15.5754L345.621 13.1572H314.774V16.5426H335.77C334.07 18.0548 332.231 19.4041 330.278 20.5728V18.4771H323.98V21.2177H314.774V45.399H321.073V37.1773H327.21V45.399H333.508V37.1773H339.484V42.1748H336.093V45.399H342.714C344.472 45.4914 345.947 44.0928 345.945 42.336V24.2806C345.945 22.5 344.498 21.0565 342.714 21.0565ZM327.21 33.6308H321.073V30.729H327.21V33.6308ZM327.21 27.3436H321.073V24.4418H327.21V27.3436ZM339.484 33.6308H333.508V30.729H339.484V33.6308ZM339.484 27.3436H333.508V24.4418H339.484V27.3436Z" fill="#004784"/>
<path d="M315.906 47.6555C313.187 47.6181 310.88 45.6542 310.414 42.9803V42.3357V37.4993V25.5699C310.414 23.7892 308.968 22.3457 307.184 22.3457H298.301V25.7311H303.793V43.6254C302.605 44.3209 301.285 44.7602 299.917 44.915V50.8797C302.56 50.6071 305.104 49.724 307.346 48.3003C308.314 49.9742 310.093 51.0155 312.03 51.0409H345.946V47.6555H315.906Z" fill="#004784"/>
<path d="M290.707 34.5964V31.3722H287.8V23.6341C287.8 21.8534 286.353 20.4099 284.57 20.4099H263.251C264.032 19.7378 264.737 18.9808 265.35 18.153L265.673 17.6694H288.123V14.4452H267.45L268.257 12.6719H261.151C260.667 14.6064 258.567 17.3469 253.237 19.6039L255.014 25.4074L256.952 24.7626V31.3722H254.045V34.5964H256.952V45.7197H281.501V47.9767H271.326V51.2007H284.731C286.491 51.2033 287.892 49.7308 287.8 47.9767V45.7197H290.061V42.4955H287.8V34.5964H290.707ZM263.251 23.6341H281.501V31.3722H275.525V27.3419H269.226V31.3722H263.251L263.251 23.6341ZM281.501 42.4955H275.525V38.1428H269.226V42.4955H263.251V34.5964H281.501V42.4955Z" fill="#004784"/>
<path d="M246.295 22.1838H252.432V21.8614C251.786 18.9864 250.866 16.1795 249.687 13.4785H243.711V13.8009C244.731 16.5296 245.541 19.332 246.134 22.1838" fill="#004784"/>
<path d="M250.497 23.6357H244.682V23.9582C245.785 26.6033 246.597 29.36 247.105 32.1798V32.5022H253.242V32.1798C252.72 29.2722 251.796 26.451 250.497 23.797" fill="#004784"/>
<path d="M247.587 33.793C247.072 39.742 245.768 45.5965 243.711 51.2036H250.171C252.091 45.5879 253.18 39.7225 253.401 33.793H247.587Z" fill="#004784"/>
<path d="M206.723 47.9801H202.363V51.2043H209.954C211.737 51.2043 213.184 49.7607 213.184 47.9801V32.1816H206.723V47.9801Z" fill="#004784"/>
<path d="M233.536 43.3044L236.12 38.3069C230.877 36.7166 226.18 33.7027 222.554 29.6017H233.052V26.3775H208.503L209.956 23.6369H229.821V20.4127H211.248C211.618 19.5163 211.941 18.6016 212.217 17.6722H231.275V14.448H213.025C213.025 13.8032 213.186 13.3196 213.186 12.8359H207.695C207.534 13.3196 207.534 13.8032 207.372 14.448H187.507V17.6722H206.403L205.434 20.4127H188.799V23.6369H203.657C203.161 24.6087 202.565 25.527 201.881 26.3775H185.569V29.6017H198.974C194.887 33.7267 189.655 36.5344 183.953 37.6621L186.215 42.8208C189.817 42 193.256 40.5834 196.389 38.6293L198.166 41.0475C195.197 43.5665 191.73 45.4341 187.991 46.5285L190.091 51.2036C196.061 49.6792 201.418 46.3586 205.434 41.6923L201.881 36.5336H199.458C202.035 34.553 204.318 32.2193 206.241 29.6016H215.609C217.35 32.1643 219.412 34.4939 221.746 36.5336H217.87L214.317 41.6923C218.333 46.3586 223.689 49.6792 229.66 51.2036L231.759 46.5285C225.784 44.5941 222.715 42.3372 221.584 41.0475L223.684 37.9845C226.673 40.2554 229.996 42.05 233.536 43.3044Z" fill="#004784"/>
<path d="M174.586 15.8989C174.5 14.1815 173.079 12.8338 171.356 12.8359H128.234V51.2036H174.586V16.0601V15.8989ZM168.287 47.9794H134.532V16.0601H168.287V47.9794Z" fill="#004784"/>
<path d="M136.473 40.7245V43.7873H166.352V40.7245H163.768V37.6615H157.953V40.7245H154.562V32.9864H164.575V29.7622H154.562V23.6363H166.352V20.4121H136.473V23.6363H148.263V29.7622H138.25V32.9864H148.263V40.7245H136.473Z" fill="#004784"/>
<path fill-rule="evenodd" clip-rule="evenodd" d="M28.5867 10.5794C27.5008 10.6514 26.4484 10.9832 25.518 11.5466L1.45355 27.0227C0.578985 27.5966 0.0372371 28.558 0 29.6021V50.5591C0.0372371 51.6032 0.578985 52.5646 1.45355 53.1385L25.518 68.6146C26.4894 69.0814 27.5228 69.4071 28.5867 69.5818L51.1976 72V8L28.5867 10.5794Z" fill="#024985"/>
<path fill-rule="evenodd" clip-rule="evenodd" d="M101.102 27.0227L77.0374 11.5466C76.107 10.9832 75.0546 10.6514 73.9687 10.5794L51.1963 8V72L73.9687 69.4206C75.0385 69.3807 76.0864 69.1055 77.0374 68.6146L101.102 53.1385C101.976 52.5646 102.518 51.6032 102.555 50.5591V29.6019C102.518 28.5578 101.976 27.5965 101.102 27.0227Z" fill="#1772AF"/>
<path d="M76.8759 27.1826V52.976C76.9 54.0363 76.3426 55.0254 75.4224 55.5553L51.1964 69.4193V10.7393L75.4224 24.442C76.344 25.0477 76.8922 26.0812 76.8759 27.1826Z" fill="#57AED3"/>
<path d="M25.6778 27.1826V52.976C25.6536 54.0363 26.211 55.0254 27.1313 55.5553L51.1959 69.4193V10.7393L27.1313 24.442C26.2096 25.0477 25.6615 26.0812 25.6778 27.1826Z" fill="white"/>
</svg>
