<svg width="209" height="70" viewBox="0 0 209 70" fill="none" xmlns="http://www.w3.org/2000/svg">
<g clip-path="url(#clip0_1815_248)">
<path d="M92.9646 21.9835L90.5481 21.6487C88.1577 21.3138 87.0186 20.4217 87.0186 18.8311C87.0186 16.9893 88.6295 15.8199 91.0747 15.8199C93.5198 15.8199 95.2429 16.9919 95.3263 18.8886H98.1885C98.1051 15.485 95.4384 13.366 91.0747 13.366C86.711 13.366 84.1277 15.5688 84.1277 18.9985C84.1277 21.926 85.9889 23.7677 89.714 24.27L92.2712 24.6337C94.4947 24.9398 95.5791 25.9731 95.5791 27.6736C95.5791 29.7927 93.8848 31.1871 91.2154 31.1871C88.2151 31.1871 86.3799 29.6802 86.3538 27.31H83.4916C83.5203 31.242 86.4086 33.6672 91.2154 33.6672C95.7173 33.6672 98.4674 31.242 98.4674 27.5036C98.4674 24.3537 96.5775 22.4832 92.9646 21.9809V21.9835Z" fill="white"/>
<path d="M103.553 19.8645H100.858V33.2774H103.553V19.8645Z" fill="white"/>
<path d="M103.691 13.9519H100.691V17.1593H103.691V13.9519Z" fill="white"/>
<path d="M109.332 25.5257C109.332 23.3517 110.693 21.9285 112.75 21.9285C114.807 21.9285 115.888 23.043 115.888 25.442V33.2774H118.584V25.1909C118.584 21.4812 116.527 19.4746 113.248 19.4746C111.441 19.4746 109.83 20.1705 109.025 21.6225V19.867H106.634V33.28H109.33V25.5284L109.332 25.5257Z" fill="white"/>
<path d="M129.175 31.0196H124.313C123.617 31.0196 123.007 30.6585 123.007 29.9312C123.007 29.204 123.537 28.8429 124.313 28.8429H126.62C129.649 28.8429 131.816 27.0299 131.816 24.2411V22.818C131.816 22.3994 131.982 22.232 132.399 22.232H134.54V19.8617H132.566C131.623 19.8617 130.898 20.1966 130.898 21.5361V21.9546C130.343 20.5602 128.62 19.4719 126.48 19.4719C123.146 19.4719 121.144 21.4523 121.144 24.0737C121.144 25.3295 121.673 26.6401 122.921 27.4773C121.365 27.8671 120.614 28.8429 120.614 30.0437C120.614 30.9071 121.086 31.7181 121.837 32.2177C120.698 32.775 120.085 33.8084 120.085 34.9516C120.085 36.9033 121.42 38.2977 124.392 38.2977H129.006C132.063 38.2977 133.369 36.6521 133.369 34.4493C133.369 32.2465 131.73 31.0196 129.172 31.0196H129.175ZM126.48 21.5936C128.203 21.5936 129.23 22.5982 129.23 24.16C129.23 25.7219 128.229 26.7265 126.48 26.7265C124.73 26.7265 123.729 25.7219 123.729 24.16C123.729 22.5982 124.73 21.5936 126.48 21.5936ZM128.841 36.2335H124.702C123.229 36.2335 122.674 35.5638 122.674 34.7005C122.674 33.8371 123.284 33.0837 124.785 33.0837H128.982C130.066 33.0837 130.789 33.6148 130.789 34.533C130.789 35.7312 129.9 36.2335 128.844 36.2335H128.841Z" fill="white"/>
<path d="M147.516 33.2774V19.8645H144.821V27.6161C144.821 29.764 143.515 31.2133 141.487 31.2133C139.459 31.2133 138.429 30.0988 138.429 27.6998V19.8645H135.734V27.951C135.734 31.6607 137.735 33.6672 140.986 33.6672C142.709 33.6672 144.237 33.0525 145.126 31.7418V33.2748H147.516V33.2774Z" fill="white"/>
<path d="M153.214 33.2775H155.855V30.9073H154.161C153.465 30.9073 153.217 30.6012 153.217 29.9027V13.7559H150.522V30.7398C150.522 32.5528 151.327 33.2775 153.217 33.2775H153.214Z" fill="white"/>
<path d="M161.246 25.162C157.967 25.3582 156.356 27.0875 156.356 29.4839C156.356 32.0503 158.3 33.6671 161.384 33.6671C163.469 33.6671 165.052 32.8587 165.831 31.4931V31.8829C165.831 32.775 166.36 33.2773 167.275 33.2773H169.441V31.0457H168.302C167.997 31.0457 167.857 30.9071 167.857 30.5984V24.0449C167.857 21.0887 165.995 19.4719 162.799 19.4719C159.215 19.4719 157.325 20.8375 157.02 23.6002H159.716C159.937 22.177 160.826 21.7035 162.607 21.7035C164.387 21.7035 165.302 22.4282 165.302 24.1862V24.9397L161.246 25.162ZM165.302 27.8959C165.302 30.1824 163.858 31.4381 161.689 31.4381C160.049 31.4381 159.048 30.6298 159.048 29.4028C159.048 28.3145 159.854 27.4224 161.577 27.3099L165.299 27.0326V27.8959H165.302Z" fill="white"/>
<path d="M173.558 22.0385V19.8645H171.167V33.2774H173.862V24.9947C173.862 23.1818 174.559 22.2347 176.224 22.2347H179.032V19.8645H176.474C174.89 19.8645 173.891 20.7017 173.558 22.0385Z" fill="white"/>
<path d="M183.033 13.9519H180.033V17.1593H183.033V13.9519Z" fill="white"/>
<path d="M182.895 19.8645H180.2V33.2774H182.895V19.8645Z" fill="white"/>
<path d="M190.397 15.8486H187.702V19.8644H184.201V22.2346H187.702V30.0438C187.702 32.3591 188.703 33.28 191.01 33.28H194.594V30.9097H191.815C190.788 30.9097 190.397 30.4912 190.397 29.5153V22.2372H194.594V19.867H190.397V15.8512V15.8486Z" fill="white"/>
<path d="M205.571 19.8645L201.624 29.3192L197.678 19.8645H194.594L200.206 32.3592L199.038 34.8968C198.733 35.5927 198.316 35.8726 197.399 35.8726H195.008V38.2978H198.009C199.87 38.2978 200.649 37.6281 201.259 36.2337L208.595 19.8645H205.566H205.571Z" fill="white"/>
<path d="M84.795 58.1962H87.5738V49.5237H96.4655V46.9023H87.5738V41.2985H96.4655V38.6746H84.795V58.1962Z" fill="white"/>
<path d="M101.606 38.8706H98.6056V42.078H101.606V38.8706Z" fill="white"/>
<path d="M101.468 44.7832H98.7724V58.1961H101.468V44.7832Z" fill="white"/>
<path d="M111.168 44.3933C109.361 44.3933 107.75 45.0892 106.945 46.5412V44.7857H104.554V58.1987H107.25V50.4471C107.25 48.273 108.61 46.8499 110.667 46.8499C112.724 46.8499 113.806 47.9643 113.806 50.3633V58.1987H116.501V50.1122C116.501 46.4025 114.444 44.3959 111.165 44.3959L111.168 44.3933Z" fill="white"/>
<path d="M129.785 55.5197V48.9663C129.785 46.0101 127.924 44.3933 124.728 44.3933C121.143 44.3933 119.254 45.7589 118.949 48.5216H121.644C121.866 47.0984 122.754 46.6249 124.535 46.6249C126.315 46.6249 127.23 47.3495 127.23 49.1076V49.861L123.174 50.0834C119.895 50.2796 118.284 52.0089 118.284 54.4053C118.284 56.9717 120.229 58.5885 123.312 58.5885C125.398 58.5885 126.98 57.7801 127.759 56.4145V56.8043C127.759 57.6964 128.289 58.1987 129.204 58.1987H131.37V55.9671H130.231C129.926 55.9671 129.785 55.8284 129.785 55.5197ZM127.228 52.8147C127.228 55.1012 125.783 56.3569 123.615 56.3569C121.975 56.3569 120.974 55.5485 120.974 54.3216C120.974 53.2332 121.78 52.3411 123.503 52.2286L127.225 51.9513V52.8147H127.228Z" fill="white"/>
<path d="M139.709 44.3933C137.902 44.3933 136.291 45.0892 135.486 46.5412V44.7857H133.096V58.1987H135.791V50.4471C135.791 48.273 137.152 46.8499 139.208 46.8499C141.265 46.8499 142.347 47.9643 142.347 50.3633V58.1987H145.042V50.1122C145.042 46.4025 142.986 44.3959 139.706 44.3959L139.709 44.3933Z" fill="white"/>
<path d="M153.741 56.1345C151.434 56.1345 149.852 54.3503 149.852 51.4778C149.852 48.6053 151.408 46.8472 153.798 46.8472C155.717 46.8472 156.827 47.9356 157.078 49.1887H159.828C159.523 46.3711 157.216 44.3933 153.824 44.3933C149.794 44.3933 147.073 47.3495 147.073 51.5327C147.073 55.716 149.656 58.5885 153.658 58.5885C157.297 58.5885 159.52 56.1895 159.882 53.5132H157.132C156.853 55.075 155.547 56.1345 153.744 56.1345H153.741Z" fill="white"/>
<path d="M167.275 44.3933C163.469 44.3933 160.8 47.0984 160.8 51.4203C160.8 55.7421 163.467 58.5859 167.468 58.5859C170.552 58.5859 172.609 56.9691 173.443 54.3739H170.693C170.163 55.5721 169.053 56.2994 167.468 56.2994C165.078 56.2994 163.579 54.8212 163.467 52.3673H173.61C173.664 51.8101 173.693 51.4464 173.693 51.0854C173.693 46.9859 171.248 44.3933 167.275 44.3933ZM170.972 50.2482H163.469C163.581 48.0742 165.026 46.5673 167.275 46.5673C169.637 46.5673 170.972 48.0454 170.972 50.1096V50.2482Z" fill="white"/>
<g clip-path="url(#clip1_1815_248)">
<path d="M35.0928 57.854H34.7683V59.8359H35.0928V57.854Z" fill="white"/>
<path d="M35.0928 63.7998H34.7683V65.7817H35.0928V63.7998Z" fill="white"/>
<path d="M35.0928 60.8269H34.7683V62.8088H35.0928V60.8269Z" fill="white"/>
<path d="M35.0928 4.34473H34.7683V6.32667H35.0928V4.34473Z" fill="white"/>
<path d="M35.0928 10.2896H34.7683V12.2715H35.0928V10.2896Z" fill="white"/>
<path d="M35.0928 7.31665H34.7683V9.29859H35.0928V7.31665Z" fill="white"/>
<path d="M12.1432 35.2256H10.1619V35.5512H12.1432V35.2256Z" fill="white"/>
<path d="M62.6711 35.2256H60.6898V35.5512H62.6711V35.2256Z" fill="white"/>
<path d="M9.17126 35.2256H7.18994V35.5512H9.17126V35.2256Z" fill="white"/>
<path d="M59.699 35.2256H57.7177V35.5512H59.699V35.2256Z" fill="white"/>
<path d="M6.19811 35.2256H4.2168V35.5512H6.19811V35.2256Z" fill="white"/>
<path d="M65.6431 35.2256H63.6617V35.5512H65.6431V35.2256Z" fill="white"/>
<path d="M59.6299 10.2679C53.0327 3.64694 44.2606 0 34.9305 0C25.6003 0 16.8282 3.64694 10.231 10.2679C3.63386 16.8888 0 25.6925 0 35.0562C0 44.42 3.63386 53.2237 10.231 59.8446C16.8282 66.4655 25.6003 70.1125 34.9305 70.1125C44.2606 70.1125 53.0327 66.4655 59.6299 59.8446C66.2271 53.2237 69.8609 44.42 69.8609 35.0562C69.8609 25.6925 66.2271 16.8888 59.6299 10.2679ZM56.0587 50.4961C56.0587 58.0776 50.0942 64.5368 41.8132 66.8834C39.6285 67.3545 37.379 67.602 35.0927 67.6139V66.7727H34.7682V67.6139C32.4819 67.6031 30.2335 67.3556 28.0478 66.8834C19.7667 64.5368 13.8011 58.0765 13.8011 50.4961C13.8011 50.3875 13.8033 50.2801 13.8065 50.1715C19.6391 53.0782 26.9241 54.6781 34.6287 54.7194C34.6752 55.1144 34.7217 55.5182 34.7671 55.9307V56.863H35.0916V55.998C35.1403 55.5605 35.1889 55.1361 35.2376 54.7183C42.939 54.677 50.2219 53.0761 56.0523 50.1715C56.0544 50.279 56.0577 50.3875 56.0577 50.4961H56.0587ZM2.49395 35.5512H3.22721V35.2256H2.49071C2.49071 35.1691 2.48854 35.1127 2.48854 35.0562C2.48854 34.5439 2.50152 34.0338 2.52423 33.5247C3.29318 28.4809 7.39858 23.9938 13.5307 20.8375C13.9882 26.2808 17.4631 31.0522 22.5872 34.0273C20.3712 34.4994 17.7086 34.863 14.4889 35.2256H13.1338V35.5512H14.3873C17.2435 35.8714 19.6661 36.1927 21.7274 36.5877C16.9623 39.6594 13.8097 44.3505 13.5037 49.6462C7.48077 46.5387 3.41648 42.1482 2.55992 37.2064C2.52423 36.6572 2.5026 36.1058 2.49503 35.5523L2.49395 35.5512ZM13.8022 19.6088C13.8022 11.9817 19.8543 5.49104 28.2295 3.18999C30.3579 2.74389 32.5457 2.50944 34.7682 2.49859V3.35389H35.0927V2.49859C37.3163 2.50944 39.5041 2.74389 41.6315 3.18999C50.0066 5.49104 56.0587 11.9817 56.0587 19.6088C56.0587 19.8465 56.0512 20.0832 56.0393 20.3187C50.2024 17.4131 42.912 15.8154 35.2041 15.7785C35.1673 15.4572 35.1295 15.1316 35.0927 14.7983V13.2625H34.7682V14.8656C34.7336 15.175 34.699 15.4789 34.6644 15.7785C26.9533 15.8143 19.6607 17.4131 13.8216 20.3187C13.8097 20.0832 13.8022 19.8465 13.8022 19.6088ZM35.2419 16.1041C43.1585 16.1486 50.4068 17.8635 56.0166 20.679C55.6056 26.1788 52.0474 30.9925 46.8011 33.9231C38.3296 31.9998 36.6717 28.2638 35.2408 16.1041H35.2419ZM34.6255 16.1041C33.1946 28.2638 31.5324 31.9998 23.0588 33.9231C17.8124 30.9925 14.2542 26.1788 13.8433 20.679C19.4552 17.8624 26.7067 16.1475 34.6255 16.1041ZM22.1882 36.6789C31.3485 38.536 33.1189 42.069 34.5898 54.3926C26.6732 54.3449 19.426 52.6256 13.8195 49.8068C14.0758 44.4536 17.3052 39.717 22.1882 36.6789ZM35.2765 54.3926C36.7474 42.069 38.5135 38.536 47.6717 36.6789C52.5547 39.717 55.783 44.4536 56.0404 49.8068C50.436 52.6245 43.191 54.3438 35.2776 54.3926H35.2765ZM48.1324 36.5877C50.1937 36.1927 52.6152 35.8725 55.4726 35.5512H56.726V35.2256H55.3709C52.1513 34.863 49.4886 34.4994 47.2726 34.0262C52.3968 31.0522 55.8706 26.2808 56.3291 20.8364C62.4623 23.9939 66.5677 28.4798 67.3367 33.5247C67.3594 34.0327 67.3724 34.5429 67.3724 35.0552C67.3724 35.1116 67.3702 35.168 67.3702 35.2245H66.6337V35.5501H67.367C67.3583 36.1037 67.3367 36.655 67.3021 37.2043C66.4455 42.1461 62.3812 46.5376 56.3583 49.6451C56.0523 44.3505 52.8997 39.6583 48.1346 36.5867L48.1324 36.5877ZM67.1745 31.4549C65.9275 27.6864 62.8246 24.224 58.1352 21.4551C57.5588 21.1154 56.965 20.7887 56.3551 20.4782C56.3724 20.1906 56.381 19.9008 56.381 19.6099C56.381 13.0183 51.9598 7.26133 45.4297 4.23415C50.0618 5.81883 54.3067 8.45852 57.8692 12.0327C63.1426 17.3252 66.3752 24.1198 67.1745 31.4549ZM11.9896 12.0327C15.552 8.45744 19.797 5.81883 24.429 4.23415C17.8978 7.26133 13.4766 13.0183 13.4766 19.6099C13.4766 19.9008 13.4853 20.1906 13.5026 20.4782C12.8926 20.7897 12.2989 21.1154 11.7224 21.4551C7.03303 24.224 3.93019 27.6864 2.68321 31.4549C3.48245 24.1198 6.71507 17.3262 11.9885 12.0338L11.9896 12.0327ZM2.75243 39.2383C4.0405 42.9319 7.11522 46.3216 11.7235 49.0427C12.2935 49.3792 12.8818 49.7026 13.4853 50.0109C13.4799 50.1715 13.4766 50.3332 13.4766 50.4961C13.4766 57.0627 17.8546 62.8034 24.3339 65.8458C19.7386 64.2568 15.5261 61.6301 11.9885 58.0797C6.85458 52.9274 3.65441 46.3509 2.75135 39.2383H2.75243ZM57.8713 58.0797C54.3337 61.6301 50.1213 64.2578 45.526 65.8458C52.0053 62.8034 56.3832 57.0627 56.3832 50.4961C56.3832 50.3343 56.38 50.1726 56.3745 50.0109C56.978 49.7026 57.5664 49.3792 58.1363 49.0427C62.7457 46.3216 65.8193 42.9308 67.1085 39.2372C66.2054 46.3498 63.0053 52.9263 57.8713 58.0787V58.0797Z" fill="white"/>
</g>
</g>
<defs>
<clipPath id="clip0_1815_248">
<rect width="208.6" height="70" fill="white"/>
</clipPath>
<clipPath id="clip1_1815_248">
<rect width="69.8609" height="70.1125" fill="white"/>
</clipPath>
</defs>
</svg>
