<svg width="1400" height="195" viewBox="0 0 1400 195" fill="none" xmlns="http://www.w3.org/2000/svg">
<path fill-rule="evenodd" clip-rule="evenodd" d="M682.556 40.4841C698.686 40.4841 710.956 45.7861 719.367 56.39V42.1362H749.971V134.681C749.971 155.062 744.664 170.212 734.049 180.127C723.434 190.043 707.923 195 687.519 195C676.765 195 666.565 193.691 656.913 191.074C647.264 188.459 639.266 184.671 632.926 179.713L645.747 156.577C650.435 160.433 656.362 163.463 663.531 165.666C670.7 168.008 677.869 169.179 685.038 169.179C696.206 169.179 704.408 166.63 709.647 161.535C715.022 156.577 717.713 149.003 717.713 138.812V134.062C709.302 143.288 697.583 147.901 682.556 147.901C672.354 147.901 662.979 145.698 654.433 141.291C646.024 136.747 639.337 130.411 634.374 122.286C629.411 114.161 626.93 104.797 626.93 94.1926C626.93 83.5888 629.411 74.2245 634.374 66.0993C639.337 57.9742 646.024 51.7078 654.433 47.3009C662.979 42.7565 672.354 40.4842 682.556 40.4841ZM688.967 66.9253C680.421 66.9253 673.389 69.4729 667.875 74.5682C662.36 79.5259 659.603 86.0676 659.603 94.1926C659.603 102.318 662.36 108.929 667.875 114.024C673.389 118.982 680.421 121.46 688.967 121.46C697.516 121.46 704.477 118.982 709.852 114.024C715.367 108.929 718.124 102.318 718.124 94.1926C718.124 86.3215 715.536 79.9371 710.361 75.0384L709.344 74.098C704.041 69.3162 697.249 66.9254 688.967 66.9253Z" fill="#ECECEC"/>
<path fill-rule="evenodd" clip-rule="evenodd" d="M262.804 40.4841C273.143 40.4842 282.518 42.894 290.927 47.7139C299.475 52.3962 306.16 59.0755 310.986 67.7514C315.812 76.2896 318.224 86.2738 318.224 97.704C318.224 109.134 315.812 119.188 310.986 127.864C306.16 136.402 299.475 143.081 290.927 147.901C282.518 152.583 273.144 154.925 262.804 154.925C248.603 154.925 237.436 150.449 229.301 141.497V193.348H197.043V42.1362H227.855V54.9438C235.852 45.3039 247.5 40.4841 262.804 40.4841ZM257.218 66.9253C248.947 66.9255 242.125 69.7483 236.747 75.3943C231.508 80.9027 228.89 88.3396 228.89 97.704C228.89 107.069 231.508 114.574 236.747 120.221C242.125 125.729 248.947 128.484 257.218 128.484C265.49 128.484 272.248 125.729 277.485 120.221C282.862 114.574 285.549 107.069 285.549 97.704C285.549 88.3396 282.862 80.9027 277.485 75.3943C272.248 69.7482 265.49 66.9253 257.218 66.9253Z" fill="#ECECEC"/>
<path d="M1232.56 44.6182H1260.27V69.4073H1232.56V114.647C1232.56 119.329 1233.73 122.979 1236.07 125.595C1238.56 128.074 1242 129.314 1246.41 129.314C1251.51 129.314 1255.86 127.937 1259.44 125.182L1268.13 147.905C1264.96 150.246 1261.03 152.036 1256.34 153.276C1251.79 154.377 1246.96 154.929 1241.86 154.929C1228.63 154.929 1218.36 151.554 1211.05 144.807C1203.88 138.059 1200.3 128.143 1200.3 115.06V69.4073H1183.13V44.6182H1200.3V17.558H1232.56V44.6182Z" fill="#ECECEC"/>
<path fill-rule="evenodd" clip-rule="evenodd" d="M52.1133 40.4841C69.3454 40.4842 82.5802 44.6159 91.8175 52.8787C101.052 61.004 105.671 73.3298 105.671 89.8552V153.272H75.4787V139.432C69.4128 149.761 58.1084 154.925 41.565 154.925C33.0167 154.925 25.5733 153.478 19.2307 150.586C13.0277 147.694 8.27182 143.701 4.96317 138.606C1.65453 133.511 6.18341e-05 127.727 0 121.254C0 110.926 3.86044 102.8 11.5807 96.8779C19.4383 90.9566 31.5022 87.996 47.7683 87.996H73.4127C73.4127 80.9724 71.2737 75.6013 67.0016 71.8829C62.7273 68.027 56.3167 66.0993 47.7683 66.0993C41.8399 66.0993 35.981 67.0625 30.192 68.9905C24.5402 70.7806 19.7142 73.2599 15.7167 76.4275L4.13598 53.9106C10.2019 49.6415 17.4392 46.3367 25.8483 43.9954C34.3967 41.6544 43.1508 40.4841 52.1133 40.4841ZM51.2849 106.793C38.0501 106.793 31.4322 111.132 31.4322 119.808C31.4322 123.939 33.0175 127.244 36.1889 129.723C39.4975 132.064 43.9788 133.236 49.6305 133.236C55.1447 133.236 60.0381 131.996 64.3122 129.517C68.5864 126.901 71.6189 123.113 73.4127 118.156V106.793H51.2849Z" fill="#ECECEC"/>
<path fill-rule="evenodd" clip-rule="evenodd" d="M527.695 40.4841C544.927 40.4841 558.162 44.6158 567.399 52.8787C576.634 61.004 581.253 73.3296 581.253 89.8552V153.272H551.063V139.432C544.997 149.761 533.691 154.925 517.148 154.925C508.601 154.925 501.155 153.478 494.815 150.586C488.61 147.694 483.853 143.702 480.545 138.606C477.236 133.511 475.582 127.727 475.581 121.254C475.581 110.926 479.442 102.8 487.162 96.8779C495.022 90.9563 507.084 87.996 523.351 87.996H548.994C548.994 80.9725 546.856 75.6013 542.584 71.8829C538.31 68.0269 531.9 66.0993 523.351 66.0993C517.425 66.0993 511.566 67.0626 505.775 68.9905C500.123 70.7806 495.297 73.26 491.299 76.4275L479.719 53.9106C485.785 49.6416 493.021 46.3367 501.432 43.9954C509.979 41.6544 518.734 40.4841 527.695 40.4841ZM526.866 106.793C513.632 106.793 507.015 111.132 507.015 119.808C507.015 123.939 508.601 127.244 511.77 129.723C515.079 132.064 519.56 133.236 525.212 133.236C530.726 133.236 535.623 131.996 539.895 129.517C544.169 126.901 547.202 123.113 548.994 118.156V106.793H526.866Z" fill="#ECECEC"/>
<path fill-rule="evenodd" clip-rule="evenodd" d="M920.111 40.4841C931.828 40.4841 942.307 42.9634 951.544 47.9211C960.781 52.7412 968.018 59.4885 973.258 68.1644C978.495 76.8402 981.115 86.687 981.115 97.704C981.115 108.721 978.495 118.569 973.258 127.245C968.018 135.921 960.781 142.738 951.544 147.695C942.307 152.515 931.828 154.925 920.111 154.925C908.393 154.925 897.846 152.515 888.472 147.695C879.235 142.738 871.998 135.921 866.758 127.245C861.521 118.569 858.901 108.721 858.901 97.704C858.901 86.687 861.521 76.8402 866.758 68.1644C871.998 59.4885 879.235 52.7411 888.472 47.9211C897.846 42.9635 908.393 40.4842 920.111 40.4841ZM920.111 66.9253C911.839 66.9254 905.014 69.7482 899.637 75.3943C894.262 80.9027 891.573 88.3396 891.573 97.704C891.573 107.068 894.262 114.574 899.637 120.221C905.014 125.729 911.839 128.484 920.111 128.484C928.382 128.484 935.138 125.729 940.378 120.221C945.755 114.574 948.442 107.069 948.442 97.704C948.442 88.3396 945.755 80.9027 940.378 75.3943C935.138 69.7482 928.382 66.9253 920.111 66.9253Z" fill="#ECECEC"/>
<path d="M167.114 153.277H134.855V0H167.114V153.277Z" fill="#ECECEC"/>
<path d="M372.112 53.7085C376.386 49.4395 381.557 46.204 387.623 44.0005C393.689 41.6596 400.306 40.4879 407.475 40.4879C421.261 40.4879 432.358 44.6197 440.769 52.8825C449.316 61.1454 453.59 73.4028 453.59 89.6532V153.277H421.329V94.6107C421.329 85.7972 419.4 79.2554 415.54 74.9863C411.68 70.5794 406.095 68.3754 398.789 68.3754C390.654 68.3755 384.175 70.9243 379.351 76.0195C374.526 80.9772 372.112 88.4138 372.112 98.3292V153.277H339.854V0H372.112V53.7085Z" fill="#ECECEC"/>
<path d="M1041.69 117.332L1068.98 42.14H1096.28L1122.75 117.332L1149.84 42.14H1178.38L1138.05 153.277H1107.03L1082.01 84.2813L1056.16 153.277H1025.14L985.023 42.14H1015.42L1041.69 117.332Z" fill="#ECECEC"/>
<path d="M1318.52 53.7085C1322.8 49.4397 1327.97 46.2039 1334.03 44.0005C1340.1 41.6595 1346.72 40.4879 1353.89 40.4879C1367.67 40.488 1378.77 44.62 1387.18 52.8825C1395.73 61.1454 1400 73.4028 1400 89.6532V153.277H1367.74V94.6107C1367.74 85.797 1365.81 79.2554 1361.95 74.9863C1358.09 70.5795 1352.51 68.3754 1345.2 68.3754C1337.07 68.3754 1330.59 70.9242 1325.76 76.0195C1320.94 80.9772 1318.52 88.414 1318.52 98.3292V153.277H1286.26V0H1318.52V53.7085Z" fill="#ECECEC"/>
<path d="M848.996 70.2308C845.413 69.9554 842.999 69.8178 841.759 69.8178C832.522 69.8179 825.283 72.4335 820.045 77.6665C814.806 82.7621 812.188 90.4751 812.188 100.804V153.272H779.927V42.1362H810.738V56.803C814.599 51.4322 819.769 47.3699 826.249 44.6156C832.866 41.8613 840.45 40.4841 848.996 40.4841V70.2308Z" fill="#ECECEC"/>
</svg>
