<svg width="147" height="20" viewBox="0 0 147 20" fill="none" xmlns="http://www.w3.org/2000/svg">
<g clip-path="url(#clip0_15_4535)">
<path d="M25.3337 17.5804C22.3731 17.082 21.7423 12.7937 21.0894 10.4018C23.0602 7.28904 25.062 4.16057 27.0232 0.997615C26.5642 0.847146 22.8509 0.809523 21.9639 0.931778L19.4343 4.93171C19.1219 4.30476 18.8815 3.67781 18.5411 3.13864C18.1157 2.39691 17.5385 1.7543 16.8471 1.25335C16.1558 0.75239 15.3665 0.404515 14.5312 0.232736C13.4001 0.0394674 12.2415 0.0810711 11.1271 0.354986C9.09377 0.790177 7.2011 1.72876 5.62125 3.08534C3.74692 4.60218 2.23125 6.51757 1.18349 8.69342C0.390299 10.2777 0.0528762 12.0526 0.209111 13.8187C0.655701 18.1666 4.92171 20.1792 8.90667 19.7527C11.54 19.4328 14.0178 18.3291 16.0209 16.5836C16.4519 16.2105 16.8141 15.9159 17.2326 15.5334L15.7335 10.637C14.7115 12.1751 13.5284 13.5991 12.2045 14.8845C11.38 15.6834 10.4436 16.3572 9.42505 16.8845C8.6299 17.2948 7.7262 17.4427 6.84236 17.3077C6.40935 17.2428 6.00219 17.0605 5.66483 16.7804C5.32747 16.5003 5.07269 16.1331 4.92795 15.7184C4.65765 15.0975 4.52854 14.4239 4.55006 13.7466C4.56855 11.9484 5.00824 10.1798 5.8336 8.5837C6.39811 7.39404 7.08474 6.26674 7.88231 5.22012C8.40439 4.51979 9.01188 3.88791 9.69053 3.33927C10.4616 2.69072 11.4328 2.33067 12.4388 2.32048C12.7622 2.32053 13.0824 2.38483 13.3809 2.50965C13.6795 2.63446 13.9505 2.81734 14.1783 3.04772C14.6967 3.58162 15.0913 4.22388 15.3338 4.92857C15.8897 6.32981 16.2114 7.8721 16.6423 9.31721C17.0983 10.8637 17.5553 12.4091 18.0133 13.9535C18.2792 14.9788 18.653 15.9729 19.1282 16.919C19.4609 17.5535 19.917 18.1146 20.4694 18.5691C21.0221 19.0235 21.6597 19.362 22.3449 19.5647C23.2466 19.7986 24.1933 19.794 25.0925 19.5511C25.9918 19.3083 26.8131 18.8355 27.4761 18.1791C27.6051 18.0217 27.7567 17.8844 27.9258 17.7717V17.5491C27.0662 17.6745 26.1931 17.6745 25.3337 17.5491" fill="white"/>
<path d="M38.2902 6.5293C39.6779 6.5293 40.7436 6.86296 41.4875 7.53029C42.2312 8.18651 42.6031 9.18194 42.6031 10.5166V15.6383H40.1718V14.5206C39.6833 15.3547 38.7731 15.7718 37.4409 15.7718C36.7525 15.7718 36.1531 15.655 35.6424 15.4215C35.1428 15.1879 34.7598 14.8654 34.4934 14.4538C34.227 14.0423 34.0938 13.5752 34.0938 13.0524C34.0938 12.2183 34.4046 11.5621 35.0263 11.0838C35.659 10.6056 36.6305 10.3665 37.9404 10.3665H40.0054C40.0054 9.79921 39.8332 9.36546 39.4892 9.06515C39.145 8.75373 38.6288 8.59802 37.9404 8.59802C37.463 8.59802 36.9912 8.67588 36.525 8.83159C36.0699 8.97617 35.6813 9.17637 35.3594 9.43219L34.4269 7.61371C34.9153 7.26893 35.4981 7.002 36.1752 6.81292C36.8636 6.62385 37.5685 6.5293 38.2902 6.5293ZM38.0903 14.0201C38.5344 14.0201 38.9284 13.92 39.2726 13.7198C39.6168 13.5085 39.8609 13.2026 40.0054 12.8022V11.8846H38.2235C37.1578 11.8846 36.6249 12.235 36.6249 12.9357C36.6249 13.2693 36.7525 13.5363 37.0079 13.7365C37.2743 13.9255 37.6352 14.0201 38.0903 14.0201Z" fill="white"/>
<path d="M44.9531 3.25977H47.5508V15.6387H44.9531V3.25977Z" fill="white"/>
<path d="M55.2563 6.5293C56.089 6.5293 56.8439 6.72394 57.5211 7.11322C58.2094 7.49138 58.7478 8.0308 59.1364 8.73148C59.525 9.42106 59.7193 10.2274 59.7193 11.1506C59.7193 12.0737 59.525 12.8856 59.1364 13.5863C58.7478 14.2759 58.2094 14.8153 57.5211 15.2046C56.8439 15.5827 56.089 15.7718 55.2563 15.7718C54.1128 15.7718 53.2137 15.4103 52.5586 14.6874V18.8749H49.9609V6.66276H52.4421V7.69713C53.0861 6.91858 54.024 6.5293 55.2563 6.5293ZM54.8067 13.6364C55.4728 13.6364 56.0169 13.4139 56.4386 12.969C56.8716 12.513 57.0881 11.9069 57.0881 11.1506C57.0881 10.3943 56.8716 9.79365 56.4386 9.34877C56.0169 8.89277 55.4728 8.66475 54.8067 8.66475C54.1406 8.66475 53.5912 8.89277 53.1582 9.34877C52.7362 9.79365 52.5254 10.3943 52.5254 11.1506C52.5254 11.9069 52.7362 12.513 53.1582 12.969C53.5912 13.4139 54.1406 13.6364 54.8067 13.6364Z" fill="white"/>
<path d="M66.9062 6.52966C68.0164 6.52966 68.91 6.86333 69.5873 7.53066C70.2755 8.19799 70.6197 9.18787 70.6197 10.5003V15.6387H68.0218V10.9007C68.0218 10.1889 67.8665 9.66056 67.5557 9.31578C67.2448 8.95987 66.7951 8.78191 66.2068 8.78191C65.5518 8.78191 65.0299 8.98767 64.6415 9.39918C64.2529 9.79958 64.0586 10.4002 64.0586 11.201V15.6387H61.4609V3.25977H64.0586V7.59739C64.4028 7.25261 64.8191 6.99124 65.3076 6.81328C65.7961 6.62421 66.329 6.52966 66.9062 6.52966Z" fill="white"/>
<path d="M76.5871 6.5293C77.9748 6.5293 79.0405 6.86296 79.7844 7.53029C80.528 8.18651 80.9 9.18194 80.9 10.5166V15.6383H78.4688V14.5206C77.9804 15.3547 77.07 15.7718 75.7378 15.7718C75.0496 15.7718 74.45 15.655 73.9394 15.4215C73.4397 15.1879 73.0567 14.8654 72.7903 14.4538C72.5238 14.0423 72.3906 13.5752 72.3906 13.0524C72.3906 12.2183 72.7015 11.5621 73.3232 11.0838C73.9561 10.6056 74.9274 10.3665 76.2373 10.3665H78.3023C78.3023 9.79921 78.1301 9.36546 77.7861 9.06515C77.4419 8.75373 76.9257 8.59802 76.2373 8.59802C75.7601 8.59802 75.2883 8.67588 74.8219 8.83159C74.3668 8.97617 73.9782 9.17637 73.6563 9.43219L72.7238 7.61371C73.2122 7.26893 73.795 7.002 74.4723 6.81292C75.1605 6.62385 75.8655 6.5293 76.5871 6.5293ZM76.3872 14.0201C76.8313 14.0201 77.2255 13.92 77.5695 13.7198C77.9137 13.5085 78.158 13.2026 78.3023 12.8022V11.8846H76.5204C75.4547 11.8846 74.9218 12.235 74.9218 12.9357C74.9218 13.2693 75.0496 13.5363 75.3048 13.7365C75.5712 13.9255 75.9321 14.0201 76.3872 14.0201Z" fill="white"/>
<path d="M94.4862 6.66276V14.1369C94.4862 15.7829 94.0588 17.0064 93.204 17.8072C92.3492 18.608 91.1002 19.0084 89.4572 19.0084C88.5912 19.0084 87.7698 18.9027 86.9926 18.6913C86.2155 18.4801 85.5716 18.1742 85.061 17.7738L86.0934 15.9053C86.4709 16.2167 86.9482 16.4614 87.5254 16.6393C88.1027 16.8284 88.68 16.9229 89.2573 16.9229C90.1566 16.9229 90.8171 16.7172 91.2391 16.3057C91.6719 15.9053 91.8885 15.2936 91.8885 14.4705V14.0868C91.2112 14.832 90.2676 15.2046 89.0575 15.2046C88.2359 15.2046 87.481 15.0266 86.7928 14.6707C86.1157 14.3037 85.5772 13.7921 85.1775 13.1359C84.7779 12.4797 84.5781 11.7234 84.5781 10.8669C84.5781 10.0105 84.7779 9.25423 85.1775 8.59802C85.5772 7.94182 86.1157 7.43576 86.7928 7.07985C87.481 6.71283 88.2359 6.5293 89.0575 6.5293C90.3564 6.5293 91.3444 6.95751 92.0217 7.81391V6.66276H94.4862ZM89.5737 13.0691C90.2621 13.0691 90.8227 12.8689 91.2556 12.4685C91.6996 12.057 91.9217 11.5232 91.9217 10.8669C91.9217 10.2107 91.6996 9.68243 91.2556 9.28204C90.8227 8.87052 90.2621 8.66475 89.5737 8.66475C88.8855 8.66475 88.3193 8.87052 87.8752 9.28204C87.4312 9.68243 87.2092 10.2107 87.2092 10.8669C87.2092 11.5232 87.4312 12.057 87.8752 12.4685C88.3193 12.8689 88.8855 13.0691 89.5737 13.0691Z" fill="white"/>
<path d="M99.3796 7.84729C99.6904 7.41351 100.107 7.0854 100.629 6.86296C101.161 6.64052 101.772 6.5293 102.46 6.5293V8.93168C102.172 8.90944 101.977 8.89833 101.878 8.89833C101.134 8.89833 100.551 9.10964 100.129 9.53228C99.7071 9.94381 99.4963 10.5666 99.4963 11.4008V15.6383H96.8984V6.66276H99.3796V7.84729Z" fill="white"/>
<path d="M108.187 15.7718C107.243 15.7718 106.394 15.5772 105.639 15.1879C104.895 14.7875 104.313 14.237 103.891 13.5363C103.469 12.8356 103.258 12.0403 103.258 11.1506C103.258 10.2608 103.469 9.46555 103.891 8.76486C104.313 8.06415 104.895 7.51918 105.639 7.12989C106.394 6.7295 107.243 6.5293 108.187 6.5293C109.13 6.5293 109.974 6.7295 110.718 7.12989C111.462 7.51918 112.045 8.06415 112.467 8.76486C112.888 9.46555 113.099 10.2608 113.099 11.1506C113.099 12.0403 112.888 12.8356 112.467 13.5363C112.045 14.237 111.462 14.7875 110.718 15.1879C109.974 15.5772 109.13 15.7718 108.187 15.7718ZM108.187 13.6364C108.853 13.6364 109.397 13.4139 109.819 12.969C110.252 12.513 110.468 11.9069 110.468 11.1506C110.468 10.3943 110.252 9.79365 109.819 9.34877C109.397 8.89277 108.853 8.66475 108.187 8.66475C107.521 8.66475 106.971 8.89277 106.538 9.34877C106.105 9.79365 105.889 10.3943 105.889 11.1506C105.889 11.9069 106.105 12.513 106.538 12.969C106.971 13.4139 107.521 13.6364 108.187 13.6364Z" fill="white"/>
<path d="M128.984 6.66309L125.737 15.6387H123.239L121.224 10.0665L119.142 15.6387H116.645L113.414 6.66309H115.862L117.977 12.7358L120.175 6.66309H122.373L124.505 12.7358L126.686 6.66309H128.984Z" fill="white"/>
<path d="M136.211 15.2049C135.956 15.3939 135.64 15.5385 135.262 15.6386C134.896 15.7276 134.507 15.7721 134.097 15.7721C133.031 15.7721 132.204 15.4996 131.615 14.9546C131.038 14.4096 130.749 13.6088 130.749 12.5522V8.86522H129.367V6.86323H130.749V4.67773H133.347V6.86323H135.578V8.86522H133.347V12.5188C133.347 12.897 133.442 13.1918 133.63 13.4031C133.83 13.6033 134.108 13.7034 134.463 13.7034C134.874 13.7034 135.223 13.5921 135.512 13.3697L136.211 15.2049Z" fill="white"/>
<path d="M143.117 6.52966C144.227 6.52966 145.121 6.86333 145.798 7.53066C146.486 8.19799 146.831 9.18787 146.831 10.5003V15.6387H144.233V10.9007C144.233 10.1889 144.077 9.66056 143.767 9.31578C143.456 8.95987 143.006 8.78191 142.418 8.78191C141.763 8.78191 141.241 8.98767 140.852 9.39918C140.464 9.79958 140.27 10.4002 140.27 11.201V15.6387H137.672V3.25977H140.27V7.59739C140.614 7.25261 141.03 6.99124 141.519 6.81328C142.007 6.62421 142.54 6.52966 143.117 6.52966Z" fill="white"/>
</g>
<defs>
<clipPath id="clip0_15_4535">
<rect width="147" height="20" fill="white"/>
</clipPath>
</defs>
</svg>
