<svg fill="none" height="171" viewBox="0 0 1119 171" width="1119" xmlns="http://www.w3.org/2000/svg" xmlns:xlink="http://www.w3.org/1999/xlink"><clipPath id="a"><path d="m0 0h1119v169.7826h-1119z"/></clipPath><g clip-path="url(#a)" fill="#007b63"><path d="m470.177 160.648c-34.574 0-57.34-41.815-57.34-80.6557 0-41.3908 21.318-69.2261 53.514-69.2261 36.746 0 58.316 42.4457 58.316 80.6562 0 41.3906-21.333 69.2256-54.474 69.2256m-1.433-159.01323c-45.736 0-82.813 37.64373-82.813 84.07263 0 46.4286 37.077 84.0726 82.813 84.0726s82.813-37.644 82.813-84.0726c0-46.4289-37.077-84.07263-82.813-84.07263z"/><path d="m52.7737 95.3295c10.5641-28.1501 24.1512-64.2982 24.1512-64.2982s13.8861 34.2116 26.0561 64.2982zm115.7493 63.3065c-5.715 0-11.965-.11-15.571-4.912-2.818-3.873-7.053-14.012-10.58-23.364-3.526-9.368-52.1435-130.36-52.1435-130.36l-13.7602 7.17923s-43.1856 108.63277-45.0119 113.23077c-1.7948 4.55-5.0853 13.13-8.0137 19.617-5.9827 13.224-8.9898 17.05-22.655503 18.609l-.787197.094v7.62s14.7836-.472 28.528-.472c13.7445 0 27.851.457 27.851.457v-7.699l-7.809-.079c-7.2579-.362-13.2564-.929-13.2564-9.005 0-2.929.6141-8.203 5.29-21.648.3621-1.039 3.5896-9.699 7.9979-21.444h58.8665c6.408 15.886 11.666 28.969 13.036 32.559 2.204 5.778 4.078 10.627 4.078 12.957 0 5.07-3.747 6.66-11.604 6.66h-4.99v7.714s21.317-.472 34.243-.472c12.925 0 27.158.457 27.158.457v-7.699z"/><path d="m729.464 129.324c-7.022 21.947-16.027 27.961-41.911 27.961-32.038 0-35.234-6.691-35.234-23.112v-105.8311c0-15.1929 7.934-15.3503 19.931-15.5707h.866v-7.71456l-3.432.06298c-21.113.42508-39.722.40934-60.724-.03149l-1.59-.03149v7.69876h.866c11.996.2362 19.931.3936 19.931 15.5865v115.8751c0 4.676-1.275 8.234-3.794 10.612-3.227 3.038-8.486 4.266-16.074 3.825l-.929-.047v7.778h.897c20.105-.473 40.667-.473 60.551-.473 19.885 0 38.62 0 58.032.457h.709l8.848-36.542-6.707-1.212-.236.74z"/><path d="m907.543 129.324c-7.022 21.947-16.027 27.961-41.91 27.961-32.039 0-35.219-6.691-35.219-23.112v-105.8311c0-15.1929 7.934-15.3503 19.931-15.5707h.866v-7.71456l-3.432.06298c-21.097.42508-39.722.40934-60.724-.03149l-1.59-.03149v7.69876h.866c11.996.2362 19.931.3936 19.931 15.5865v115.8751c0 4.676-1.275 8.234-3.794 10.612-3.227 3.038-8.486 4.266-16.075 3.825l-.928-.047v7.778h.897c20.105-.473 40.667-.473 60.551-.473 19.885 0 38.62 0 58.032.457h.709l8.848-36.542-6.707-1.212-.236.74v-.031z"/><path d="m1037.62 160.648c-34.59 0-57.356-41.815-57.356-80.6557 0-41.3908 21.316-69.2261 53.516-69.2261 36.74 0 58.31 42.4457 58.31 80.6562 0 41.3906-21.33 69.2256-54.47 69.2256zm-1.43-159.01323c-45.739 0-82.816 37.64373-82.816 84.07263 0 46.4286 37.077 84.0726 82.816 84.0726 45.73 0 82.81-37.644 82.81-84.0726 0-46.4289-37.08-84.07263-82.81-84.07263z"/><path d="m261.837 143.648c0 6.235 1.575 15.051 17.791 15.051 3.511 0 4.739.079 4.739.079v7.573c-13.807-.488-26.67-.724-36.353-.724-10.17 0-19.38.236-30.039.724v-7.667h3.715c7.778 0 15.902-2.252 15.902-15.051v-113.8606c0-11.0207-2.204-14.8622-11.005-16.5154-4.96-.9446-9.1-.488-9.1-.488v-7.68306s28.339.37785 48.444.37785c24.088 0 44.839 2.23564 56.221 9.25741 11.147 7.0218 19.381 19.6327 19.381 36.337 0 22.2934-18.058 34.4477-28.465 39.533-10.658 5.0853-23.505 7.2737-33.44 7.2737l-.409-6.5652c26.166-4.8491 35.644-18.9242 35.644-39.9896 0-23.5057-15.193-35.4396-34.621-36.9825-12.8-1.0233-18.405.5353-18.405.5353z"/></g></svg>