<svg width="157" height="104" viewBox="0 0 157 104" fill="none" xmlns="http://www.w3.org/2000/svg">
<g opacity="0.03" clip-path="url(#clip0_348_24117)">
<path d="M104.349 105.566C110.496 105.566 115.479 100.583 115.479 94.4354C115.479 88.2882 110.496 83.3049 104.349 83.3049C98.2015 83.3049 93.2183 88.2882 93.2183 94.4354C93.2183 100.583 98.2015 105.566 104.349 105.566Z" fill="#0F1339"/>
<path d="M102.874 107.124C109.021 107.124 114.005 102.141 114.005 95.9936C114.005 89.8464 109.021 84.8632 102.874 84.8632C96.7269 84.8632 91.7437 89.8464 91.7437 95.9936C91.7437 102.141 96.7269 107.124 102.874 107.124Z" fill="#181844"/>
<path d="M101.399 108.675C107.547 108.675 112.53 103.692 112.53 97.5448C112.53 91.3976 107.547 86.4144 101.399 86.4144C95.2523 86.4144 90.269 91.3976 90.269 97.5448C90.269 103.692 95.2523 108.675 101.399 108.675Z" fill="#211D50"/>
<path d="M99.9332 110.233C106.08 110.233 111.064 105.25 111.064 99.103C111.064 92.9559 106.08 87.9726 99.9332 87.9726C93.786 87.9726 88.8027 92.9559 88.8027 99.103C88.8027 105.25 93.786 110.233 99.9332 110.233Z" fill="#2A225B"/>
<path d="M98.4586 111.785C104.606 111.785 109.589 106.801 109.589 100.654C109.589 94.5071 104.606 89.5238 98.4586 89.5238C92.3114 89.5238 87.3281 94.5071 87.3281 100.654C87.3281 106.801 92.3114 111.785 98.4586 111.785Z" fill="#332766"/>
<path d="M96.9815 113.343C103.129 113.343 108.112 108.36 108.112 102.212C108.112 96.0653 103.129 91.082 96.9815 91.082C90.8343 91.082 85.8511 96.0653 85.8511 102.212C85.8511 108.36 90.8343 113.343 96.9815 113.343Z" fill="#3D2B71"/>
<path d="M95.5069 114.895C101.654 114.895 106.637 109.911 106.637 103.764C106.637 97.6171 101.654 92.6339 95.5069 92.6339C89.3597 92.6339 84.3765 97.6171 84.3765 103.764C84.3765 109.911 89.3597 114.895 95.5069 114.895Z" fill="#46307D"/>
<path d="M94.0386 116.452C100.186 116.452 105.169 111.469 105.169 105.322C105.169 99.1747 100.186 94.1915 94.0386 94.1915C87.8915 94.1915 82.9082 99.1747 82.9082 105.322C82.9082 111.469 87.8915 116.452 94.0386 116.452Z" fill="#4F3588"/>
<path d="M92.564 118.004C98.7112 118.004 103.694 113.021 103.694 106.874C103.694 100.727 98.7112 95.7433 92.564 95.7433C86.4169 95.7433 81.4336 100.727 81.4336 106.874C81.4336 113.021 86.4169 118.004 92.564 118.004Z" fill="#583A93"/>
<path d="M91.0919 119.562C97.239 119.562 102.222 114.579 102.222 108.431C102.222 102.284 97.239 97.3009 91.0919 97.3009C84.9447 97.3009 79.9614 102.284 79.9614 108.431C79.9614 114.579 84.9447 119.562 91.0919 119.562Z" fill="#613F9F"/>
<path d="M89.6158 121.114C95.763 121.114 100.746 116.13 100.746 109.983C100.746 103.836 95.763 98.8527 89.6158 98.8527C83.4686 98.8527 78.4854 103.836 78.4854 109.983C78.4854 116.13 83.4686 121.114 89.6158 121.114Z" fill="#6A44AA"/>
<path d="M88.1485 122.672C94.2957 122.672 99.2789 117.689 99.2789 111.541C99.2789 105.394 94.2957 100.411 88.1485 100.411C82.0013 100.411 77.0181 105.394 77.0181 111.541C77.0181 117.689 82.0013 122.672 88.1485 122.672Z" fill="#7349B5"/>
<path d="M86.6739 124.223C92.8211 124.223 97.8043 119.24 97.8043 113.093C97.8043 106.945 92.8211 101.962 86.6739 101.962C80.5267 101.962 75.5435 106.945 75.5435 113.093C75.5435 119.24 80.5267 124.223 86.6739 124.223Z" fill="#7C4EC1"/>
<path d="M85.1968 125.781C91.344 125.781 96.3273 120.798 96.3273 114.651C96.3273 108.504 91.344 103.52 85.1968 103.52C79.0497 103.52 74.0664 108.504 74.0664 114.651C74.0664 120.798 79.0497 125.781 85.1968 125.781Z" fill="#8652CC"/>
<path d="M133.568 93.7393C139.716 93.7393 144.699 88.7561 144.699 82.6089C144.699 76.4617 139.716 71.4785 133.568 71.4785C127.421 71.4785 122.438 76.4617 122.438 82.6089C122.438 88.7561 127.421 93.7393 133.568 93.7393Z" fill="#0F1339"/>
<path d="M133.059 95.3183C139.206 95.3183 144.19 90.335 144.19 84.1879C144.19 78.0407 139.206 73.0574 133.059 73.0574C126.912 73.0574 121.929 78.0407 121.929 84.1879C121.929 90.335 126.912 95.3183 133.059 95.3183Z" fill="#1B1C4A"/>
<path d="M132.558 96.9049C138.705 96.9049 143.688 91.9216 143.688 85.7745C143.688 79.6273 138.705 74.644 132.558 74.644C126.411 74.644 121.427 79.6273 121.427 85.7745C121.427 91.9216 126.411 96.9049 132.558 96.9049Z" fill="#27265C"/>
<path d="M132.051 98.4836C138.198 98.4836 143.181 93.5003 143.181 87.3532C143.181 81.206 138.198 76.2227 132.051 76.2227C125.904 76.2227 120.92 81.206 120.92 87.3532C120.92 93.5003 125.904 98.4836 132.051 98.4836Z" fill="#332F6D"/>
<path d="M131.543 100.063C137.69 100.063 142.673 95.0793 142.673 88.9321C142.673 82.785 137.69 77.8017 131.543 77.8017C125.396 77.8017 120.413 82.785 120.413 88.9321C120.413 95.0793 125.396 100.063 131.543 100.063Z" fill="#3F387F"/>
<path d="M131.037 101.642C137.184 101.642 142.167 96.6589 142.167 90.5117C142.167 84.3646 137.184 79.3813 131.037 79.3813C124.89 79.3813 119.906 84.3646 119.906 90.5117C119.906 96.6589 124.89 101.642 131.037 101.642Z" fill="#4B4290"/>
<path d="M130.535 103.228C136.682 103.228 141.665 98.2449 141.665 92.0977C141.665 85.9506 136.682 80.9673 130.535 80.9673C124.388 80.9673 119.404 85.9506 119.404 92.0977C119.404 98.2449 124.388 103.228 130.535 103.228Z" fill="#564BA2"/>
<path d="M130.026 104.807C136.173 104.807 141.156 99.8242 141.156 93.677C141.156 87.5298 136.173 82.5466 130.026 82.5466C123.879 82.5466 118.896 87.5298 118.896 93.677C118.896 99.8242 123.879 104.807 130.026 104.807Z" fill="#6255B3"/>
<path d="M129.518 106.386C135.665 106.386 140.649 101.403 140.649 95.256C140.649 89.1088 135.665 84.1255 129.518 84.1255C123.371 84.1255 118.388 89.1088 118.388 95.256C118.388 101.403 123.371 106.386 129.518 106.386Z" fill="#6E5EC5"/>
<path d="M129.011 107.965C135.158 107.965 140.142 102.982 140.142 96.835C140.142 90.6878 135.158 85.7045 129.011 85.7045C122.864 85.7045 117.881 90.6878 117.881 96.835C117.881 102.982 122.864 107.965 129.011 107.965Z" fill="#7A67D6"/>
<path d="M128.511 109.551C134.658 109.551 139.641 104.568 139.641 98.421C139.641 92.2738 134.658 87.2905 128.511 87.2905C122.364 87.2905 117.38 92.2738 117.38 98.421C117.38 104.568 122.364 109.551 128.511 109.551Z" fill="#8671E8"/>
<path d="M128.003 111.131C134.15 111.131 139.133 106.147 139.133 100C139.133 93.8531 134.15 88.8698 128.003 88.8698C121.856 88.8698 116.873 93.8531 116.873 100C116.873 106.147 121.856 111.131 128.003 111.131Z" fill="#927AF9"/>
<path d="M72.3477 92.3477C78.4949 92.3477 83.4782 87.3645 83.4782 81.2173C83.4782 75.0701 78.4949 70.0869 72.3477 70.0869C66.2006 70.0869 61.2173 75.0701 61.2173 81.2173C61.2173 87.3645 66.2006 92.3477 72.3477 92.3477Z" fill="#0F1339"/>
<path d="M70.2618 93.2248C76.409 93.2248 81.3922 88.2415 81.3922 82.0944C81.3922 75.9472 76.409 70.9639 70.2618 70.9639C64.1146 70.9639 59.1313 75.9472 59.1313 82.0944C59.1313 88.2415 64.1146 93.2248 70.2618 93.2248Z" fill="#161843"/>
<path d="M68.1744 94.1077C74.3216 94.1077 79.3048 89.1244 79.3048 82.9772C79.3048 76.8301 74.3216 71.8468 68.1744 71.8468C62.0272 71.8468 57.0439 76.8301 57.0439 82.9772C57.0439 89.1244 62.0272 94.1077 68.1744 94.1077Z" fill="#1E1D4D"/>
<path d="M66.088 94.9841C72.2351 94.9841 77.2184 90.0009 77.2184 83.8537C77.2184 77.7065 72.2351 72.7233 66.088 72.7233C59.9408 72.7233 54.9575 77.7065 54.9575 83.8537C54.9575 90.0009 59.9408 94.9841 66.088 94.9841Z" fill="#252357"/>
<path d="M64.0006 95.8606C70.1477 95.8606 75.131 90.8773 75.131 84.7302C75.131 78.583 70.1477 73.5997 64.0006 73.5997C57.8534 73.5997 52.8701 78.583 52.8701 84.7302C52.8701 90.8773 57.8534 95.8606 64.0006 95.8606Z" fill="#2C2862"/>
<path d="M61.9132 96.7447C68.0603 96.7447 73.0436 91.7614 73.0436 85.6143C73.0436 79.4671 68.0603 74.4838 61.9132 74.4838C55.766 74.4838 50.7827 79.4671 50.7827 85.6143C50.7827 91.7614 55.766 96.7447 61.9132 96.7447Z" fill="#332D6C"/>
<path d="M59.8272 97.6206C65.9744 97.6206 70.9576 92.6373 70.9576 86.4901C70.9576 80.3429 65.9744 75.3597 59.8272 75.3597C53.68 75.3597 48.6968 80.3429 48.6968 86.4901C48.6968 92.6373 53.68 97.6206 59.8272 97.6206Z" fill="#3B3276"/>
<path d="M57.7398 98.497C63.887 98.497 68.8702 93.5138 68.8702 87.3666C68.8702 81.2194 63.887 76.2361 57.7398 76.2361C51.5926 76.2361 46.6094 81.2194 46.6094 87.3666C46.6094 93.5138 51.5926 98.497 57.7398 98.497Z" fill="#423780"/>
<path d="M55.6534 99.3811C61.8006 99.3811 66.7838 94.3978 66.7838 88.2507C66.7838 82.1035 61.8006 77.1202 55.6534 77.1202C49.5062 77.1202 44.5229 82.1035 44.5229 88.2507C44.5229 94.3978 49.5062 99.3811 55.6534 99.3811Z" fill="#493D8A"/>
<path d="M53.566 100.258C59.7132 100.258 64.6964 95.2743 64.6964 89.1271C64.6964 82.98 59.7132 77.9967 53.566 77.9967C47.4188 77.9967 42.4355 82.98 42.4355 89.1271C42.4355 95.2743 47.4188 100.258 53.566 100.258Z" fill="#504294"/>
<path d="M51.4786 101.133C57.6258 101.133 62.609 96.1502 62.609 90.003C62.609 83.8558 57.6258 78.8726 51.4786 78.8726C45.3314 78.8726 40.3481 83.8558 40.3481 90.003C40.3481 96.1502 45.3314 101.133 51.4786 101.133Z" fill="#58479F"/>
<path d="M49.3951 102.01C55.5423 102.01 60.5255 97.0266 60.5255 90.8795C60.5255 84.7323 55.5423 79.749 49.3951 79.749C43.2479 79.749 38.2646 84.7323 38.2646 90.8795C38.2646 97.0266 43.2479 102.01 49.3951 102.01Z" fill="#5F4CA9"/>
<path d="M47.3077 102.894C53.4549 102.894 58.4381 97.9107 58.4381 91.7636C58.4381 85.6164 53.4549 80.6331 47.3077 80.6331C41.1605 80.6331 36.1772 85.6164 36.1772 91.7636C36.1772 97.9107 41.1605 102.894 47.3077 102.894Z" fill="#6652B3"/>
<path d="M45.2203 103.77C51.3675 103.77 56.3507 98.7872 56.3507 92.64C56.3507 86.4928 51.3675 81.5096 45.2203 81.5096C39.0731 81.5096 34.0898 86.4928 34.0898 92.64C34.0898 98.7872 39.0731 103.77 45.2203 103.77Z" fill="#6D57BD"/>
<path d="M43.1339 104.647C49.281 104.647 54.2643 99.6637 54.2643 93.5165C54.2643 87.3693 49.281 82.386 43.1339 82.386C36.9867 82.386 32.0034 87.3693 32.0034 93.5165C32.0034 99.6637 36.9867 104.647 43.1339 104.647Z" fill="#755CC7"/>
<path d="M41.0465 105.53C47.1936 105.53 52.1769 100.547 52.1769 94.4C52.1769 88.2528 47.1936 83.2695 41.0465 83.2695C34.8993 83.2695 29.916 88.2528 29.916 94.4C29.916 100.547 34.8993 105.53 41.0465 105.53Z" fill="#7C61D1"/>
<path d="M38.9605 106.407C45.1077 106.407 50.091 101.424 50.091 95.2764C50.091 89.1293 45.1077 84.146 38.9605 84.146C32.8133 84.146 27.8301 89.1293 27.8301 95.2764C27.8301 101.424 32.8133 106.407 38.9605 106.407Z" fill="#8366DC"/>
<path d="M36.8731 107.283C43.0203 107.283 48.0035 102.3 48.0035 96.1529C48.0035 90.0057 43.0203 85.0225 36.8731 85.0225C30.7259 85.0225 25.7427 90.0057 25.7427 96.1529C25.7427 102.3 30.7259 107.283 36.8731 107.283Z" fill="#8A6CE6"/>
<path d="M34.7867 108.167C40.9339 108.167 45.9171 103.184 45.9171 97.0364C45.9171 90.8892 40.9339 85.9059 34.7867 85.9059C28.6395 85.9059 23.6562 90.8892 23.6562 97.0364C23.6562 103.184 28.6395 108.167 34.7867 108.167Z" fill="#9271F0"/>
<path d="M32.6993 109.043C38.8465 109.043 43.8297 104.06 43.8297 97.9128C43.8297 91.7657 38.8465 86.7824 32.6993 86.7824C26.5521 86.7824 21.5688 91.7657 21.5688 97.9128C21.5688 104.06 26.5521 109.043 32.6993 109.043Z" fill="#9976FA"/>
<path d="M146.089 61.7395C152.236 61.7395 157.219 56.7562 157.219 50.6091C157.219 44.4619 152.236 39.4786 146.089 39.4786C139.942 39.4786 134.958 44.4619 134.958 50.6091C134.958 56.7562 139.942 61.7395 146.089 61.7395Z" fill="#5CACFC"/>
<path d="M133.567 31.1307C139.714 31.1307 144.697 26.1474 144.697 20.0002C144.697 13.8531 139.714 8.86981 133.567 8.86981C127.42 8.86981 122.437 13.8531 122.437 20.0002C122.437 26.1474 127.42 31.1307 133.567 31.1307Z" fill="#11274F"/>
<path d="M132.934 29.6143C139.081 29.6143 144.064 24.631 144.064 18.4838C144.064 12.3367 139.081 7.35339 132.934 7.35339C126.786 7.35339 121.803 12.3367 121.803 18.4838C121.803 24.631 126.786 29.6143 132.934 29.6143Z" fill="#13355C"/>
<path d="M132.3 28.0978C138.447 28.0978 143.43 23.1146 143.43 16.9674C143.43 10.8202 138.447 5.83698 132.3 5.83698C126.153 5.83698 121.169 10.8202 121.169 16.9674C121.169 23.1146 126.153 28.0978 132.3 28.0978Z" fill="#144269"/>
<path d="M131.667 26.5744C137.814 26.5744 142.797 21.5911 142.797 15.444C142.797 9.2968 137.814 4.31354 131.667 4.31354C125.519 4.31354 120.536 9.2968 120.536 15.444C120.536 21.5911 125.519 26.5744 131.667 26.5744Z" fill="#165076"/>
<path d="M131.035 25.0577C137.182 25.0577 142.166 20.0744 142.166 13.9272C142.166 7.78008 137.182 2.79681 131.035 2.79681C124.888 2.79681 119.905 7.78008 119.905 13.9272C119.905 20.0744 124.888 25.0577 131.035 25.0577Z" fill="#185E83"/>
<path d="M130.402 23.5413C136.549 23.5413 141.532 18.558 141.532 12.4108C141.532 6.26366 136.549 1.2804 130.402 1.2804C124.255 1.2804 119.271 6.26366 119.271 12.4108C119.271 18.558 124.255 23.5413 130.402 23.5413Z" fill="#1A6C90"/>
<path d="M129.774 22.0242C135.922 22.0242 140.905 17.041 140.905 10.8938C140.905 4.74663 135.922 -0.236633 129.774 -0.236633C123.627 -0.236633 118.644 4.74663 118.644 10.8938C118.644 17.041 123.627 22.0242 129.774 22.0242Z" fill="#1B799E"/>
<path d="M129.141 20.5078C135.288 20.5078 140.271 15.5246 140.271 9.37738C140.271 3.23021 135.288 -1.75305 129.141 -1.75305C122.994 -1.75305 118.01 3.23021 118.01 9.37738C118.01 15.5246 122.994 20.5078 129.141 20.5078Z" fill="#1D87AB"/>
<path d="M128.51 18.992C134.657 18.992 139.64 14.0087 139.64 7.86158C139.64 1.71441 134.657 -3.26886 128.51 -3.26886C122.363 -3.26886 117.379 1.71441 117.379 7.86158C117.379 14.0087 122.363 18.992 128.51 18.992Z" fill="#1F95B8"/>
<path d="M127.876 17.468C134.023 17.468 139.006 12.4847 139.006 6.33753C139.006 0.190358 134.023 -4.79291 127.876 -4.79291C121.729 -4.79291 116.746 0.190358 116.746 6.33753C116.746 12.4847 121.729 17.468 127.876 17.468Z" fill="#21A3C5"/>
<path d="M127.243 15.9515C133.39 15.9515 138.373 10.9683 138.373 4.82111C138.373 -1.32606 133.39 -6.30933 127.243 -6.30933C121.096 -6.30933 116.112 -1.32606 116.112 4.82111C116.112 10.9683 121.096 15.9515 127.243 15.9515Z" fill="#22B0D2"/>
<path d="M126.609 14.4351C132.756 14.4351 137.739 9.45186 137.739 3.30469C137.739 -2.84248 132.756 -7.82574 126.609 -7.82574C120.462 -7.82574 115.479 -2.84248 115.479 3.30469C115.479 9.45186 120.462 14.4351 126.609 14.4351Z" fill="#24BEDF"/>
<path d="M102.958 17.9135C109.105 17.9135 114.089 12.9303 114.089 6.78308C114.089 0.635914 109.105 -4.34735 102.958 -4.34735C96.8109 -4.34735 91.8276 0.635914 91.8276 6.78308C91.8276 12.9303 96.8109 17.9135 102.958 17.9135Z" fill="#11274F"/>
<path d="M101.712 16.6684C107.859 16.6684 112.842 11.6851 112.842 5.53797C112.842 -0.609203 107.859 -5.59247 101.712 -5.59247C95.5648 -5.59247 90.5815 -0.609203 90.5815 5.53797C90.5815 11.6851 95.5648 16.6684 101.712 16.6684Z" fill="#113258"/>
<path d="M100.468 15.423C106.615 15.423 111.598 10.4397 111.598 4.29254C111.598 -1.85463 106.615 -6.83789 100.468 -6.83789C94.3207 -6.83789 89.3374 -1.85463 89.3374 4.29254C89.3374 10.4397 94.3207 15.423 100.468 15.423Z" fill="#103C61"/>
<path d="M99.2227 14.1773C105.37 14.1773 110.353 9.19399 110.353 3.04682C110.353 -3.10035 105.37 -8.08362 99.2227 -8.08362C93.0756 -8.08362 88.0923 -3.10035 88.0923 3.04682C88.0923 9.19399 93.0756 14.1773 99.2227 14.1773Z" fill="#10476A"/>
<path d="M97.9766 12.9327C104.124 12.9327 109.107 7.94948 109.107 1.80231C109.107 -4.34486 104.124 -9.32812 97.9766 -9.32812C91.8295 -9.32812 86.8462 -4.34486 86.8462 1.80231C86.8462 7.94948 91.8295 12.9327 97.9766 12.9327Z" fill="#105273"/>
<path d="M96.7315 11.687C102.879 11.687 107.862 6.70375 107.862 0.556583C107.862 -5.59059 102.879 -10.5739 96.7315 -10.5739C90.5843 -10.5739 85.6011 -5.59059 85.6011 0.556583C85.6011 6.70375 90.5843 11.687 96.7315 11.687Z" fill="#105D7C"/>
<path d="M95.4874 10.4419C101.635 10.4419 106.618 5.45863 106.618 -0.688536C106.618 -6.83571 101.635 -11.819 95.4874 -11.819C89.3402 -11.819 84.3569 -6.83571 84.3569 -0.688536C84.3569 5.45863 89.3402 10.4419 95.4874 10.4419Z" fill="#0F6785"/>
<path d="M94.2423 9.19678C100.389 9.19678 105.373 4.21352 105.373 -1.93365C105.373 -8.08082 100.389 -13.0641 94.2423 -13.0641C88.0951 -13.0641 83.1118 -8.08082 83.1118 -1.93365C83.1118 4.21352 88.0951 9.19678 94.2423 9.19678Z" fill="#0F728E"/>
<path d="M92.9962 7.95136C99.1433 7.95136 104.127 2.9681 104.127 -3.17907C104.127 -9.32624 99.1433 -14.3095 92.9962 -14.3095C86.849 -14.3095 81.8657 -9.32624 81.8657 -3.17907C81.8657 2.9681 86.849 7.95136 92.9962 7.95136Z" fill="#0F7D97"/>
<path d="M91.751 6.70625C97.8982 6.70625 102.881 1.72298 102.881 -4.42419C102.881 -10.5714 97.8982 -15.5546 91.751 -15.5546C85.6039 -15.5546 80.6206 -10.5714 80.6206 -4.42419C80.6206 1.72298 85.6039 6.70625 91.751 6.70625Z" fill="#0F88A0"/>
<path d="M90.5132 5.46815C96.6604 5.46815 101.644 0.484882 101.644 -5.66229C101.644 -11.8095 96.6604 -16.7927 90.5132 -16.7927C84.3661 -16.7927 79.3828 -11.8095 79.3828 -5.66229C79.3828 0.484882 84.3661 5.46815 90.5132 5.46815Z" fill="#0E92AA"/>
<path d="M89.2681 4.22272C95.4153 4.22272 100.399 -0.76054 100.399 -6.90771C100.399 -13.0549 95.4153 -18.0381 89.2681 -18.0381C83.121 -18.0381 78.1377 -13.0549 78.1377 -6.90771C78.1377 -0.76054 83.121 4.22272 89.2681 4.22272Z" fill="#0E9DB3"/>
<path d="M88.024 2.9773C94.1712 2.9773 99.1544 -2.00596 99.1544 -8.15313C99.1544 -14.3003 94.1712 -19.2836 88.024 -19.2836C81.8768 -19.2836 76.8936 -14.3003 76.8936 -8.15313C76.8936 -2.00596 81.8768 2.9773 88.024 2.9773Z" fill="#0EA8BC"/>
<path d="M86.7764 1.73188C92.9236 1.73188 97.9069 -3.25138 97.9069 -9.39856C97.9069 -15.5457 92.9236 -20.529 86.7764 -20.529C80.6293 -20.529 75.646 -15.5457 75.646 -9.39856C75.646 -3.25138 80.6293 1.73188 86.7764 1.73188Z" fill="#0EB3C5"/>
<path d="M85.5328 0.486763C91.68 0.486763 96.6632 -4.4965 96.6632 -10.6437C96.6632 -16.7908 91.68 -21.7741 85.5328 -21.7741C79.3856 -21.7741 74.4023 -16.7908 74.4023 -10.6437C74.4023 -4.4965 79.3856 0.486763 85.5328 0.486763Z" fill="#0DBDCE"/>
<path d="M72.3463 31.1307C78.4934 31.1307 83.4767 26.1474 83.4767 20.0002C83.4767 13.8531 78.4934 8.86981 72.3463 8.86981C66.1991 8.86981 61.2158 13.8531 61.2158 20.0002C61.2158 26.1474 66.1991 31.1307 72.3463 31.1307Z" fill="#11274F"/>
<path d="M70.1505 30.2127C76.2976 30.2127 81.2809 25.2295 81.2809 19.0823C81.2809 12.9351 76.2976 7.95184 70.1505 7.95184C64.0033 7.95184 59.02 12.9351 59.02 19.0823C59.02 25.2295 64.0033 30.2127 70.1505 30.2127Z" fill="#123058"/>
<path d="M67.9517 29.3012C74.0989 29.3012 79.0822 24.3179 79.0822 18.1707C79.0822 12.0236 74.0989 7.04028 67.9517 7.04028C61.8046 7.04028 56.8213 12.0236 56.8213 18.1707C56.8213 24.3179 61.8046 29.3012 67.9517 29.3012Z" fill="#133A61"/>
<path d="M65.7608 28.3832C71.908 28.3832 76.8912 23.3999 76.8912 17.2528C76.8912 11.1056 71.908 6.12231 65.7608 6.12231C59.6136 6.12231 54.6304 11.1056 54.6304 17.2528C54.6304 23.3999 59.6136 28.3832 65.7608 28.3832Z" fill="#14436A"/>
<path d="M63.5621 27.4719C69.7092 27.4719 74.6925 22.4887 74.6925 16.3415C74.6925 10.1943 69.7092 5.21106 63.5621 5.21106C57.4149 5.21106 52.4316 10.1943 52.4316 16.3415C52.4316 22.4887 57.4149 27.4719 63.5621 27.4719Z" fill="#164D73"/>
<path d="M61.3638 26.5537C67.511 26.5537 72.4943 21.5704 72.4943 15.4232C72.4943 9.27605 67.511 4.29279 61.3638 4.29279C55.2167 4.29279 50.2334 9.27605 50.2334 15.4232C50.2334 21.5704 55.2167 26.5537 61.3638 26.5537Z" fill="#17567D"/>
<path d="M59.1651 25.6424C65.3123 25.6424 70.2955 20.6591 70.2955 14.512C70.2955 8.3648 65.3123 3.38153 59.1651 3.38153C53.0179 3.38153 48.0347 8.3648 48.0347 14.512C48.0347 20.6591 53.0179 25.6424 59.1651 25.6424Z" fill="#186086"/>
<path d="M56.9678 24.7241C63.115 24.7241 68.0983 19.7409 68.0983 13.5937C68.0983 7.44652 63.115 2.46326 56.9678 2.46326C50.8207 2.46326 45.8374 7.44652 45.8374 13.5937C45.8374 19.7409 50.8207 24.7241 56.9678 24.7241Z" fill="#19698F"/>
<path d="M54.7755 23.8052C60.9226 23.8052 65.9059 18.822 65.9059 12.6748C65.9059 6.52764 60.9226 1.54437 54.7755 1.54437C48.6283 1.54437 43.645 6.52764 43.645 12.6748C43.645 18.822 48.6283 23.8052 54.7755 23.8052Z" fill="#1A7298"/>
<path d="M52.5772 22.894C58.7244 22.894 63.7076 17.9107 63.7076 11.7636C63.7076 5.61638 58.7244 0.633118 52.5772 0.633118C46.43 0.633118 41.4468 5.61638 41.4468 11.7636C41.4468 17.9107 46.43 22.894 52.5772 22.894Z" fill="#1B7CA1"/>
<path d="M50.3799 21.9763C56.5271 21.9763 61.5104 16.9931 61.5104 10.8459C61.5104 4.69872 56.5271 -0.284546 50.3799 -0.284546C44.2328 -0.284546 39.2495 4.69872 39.2495 10.8459C39.2495 16.9931 44.2328 21.9763 50.3799 21.9763Z" fill="#1D85AA"/>
<path d="M48.1812 21.0645C54.3284 21.0645 59.3117 16.0812 59.3117 9.93402C59.3117 3.78685 54.3284 -1.19641 48.1812 -1.19641C42.034 -1.19641 37.0508 3.78685 37.0508 9.93402C37.0508 16.0812 42.034 21.0645 48.1812 21.0645Z" fill="#1E8FB3"/>
<path d="M45.9888 20.1468C52.136 20.1468 57.1193 15.1635 57.1193 9.01636C57.1193 2.86919 52.136 -2.11407 45.9888 -2.11407C39.8417 -2.11407 34.8584 2.86919 34.8584 9.01636C34.8584 15.1635 39.8417 20.1468 45.9888 20.1468Z" fill="#1F98BC"/>
<path d="M43.7916 19.2279C49.9387 19.2279 54.922 14.2446 54.922 8.09748C54.922 1.95031 49.9387 -3.03296 43.7916 -3.03296C37.6444 -3.03296 32.6611 1.95031 32.6611 8.09748C32.6611 14.2446 37.6444 19.2279 43.7916 19.2279Z" fill="#20A1C5"/>
<path d="M41.5933 18.3173C47.7405 18.3173 52.7238 13.334 52.7238 7.18683C52.7238 1.03966 47.7405 -3.9436 41.5933 -3.9436C35.4462 -3.9436 30.4629 1.03966 30.4629 7.18683C30.4629 13.334 35.4462 18.3173 41.5933 18.3173Z" fill="#21ABCE"/>
<path d="M39.3946 17.3984C45.5418 17.3984 50.525 12.4151 50.525 6.26795C50.525 0.120778 45.5418 -4.86249 39.3946 -4.86249C33.2474 -4.86249 28.2642 0.120778 28.2642 6.26795C28.2642 12.4151 33.2474 17.3984 39.3946 17.3984Z" fill="#22B4D8"/>
<path d="M37.1964 16.4871C43.3435 16.4871 48.3268 11.5039 48.3268 5.35669C48.3268 -0.790477 43.3435 -5.77374 37.1964 -5.77374C31.0492 -5.77374 26.0659 -0.790477 26.0659 5.35669C26.0659 11.5039 31.0492 16.4871 37.1964 16.4871Z" fill="#24BEE1"/>
<path d="M35.0049 15.5689C41.1521 15.5689 46.1354 10.5856 46.1354 4.43842C46.1354 -1.70875 41.1521 -6.69202 35.0049 -6.69202C28.8578 -6.69202 23.8745 -1.70875 23.8745 4.43842C23.8745 10.5856 28.8578 15.5689 35.0049 15.5689Z" fill="#25C7EA"/>
<path d="M32.8067 14.6576C38.9539 14.6576 43.9371 9.67434 43.9371 3.52716C43.9371 -2.62001 38.9539 -7.60327 32.8067 -7.60327C26.6595 -7.60327 21.6763 -2.62001 21.6763 3.52716C21.6763 9.67434 26.6595 14.6576 32.8067 14.6576Z" fill="#26D1F3"/>
<path d="M30.6104 13.7399C36.7576 13.7399 41.7409 8.75667 41.7409 2.6095C41.7409 -3.53767 36.7576 -8.52094 30.6104 -8.52094C24.4632 -8.52094 19.48 -3.53767 19.48 2.6095C19.48 8.75667 24.4632 13.7399 30.6104 13.7399Z" fill="#27DAFC"/>
<path d="M59.8272 61.7395C65.9744 61.7395 70.9576 56.7562 70.9576 50.6091C70.9576 44.4619 65.9744 39.4786 59.8272 39.4786C53.68 39.4786 48.6968 44.4619 48.6968 50.6091C48.6968 56.7562 53.68 61.7395 59.8272 61.7395Z" fill="#0F1339"/>
<path d="M57.2686 61.7743C63.4158 61.7743 68.3991 56.791 68.3991 50.6439C68.3991 44.4967 63.4158 39.5134 57.2686 39.5134C51.1214 39.5134 46.1382 44.4967 46.1382 50.6439C46.1382 56.791 51.1214 61.7743 57.2686 61.7743Z" fill="#131B43"/>
<path d="M54.7027 61.8161C60.8499 61.8161 65.8331 56.8328 65.8331 50.6857C65.8331 44.5385 60.8499 39.5552 54.7027 39.5552C48.5555 39.5552 43.5723 44.5385 43.5723 50.6857C43.5723 56.8328 48.5555 61.8161 54.7027 61.8161Z" fill="#17234E"/>
<path d="M52.1426 61.8503C58.2898 61.8503 63.2731 56.867 63.2731 50.7199C63.2731 44.5727 58.2898 39.5894 52.1426 39.5894C45.9955 39.5894 41.0122 44.5727 41.0122 50.7199C41.0122 56.867 45.9955 61.8503 52.1426 61.8503Z" fill="#1B2B58"/>
<path d="M49.5743 61.8857C55.7215 61.8857 60.7047 56.9024 60.7047 50.7553C60.7047 44.6081 55.7215 39.6248 49.5743 39.6248C43.4271 39.6248 38.4438 44.6081 38.4438 50.7553C38.4438 56.9024 43.4271 61.8857 49.5743 61.8857Z" fill="#1F3362"/>
<path d="M47.0147 61.9205C53.1619 61.9205 58.1451 56.9372 58.1451 50.79C58.1451 44.6429 53.1619 39.6596 47.0147 39.6596C40.8675 39.6596 35.8843 44.6429 35.8843 50.79C35.8843 56.9372 40.8675 61.9205 47.0147 61.9205Z" fill="#243C6C"/>
<path d="M44.4473 61.962C50.5945 61.962 55.5778 56.9787 55.5778 50.8315C55.5778 44.6844 50.5945 39.7011 44.4473 39.7011C38.3002 39.7011 33.3169 44.6844 33.3169 50.8315C33.3169 56.9787 38.3002 61.962 44.4473 61.962Z" fill="#284477"/>
<path d="M41.8878 61.9968C48.0349 61.9968 53.0182 57.0135 53.0182 50.8663C53.0182 44.7192 48.0349 39.7359 41.8878 39.7359C35.7406 39.7359 30.7573 44.7192 30.7573 50.8663C30.7573 57.0135 35.7406 61.9968 41.8878 61.9968Z" fill="#2C4C81"/>
<path d="M39.3277 62.0313C45.4749 62.0313 50.4581 57.048 50.4581 50.9008C50.4581 44.7537 45.4749 39.7704 39.3277 39.7704C33.1805 39.7704 28.1973 44.7537 28.1973 50.9008C28.1973 57.048 33.1805 62.0313 39.3277 62.0313Z" fill="#30548B"/>
<path d="M36.7593 62.066C42.9065 62.066 47.8898 57.0828 47.8898 50.9356C47.8898 44.7884 42.9065 39.8052 36.7593 39.8052C30.6122 39.8052 25.6289 44.7884 25.6289 50.9356C25.6289 57.0828 30.6122 62.066 36.7593 62.066Z" fill="#345C95"/>
<path d="M34.1998 62.1082C40.3469 62.1082 45.3302 57.1249 45.3302 50.9777C45.3302 44.8306 40.3469 39.8473 34.1998 39.8473C28.0526 39.8473 23.0693 44.8306 23.0693 50.9777C23.0693 57.1249 28.0526 62.1082 34.1998 62.1082Z" fill="#3864A0"/>
<path d="M31.6324 62.143C37.7796 62.143 42.7628 57.1597 42.7628 51.0125C42.7628 44.8653 37.7796 39.8821 31.6324 39.8821C25.4852 39.8821 20.502 44.8653 20.502 51.0125C20.502 57.1597 25.4852 62.143 31.6324 62.143Z" fill="#3C6CAA"/>
<path d="M29.0728 62.1777C35.22 62.1777 40.2033 57.1945 40.2033 51.0473C40.2033 44.9001 35.22 39.9169 29.0728 39.9169C22.9256 39.9169 17.9424 44.9001 17.9424 51.0473C17.9424 57.1945 22.9256 62.1777 29.0728 62.1777Z" fill="#4074B4"/>
<path d="M26.5128 62.2125C32.6599 62.2125 37.6432 57.2293 37.6432 51.0821C37.6432 44.9349 32.6599 39.9517 26.5128 39.9517C20.3656 39.9517 15.3823 44.9349 15.3823 51.0821C15.3823 57.2293 20.3656 62.2125 26.5128 62.2125Z" fill="#447CBE"/>
<path d="M23.9468 62.2537C30.094 62.2537 35.0773 57.2705 35.0773 51.1233C35.0773 44.9761 30.094 39.9929 23.9468 39.9929C17.7997 39.9929 12.8164 44.9761 12.8164 51.1233C12.8164 57.2705 17.7997 62.2537 23.9468 62.2537Z" fill="#4884C9"/>
<path d="M21.3873 62.2891C27.5344 62.2891 32.5177 57.3059 32.5177 51.1587C32.5177 45.0115 27.5344 40.0283 21.3873 40.0283C15.2401 40.0283 10.2568 45.0115 10.2568 51.1587C10.2568 57.3059 15.2401 62.2891 21.3873 62.2891Z" fill="#4D8DD3"/>
<path d="M18.8199 62.3239C24.9671 62.3239 29.9503 57.3407 29.9503 51.1935C29.9503 45.0463 24.9671 40.063 18.8199 40.063C12.6727 40.063 7.68945 45.0463 7.68945 51.1935C7.68945 57.3407 12.6727 62.3239 18.8199 62.3239Z" fill="#5195DD"/>
<path d="M16.2589 62.3587C22.406 62.3587 27.3893 57.3754 27.3893 51.2283C27.3893 45.0811 22.406 40.0978 16.2589 40.0978C10.1117 40.0978 5.12842 45.0811 5.12842 51.2283C5.12842 57.3754 10.1117 62.3587 16.2589 62.3587Z" fill="#559DE7"/>
<path d="M13.692 62.4002C19.8391 62.4002 24.8224 57.417 24.8224 51.2698C24.8224 45.1226 19.8391 40.1393 13.692 40.1393C7.54479 40.1393 2.56152 45.1226 2.56152 51.2698C2.56152 57.417 7.54479 62.4002 13.692 62.4002Z" fill="#59A5F2"/>
<path d="M11.1319 62.435C17.2791 62.435 22.2623 57.4517 22.2623 51.3046C22.2623 45.1574 17.2791 40.1741 11.1319 40.1741C4.98473 40.1741 0.00146484 45.1574 0.00146484 51.3046C0.00146484 57.4517 4.98473 62.435 11.1319 62.435Z" fill="#5DADFC"/>
</g>
<defs>
<clipPath id="clip0_348_24117">
<rect width="157.217" height="160" fill="white" transform="translate(0 -28)"/>
</clipPath>
</defs>
</svg>
