<svg width="32" height="32" viewBox="0 0 32 32" fill="none" xmlns="http://www.w3.org/2000/svg">
<path fill-rule="evenodd" clip-rule="evenodd" d="M16 32C7.16361 32 0 24.8363 0 16C-2.18555e-07 11 2.93624 6.75995 2.93624 6.75995L6.10051 9.02602C6.10051 9.02602 3.89183 12.2536 3.89177 16C3.89167 22.0246 8.29201 27.021 14.054 27.9517L14.054 23.984C10.4553 23.11 7.78358 19.8673 7.78348 16C9.59595 16 9.89595 16 11.6753 16C11.6753 18.3883 13.6116 20.3246 16 20.3246C18.3883 20.3246 20.3247 18.3883 20.3247 16C20.3247 15.5316 20.25 15.0803 20.1123 14.658C19.5661 12.9839 18.0267 11.759 16.1905 11.6794C16.1273 11.6767 16.0638 11.6753 16 11.6753C14.0603 11.6753 12.3416 10.7293 11.2803 9.27379C10.5773 8.30982 10.1623 7.12225 10.1623 5.83764L10.18 5.37968C10.4133 2.36947 12.93 6.78861e-09 16 6.78861e-09C16.0636 -1.82561e-06 16.889 0.0003673 16.9524 0.00110534C20.3494 0.0406443 22.7297 1.13899 25.3033 2.98141C29.3577 5.88408 32 10.6336 32 16C32 24.8363 24.8363 32 16 32ZM17.946 27.9517C23.708 27.0207 28.1083 22.0246 28.1083 16C28.1083 13.1053 27.0923 10.448 25.398 8.36465C23.39 5.89626 20.1869 3.94316 16.9524 3.89328C16.889 3.8923 16.0636 3.89181 16 3.89181C14.9253 3.89181 14.054 4.76291 14.054 5.83764C14.054 6.91238 14.9253 7.78348 16 7.78348C16.0637 7.78348 16.1272 7.78421 16.1905 7.78565C17.8743 7.82395 19.4327 8.36872 20.7197 9.27379C21.8083 10.039 22.7027 11.0616 23.3143 12.2536C23.891 13.377 24.2163 14.6503 24.2163 16C24.2163 19.8673 21.5443 23.11 17.946 23.984V27.9517Z" fill="#7F56D9"/>
</svg>
