<svg width="64" height="64" viewBox="0 0 38 38" fill="none" xmlns="http://www.w3.org/2000/svg">
	<path
		d="M4.6707 6.94161L0.333313 11.2563V17.3877H10.0073V12.2782L4.6707 6.94161ZM0.333313 20.601V26.7437L4.65934 31.0697L10.0073 25.7218V20.6123H0.333313V20.601ZM37.6666 20.601H27.9927V25.7105L33.3406 31.0584L37.6666 26.7324V20.5896V20.601ZM12.2895 27.9814L6.94158 33.3293L11.2676 37.6553H17.4104V27.97H12.3009L12.2895 27.9814ZM25.7218 27.9814H20.6123V37.6667H26.7437L31.0697 33.3406L25.7218 27.9927V27.9814ZM37.6666 11.2563L33.3406 6.93025L27.9927 12.2782V17.3877H37.6666V11.2563ZM26.7437 0.333336H20.6123V10.0187H25.7218L31.0697 4.67072L26.7437 0.333336ZM11.2563 0.333336L6.93023 4.65937L12.2782 10.0073H17.3877V0.333336H11.2563Z"
		fill="#ffffff"
	/>
</svg>
